<svg
					xmlns="http://www.w3.org/2000/svg" xmlns:xlink="http://www.w3.org/1999/xlink"
					style="
						overflow: visible;
						height: 100;
					"
					viewBox="-3.988470453540071 0 52.09399328626377 77.115"
				>
					<path d="M 42.60677974073554 34.245 L 41.999279740735545 34.245 L 41.391779740735544 34.245 L 40.78427974073554 34.245 L 40.17677974073554 34.245 L 39.56927974073554 34.245 L 38.96177974073554 34.245 L 38.354279740735535 34.245 L 37.74677974073554 34.245 L 37.139279740735546 34.245 L 36.531779740735544 34.245 L 35.92427974073554 34.245 L 35.31677974073554 34.245 L 34.70927974073554 34.245 L 34.10177974073554 34.245 L 33.494279740735536 34.245 L 32.88677974073554 34.245 L 32.38395538954164 35.35124999999999 L 31.92385006978464 36.457499999999996 L 31.511369456325234 37.56375 L 31.150700591291166 38.66999999999999 L 30.845248703729023 39.77624999999999 L 30.59758582642004 40.882499999999986 L 30.409411985206177 41.98874999999999 L 30.281529546459932 43.094999999999985 L 30.817154546459935 43.094999999999985 L 31.35277954645993 43.094999999999985 L 31.888404546459935 43.094999999999985 L 32.424029546459934 43.094999999999985 L 32.95965454645993 43.094999999999985 L 33.49527954645994 43.094999999999985 L 34.03090454645994 43.094999999999985 L 34.56652954645993 43.094999999999985 L 35.10215454645993 43.094999999999985 L 35.63777954645994 43.094999999999985 L 36.173404546459935 43.094999999999985 L 36.70902954645993 43.094999999999985 L 37.24465454645993 43.094999999999985 L 37.78027954645994 43.094999999999985 L 38.31590454645993 43.094999999999985 L 38.85152954645993 43.094999999999985 L 38.89696275442997 43.93218749999998 L 38.97648997760555 44.76937499999998 L 39.08942357288636 45.60656249999999 L 39.23478704436965 46.44374999999999 L 39.411323486756665 47.280937499999986 L 39.617506453357656 48.11812499999999 L 39.85155315472363 48.955312499999984 L 40.11143987378112 49.79249999999999 L 40.394919464180894 50.629687499999996 L 40.699540780558685 51.46687499999999 L 41.02266987270159 52.304062499999986 L 41.3615127603617 53.14124999999999 L 41.713139591791574 53.9784375 L 42.07450997711131 54.815625 L 42.4424992774589 55.65281249999999 L 42.81392562261091 56.489999999999995 L 42.17455062261091 56.489999999999995 L 41.53517562261091 56.489999999999995 L 40.895800622610906 56.489999999999995 L 40.256425622610905 56.489999999999995 L 39.617050622610904 56.489999999999995 L 38.9776756226109 56.489999999999995 L 38.3383006226109 56.489999999999995 L 37.69892562261091 56.489999999999995 L 37.059550622610914 56.489999999999995 L 36.42017562261091 56.489999999999995 L 35.78080062261091 56.489999999999995 L 35.14142562261091 56.489999999999995 L 34.50205062261091 56.489999999999995 L 33.86267562261091 56.489999999999995 L 33.22330062261091 56.489999999999995 L 32.583925622610906 56.489999999999995 L 32.99326530369911 57.779062499999995 L 33.39144075807476 59.068124999999995 L 33.766982405887134 60.357187499999995 L 34.108884197400826 61.646249999999995 L 34.40682901191348 62.935312499999995 L 34.65139994771867 64.224375 L 34.834273175991164 65.5134375 L 34.948388409034244 66.8025 L 34.988093491776574 68.0915625 L 34.94926015535012 69.380625 L 34.82936856216829 70.6696875 L 34.62755891105934 71.95875 L 34.34464904560527 73.2478125 L 33.98311770507538 74.536875 L 33.547053760967785 75.8259375 L 33.042072478771615 77.115 L 32.45269747877162 77.115 L 31.86332247877162 77.115 L 31.27394747877162 77.115 L 30.68457247877162 77.115 L 30.09519747877162 77.115 L 29.50582247877162 77.115 L 28.91644747877162 77.115 L 28.32707247877162 77.115 L 27.73769747877162 77.115 L 27.148322478771618 77.115 L 26.558947478771618 77.115 L 25.969572478771617 77.115 L 25.380197478771617 77.115 L 24.790822478771616 77.115 L 24.20144747877162 77.115 L 23.61207247877162 77.115 L 24.117053760967785 75.8259375 L 24.55311770507538 74.536875 L 24.914649045605273 73.2478125 L 25.19755891105934 71.95875 L 25.399368562168288 70.6696875 L 25.519260155350118 69.380625 L 25.558093491776575 68.0915625 L 25.518388409034245 66.8025 L 25.404273175991165 65.5134375 L 25.221399947718673 64.224375 L 24.97682901191348 62.935312499999995 L 24.678884197400823 61.646249999999995 L 24.336982405887134 60.357187499999995 L 23.96144075807476 59.068124999999995 L 23.56326530369911 57.779062499999995 L 23.153925622610906 56.489999999999995 L 22.416425622610905 56.489999999999995 L 21.678925622610905 56.489999999999995 L 20.941425622610904 56.489999999999995 L 20.203925622610903 56.489999999999995 L 19.466425622610902 56.489999999999995 L 18.7289256226109 56.489999999999995 L 17.991425622610905 56.489999999999995 L 17.253925622610904 56.489999999999995 L 17.66764030369911 57.779062499999995 L 18.07019075807476 59.068124999999995 L 18.45010740588713 60.357187499999995 L 18.796384197400823 61.646249999999995 L 19.098704011913483 62.935312499999995 L 19.347649947718672 64.224375 L 19.53489817599116 65.5134375 L 19.653388409034243 66.8025 L 19.697468491776576 68.0915625 L 19.66301015535012 69.380625 L 19.547493562168285 70.6696875 L 19.35005891105934 71.95875 L 19.071524045605273 73.2478125 L 18.71436770507538 74.536875 L 18.282678760967784 75.8259375 L 17.782072478771617 77.115 L 17.197072478771616 77.115 L 16.612072478771616 77.115 L 16.02707247877162 77.115 L 15.442072478771617 77.115 L 14.857072478771617 77.115 L 14.272072478771616 77.115 L 13.687072478771618 77.115 L 13.102072478771618 77.115 L 12.517072478771617 77.115 L 11.932072478771616 77.115 L 11.347072478771619 77.115 L 10.762072478771618 77.115 L 10.177072478771617 77.115 L 9.59207247877162 77.115 L 9.007072478771619 77.115 L 8.422072478771618 77.115 L 8.922678760967788 75.8259375 L 9.35436770507538 74.536875 L 9.711524045605275 73.2478125 L 9.990058911059343 71.95875 L 10.18749356216829 70.6696875 L 10.30301015535012 69.380625 L 10.337468491776578 68.0915625 L 10.293388409034247 66.8025 L 10.174898175991165 65.5134375 L 9.987649947718674 64.224375 L 9.738704011913484 62.935312499999995 L 9.436384197400827 61.646249999999995 L 9.090107405887135 60.357187499999995 L 8.710190758074765 59.068124999999995 L 8.307640303699115 57.779062499999995 L 7.893925622610906 56.489999999999995 L 6.903925622610906 56.489999999999995 L 5.913925622610906 56.489999999999995 L 4.923925622610906 56.489999999999995 L 3.933925622610906 56.489999999999995 L 2.9439256226109056 56.489999999999995 L 1.9539256226109056 56.489999999999995 L 0.9639256226109055 56.489999999999995 L -0.026074377389094586 56.489999999999995 L -0.3975007225411068 55.65281249999999 L -0.7654900228886927 54.815625 L -1.1268604082084326 53.9784375 L -1.4784872396383033 53.14124999999999 L -1.8173301272984146 52.304062499999986 L -2.1404592194413152 51.46687499999999 L -2.4450805358191103 50.629687499999996 L -2.7285601262188797 49.79249999999999 L -2.988446845276369 48.955312499999984 L -3.2224935466423443 48.11812499999999 L -3.428676513243341 47.280937499999986 L -3.605212955630358 46.44374999999999 L -3.750576427113643 45.60656249999999 L -3.863510022394454 44.76937499999998 L -3.943037245570035 43.93218749999998 L -3.988470453540071 43.094999999999985 L -3.3859704535400708 43.094999999999985 L -2.7834704535400707 43.094999999999985 L -2.180970453540071 43.094999999999985 L -1.578470453540071 43.094999999999985 L -0.9759704535400715 43.094999999999985 L -0.37347045354007147 43.094999999999985 L 0.22902954645992857 43.094999999999985 L 0.8315295464599286 43.094999999999985 L 1.4340295464599286 43.094999999999985 L 2.036529546459928 43.094999999999985 L 2.639029546459928 43.094999999999985 L 3.241529546459928 43.094999999999985 L 3.844029546459928 43.094999999999985 L 4.446529546459928 43.094999999999985 L 5.049029546459927 43.094999999999985 L 5.651529546459928 43.094999999999985 L 5.779411985206174 41.98874999999999 L 5.967585826420034 40.882499999999986 L 6.215248703729019 39.77624999999999 L 6.520700591291165 38.66999999999999 L 6.881369456325235 37.56375 L 7.293850069784639 36.457499999999996 L 7.753955389541637 35.35124999999999 L 8.25677974073554 34.245 L 7.734904740735541 34.245 L 7.213029740735541 34.245 L 6.691154740735541 34.245 L 6.169279740735542 34.245 L 5.647404740735542 34.245 L 5.1255297407355425 34.245 L 4.603654740735541 34.245 L 4.081779740735541 34.245 L 3.559904740735542 34.245 L 3.0380297407355417 34.245 L 2.516154740735541 34.245 L 1.9942797407355415 34.245 L 1.4724047407355418 34.245 L 0.9505297407355418 34.245 L 0.42865474073554166 34.245 L -0.09322025926445798 34.245 L 0.2178915211500967 33.387187499999996 L 0.5485392759717751 32.529374999999995 L 0.8957215179895686 31.671562499999993 L 1.2562866665739079 30.813749999999995 L 1.6269616564569136 29.955937499999997 L 2.0043816493012616 29.098124999999996 L 2.3851205783480456 28.24031249999999 L 2.7657222488716022 27.382499999999993 L 3.142731712123888 26.524687499999995 L 3.5127266279683758 25.66687499999999 L 3.8723483315060854 24.80906249999999 L 4.218332321683466 23.95124999999999 L 4.547537895118786 23.09343749999999 L 4.856976656143093 22.23562499999999 L 5.143839644253067 21.37781249999999 L 5.40552283272369 20.51999999999999 L 6.035522832723691 20.51999999999999 L 6.66552283272369 20.51999999999999 L 7.295522832723691 20.51999999999999 L 7.92552283272369 20.51999999999999 L 8.55552283272369 20.51999999999999 L 9.18552283272369 20.51999999999999 L 9.81552283272369 20.51999999999999 L 10.44552283272369 20.51999999999999 L 11.07552283272369 20.51999999999999 L 11.705522832723691 20.51999999999999 L 12.335522832723692 20.51999999999999 L 12.96552283272369 20.51999999999999 L 13.59552283272369 20.51999999999999 L 14.22552283272369 20.51999999999999 L 14.855522832723691 20.51999999999999 L 15.48552283272369 20.51999999999999 L 15.982200806301487 19.23749999999999 L 16.41046714457819 17.95499999999999 L 16.764832896369906 16.672499999999992 L 17.04130721662463 15.389999999999992 L 17.237478268479 14.107499999999991 L 17.35256211580118 12.824999999999992 L 17.387418615074584 11.542499999999993 L 17.34453398446353 10.259999999999994 L 17.22797040341922 8.977499999999996 L 17.043283664538343 7.694999999999996 L 16.797410547028555 6.412499999999996 L 16.498528194935876 5.129999999999997 L 16.155888350806165 3.847499999999998 L 15.779629805181175 2.5649999999999986 L 15.380572863936301 1.2824999999999993 L 14.969999999999999 0 L 15.559375 0 L 16.14875 0 L 16.738125 0 L 17.3275 0 L 17.916875 0 L 18.50625 0 L 19.095625 0 L 19.685 0 L 20.274375 0 L 20.863749999999996 0 L 21.453124999999996 0 L 22.042499999999997 0 L 22.631874999999997 0 L 23.221249999999998 0 L 23.810624999999998 0 L 24.4 0 L 24.806197863936298 1.2824999999999993 L 25.200879805181174 2.5649999999999986 L 25.572763350806166 3.847499999999998 L 25.911028194935874 5.129999999999997 L 26.205535547028553 6.412499999999996 L 26.447033664538342 7.694999999999996 L 26.62734540341922 8.977499999999996 L 26.739533984463527 10.259999999999994 L 26.77804361507458 11.542499999999993 L 26.738812115801178 12.824999999999992 L 26.619353268479 14.107499999999991 L 26.41880721662463 15.389999999999992 L 26.137957896369905 16.672499999999992 L 25.779217144578187 17.95499999999999 L 25.346575806301487 19.23749999999999 L 24.845522832723688 20.51999999999999 L 25.57427283272369 20.51999999999999 L 26.303022832723688 20.51999999999999 L 27.03177283272369 20.51999999999999 L 27.76052283272369 20.51999999999999 L 28.48927283272369 20.51999999999999 L 29.21802283272369 20.51999999999999 L 29.946772832723692 20.51999999999999 L 30.67552283272369 20.51999999999999 L 31.17220080630149 19.23749999999999 L 31.600467144578186 17.95499999999999 L 31.954832896369904 16.672499999999992 L 32.23130721662463 15.389999999999992 L 32.427478268479 14.107499999999991 L 32.54256211580118 12.824999999999992 L 32.577418615074585 11.542499999999993 L 32.53453398446353 10.259999999999994 L 32.41797040341922 8.977499999999996 L 32.23328366453834 7.694999999999996 L 31.98741054702856 6.412499999999996 L 31.688528194935877 5.129999999999997 L 31.345888350806167 3.847499999999998 L 30.969629805181174 2.5649999999999986 L 30.5705728639363 1.2824999999999993 L 30.16 0 L 30.75 0 L 31.340000000000003 0 L 31.930000000000003 0 L 32.52 0 L 33.11 0 L 33.7 0 L 34.290000000000006 0 L 34.88 0 L 35.47 0 L 36.06 0 L 36.650000000000006 0 L 37.24 0 L 37.83 0 L 38.42 0 L 39.010000000000005 0 L 39.6 0 L 40.0055728639363 1.2824999999999993 L 40.39962980518118 2.5649999999999986 L 40.770888350806175 3.847499999999998 L 41.10852819493588 5.129999999999997 L 41.40241054702856 6.412499999999996 L 41.643283664538345 7.694999999999996 L 41.82297040341922 8.977499999999996 L 41.93453398446353 10.259999999999994 L 41.97241861507458 11.542499999999993 L 41.932562115801176 12.824999999999992 L 41.812478268479 14.107499999999991 L 41.61130721662463 15.389999999999992 L 41.32983289636991 16.672499999999992 L 40.970467144578194 17.95499999999999 L 40.53720080630149 19.23749999999999 L 40.03552283272369 20.51999999999999 L 40.53989783272369 20.51999999999999 L 41.04427283272369 20.51999999999999 L 41.548647832723695 20.51999999999999 L 42.05302283272369 20.51999999999999 L 42.55739783272369 20.51999999999999 L 43.06177283272369 20.51999999999999 L 43.56614783272369 20.51999999999999 L 44.07052283272369 20.51999999999999 L 44.574897832723686 20.51999999999999 L 45.07927283272369 20.51999999999999 L 45.58364783272369 20.51999999999999 L 46.08802283272369 20.51999999999999 L 46.59239783272369 20.51999999999999 L 47.096772832723694 20.51999999999999 L 47.60114783272369 20.51999999999999 L 48.10552283272369 20.51999999999999 L 47.843839644253066 21.37781249999999 L 47.55697665614309 22.23562499999999 L 47.24753789511879 23.09343749999999 L 46.918332321683465 23.95124999999999 L 46.572348331506085 24.80906249999999 L 46.21272662796838 25.66687499999999 L 45.842731712123886 26.524687499999995 L 45.4657222488716 27.382499999999993 L 45.08512057834805 28.24031249999999 L 44.70438164930126 29.098124999999996 L 44.326961656456916 29.955937499999997 L 43.95628666657391 30.813749999999995 L 43.59572151798957 31.671562499999993 L 43.24853927597177 32.529374999999995 L 42.917891521150096 33.387187499999996 L 42.60677974073554 34.245 L 42.60677974073554 34.245 Z M 17.61677974073554 34.245 L 17.113955389541637 35.35124999999999 L 16.65385006978464 36.457499999999996 L 16.24136945632523 37.56375 L 15.880700591291165 38.66999999999999 L 15.57524870372902 39.77624999999999 L 15.327585826420034 40.882499999999986 L 15.139411985206173 41.98874999999999 L 15.01152954645993 43.094999999999985 L 15.74152954645993 43.094999999999985 L 16.47152954645993 43.094999999999985 L 17.20152954645993 43.094999999999985 L 17.93152954645993 43.094999999999985 L 18.66152954645993 43.094999999999985 L 19.39152954645993 43.094999999999985 L 20.12152954645993 43.094999999999985 L 20.85152954645993 43.094999999999985 L 20.979411985206177 41.98874999999999 L 21.167585826420034 40.882499999999986 L 21.415248703729016 39.77624999999999 L 21.720700591291163 38.66999999999999 L 22.081369456325234 37.56375 L 22.49385006978464 36.457499999999996 L 22.953955389541633 35.35124999999999 L 23.45677974073554 34.245 L 22.72677974073554 34.245 L 21.996779740735544 34.245 L 21.266779740735544 34.245 L 20.536779740735543 34.245 L 19.806779740735543 34.245 L 19.076779740735542 34.245 L 18.346779740735542 34.245 L 17.61677974073554 34.245 L 17.61677974073554 34.245 Z" fill="black" stroke="black" />
				</svg>