<svg
					xmlns="http://www.w3.org/2000/svg" xmlns:xlink="http://www.w3.org/1999/xlink"
					style="
						overflow: visible;
						height: 100;
					"
					viewBox="-3.7523179947899368 0 27.697164742792154 96.34499999999998"
				>
					<path d="M 18.228942049776055 48.60000000000001 L 18.228942049776055 48.60000000000001 Q 18.386739196017377 49.14000000000001 18.551364583052077 49.679824218750014 Q 18.725934377592562 50.21964843750001 18.906073132944883 50.75929687500001 Q 19.094835323117483 51.2989453125 19.28777655399247 51.83841796875 Q 19.487898620244994 52.377890625 19.690699410800757 52.917187500000004 Q 19.899137781976158 53.45648437500001 20.108665932923394 53.995605468750014 Q 20.32221010775843 54.53472656250001 20.535189464634705 55.07367187500001 Q 20.750508396630384 55.61261718750001 20.96356610794777 56.151386718750004 Q 21.177256181046825 56.690156249999994 21.386971202649132 57.22874999999999 Q 21.595605105216052 57.767343749999995 21.798557252229525 58.30576171874999 Q 21.99873304689842 58.84417968749999 22.191551889777468 59.38242187499999 Q 22.379941576899835 59.920664062499995 22.559354483270734 60.45873046874999 Q 22.73275136590023 60.996796874999994 22.89563000506153 61.53468749999999 Q 23.05099418345535 62.072578124999986 23.19439883523159 62.61029296874999 Q 23.328900188387124 63.14800781249998 23.450121232145033 63.68554687499998 Q 23.561179282452418 64.22308593749997 23.657775284937724 64.76044921874998 Q 23.74309538901332 65.29781249999998 23.812927260592243 65.83499999999998 Q 23.87034045772646 66.37124999999997 23.909818468527064 66.90433593749998 Q 23.936487243374277 67.43742187499998 23.944846748002217 67.96734374999998 Q 23.939970381203043 68.49726562499998 23.91661482235889 69.02402343749998 Q 23.87979362093723 69.55078124999997 23.824521872133293 70.07437499999997 Q 23.755746873707114 70.59796874999998 23.668740230171004 71.11839843749999 Q 23.568377590910902 71.63882812499997 23.450181733490385 72.15609374999997 Q 23.31895235829441 72.67335937499998 23.170454868796444 73.18746093749998 Q 23.009409881154777 73.7015625 22.83181391982337 74.21249999999998 Q 22.64230659482061 74.72343749999997 22.43710137021933 75.23121093749998 Q 22.220756167688755 75.73898437499999 21.98968483681699 76.24359374999999 Q 21.7483641736156 76.74820312499997 21.493389806521098 77.24964843749999 Q 21.22915919817029 77.75109374999998 20.95242942761516 78.24937499999999 Q 20.667521611194392 78.74765624999999 20.37133256517278 79.24277343749999 Q 20.068111188482565 79.73789062499999 19.754871272723307 80.22984374999999 Q 19.43579470052367 80.72179687499998 19.10798876072577 81.21058593749999 Q 18.775574508500195 81.69937499999997 18.43572885913763 82.18499999999999 Q 18.09211430648295 82.6715625 17.742239822728575 83.15261718749998 Q 17.390257010857763 83.63367187499999 17.033310630291695 84.10921874999998 Q 16.675479686577066 84.58476562499999 16.31390187892315 85.05480468749998 Q 15.95260498486518 85.52484374999999 15.588686713751594 85.98937499999998 Q 15.226145294234243 86.45390624999999 14.862007538227328 86.91292968749998 Q 14.500263810211413 87.37195312499999 14.137841375917477 87.82546874999998 Q 13.778744139608733 88.27898437499998 13.419773616647689 88.72699218749999 Q 13.064968109146328 89.17499999999998 12.7109797594958 89.61749999999998 Q 12.361901338662285 90.05999999999999 12.014214666178846 90.49699218749998 Q 11.67208605066487 90.933984375 11.331808760139019 91.36546874999999 Q 10.997640519770396 91.79695312499999 10.665670548116992 92.22292968749998 Q 10.340264516459603 92.64890624999998 10.01729480090528 93.06937499999998 Q 9.701250068158558 93.48984374999998 9.387775706779701 93.90480468749999 Q 9.081496845303832 94.31976562499999 8.777824303141037 94.72921874999999 Q 8.481531479055812 95.13867187499997 8.18778949739141 95.54261718749999 Q 7.901530128882704 95.94656249999998 7.617682005210064 96.34499999999998 L 7.617682005210064 96.34499999999998 L 6.907057005210065 96.34499999999998 L 6.196432005210065 96.34499999999998 L 5.485807005210065 96.34499999999998 L 4.775182005210064 96.34499999999998 L 4.064557005210064 96.34499999999998 L 3.3539320052100643 96.34499999999998 L 2.643307005210064 96.34499999999998 L 1.9326820052100637 96.34499999999998 L 1.2220570052100634 96.34499999999998 L 0.5114320052100632 96.34499999999998 L -0.19919299478993668 96.34499999999998 L -0.9098179947899365 96.34499999999998 L -1.6204429947899368 96.34499999999998 L -2.3310679947899366 96.34499999999998 L -3.041692994789937 96.34499999999998 L -3.7523179947899368 96.34499999999998 Q -3.4932863672237384 95.93249999999999 -3.23026391249951 95.51478515624999 Q -2.9592500277882525 95.0970703125 -2.6841454059582706 94.67414062499998 Q -2.4011920060859895 94.25121093749999 -2.1141416775835307 93.82306640624998 Q -1.8194755579934867 93.394921875 -1.5208070956434345 92.96156249999999 Q -1.2148507632595982 92.52820312499998 -0.905093693223054 92.08962890624998 Q -0.5884752736093595 91.65105468749998 -0.2683699800725434 91.20726562499999 Q 0.05806897402509881 90.76347656249999 0.3875646316512493 90.31447265624999 Q 0.7227637811847338 89.86546874999999 1.0604704895516275 89.41124999999998 Q 1.403148146733164 88.95703124999997 1.747664142040016 88.49759765624998 Q 2.0963178408715377 88.03816406249999 2.4460212231064586 87.57351562499998 Q 2.798931739959297 87.10886718749998 3.1519864026731748 86.63900390624998 Q 3.507225515864183 86.16914062499998 3.8615909631863525 85.69406249999999 Q 4.217033202817995 85.21898437499999 4.57047848252738 84.73869140624998 Q 4.9238170741748934 84.25839843749999 5.2739390025383575 83.77289062499999 Q 5.622706150386874 83.28738281249998 5.96695194097971 82.79666015624998 Q 6.30854352765815 82.30593749999998 6.644237862530775 81.80999999999999 Q 6.976567564319793 81.31406249999999 7.300964391380768 80.81578124999999 Q 7.620082015158159 80.3175 7.929943246566939 79.81687499999998 Q 8.2332714166651 79.31624999999998 8.526052628073721 78.81328124999999 Q 8.811100133084393 78.31031249999998 9.084361204681416 77.80499999999998 Q 9.348758651259526 77.29968749999999 9.600199465816807 76.79203124999998 Q 9.841734741566398 76.28437499999998 10.069230432771047 75.77437499999999 Q 10.285883460565554 75.264375 10.487518682411313 74.75203124999999 Q 10.677494929313813 74.23968749999999 10.851596601639912 73.725 Q 11.013358793589482 73.21031250000001 11.158526770738849 72.69328125000001 Q 11.290824260070297 72.17625000000001 11.405959369769796 71.656875 Q 11.507854607070485 71.13749999999999 11.592183515601526 70.61578125 Q 11.663075090916083 70.0940625 11.71617146892499 69.57000000000001 Q 11.755813210316687 69.04593750000001 11.777614701565819 68.51953125 Q 11.786130351818432 67.993125 11.776950885014445 67.46437500000002 Q 11.754843919947133 66.935625 11.715380951556948 66.40453125 Q 11.663539155998361 65.87343750000001 11.594875489559344 65.34 Q 11.515194969279083 64.8065625 11.420942243421322 64.27400390625 Q 11.31609327617689 63.741445312500005 11.19782445327803 63.209765624999996 Q 11.07014427466812 62.6780859375 10.930323142606124 62.14728515625001 Q 10.782396688918167 61.616484375000006 10.623715449064777 61.0865625 Q 10.45833652079825 60.556640625 10.283675737773537 60.02759765625001 Q 10.10380582385415 59.49855468750001 9.916192344369723 58.97039062500001 Q 9.724917723866014 58.4422265625 9.527481187672484 57.914941406249994 Q 9.327968936941135 57.38765625 9.123897509429941 56.86125 Q 8.919351044632993 56.33484375 8.711846998182203 55.80931640624999 Q 8.505461776258937 55.28378906249999 8.297697536236319 54.759140625 Q 8.09261752201346 54.2344921875 7.88769277385453 53.71072265625 Q 7.686968257490744 53.18695312499999 7.487868683955269 52.664062499999986 Q 7.29441600189056 52.14117187499999 7.103974185064427 51.61916015624999 Q 6.920537859721024 51.09714843749998 6.741396841251671 50.576015624999975 Q 6.570514610628637 50.05488281249998 6.405094556811013 49.53462890624998 Q 6.249065715610827 49.01437499999997 6.099534082086668 48.494999999999976 L 6.099534082086668 48.494999999999976 Q 5.990977346476194 48.093281249999976 5.886772248913236 47.69167968749998 Q 5.789198834549229 47.29007812499998 5.696362634216852 46.88859374999998 Q 5.6105205087803025 46.487109374999974 5.529746163445203 46.085742187499974 Q 5.4562721565427035 45.684374999999974 5.38813897034384 45.28312499999998 Q 5.327553938814107 44.88187499999998 5.272523191282541 44.48074218749998 Q 5.225228118566316 44.079609374999976 5.1836396425230085 43.678593749999976 Q 5.149912700085218 43.27757812499998 5.121982432549011 42.87667968749999 Q 5.101977023596811 42.47578124999998 5.087795546019482 42.07499999999998 Q 5.081539343887637 41.67421874999998 5.081071420121911 41.27355468749998 Q 5.088466405760853 40.87289062499998 5.1015515182243645 40.47234374999998 Q 5.122375013289899 40.07179687499998 5.1487288898760415 39.67136718749999 Q 5.182635574045445 39.27093749999999 5.221852690513733 38.87062499999998 Q 5.2683775839035185 38.47031249999998 5.31993461881871 38.07011718749999 Q 5.378497002814916 37.669921874999986 5.441757214655882 37.269843749999986 Q 5.511665457147755 36.869765624999985 5.585883946031526 36.46980468749999 Q 5.6663411900202805 36.06984374999999 5.7506709996394925 35.66999999999999 Q 5.840781667529608 35.270156249999985 5.934280676435109 34.870429687499986 Q 6.033057736057234 34.470703124999986 6.134696281381031 34.07109374999999 Q 6.241069213990481 33.671484374999984 6.349738385143067 33.27199218749999 Q 6.462561790329479 32.87249999999999 6.577082325161564 32.47312499999999 Q 6.695145092833244 32.07374999999999 6.814276804261876 31.674492187499993 Q 6.936311779667406 31.27523437499999 7.058763436863459 30.876093749999992 Q 7.183457501013606 30.476953124999994 7.307897085959111 30.077929687499996 Q 7.4339015708394625 29.678906249999994 7.558966828412324 29.279999999999994 Q 7.68490818405135 28.881093749999994 7.80921738179916 28.482304687499997 Q 7.933708010593021 28.083515624999997 8.055870823029599 27.684843749999995 Q 8.1775199957334 27.286171874999994 8.29614842733814 26.8876171875 Q 8.413573194818285 26.489062499999996 8.527292455941524 26.090624999999996 Q 8.639128471144062 25.692187499999996 8.74658772171769 25.2938671875 Q 8.851499887337251 24.895546874999994 8.95138276464999 24.497343749999995 Q 9.048075623671522 24.099140624999997 9.139110472478595 23.701054687499994 Q 9.226338261092973 23.302968749999994 9.307307986971555 22.904999999999994 Q 9.38405127134808 22.506562499999994 9.452560088253229 22.110659179687495 Q 9.516173549561469 21.714755859374993 9.571150554382749 21.321386718749995 Q 9.620794958459584 20.928017578124994 9.661462014547094 20.537182617187494 Q 9.696414887689459 20.146347656249993 9.722111033401358 19.758046874999994 Q 9.741767851243457 19.369746093749995 9.75194990660015 18.983979492187494 Q 9.755824155559797 18.598212890624996 9.750066237553057 18.214980468749996 Q 9.737788416241118 17.831748046874992 9.715780433408012 17.451049804687493 Q 9.687096067712407 17.070351562499994 9.648641270234657 16.692187499999996 Q 9.603408020832324 16.314023437499998 9.54841968682132 15.938393554687496 Q 9.486603631682911 15.562763671874995 9.415100973509022 15.189667968749998 Q 9.3367721505981 14.816572265624998 9.248875527181742 14.446010742187497 Q 9.15420282407823 14.075449218749995 9.05012834604844 13.707421874999994 Q 8.939373823718217 13.339394531249996 8.819427438338503 12.973901367187494 Q 8.692940175806283 12.608408203124995 8.557511317648803 12.245449218749993 Q 8.415720862993556 11.882490234374995 8.265275754596182 11.522065429687494 Q 8.108685265563633 11.161640624999995 7.943759949817546 10.803749999999996 Q 7.772939104521167 10.445859374999996 7.594132287397866 10.090502929687496 Q 7.4097100421466635 9.735146484374996 7.217675820670548 9.382324218749996 Q 7.020333088006743 9.029501953124996 6.815773634199964 8.679213867187496 Q 6.606235949838515 8.328925781249996 6.389894216793046 7.981171874999997 Q 6.168924459411343 7.633417968749997 5.941576970761046 7.288198242187497 Q 5.709968193571035 6.942978515624997 5.4724179725218285 6.600292968749996 Q 5.230986400344541 6.257607421874997 4.984056089147175 5.917456054687497 Q 4.7336343293724195 5.577304687499996 4.47815954475888 5.239687499999997 Q 4.219590055177413 4.902070312499998 3.956413019892117 4.566987304687498 Q 3.690541870995048 4.231904296874998 3.4205053561942522 3.8993554687499974 Q 3.1481763202004767 3.566806640624998 2.8721179282203018 3.236791992187498 Q 2.5941669218674512 2.906777343749998 2.312913733719684 2.5792968749999985 Q 2.0301636367817997 2.251816406249999 1.7445272437686508 1.9268701171874991 Q 1.4577831103831596 1.6019238281249992 1.1685550444630075 1.2795117187499994 Q 0.8785997196938153 0.9570996093749995 0.5865472927100983 0.6372216796874997 Q 0.29413744237033046 0.3173437499999998 0 0 L 0 0 L 0.7156250000000001 0 L 1.4312500000000001 0 L 2.146875 0 L 2.8625000000000003 0 L 3.578125 0 L 4.29375 0 L 5.009375 0 L 5.7250000000000005 0 L 6.440625000000001 0 L 7.15625 0 L 7.871875 0 L 8.5875 0 L 9.303125000000001 0 L 10.01875 0 L 10.734375 0 L 11.450000000000001 0 Q 11.859314256150641 0.40499999999999936 12.264881505538343 0.8156835937499989 Q 12.66969505439608 1.2263671874999982 13.069963169043636 1.6427343749999976 Q 13.468677605094006 2.059101562499997 13.861983187731271 2.481152343749997 Q 14.252894790194581 2.9032031249999966 14.637475189738923 3.330937499999996 Q 15.01878816820088 3.758671874999996 15.392796180434742 4.192089843749995 Q 15.762638628645256 4.625507812499995 16.124159939764468 5.064609374999995 Q 16.480602534486742 5.503710937499995 16.82767592076812 5.948496093749995 Q 17.16875335517933 6.393281249999994 17.49939360121632 6.843749999999995 Q 17.823128688704752 7.294218749999995 18.13535212969818 7.750371093749995 Q 18.43978245426944 8.206523437499994 18.7316349851358 8.668359374999994 Q 19.01484190952752 9.130195312499994 19.284429235704174 9.597714843749996 Q 19.54456900842465 10.065234374999996 19.79008884103959 10.538437499999995 Q 20.025425469832314 11.011640624999995 20.245201292433716 11.490527343749996 Q 20.45414077531278 11.969414062499997 20.646656731939714 12.453984374999997 Q 20.82778215937919 12.938554687499996 20.99171853597253 13.428808593749997 Q 21.143825500759267 13.919062499999997 21.278094195588732 14.415 Q 21.400190071987684 14.911875 21.505196817695314 15.41162109375 Q 21.597997003866276 15.9113671875 21.67362121282512 16.413984375 Q 21.737170375479526 16.9166015625 21.783616650572256 17.422089843749998 Q 21.81827903167094 17.927578124999997 21.83607684485885 18.435937499999998 Q 21.84254402688375 18.944296874999996 21.832553367791174 19.455527343749992 Q 21.811847730730904 19.966757812499992 21.775260273607167 20.480859374999994 Q 21.72873383393887 20.994960937499997 21.66706933831924 21.511933593749994 Q 21.596397713244684 22.028906249999995 21.511495431035453 22.54874999999999 Q 21.418666732640705 23.068593749999994 21.31267166003681 23.591308593749993 Q 21.199970193503358 24.114023437499995 21.07531407962628 24.639609374999992 Q 20.945298796551015 25.165195312499993 20.80467590129483 25.69365234374999 Q 20.66015364280575 26.222109374999988 20.506491323226854 26.75343749999999 Q 20.350484976940706 27.28476562499999 20.186909273549155 27.818964843749992 Q 20.022621062337603 28.353164062499985 19.85241755257418 28.890234374999984 Q 19.68318777022317 29.427304687499984 19.5097580547752 29.96724609374999 Q 19.339019662388246 30.507187499999986 19.16583394916629 31.049999999999983 Q 18.996674890383904 31.593749999999986 18.828869391484464 32.13808593749999 Q 18.66715252951296 32.68242187499999 18.508423262987613 33.22734374999999 Q 18.3573603611175 33.77226562499999 18.21083007493412 34.31777343749999 Q 18.07343972330739 34.863281249999986 17.942014552810907 35.409375 Q 17.821076218464654 35.955468749999994 17.70740117279816 36.5021484375 Q 17.605412342489263 37.048828124999986 17.51183022764618 37.596093749999994 Q 17.430967316839872 38.143359374999996 17.359481746966978 38.691210937499996 Q 17.301565401564588 39.239062499999996 17.253808498146544 39.787499999999994 Q 17.220273858565484 40.3359375 17.197479175289825 40.884960937500004 Q 17.18935160606694 41.433984375 17.192332746248592 41.983593750000004 Q 17.210209459246972 42.53320312500001 17.23934477359138 43.08339843750001 Q 17.283382690131717 43.63359375 17.33860635638561 44.184375 Q 17.408516464312395 44.73515625 17.48931615817277 45.28652343750001 Q 17.584364525242886 45.83789062500001 17.689785795062377 46.389843750000004 Q 17.808801301454622 46.94179687500001 17.937458659189264 47.49433593750001 Q 18.07884741081219 48.046875000000014 18.228942049776055 48.60000000000001 L 18.228942049776055 48.60000000000001 Z" fill="black" stroke="black" />
				</svg>