<svg
					xmlns="http://www.w3.org/2000/svg" xmlns:xlink="http://www.w3.org/1999/xlink"
					style="
						overflow: visible;
						height: 100;
					"
					viewBox="0 0 23.868639882694673 16.425000000000004"
				>
					<path d="M 23.74145543451962 16.425000000000004 L 23.12051793451962 16.425000000000004 L 22.49958043451962 16.425000000000004 L 21.87864293451962 16.425000000000004 L 21.257705434519618 16.425000000000004 L 20.636767934519618 16.425000000000004 L 20.015830434519618 16.425000000000004 L 19.394892934519618 16.425000000000004 L 18.773955434519618 16.425000000000004 L 18.15301793451962 16.425000000000004 L 17.53208043451962 16.425000000000004 L 16.91114293451962 16.425000000000004 L 16.29020543451962 16.425000000000004 L 15.669267934519619 16.425000000000004 L 15.048330434519618 16.425000000000004 L 14.427392934519618 16.425000000000004 L 13.806455434519618 16.425000000000004 L 13.185517934519618 16.425000000000004 L 12.564580434519618 16.425000000000004 L 11.943642934519618 16.425000000000004 L 11.32270543451962 16.425000000000004 L 10.70176793451962 16.425000000000004 L 10.08083043451962 16.425000000000004 L 9.459892934519619 16.425000000000004 L 8.838955434519619 16.425000000000004 L 8.218017934519619 16.425000000000004 L 7.5970804345196195 16.425000000000004 L 6.97614293451962 16.425000000000004 L 6.35520543451962 16.425000000000004 L 5.73426793451962 16.425000000000004 L 5.11333043451962 16.425000000000004 L 4.49239293451962 16.425000000000004 L 3.87145543451962 16.425000000000004 L 3.9607851463860726 15.398437500000005 L 3.9986398826946745 14.371875000000003 L 3.9845276774451963 13.345312500000002 L 3.9186319350368763 12.318750000000003 L 3.801809046716518 11.292187500000002 L 3.6355772607855656 10.265625000000004 L 3.422096951210667 9.239062500000003 L 3.1641425410699013 8.212500000000002 L 2.8650664457219137 7.185937500000001 L 2.5287555042980867 6.159375000000002 L 2.159580465740818 5.132812500000002 L 1.7623391858751436 4.106250000000001 L 1.3421942737333439 3.079687500000001 L 0.9046059974905274 2.0531250000000005 L 0.45526132197601665 1.0265625000000003 L 0 0 L 0.6209374999999999 0 L 1.2418749999999998 0 L 1.8628124999999998 0 L 2.4837499999999997 0 L 3.1046875 0 L 3.7256249999999995 0 L 4.346562499999999 0 L 4.967499999999999 0 L 5.5884374999999995 0 L 6.209375 0 L 6.8303125 0 L 7.451249999999999 0 L 8.072187499999998 0 L 8.693124999999998 0 L 9.314062499999999 0 L 9.934999999999999 0 L 10.555937499999999 0 L 11.176874999999999 0 L 11.7978125 0 L 12.41875 0 L 13.0396875 0 L 13.660625 0 L 14.2815625 0 L 14.902499999999998 0 L 15.523437499999996 0 L 16.144374999999997 0 L 16.765312499999997 0 L 17.386249999999997 0 L 18.007187499999997 0 L 18.628124999999997 0 L 19.249062499999997 0 L 19.869999999999997 0 L 20.325261321976015 1.0265625000000003 L 20.774605997490525 2.0531250000000005 L 21.212194273733342 3.079687500000001 L 21.63233918587514 4.106250000000001 L 22.029580465740814 5.132812500000002 L 22.398755504298084 6.159375000000002 L 22.735066445721912 7.185937500000001 L 23.034142541069897 8.212500000000002 L 23.292096951210663 9.239062500000003 L 23.505577260785564 10.265625000000004 L 23.671809046716515 11.292187500000002 L 23.788631935036875 12.318750000000003 L 23.854527677445194 13.345312500000002 L 23.868639882694673 14.371875000000003 L 23.83078514638607 15.398437500000005 L 23.74145543451962 16.425000000000004 L 23.74145543451962 16.425000000000004 Z" fill="black" stroke="black" />
				</svg>