<svg
					xmlns="http://www.w3.org/2000/svg" xmlns:xlink="http://www.w3.org/1999/xlink"
					style="
						overflow: visible;
						height: 100;
					"
					viewBox="-3.897061476408621 0 25.20706147640862 96.34499999999998"
				>
					<path d="M -3.0910579502239464 48.60000000000001 L -3.0910579502239464 48.60000000000001 Q -3.2411525891878092 48.046875000000014 -3.3751975908107323 47.49433593750001 Q -3.496511198545379 46.94179687500001 -3.6008392049376234 46.389843750000004 Q -3.6915729747571127 45.83789062500001 -3.7645900918272273 45.28652343750001 Q -3.8233585356876034 44.73515625 -3.8638936436143894 44.184375 Q -3.8897423098682866 43.63359375 -3.897061476408621 43.08339843750001 Q -3.889478040753028 42.53320312500001 -3.8632922537514065 41.983593750000004 Q -3.822210893933064 41.433984375 -3.7626770747101776 40.884960937500004 Q -3.688476141434517 40.3359375 -3.596191501853457 39.787499999999994 Q -3.4896845984354132 39.239062499999996 -3.365674503033023 38.691210937499996 Q -3.2280951831601254 38.143359374999996 -3.073794772353823 37.596093749999994 Q -2.9067751575107383 37.048828124999986 -2.7240050772018396 36.5021484375 Q -2.529548781535346 35.955468749999994 -2.320485447189096 35.409375 Q -2.1009352766926104 34.863281249999986 -1.8680761750658825 34.31777343749999 Q -1.6260771388825022 33.77226562499999 -1.372201737012389 33.22734374999999 Q -1.1106599704870401 32.68242187499999 -0.8387868585155365 32.13808593749999 Q -0.560825109616094 31.593749999999986 -0.27416605083370893 31.049999999999983 Q 0.015894662388245107 30.507187499999986 0.3132346172752032 29.96724609374999 Q 0.6132658952231733 29.427304687499984 0.9188238025741864 28.890234374999984 Q 1.2253554373376092 28.353164062499985 1.5356983360491592 27.818964843749992 Q 1.845328726940709 27.28476562499999 2.15711632322686 26.75343749999999 Q 2.4665598928057553 26.222109374999988 2.776589963794833 25.69365234374999 Q 3.0827206715510194 25.165195312499993 3.3879703296262837 24.639609374999992 Q 3.68786081850336 24.114023437499995 3.9855232225368113 23.591308593749993 Q 4.276479232640707 23.068593749999994 4.5639954310354565 22.54874999999999 Q 4.843585213244689 22.028906249999995 5.118670900819243 21.511933593749994 Q 5.384749458938872 20.994960937499997 5.645416523607169 20.480859374999994 Q 5.896144605730903 19.966757812499992 6.140717430291176 19.455527343749992 Q 6.374575276883752 18.944296874999996 6.601701844858854 18.435937499999998 Q 6.8174977816709434 17.927578124999997 7.026155713072257 17.422089843749998 Q 7.223029750479526 16.9166015625 7.412527462825125 16.413984375 Q 7.589950128866278 15.9113671875 7.759923380195316 15.41162109375 Q 7.917690071987685 14.911875 8.068094195588737 14.415 Q 8.20632550075927 13.919062499999997 8.338085723472537 13.428808593749997 Q 8.45801653437919 12.938554687499996 8.572125481939715 12.453984374999997 Q 8.67484390031278 11.969414062499997 8.77250597993372 11.490527343749996 Q 8.859331719832316 11.011640624999995 8.94196384103959 10.538437499999995 Q 9.014412758424648 10.065234374999996 9.083608923204173 9.597714843749996 Q 9.143357534527516 9.130195312499994 9.200853735135802 8.668359374999994 Q 9.249704329269441 8.206523437499994 9.297344317198183 7.750371093749995 Q 9.337191188704754 7.294218749999995 9.376893601216318 6.843749999999995 Q 9.40969085517933 6.393281249999994 9.44341810826812 5.948496093749995 Q 9.471149409486742 5.503710937499995 9.500878689764466 5.064609374999995 Q 9.525529253645256 4.625507812499995 9.553225867934744 4.192089843749995 Q 9.57675691820088 3.758671874999996 9.604350189738923 3.330937499999996 Q 9.62867604019458 2.9032031249999966 9.658037875231273 2.481152343749997 Q 9.685005730094007 2.059101562499997 9.717931919043636 1.6427343749999976 Q 9.74930442939608 1.2263671874999982 9.787498693038343 0.8156835937499989 Q 9.824939256150643 0.40499999999999936 9.870000000000001 0 L 9.870000000000001 0 L 10.585 0 L 11.3 0 L 12.015 0 L 12.73 0 L 13.445 0 L 14.16 0 L 14.875 0 L 15.59 0 L 16.305 0 L 17.02 0 L 17.735 0 L 18.45 0 L 19.165 0 L 19.88 0 L 20.595 0 L 21.31 0 Q 21.300387442370326 0.3173437499999998 21.294281667710095 0.6372216796874997 Q 21.287818469693814 0.9570996093749995 21.284492544463006 1.2795117187499994 Q 21.28043936038316 1.6019238281249992 21.27913661876865 1.9268701171874991 Q 21.276726136781797 2.251816406249999 21.27666373371968 2.5792968749999985 Q 21.275104421867447 2.906777343749998 21.2754773032203 3.236791992187498 Q 21.273957570200473 3.566806640624998 21.27394285619425 3.8993554687499974 Q 21.271635620995045 4.231904296874998 21.270397394892115 4.566987304687498 Q 21.26646505517741 4.902070312499998 21.263159544758878 5.239687499999997 Q 21.256759329372418 5.577304687499996 21.250540464147175 5.917456054687497 Q 21.240830150344543 6.257607421874997 21.230855472521828 6.600292968749996 Q 21.216999443571034 6.942978515624997 21.202436345761047 7.288198242187497 Q 21.18361195941134 7.633417968749997 21.163644216793045 7.981171874999997 Q 21.139048449838516 8.328925781249996 21.11288300919997 8.679213867187496 Q 21.081739338006745 9.029501953124996 21.04861332067055 9.382324218749996 Q 21.010178792146665 9.735146484374996 20.969366662397867 10.090502929687496 Q 20.92293910452117 10.445859374999996 20.873759949817547 10.803749999999996 Q 20.81868526556363 11.161640624999995 20.760510129596177 11.522065429687494 Q 20.696189612993553 11.882490234374995 20.6284488176488 12.245449218749993 Q 20.55434642580628 12.608408203124995 20.4765368133385 12.973901367187494 Q 20.392186323718214 13.339394531249996 20.303878346048435 13.707421874999994 Q 20.208890324078226 14.075449218749995 20.10973490218174 14.446010742187497 Q 20.003803400598095 14.816572265624998 19.893538473509018 15.189667968749998 Q 19.77644738168291 15.562763671874995 19.654904061821316 15.938393554687496 Q 19.52653302083232 16.314023437499998 19.393641270234657 16.692187499999996 Q 19.253971067712406 17.070351562499994 19.10976480840801 17.451049804687493 Q 18.958882166241118 17.831748046874992 18.803503737553058 18.214980468749996 Q 18.641605405559794 18.598212890624996 18.475309281600147 18.983979492187494 Q 18.302705351243457 19.369746093749995 18.125861033401357 19.758046874999994 Q 17.942977387689456 20.146347656249993 17.756071389547092 20.537182617187494 Q 17.563451208459583 20.928017578124994 17.367088054382748 21.321386718749995 Q 17.165392299561468 21.714755859374993 16.960294463253227 22.110659179687495 Q 16.75030127134808 22.506562499999994 16.537307986971555 22.904999999999994 Q 16.320400761092973 23.302968749999994 16.101483519353593 23.701054687499994 Q 15.878759217421521 24.099140624999997 15.65462495214999 24.497343749999995 Q 15.427300668587252 24.895546874999994 15.19919514359269 25.2938671875 Q 14.968542533644062 25.692187499999996 14.737761205941524 26.090624999999996 Q 14.505096632318287 26.489062499999996 14.27297459921314 26.8876171875 Q 14.0396489019834 27.286171874999994 13.807550510529598 27.684843749999995 Q 13.57493847934302 28.083515624999997 13.344246678674159 28.482304687499997 Q 13.11373630905135 28.881093749999994 12.885841828412325 29.279999999999994 Q 12.658823445839463 29.678906249999994 12.435113882834111 30.077929687499996 Q 12.212969219763607 30.476953124999994 11.994818124363459 30.876093749999992 Q 11.778909435917406 31.27523437499999 11.567665476136877 31.674492187499993 Q 11.359324780333248 32.07374999999999 11.156301075161567 32.47312499999999 Q 10.956819602829482 32.87249999999999 10.763283307018067 33.27199218749999 Q 10.573901245240481 33.671484374999984 10.391063468881033 34.07109374999999 Q 10.212960079807235 34.470703124999986 10.041966223310109 34.870429687499986 Q 9.87625041752961 35.270156249999985 9.718170999639494 35.66999999999999 Q 9.565872440020282 36.06984374999999 9.421694492906528 36.46980468749999 Q 9.283755300897758 36.869765624999985 9.154374402155884 37.269843749999986 Q 9.031641534064917 37.669921874999986 8.917854540693712 38.07011718749999 Q 8.81107289640352 38.47031249999998 8.713571440513736 38.87062499999998 Q 8.623377761545447 39.27093749999999 8.542742561751043 39.67136718749999 Q 8.4696601695399 40.07179687499998 8.406356205724368 40.47234374999998 Q 8.350790624510855 40.87289062499998 8.305163216996913 41.27355468749998 Q 8.267398718887637 41.67421874999998 8.239670546019482 42.07499999999998 Q 8.219867648596813 42.47578124999998 8.210136729424011 42.87667968749999 Q 8.208330668835217 43.27757812499998 8.216569330023008 43.678593749999976 Q 8.232669524816316 44.079609374999976 8.258724363157539 44.48074218749998 Q 8.292514876314105 44.88187499999998 8.336107720343836 45.28312499999998 Q 8.387248719042702 45.684374999999974 8.447978585320202 46.085742187499974 Q 8.516008790030302 46.487109374999974 8.593354821716852 46.88859374999998 Q 8.677694928299228 47.29007812499998 8.771020295788237 47.69167968749998 Q 8.870977346476193 48.093281249999976 8.979534082086667 48.494999999999976 L 8.979534082086667 48.494999999999976 Q 9.129065715610826 49.01437499999997 9.292399244311012 49.53462890624998 Q 9.465123985628635 50.05488281249998 9.650615591251668 50.576015624999975 Q 9.844365984721023 51.09714843749998 10.049716372564426 51.61916015624999 Q 10.262072251890558 52.14117187499999 10.48474368395527 52.664062499999986 Q 10.713062007490745 53.18695312499999 10.950309961354531 53.71072265625 Q 11.191758147013461 54.2344921875 11.44066628623632 54.759140625 Q 11.692258651258937 55.28378906249999 11.949776685682204 55.80931640624999 Q 12.208413544632993 56.33484375 12.471397509429941 56.86125 Q 12.733906436941135 57.38765625 12.999160875172485 57.914941406249994 Q 13.262339598866015 58.4422265625 13.526661094369723 58.97039062500001 Q 13.787321448854149 59.49855468750001 14.047542925273536 60.02759765625001 Q 14.30255527079825 60.556640625 14.555590449064777 61.0865625 Q 14.801927938918167 61.616484375000006 15.044815330106125 62.14728515625001 Q 15.279597399668123 62.6780859375 15.509543203278032 63.209765624999996 Q 15.73007765117689 63.741445312500005 15.944496930921323 64.27400390625 Q 16.148319969279083 64.8065625 16.344875489559342 65.34 Q 16.53041415599836 65.87343750000001 16.707724701556952 66.40453125 Q 16.872656419947134 66.935625 17.028825885014445 67.46437500000002 Q 17.172067851818433 67.993125 17.306208451565816 68.51953125 Q 17.427063210316685 69.04593750000001 17.538671468924992 69.57000000000001 Q 17.636825090916084 70.0940625 17.725777265601526 70.61578125 Q 17.801292107070484 71.13749999999999 17.867834369769795 71.656875 Q 17.921136760070297 72.17625000000001 17.965870520738846 72.69328125000001 Q 17.99773379358948 73.21031250000001 18.02159660163991 73.725 Q 18.033119929313813 74.23968749999999 18.037362432411314 74.75203124999999 Q 18.029945960565552 75.264375 18.01610543277105 75.77437499999999 Q 17.991422241566397 76.28437499999998 17.961293215816806 76.79203124999998 Q 17.921258651259524 77.29968749999999 17.87686120468142 77.80499999999998 Q 17.823600133084394 78.31031249999998 17.767146378073722 78.81328124999999 Q 17.7029589166651 79.31624999999998 17.63681824656694 79.81687499999998 Q 17.56414451515816 80.3175 17.490808141380768 80.81578124999999 Q 17.412192564319792 81.31406249999999 17.334237862530774 81.80999999999999 Q 17.25229352765815 82.30593749999998 17.17363162847971 82.79666015624998 Q 17.092315525386873 83.28738281249998 17.015657752538353 83.77289062499999 Q 16.93764519917489 84.25839843749999 16.865595670027382 84.73869140624998 Q 16.793439452817996 85.21898437499999 16.728465963186355 85.69406249999999 Q 16.664569265864184 86.16914062499998 16.608978590173177 86.63900390624998 Q 16.5555723649593 87.10886718749998 16.511489973106457 87.57351562499998 Q 16.470614715871534 88.03816406249999 16.439968829540014 88.49759765624998 Q 16.413460646733164 88.95703124999997 16.39797048955163 89.41124999999998 Q 16.387451281184735 89.86546874999999 16.388619319151253 90.31447265624999 Q 16.3954908490251 90.76347656249999 16.41459876992746 91.20726562499999 Q 16.440040351390643 91.65105468749998 16.478148494276947 92.08962890624998 Q 16.523117986740402 92.52820312499998 16.581067904356566 92.96156249999999 Q 16.646305692006514 93.394921875 16.724725509916468 93.82306640624998 Q 16.81076111891401 94.25121093749999 16.91007334404173 94.67414062499998 Q 17.017234347211748 95.0970703125 17.13766577500049 95.51478515624999 Q 17.26608863277626 95.93249999999999 17.407682005210063 96.34499999999998 L 17.407682005210063 96.34499999999998 L 16.697057005210066 96.34499999999998 L 15.986432005210064 96.34499999999998 L 15.275807005210064 96.34499999999998 L 14.565182005210064 96.34499999999998 L 13.854557005210063 96.34499999999998 L 13.143932005210063 96.34499999999998 L 12.433307005210063 96.34499999999998 L 11.722682005210062 96.34499999999998 L 11.012057005210062 96.34499999999998 L 10.301432005210062 96.34499999999998 L 9.590807005210062 96.34499999999998 L 8.880182005210063 96.34499999999998 L 8.169557005210065 96.34499999999998 L 7.458932005210064 96.34499999999998 L 6.748307005210064 96.34499999999998 L 6.037682005210064 96.34499999999998 Q 5.867155128882705 95.94656249999998 5.71040668489141 95.54261718749999 Q 5.561140854055813 95.13867187499997 5.425793053141037 94.72921874999999 Q 5.297824970303832 94.31976562499999 5.183830394279703 93.90480468749999 Q 5.077031318158559 93.48984374999998 4.9841698009052795 93.06937499999998 Q 4.898233266459604 92.64890624999998 4.826100235616994 92.22292968749998 Q 4.760531144770398 91.79695312499999 4.708527510139019 91.36546874999999 Q 4.662632925664868 90.933984375 4.629956853678847 90.49699218749998 Q 4.602838838662285 90.05999999999999 4.588479759495799 89.61749999999998 Q 4.579030609146329 89.17499999999998 4.581765804147691 88.72699218749999 Q 4.5886660146087355 88.27898437499998 4.607060125917478 87.82546874999998 Q 4.6287794352114116 87.37195312499999 4.661187225727329 86.91292968749998 Q 4.695989044234242 86.45390624999999 4.740561713751594 85.98937499999998 Q 4.786511234865182 85.52484374999999 4.841206566423154 85.05480468749998 Q 4.8961828115770665 84.58476562499999 4.9587793802916975 84.10921874999998 Q 5.020491385857767 83.63367187499999 5.088607010228579 83.15261718749998 Q 5.154614306482954 82.6715625 5.225728859137633 82.18499999999999 Q 5.293074508500196 81.69937499999997 5.362715323225772 81.21058593749999 Q 5.427747825523673 80.72179687499998 5.4937775227233105 80.22984374999999 Q 5.553970563482567 79.73789062499999 5.613871627672783 79.24277343749999 Q 5.666740361194395 78.74765624999999 5.718054427615165 78.24937499999999 Q 5.761190448170293 77.75109374999998 5.801553869021099 77.24964843749999 Q 5.8326610486156 76.74820312499997 5.859841086816995 76.24359374999999 Q 5.876771792688759 75.73898437499999 5.8887029327193305 75.23121093749998 Q 5.889494094820613 74.72343749999997 5.884313919823372 74.21249999999998 Q 5.867222381154778 73.7015625 5.843306431296444 73.18746093749998 Q 5.806842983294412 72.67335937499998 5.76283798349039 72.15609374999997 Q 5.705799465910906 71.63882812499997 5.640654292671008 71.11839843749999 Q 5.56215312370712 70.59796874999998 5.475146872133298 70.07437499999997 Q 5.374637370937238 69.55078124999997 5.265403884858897 69.02402343749998 Q 5.142704756203051 68.49726562499998 5.011252998002222 67.96734374999998 Q 4.866565368374281 67.43742187499998 4.713295031027064 66.90433593749998 Q 4.5472154577264625 66.37124999999997 4.372927260592244 65.83499999999998 Q 4.185595389013322 65.29781249999998 3.990119034937724 64.76044921874998 Q 3.783366782452417 64.22308593749997 3.5694962321450308 63.68554687499998 Q 3.345462688387121 63.14800781249998 3.115492585231588 62.61029296874999 Q 2.8766191834553507 62.072578124999986 2.6331300050615303 61.53468749999999 Q 2.3821263659002296 60.996796874999994 2.1279482332707347 60.45873046874999 Q 1.8677540768998322 59.920664062499995 1.605926889777468 59.38242187499999 Q 1.3396705468984194 58.84417968749999 1.0734010022295275 58.30576171874999 Q 0.804355105216052 57.767343749999995 0.5369712026491322 57.22874999999999 Q 0.26850618104682256 56.690156249999994 0.003409857947766659 56.151386718750004 Q -0.26105410336962 55.61261718750001 -0.5204355353652949 55.07367187500001 Q -0.7774773922415704 54.53472656250001 -1.0277403170766055 53.995605468750014 Q -1.2739872180238432 53.45648437500001 -1.5118005891992439 52.917187500000004 Q -1.7439763797550047 52.377890625 -1.9661296960075274 51.83841796875 Q -2.1811021768825176 51.2989453125 -2.384551867055116 50.75929687500001 Q -2.579378122407439 50.21964843750001 -2.761291666947921 49.679824218750014 Q -2.933260803982624 49.14000000000001 -3.0910579502239464 48.60000000000001 L -3.0910579502239464 48.60000000000001 Z" fill="black" stroke="black" />
				</svg>