<svg
					xmlns="http://www.w3.org/2000/svg" xmlns:xlink="http://www.w3.org/1999/xlink"
					style="
						overflow: visible;
						height: 100;
					"
					viewBox="-2.1180485787722105 0 42.686345716243196 88.35000000000001"
				>
					<path d="M 14.022261531301451 88.35000000000001 L 14.475795041444668 87.27000000000001 L 14.944778549636991 86.19 L 15.422466793506539 85.10999999999999 L 15.901989312833317 84.03 L 16.37644926551183 82.94999999999999 L 16.839022622957152 81.86999999999999 L 17.283056318253895 80.78999999999998 L 17.702163935409992 79.70999999999998 Q 17.419929547858445 79.69593749999999 17.143730717468706 79.67835937499999 Q 16.86752363206086 79.66078124999999 16.59734544768128 79.6396875 Q 16.327155296783268 79.61859374999999 16.062985980478587 79.59398437499999 Q 15.798800249252034 79.56937500000001 15.540625833196827 79.54124999999999 Q 15.282429786291713 79.51312499999999 15.030234032727247 79.481484375 Q 14.778010629858436 79.44984374999999 14.531774940114948 79.41468749999999 Q 14.285504740852808 79.37953124999999 14.045208053798472 79.34085937500001 Q 13.80486911195908 79.3021875 13.570487792294148 79.26 Q 13.10157202099949 79.17562500000001 12.656377977914497 79.07718750000001 Q 12.21089877564918 78.97875 11.78896978784225 78.86625000000001 Q 11.366656688663706 78.75375000000003 10.967689247975763 78.62718750000002 Q 10.56821926692977 78.50062500000001 10.191854227279983 78.36000000000001 Q 9.8167154980211 78.21750000000002 9.450487772837665 78.06234375000001 Q 9.083448697268064 77.90718749999999 8.725025785752006 77.739375 Q 8.365617909453588 77.5715625 8.0144923028917 77.39109375 Q 7.66218449297584 77.210625 7.317783457558388 77.0175 Q 6.97197794230172 76.824375 6.633659787275382 76.61859375 Q 6.293688675729592 76.4128125 5.960739615201297 76.19437500000001 Q 5.625862102943822 75.97593750000001 5.29749393060057 75.74484375 Q 4.966894420731723 75.51375 4.642243239364872 75.27000000000001 L 4.642243239364872 75.27000000000001 L 4.842502924630834 74.23781250000002 L 4.994247509254716 73.20562500000001 L 5.095483249712089 72.1734375 L 5.1448800286714 71.14125 L 5.141788831155134 70.1090625 L 5.086250271825394 69.076875 L 4.978994061355509 68.0446875 L 4.821429418898897 67.01249999999999 L 4.615626556623955 65.9803125 L 4.364289479586192 64.948125 L 4.070720458314971 63.9159375 L 3.7387766409028056 62.88374999999999 L 3.3728193746628876 61.85156249999998 L 2.977656903207942 60.81937499999998 L 2.5584811918427866 59.78718749999998 L 2.120799711309808 58.75499999999998 Q 2.666120347158045 59.03812499999998 3.2114909792189854 59.306953124999986 Q 3.7557849758922215 59.57578124999999 4.300154086539441 59.83031249999999 Q 4.843382393728014 60.08484375 5.386772444662029 60.325078125 Q 5.929001484155418 60.5653125 6.471529112719697 60.791250000000005 Q 7.01291198991105 61.01718750000001 7.554769901644631 61.22882812500001 Q 8.095528761528799 61.44046875000001 8.636968857441737 61.63781250000001 Q 9.177378541478921 61.83515625000001 9.718696400135121 62.018203125000014 Q 10.25906949674067 62.20125000000002 10.800590273687899 62.37000000000002 Q 11.341263602320053 62.538750000000014 11.867704362380493 62.69320312500002 Q 12.393401888653528 62.847656250000014 12.905110349391412 62.98781250000001 Q 13.416182495571888 63.12796875 13.913502132049311 63.253828125 Q 14.410291422813419 63.379687499999996 14.893552863609997 63.49125 Q 15.376385830106855 63.602812500000006 15.845899461562421 63.700078125000005 Q 16.315079716689766 63.79734375000001 16.771129405490406 63.88031250000001 Q 17.226931798918145 63.96328125000001 17.669769641582988 64.03195312500002 Q 18.112435403578807 64.10062500000001 18.54227741427534 64.15500000000002 L 18.54227741427534 64.15500000000002 L 18.28490377180763 63.32437500000002 L 18.004251428545224 62.49375000000001 L 17.702709215127605 61.66312500000001 L 17.38284377065758 60.83250000000001 L 17.047377696220096 60.00187500000001 L 16.699166380898355 59.17125000000001 L 16.34117369753727 58.340625 L 15.976446775124895 57.510000000000005 L 15.608090062521976 56.67937500000001 L 15.239238904301438 55.84875 L 14.873032853612635 55.018125 L 14.512588949223474 54.1875 L 14.160975184198296 53.356875 L 13.821184392038477 52.52625 L 13.496108772559245 51.69562499999999 L 13.188515274330973 50.864999999999995 Q 12.866596440680402 50.7440625 12.547694232442995 50.620136718750004 Q 12.229256240803256 50.4962109375 11.913896169730144 50.369296875 Q 11.599040311644469 50.242382812500004 11.28732721560628 50.11248046875001 Q 10.976160528595402 49.982578125 10.668205046712446 49.8496875 Q 10.360840380820214 49.716796875 10.056759007183437 49.58091796875 Q 9.753315067452991 49.445039062499994 9.453230179394902 49.306171875000004 Q 9.153831541806781 49.16730468750001 8.857871400208428 49.02544921875 Q 8.562648498537287 48.883593749999996 8.270947217587985 48.738749999999996 Q 7.980036298570168 48.59390625 7.692733782337943 48.446074218750006 Q 7.406276826489322 48.298242187499994 7.123518669614755 48.147421875 Q 6.8416632749997435 47.996601562500004 6.563600624794877 47.842792968750004 Q 6.286499851023968 47.688984375000004 6.013289228244078 47.5321875 Q 5.7411013979720735 47.375390624999994 5.472904473532882 47.21560546875 Q 5.205792928744215 47.05582031249999 4.942776253683042 46.893046874999996 Q 4.680909064087055 46.730273437499996 4.423243750115461 46.56451171874999 Q 4.166793371035157 46.39874999999999 3.914654719105322 46.22999999999999 Q 3.4142326308795017 45.892499999999984 2.9387928446993947 45.52874999999999 Q 2.4694982218284074 45.16499999999999 2.027138230437882 44.77499999999999 Q 1.5920307000544636 44.38499999999999 1.185977923010169 43.96874999999999 Q 0.7883521318907549 43.552499999999995 0.4220408949129215 43.10999999999999 Q 0.06536805333020812 42.66749999999999 -0.2576324492549409 42.19874999999999 Q -0.5697877409050789 41.72999999999999 -0.845871994144344 41.23499999999999 Q -1.1099625084803524 40.739999999999995 -1.3356162010317618 40.21874999999999 Q -1.5482524327918887 39.69749999999999 -1.720210310233795 39.14999999999999 Q -1.8795810801915027 38.60249999999999 -1.9857188995900115 38.015624999999986 Q -2.076842332197459 37.428749999999994 -2.111757827853595 36.802499999999995 Q -2.1309533327291703 36.176249999999996 -2.091575956211841 35.510625 Q -2.03644914330975 34.845 -1.9212848605266952 34.13999999999999 Q -1.7912402355400383 33.43499999999999 -1.600907641395266 32.69062499999999 Q -1.5007832886104093 32.31843749999999 -1.3857804673708676 31.93640624999999 Q -1.2679257013738452 31.554374999999993 -1.1354608654367895 31.162499999999994 Q -1.0006043591174296 30.770624999999992 -0.8515245187195338 30.368906249999995 Q -0.7006069878901856 29.967187499999998 -0.5359785236441347 29.555625 Q -0.37016344899701065 29.1440625 -0.19128136607846535 28.72265625 Q -0.011962701141412117 28.30125 0.1796435030529526 27.869999999999997 L 0.1796435030529526 27.869999999999997 Q 0.45206933299704244 27.254999999999995 0.7307144012361171 26.65927734375 Q 1.006232551772899 26.063554687499995 1.2860909844956514 25.487109374999996 Q 1.5609501342618326 24.910664062499997 1.838814503442304 24.353496093749996 Q 2.110211624815282 23.796328124999995 2.383785776612786 23.2584375 Q 2.649805185509811 22.720546874999997 2.91763242501216 22.201933593749995 Q 3.1771650930926576 21.683320312499994 3.4385405019077337 21.183984374999994 Q 3.691190577997199 20.684648437499995 3.9460639135415345 20.204589843749993 Q 4.1920484937312406 19.724531249999995 4.440923165014403 19.263749999999995 Q 4.680970364144722 18.802968749999998 4.924802983536511 18.36146484375 Q 5.160052363051509 17.919960937499997 5.400156396429507 17.497734375 Q 5.632064846895185 17.0755078125 5.870020969398604 16.672558593749997 Q 6.100276267154525 16.269609374999998 6.337851208022549 15.885937499999999 Q 6.568294688030803 15.502265625 6.807369633025823 15.137871093749999 Q 7.039928756382074 14.773476562499997 7.282437777486089 14.428359374999998 Q 7.519068825731918 14.0832421875 7.766947324801183 13.757402343749998 Q 8.00958802081846 13.431562499999998 8.264730800632748 13.125 Q 8.514576473857531 12.817499999999999 8.771645459909811 12.526289062499998 Q 9.024593865278092 12.235078125 9.285735355610292 11.960156249999999 Q 9.543253344271067 11.685234374999999 9.809877517414993 11.4266015625 Q 10.0733473349033 11.16796875 10.346774146291406 10.925625 Q 10.61748355019231 10.683281249999999 10.898935033829861 10.457226562499999 Q 11.17807116886966 10.231171875 11.468667149627304 10.021406249999998 Q 11.757313577783757 9.811640624999999 12.058070205095996 9.618164062499998 Q 12.357206512569578 9.4246875 12.669037057435625 9.247499999999999 Q 12.97954049642939 9.070312499999998 13.303257894330576 8.909414062499998 Q 13.625906561559823 8.748515624999998 13.962227230618012 8.603906249999998 Q 14.297704333004937 8.459296875 14.647252846463827 8.330976562499998 Q 14.996151654914371 8.202656249999997 15.359465897515832 8.090625 Q 15.722295039982615 7.978593749999999 16.099831527297855 7.882851562499998 Q 16.47702032101193 7.787109374999997 16.869159408052603 7.707656249999998 Q 17.261062976851804 7.628203124999998 17.66811372655929 7.565039062499999 Q 18.075017692065366 7.501874999999998 18.497222215171213 7.454999999999998 L 18.497222215171213 7.454999999999998 L 18.201917963575767 6.5231249999999985 L 17.878208217638154 5.591249999999999 L 17.529560330226392 4.659374999999999 L 17.159708774174597 3.727499999999999 L 16.772615141216434 2.7956249999999994 L 16.372425708179435 1.8637499999999996 L 15.963427024961467 0.9318749999999998 L 15.55 0 L 16.378750000000004 0 L 17.207500000000003 0 L 18.036250000000003 0 L 18.865000000000002 0 L 19.69375 0 L 20.5225 0 L 21.35125 0 L 22.18 0 L 22.587624495357378 0.9187500000000011 L 22.99100482064962 1.8375000000000021 L 23.385940995941848 2.756250000000003 L 23.76832096145378 3.6750000000000043 L 24.134163392162968 4.593750000000005 L 24.479659151202863 5.512500000000006 L 24.80121095044469 6.4312500000000075 L 25.095470805318648 7.3500000000000085 Q 25.37582955249947 7.369687500000008 25.654383534293096 7.3936523437500075 Q 25.93291675061971 7.4176171875000065 26.209630270246908 7.445859375000007 Q 26.486314795147674 7.474101562500007 26.761161887021625 7.506621093750006 Q 27.03597029870648 7.539140625000004 27.308920668917438 7.575937500000004 Q 27.58182116991147 7.612734375000004 27.85284007292188 7.653808593750003 Q 28.123796361235105 7.694882812500003 28.39284446278948 7.740234375000003 Q 28.661815589770256 7.785585937500001 28.928848817155412 7.835214843750002 Q 29.195789033231826 7.884843750000002 29.46075841418411 7.938750000000001 Q 29.990364258002362 8.0465625 30.51186391319277 8.171484374999999 Q 31.032756128734153 8.296406249999997 31.545196000997198 8.438437499999997 Q 32.05683281744705 8.580468749999998 32.55961152223504 8.739609374999997 Q 33.06135785323277 8.898749999999996 33.55377693735084 9.074999999999996 Q 34.04446778352732 9.249374999999997 34.52418490866772 9.430781249999997 Q 35.00249416393723 9.6121875 35.46957871168109 9.800625 Q 35.935109447650646 9.9890625 36.38914955219175 10.18453125 Q 36.841481966543434 10.379999999999999 37.28204321660052 10.5825 Q 37.7207354486304 10.785 38.14736190685393 10.994531249999998 Q 38.571951227041176 11.204062499999997 38.984166846223516 11.420624999999998 Q 39.39417125957777 11.637187499999996 39.79148173541451 11.860781249999993 Q 40.18640203802493 12.084374999999993 40.568297137470985 12.31499999999999 L 40.568297137470985 12.31499999999999 L 40.43548358539344 13.219687499999992 L 40.26249595966097 14.124374999999992 L 40.049124644744545 15.029062499999991 L 39.795567736115004 15.933749999999993 L 39.502429040284525 16.838437499999994 L 39.17071197881687 17.743124999999992 L 38.80180945785094 18.647812499999993 L 38.39748980541455 19.552499999999995 L 37.95987891850392 20.457187499999996 L 37.491438800171146 21.361874999999998 L 36.99494270330762 22.266562499999996 L 36.47344713207003 23.171249999999997 L 35.93026098362069 24.075937499999995 L 35.36891214172523 24.980624999999996 L 34.79311185947621 25.8853125 L 34.20671729073241 26.79 Q 33.969371197358335 26.572499999999998 33.72263612015052 26.36625 Q 33.475459024384115 26.160000000000004 33.21889496195411 25.965000000000003 Q 32.96185436400411 25.77 32.695457780005945 25.58625 Q 32.428570583589924 25.402500000000003 32.15238221517188 25.23 Q 31.875706233076215 25.057499999999997 31.589802897417947 24.896250000000002 Q 31.303428860875737 24.735000000000003 31.007915791834982 24.585 Q 30.711959909213615 24.435 30.406963659399292 24.296249999999997 Q 30.101560751873375 24.157499999999995 29.787222679321225 24.029999999999994 Q 29.473769906372528 23.902499999999996 29.156844777219128 23.784140624999996 Q 28.839588648174676 23.66578125 28.518946329685363 23.5565625 Q 28.198009173097812 23.447343749999998 27.87377205595655 23.347265625 Q 27.54927749606247 23.2471875 27.221567552675236 23.15625 Q 26.89363769338989 23.0653125 26.56257384127699 22.983515625 Q 26.231326750768513 22.90171875 25.897022509564728 22.8290625 Q 25.562569993290257 22.756406249999998 25.22513142272125 22.692890624999997 Q 24.88757707195831 22.629374999999996 24.54710097766294 22.574999999999996 L 24.54710097766294 22.574999999999996 L 24.2452179134856 23.391562499999996 L 23.926346085095897 24.208124999999995 L 23.59310857564215 25.024687499999995 L 23.24824664232432 25.84125 L 22.89459716643842 26.657812500000002 L 22.53506931680408 27.474375000000002 L 22.17262061854508 28.2909375 L 21.81023262408433 29.1075 L 21.450886386487024 29.924062500000005 L 21.097537936911564 30.740625 L 20.75309396789409 31.5571875 L 20.420387922499277 32.37375 L 20.10215668603125 33.190312500000005 L 19.80101807204183 34.00687500000001 L 19.51944928783921 34.823437500000004 L 19.2597665566428 35.64000000000001 Q 19.532133270845808 35.78156250000001 19.799025171701896 35.92417968750001 Q 20.066671652305853 36.06679687500001 20.328886646976116 36.210468750000004 Q 20.59188843195384 36.354140625 20.84950252127147 36.498867187500004 Q 21.107935653416217 36.64359375 21.361025277248668 36.789375 Q 21.614966176223117 36.935156250000006 21.863608081799907 37.0819921875 Q 22.11313340953768 37.22882812499999 22.357404513125303 37.376718749999995 Q 22.602591032598212 37.524609375 22.842568274545975 37.673554687499994 Q 23.083492701930606 37.82249999999999 23.319252895131754 37.9725 Q 23.55599174542984 38.1225 23.78761141726418 38.273554687499995 Q 24.020240843453738 38.424609374999996 24.247796071300737 38.57671874999999 Q 24.476391697118014 38.72882812499999 24.699957937553297 38.88199218749999 Q 24.924594684030172 39.035156249999986 25.14424659584335 39.18937499999999 Q 25.36499850175011 39.34359375 25.5808097629477 39.4988671875 Q 25.797749799317632 39.654140625 26.009792918302075 39.81046874999999 Q 26.437355235452745 40.12312499999999 26.845587600263375 40.43999999999999 Q 27.25725721995836 40.75874999999999 27.646830408894782 41.09906249999999 Q 28.04206136217895 41.439374999999984 28.4166916890875 41.80124999999999 Q 28.797773126775954 42.163124999999994 29.159825402817976 42.54656249999999 Q 29.52913622337245 42.92999999999999 29.881039572461404 43.334999999999994 Q 30.240998956822526 43.739999999999995 30.585189633382292 44.1665625 Q 30.938193812623936 44.593125 31.277043644607353 45.04125 Q 31.62538802073366 45.489375 31.96111785795482 45.9590625 Q 32.30690412811186 46.42875 32.641482305113996 46.92 Q 32.98570052202541 47.413125 33.32060238443894 47.94421875 Q 33.666879752275335 48.475312499999994 34.00613503183365 49.044375 Q 34.35722818788899 49.6134375 34.70308747829172 50.220468749999995 Q 35.060708614261586 50.8275 35.414153146847866 51.4725 Q 35.7785757665362 52.11749999999999 36.13890498309533 52.80046874999999 Q 36.50854786509395 53.4834375 36.87295913849562 54.204375 Q 37.24397712012655 54.92531249999999 37.60717215957021 55.68421874999999 Q 37.78994120781452 56.063671875 37.97000697747625 56.45261718749999 Q 38.150152460970176 56.841562499999995 38.326956697170075 57.239999999999995 L 38.326956697170075 57.239999999999995 Q 38.56844234623687 57.7865625 38.78849001522411 58.3228125 Q 39.005757258720855 58.85906250000001 39.20014134225499 59.385000000000005 Q 39.39029268769079 59.9109375 39.556375045689485 60.4265625 Q 39.716975198435705 60.9421875 39.85257777576835 61.447500000000005 Q 39.9816525085679 61.95281250000001 40.08505071712803 62.44781250000001 Q 40.181075539460906 62.94281250000001 40.25098236987894 63.42750000000001 Q 40.31286269696129 63.9121875 40.348405245430385 64.38656250000001 Q 40.375449741109435 64.8609375 40.37613978658933 65.325 Q 40.368028483438806 65.7890625 40.333728660332795 66.2428125 Q 40.290477354015984 66.6965625 40.22136434510208 67.14000000000001 Q 40.14328662805343 67.5834375 40.039812661032556 68.0165625 Q 39.92748081133587 68.44968750000001 39.790334587914565 68.8725 Q 39.644540370527636 69.29531250000001 39.474608396499704 69.7078125 Q 39.29632467220226 70.12031250000001 39.09465379644724 70.52250000000001 Q 38.884997674472764 70.9246875 38.65275948896624 71.3165625 Q 38.41295760653861 71.7084375 38.15141521214032 72.09 Q 37.883396581374775 72.4715625 37.593128074934775 72.83431640625 Q 37.29654641454168 73.19707031249999 36.97914712066445 73.541015625 Q 36.65619812183649 73.88496093750001 36.31378404637593 74.21009765625 Q 35.96654521597441 74.535234375 35.60110126350417 74.8415625 Q 35.23150907556042 75.147890625 34.844870909066884 75.43541015625001 Q 34.454706092211666 75.7229296875 34.04854943238063 75.991640625 Q 33.63942917751081 76.26035156249999 33.215265334297285 76.51025390625 Q 32.788641224630005 76.76015625 32.347817693943874 76.99125000000001 Q 31.90497821626286 77.22234375000001 31.448683246866462 77.43462890625001 Q 30.990759826304945 77.6469140625 30.520029955465123 77.840390625 Q 30.04800555648726 78.0338671875 29.56373521845 78.20853515625001 Q 29.078454663512 78.383203125 28.58140708516995 78.5390625 Q 28.083588353345366 78.694921875 27.574407060926227 78.83197265625 Q 27.064652936663492 78.9690234375 26.543873301781808 79.08726562500001 Q 26.02268284545903 79.2055078125 25.49074319567626 79.30494140625001 Q 25.224667740263982 79.35465820312501 24.955947792830766 79.39967285156251 Q 24.68717113061835 79.44468750000001 24.415774506996694 79.48500000000001 L 24.415774506996694 79.48500000000001 L 23.991496262372593 80.59312500000001 L 23.539790834399074 81.70125000000002 L 23.067497325011 82.80937500000002 L 22.58176655253782 83.91750000000002 L 22.08995278385373 85.025625 L 21.599502386189833 86.13375 L 21.11784108448964 87.24187500000002 L 20.65226153130145 88.35000000000001 L 19.82351153130145 88.35000000000001 L 18.99476153130145 88.35000000000001 L 18.16601153130145 88.35000000000001 L 17.33726153130145 88.35000000000001 L 16.50851153130145 88.35000000000001 L 15.679761531301454 88.35000000000001 L 14.851011531301454 88.35000000000001 L 14.022261531301451 88.35000000000001 L 14.022261531301451 88.35000000000001 Z M 13.649612883353756 32.72999999999999 L 14.15779836995236 31.473749999999992 L 14.693064814475099 30.217499999999994 L 15.245000271015961 28.961249999999996 L 15.80286854982137 27.705 L 16.35581805651055 26.44875 L 16.89309287613438 25.192500000000003 L 17.40424199608814 23.936250000000005 L 17.879322598096326 22.680000000000007 Q 17.35986875373446 22.747500000000006 16.883036945441198 22.86726562500001 Q 16.40580472742888 22.987031250000005 15.97051417911716 23.159062500000005 Q 15.534437013787329 23.331093750000008 15.139397211788676 23.555390625000005 Q 14.743113707911538 23.7796875 14.386821762777135 24.056250000000002 Q 14.028823803198694 24.332812500000003 13.709742935731303 24.661640625 Q 13.388576007945801 24.990468749999998 13.105369050311968 25.3715625 Q 12.819889151782402 25.752656249999994 12.571710253808932 26.186015624999996 Q 12.32139910883447 26.619374999999994 12.10824301487214 27.10499999999999 L 12.10824301487214 27.10499999999999 Q 11.881113011430722 27.61874999999999 11.731780761963105 28.08187499999999 Q 11.582222080424973 28.54499999999999 11.511662112003858 28.957499999999996 Q 11.441739252256244 29.369999999999997 11.451281913263594 29.731875 Q 11.461867160196626 30.093749999999993 11.551858128325073 30.404999999999994 Q 11.642971008822315 30.716249999999995 11.818487253412695 31.01718749999999 Q 11.995345346428746 31.318124999999995 12.256708549772075 31.608749999999993 Q 12.51958183031305 31.89937499999999 12.866997368745562 32.179687499999986 Q 13.041310025177678 32.31984374999999 13.236755887296015 32.45742187499999 Q 13.432620705999883 32.59499999999999 13.649612883353756 32.72999999999999 L 13.649612883353756 32.72999999999999 L 13.649612883353756 32.72999999999999 Z M 20.790193739100708 53.35499999999999 L 21.354076429995736 54.676874999999995 L 21.935744157053566 55.998749999999994 L 22.522671570549154 57.32062499999999 L 23.10222006122971 58.6425 L 23.661909913974856 59.964375000000004 L 24.189689039907933 61.28625 L 24.67419250021185 62.608125 L 25.10498723319003 63.93000000000001 Q 25.580848957614876 63.81000000000001 25.97726392175825 63.64242187500001 Q 26.372695569466273 63.474843750000005 26.687603317133036 63.2596875 Q 27.000960147642505 63.04453124999999 27.23250591637876 62.78179687499999 Q 27.46187522626616 62.51906249999999 27.60801590091364 62.208749999999995 Q 27.751359556934936 61.8984375 27.810031709462443 61.540546875000004 Q 27.865373133120425 61.18265625 27.834708558354052 60.7771875 Q 27.800368920392625 60.37171874999999 27.67896129589831 59.918671874999994 Q 27.55384719755825 59.465624999999996 27.341070032583428 58.965 L 27.341070032583428 58.965 Q 27.11930803393456 58.45125 26.8636960229731 57.989062499999996 Q 26.60640327663628 57.526875000000004 26.317091592470803 57.11625 Q 26.02725523522976 56.705625 25.706432987186748 56.3465625 Q 25.38575367990257 55.987500000000004 25.034524594118462 55.68000000000001 Q 24.679593044152018 55.368750000000006 24.23605783144923 55.0678125 Q 23.793255098849137 54.766875 23.262043673818 54.47624999999999 Q 22.731784152860033 54.18562499999999 22.113243441679163 53.905312499999994 Q 21.804387083301368 53.76515624999999 21.473474435235527 53.62757812499999 Q 21.14285985543753 53.489999999999995 20.790193739100708 53.35499999999999 L 20.790193739100708 53.35499999999999 L 20.790193739100708 53.35499999999999 Z" fill="black" stroke="black" />
				</svg>