<svg
					xmlns="http://www.w3.org/2000/svg" xmlns:xlink="http://www.w3.org/1999/xlink"
					style="
						overflow: visible;
						height: 100;
					"
					viewBox="-2.480400457373893 0 21.25008722873325 78.40500000000002"
				>
					<path d="M 15.190000000000001 0 L 15.508004078485564 0.7797656250000002 L 15.823411530086632 1.5595312500000005 L 16.13364520756257 2.3392968750000005 L 16.436166776826052 3.119062500000001 L 16.72849575927998 3.8988281250000014 L 17.008228140128132 4.678593750000001 L 17.273054403061742 5.4583593750000015 L 17.52077685602758 6.238125000000002 L 17.749326118101273 7.0178906250000015 L 17.95677664378293 7.797656250000003 L 18.14136116825334 8.577421875000002 L 18.30148396522379 9.357187500000002 L 18.435732817920414 10.136953125000002 L 18.542889613397904 10.916718750000003 L 18.62193948070506 11.696484375000004 L 18.672078404348564 12.476250000000004 L 18.69271925593947 13.256015625000003 L 18.683496198773618 14.035781250000003 L 18.644267432303227 14.815546875000003 L 18.5751162559109 15.595312500000006 L 18.476350444005682 16.37507812500001 L 18.348499937129233 17.154843750000005 L 18.1923128663931 17.934609375000008 L 18.00874994107144 18.714375000000004 L 17.798977241452935 19.494140625000007 L 17.564357471019175 20.273906250000003 L 17.30643973357492 21.053671875000006 L 17.026947912021072 21.833437500000006 L 16.727767735951844 22.61320312500001 L 16.410932635093634 23.39296875000001 L 16.07860848471179 24.172734375000008 L 15.733077357423788 24.952500000000008 L 15.37672040331105 25.732265625000007 L 15.011999986761243 26.512031250000007 L 14.641441214048696 27.291796875000006 L 14.267612990231235 28.071562500000006 L 13.893108747472803 28.851328125000006 L 13.520526989366086 29.631093750000005 L 13.152451797209768 30.410859375000005 L 12.791433444480445 31.19062500000001 L 12.439969264927566 31.970390625000014 L 12.100484917817063 32.75015625000002 L 11.775316190870043 33.529921875000014 L 11.466691477409125 34.30968750000001 L 11.176715059167158 35.08945312500001 L 10.907351320169095 35.869218750000016 L 10.660410010112955 36.64898437500001 L 10.437532667802536 37.42875000000001 L 10.240180306482012 38.20851562500001 L 10.069622453455821 38.988281250000014 L 9.926927626217552 39.76804687500001 L 9.812955316535021 40.547812500000006 L 9.728349542626107 41.32757812500001 L 9.673534017796351 42.10734375000001 L 9.648708971782698 42.88710937500001 L 9.653849648649366 43.66687500000001 L 9.68870649250449 44.446640625000015 L 9.75280701964429 45.22640625000002 L 9.845459363080138 46.00617187500002 L 9.965757462857821 46.78593750000002 L 10.112587863231736 47.56570312500001 L 10.284638065702225 48.345468750000016 L 10.48040637525245 49.12523437500002 L 10.69821316591924 49.905000000000015 L 9.97383816591924 49.905000000000015 L 9.24946316591924 49.905000000000015 L 8.52508816591924 49.905000000000015 L 7.800713165919239 49.905000000000015 L 7.076338165919239 49.905000000000015 L 6.351963165919239 49.905000000000015 L 5.62758816591924 49.905000000000015 L 4.90321316591924 49.905000000000015 L 4.17883816591924 49.905000000000015 L 3.45446316591924 49.905000000000015 L 2.73008816591924 49.905000000000015 L 2.0057131659192398 49.905000000000015 L 1.2813381659192395 49.905000000000015 L 0.5569631659192398 49.905000000000015 L -0.16741183408076 49.905000000000015 L -0.8917868340807602 49.905000000000015 L -1.1658436247475492 49.12523437500002 L -1.4178619342977767 48.345468750000016 L -1.6461621367682664 47.56570312500001 L -1.8492425371421797 46.78593750000002 L -2.0257906369198633 46.00617187500002 L -2.1746929803557107 45.22640625000002 L -2.2950435074955093 44.446640625000015 L -2.3861503513506337 43.66687500000001 L -2.4475410282173033 42.88710937500001 L -2.478965982203649 42.10734375000001 L -2.480400457373893 41.32757812500001 L -2.4520446834649787 40.547812500000006 L -2.3943223737824466 39.76804687500001 L -2.3078775465441788 38.988281250000014 L -2.1935696935179885 38.20851562500001 L -2.0524673321974642 37.42875000000001 L -1.885839989887045 36.64898437500001 L -1.6951486798309054 35.869218750000016 L -1.482034940832844 35.08945312500001 L -1.248308522590876 34.30968750000001 L -0.995933809129957 33.529921875000014 L -0.7270150821829384 32.75015625000002 L -0.4437807350724363 31.970390625000014 L -0.1485665555195561 31.19062500000001 L 0.156201797209767 30.410859375000005 L 0.468026989366085 29.631093750000005 L 0.7843587474728009 28.851328125000006 L 1.1026129902312332 28.071562500000006 L 1.420191214048694 27.291796875000006 L 1.7344999867612427 26.512031250000007 L 2.04297040331105 25.732265625000007 L 2.3430773574237866 24.952500000000008 L 2.632358484711788 24.172734375000008 L 2.908432635093631 23.39296875000001 L 3.1690177359518445 22.61320312500001 L 3.4119479120210734 21.833437500000006 L 3.635189733574921 21.053671875000006 L 3.836857471019176 20.273906250000003 L 4.015227241452932 19.494140625000007 L 4.1687499410714395 18.714375000000004 L 4.296062866393099 17.934609375000008 L 4.395999937129231 17.154843750000005 L 4.4676004440056785 16.37507812500001 L 4.510116255910896 15.595312500000006 L 4.523017432303227 14.815546875000003 L 4.505996198773617 14.035781250000003 L 4.458969255939468 13.256015625000003 L 4.3820784043485626 12.476250000000004 L 4.275689480705057 11.696484375000004 L 4.1403896133978995 10.916718750000003 L 3.9769828179204114 10.136953125000002 L 3.786483965223788 9.357187500000002 L 3.570111168253339 8.577421875000002 L 3.329276643782929 7.797656250000003 L 3.065576118101272 7.0178906250000015 L 2.7807768560275807 6.238125000000002 L 2.4768044030617413 5.4583593750000015 L 2.1557281401281303 4.678593750000001 L 1.8197457592799788 3.8988281250000014 L 1.4711667768260508 3.119062500000001 L 1.1123952075625707 2.3392968750000005 L 0.7459115300866316 1.5595312500000005 L 0.3742540784855624 0.7797656250000002 L 0 0 L 0.9493750000000001 0 L 1.8987500000000002 0 L 2.8481250000000005 0 L 3.7975000000000003 0 L 4.746875000000001 0 L 5.696250000000001 0 L 6.645625000000001 0 L 7.595000000000001 0 L 8.544375000000002 0 L 9.493750000000002 0 L 10.443125000000002 0 L 11.392500000000002 0 L 12.341875000000002 0 L 13.291250000000002 0 L 14.240625000000001 0 L 15.190000000000001 0 L 15.190000000000001 0 Z M 4.008307053789327 68.36999999999998 L 4.008307053789327 68.36999999999998 Q 3.9170622821816568 67.66687499999998 3.8464656175351877 67.01624999999997 Q 3.756686651150563 66.36562499999998 3.694932986405451 65.76749999999998 Q 3.618091065575276 65.16937499999997 3.5757865801652056 64.62374999999997 Q 3.5219948299389534 64.07812499999997 3.508273400791075 63.58499999999998 Q 3.486093274208177 63.09187499999998 3.508523021391603 62.651249999999976 Q 3.5249397467114534 62.21062499999998 3.5895691502462124 61.822499999999984 Q 3.6500852611545227 61.43437499999999 3.7615812716089705 61.09874999999998 Q 3.8703835827037576 60.76312499999999 4.032221588571984 60.47999999999999 Q 4.192385064816175 60.19687499999999 4.378431263302667 59.949140625 Q 4.563359481174475 59.70140624999999 4.774967197144195 59.489062499999996 Q 4.985860345779032 59.27671875 5.224011476818721 59.099765625 Q 5.461730163032941 58.9228125 5.72711341577584 58.78125 Q 5.992253692104764 58.6396875 6.28533353873339 58.53351562500001 Q 6.578291613369055 58.427343750000006 6.899365846462608 58.3565625 Q 7.220390715011841 58.28578125 7.569635233754531 58.25039062500001 Q 7.918868127139099 58.215 8.296368127139099 58.215 L 8.296368127139099 58.215 Q 8.665118127139099 58.215 9.036978983754532 58.25039062500001 Q 9.40882821501184 58.28578125 9.783740846462607 58.3565625 Q 10.158604113369053 58.427343750000006 10.536427288733389 58.53351562500001 Q 10.914128692104763 58.6396875 11.29461341577584 58.78125 Q 11.674855163032941 58.9228125 12.057605226818723 59.099765625 Q 12.439922845779034 59.27671875 12.824342197144198 59.489062499999996 Q 13.208046981174478 59.70140624999999 13.59327501330267 59.949140625 Q 13.977385064816177 60.19687499999999 14.362221588571986 60.47999999999999 Q 14.74538358270376 60.76312499999999 15.113456271608971 61.09874999999998 Q 15.478835261154524 61.43437499999999 15.827069150246214 61.822499999999984 Q 16.171189746711455 62.21062499999998 16.495398021391605 62.651249999999976 Q 16.81359327420818 63.09187499999998 17.108273400791077 63.58499999999998 Q 17.394494829938957 64.07812499999997 17.65266158016521 64.62374999999997 Q 17.89934106557528 65.16937499999997 18.11243298640545 65.76749999999998 Q 18.310436651150567 66.36562499999998 18.46834061753519 67.01624999999997 Q 18.60706228218166 67.66687499999998 18.69830705378933 68.36999999999998 L 18.69830705378933 68.36999999999998 Q 18.762644632446026 69.03187499999997 18.769686771359357 69.64804687499998 Q 18.758111666477358 70.26421874999997 18.69445292224018 70.83468749999997 Q 18.614730911030325 71.40515624999998 18.488094693640125 71.92992187499999 Q 18.347993048896676 72.45468749999998 18.16587881151744 72.93374999999997 Q 17.972785468115735 73.41281249999999 17.74216299873449 73.84617187499998 Q 17.502834041757374 74.27953124999999 17.229954249919953 74.66718749999998 Q 16.95036875651888 75.05484374999997 16.640668640749997 75.39679687499998 Q 16.325967877325354 75.73874999999998 15.984046811864989 76.035 Q 15.638535277878779 76.33125000000001 15.287237848972401 76.59046875 Q 14.93331124370352 76.8496875 14.575219352528464 77.071875 Q 14.215278053005912 77.29406250000001 13.852484551850756 77.47921875000002 Q 13.488457937031429 77.664375 13.122614996144396 77.81250000000001 Q 12.756010877661446 77.96062500000002 12.388378454124842 78.07171875 Q 12.020330532115816 78.18281250000001 11.651820482545958 78.25687500000001 Q 11.28312988141247 78.33093750000002 10.91434239471781 78.36796875000002 Q 10.545510396500852 78.40500000000002 10.176760396500852 78.40500000000002 L 10.176760396500852 78.40500000000002 Q 9.799260396500852 78.40500000000002 9.44699864471781 78.36796875000002 Q 9.094692381412472 78.33093750000002 8.76744548254596 78.25687500000001 Q 8.440018032115818 78.18281250000001 8.137284704124843 78.07171875 Q 7.834135877661446 77.96062500000002 7.555114996144395 77.81250000000001 Q 7.275332937031429 77.664375 7.018890801850754 77.47921875000002 Q 6.761215553005911 77.29406250000001 6.525844352528462 77.071875 Q 6.288623743703516 76.8496875 6.0723940989723975 76.59046875 Q 5.853535277878776 76.33125000000001 5.654046811864987 76.035 Q 5.450967877325353 75.73874999999998 5.288793640749997 75.39679687499998 Q 5.121618756518879 75.05484374999997 4.992454249919951 74.66718749999998 Q 4.8565840417573725 74.27953124999999 4.755287998734486 73.84617187499998 Q 4.6452854681157305 73.41281249999999 4.56587881151744 72.93374999999997 Q 4.4754930488966735 72.45468749999998 4.411219693640125 71.92992187499999 Q 4.333480911030323 71.40515624999998 4.276952922240178 70.83468749999997 Q 4.204361666477355 70.26421874999997 4.147811771359353 69.64804687499998 Q 4.072644632446023 69.03187499999997 4.008307053789327 68.36999999999998 L 4.008307053789327 68.36999999999998 Z" fill="black" stroke="black" />
				</svg>