<svg
					xmlns="http://www.w3.org/2000/svg" xmlns:xlink="http://www.w3.org/1999/xlink"
					style="
						overflow: visible;
						height: 100;
					"
					viewBox="-3.998586910858507 0 38.382158020596655 77.115"
				>
					<path d="M 10.469892355740518 48.16499999999998 L 10.725582401889307 49.06968749999997 L 11.011100048666925 49.974374999999974 L 11.323562729185738 50.87906249999998 L 11.659815841316409 51.78374999999998 L 12.016464596338064 52.68843749999998 L 12.389908292496035 53.593124999999986 L 12.776376667443689 54.49781249999998 L 13.171967962556591 55.40249999999998 L 13.572688314824182 56.30718749999998 L 13.974492078621095 57.21187499999998 L 14.373322670272316 58.116562499999986 L 14.765153523048081 59.02124999999998 L 15.14602873910982 59.92593749999998 L 15.512103027987632 60.83062499999999 L 15.859680528373309 61.73531249999999 L 16.185252121286617 62.639999999999986 L 16.485530857903633 63.54468749999998 L 16.75748514437016 64.44937499999997 L 16.998369348568655 65.3540625 L 17.205751519834717 66.25874999999999 L 17.377537941766843 67.16343749999999 L 17.511994270245868 68.068125 L 17.60776304325611 68.97281249999999 L 17.663877385730245 69.8775 L 17.679770771054734 70.78218749999999 L 17.655282740684235 71.68687499999999 L 17.590660524120278 72.5915625 L 17.48655654289889 73.49624999999999 L 17.344021823786804 74.4009375 L 17.16449538768619 75.30562499999999 L 16.94978972137677 76.2103125 L 16.70207247877162 77.115 L 15.847072478771619 77.115 L 14.992072478771618 77.115 L 14.137072478771618 77.115 L 13.282072478771617 77.115 L 12.42707247877162 77.115 L 11.57207247877162 77.115 L 10.71707247877162 77.115 L 9.86207247877162 77.115 L 9.007072478771619 77.115 L 8.152072478771618 77.115 L 7.297072478771619 77.115 L 6.442072478771618 77.115 L 5.587072478771619 77.115 L 4.732072478771618 77.115 L 3.8770724787716184 77.115 L 3.0220724787716184 77.115 L 3.3448166743295573 75.910078125 L 3.60769817089683 74.70515625 L 3.8060121378559684 73.500234375 L 3.936209319607756 72.2953125 L 3.995959557145134 71.090390625 L 3.9841934912677104 69.88546875 L 3.901121701068005 68.680546875 L 3.74823093516501 67.47562500000001 L 3.5282575031352557 66.27070312500001 L 3.2451383033590298 65.06578125 L 2.903940363743948 63.86085937499999 L 2.5107701563463647 62.65593749999999 L 2.072664308900818 61.451015625 L 1.5974636692101096 60.24609375 L 1.0936729762849824 59.041171875 L 0.570308649720665 57.83624999999999 L 0.03673742144720003 56.63132812499999 L -0.49749130211401965 55.42640624999999 L -1.0228163472472116 54.221484374999996 L -1.5298358907402427 53.0165625 L -2.009475725762151 51.811640625 L -2.453151664339886 50.60671875 L -2.8529231698920774 49.40179687499999 L -3.201635470234768 48.19687499999999 L -3.493047607640757 46.991953124999995 L -3.7219441342208803 45.78703124999999 L -3.8842284535978746 44.58210937499999 L -3.9769961383224457 43.37718749999999 L -3.998586910858507 42.172265624999994 L -3.9486143578258495 40.96734375 L -3.827972845699905 39.762421874999994 L -3.638821514197242 38.5575 L -3.3845456338196245 37.352578125 L -3.069696019146654 36.14765625 L -2.6999075822065866 34.942734375 L -2.2817984835882132 33.737812500000004 L -1.8228516862018587 32.532890625 L -1.3312810315400971 31.327968749999997 L -0.8158842352919584 30.123046875 L -0.2858854332707198 28.918124999999996 L 0.24922990436487516 27.713203124999996 L 0.7798847360304476 26.50828125 L 1.2965818505037172 25.303359375 L 1.7900738399759213 24.098437499999996 L 2.2515286023331247 22.893515624999996 L 2.6726874106475402 21.688593749999995 L 3.0460127208848764 20.483671875 L 3.3648230724904042 19.27875 L 3.6234126675171865 18.073828125 L 3.8171534881704052 16.868906250000002 L 3.9425781251543635 15.663984374999998 L 3.9974418344304996 14.459062499999998 L 3.980762711747046 13.254140625 L 3.8928392659305975 12.049218749999998 L 3.735245076427682 10.844296874999998 L 3.51080063071114 9.639375 L 3.223522845581574 8.434453125000001 L 2.878553175788927 7.229531249999999 L 2.482065596625236 6.024609374999999 L 2.041156107338283 4.8196875 L 1.5637157329405533 3.6147656249999995 L 1.0582892973196787 2.40984375 L 0.533922495209754 1.204921875 L 0 0 L 0.9496875 0 L 1.899375 0 L 2.8490625 0 L 3.79875 0 L 4.7484375 0 L 5.698125 0 L 6.647812500000001 0 L 7.5975 0 L 8.5471875 0 L 9.496875 0 L 10.446562499999999 0 L 11.39625 0 L 12.345937500000002 0 L 13.295625000000001 0 L 14.2453125 0 L 15.195 0 L 16.1446875 0 L 17.094375 0 L 18.0440625 0 L 18.99375 0 L 19.943437499999998 0 L 20.893124999999998 0 L 21.8428125 0 L 22.7925 0 L 23.7421875 0 L 24.691875000000003 0 L 25.641562500000003 0 L 26.591250000000002 0 L 27.540937500000002 0 L 28.490625 0 L 29.4403125 0 L 30.39 0 L 30.85395336761939 1.0462499999999997 L 31.311643898230894 2.0924999999999994 L 31.756893295925202 3.138749999999999 L 32.18369120578254 4.184999999999999 L 32.586276346753344 5.231249999999998 L 32.959214282328126 6.277499999999998 L 33.29747077918178 7.323749999999998 L 33.59647976353511 8.369999999999997 L 33.85220495790078 9.416249999999998 L 34.06119436618845 10.462499999999997 L 34.220626871682896 11.508749999999996 L 34.3283503188759 12.554999999999996 L 34.38291056509111 13.601249999999997 L 34.38357110973815 14.647499999999996 L 34.33032303622378 15.693749999999994 L 34.22388513231566 16.739999999999995 L 33.70169763231566 16.739999999999995 L 33.179510132315656 16.739999999999995 L 32.657322632315655 16.739999999999995 L 32.13513513231565 16.739999999999995 L 31.61294763231566 16.739999999999995 L 31.09076013231566 16.739999999999995 L 30.568572632315657 16.739999999999995 L 30.046385132315656 16.739999999999995 L 29.524197632315655 16.739999999999995 L 29.002010132315657 16.739999999999995 L 28.47982263231566 16.739999999999995 L 27.95763513231566 16.739999999999995 L 27.435447632315658 16.739999999999995 L 26.913260132315656 16.739999999999995 L 26.391072632315655 16.739999999999995 L 25.868885132315658 16.739999999999995 L 25.34669763231566 16.739999999999995 L 24.82451013231566 16.739999999999995 L 24.302322632315658 16.739999999999995 L 23.780135132315657 16.739999999999995 L 23.257947632315656 16.739999999999995 L 22.735760132315658 16.739999999999995 L 22.21357263231566 16.739999999999995 L 21.69138513231566 16.739999999999995 L 21.169197632315658 16.739999999999995 L 20.647010132315657 16.739999999999995 L 20.124822632315656 16.739999999999995 L 19.60263513231566 16.739999999999995 L 19.080447632315657 16.739999999999995 L 18.55826013231566 16.739999999999995 L 18.03607263231566 16.739999999999995 L 17.513885132315657 16.739999999999995 L 17.37783484368491 17.6578125 L 17.20336131220069 18.575624999999995 L 16.992277447080177 19.493437499999995 L 16.746776566022735 20.411249999999995 L 16.46940960501452 21.3290625 L 16.163058612214208 22.246875 L 15.830906801338031 23.1646875 L 15.476405475711585 24.0825 L 15.10323816667205 25.0003125 L 14.715282358949352 25.918125000000003 L 14.31656920072796 26.8359375 L 13.91124161703151 27.753750000000004 L 13.503511261663363 28.671562500000004 L 13.09761475500417 29.589375 L 12.697769662388238 30.5071875 L 12.308130670475956 31.425000000000004 L 13.271255670475956 31.425000000000004 L 14.234380670475955 31.425000000000004 L 15.197505670475957 31.425000000000004 L 16.160630670475953 31.425000000000004 L 17.123755670475955 31.425000000000004 L 18.086880670475956 31.425000000000004 L 19.050005670475954 31.425000000000004 L 20.013130670475956 31.425000000000004 L 20.976255670475958 31.425000000000004 L 21.939380670475956 31.425000000000004 L 22.902505670475957 31.425000000000004 L 23.86563067047596 31.425000000000004 L 24.828755670475957 31.425000000000004 L 25.79188067047596 31.425000000000004 L 26.75500567047596 31.425000000000004 L 27.718130670475958 31.425000000000004 L 27.291576642015137 32.47125 L 26.889299261054525 33.5175 L 26.516728809697362 34.56375 L 26.178894560654335 35.61 L 25.880356887844698 36.65625 L 25.625145706591866 37.7025 L 25.416706074400167 38.748749999999994 L 25.257851686639675 39.79499999999999 L 25.150726894893907 40.84124999999999 L 25.096777760679018 41.88749999999999 L 25.09673253527604 42.93374999999998 L 25.150591829175905 43.97999999999998 L 25.257628603838548 45.02624999999999 L 25.416397985877225 46.072499999999984 L 25.62475677118793 47.11874999999998 L 25.879892355740523 48.16499999999998 L 24.916767355740525 48.16499999999998 L 23.95364235574052 48.16499999999998 L 22.990517355740522 48.16499999999998 L 22.027392355740524 48.16499999999998 L 21.06426735574052 48.16499999999998 L 20.10114235574052 48.16499999999998 L 19.138017355740523 48.16499999999998 L 18.174892355740518 48.16499999999998 L 17.21176735574052 48.16499999999998 L 16.24864235574052 48.16499999999998 L 15.285517355740518 48.16499999999998 L 14.322392355740517 48.16499999999998 L 13.359267355740519 48.16499999999998 L 12.396142355740517 48.16499999999998 L 11.433017355740517 48.16499999999998 L 10.469892355740518 48.16499999999998 L 10.469892355740518 48.16499999999998 Z" fill="black" stroke="black" />
				</svg>