<svg
					xmlns="http://www.w3.org/2000/svg" xmlns:xlink="http://www.w3.org/1999/xlink"
					style="
						overflow: visible;
						height: 100;
					"
					viewBox="-3.998586910858507 0 46.35510016314484 77.115"
				>
					<path d="M 0 0 L 0.5603125 0 L 1.120625 0 L 1.6809375 0 L 2.24125 0 L 2.8015625 0 L 3.361875 0 L 3.9221874999999997 0 L 4.4825 0 L 5.0428125 0 L 5.603125 0 L 6.163437500000001 0 L 6.72375 0 L 7.284062499999999 0 L 7.844374999999999 0 L 8.4046875 0 L 8.965 0 L 9.5253125 0 L 10.085625 0 L 10.6459375 0 L 11.20625 0 L 11.766562500000001 0 L 12.326875000000001 0 L 12.8871875 0 L 13.4475 0 L 14.0078125 0 L 14.568124999999998 0 L 15.128437499999999 0 L 15.688749999999999 0 L 16.2490625 0 L 16.809375 0 L 17.369687499999998 0 L 17.93 0 Q 18.27875 0 18.623395182187426 0.004848632812500003 Q 18.968040363749406 0.009697265625000007 19.308580722495236 0.019394531250000013 Q 19.649121071233928 0.02909179687500002 19.985556564633306 0.04363769531250003 Q 20.32199200737171 0.05818359375000004 20.654322489696593 0.07757812500000005 Q 20.986652811909153 0.09697265625000007 21.31487792853882 0.12121582031250008 Q 21.64310265427631 0.1454589843750001 21.967221699117413 0.17455078125000012 Q 22.291339933431026 0.20364257812500014 22.61135166885453 0.23758300781250016 Q 22.931361902756535 0.2715234375000002 23.247264342104714 0.3103125000000002 Q 23.563164220134464 0.34910156250000024 23.87495437289017 0.3927392578125003 Q 24.186740423399918 0.4363769531250003 24.49441400316522 0.48486328125000033 Q 24.802081331503008 0.5333496093750003 25.105632427007624 0.5866845703125004 Q 25.409174371856892 0.6400195312500004 25.70859508131152 0.6982031250000005 Q 26.008002834552162 0.7563867187500005 26.30328286378022 0.8194189453125005 Q 26.598545054365548 0.8824511718750006 26.889671279291946 0.9503320312500007 Q 27.180773521793704 1.0182128906250008 27.467729516043036 1.0909423828125007 Q 27.75465392470421 1.1636718750000008 28.037419453266374 1.2412500000000009 Q 28.602825396830706 1.396406250000001 29.151498987165137 1.5709570312500012 Q 29.699911289682625 1.7455078125000012 30.23141695777485 1.9394531250000013 Q 30.76252544620162 2.1333984375000012 31.27648949323925 2.3467382812500017 Q 31.789874127247842 2.5600781250000018 32.285799903135 2.792812500000002 Q 32.780908948817384 3.025546875000002 33.25815437549525 3.277675781250002 Q 33.73428172357788 3.529804687500002 34.1920362964918 3.8013281250000026 Q 34.64829855919998 4.072851562500003 35.08556055125466 4.363769531250003 Q 35.5208747376808 4.654687500000003 35.936429506087855 4.965000000000003 Q 36.350464363041944 5.276250000000003 36.749334220379765 5.604316406250002 Q 37.145104576975974 5.932382812500002 37.524759442879905 6.277265625000001 Q 37.90064213432515 6.6221484375 38.25932851035621 6.983847656249999 Q 38.61349040299885 7.345546874999999 38.949244068969286 7.724062499999999 Q 39.2796447713651 8.102578124999997 39.59029727919 8.497910156249997 Q 39.894699023459665 8.893242187499997 40.1778920946478 9.305390624999998 Q 40.45387808026334 9.717539062499997 40.707087200365244 10.146503906249995 Q 40.952089671151846 10.575468749999995 41.17265812008725 11.021249999999995 Q 41.383997358666896 11.467031249999994 41.5691817882944 11.929628906249993 Q 41.74411704580583 12.392226562499992 41.891145500674554 12.871640624999994 Q 42.026938618905646 13.351054687499994 42.133081578771 13.847285156249992 Q 42.227073693479184 14.343515624999991 42.28972828454272 14.856562499999992 Q 42.33942951171906 15.369609374999992 42.356216478447394 15.89947265624999 Q 42.35940787244556 16.429335937499992 42.32828021875362 16.97601562499999 Q 42.283126550973556 17.52269531249999 42.20248795060862 18.086191406249988 Q 42.10765899568855 18.64968749999999 41.97648914746086 19.22999999999999 L 41.97648914746086 19.22999999999999 Q 41.81723042636082 19.863749999999992 41.62983013415839 20.473124999999996 Q 41.4284570654521 21.082499999999996 41.20278012887816 21.667499999999997 Q 40.96578563494995 22.252499999999998 40.70800112430088 22.813125 Q 40.44136873789096 23.373749999999998 40.15707152262715 23.909999999999997 Q 39.86615671289603 24.44625 39.56027668804395 24.958124999999995 Q 39.249737445534095 25.469999999999995 38.92649381019688 25.957499999999996 Q 38.60026298296502 26.444999999999993 38.26315586174803 26.90812499999999 Q 37.92444741011381 27.371249999999993 37.576279073594144 27.809999999999988 Q 37.22887059904547 28.248749999999987 36.88184170317703 28.664765624999987 Q 36.53518338844601 29.080781249999987 36.18961505357141 29.474062499999988 Q 35.845061718310184 29.867343749999993 35.502027430786434 30.23789062499999 Q 35.160460548394894 30.60843749999999 34.82059986227208 30.956249999999994 Q 34.482492924979674 31.304062499999997 34.14607716655219 31.629140624999994 Q 33.811561715748496 31.954218749999992 33.47855895481264 32.256562499999994 Q 33.14748885252868 32.55890624999999 32.81762608566781 32.838515625 Q 32.48963825377795 33.118125 32.16245935043401 33.375 Q 31.838279772361343 33.631875 31.52141382814524 33.868359375 Q 31.206155949525595 34.10484375 30.897776159787195 34.32093749999999 Q 30.590831627158686 34.53703124999999 30.290311071320914 34.73273437499999 Q 29.991034173501873 34.928437499999994 29.697725714933142 35.10374999999999 Q 29.4054615406123 35.27906249999998 29.11872355300146 35.43398437499999 Q 28.832832061576376 35.58890624999999 28.5520502269201 35.72343749999999 Q 28.27192651193321 35.85796874999998 27.996531999141805 35.97210937499999 Q 27.721623072335838 36.086249999999986 27.451107436943907 36.179999999999986 L 27.451107436943907 36.179999999999986 L 27.303529005667045 36.719999999999985 Q 27.539840974698457 36.81562499999998 27.772281862015866 36.92789062499999 Q 28.005233143465038 37.040156249999995 28.234625010259776 37.169062499999995 Q 28.464702129713032 37.297968749999995 28.691586777316875 37.44351562499999 Q 28.919362152429706 37.5890625 29.1443703206233 37.75124999999999 Q 29.3705071705183 37.913437499999986 29.594363357505223 38.09226562499999 Q 29.819620333338783 38.27109374999999 30.04314714406887 38.46656249999999 Q 30.268382330490788 38.662031249999984 30.492503973626363 38.874140624999995 Q 30.718677858818424 39.08624999999999 30.94442236015305 39.31499999999999 Q 31.172599319839886 39.54374999999999 31.38885457439491 39.80062499999998 Q 31.608231970626285 40.05749999999999 31.817108204072426 40.34249999999999 Q 32.02988969675253 40.62749999999999 32.233769108354736 40.94062499999999 Q 32.442425360402204 41.25374999999998 32.643949789216556 41.59499999999999 Q 32.851200576945246 41.936249999999994 33.05324552927697 42.30562499999999 Q 33.26202674337112 42.675 33.46765829749471 43.07249999999999 Q 33.68107032957625 43.47 33.89348141127731 43.895624999999995 Q 34.11471549681413 44.32124999999999 34.33713823043789 44.77499999999999 Q 34.569121127479065 45.22687499999999 34.79510870310567 45.71835937499999 Q 35.03222605326751 46.20984374999999 35.266458996934496 46.74093749999999 Q 35.513036485558224 47.27203124999999 35.759640533493105 47.84273437499999 Q 36.01948328846457 48.413437499999986 36.28185727306009 49.023749999999986 Q 36.55787513664372 49.634062499999985 36.83827923039825 50.28398437499999 Q 37.132052659209236 50.933906249999986 37.43114423815664 51.62343749999999 Q 37.74244697262188 52.31296874999999 38.05878619582966 53.04210937499998 Q 38.385092193902665 53.771249999999974 38.71465182448656 54.53999999999998 L 38.71465182448656 54.53999999999998 Q 39.000773027851835 55.19531249999998 39.26187733357747 55.833281249999985 Q 39.52457690394278 56.47124999999998 39.75924763358741 57.09187499999998 Q 39.99277147598817 57.71249999999998 40.19577685998413 58.315781249999986 Q 40.395277309712704 58.91906249999998 40.56229882820863 59.50499999999998 Q 40.723852749173325 60.09093749999998 40.85148434244921 60.659531249999986 Q 40.972076829852334 61.22812499999998 41.05779347935309 61.77937499999998 Q 41.13527399260005 62.33062499999998 41.177376403140315 62.864531249999985 Q 41.210393970006955 63.39843749999998 41.207935753006595 63.91499999999999 Q 41.19585943882414 64.4315625 41.14856264712024 64.93078125 Q 41.091392853286095 65.42999999999999 40.999557025485935 65.911875 Q 40.89783244089698 66.39375 40.762241542484745 66.85828125 Q 40.616945779495964 67.3228125 40.43877663275221 67.76999999999998 Q 40.25124778442721 68.2171875 40.03198280196246 68.64703125 Q 39.803828396825395 69.076875 39.54517470555495 69.489375 Q 39.27819383640096 69.90187499999999 38.98201022160873 70.29703124999999 Q 38.67812400350635 70.69218749999999 38.3463565292225 71.07 Q 38.00692250808237 71.4478125 37.646894839703435 71.80201171875 Q 37.28072013750621 72.15621093749999 36.89565008184362 72.48679687499998 Q 36.50529142207445 72.81738281249999 36.09762643189563 73.12435546875 Q 35.68547820101378 73.431328125 35.257487599278384 73.7146875 Q 34.82575467079029 73.998046875 34.37950909111125 74.25779296875 Q 33.93019094777737 74.51753906249999 33.46755184168192 74.753671875 Q 33.002435860469056 74.9898046875 32.52505299249083 75.20232421875 Q 32.045714863070955 75.41484374999999 31.555029854552245 75.60374999999999 Q 31.06283926544259 75.79265625 30.56009343163673 75.95794921875 Q 30.05622335522708 76.12324218750001 29.542468287359487 76.264921875 Q 29.02790640780516 76.40660156250001 28.504015966492886 76.52466796875001 Q 28.24186471057718 76.58370117187499 27.977468149694776 76.6368310546875 Q 27.7129615712787 76.6899609375 27.44625960670838 76.7371875 Q 27.17947147422045 76.78441406249999 26.91053177003322 76.8257373046875 Q 26.641526613441492 76.867060546875 26.370407784268878 76.90248046874999 Q 26.099241202425542 76.93790039062499 25.825993102136874 76.9674169921875 Q 25.552712038892167 76.99693359375 25.27737601601143 77.02054687500001 Q 25.002019001661193 77.04416015625 24.724628118409836 77.0618701171875 Q 24.44722547360128 77.079580078125 24.167804685999407 77.09138671875 Q 23.888378685755292 77.103193359375 23.606944982736632 77.1090966796875 Q 23.32550997877162 77.115 23.04207247877162 77.115 L 23.04207247877162 77.115 L 22.416447478771616 77.115 L 21.790822478771616 77.115 L 21.165197478771617 77.115 L 20.539572478771618 77.115 L 19.913947478771618 77.115 L 19.28832247877162 77.115 L 18.66269747877162 77.115 L 18.03707247877162 77.115 L 17.41144747877162 77.115 L 16.785822478771617 77.115 L 16.160197478771618 77.115 L 15.534572478771619 77.115 L 14.90894747877162 77.115 L 14.28332247877162 77.115 L 13.65769747877162 77.115 L 13.032072478771617 77.115 L 12.406447478771618 77.115 L 11.780822478771618 77.115 L 11.155197478771619 77.115 L 10.52957247877162 77.115 L 9.903947478771618 77.115 L 9.278322478771617 77.115 L 8.652697478771618 77.115 L 8.027072478771618 77.115 L 7.401447478771618 77.115 L 6.775822478771619 77.115 L 6.150197478771618 77.115 L 5.524572478771619 77.115 L 4.8989474787716185 77.115 L 4.273322478771618 77.115 L 3.6476974787716183 77.115 L 3.0220724787716184 77.115 L 3.3448166743295573 75.910078125 L 3.60769817089683 74.70515625 L 3.8060121378559684 73.500234375 L 3.936209319607756 72.2953125 L 3.995959557145134 71.090390625 L 3.9841934912677104 69.88546875 L 3.901121701068005 68.680546875 L 3.74823093516501 67.47562500000001 L 3.5282575031352557 66.27070312500001 L 3.2451383033590298 65.06578125 L 2.903940363743948 63.86085937499999 L 2.5107701563463647 62.65593749999999 L 2.072664308900818 61.451015625 L 1.5974636692101096 60.24609375 L 1.0936729762849824 59.041171875 L 0.570308649720665 57.83624999999999 L 0.03673742144720003 56.63132812499999 L -0.49749130211401965 55.42640624999999 L -1.0228163472472116 54.221484374999996 L -1.5298358907402427 53.0165625 L -2.009475725762151 51.811640625 L -2.453151664339886 50.60671875 L -2.8529231698920774 49.40179687499999 L -3.201635470234768 48.19687499999999 L -3.493047607640757 46.991953124999995 L -3.7219441342208803 45.78703124999999 L -3.8842284535978746 44.58210937499999 L -3.9769961383224457 43.37718749999999 L -3.998586910858507 42.172265624999994 L -3.9486143578258495 40.96734375 L -3.827972845699905 39.762421874999994 L -3.638821514197242 38.5575 L -3.3845456338196245 37.352578125 L -3.069696019146654 36.14765625 L -2.6999075822065866 34.942734375 L -2.2817984835882132 33.737812500000004 L -1.8228516862018587 32.532890625 L -1.3312810315400971 31.327968749999997 L -0.8158842352919584 30.123046875 L -0.2858854332707198 28.918124999999996 L 0.24922990436487516 27.713203124999996 L 0.7798847360304476 26.50828125 L 1.2965818505037172 25.303359375 L 1.7900738399759213 24.098437499999996 L 2.2515286023331247 22.893515624999996 L 2.6726874106475402 21.688593749999995 L 3.0460127208848764 20.483671875 L 3.3648230724904042 19.27875 L 3.6234126675171865 18.073828125 L 3.8171534881704052 16.868906250000002 L 3.9425781251543635 15.663984374999998 L 3.9974418344304996 14.459062499999998 L 3.980762711747046 13.254140625 L 3.8928392659305975 12.049218749999998 L 3.735245076427682 10.844296874999998 L 3.51080063071114 9.639375 L 3.223522845581574 8.434453125000001 L 2.878553175788927 7.229531249999999 L 2.482065596625236 6.024609374999999 L 2.041156107338283 4.8196875 L 1.5637157329405533 3.6147656249999995 L 1.0582892973196787 2.40984375 L 0.533922495209754 1.204921875 L 0 0 L 0 0 Z M 13.315141508705345 29.594999999999985 L 13.837641508705346 29.594999999999985 L 14.360141508705345 29.594999999999985 L 14.882641508705344 29.594999999999985 L 15.405141508705345 29.594999999999985 L 15.927641508705346 29.594999999999985 L 16.450141508705347 29.594999999999985 L 16.972641508705347 29.594999999999985 L 17.495141508705345 29.594999999999985 Q 17.926391508705347 29.594999999999985 18.340609379586443 29.561249999999983 Q 18.754835266302806 29.527499999999982 19.152060251770152 29.459999999999987 Q 19.549314793084797 29.392499999999988 19.92962336065285 29.291249999999984 Q 20.30998900751387 29.189999999999984 20.673472205475516 29.054999999999986 Q 21.037033370729027 28.919999999999987 21.383761466080518 28.751249999999985 Q 21.73056404252355 28.58249999999999 22.060538359936476 28.37999999999999 Q 22.39053645067672 28.177499999999984 22.70362848914819 27.941249999999986 Q 23.016618549821377 27.704999999999988 23.312496779883084 27.434999999999988 Q 23.90064021847389 26.89499999999999 24.42268961896822 26.30062499999999 Q 24.940945065174294 25.706249999999994 25.389456233076217 25.05749999999999 Q 25.83069896472755 24.40874999999999 26.196944995115174 23.705624999999994 Q 26.551329110216926 23.002499999999998 26.823711889130163 22.244999999999997 L 26.823711889130163 22.244999999999997 Q 26.962246112509472 21.839999999999996 27.061719379948748 21.460312499999997 Q 27.156303759326413 21.080624999999998 27.21269120214304 20.726249999999993 Q 27.311470888431415 20.01749999999999 27.26354967617287 19.40999999999999 Q 27.200448590779857 18.802499999999988 26.99934290241827 18.29624999999999 Q 26.78691147546237 17.78999999999999 26.444859483754833 17.38499999999999 Q 26.271000036100784 17.18249999999999 26.066134778798727 17.005312499999988 Q 25.859797242255247 16.82812499999999 25.623275491895626 16.67624999999999 Q 25.385659735201823 16.52437499999999 25.11857798131566 16.397812499999986 Q 24.850730047209392 16.271249999999988 24.554023238127005 16.169999999999987 Q 24.256823043221317 16.068749999999987 23.931254611761315 15.992812499999987 Q 23.60540744780474 15.916874999999987 23.251562581621844 15.866249999999985 Q 22.89759348181618 15.815624999999986 22.515874802286504 15.790312499999985 Q 22.1341250144209 15.764999999999986 21.7247500144209 15.764999999999986 L 21.7247500144209 15.764999999999986 L 20.7522500144209 15.764999999999986 L 19.779750014420898 15.764999999999986 L 18.8072500144209 15.764999999999986 L 17.8347500144209 15.764999999999986 L 17.74761695689626 16.629374999999985 L 17.625020745807106 17.493749999999984 L 17.468091339854887 18.358124999999987 L 17.278275143836236 19.222499999999986 L 17.05732167725475 20.086874999999985 L 16.807267449150633 20.951249999999987 L 16.530417187772585 21.815624999999986 L 16.229322598096335 22.679999999999986 L 15.906758842980027 23.544374999999985 L 15.565698964727556 24.408749999999984 L 15.209286482814132 25.273124999999983 L 14.84080642033847 26.137499999999985 L 14.463655026248277 27.001874999999988 L 14.08130847240669 27.866249999999987 L 13.697290814016096 28.730624999999982 L 13.315141508705345 29.594999999999985 L 13.315141508705345 29.594999999999985 Z M 14.652378553193879 44.81999999999999 L 14.07612855319388 44.81999999999999 L 13.499878553193879 44.81999999999999 L 12.923628553193877 44.81999999999999 L 12.34737855319388 44.81999999999999 L 11.77112855319388 44.81999999999999 L 11.19487855319388 44.81999999999999 L 10.61862855319388 44.81999999999999 L 10.04237855319388 44.81999999999999 L 10.185506198377164 45.832499999999996 L 10.375595844143147 46.845 L 10.610244204732862 47.857499999999995 L 10.886484642689016 48.87 L 11.20082467577821 49.88249999999999 L 11.549290132119836 50.894999999999996 L 11.927475395272534 51.907500000000006 L 12.330599104034187 52.92 L 12.75356460274812 53.9325 L 13.191024377847778 54.94500000000001 L 13.637447665974724 55.95750000000001 L 14.087190378906765 56.970000000000006 L 14.5345664612418 57.9825 L 14.973919778668854 58.995000000000005 L 15.399695627949484 60.007500000000014 L 15.806510964515603 61.02000000000001 L 16.419010964515603 61.02000000000001 L 17.031510964515604 61.02000000000001 L 17.6440109645156 61.02000000000001 L 18.256510964515602 61.02000000000001 L 18.869010964515603 61.02000000000001 L 19.481510964515603 61.02000000000001 L 20.0940109645156 61.02000000000001 L 20.7065109645156 61.02000000000001 Q 21.1565109645156 61.02000000000001 21.558551585249358 60.983671875000006 Q 21.960561374763056 60.947343750000016 22.3144893886903 60.874687500000014 Q 22.66829686838023 60.802031250000006 22.973786178828192 60.69304687500001 Q 23.279014839954556 60.5840625 23.535591969211715 60.438750000000006 Q 23.791732301349253 60.29343750000001 23.998816856215072 60.11179687500001 Q 24.205273106522633 59.93015625000001 24.362234155924043 59.712187500000006 Q 24.518387431074544 59.49421875 24.62461681688025 59.23992187499999 Q 24.729905508113873 58.985625 24.78490895876296 58.69499999999999 Q 24.83974285355095 58.40625 24.862613974221322 58.0978125 Q 24.884680514120515 57.78937500000001 24.874897441915202 57.46125000000001 Q 24.864576235564737 57.13312500000001 24.8226633192286 56.7853125 Q 24.780593360976194 56.4375 24.707359053130578 56.07000000000001 Q 24.634479245269667 55.70250000000001 24.531056211821628 55.315312500000005 Q 24.428644376246037 54.92812500000001 24.29652710693212 54.52125000000001 Q 24.16623560063397 54.114375 24.007313425303636 53.68781250000001 Q 23.85119909967955 53.26125000000001 23.667782140721325 52.81500000000001 L 23.667782140721325 52.81500000000001 Q 23.509967390501828 52.423125000000006 23.337301261617313 52.042265625000006 Q 23.168073289303077 51.661406250000006 22.984128625126687 51.29156250000001 Q 22.627641178278097 50.551875 22.212226095449793 49.85625 Q 22.01049744919026 49.508437500000014 21.793818239915396 49.171640625000016 Q 21.581232867229506 48.834843750000005 21.353448104037874 48.509062500000006 Q 21.129746479176195 48.18328125000001 20.890531679558006 47.868515625 Q 20.655337016688588 47.55375 20.404262026293633 47.25 Q 20.157100184719773 46.94625 19.883322574061722 46.680468749999996 Q 19.612647996422336 46.4146875 19.313681397721638 46.186875 Q 19.01705535795482 45.959062499999995 18.690631815612928 45.76921874999999 Q 18.36586556419053 45.579375 18.010004784056573 45.427499999999995 Q 17.655219679182082 45.27562499999999 17.26827798436325 45.16171874999999 Q 16.881947321088106 45.04781249999999 16.462650858774776 44.971875 Q 16.043627714605467 44.895937499999995 15.591093845277978 44.85796874999999 Q 15.13862855319388 44.81999999999999 14.652378553193879 44.81999999999999 L 14.652378553193879 44.81999999999999 L 14.652378553193879 44.81999999999999 Z" fill="black" stroke="black" />
				</svg>