<svg
					xmlns="http://www.w3.org/2000/svg" xmlns:xlink="http://www.w3.org/1999/xlink"
					style="
						overflow: visible;
						height: 100;
					"
					viewBox="-3.998586910858507 0 50.94065938963013 77.115"
				>
					<path d="M 25.438005031784368 34.55999999999999 L 25.467491047007282 35.224921874999986 L 25.51220476843823 35.88984374999999 L 25.573258525327365 36.55476562499999 L 25.65167549891209 37.21968749999999 L 25.74838414014188 37.88460937499998 L 25.86421310423291 38.54953124999999 L 25.999886729688544 39.21445312499999 L 26.1560210864512 39.87937499999999 L 26.3331206147462 40.544296874999986 L 26.531575372955317 41.20921874999999 L 26.751658909535138 41.874140624999995 L 26.993526770590574 42.539062499999986 L 27.25721565124601 43.20398437499999 L 27.542643195443915 43.86890624999999 L 27.84960844526325 44.53382812499999 L 28.177792937306304 45.19874999999999 L 28.526762440172202 45.86367187499999 L 28.895969323537837 46.52859374999999 L 29.28475554592099 47.19351562499999 L 29.69235624482492 47.858437499999994 L 30.117903909677445 48.523359375 L 30.56043311479757 49.188281249999996 L 31.018885786567747 49.85320312499999 L 31.492116976075 50.51812499999999 L 31.978901105726457 51.18304687499999 L 32.47793865575919 51.847968749999986 L 32.98786325416387 52.51289062499998 L 33.507249131341155 53.17781249999999 L 34.03461889881956 53.842734375 L 34.5684516095958 54.50765625 L 35.107191056121806 55.172578124999994 L 35.649254260666424 55.83749999999999 L 36.19304011172988 56.50242187499999 L 36.73693809939251 57.167343749999986 L 37.2793371019395 57.832265624999984 L 37.81863417582335 58.497187499999995 L 38.353243301007936 59.162109375 L 38.88160403398123 59.82703125 L 39.402190021227526 60.491953124999995 L 39.91351732671136 61.15687499999999 L 40.414152527940026 61.82179687499999 L 40.90272053643419 62.48671874999999 L 41.377912099939564 63.151640624999985 L 41.83849094544915 63.81656249999999 L 42.28330052406512 64.48148437500001 L 42.71127032090159 65.14640625 L 43.121421695602905 65.81132812499999 L 43.512873221612466 66.47625 L 43.884845495062294 67.141171875 L 44.236665387046926 67.80609374999999 L 44.56776971608207 68.47101562499998 L 44.87770832071173 69.1359375 L 45.16614651550041 69.800859375 L 45.43286691701086 70.46578124999999 L 45.6777706298053 71.130703125 L 45.90087778599939 71.795625 L 46.10232743542541 72.46054687499999 L 46.28237678700377 73.12546874999998 L 46.44139980546183 73.79039062499999 L 46.57988517105608 74.45531249999999 L 46.69843361342894 75.120234375 L 46.79775463414629 75.78515625 L 46.878662635796736 76.450078125 L 46.94207247877162 77.115 L 45.96144747877162 77.115 L 44.98082247877162 77.115 L 44.000197478771625 77.115 L 43.01957247877162 77.115 L 42.03894747877162 77.115 L 41.05832247877162 77.115 L 40.077697478771626 77.115 L 39.09707247877162 77.115 L 38.11644747877162 77.115 L 37.13582247877162 77.115 L 36.155197478771626 77.115 L 35.17457247877162 77.115 L 34.19394747877162 77.115 L 33.21332247877162 77.115 L 32.23269747877162 77.115 L 31.252072478771623 77.115 L 31.186916495249463 76.1934375 L 31.087461820795035 75.271875 L 30.951427541026856 74.3503125 L 30.77691594031918 73.42875000000001 L 30.562432381794135 72.5071875 L 30.306900964762153 71.585625 L 30.009675795587338 70.6640625 L 29.670547753906906 69.74249999999999 L 29.289746683323592 68.82093749999999 L 28.867938983621798 67.89937499999999 L 28.40622062973085 66.9778125 L 27.906105690567017 66.05624999999999 L 27.369510468027855 65.1346875 L 26.798733422294962 64.21312499999999 L 26.196431093742564 63.29156249999999 L 25.56559027368789 62.37 L 24.909496715515697 61.448437500000004 L 24.23170071395125 60.526875000000004 L 23.535979913064693 59.6053125 L 22.826299732620825 58.68375 L 22.106771827337752 57.762187499999996 L 21.38161101422508 56.840624999999996 L 20.655091119219737 55.9190625 L 19.931500205659102 54.9975 L 19.215095653606795 54.075937499999995 L 18.510059560608614 53.154375 L 17.820454931089294 52.232812499999994 L 17.150183113338876 51.311249999999994 L 16.502942929968107 50.3896875 L 15.88219192997198 49.468125 L 15.291110168315086 48.54656249999999 L 14.732566892474708 47.625 L 14.334892712016591 48.084374999999994 L 13.945635203209228 48.543749999999996 L 13.564470102182067 49.003125 L 13.191052066881896 49.46249999999999 L 12.825015576580508 49.921874999999986 L 12.465975883941503 50.38124999999999 L 12.113530017166347 50.84062499999999 L 11.767257829609445 51.29999999999998 L 12.074979594834607 52.106718749999985 L 12.39791672509082 52.913437499999986 L 12.733476316203786 53.72015624999999 L 13.078964116621107 54.52687499999999 L 13.431606159908013 55.33359374999999 L 13.788571037284273 56.14031249999999 L 14.146992631373132 56.947031249999995 L 14.503993128630096 57.75374999999998 L 14.85670612568177 58.56046874999998 L 15.202299644050926 59.36718749999998 L 15.537998868479626 60.17390624999998 L 15.861108426281433 60.98062499999998 L 16.169034028838887 61.787343749999984 L 16.459303301483857 62.594062499999986 L 16.729585634514965 63.40078124999999 L 16.97771089596566 64.20749999999998 L 17.201686855875725 65.01421875 L 17.39971518216445 65.82093749999999 L 17.57020587967254 66.62765625 L 17.711790056439828 67.43437499999999 L 17.823330914716664 68.24109375 L 17.903932878460733 69.04781249999999 L 17.952948784033463 69.85453125000001 L 17.969985076360942 70.66125 L 17.954904968838743 71.46796874999998 L 17.907829541609345 72.27468749999998 L 17.829136769393937 73.08140624999999 L 17.719458486684275 73.88812499999999 L 17.579675314661454 74.69484374999999 L 17.410909590574057 75.50156249999999 L 17.214516356346543 76.30828125 L 16.99207247877162 77.115 L 16.11894747877162 77.115 L 15.245822478771622 77.115 L 14.37269747877162 77.115 L 13.499572478771622 77.115 L 12.62644747877162 77.115 L 11.753322478771622 77.115 L 10.88019747877162 77.115 L 10.007072478771619 77.115 L 9.13394747877162 77.115 L 8.260822478771619 77.115 L 7.38769747877162 77.115 L 6.514572478771619 77.115 L 5.641447478771619 77.115 L 4.768322478771619 77.115 L 3.8951974787716184 77.115 L 3.0220724787716184 77.115 L 3.3448166743295573 75.910078125 L 3.60769817089683 74.70515625 L 3.8060121378559684 73.500234375 L 3.936209319607756 72.2953125 L 3.995959557145134 71.090390625 L 3.9841934912677104 69.88546875 L 3.901121701068005 68.680546875 L 3.74823093516501 67.47562500000001 L 3.5282575031352557 66.27070312500001 L 3.2451383033590298 65.06578125 L 2.903940363743948 63.86085937499999 L 2.5107701563463647 62.65593749999999 L 2.072664308900818 61.451015625 L 1.5974636692101096 60.24609375 L 1.0936729762849824 59.041171875 L 0.570308649720665 57.83624999999999 L 0.03673742144720003 56.63132812499999 L -0.49749130211401965 55.42640624999999 L -1.0228163472472116 54.221484374999996 L -1.5298358907402427 53.0165625 L -2.009475725762151 51.811640625 L -2.453151664339886 50.60671875 L -2.8529231698920774 49.40179687499999 L -3.201635470234768 48.19687499999999 L -3.493047607640757 46.991953124999995 L -3.7219441342208803 45.78703124999999 L -3.8842284535978746 44.58210937499999 L -3.9769961383224457 43.37718749999999 L -3.998586910858507 42.172265624999994 L -3.9486143578258495 40.96734375 L -3.827972845699905 39.762421874999994 L -3.638821514197242 38.5575 L -3.3845456338196245 37.352578125 L -3.069696019146654 36.14765625 L -2.6999075822065866 34.942734375 L -2.2817984835882132 33.737812500000004 L -1.8228516862018587 32.532890625 L -1.3312810315400971 31.327968749999997 L -0.8158842352919584 30.123046875 L -0.2858854332707198 28.918124999999996 L 0.24922990436487516 27.713203124999996 L 0.7798847360304476 26.50828125 L 1.2965818505037172 25.303359375 L 1.7900738399759213 24.098437499999996 L 2.2515286023331247 22.893515624999996 L 2.6726874106475402 21.688593749999995 L 3.0460127208848764 20.483671875 L 3.3648230724904042 19.27875 L 3.6234126675171865 18.073828125 L 3.8171534881704052 16.868906250000002 L 3.9425781251543635 15.663984374999998 L 3.9974418344304996 14.459062499999998 L 3.980762711747046 13.254140625 L 3.8928392659305975 12.049218749999998 L 3.735245076427682 10.844296874999998 L 3.51080063071114 9.639375 L 3.223522845581574 8.434453125000001 L 2.878553175788927 7.229531249999999 L 2.482065596625236 6.024609374999999 L 2.041156107338283 4.8196875 L 1.5637157329405533 3.6147656249999995 L 1.0582892973196787 2.40984375 L 0.533922495209754 1.204921875 L 0 0 L 0.8731250000000002 0 L 1.7462500000000003 0 L 2.6193750000000007 0 L 3.4925000000000006 0 L 4.365625000000001 0 L 5.238750000000001 0 L 6.111875000000001 0 L 6.985000000000001 0 L 7.858125000000002 0 L 8.731250000000003 0 L 9.604375000000003 0 L 10.477500000000003 0 L 11.350625000000003 0 L 12.223750000000003 0 L 13.096875000000002 0 L 13.970000000000002 0 L 14.433953367619392 1.0462499999999997 L 14.891643898230894 2.0924999999999994 L 15.336893295925202 3.138749999999999 L 15.76369120578254 4.184999999999999 L 16.16627634675335 5.231249999999998 L 16.53921428232813 6.277499999999998 L 16.877470779181778 7.323749999999998 L 17.17647976353511 8.369999999999997 L 17.432204957900783 9.416249999999998 L 17.641194366188458 10.462499999999997 L 17.800626871682894 11.508749999999996 L 17.9083503188759 12.554999999999996 L 17.962910565091107 13.601249999999997 L 17.963571109738147 14.647499999999996 L 17.910323036223783 15.693749999999994 L 17.80388513231566 16.739999999999995 L 17.645694187333916 17.786249999999995 L 17.437885597147385 18.832499999999996 L 17.18326453878464 19.878749999999993 L 16.885268103769526 20.924999999999994 L 16.547918901337543 21.971249999999994 L 16.1757707578364 23.01749999999999 L 15.773847245306309 24.063749999999995 L 15.347573869033566 25.109999999999992 L 14.902704829467444 26.15624999999999 L 14.445245347130323 27.202499999999993 L 13.98137059904547 28.248749999999994 L 13.517342360947454 29.29499999999999 L 13.059424480509536 30.341249999999988 L 12.613798322602268 31.38749999999999 L 12.186479327975107 32.43374999999999 L 11.783235811722857 33.47999999999999 Q 12.235987323234262 32.86124999999999 12.717343473638403 32.2378125 Q 13.206878458303184 31.614374999999995 13.722860698915179 30.98625 Q 14.244623001995533 30.358125 14.790410586245908 29.7253125 Q 15.064580157820027 29.40890625 15.344264940916371 29.091328125 Q 15.624401175331373 28.773749999999996 15.909709340347037 28.455 Q 16.19428497006532 28.138125 16.475819170204566 27.82546875 Q 16.757112735326466 27.512812500000003 17.035042906116484 27.204375 Q 17.58907232151574 26.587500000000002 18.12796919641297 25.987499999999997 Q 18.662398974174284 25.387499999999996 19.17990393412434 24.804374999999993 Q 19.69109620000904 24.221249999999998 20.184076810826976 23.654999999999994 L 20.184076810826976 23.654999999999994 L 20.80084244644847 22.915781249999995 L 21.402482491683028 22.176562499999996 L 21.98721599947313 21.437343749999997 L 22.553376013989244 20.698124999999994 L 23.099420809970958 19.95890624999999 L 23.623944287709183 19.219687499999992 L 24.125685453581877 18.480468749999993 L 24.603536922221465 17.741249999999994 L 25.05655238298857 17.002031249999995 L 25.48395298040988 16.262812499999995 L 25.88513256556049 15.523593749999998 L 26.259661782983514 14.784374999999997 L 26.607290965591368 14.045156249999994 L 26.927951818029804 13.305937499999995 L 27.2217578771549 12.566718749999996 L 27.489003746518204 11.827499999999997 L 27.730163110021465 11.088281249999998 L 27.945885538133783 10.349062499999997 L 28.13699210820498 9.609843749999996 L 28.304469868405047 8.870624999999997 L 28.44946518261613 8.131406249999998 L 28.57327600114868 7.392187499999999 L 28.677343109395984 6.652968749999998 L 28.76324041343248 5.9137499999999985 L 28.83266432805449 5.1745312499999985 L 28.887422338813934 4.435312499999998 L 28.929420815164665 3.6960937499999993 L 28.960652156890543 2.9568749999999993 L 28.983181360479623 2.217656249999999 L 28.99913209601977 1.4784374999999996 L 29.01067238849136 0.7392187499999998 L 29.020000000000003 0 L 29.969375000000003 0 L 30.918750000000003 0 L 31.868125000000003 0 L 32.8175 0 L 33.766875 0 L 34.71625 0 L 35.665625000000006 0 L 36.615 0 L 37.564375 0 L 38.51375 0 L 39.463125000000005 0 L 40.4125 0 L 41.361875 0 L 42.31125 0 L 43.260625000000005 0 L 44.21 0 L 44.18259882915568 1.0799999999999996 L 44.148310505708544 2.1599999999999993 L 44.10034693310036 3.239999999999999 L 44.032116702165936 4.3199999999999985 L 43.93731989358014 5.399999999999999 L 43.81003868788589 6.479999999999998 L 43.64482247988344 7.559999999999997 L 43.436766273203986 8.639999999999997 L 43.18158122753979 9.719999999999997 L 42.8756563438689 10.799999999999997 L 42.51611040047306 11.879999999999995 L 42.100833392766745 12.959999999999996 L 41.62851688091986 14.039999999999994 L 41.09867280879231 15.119999999999994 L 40.51164052351278 16.199999999999996 L 39.8685818947413 17.279999999999994 L 39.17146460381352 18.359999999999992 L 38.42303384311473 19.439999999999994 L 37.62677283272369 20.519999999999996 L 36.78685272220461 21.599999999999994 L 35.90807259809633 22.679999999999993 L 34.9957904599546 23.75999999999999 L 34.05584615770023 24.839999999999993 L 33.09447739864445 25.91999999999999 L 32.118230032239474 26.99999999999999 L 31.133863902904388 28.079999999999988 L 30.14825562501957 29.159999999999986 L 29.168299678450484 30.239999999999988 L 28.200809247117068 31.319999999999993 L 27.252418226820595 32.39999999999999 L 26.329485811722854 33.47999999999999 L 25.438005031784368 34.55999999999999 L 25.438005031784368 34.55999999999999 Z" fill="black" stroke="black" />
				</svg>