<svg
					xmlns="http://www.w3.org/2000/svg" xmlns:xlink="http://www.w3.org/1999/xlink"
					style="
						overflow: visible;
						height: 100;
					"
					viewBox="-3.938171262458843 0 63.33020143715503 86.19000000000001"
				>
					<path d="M 55.243021454470224 38.235000000000014 L 55.243021454470224 38.235000000000014 Q 55.12560269051373 38.87062500000001 55.01356273900133 39.50343750000001 Q 54.920267076149244 40.136250000000004 54.83289989033757 40.76625 Q 54.76479825137056 41.39625000000001 54.70278027315762 42.02343750000001 Q 54.66016177797786 42.650625000000005 54.623396519075754 43.275000000000006 Q 54.60578659767827 43.899375 54.59343015309308 44.5209375 Q 54.59962320640288 45.1425 54.61012364123966 45.761250000000004 Q 54.63822890935957 46.38 54.66937807515248 46.99593750000001 Q 54.716877172127674 47.611875000000005 54.765873331241394 48.22500000000001 Q 54.830233577423385 48.84 54.89080536430839 49.43976562500001 Q 54.96398959578997 50.03953125000001 55.03044138679933 50.6240625 Q 55.10721181049759 51.208593750000006 55.17444363313931 51.77789062500001 Q 55.24976495354598 52.34718750000001 55.31293738284204 52.901250000000005 Q 55.38208489959084 53.455312500000005 55.43671280078957 53.994140625000014 Q 55.49535460319805 54.532968750000016 55.53737587513637 55.05656250000001 Q 55.58163075529017 55.58015625 55.60745202791281 56.088515625 Q 55.63392533549707 56.596875000000004 55.64044706243417 57.09 Q 55.64666927268792 57.581250000000004 55.628605617569555 58.04835937500001 Q 55.60875521800021 58.51546875000001 55.56388257409809 58.95843750000001 Q 55.51644683420909 59.40140625000001 55.44362475132617 59.82023437500002 Q 55.36772320819959 60.23906250000002 55.26638874806532 60.633750000000006 Q 55.161681770803796 61.0284375 55.03175768148226 61.39898437500001 Q 54.898354247421075 61.769531250000014 54.740158479524986 62.115937500000015 Q 54.578526867536446 62.46234375000001 54.39268655119318 62.78460937500001 Q 54.203570621751474 63.10687500000001 53.99094265898614 63.405000000000015 Q 53.77345181727842 63.701250000000016 53.529988650339014 63.96046875000001 Q 53.284091550560596 64.2196875 53.013479736491774 64.44187500000001 Q 52.74099367299767 64.6640625 52.44496285137852 64.84921875 Q 52.14758280155582 65.03437500000001 51.827693354410734 65.1825 Q 51.50691675360572 65.330625 51.16449601354248 65.44171874999999 Q 50.8215663756419 65.5528125 50.45766186772363 65.626875 Q 50.093528163023784 65.7009375 49.708874992441935 65.73796875 Q 49.324164081285225 65.77499999999999 48.919164081285224 65.77499999999999 L 48.919164081285224 65.77499999999999 Q 48.59541408128522 65.77499999999999 48.27034337686794 65.7496875 Q 47.945245672636204 65.724375 47.61871945095622 65.67375 Q 47.29208579082886 65.623125 46.96380968131329 65.54718749999999 Q 46.63529397651737 65.47125 46.30481926119198 65.37 Q 45.97392406926985 65.26875000000001 45.64065616148305 65.1421875 Q 45.30674262256887 65.015625 44.96995328980563 64.86375000000001 Q 44.63225505563352 64.711875 44.291099006999154 64.53468750000002 Q 43.948740836800525 64.35750000000002 43.60227741427534 64.15500000000002 Q 43.253049215215434 63.95250000000001 42.91042387805354 63.72820312500001 Q 42.5660203742813 63.50390625 42.22761606301799 63.2578125 Q 41.88718324026955 63.01171875 41.55215234767501 62.74382812500001 Q 41.21487026261357 62.47593750000001 40.88242179376966 62.18625 Q 40.54754411324868 61.8965625 40.2169866658227 61.585078125 Q 39.88388605346318 61.27359375 39.55467666342757 60.940312500000005 Q 39.22289594081035 60.60703125000001 38.894694558657086 60.251953125000014 Q 38.56400325321096 59.89687500000001 38.23673225541431 59.52000000000001 L 38.23673225541431 59.52000000000001 L 37.72673225541431 59.52000000000001 Q 37.67018649706167 59.8575 37.59427543363561 60.18046875 Q 37.51634192129966 60.50343750000001 37.41906623308496 60.81187500000001 Q 37.31964767297635 61.120312500000004 37.20100338235656 61.41421875 Q 37.08016386907609 61.708125 36.940293104607576 61.9875 Q 36.79823248648853 62.266874999999985 36.63739857312298 62.53171874999999 Q 36.474428026871514 62.79656249999999 36.29299197710702 63.046874999999986 Q 36.109511128486496 63.297187499999986 35.90790980941523 63.532968749999995 Q 35.70438562756134 63.76875 35.48311177820597 63.989999999999995 Q 35.26185842229496 64.21312499999999 35.020652151047756 64.40835937499999 Q 34.778003247893565 64.60359374999999 34.516172045950434 64.77093749999999 Q 34.25324602660082 64.93828124999999 33.97183515128515 65.07773437499999 Q 33.68964442594331 65.2171875 33.3895745750134 65.32874999999999 Q 33.08899580820363 65.4403125 32.77103770791304 65.523984375 Q 32.452789203425155 65.60765624999999 32.117544675357536 65.66343749999999 Q 31.782169801907017 65.71921874999998 31.430058328658184 65.747109375 Q 31.07791408128523 65.77499999999999 30.709164081285227 65.77499999999999 L 30.709164081285227 65.77499999999999 Q 30.290414081285228 65.77499999999999 29.87959729696042 65.75203124999999 Q 29.468758277767805 65.7290625 29.065763673815024 65.68312499999999 Q 28.662680548943182 65.63718749999998 28.26726550202768 65.56828124999998 Q 27.871652878525047 65.49937499999999 27.483447054889027 65.4075 Q 27.0948940509128 65.31562500000001 26.713405692169896 65.20078125 Q 26.331383288328265 65.0859375 25.956008229586192 64.948125 Q 25.579879522577883 64.8103125 25.20991336764269 64.64953125 Q 24.838947188917146 64.48874999999998 24.473601152022265 64.30499999999999 Q 24.106989589840886 64.12125 23.74541057596893 63.914531249999996 Q 23.382290989695303 63.707812499999996 23.023586518775183 63.47812499999999 Q 22.663068651541423 63.24843749999999 22.30633722698522 62.99578124999999 Q 21.94753599788315 62.743125 21.591903467223872 62.467499999999994 Q 21.233977946510223 62.191874999999996 20.878640290435435 61.893281249999994 Q 20.520839219713707 61.5946875 20.165112024064147 61.27312500000001 Q 19.806826026458843 60.95156250000001 19.450200628310355 60.60703125000001 Q 19.09102095015694 60.2625 18.733226893428697 59.89500000000001 Q 18.372616060679015 59.526562500000004 18.01659213895779 59.143652343750006 Q 17.658509668189097 58.7607421875 17.30529445878636 58.363359375 Q 16.950517770395024 57.9659765625 16.601056376072794 57.55412109375 Q 16.250661287888324 57.14226562500001 15.90621282479186 56.7159375 Q 15.56159758645032 56.289609375 15.223757054764869 55.84880859374999 Q 14.886661775221002 55.408007812499996 14.557376463142013 54.952734375000006 Q 14.229896332329417 54.49746093750001 13.911475072871283 54.027714843750005 Q 13.59606564689763 53.55796875000001 13.291179135420247 53.07375000000001 Q 12.990651865282416 52.589531250000014 12.702322184289242 52.09083984375001 Q 12.41982833635376 51.59214843750001 12.15140583933909 51.078984375 Q 11.890406998480705 50.565820312499994 11.645532793608751 50.03818359374999 Q 11.409756274349263 49.510546874999996 11.19230873906194 48.96843750000001 Q 10.985686473591137 48.42632812500001 10.799710539741051 47.86974609375001 Q 10.626300380427042 47.31316406250001 10.475918771240393 46.74210937500001 Q 10.339807652732725 46.17105468750001 10.229113839541753 45.585527343750016 Q 10.13430290134745 45.000000000000014 10.067236286322633 44.40000000000001 L 10.067236286322633 44.40000000000001 Q 10.028585625403391 43.953750000000014 10.00794161382688 43.51324218750001 Q 9.996806567424827 43.07273437500001 10.003297546681566 42.63796875000001 Q 10.019118134122914 42.203203125000016 10.052095214362373 41.77417968750001 Q 10.09413723518721 41.34515625000001 10.152789789680593 40.921875000000014 Q 10.220167574444684 40.49859375000001 10.30354597253731 40.081054687500014 Q 10.395245190034585 39.66351562500001 10.502283396226996 39.25171875000001 Q 10.617183558993798 38.83992187500001 10.746721264508139 38.433867187500006 Q 10.883617619865907 38.02781250000001 11.034421618529109 37.627500000000005 Q 11.192046158002835 37.2271875 11.362830723447365 36.832617187500006 Q 11.539872088244241 36.438046875000005 11.729318153447535 36.04921875000001 Q 11.924440257017274 35.660390625000005 12.131213239370085 35.277304687500006 Q 12.343072469257406 34.89421875000001 12.565838624102195 34.516875000000006 Q 12.793099523838524 34.139531250000005 13.030540746313292 33.76792968750001 Q 13.271890113597454 33.39632812500001 13.522717142338497 33.030468750000004 Q 13.776876511959465 32.664609375 14.03984051854798 32.3044921875 Q 14.305577027243697 31.944375 14.579479602112125 31.590000000000003 Q 14.855615257765901 31.235625000000006 15.137521403323582 30.890566406250002 Q 15.42111257838727 30.545507812500002 15.709860320037398 30.209765625000006 Q 15.999795795835182 29.874023437500007 16.294350190862087 29.547597656250005 Q 16.58964644673795 29.221171875000003 16.889098929751675 28.904062500000006 Q 17.18889855279788 28.586953125000008 17.492464364461974 28.279160156250008 Q 17.796032684657064 27.971367187500004 18.103046699045624 27.672890625000008 Q 18.409766958960407 27.37441406250001 18.71967820823596 27.085253906250006 Q 19.029045557773397 26.796093750000004 19.34141073234546 26.516250000000003 Q 19.65302531696922 26.23640625 19.967501496048097 25.96587890625 Q 20.281060882724844 25.6953515625 20.597397725249238 25.434140625 Q 20.91268888483879 25.1729296875 21.230720485009208 24.921035156250003 Q 21.547611523899555 24.669140625000004 21.867248109732397 24.426562500000006 Q 22.18567991781141 24.18398437500001 22.506899545848064 23.950722656250008 Q 22.826877502978455 23.717460937500004 23.14971787802282 23.493515625000004 Q 23.471303737471022 23.269570312500008 23.795854263357274 23.054941406250006 Q 24.119158308441712 22.840312500000003 24.44555245462059 22.635000000000005 Q 24.771682842813068 22.428750000000008 25.099050428258085 22.235390625000008 Q 25.425270085572294 22.042031250000008 25.752970568334526 21.861562500000005 Q 26.079619630586166 21.681093750000002 26.408000800740748 21.513515625000004 Q 26.735435491754316 21.3459375 27.06485549148475 21.191250000000004 Q 27.39343862060752 21.036562500000002 27.724257094588978 20.894765624999998 Q 28.05434965673897 20.75296875 28.386919972639177 20.6240625 Q 28.718873794243525 20.49515625 29.053536270174355 20.379140624999998 Q 29.38768763320584 20.263125000000002 29.72476370033768 20.160000000000004 Q 30.061427869949537 20.056875 30.40121509398066 19.966640625000004 Q 30.740681672364758 19.876406250000002 31.083449556531278 19.7990625 Q 31.425978586010828 19.72171875 31.771965080280992 19.657265625 Q 32.117783821769805 19.5928125 32.46719246729118 19.541249999999998 Q 32.81649278563121 19.4896875 33.16949042994291 19.451015625 Q 33.52242672484646 19.412343749999998 33.87914175143538 19.386562500000004 Q 34.235829381434336 19.360781250000002 34.59635040655624 19.347890624999998 Q 34.95686456317117 19.335 35.32123956317117 19.335 L 35.32123956317117 19.335 Q 35.76248956317117 19.335 36.19746630269944 19.351171875000002 Q 36.63243223457061 19.36734375 37.06108172626579 19.3996875 Q 37.48968814045343 19.43203125 37.91189221633233 19.480546875 Q 38.33399994827531 19.529062500000002 38.74957766453273 19.59375 Q 39.16498557057543 19.658437499999998 39.57369545431757 19.739296875 Q 39.98214302010848 19.82015625 40.38368623703848 19.917187499999997 Q 40.78485714862579 20.014218749999998 41.17888169630507 20.127421875 Q 41.57240848864627 20.240624999999998 41.95851454285109 20.369999999999997 Q 42.344525636541405 20.4975 42.711357305118334 20.627578125 Q 43.07756143511024 20.757656250000004 43.42455234794212 20.8903125 Q 43.77090762616592 21.02296875 44.098017754637176 21.158203125 Q 44.42448592259986 21.293437500000003 44.73167908929255 21.431250000000002 Q 45.03822590274624 21.5690625 45.325470173650494 21.709453125 Q 45.61206579947125 21.849843749999998 45.87933388796225 21.9928125 Q 46.14595331234295 22.13578125 46.39322299394601 22.281328124999998 Q 46.63984644085482 22.426874999999995 46.86710097766294 22.574999999999996 L 46.86710097766294 22.574999999999996 L 46.297787338671604 23.965312499999996 L 45.68458515060265 25.355624999999993 L 45.04102694056527 26.745937499999997 L 44.38136820664423 28.136249999999997 L 43.720247903342624 29.526562499999994 L 43.07233979447556 30.916874999999997 L 42.45200297703163 32.3071875 L 41.87293989926336 33.69749999999999 L 41.34787001778264 35.08781249999999 L 40.88822686597224 36.47812499999999 L 40.503885748451445 37.8684375 L 40.20292854693164 39.25874999999999 L 39.991451238938225 40.64906249999999 L 39.87341871360891 42.03937499999999 L 39.85057034233231 43.42968749999999 L 39.92237855319387 44.81999999999999 Q 39.955840982915525 45.09 40.01725567216683 45.5925 Q 40.09036598188266 46.095000000000006 40.21244788680925 46.83 Q 40.356238604387805 47.5575 40.53604909895976 48.3 Q 40.63413731094888 48.671249999999986 40.74107014537772 49.046249999999986 Q 40.85314360729234 49.421249999999986 40.973878226132854 49.79999999999998 L 40.973878226132854 49.79999999999998 Q 41.18140197256619 50.41874999999999 41.40008390984927 50.947499999999984 Q 41.62681185514254 51.47624999999999 41.85787592977553 51.91499999999999 Q 42.09362001214187 52.353749999999984 42.329025485571485 52.702499999999986 Q 42.56692001218348 53.05124999999999 42.80145723116395 53.30999999999999 Q 43.26575303002562 53.81999999999999 43.67938212047469 54.074999999999996 Q 44.09388266253177 54.33 44.45388266253177 54.33 L 44.45388266253177 54.33 Q 44.778882662531764 54.33 45.01919867699498 54.19125 Q 45.25976086922315 54.052499999999995 45.41668023118254 53.775000000000006 Q 45.57475299812316 53.49750000000001 45.65176760480316 53.081250000000004 Q 45.73199714638832 52.665000000000006 45.73626401167226 52.110000000000014 Q 45.74914686585274 51.55875000000002 45.71036247537542 50.911875000000016 Q 45.683685305464465 50.26500000000001 45.614934207328844 49.52250000000001 Q 45.587640930872794 49.15125000000002 45.552186552790374 48.75609375000002 Q 45.522604270746754 48.36093750000001 45.4867204625396 47.94187500000001 Q 45.457921221280785 47.52281250000001 45.42490189674509 47.07984375000001 Q 45.40029621965254 46.636875 45.373758137968366 46.17 Q 45.35860496572359 45.705 45.344165611810524 45.230624999999996 Q 45.340295757147146 44.756249999999994 45.338334763343845 44.2725 Q 45.347681120511695 43.78875 45.36006636466004 43.295624999999994 Q 45.38439922992305 42.802499999999995 45.41280696974359 42.3 Q 45.45367995834476 41.7975 45.49953913012214 41.285624999999996 Q 45.55823279220975 40.77375 45.622667565919684 40.2525 Q 45.70013184327169 39.73125 45.78390369900579 39.200625 Q 45.88070059129116 38.67 45.98415140868312 38.13 L 45.98415140868312 38.13 Q 46.15030118526036 37.374375 46.31729048786862 36.638085937499994 Q 46.50571723110633 35.901796875 46.69012181392222 35.18484375 Q 46.89214812161671 34.467890625 47.085351325033656 33.7702734375 Q 47.2923283929278 33.072656249999994 47.48591046843455 32.394375000000004 Q 47.689528803318474 31.716093750000006 47.8755415246034 31.057148437500004 Q 48.06807622050594 30.398203125000006 48.2392526583012 29.758593750000006 Q 48.41374436544576 29.118984375000007 48.56364656942401 28.498710937500004 Q 48.714022208415905 27.8784375 48.83713200046629 27.277500000000003 Q 48.95827134812366 26.676562500000006 49.050031083464994 26.094960937500005 Q 49.13778665967144 25.513359375000004 49.19459774922588 24.951093750000005 Q 49.24577607178052 24.388828125000003 49.26496339491064 23.845898437500004 Q 49.27727576109297 23.302968750000005 49.25702595383837 22.77937500000001 Q 49.22901657559111 22.25578125000001 49.16829767569786 21.75152343750001 Q 49.099256356709525 21.24726562500001 48.9977255339876 20.762343750000007 Q 48.88759123697841 20.27742187500001 48.74549643349816 19.811835937500014 Q 48.59475713535354 19.346250000000012 48.41283746659549 18.900000000000013 Q 48.222863425045006 18.454687500000013 48.001448925697034 18.037207031250013 Q 47.77222445930696 17.619726562500013 47.513302979655954 17.230078125000013 Q 47.247323418744216 16.840429687500013 46.9534414816629 16.478613281250013 Q 46.653313187087925 16.116796875000013 46.32706821315788 15.782812500000013 Q 45.99540726581934 15.448828125000013 45.639358682401166 15.142675781250013 Q 45.27871079446619 14.836523437500013 44.89531122493727 14.558203125000013 Q 44.50809085140398 14.279882812500013 44.09963509096185 14.029394531250013 Q 43.68808126480848 13.778906250000013 43.256670435902564 13.556250000000013 Q 42.82281664175181 13.333593750000013 42.370334823643624 13.138769531250013 Q 41.91599020584694 12.943945312500013 41.444090894467266 12.776953125000013 Q 40.970830214269135 12.609960937500013 40.48093014316679 12.470800781250013 Q 39.9900901125567 12.331640625000013 39.48336821440876 12.220312500000013 Q 39.229782835895655 12.164648437500013 38.97234342062699 12.115942382812513 Q 38.71478979792567 12.067236328125013 38.45344768687319 12.025488281250013 Q 38.19202186513982 11.983740234375013 37.92686355226219 11.948950195312513 Q 37.66164722720757 11.914160156250013 37.39274493603739 11.886328125000013 Q 37.123805582033654 11.858496093750013 36.851217386751756 11.837622070312513 Q 36.578608372743766 11.816748046875013 36.30237830369781 11.802832031250013 Q 36.02613899129438 11.788916015625013 35.74629712002134 11.781958007812513 Q 35.46645293933696 11.775000000000013 35.183015439336955 11.775000000000013 L 35.183015439336955 11.775000000000013 Q 34.737390439336956 11.775000000000013 34.30261874831065 11.792285156250014 Q 33.867832800842706 11.809570312500014 33.443843107540815 11.844140625000012 Q 33.019796301875445 11.878710937500012 32.60643138386639 11.930566406250012 Q 32.19293764778491 11.982421875000012 31.789953632674486 12.051562500000012 Q 31.386739858516094 12.120703125000013 30.99380516925757 12.207128906250013 Q 30.60051007189152 12.293554687500013 30.21720418077579 12.397265625000012 Q 29.83337703174169 12.50097656250001 29.459189193714447 12.621972656250009 Q 29.084288622226182 12.74296875000001 28.718616805118874 12.881250000000009 Q 28.352009903895418 13.019531250000007 27.99416018076336 13.175097656250006 Q 27.635122202380582 13.330664062500007 27.284308918879702 13.503515625000007 Q 26.932023895827825 13.676367187500007 26.587370972506765 13.866503906250006 Q 26.240933640263364 14.056640625000005 25.90147741441735 14.264062500000003 Q 25.5598968599953 14.471484375000001 25.224590912420187 14.696191406250001 Q 24.886796408864825 14.9208984375 24.554518854985705 15.162890625000001 Q 24.219368372424327 15.404882812499999 23.888932121760384 15.664160156249997 Q 23.555224024470967 15.923437499999997 23.225390523512782 16.199999999999996 Q 22.891771855245857 16.477499999999996 22.562260642903688 16.767773437499997 Q 22.2287653326997 17.058046875 21.898754093821065 17.361093750000002 Q 21.564495948598587 17.664140625 21.23311355867656 17.979960937500003 Q 20.89724828236266 18.295781250000005 20.56367738236939 18.624375 Q 20.22542406675205 18.952968750000004 19.888924012470945 19.2943359375 Q 19.547589093372416 19.635703125000003 19.207521317440886 19.989843750000002 Q 18.862524857283603 20.343984375 18.51838045055885 20.710898437500006 Q 18.169284504274245 21.077812500000004 17.820713710249557 21.457500000000003 Q 17.467252411659004 21.837187500000006 17.11409559932463 22.229648437500007 Q 16.756206470347657 22.622109375000008 16.398526008287423 23.027343750000007 Q 16.036381845203135 23.43257812500001 15.674494144961391 23.85058593750001 Q 15.308534677076613 24.26859375000001 14.943041510137112 24.69937500000001 Q 14.574003860380657 25.130156250000006 14.205821884938404 25.57371093750001 Q 13.834768694202396 26.017265625000007 13.465155961131995 26.47359375000001 Q 13.093499875142582 26.929921875000012 12.72407792449991 27.399023437500013 Q 12.35360099164639 27.86812500000001 11.986371010531402 28.35000000000001 Q 11.61944654488968 28.832812500000006 11.25875778888425 29.324707031250007 Q 10.89946002797026 29.816601562500004 10.547797221496545 30.317578125000004 Q 10.198923349474272 30.818554687500004 9.85923009444883 31.328613281250007 Q 9.523812436107034 31.838671875000006 9.19925183221497 32.3578125 Q 8.880523100354045 32.876953125 8.574438044268668 33.405175781249994 Q 8.275787380257732 33.9333984375 7.991651486057231 34.470703125 Q 7.716571100161423 35.0080078125 7.457930170627549 35.55439453125 Q 7.209952637451618 36.10078125 6.980356887844694 36.65625 Q 6.762983443434836 37.21171875 6.565910992834997 37.776269531249994 Q 6.382531511198603 38.3408203125 6.221304008111019 38.914453124999994 Q 6.075109701649435 39.488085937499996 5.952801334594632 40.07080078125 Q 5.846691618355926 40.653515625 5.766033170449218 41.2453125 Q 5.70251854480961 41.837109375 5.66579857308429 42.43798828125 Q 5.646901801385265 43.038867187499996 5.655867443308667 43.648828124999994 Q 5.683025715307364 44.2587890625 5.738786030334775 44.877832031249994 Q 5.81275719160484 45.496875 5.915692315895027 46.125 L 5.915692315895027 46.125 Q 5.990178359502735 46.522968750000004 6.075297043669199 46.9160009765625 Q 6.167107352252048 47.309033203125004 6.268894870760295 47.69712890625 Q 6.376873099857725 48.085224609375004 6.494158562005137 48.4683837890625 Q 6.617112342193862 48.85154296875001 6.74869687654277 49.229765625000006 Q 7.027051859636812 49.986210937500005 7.335887345828249 50.722910156250016 Q 7.660876045035849 51.459609375000014 8.011123432702854 52.1765625 Q 8.373216415062291 52.893515625 8.755694561703415 53.59072265625001 Q 9.145917004542552 54.28792968750001 9.552132702864538 54.96539062500001 Q 9.962313102387107 55.642851562500006 10.384668569975046 56.300566406250006 Q 10.807612594649967 56.958281250000006 11.239541470783475 57.59625000000001 Q 11.669137122973408 58.23421875000002 12.105176332163897 58.85244140625002 Q 12.536438728766566 59.47066406250002 12.972245215885547 60.06914062500002 Q 13.401310529337886 60.667617187500014 13.833632675543386 61.246347656250016 Q 14.2577112331782 61.82507812500002 14.684324875677042 62.38406250000001 Q 15.101623253327258 62.943046875000014 15.521241810801989 63.482285156250015 Q 15.93086313002079 64.02152343750002 16.34303052844867 64.54101562500003 Q 16.744861219498492 65.06050781250002 17.149835255063053 65.56025390625003 Q 17.54442540676437 66.06000000000002 17.943057989602764 66.54000000000002 Q 18.331961098149 67.01906250000002 18.72453576980172 67.46818359375001 Q 19.10778124740492 67.91730468750004 19.496833226243716 68.33648437500003 Q 19.87750356401243 68.75566406250002 20.26616256899372 69.14490234375002 Q 20.647450318445426 69.53414062500002 21.038881473346397 69.89343750000002 Q 21.423963140097804 70.25273437500002 21.82125768744526 70.58208984375001 Q 22.213196397087234 70.9114453125 22.619289484816708 71.21085937500001 Q 23.02096341065713 71.51027343750002 23.43857557582099 71.77974609375 Q 23.852628511343816 72.04921875000001 24.284227087503567 72.28875000000001 Q 24.71303730256117 72.52828124999999 25.16081389168219 72.73787109375 Q 25.606477439213908 72.94746093750001 26.07233772915228 73.127109375 Q 26.30469154998125 73.21693359375 26.542294177930508 73.2992724609375 Q 26.779576025178073 73.381611328125 27.022225089809353 73.45646484375 Q 27.264610470144138 73.53131835937499 27.51246994584718 73.5986865234375 Q 27.760116936808103 73.66605468750001 28.013333537933434 73.7259375 Q 28.266383062745867 73.7858203125 28.525086526857304 73.83821777343749 Q 28.78366264354083 73.890615234375 29.047966020802992 73.93552734375 Q 29.312176211648367 73.980439453125 29.58217614741027 74.0178662109375 Q 29.852111596621462 74.05529296875 30.12788859595448 74.085234375 Q 30.403624444931935 74.11517578124999 30.685243109538817 74.1376318359375 Q 30.96683868092123 74.160087890625 31.25434791045174 74.17505859375 Q 31.54184689363539 74.190029296875 31.835280045025474 74.1975146484375 Q 32.128710637446375 74.205 32.42808563744638 74.205 L 32.42808563744638 74.205 Q 32.67996063744638 74.205 32.93597046378099 74.1997265625 Q 33.19197902017223 74.194453125 33.452117321900914 74.18390624999999 Q 33.71225054018946 74.17335937499999 33.97650333084515 74.15753906249999 Q 34.24074467008911 74.14171875 34.50909029501442 74.120625 Q 34.77741552814141 74.09953125 35.049824614459695 74.0731640625 Q 35.32220177161366 74.046796875 35.59863716186167 74.01515625 Q 35.87502645796595 73.983515625 36.15544312878954 73.94660156249999 Q 36.435796876890215 73.90968749999999 36.72014184458507 73.86749999999999 Q 37.00440435692163 73.8253125 37.29261657198785 73.7778515625 Q 37.58072405112883 73.730390625 37.87273428440259 73.67765625 Q 38.164614707181165 73.624921875 38.460345430509534 73.56691406249999 Q 38.75591842790081 73.50890624999998 39.055283692736076 73.44562499999998 Q 39.354460429231786 73.38234374999999 39.657365746941025 73.31378906249998 Q 39.960048803399765 73.245234375 40.26639103151134 73.17140624999999 Q 40.57247429589165 73.09757812499998 40.88214153493315 73.01847656249998 Q 41.19151010575115 72.93937499999998 41.50438161177023 72.85499999999999 Q 41.81691171956219 72.770625 42.12738599683435 72.68220703125 Q 42.43748367498284 72.59378906250001 42.745454973246 72.501328125 Q 43.05301266144845 72.4088671875 43.35836989053941 72.31236328125 Q 43.663274712690885 72.21585937500001 43.9659014918144 72.1153125 Q 44.26803531693818 72.014765625 44.567810051391504 71.91017578125 Q 44.86704958343189 71.8055859375 45.163845572101934 71.69695312500001 Q 45.460062471943225 71.5883203125 45.75374804900247 71.47564453125001 Q 46.046809092180055 71.36296875000002 46.33724780650094 71.24625000000002 Q 46.627015080155985 71.12953125000001 46.9140659160386 71.00876953125002 Q 47.20039705873319 70.88800781250004 47.48391470159429 70.76320312500002 Q 47.76666318964597 70.63839843750002 48.04649834034521 70.50955078125001 Q 48.325513824355085 70.38070312500003 48.60151356583364 70.24781250000001 Q 48.87664226106635 70.11492187500002 49.14865048093891 69.97798828125002 Q 49.419735615162914 69.84105468750002 49.68759348783328 69.70007812500002 Q 49.954475810140096 69.55910156250002 50.21802234189812 69.41408203125002 Q 50.48054069588664 69.26906250000002 50.73961333628624 69.12000000000002 L 50.73961333628624 69.12000000000002 L 50.78383999150646 69.8765625 L 50.79993139987306 70.63312500000002 L 50.787773918331204 71.38968750000002 L 50.74745340719281 72.14625000000001 L 50.67925462376152 72.90281250000001 L 50.58365921127881 73.65937500000001 L 50.461342297393855 74.41593750000001 L 50.313167726180204 75.17250000000001 L 50.14018195737202 75.92906250000001 L 49.943606675905954 76.68562500000002 L 49.72483016396228 77.44218750000002 L 49.48539749643921 78.19875000000002 L 49.226999629103034 78.9553125 L 48.95146145647747 79.711875 L 48.66072892381157 80.46843750000002 L 48.356855284145716 81.22500000000001 Q 48.06225496239124 81.373125 47.766006437999444 81.51708984375 Q 47.46939036333435 81.6610546875 47.17119914740625 81.800859375 Q 46.872689885757694 81.9406640625 46.57267166896189 82.07630859375 Q 46.27238044363927 82.21195312500001 45.970639896960286 82.3434375 Q 45.668667108537655 82.47492187499999 45.36529841462839 82.60224609375001 Q 45.061734182357725 82.7295703125 44.75682158516877 82.852734375 Q 44.451746304172204 82.97589843749998 44.14536467138102 83.09490234375 Q 43.83884958035836 83.21390625 43.53106497360161 83.32874999999999 Q 43.22317272826354 83.44359374999999 42.91404297664117 83.55427734375 Q 42.60482822453686 83.6649609375 42.29440349730415 83.77148437499999 Q 41.983913450151405 83.87800781249999 41.67223682494292 83.98037109375 Q 41.36051182498719 84.08273437499999 41.04761984832203 84.18093749999998 Q 40.73469392564649 84.27914062499998 40.42061716284656 84.37318359374999 Q 40.10651858092672 84.46722656249999 39.791282152937896 84.55710937499998 Q 39.476033940081805 84.64699218749999 39.1596580450205 84.73271484374999 Q 38.84327850965723 84.81843749999999 38.5257789272129 84.89999999999999 Q 38.20869875767403 84.98062499999999 37.892573962473584 85.0562109375 Q 37.57645647713491 85.13179687499999 37.26129717528467 85.20234375 Q 36.94614822934401 85.27289062499999 36.63195837729684 85.33839843749999 Q 36.3177806541395 85.40390624999999 36.00456139105529 85.464375 Q 35.69135498486517 85.52484375 35.37910519021159 85.58027343750001 Q 35.066868146878406 85.635703125 34.755584956017735 85.68609375000001 Q 34.44431377181345 85.736484375 34.13399304916524 85.7818359375 Q 33.823683126864985 85.82718750000001 33.51431989641394 85.8675 Q 33.20496595869921 85.9078125 32.896554791759726 85.94308593750002 Q 32.58815125186844 85.97835937500003 32.280686612125855 86.00859375000002 Q 31.973227901807608 86.03882812500001 31.666704447733046 86.06402343750001 Q 31.360185302633056 86.08921875000001 31.054598147418723 86.10937500000001 Q 30.749013850052037 86.12953125000001 30.44435877923991 86.14464843750001 Q 30.13970535973442 86.159765625 29.835979006715917 86.16984375000001 Q 29.532253401499002 86.179921875 29.229453381051584 86.18496093750001 Q 28.926653549636985 86.19000000000001 28.624778549636986 86.19000000000001 L 28.624778549636986 86.19000000000001 Q 28.336966049636988 86.19000000000001 28.053826614231745 86.18525390625001 Q 27.770687346553537 86.18050781250003 27.492221812058478 86.17101562500001 Q 27.213756941511935 86.16152343750001 26.939967120444027 86.14728515625 Q 26.666178767153518 86.13304687500002 26.397067385559644 86.11406250000002 Q 26.127958548340633 86.09507812500001 25.863529148228444 86.07134765625001 Q 25.599103593027817 86.04761718750001 25.339360399799947 86.019140625 Q 25.079622513089376 85.9906640625 24.824570267856465 85.95744140625001 Q 24.569524874846252 85.92421875000001 24.31916863147799 85.88625000000002 Q 24.068820779007744 85.84828125000001 23.8231656657767 85.80556640625001 Q 23.577520369740515 85.76285156250002 23.336571315423065 85.71539062500001 Q 23.095633272603827 85.6679296875 22.859394696929183 85.61572265625001 Q 22.62316796115124 85.56351562500001 22.39164342953488 85.50656250000002 Q 22.160131052099242 85.44960937500001 21.933322894664705 85.38791015625002 Q 21.70652652910881 85.32621093750001 21.48443542409313 85.25976562500001 Q 21.262354895420263 85.1933203125 21.04497941717677 85.12212890625001 Q 20.82761225583123 85.0509375 20.61494838779061 84.97500000000001 Q 20.18963267641085 84.823125 19.783104687470313 84.65226562500001 Q 19.376549352382103 84.48140625 18.988714191019483 84.29156250000001 Q 18.600774000446446 84.10171875 18.231436288047952 83.892890625 Q 17.861876422536163 83.68406250000001 17.51073806531765 83.45625000000001 Q 17.159212019149347 83.2284375 16.825849177177048 82.98164062500001 Q 16.49187526742583 82.73484375000001 16.17571417822082 82.4690625 Q 15.858651140077567 82.20328125 15.558943357247184 81.918515625 Q 15.257965656142446 81.63374999999999 14.973763427440744 81.33 Q 14.688462091249818 81.02625 14.419973004547975 80.70603515625 Q 14.14924780527516 80.3858203125 13.894551264034494 80.04914062499999 Q 13.637023162659561 79.7124609375 13.394608282960315 79.35931640624999 Q 13.148680583463076 79.00617187499999 12.916813918281074 78.6365625 Q 12.680667266061967 78.266953125 12.45739082224464 77.88087890624999 Q 12.228984039427461 77.4948046875 12.012119849975617 77.092265625 Q 11.789197896259388 76.6897265625 11.576360467764486 76.27072265625 Q 11.356470853571272 75.85171875 11.145088821822911 75.41624999999999 Q 10.925607788425756 74.98078124999998 10.712956070744262 74.52884765625 Q 10.491125775869143 74.0769140625 10.274369392198276 73.608515625 Q 10.047347184665409 73.14011718749998 9.823597716162482 72.65525390624998 Q 9.588518334938485 72.170390625 9.354903684555712 71.6690625 Q 9.108954862630474 71.16773437500001 8.862702564450794 70.64994140625001 Q 8.603214044956323 70.1321484375 8.341747828246405 69.597890625 Q 8.066293201592867 69.0636328125 7.787341846612532 68.51291015625 Q 7.493851890864152 67.9621875 7.195568617684988 67.39500000000001 Q 6.881828974868611 66.82781250000002 6.564415219182296 66.24755859375001 Q 6.232360738449352 65.6673046875 5.896330996908546 65.07398437500001 Q 5.546193616952861 64.48066406250001 5.192178949730852 63.87427734375001 Q 4.8249680435966855 63.26789062500001 4.454424413678614 62.6484375 Q 4.072003472032134 62.02898437499999 3.687280902133927 61.396464843749996 Q 3.2924276608066116 60.763945312500006 2.89682000436052 60.118359375000004 Q 2.493264716126527 59.4727734375 2.091034632195071 58.81412109375 Q 1.6834710735372829 58.155468750000004 1.2798448024805837 57.48375 Q 0.8739087336090686 56.81203124999999 0.47503554054854374 56.127246093749996 Q 0.07724574980283772 55.44246093749999 -0.3098825165579096 54.74460937499999 Q -0.6922247102625457 54.0467578125 -1.059897564343494 53.335839843749994 Q -1.418853369139619 52.624921875 -1.758811448815256 51.90093749999999 Q -2.085995738465678 51.176953125 -2.38964697815816 50.43990234375 Q -2.6764651405423274 49.702851562499994 -2.935145856345929 48.95273437499999 Q -3.0567989029345837 48.577675781249994 -3.1705656368644637 48.199350585937495 Q -3.278676962704086 47.82102539062499 -3.378350636720089 47.43943359374999 Q -3.4719277247982943 47.05784179687499 -3.5565355395761737 46.67298339843749 Q -3.6346347136411326 46.288124999999994 -3.703258729310931 45.89999999999999 L -3.703258729310931 45.89999999999999 Q -3.796801956696529 45.29249999999999 -3.8638723772508428 44.69027343749999 Q -3.9136103312413066 44.08804687499999 -3.9368811978700577 43.49109375 Q -3.9426872442297287 42.894140625 -3.9223626808322414 42.302460937499994 Q -3.884757470690785 41.71078125 -3.8216636761715805 41.124375 Q -3.7417678434038444 40.53796875 -3.6373014064211735 39.956835937499996 Q -3.5167797028121854 39.375703125 -3.3728483403149188 38.79984375 Q -3.2138470969573523 38.223984375 -3.032804689238054 37.6533984375 Q -2.837884463069046 37.0828125 -2.6224622073563157 36.517500000000005 Q -2.394527401770494 35.9521875 -2.147762818520012 35.3921484375 Q -1.889989962871375 34.832109375 -1.6151553702386652 34.27734375000001 Q -1.3309216111645714 33.72257812500001 -1.031453540023837 33.173085937500005 Q -0.7242667442239346 32.623593750000005 -0.40369760475629857 32.079375000000006 Q -0.07712930424503872 31.535156250000007 0.2609775585207035 30.996210937500003 Q 0.603355325849471 30.457265625000005 0.9554662305924481 29.923593750000006 Q 1.3101393147132145 29.389921875000006 1.6728057217438685 28.861523437500004 Q 2.036370800189003 28.33312500000001 2.4062790735941335 27.81000000000001 Q 2.774865626116023 27.28687500000001 3.145618990953945 26.772187500000015 Q 3.5141996779205873 26.257500000000014 3.883614765719731 25.751250000000013 Q 4.249528982956059 25.245000000000008 4.615143021620648 24.74718750000001 Q 4.976083991798856 24.249375000000008 5.33579045995459 23.760000000000012 Q 5.689811850337502 23.27062500000001 6.041862926383329 22.78968750000001 Q 6.387377684012323 22.30875000000001 6.7303794544532 21.836250000000014 Q 7.066151851467063 21.36375000000001 7.399053284238264 20.899687500000013 Q 7.724185191241443 20.435625000000012 8.046261888944343 19.98000000000001 Q 8.360174289830056 19.52437500000001 8.671008019829891 19.07718750000001 Q 8.97341875199631 18.630000000000013 9.272873709946985 18.19125000000001 Q 9.563772364151653 17.752500000000012 9.851969069337375 17.322187500000013 Q 10.131589918044975 16.891875000000013 10.408877567333189 16.470000000000013 Q 10.677671313550418 16.048125000000013 10.94459933975888 15.634687500000013 Q 11.20320439386133 15.221250000000012 11.460493887570115 14.816250000000013 Q 11.709707790925432 14.411250000000013 11.958223355383016 14.014687500000012 Q 12.198974879619682 13.61812500000001 12.439697399110326 13.230000000000011 Q 12.673019761166724 12.841875000000012 12.906451652361639 12.464296875000013 Q 13.132965567830013 12.086718750000012 13.360470383003268 11.719687500000012 Q 13.581562195313662 11.35265625000001 13.804525375997967 10.99617187500001 Q 14.021592040422117 10.639687500000012 14.241397332054735 10.29375000000001 Q 14.455824258127162 9.947812500000008 14.673833418937644 9.61242187500001 Q 14.88697559397379 9.27703125000001 15.104511322256872 8.952187500000008 Q 15.317677609379494 8.627343750000009 15.53600955256368 8.313046875000008 Q 15.750450002445083 7.99875000000001 15.970783664538349 7.695000000000009 Q 16.187679639225298 7.391250000000008 16.411147969023638 7.0980468750000085 Q 16.631604847389468 6.804843750000009 16.859262266872534 6.522187500000008 Q 17.084304482998242 6.239531250000009 17.317123102151115 5.967421875000008 Q 17.54769125880527 5.695312500000008 17.786559018237153 5.433750000000007 Q 18.02350881615589 5.172187500000007 18.26922930091906 4.921171875000007 Q 18.513332029396423 4.670156250000007 18.76662570500522 4.429687500000007 Q 19.01857004909588 4.189218750000006 19.280076682670078 3.9592968750000055 Q 19.540471615898095 3.7293750000000054 19.81075366049265 3.510000000000005 Q 20.0801322082919 3.290625000000005 20.359753471893516 3.0849609375000044 Q 20.638672727556703 2.879296875000004 20.928112141859856 2.6873437500000037 Q 21.217016305985805 2.4953906250000037 21.51666806768728 2.3171484375000038 Q 21.81592035905351 2.1389062500000033 22.126103578367104 1.9743750000000029 Q 22.43599588827155 1.8098437500000026 22.756964110155213 1.6590234375000026 Q 23.07772644350244 1.5082031250000023 23.409676858487753 1.371093750000002 Q 23.741486395102562 1.2339843750000017 24.084568592870678 1.1105859375000016 Q 24.427558236805403 0.9871875000000014 24.7818823873821 0.8775000000000013 Q 25.136148701700943 0.7678125000000011 25.501793076322333 0.6718359375000009 Q 25.86740352604633 0.5758593750000008 26.244421292500846 0.4935937500000007 Q 26.621420739263787 0.4113281250000006 27.009845985088546 0.3427734375000005 Q 27.398262393873015 0.2742187500000004 27.798115345501657 0.21937500000000032 Q 28.19796467695558 0.16453125000000024 28.609256094171823 0.12339843750000018 Q 29.020546365863066 0.08226562500000012 29.44328109914426 0.05484375000000008 Q 29.866015606143005 0.02742187500000004 30.300195310142875 0.01371093750000002 Q 30.734375 0 31.180000000000003 0 L 31.180000000000003 0 Q 31.440937500000004 0 31.70178385408104 0.0045410156250000125 Q 31.962630207648274 0.009082031250000025 32.22338541118617 0.01816406250000005 Q 32.484140606503324 0.027246093750000075 32.74480462507375 0.04086914062500011 Q 33.005468602026774 0.05449218750000015 33.266041315915814 0.0726562500000002 Q 33.52661389827433 0.09082031250000025 33.787095016164635 0.1135253906250003 Q 34.047575812940586 0.1362304687500004 34.30796475478147 0.16347656250000045 Q 34.828740529973885 0.2179687500000006 35.34914421970937 0.2906250000000008 Q 35.86953949290562 0.363281250000001 36.38954979475495 0.4541015625000012 Q 36.909539553622906 0.5449218750000016 37.42911936927813 0.6539062500000018 Q 37.948656606571234 0.762890625000002 38.46774095654972 0.8900390625000025 Q 38.98674648438472 1.0171875000000028 39.50523118450153 1.1625000000000032 Q 40.02358157298313 1.3078125000000036 40.54131007702036 1.4712890625000041 Q 41.05882380127096 1.6347656250000047 41.57557231765309 1.8164062500000049 Q 42.09199424292829 1.9980468750000053 42.60745528631101 2.197851562500006 Q 43.12243968025488 2.3976562500000065 43.63620428655199 2.615625000000007 Q 44.14929662204825 2.833593750000008 44.66083553861666 3.0697265625000085 Q 45.17145344095809 3.3058593750000096 45.680097702963394 3.56015625000001 Q 46.1875115014177 3.8144531250000107 46.69243292062861 4.0869140625000115 Q 47.195746386340645 4.359375000000012 47.695938608636254 4.650000000000013 Q 48.19407059655268 4.940625000000012 48.68497455987627 5.246367187500011 Q 49.173337671611634 5.552109375000011 49.65370816958893 5.872968750000011 Q 50.130991915687915 6.19382812500001 50.599413188230585 6.529804687500009 Q 51.06413612535911 6.865781250000009 51.51901961694796 7.216875000000009 Q 51.96952899287133 7.5679687500000075 52.409115504684465 7.9341796875000075 Q 52.84359167788523 8.300390625000007 53.26595879751106 8.681718750000007 Q 53.68242532469018 9.063046875000007 54.08550103756165 9.459492187500006 Q 54.481841328746086 9.855937500000005 54.86342470399139 10.267500000000004 Q 55.23740611586922 10.679062500000002 55.59519590765594 11.105742187500002 Q 55.94450207254881 11.532421875 56.27613397749381 11.974218749999999 Q 56.59840603932673 12.416015625 56.90149919246009 12.872929687499997 Q 57.194386433706015 13.329843749999998 57.4665995016315 13.801874999999997 Q 57.727819588792244 14.273906249999996 57.96691652204139 14.761054687499996 Q 58.19432526556364 15.248203124999996 58.39825039756237 15.750468749999994 Q 58.589920511269746 16.252734374999996 58.75688223648535 16.770117187499995 Q 58.91119009097305 17.287499999999994 59.03975182112724 17.819999999999993 Q 59.15465750238783 18.35343749999999 59.24062405105629 18.899941406249994 Q 59.31386301896342 19.446445312499996 59.35785220130933 20.006015624999996 Q 59.38955539136119 20.565585937499996 59.39203017469619 21.138222656249997 Q 59.38297292011086 21.710859375 59.34508259257068 22.2965625 Q 59.29675327807367 22.882265625000002 59.22039687460085 23.481035156250005 Q 59.13505383569316 24.079804687500005 59.02292954777058 24.691640625000005 Q 58.9036419541828 25.303476562500006 58.75927812164158 25.928378906250003 Q 58.60994638980744 26.553281250000005 58.43770955879008 27.191250000000007 Q 58.26306080868483 27.82921875000001 58.06813641168753 28.480253906250006 Q 57.873690658722126 29.13128906250001 57.66203217082969 29.79539062500001 Q 57.45403536285831 30.45949218750001 57.23227835047922 31.13666015625001 Q 57.01759905857967 31.813828125000015 56.79293739524501 32.50406250000002 Q 56.57892497277332 33.19429687500001 56.358947673861906 33.897597656250014 Q 56.15325102850465 34.60089843750002 55.945739663156 35.31726562500001 Q 55.75608744362423 36.03363281250001 55.56877591068645 36.763066406250005 Q 55.40272087675201 37.492500000000014 55.243021454470224 38.235000000000014 L 55.243021454470224 38.235000000000014 Z M 19.91589548023545 44.279999999999994 L 19.91589548023545 44.279999999999994 Q 19.98705500581582 44.941874999999996 20.09233122918765 45.55828125000001 Q 20.215228587881324 46.174687500000005 20.366173454839142 46.745625000000004 Q 20.531380047728398 47.31656250000001 20.71915069876054 47.84203125000002 Q 20.918145782398156 48.36750000000002 21.13491819934035 48.84750000000002 Q 21.360279035119284 49.327500000000015 21.59936607006239 49.76203125000002 Q 21.844835400301626 50.19656250000001 22.10070014798638 50.585625000000014 Q 22.361162358875593 50.97468750000002 22.62935691055224 51.31828125000002 Q 22.900751656148454 51.661875000000016 23.177807789910805 51.96000000000002 Q 23.734212449505176 52.552500000000016 24.287083016803383 52.99687500000002 Q 24.843702095865638 53.44125000000001 25.390809382922967 53.737500000000004 Q 25.93924838629977 54.03375 26.475174695352436 54.181875000000005 Q 27.011382662531773 54.33 27.53388266253177 54.33 L 27.53388266253177 54.33 Q 27.893882662531773 54.33 28.204481590881134 54.275156249999995 Q 28.515117643144396 54.22031249999999 28.77650462085043 54.110625 Q 29.038050584220052 54.0009375 29.250682856522072 53.836406249999996 Q 29.463711913588646 53.671875 29.62840807512147 53.4525 Q 29.793905747288377 53.233124999999994 29.911987618696756 52.95890625 Q 30.031511544555716 52.6846875 30.10498949020823 52.355625 Q 30.180869274304413 52.026562500000004 30.212661968300385 51.64265625 Q 30.24822795186649 51.25875 30.242402222533556 50.81999999999999 Q 30.240975883941495 50.38124999999999 30.208527088753254 49.874062499999994 Q 30.18465682788534 49.36687499999999 30.135459760772555 48.79124999999999 Q 30.098679427942162 48.215624999999996 30.04384350810921 47.5715625 Q 30.0062093700719 46.927499999999995 29.95941536589784 46.21499999999999 Q 29.944538100008003 45.85874999999999 29.929286713059703 45.485390624999994 Q 29.920520592583145 45.112031249999994 29.9127595372202 44.72156249999999 Q 29.91227985978848 44.331093749999994 29.91424614664241 43.92351562499999 Q 29.924299007190296 43.51593749999999 29.938278440398435 43.09125 Q 29.961137474807224 42.6665625 29.98941564511523 42.224765624999996 Q 30.02732854552338 41.782968749999995 30.072131322019178 41.3240625 Q 30.12725579147736 40.86515625 30.190679168501617 40.389140624999996 Q 30.265008361760536 39.913125 30.34893795124774 39.42 L 30.34893795124774 39.42 L 30.566880461877464 38.394375000000004 L 30.831629136218034 37.368750000000006 L 31.140333294762364 36.343125 L 31.489572047518966 35.3175 L 31.875398671349032 34.291875000000005 L 32.29339180864968 33.26625 L 32.738712823210804 32.240625 L 33.20616856919939 31.215000000000003 Q 32.890452633022214 31.110000000000003 32.611510431099404 31.0425 Q 32.33263634702055 30.974999999999998 32.090380420302075 30.944999999999993 Q 31.84994701148066 30.922500000000003 31.567233029681447 30.91125000000001 Q 31.284520852986645 30.900000000000013 30.959520852986643 30.900000000000013 L 30.959520852986643 30.900000000000013 Q 30.689520852986643 30.900000000000013 30.422028829302686 30.915585937500012 Q 30.154540275831096 30.93117187500001 29.88957365903899 30.96234375000001 Q 29.359682942067128 31.024687500000013 28.840076013635375 31.14937500000001 Q 28.320710188786894 31.274062500000014 27.81213554627039 31.461093750000014 Q 27.304159840960487 31.648125000000014 26.807848509278084 31.89750000000001 Q 26.31274028389657 32.14687500000001 25.83066532082394 32.458593750000006 Q 25.350741523625498 32.7703125 24.885879601307472 33.14437500000001 Q 24.424576335803188 33.518437500000005 23.981210737130123 33.95484375000001 Q 23.543393803893935 34.39125000000001 23.12743176408914 34.89000000000001 Q 22.719705801887788 35.38875000000001 22.345161936741714 35.90953125000001 Q 21.98066279522821 36.4303125 21.65206802058303 36.973125 Q 21.33544343137137 37.51593750000001 21.057660358689446 38.08078125 Q 20.793839057159445 38.645625 20.571948345768558 39.2325 Q 20.366010431680287 39.819375 20.205160221912177 40.42828125 Q 20.062169935112586 41.0371875 19.96738687689762 41.668124999999996 Q 19.89218715338642 42.29906249999999 19.86814948341602 42.95203125 Q 19.865119852546158 43.605 19.91589548023545 44.279999999999994 L 19.91589548023545 44.279999999999994 Z" fill="black" stroke="black" />
				</svg>