<svg
					xmlns="http://www.w3.org/2000/svg" xmlns:xlink="http://www.w3.org/1999/xlink"
					style="
						overflow: visible;
						height: 100;
					"
					viewBox="-3.998586910858507 0 56.956028745289004 77.115"
				>
					<path d="M 48.96 0 L 49.49392249520975 1.204921875 L 50.01828929731968 2.40984375 L 50.52371573294055 3.6147656249999995 L 51.00115610733828 4.8196875 L 51.442065596625234 6.024609374999999 L 51.83855317578893 7.229531249999999 L 52.18352284558158 8.434453125000001 L 52.47080063071114 9.639375 L 52.69524507642768 10.844296874999998 L 52.8528392659306 12.049218749999998 L 52.94076271174705 13.254140625 L 52.9574418344305 14.459062499999998 L 52.90257812515436 15.663984374999998 L 52.777153488170406 16.868906250000002 L 52.58341266751719 18.073828125 L 52.3248230724904 19.27875 L 52.006012720884875 20.483671875 L 51.63268741064754 21.688593749999995 L 51.211528602333125 22.893515624999996 L 50.750073839975926 24.098437499999996 L 50.25658185050372 25.303359375 L 49.73988473603045 26.50828125 L 49.209229904364875 27.713203124999996 L 48.67411456672928 28.918124999999996 L 48.14411576470804 30.123046875 L 47.62871896845991 31.327968749999997 L 47.13714831379814 32.532890625 L 46.67820151641179 33.737812500000004 L 46.260092417793416 34.942734375 L 45.890303980853346 36.14765625 L 45.575454366180374 37.352578125 L 45.32117848580276 38.5575 L 45.1320271543001 39.762421874999994 L 45.011385642174154 40.96734375 L 44.961413089141494 42.172265624999994 L 44.98300386167755 43.37718749999999 L 45.07577154640212 44.58210937499999 L 45.23805586577912 45.78703124999999 L 45.46695239235925 46.991953124999995 L 45.75836452976523 48.19687499999999 L 46.10707683010792 49.40179687499999 L 46.506848335660116 50.60671875 L 46.95052427423785 51.811640625 L 47.430164109259756 53.0165625 L 47.937183652752786 54.221484374999996 L 48.46250869788598 55.42640624999999 L 48.9967374214472 56.63132812499999 L 49.530308649720666 57.83624999999999 L 50.053672976284986 59.041171875 L 50.55746366921011 60.24609375 L 51.03266430890082 61.451015625 L 51.47077015634637 62.65593749999999 L 51.86394036374395 63.86085937499999 L 52.20513830335903 65.06578125 L 52.48825750313526 66.27070312500001 L 52.70823093516501 67.47562500000001 L 52.86112170106801 68.680546875 L 52.94419349126771 69.88546875 L 52.955959557145135 71.090390625 L 52.896209319607756 72.2953125 L 52.76601213785597 73.500234375 L 52.56769817089683 74.70515625 L 52.30481667432956 75.910078125 L 51.98207247877162 77.115 L 51.413009978771626 77.115 L 50.843947478771625 77.115 L 50.274884978771624 77.115 L 49.70582247877162 77.115 L 49.13675997877162 77.115 L 48.56769747877162 77.115 L 47.99863497877162 77.115 L 47.42957247877162 77.115 L 46.86050997877162 77.115 L 46.291447478771616 77.115 L 45.722384978771615 77.115 L 45.15332247877162 77.115 L 44.58425997877163 77.115 L 44.015197478771626 77.115 L 43.446134978771624 77.115 L 42.87707247877162 77.115 L 42.30800997877162 77.115 L 41.73894747877162 77.115 L 41.16988497877162 77.115 L 40.60082247877162 77.115 L 40.03175997877162 77.115 L 39.46269747877162 77.115 L 38.893634978771615 77.115 L 38.32457247877162 77.115 L 37.75550997877163 77.115 L 37.186447478771626 77.115 L 36.617384978771625 77.115 L 36.048322478771624 77.115 L 35.47925997877162 77.115 L 34.91019747877162 77.115 L 34.34113497877162 77.115 L 33.77207247877162 77.115 L 33.71185318027695 76.26609374999998 L 33.62269224739328 75.4171875 L 33.502772227716456 74.56828125 L 33.35054912384345 73.71937499999999 L 33.16476611984663 72.87046874999999 L 32.9444647546419 72.02156249999999 L 32.6889934429171 71.17265624999999 L 32.398013267867825 70.32374999999999 L 32.071500994241795 69.47484374999999 L 31.70974927490537 68.62593749999999 L 31.31336404909561 67.77703125 L 30.883259155488098 66.928125 L 30.42064820797147 66.07921875 L 29.927033806354835 65.2303125 L 29.404194177927195 64.38140625 L 28.854167368628403 63.5325 L 28.2792331243755 62.68359375 L 27.681892623623522 61.834687499999994 L 27.064846241342593 60.98578125 L 26.430969542094548 60.136875 L 25.783287715635765 59.28796875 L 25.124948682319406 58.439062500000006 L 24.459195107395704 57.59015625000001 L 23.789335573009573 56.74125 L 23.11871516418252 55.892343749999995 L 22.450685730276067 55.043437499999996 L 21.788576086318646 54.194531250000004 L 21.135662419112826 53.345625 L 20.495139161218933 52.49671874999999 L 19.870090591751712 51.6478125 L 19.263463416465225 50.79890625 L 18.678040570894954 49.949999999999996 L 18.11641647945296 49.10109374999999 L 17.580973990428078 48.25218749999999 L 17.073863191944053 47.40328124999999 L 16.59698229720644 46.55437499999999 L 16.151960768972526 45.705468749999994 L 15.74014483327144 44.856562499999995 L 15.36258551116066 44.00765625 L 15.020029274919208 43.15875 L 14.71291141174603 42.30984375 L 14.441352153961683 41.4609375 L 14.205155610116758 40.61203125 L 14.003811506509647 39.763125 L 13.836499723631237 38.914218749999996 L 13.702097587206495 38.0653125 L 13.599189849014039 37.21640625 L 13.526081268751986 36.36749999999999 L 13.480811685094588 35.518593749999994 L 13.461173441954632 34.669687499999995 L 13.464731015028324 33.820781249999996 L 13.488842664138417 32.971875 L 13.530683918881495 32.12296874999999 L 13.587272688786896 31.274062499999992 L 13.655495774752442 30.425156249999997 L 13.732136546064572 29.576249999999995 L 13.81390353694808 28.727343749999996 L 13.89745970841591 27.8784375 L 13.97945211527475 27.029531249999998 L 14.056541714540273 26.180625 L 14.125433050258723 25.33171875 L 14.182903550830252 24.482812499999998 L 14.225832178374441 23.633906249999995 L 14.25122717543887 22.784999999999997 L 13.961227175438871 22.784999999999997 Q 13.764148475797802 23.407499999999995 13.532561669376136 24.093749999999993 Q 13.290561477968973 24.779999999999994 13.013390308956032 25.529999999999994 Q 12.871540820971852 25.904999999999994 12.721129187841472 26.295937499999994 Q 12.569072088910797 26.686874999999997 12.40882546613183 27.093749999999993 Q 12.247509711800799 27.500624999999992 12.078570689707881 27.92343749999999 Q 11.909287621166486 28.346249999999998 11.733159046014547 28.784999999999997 Q 11.556319465808363 29.223749999999995 11.37960018238275 29.663437499999997 Q 11.204348281250041 30.103125 11.030150353434603 30.543749999999996 Q 10.858344011654715 30.984375 10.688520533198137 31.425937499999996 Q 10.521999600629005 31.867499999999996 10.35837646898913 32.31 Q 10.198944495737651 32.7525 10.043302106338432 33.1959375 Q 9.892708084129188 33.639374999999994 9.746763127228963 34.083749999999995 Q 9.606683425662553 34.528124999999996 9.472070971958113 34.973437499999996 Q 9.344091656878236 35.418749999999996 9.22234772007592 35.864999999999995 Q 9.108470081078895 36.309374999999996 9.003041490227357 36.743906249999995 Q 8.905147207710954 37.178437499999994 8.81555040307145 37.603125 Q 8.733617619865909 38.027812499999996 8.659700679012081 38.44265625 Q 8.593467880272044 38.857499999999995 8.534856898236304 39.262499999999996 Q 8.483853859511203 39.6675 8.439983767377422 40.06265624999999 Q 8.403562393892596 40.457812499999996 8.373707323310402 40.84312499999999 Q 8.351071748572519 41.228437499999984 8.334374373019969 41.60390624999999 Q 8.32460979892563 41.97937499999999 8.320109193565447 42.344999999999985 L 8.320109193565447 42.344999999999985 L 8.345664504150374 43.431562499999984 L 8.429077540839835 44.51812499999998 L 8.569133990288778 45.60468749999998 L 8.76379493361382 46.69124999999998 L 9.01022652864086 47.77781249999998 L 9.304841264515957 48.86437499999998 L 9.643350188101557 49.95093749999998 L 10.020825341854765 51.03749999999999 L 10.431771504227244 52.124062499999994 L 10.870206188201708 53.21062499999999 L 11.32974673335942 54.297187499999986 L 11.803703223606634 55.38374999999999 L 12.285175877878856 56.47031249999999 L 12.767155496025067 57.556874999999984 L 13.242625497597096 58.64343749999999 L 13.704664068080135 59.72999999999999 L 14.14654492553632 60.81656249999999 L 14.56183524071703 61.903124999999996 L 14.944489285138927 62.98968749999999 L 15.288936443810385 64.07624999999999 L 15.59016231133339 65.1628125 L 15.843781690797174 66.24937499999999 L 16.0461024327576 67.33593749999999 L 16.19417918494488 68.42249999999999 L 16.285856270220165 69.5090625 L 16.319799068570763 70.595625 L 16.295513446289988 71.6821875 L 16.21335294949483 72.76875 L 16.074513657259434 73.8553125 L 15.881016769291541 74.94187499999998 L 15.635679181637755 76.0284375 L 15.34207247877162 77.115 L 14.57207247877162 77.115 L 13.80207247877162 77.115 L 13.032072478771621 77.115 L 12.262072478771618 77.115 L 11.492072478771618 77.115 L 10.722072478771619 77.115 L 9.952072478771619 77.115 L 9.18207247877162 77.115 L 8.41207247877162 77.115 L 7.6420724787716185 77.115 L 6.872072478771619 77.115 L 6.1020724787716185 77.115 L 5.332072478771618 77.115 L 4.5620724787716185 77.115 L 3.7920724787716185 77.115 L 3.0220724787716184 77.115 L 3.3448166743295573 75.910078125 L 3.60769817089683 74.70515625 L 3.8060121378559684 73.500234375 L 3.936209319607756 72.2953125 L 3.995959557145134 71.090390625 L 3.9841934912677104 69.88546875 L 3.901121701068005 68.680546875 L 3.74823093516501 67.47562500000001 L 3.5282575031352557 66.27070312500001 L 3.2451383033590298 65.06578125 L 2.903940363743948 63.86085937499999 L 2.5107701563463647 62.65593749999999 L 2.072664308900818 61.451015625 L 1.5974636692101096 60.24609375 L 1.0936729762849824 59.041171875 L 0.570308649720665 57.83624999999999 L 0.03673742144720003 56.63132812499999 L -0.49749130211401965 55.42640624999999 L -1.0228163472472116 54.221484374999996 L -1.5298358907402427 53.0165625 L -2.009475725762151 51.811640625 L -2.453151664339886 50.60671875 L -2.8529231698920774 49.40179687499999 L -3.201635470234768 48.19687499999999 L -3.493047607640757 46.991953124999995 L -3.7219441342208803 45.78703124999999 L -3.8842284535978746 44.58210937499999 L -3.9769961383224457 43.37718749999999 L -3.998586910858507 42.172265624999994 L -3.9486143578258495 40.96734375 L -3.827972845699905 39.762421874999994 L -3.638821514197242 38.5575 L -3.3845456338196245 37.352578125 L -3.069696019146654 36.14765625 L -2.6999075822065866 34.942734375 L -2.2817984835882132 33.737812500000004 L -1.8228516862018587 32.532890625 L -1.3312810315400971 31.327968749999997 L -0.8158842352919584 30.123046875 L -0.2858854332707198 28.918124999999996 L 0.24922990436487516 27.713203124999996 L 0.7798847360304476 26.50828125 L 1.2965818505037172 25.303359375 L 1.7900738399759213 24.098437499999996 L 2.2515286023331247 22.893515624999996 L 2.6726874106475402 21.688593749999995 L 3.0460127208848764 20.483671875 L 3.3648230724904042 19.27875 L 3.6234126675171865 18.073828125 L 3.8171534881704052 16.868906250000002 L 3.9425781251543635 15.663984374999998 L 3.9974418344304996 14.459062499999998 L 3.980762711747046 13.254140625 L 3.8928392659305975 12.049218749999998 L 3.735245076427682 10.844296874999998 L 3.51080063071114 9.639375 L 3.223522845581574 8.434453125000001 L 2.878553175788927 7.229531249999999 L 2.482065596625236 6.024609374999999 L 2.041156107338283 4.8196875 L 1.5637157329405533 3.6147656249999995 L 1.0582892973196787 2.40984375 L 0.533922495209754 1.204921875 L 0 0 L 0.5671875000000001 0 L 1.1343750000000001 0 L 1.7015625 0 L 2.2687500000000003 0 L 2.8359375 0 L 3.403125 0 L 3.9703125000000004 0 L 4.5375000000000005 0 L 5.104687500000001 0 L 5.671875 0 L 6.2390625 0 L 6.80625 0 L 7.3734375000000005 0 L 7.940625000000001 0 L 8.5078125 0 L 9.075000000000001 0 L 9.642187500000002 0 L 10.209375000000001 0 L 10.7765625 0 L 11.34375 0 L 11.9109375 0 L 12.478125 0 L 13.045312500000001 0 L 13.6125 0 L 14.1796875 0 L 14.746875000000001 0 L 15.314062500000002 0 L 15.881250000000001 0 L 16.4484375 0 L 17.015625 0 L 17.582812500000003 0 L 18.150000000000002 0 L 18.81394325053884 0.8369531250000002 L 19.474676562534032 1.6739062500000004 L 20.12901773709111 2.510859375000001 L 20.7738398148934 3.3478125000000007 L 21.40609809876125 4.184765625000001 L 22.022856465318284 5.021718750000002 L 22.62131273838442 5.8586718750000015 L 23.198822904823984 6.6956250000000015 L 23.752923963580265 7.532578125000002 L 24.28135521043979 8.369531250000001 L 24.782077774587584 9.206484375000002 L 25.253292238122413 10.043437500000003 L 25.693454186267655 10.880390625000004 L 26.101287553896015 11.717343750000003 L 26.47579565303005 12.554296875000002 L 26.816269786021003 13.391250000000003 L 27.12229536997267 14.228203125000004 L 27.393755519484145 15.065156250000005 L 27.630832056750172 15.902109375000006 L 27.834003940289968 16.739062500000003 L 28.004043125883165 17.576015625000004 L 28.14200789548179 18.412968750000005 L 28.249233711748566 19.249921875000005 L 28.327321677254737 20.086875000000006 L 28.37812469807073 20.923828125000007 L 28.403731471321173 21.760781250000008 L 28.406448435080627 22.59773437500001 L 28.3887798365954 23.434687500000006 L 28.353406091077936 24.271640625000003 L 28.30316061809275 25.108593750000004 L 28.24100535570925 25.945546875000005 L 28.17000516402323 26.782500000000006 L 28.09330133924675 27.619453125000007 L 28.01408446725233 28.456406250000008 L 27.935566851165692 29.29335937500001 L 27.860954751282375 30.13031250000001 L 27.793420677205233 30.96726562500001 L 27.73607597164874 31.80421875000001 L 27.69194392283533 32.64117187500001 L 27.663933637841097 33.478125000000006 L 27.654814902672232 34.315078125 L 27.667194246326357 35.15203125000001 L 27.703492415688423 35.988984375 L 27.765923455918546 36.82593750000001 L 27.85647557711502 37.662890625 L 27.976893972598855 38.49984375000001 L 28.128665737300935 39.336796875000005 L 28.313007016584002 40.17375000000001 L 28.530852496556783 41.010703125000006 L 28.782847326702925 41.847656250000014 L 29.069341544627754 42.68460937500001 L 29.390387051103037 43.521562500000016 L 29.74573716155084 44.35851562500001 L 30.1348487378425 45.19546875000002 L 30.556886881990113 46.03242187500001 L 31.010732151168515 46.86937500000001 L 31.49499023171709 47.706328125000006 L 32.00800398852053 48.54328125000001 L 32.54786778564027 49.38023437500001 L 33.11244395444047 50.21718750000001 L 33.69938126689431 51.05414062500001 L 34.306135254428014 51.89109375000001 L 34.9299901967112 52.72804687500001 L 35.56808259037069 53.56500000000001 L 35.778082590370694 53.56500000000001 Q 35.50383694979274 52.946250000000006 35.21105669166748 52.273125000000014 Q 34.9285058908854 51.60000000000001 34.63370653357215 50.8725 Q 34.49197755683331 50.50875 34.34864465540895 50.13140624999999 Q 34.20991059447201 49.75406249999998 34.07068098232307 49.36312499999998 Q 33.936856143651546 48.97218749999999 33.80374456986881 48.567656249999985 Q 33.676895245473865 48.16312499999998 33.552059284915586 47.744999999999976 Q 33.43270064040558 47.32499999999998 33.321736283887 46.903593749999985 Q 33.218470208782925 46.48218749999998 33.124093923011834 46.05937499999999 Q 33.03782902469842 45.63656249999998 32.96088858617235 45.21234374999999 Q 32.89240668800361 44.788124999999994 32.83361765637832 44.3625 Q 32.783563627477 43.936875 32.74349964710005 43.509843749999995 Q 32.7123722336172 43.082812499999996 32.69145640212132 42.65437499999999 Q 32.67960018585663 42.22593749999999 32.67809761293727 41.79609375 Q 32.685696216954035 41.366249999999994 32.70370788939502 40.93499999999999 Q 32.73077854243757 40.50374999999998 32.76639817791796 40.085859374999984 Q 32.810353825670184 39.667968749999986 32.86158908799118 39.26343749999999 Q 32.92041498427097 38.85890624999999 32.9852698702152 38.46773437499999 Q 33.05696606442439 38.07656249999999 33.13347879723474 37.69874999999999 Q 33.30466171425405 36.94312499999999 33.48826374317875 36.24093749999999 Q 33.69070301820007 35.538749999999986 33.89743176408914 34.889999999999986 L 33.89743176408914 34.889999999999986 L 34.275668973107486 33.79968749999999 L 34.68768392398859 32.70937499999999 L 35.12743714823071 31.619062499999988 L 35.58848257939705 30.528749999999988 L 36.06406204195675 29.43843749999999 L 36.547204315137236 28.34812499999999 L 37.030827319672966 27.25781249999999 L 37.50784192955929 26.16749999999999 L 37.97125588709995 25.07718749999999 L 38.414276298022926 23.98687499999999 L 38.83040920425301 22.89656249999999 L 39.21355477476625 21.80624999999999 L 39.55809671918354 20.715937499999992 L 39.858984613445315 19.625624999999992 L 40.11180793080719 18.535312499999993 L 40.3128606929826 17.444999999999993 L 40.45919579375188 16.354687499999994 L 40.5486681987421 15.264374999999994 L 40.579966388139354 14.174062499999994 L 40.552631581434284 13.083749999999995 L 40.46706446239757 11.993437499999995 L 40.324519305708094 10.903124999999996 L 40.12708559132781 9.812812499999996 L 39.87765737612682 8.722499999999997 L 39.57989087172056 7.632187499999997 L 39.238150850359126 6.541874999999997 L 38.85744666447105 5.451562499999998 L 38.44335881771094 4.361249999999998 L 38.00195716385984 3.2709374999999987 L 37.539711932649325 2.180624999999999 L 37.06339888672586 1.0903124999999996 L 36.58 0 L 37.35375 0 L 38.1275 0 L 38.90125 0 L 39.675 0 L 40.44875 0 L 41.2225 0 L 41.996249999999996 0 L 42.769999999999996 0 L 43.543749999999996 0 L 44.317499999999995 0 L 45.091249999999995 0 L 45.864999999999995 0 L 46.638749999999995 0 L 47.412499999999994 0 L 48.18625 0 L 48.96 0 L 48.96 0 Z" fill="black" stroke="black" />
				</svg>