<svg
					xmlns="http://www.w3.org/2000/svg" xmlns:xlink="http://www.w3.org/1999/xlink"
					style="
						overflow: visible;
						height: 100;
					"
					viewBox="-3.998586910858507 0 52.066028745289 77.115"
				>
					<path d="M 44.07 0 L 44.60392249520975 1.204921875 L 45.12828929731968 2.40984375 L 45.63371573294055 3.6147656249999995 L 46.11115610733828 4.8196875 L 46.55206559662523 6.024609374999999 L 46.94855317578893 7.229531249999999 L 47.29352284558158 8.434453125000001 L 47.58080063071114 9.639375 L 47.80524507642768 10.844296874999998 L 47.9628392659306 12.049218749999998 L 48.05076271174705 13.254140625 L 48.0674418344305 14.459062499999998 L 48.01257812515436 15.663984374999998 L 47.887153488170405 16.868906250000002 L 47.69341266751719 18.073828125 L 47.4348230724904 19.27875 L 47.116012720884875 20.483671875 L 46.74268741064754 21.688593749999995 L 46.321528602333125 22.893515624999996 L 45.860073839975925 24.098437499999996 L 45.36658185050372 25.303359375 L 44.84988473603045 26.50828125 L 44.319229904364875 27.713203124999996 L 43.78411456672928 28.918124999999996 L 43.25411576470804 30.123046875 L 42.73871896845991 31.327968749999997 L 42.24714831379814 32.532890625 L 41.78820151641179 33.737812500000004 L 41.370092417793416 34.942734375 L 41.000303980853346 36.14765625 L 40.68545436618037 37.352578125 L 40.43117848580276 38.5575 L 40.2420271543001 39.762421874999994 L 40.121385642174154 40.96734375 L 40.071413089141494 42.172265624999994 L 40.09300386167755 43.37718749999999 L 40.18577154640212 44.58210937499999 L 40.348055865779116 45.78703124999999 L 40.576952392359246 46.991953124999995 L 40.86836452976523 48.19687499999999 L 41.21707683010792 49.40179687499999 L 41.616848335660116 50.60671875 L 42.06052427423785 51.811640625 L 42.540164109259756 53.0165625 L 43.047183652752786 54.221484374999996 L 43.57250869788598 55.42640624999999 L 44.1067374214472 56.63132812499999 L 44.640308649720666 57.83624999999999 L 45.163672976284985 59.041171875 L 45.66746366921011 60.24609375 L 46.14266430890082 61.451015625 L 46.58077015634637 62.65593749999999 L 46.97394036374395 63.86085937499999 L 47.31513830335903 65.06578125 L 47.59825750313526 66.27070312500001 L 47.81823093516501 67.47562500000001 L 47.97112170106801 68.680546875 L 48.05419349126771 69.88546875 L 48.065959557145135 71.090390625 L 48.006209319607756 72.2953125 L 47.876012137855966 73.500234375 L 47.67769817089683 74.70515625 L 47.41481667432956 75.910078125 L 47.09207247877162 77.115 L 46.218947478771625 77.115 L 45.34582247877162 77.115 L 44.47269747877162 77.115 L 43.59957247877162 77.115 L 42.72644747877162 77.115 L 41.85332247877162 77.115 L 40.980197478771615 77.115 L 40.10707247877162 77.115 L 39.233947478771626 77.115 L 38.360822478771624 77.115 L 37.48769747877162 77.115 L 36.61457247877162 77.115 L 35.74144747877162 77.115 L 34.86832247877162 77.115 L 33.99519747877162 77.115 L 33.12207247877162 77.115 L 33.3894688476339 76.13296874999999 L 33.617739667898185 75.1509375 L 33.80416984436662 74.16890624999999 L 33.94654194216828 73.186875 L 34.043162561338136 72.20484375 L 34.09288247842827 71.2228125 L 34.09511031558333 70.24078125 L 34.049819574497675 69.25874999999999 L 33.95754895159114 68.27671875 L 33.81939593065456 67.2946875 L 33.637003729175305 66.31265625 L 33.41254175360573 65.330625 L 33.148679796043076 64.34859374999999 L 32.848556279230344 63.36656250000001 L 32.515740927577866 62.38453125000001 L 32.15419230820343 61.4025 L 31.768210747005565 60.42046875 L 31.362387179794908 59.4384375 L 30.941548546857742 58.45640625000001 L 30.510700380438795 57.47437500000001 L 30.07496726801842 56.49234375 L 29.639531899524822 55.51031250000001 L 29.20957342346506 54.528281250000006 L 28.79020584517842 53.54625000000001 L 28.38641719991457 52.56421875000001 L 28.003010224223186 51.5821875 L 27.644545231320507 50.60015625000001 L 27.315285869883592 49.618125000000006 L 27.01914841142738 48.63609375000001 L 26.759655169449637 47.65406250000001 L 26.5398926043852 46.67203125000002 L 26.36247461267685 45.69000000000001 L 25.85841211267685 45.69000000000001 L 25.35434961267685 45.69000000000001 L 24.85028711267685 45.69000000000001 L 24.34622461267685 45.69000000000001 L 23.84216211267685 45.69000000000001 L 23.33809961267685 45.69000000000001 L 22.83403711267685 45.69000000000001 L 22.32997461267685 45.69000000000001 L 21.82591211267685 45.69000000000001 L 21.32184961267685 45.69000000000001 L 20.81778711267685 45.69000000000001 L 20.31372461267685 45.69000000000001 L 19.80966211267685 45.69000000000001 L 19.30559961267685 45.69000000000001 L 18.80153711267685 45.69000000000001 L 18.29747461267685 45.69000000000001 L 17.79341211267685 45.69000000000001 L 17.28934961267685 45.69000000000001 L 16.78528711267685 45.69000000000001 L 16.28122461267685 45.69000000000001 L 15.777162112676852 45.69000000000001 L 15.273099612676852 45.69000000000001 L 14.769037112676852 45.69000000000001 L 14.264974612676852 45.69000000000001 L 13.760912112676852 45.69000000000001 L 13.256849612676852 45.69000000000001 L 12.752787112676852 45.69000000000001 L 12.24872461267685 45.69000000000001 L 11.74466211267685 45.69000000000001 L 11.24059961267685 45.69000000000001 L 10.73653711267685 45.69000000000001 L 10.23247461267685 45.69000000000001 L 10.409892604385204 46.67203125000002 L 10.629655169449638 47.65406250000001 L 10.88914841142738 48.63609375000001 L 11.185285869883593 49.618125000000006 L 11.514545231320508 50.60015625000001 L 11.873010224223187 51.5821875 L 12.25641719991457 52.56421875000001 L 12.660205845178423 53.54625000000001 L 13.079573423465062 54.528281250000006 L 13.509531899524823 55.51031250000001 L 13.944967268018422 56.49234375 L 14.380700380438796 57.47437500000001 L 14.811548546857741 58.45640625000001 L 15.232387179794909 59.4384375 L 15.638210747005568 60.42046875 L 16.024192308203432 61.4025 L 16.385740927577864 62.38453125000001 L 16.718556279230345 63.36656250000001 L 17.018679796043077 64.34859374999999 L 17.28254175360573 65.330625 L 17.50700372917531 66.31265625 L 17.689395930654563 67.2946875 L 17.827548951591144 68.27671875 L 17.919819574497673 69.25874999999999 L 17.96511031558333 70.24078125 L 17.962882478428273 71.2228125 L 17.913162561338137 72.20484375 L 17.816541942168282 73.186875 L 17.674169844366624 74.16890624999999 L 17.48773966789819 75.1509375 L 17.259468847633897 76.13296874999999 L 16.99207247877162 77.115 L 16.11894747877162 77.115 L 15.245822478771622 77.115 L 14.37269747877162 77.115 L 13.499572478771622 77.115 L 12.62644747877162 77.115 L 11.753322478771622 77.115 L 10.88019747877162 77.115 L 10.007072478771619 77.115 L 9.13394747877162 77.115 L 8.260822478771619 77.115 L 7.38769747877162 77.115 L 6.514572478771619 77.115 L 5.641447478771619 77.115 L 4.768322478771619 77.115 L 3.8951974787716184 77.115 L 3.0220724787716184 77.115 L 3.3448166743295573 75.910078125 L 3.60769817089683 74.70515625 L 3.8060121378559684 73.500234375 L 3.936209319607756 72.2953125 L 3.995959557145134 71.090390625 L 3.9841934912677104 69.88546875 L 3.901121701068005 68.680546875 L 3.74823093516501 67.47562500000001 L 3.5282575031352557 66.27070312500001 L 3.2451383033590298 65.06578125 L 2.903940363743948 63.86085937499999 L 2.5107701563463647 62.65593749999999 L 2.072664308900818 61.451015625 L 1.5974636692101096 60.24609375 L 1.0936729762849824 59.041171875 L 0.570308649720665 57.83624999999999 L 0.03673742144720003 56.63132812499999 L -0.49749130211401965 55.42640624999999 L -1.0228163472472116 54.221484374999996 L -1.5298358907402427 53.0165625 L -2.009475725762151 51.811640625 L -2.453151664339886 50.60671875 L -2.8529231698920774 49.40179687499999 L -3.201635470234768 48.19687499999999 L -3.493047607640757 46.991953124999995 L -3.7219441342208803 45.78703124999999 L -3.8842284535978746 44.58210937499999 L -3.9769961383224457 43.37718749999999 L -3.998586910858507 42.172265624999994 L -3.9486143578258495 40.96734375 L -3.827972845699905 39.762421874999994 L -3.638821514197242 38.5575 L -3.3845456338196245 37.352578125 L -3.069696019146654 36.14765625 L -2.6999075822065866 34.942734375 L -2.2817984835882132 33.737812500000004 L -1.8228516862018587 32.532890625 L -1.3312810315400971 31.327968749999997 L -0.8158842352919584 30.123046875 L -0.2858854332707198 28.918124999999996 L 0.24922990436487516 27.713203124999996 L 0.7798847360304476 26.50828125 L 1.2965818505037172 25.303359375 L 1.7900738399759213 24.098437499999996 L 2.2515286023331247 22.893515624999996 L 2.6726874106475402 21.688593749999995 L 3.0460127208848764 20.483671875 L 3.3648230724904042 19.27875 L 3.6234126675171865 18.073828125 L 3.8171534881704052 16.868906250000002 L 3.9425781251543635 15.663984374999998 L 3.9974418344304996 14.459062499999998 L 3.980762711747046 13.254140625 L 3.8928392659305975 12.049218749999998 L 3.735245076427682 10.844296874999998 L 3.51080063071114 9.639375 L 3.223522845581574 8.434453125000001 L 2.878553175788927 7.229531249999999 L 2.482065596625236 6.024609374999999 L 2.041156107338283 4.8196875 L 1.5637157329405533 3.6147656249999995 L 1.0582892973196787 2.40984375 L 0.533922495209754 1.204921875 L 0 0 L 0.8731250000000002 0 L 1.7462500000000003 0 L 2.6193750000000007 0 L 3.4925000000000006 0 L 4.365625000000001 0 L 5.238750000000001 0 L 6.111875000000001 0 L 6.985000000000001 0 L 7.858125000000002 0 L 8.731250000000003 0 L 9.604375000000003 0 L 10.477500000000003 0 L 11.350625000000003 0 L 12.223750000000003 0 L 13.096875000000002 0 L 13.970000000000002 0 L 14.366846078341213 0.8943749999999999 L 14.759776370725591 1.7887499999999998 L 15.14491372929933 2.6831249999999995 L 15.518457901162215 3.5774999999999997 L 15.876723026475208 4.471875 L 16.21617400782123 5.366249999999999 L 16.533461391952955 6.260625 L 16.82545441974015 7.154999999999999 L 17.08927191820391 8.049374999999998 L 17.32231072981785 8.94375 L 17.52227139855678 9.838125 L 17.68718085924177 10.732499999999998 L 17.815411906299836 11.626875 L 17.905699249834697 12.52125 L 17.957152000579235 13.415624999999999 L 17.969262460537166 14.309999999999999 L 17.94191113257441 15.204374999999999 L 17.87536789952913 16.098749999999995 L 17.770289361205894 16.993125 L 17.627712355530498 17.8875 L 17.44904372779401 18.781875 L 17.236046448935543 19.67625 L 16.99082221983843 20.570625 L 16.715790733287818 21.464999999999996 L 16.413665798217433 22.359375 L 16.087428561834038 23.25375 L 15.740298093843865 24.148125 L 15.375699623034418 25.0425 L 14.997230739629718 25.936874999999997 L 14.608625896909297 26.831249999999997 L 14.213719562363028 27.725625 L 13.816408381979063 28.619999999999997 L 14.320470881979062 28.619999999999997 L 14.824533381979062 28.619999999999997 L 15.328595881979062 28.619999999999997 L 15.832658381979064 28.619999999999997 L 16.336720881979065 28.619999999999997 L 16.840783381979065 28.619999999999997 L 17.344845881979065 28.619999999999997 L 17.848908381979065 28.619999999999997 L 18.352970881979065 28.619999999999997 L 18.857033381979065 28.619999999999997 L 19.361095881979065 28.619999999999997 L 19.865158381979064 28.619999999999997 L 20.369220881979064 28.619999999999997 L 20.873283381979064 28.619999999999997 L 21.377345881979064 28.619999999999997 L 21.881408381979064 28.619999999999997 L 22.385470881979064 28.619999999999997 L 22.889533381979064 28.619999999999997 L 23.393595881979063 28.619999999999997 L 23.897658381979063 28.619999999999997 L 24.401720881979063 28.619999999999997 L 24.905783381979063 28.619999999999997 L 25.409845881979063 28.619999999999997 L 25.913908381979063 28.619999999999997 L 26.417970881979063 28.619999999999997 L 26.922033381979062 28.619999999999997 L 27.426095881979062 28.619999999999997 L 27.930158381979062 28.619999999999997 L 28.434220881979062 28.619999999999997 L 28.938283381979062 28.619999999999997 L 29.44234588197906 28.619999999999997 L 29.94640838197906 28.619999999999997 L 30.343719562363027 27.725625 L 30.738625896909298 26.831249999999997 L 31.127230739629717 25.936874999999997 L 31.505699623034417 25.0425 L 31.870298093843864 24.148125 L 32.21742856183404 23.25375 L 32.54366579821743 22.359375 L 32.845790733287814 21.464999999999996 L 33.12082221983843 20.570625 L 33.36604644893554 19.67625 L 33.57904372779401 18.781875 L 33.7577123555305 17.8875 L 33.90028936120589 16.993125 L 34.00536789952913 16.098749999999995 L 34.07191113257441 15.204374999999999 L 34.09926246053716 14.309999999999999 L 34.08715200057923 13.415624999999999 L 34.03569924983469 12.52125 L 33.94541190629983 11.626875 L 33.81718085924177 10.732499999999998 L 33.65227139855678 9.838125 L 33.452310729817846 8.94375 L 33.21927191820391 8.049374999999998 L 32.95545441974015 7.154999999999999 L 32.66346139195295 6.260625 L 32.346174007821226 5.366249999999999 L 32.00672302647521 4.471875 L 31.648457901162214 3.5774999999999997 L 31.27491372929933 2.6831249999999995 L 30.889776370725592 1.7887499999999998 L 30.49684607834121 0.8943749999999999 L 30.1 0 L 30.973125000000003 0 L 31.84625 0 L 32.719375 0 L 33.5925 0 L 34.465625 0 L 35.338750000000005 0 L 36.211875000000006 0 L 37.085 0 L 37.958124999999995 0 L 38.83125 0 L 39.704375 0 L 40.5775 0 L 41.450625 0 L 42.323750000000004 0 L 43.196875000000006 0 L 44.07 0 L 44.07 0 Z" fill="black" stroke="black" />
				</svg>