<svg
					xmlns="http://www.w3.org/2000/svg" xmlns:xlink="http://www.w3.org/1999/xlink"
					style="
						overflow: visible;
						height: 100;
					"
					viewBox="-3.998586910858507 0 38.52845563651155 77.115"
				>
					<path d="M 32.094356571862825 60.16499999999998 L 32.515864617145304 61.224374999999974 L 32.909889762113345 62.28374999999998 L 33.27097898963422 63.343124999999986 L 33.59413509135905 64.40249999999997 L 33.87488582539729 65.46187499999998 L 34.10934580884312 66.52124999999998 L 34.29427028860654 67.580625 L 34.42710004640089 68.63999999999999 L 34.50599681643466 69.69937499999997 L 34.529868725653046 70.75874999999999 L 34.498385404454964 71.818125 L 34.411982558764464 72.8775 L 34.27185594018239 73.93687499999999 L 34.07994479766692 74.99624999999999 L 33.83890503975957 76.05562499999999 L 33.55207247877162 77.115 L 32.59800997877162 77.115 L 31.643947478771622 77.115 L 30.689884978771623 77.115 L 29.73582247877162 77.115 L 28.781759978771618 77.115 L 27.82769747877162 77.115 L 26.87363497877162 77.115 L 25.91957247877162 77.115 L 24.96550997877162 77.115 L 24.011447478771622 77.115 L 23.057384978771623 77.115 L 22.10332247877162 77.115 L 21.149259978771617 77.115 L 20.195197478771618 77.115 L 19.24113497877162 77.115 L 18.28707247877162 77.115 L 17.33300997877162 77.115 L 16.378947478771618 77.115 L 15.424884978771619 77.115 L 14.47082247877162 77.115 L 13.51675997877162 77.115 L 12.562697478771618 77.115 L 11.608634978771619 77.115 L 10.65457247877162 77.115 L 9.700509978771619 77.115 L 8.746447478771618 77.115 L 7.792384978771619 77.115 L 6.838322478771619 77.115 L 5.8842599787716185 77.115 L 4.9301974787716185 77.115 L 3.9761349787716185 77.115 L 3.0220724787716184 77.115 L 3.3448166743295573 75.910078125 L 3.60769817089683 74.70515625 L 3.8060121378559684 73.500234375 L 3.936209319607756 72.2953125 L 3.995959557145134 71.090390625 L 3.9841934912677104 69.88546875 L 3.901121701068005 68.680546875 L 3.74823093516501 67.47562500000001 L 3.5282575031352557 66.27070312500001 L 3.2451383033590298 65.06578125 L 2.903940363743948 63.86085937499999 L 2.5107701563463647 62.65593749999999 L 2.072664308900818 61.451015625 L 1.5974636692101096 60.24609375 L 1.0936729762849824 59.041171875 L 0.570308649720665 57.83624999999999 L 0.03673742144720003 56.63132812499999 L -0.49749130211401965 55.42640624999999 L -1.0228163472472116 54.221484374999996 L -1.5298358907402427 53.0165625 L -2.009475725762151 51.811640625 L -2.453151664339886 50.60671875 L -2.8529231698920774 49.40179687499999 L -3.201635470234768 48.19687499999999 L -3.493047607640757 46.991953124999995 L -3.7219441342208803 45.78703124999999 L -3.8842284535978746 44.58210937499999 L -3.9769961383224457 43.37718749999999 L -3.998586910858507 42.172265624999994 L -3.9486143578258495 40.96734375 L -3.827972845699905 39.762421874999994 L -3.638821514197242 38.5575 L -3.3845456338196245 37.352578125 L -3.069696019146654 36.14765625 L -2.6999075822065866 34.942734375 L -2.2817984835882132 33.737812500000004 L -1.8228516862018587 32.532890625 L -1.3312810315400971 31.327968749999997 L -0.8158842352919584 30.123046875 L -0.2858854332707198 28.918124999999996 L 0.24922990436487516 27.713203124999996 L 0.7798847360304476 26.50828125 L 1.2965818505037172 25.303359375 L 1.7900738399759213 24.098437499999996 L 2.2515286023331247 22.893515624999996 L 2.6726874106475402 21.688593749999995 L 3.0460127208848764 20.483671875 L 3.3648230724904042 19.27875 L 3.6234126675171865 18.073828125 L 3.8171534881704052 16.868906250000002 L 3.9425781251543635 15.663984374999998 L 3.9974418344304996 14.459062499999998 L 3.980762711747046 13.254140625 L 3.8928392659305975 12.049218749999998 L 3.735245076427682 10.844296874999998 L 3.51080063071114 9.639375 L 3.223522845581574 8.434453125000001 L 2.878553175788927 7.229531249999999 L 2.482065596625236 6.024609374999999 L 2.041156107338283 4.8196875 L 1.5637157329405533 3.6147656249999995 L 1.0582892973196787 2.40984375 L 0.533922495209754 1.204921875 L 0 0 L 0.9540625 0 L 1.908125 0 L 2.8621875 0 L 3.81625 0 L 4.7703125 0 L 5.724375 0 L 6.6784375 0 L 7.6325 0 L 8.5865625 0 L 9.540625 0 L 10.494687500000001 0 L 11.44875 0 L 12.4028125 0 L 13.356875 0 L 14.310937500000001 0 L 15.265 0 L 16.2190625 0 L 17.173125 0 L 18.127187499999998 0 L 19.08125 0 L 20.035312500000003 0 L 20.989375000000003 0 L 21.9434375 0 L 22.8975 0 L 23.8515625 0 L 24.805625 0 L 25.7596875 0 L 26.71375 0 L 27.667812500000004 0 L 28.621875000000003 0 L 29.575937500000002 0 L 30.53 0 L 30.99395336761939 1.0462499999999997 L 31.451643898230895 2.0924999999999994 L 31.896893295925203 3.138749999999999 L 32.32369120578254 4.184999999999999 L 32.726276346753345 5.231249999999998 L 33.09921428232813 6.277499999999998 L 33.43747077918178 7.323749999999998 L 33.73647976353511 8.369999999999997 L 33.99220495790078 9.416249999999998 L 34.20119436618845 10.462499999999997 L 34.360626871682896 11.508749999999996 L 34.4683503188759 12.554999999999996 L 34.52291056509111 13.601249999999997 L 34.52357110973815 14.647499999999996 L 34.47032303622378 15.693749999999994 L 34.36388513231566 16.739999999999995 L 33.844197632315655 16.739999999999995 L 33.32451013231566 16.739999999999995 L 32.80482263231566 16.739999999999995 L 32.28513513231566 16.739999999999995 L 31.76544763231566 16.739999999999995 L 31.24576013231566 16.739999999999995 L 30.72607263231566 16.739999999999995 L 30.20638513231566 16.739999999999995 L 29.68669763231566 16.739999999999995 L 29.16701013231566 16.739999999999995 L 28.64732263231566 16.739999999999995 L 28.12763513231566 16.739999999999995 L 27.60794763231566 16.739999999999995 L 27.08826013231566 16.739999999999995 L 26.56857263231566 16.739999999999995 L 26.04888513231566 16.739999999999995 L 25.52919763231566 16.739999999999995 L 25.00951013231566 16.739999999999995 L 24.48982263231566 16.739999999999995 L 23.97013513231566 16.739999999999995 L 23.45044763231566 16.739999999999995 L 22.930760132315662 16.739999999999995 L 22.411072632315662 16.739999999999995 L 21.891385132315662 16.739999999999995 L 21.371697632315662 16.739999999999995 L 20.852010132315662 16.739999999999995 L 20.332322632315663 16.739999999999995 L 19.812635132315663 16.739999999999995 L 19.29294763231566 16.739999999999995 L 18.77326013231566 16.739999999999995 L 18.25357263231566 16.739999999999995 L 17.73388513231566 16.739999999999995 L 17.624565104377666 17.496562499999996 L 17.488940917924907 18.253124999999994 L 17.32797039756212 19.00968749999999 L 17.142790372413007 19.766249999999992 L 16.934708647442395 20.522812499999993 L 16.705194767288184 21.27937499999999 L 16.45586963783219 22.03593749999999 L 16.18849407880589 22.79249999999999 L 15.904956388276434 23.54906249999999 L 15.60725900683691 24.30562499999999 L 15.297504375682834 25.062187499999986 L 14.97788008845003 25.818749999999987 L 14.650643441676735 26.57531249999999 L 14.318105492999834 27.331874999999986 L 13.982614739671774 28.088437499999984 L 13.646540532666013 28.844999999999985 L 14.609665532666014 28.844999999999985 L 15.572790532666014 28.844999999999985 L 16.535915532666014 28.844999999999985 L 17.499040532666015 28.844999999999985 L 18.462165532666013 28.844999999999985 L 19.425290532666015 28.844999999999985 L 20.388415532666016 28.844999999999985 L 21.351540532666014 28.844999999999985 L 22.314665532666012 28.844999999999985 L 23.277790532666014 28.844999999999985 L 24.240915532666016 28.844999999999985 L 25.204040532666014 28.844999999999985 L 26.16716553266601 28.844999999999985 L 27.130290532666013 28.844999999999985 L 28.093415532666015 28.844999999999985 L 29.056540532666013 28.844999999999985 L 28.5952302186031 29.89124999999998 L 28.143568474744598 30.937499999999986 L 27.707652215310574 31.983749999999986 L 27.293365808585563 33.02999999999999 L 26.906301644712595 34.07624999999998 L 26.551684644856415 35.12249999999998 L 26.234301730775396 36.16874999999999 L 25.958437206881797 37.21499999999998 L 25.727814927058326 38.261249999999976 L 25.54554802691241 39.30749999999998 L 25.41409690002499 40.353749999999984 L 25.335235985466145 41.39999999999998 L 25.310029814907903 42.44624999999998 L 25.33881864267067 43.49249999999998 L 25.421213852681127 44.53874999999998 L 25.556103204342396 45.58499999999998 L 24.592978204342398 45.58499999999998 L 23.629853204342396 45.58499999999998 L 22.666728204342395 45.58499999999998 L 21.703603204342397 45.58499999999998 L 20.7404782043424 45.58499999999998 L 19.777353204342397 45.58499999999998 L 18.814228204342395 45.58499999999998 L 17.851103204342397 45.58499999999998 L 16.8879782043424 45.58499999999998 L 15.924853204342398 45.58499999999998 L 14.961728204342396 45.58499999999998 L 13.998603204342398 45.58499999999998 L 13.035478204342397 45.58499999999998 L 12.072353204342397 45.58499999999998 L 11.109228204342397 45.58499999999998 L 10.146103204342396 45.58499999999998 L 10.304956062482969 46.49624999999998 L 10.500632264040755 47.40749999999998 L 10.731127535328488 48.31874999999998 L 10.994080957626345 49.229999999999976 L 11.28679914961818 50.14124999999997 L 11.606283855178205 51.052499999999974 L 11.949262653931626 51.963749999999976 L 12.312222480027003 52.87499999999998 L 12.691445605793895 53.78624999999998 L 13.083047721712148 54.697499999999984 L 13.48301772264703 55.608749999999986 L 13.88725879282744 56.51999999999998 L 14.291630368741691 57.43124999999997 L 14.69199055013298 58.34249999999997 L 15.084238524686851 59.253749999999975 L 15.464356571862824 60.16499999999998 L 15.984044071862824 60.16499999999998 L 16.503731571862822 60.16499999999998 L 17.023419071862826 60.16499999999998 L 17.543106571862825 60.16499999999998 L 18.062794071862825 60.16499999999998 L 18.58248157186283 60.16499999999998 L 19.102169071862825 60.16499999999998 L 19.62185657186283 60.16499999999998 L 20.141544071862825 60.16499999999998 L 20.661231571862828 60.16499999999998 L 21.180919071862824 60.16499999999998 L 21.700606571862828 60.16499999999998 L 22.220294071862824 60.16499999999998 L 22.739981571862828 60.16499999999998 L 23.259669071862824 60.16499999999998 L 23.779356571862827 60.16499999999998 L 24.299044071862824 60.16499999999998 L 24.818731571862827 60.16499999999998 L 25.338419071862823 60.16499999999998 L 25.858106571862827 60.16499999999998 L 26.377794071862823 60.16499999999998 L 26.897481571862826 60.16499999999998 L 27.417169071862823 60.16499999999998 L 27.936856571862826 60.16499999999998 L 28.456544071862822 60.16499999999998 L 28.976231571862826 60.16499999999998 L 29.495919071862822 60.16499999999998 L 30.015606571862826 60.16499999999998 L 30.535294071862822 60.16499999999998 L 31.054981571862825 60.16499999999998 L 31.57466907186282 60.16499999999998 L 32.094356571862825 60.16499999999998 L 32.094356571862825 60.16499999999998 Z" fill="black" stroke="black" />
				</svg>