<svg
					xmlns="http://www.w3.org/2000/svg" xmlns:xlink="http://www.w3.org/1999/xlink"
					style="
						overflow: visible;
						height: 100;
					"
					viewBox="2.9285224877036318 0 52.35760026337454 77.43"
				>
					<path d="M 55.198522487703634 77.43 L 54.24914748770364 77.43 L 53.299772487703635 77.43 L 52.35039748770363 77.43 L 51.40102248770363 77.43 L 50.451647487703625 77.43 L 49.50227248770363 77.43 L 48.55289748770363 77.43 L 47.60352248770363 77.43 L 46.654147487703625 77.43 L 45.70477248770363 77.43 L 44.75539748770363 77.43 L 43.80602248770363 77.43 L 42.856647487703626 77.43 L 41.90727248770363 77.43 L 40.95789748770363 77.43 L 40.00852248770363 77.43 L 40.109663193210196 76.52531250000001 L 40.17862651427159 75.62062500000002 L 40.21312609248608 74.7159375 L 40.21122351307318 73.81125 L 40.17134787497844 72.9065625 L 40.09231165058444 72.001875 L 39.973322674909475 71.0971875 L 39.81399214325168 70.1925 L 39.61433853653511 69.2878125 L 39.374787434727544 68.383125 L 39.09616722021386 67.4784375 L 38.77970071450342 66.57375 L 38.426992832706645 65.6690625 L 38.04001438042039 64.764375 L 37.621082156607706 63.85968749999999 L 37.1728355633519 62.955 L 36.6509605633519 62.955 L 36.1290855633519 62.955 L 35.607210563351906 62.955 L 35.085335563351904 62.955 L 34.5634605633519 62.955 L 34.0415855633519 62.955 L 33.5197105633519 62.955 L 32.9978355633519 62.955 L 32.475960563351904 62.955 L 31.954085563351903 62.955 L 31.4322105633519 62.955 L 30.9103355633519 62.955 L 30.3884605633519 62.955 L 29.8665855633519 62.955 L 29.344710563351903 62.955 L 28.8228355633519 62.955 L 28.3009605633519 62.955 L 27.779085563351902 62.955 L 27.257210563351904 62.955 L 26.735335563351903 62.955 L 26.2134605633519 62.955 L 25.6915855633519 62.955 L 25.1697105633519 62.955 L 24.6478355633519 62.955 L 24.125960563351903 62.955 L 23.6040855633519 62.955 L 23.0822105633519 62.955 L 22.5603355633519 62.955 L 22.038460563351897 62.955 L 21.5165855633519 62.955 L 20.9947105633519 62.955 L 20.4728355633519 62.955 L 20.601082156607703 63.85968749999999 L 20.700014380420388 64.764375 L 20.76699283270665 65.6690625 L 20.799700714503427 66.57375 L 20.796167220213864 67.4784375 L 20.754787434727547 68.383125 L 20.674338536535114 69.2878125 L 20.553992143251683 70.1925 L 20.393322674909474 71.0971875 L 20.192311650584436 72.001875 L 19.951347874978428 72.9065625 L 19.671223513073173 73.81125 L 19.35312609248608 74.7159375 L 18.998626514271592 75.62062500000002 L 18.609663193210196 76.52531250000001 L 18.188522487703633 77.43 L 17.23477248770363 77.43 L 16.28102248770363 77.43 L 15.327272487703631 77.43 L 14.373522487703632 77.43 L 13.419772487703632 77.43 L 12.466022487703631 77.43 L 11.512272487703632 77.43 L 10.558522487703632 77.43 L 9.604772487703631 77.43 L 8.651022487703631 77.43 L 7.697272487703632 77.43 L 6.743522487703632 77.43 L 5.789772487703631 77.43 L 4.836022487703632 77.43 L 3.8822724877036316 77.43 L 2.9285224877036318 77.43 L 3.5294552520261817 76.22015625 L 4.071435251078171 75.01031250000001 L 4.549414064352627 73.80046875000002 L 4.959498073204124 72.590625 L 5.2990187151417985 71.38078125 L 5.5665806338893065 70.17093750000001 L 5.762086856418745 68.96109375 L 5.8867405426781225 67.75125 L 5.9430232764412825 66.54140625000001 L 5.934650288988095 65.33156250000002 L 5.866503423534018 64.12171875000001 L 5.744543049961608 62.91187500000001 L 5.575700519215656 61.70203125 L 5.367753097855168 60.4921875 L 5.1291836393736325 59.28234375 L 4.8690275243004475 58.072500000000005 L 4.5967096308112305 56.86265625000001 L 4.3218742774589005 55.65281250000001 L 4.054211206444412 54.44296875000001 L 3.8032807472883823 53.233125 L 3.5783413155533297 52.02328125 L 3.38818235913367 50.8134375 L 3.2409657663379905 49.60359375 L 3.1440785973080296 48.393750000000004 L 3.1039997960069194 47.18390625000001 L 3.1261832877515445 45.9740625 L 3.214959571612236 44.76421875 L 3.373457583291923 43.55437500000001 L 3.60354823834755 42.34453125 L 3.905810674428538 41.134687500000005 L 4.27952180163858 39.92484375 L 4.722669349568263 38.715 L 5.231988175585079 37.505156250000006 L 5.803019179254231 36.2953125 L 6.430189759871089 35.085468750000004 L 7.1069143653743065 33.875625 L 7.825713318390786 32.66578125000001 L 8.578347775381356 31.455937500000005 L 9.355968383759226 30.24609375 L 10.149274954694741 29.036250000000003 L 10.948684270558994 27.826406250000005 L 11.744502999181941 26.6165625 L 12.527102594956155 25.40671875 L 13.287093030967824 24.196875000000002 L 14.015492227428885 22.98703125 L 14.703888119337671 21.777187500000004 L 15.344590439109306 20.567343750000003 L 15.930769475494198 19.3575 L 16.456579305095865 18.14765625 L 16.917263272966927 16.9378125 L 17.30923981905 15.727968750000002 L 17.63016710185882 14.518125000000001 L 17.87898525336579 13.30828125 L 18.055935502672206 12.098437500000001 L 18.162555823404304 10.888593750000002 L 18.201653183371043 9.67875 L 18.177252897195437 8.46890625 L 18.09452599577245 7.259062500000001 L 17.95969592305855 6.0492187500000005 L 17.779926243704352 4.839375 L 17.563191387671388 3.6295312500000003 L 17.318132764045433 2.4196875 L 17.053902840248846 1.20984375 L 16.78 0 L 17.358125 0 L 17.93625 0 L 18.514375 0 L 19.0925 0 L 19.670625 0 L 20.24875 0 L 20.826875 0 L 21.405 0 L 21.983125 0 L 22.56125 0 L 23.139375 0 L 23.7175 0 L 24.295625 0 L 24.87375 0 L 25.451875 0 L 26.03 0 L 26.608125 0 L 27.18625 0 L 27.764375 0 L 28.3425 0 L 28.920625 0 L 29.49875 0 L 30.076875 0 L 30.655 0 L 31.233125 0 L 31.81125 0 L 32.389375 0 L 32.9675 0 L 33.545625 0 L 34.12375 0 L 34.701875 0 L 35.28 0 L 36.081559090248845 1.20984375 L 36.873445264045436 2.4196875 L 37.64616013767139 3.6295312500000003 L 38.39055124370435 4.839375 L 39.09797717305855 6.0492187500000005 L 39.760463495772456 7.259062500000001 L 40.37084664719544 8.46890625 L 40.92290318337104 9.67875 L 41.4114620734043 10.888593750000002 L 41.83249800267221 12.098437500000001 L 42.183204003365795 13.30828125 L 42.46204210185882 14.518125000000001 L 42.668771069049996 15.727968750000002 L 42.80445077296693 16.9378125 L 42.871423055095875 18.14765625 L 42.8732694754942 19.3575 L 42.814746689109306 20.567343750000003 L 42.70170061933767 21.777187500000004 L 42.54096097742889 22.98703125 L 42.340218030967826 24.196875000000002 L 42.107883844956156 25.40671875 L 41.85294049918195 26.6165625 L 41.584778020559 27.826406250000005 L 41.31302495469475 29.036250000000003 L 41.047374633759226 30.24609375 L 40.79741027538136 31.455937500000005 L 40.57243206839079 32.66578125000001 L 40.381289365374315 33.875625 L 40.23222100987109 35.085468750000004 L 40.132706679254234 36.2953125 L 40.089331925585086 37.505156250000006 L 40.10766934956827 38.715 L 40.192178051638585 39.92484375 L 40.34612317442854 41.134687500000005 L 40.57151698834756 42.34453125 L 40.86908258329193 43.55437500000001 L 41.23824082161224 44.76421875 L 41.67712078775155 45.9740625 L 42.18259354600693 47.18390625000001 L 42.750328597308034 48.393750000000004 L 43.374872016337996 49.60359375 L 44.049744859133675 50.8134375 L 44.76756006555334 52.02328125 L 45.52015574728839 53.233125 L 46.298742456444415 54.44296875000001 L 47.09406177745891 55.65281250000001 L 47.89655338081124 56.86265625000001 L 48.69652752430046 58.072500000000005 L 49.484339889373636 59.28234375 L 50.25056559785518 60.4921875 L 50.986169269215665 61.70203125 L 51.68266804996162 62.91187500000001 L 52.332284673534026 64.12171875000001 L 52.9280877889881 65.33156250000002 L 53.46411702644129 66.54140625000001 L 53.93549054267813 67.75125 L 54.33849310641875 68.96109375 L 54.670643133889314 70.17093750000001 L 54.93073746514181 71.38078125 L 55.118873073204135 72.590625 L 55.236445314352636 73.80046875000002 L 55.286122751078175 75.01031250000001 L 55.27179900202618 76.22015625 L 55.198522487703634 77.43 L 55.198522487703634 77.43 Z M 27.976741270689068 45.89999999999999 L 27.719040954962015 45.10968749999999 L 27.49079007705628 44.319374999999994 L 27.292673521723664 43.529062499999995 L 27.12514395617257 42.738749999999996 L 26.98841834177759 41.9484375 L 26.882476262157528 41.158125 L 26.807060080505686 40.3678125 L 26.761676924960064 39.5775 L 26.745602486714063 38.787187499999995 L 26.757886601599132 37.996874999999996 L 26.79736057212721 37.206562500000004 L 26.862646173568734 36.41625 L 26.952166274664624 35.6259375 L 27.064156991128186 34.83562500000001 L 27.19668127828105 34.0453125 L 27.347643858077173 33.255 Q 27.455214701432375 32.74125000000001 27.595492504432006 32.11687500000001 Q 27.743739098370096 31.492500000000007 27.927819687579127 30.757500000000007 Q 28.02271514538677 30.390000000000008 28.12669669307069 29.99484375000001 Q 28.23214314460029 29.599687500000012 28.346417605928124 29.17687500000001 Q 28.46157573104268 28.754062500000003 28.584964387267746 28.303593750000005 Q 28.708385615365174 27.853125000000002 28.839039092214726 27.375 Q 28.969390218473887 26.895 29.099737921274787 26.411015624999997 Q 29.227708397902845 25.92703125 29.35438056404295 25.439062500000002 Q 29.477410249225883 24.95109375 29.597811338681716 24.459140624999996 Q 29.713297667383934 23.9671875 29.824806343873515 23.47125 Q 29.93013795688037 22.9753125 30.030142124476182 22.475390625000003 Q 30.122734953048507 21.975468750000005 30.208669064217677 21.471562500000005 Q 30.286004476493865 20.967656250000008 30.35538867943738 20.45976562500001 Q 30.415053222126208 19.95187500000001 30.46553384311473 19.440000000000012 Q 30.50693291718812 18.92625000000001 30.536653959735006 18.436171875000007 Q 30.555844590222208 17.946093750000006 30.564793495492307 17.479687500000008 Q 30.56373456665643 17.013281250000006 30.55405763157015 16.570546875000005 Q 30.535054543989908 16.127812500000005 30.509170279404227 15.708750000000006 Q 30.47474717496551 15.289687500000007 30.435229129885354 14.894296875000006 Q 30.388019439206477 14.498906250000008 30.337497541006528 14.127187500000009 Q 30.215992452568948 13.38375000000001 30.091553122042264 12.735000000000014 L 30.091553122042264 12.735000000000014 Q 30.05349245256895 13.38375000000001 29.9749857280348 14.113125000000007 Q 29.925885171743293 14.477812500000006 29.864511116284405 14.862656250000004 Q 29.795848108185215 15.247500000000004 29.71343667104941 15.652500000000003 Q 29.623041122110024 16.057500000000005 29.517431995993896 16.48265625 Q 29.403199575570127 16.907812500000002 29.272338091542004 17.353125000000002 Q 29.132304291138727 17.798437500000002 28.974322569157177 18.26390625 Q 28.806748848151333 18.729375000000005 28.620058794187333 19.215000000000003 Q 28.42228008062965 19.700625000000002 28.21562302531184 20.184609375000008 Q 27.999915271456643 20.668593750000007 27.776225598608622 21.150937500000005 Q 27.54436449168105 21.633281250000003 27.30549732267969 22.113984375000005 Q 27.05941691849325 22.594687500000006 26.80737249282414 23.073750000000004 Q 26.549139032897042 23.552812500000005 26.286036132260588 24.030234375000006 Q 26.017821079883937 24.507656250000004 25.74586984945029 24.9834375 Q 25.469922495762045 25.459218750000005 25.191397008915736 25.933359375000006 Q 24.91001699072909 26.407500000000006 24.627227892379956 26.880000000000003 Q 24.342737950368825 27.3525 24.06815197874511 27.806484375000004 Q 23.79303727858829 28.260468750000005 23.528939138965196 28.695937500000003 Q 23.265279436344876 29.13140625 23.01346815849462 29.548359375 Q 22.762867913550423 29.9653125 22.524689891648105 30.36375 Q 22.288315297103875 30.7621875 22.064704721230502 31.142109375 Q 21.843326830661262 31.52203125 21.634850767314227 31.883437500000003 Q 21.225687346706398 32.60625 20.867643858077173 33.255 L 20.867643858077173 33.255 L 20.437931278281052 34.0453125 L 20.026656991128185 34.83562500000001 L 19.63591627466462 35.6259375 L 19.267646173568732 36.41625 L 18.92361057212721 37.206562500000004 L 18.605386601599132 37.996874999999996 L 18.314352486714064 38.787187499999995 L 18.051676924960063 39.5775 L 17.818310080505682 40.3678125 L 17.614976262157526 41.158125 L 17.442168341777588 41.9484375 L 17.30014395617257 42.738749999999996 L 17.188923521723666 43.529062499999995 L 17.108290077056278 44.319374999999994 L 17.057790954962012 45.10968749999999 L 17.036741270689067 45.89999999999999 L 17.720491270689067 45.89999999999999 L 18.40424127068907 45.89999999999999 L 19.08799127068907 45.89999999999999 L 19.77174127068907 45.89999999999999 L 20.45549127068907 45.89999999999999 L 21.13924127068907 45.89999999999999 L 21.82299127068907 45.89999999999999 L 22.50674127068907 45.89999999999999 L 23.19049127068907 45.89999999999999 L 23.87424127068907 45.89999999999999 L 24.55799127068907 45.89999999999999 L 25.24174127068907 45.89999999999999 L 25.92549127068907 45.89999999999999 L 26.60924127068907 45.89999999999999 L 27.29299127068907 45.89999999999999 L 27.976741270689068 45.89999999999999 L 27.976741270689068 45.89999999999999 Z" fill="black" stroke="black" />
				</svg>