<svg
					xmlns="http://www.w3.org/2000/svg" xmlns:xlink="http://www.w3.org/1999/xlink"
					style="
						overflow: visible;
						height: 100;
					"
					viewBox="-3.998586910858507 0 41.698275578843464 77.115"
				>
					<path d="M 36.72207247877162 77.115 L 36.195509978771625 77.115 L 35.66894747877162 77.115 L 35.142384978771624 77.115 L 34.61582247877162 77.115 L 34.08925997877162 77.115 L 33.562697478771625 77.115 L 33.03613497877162 77.115 L 32.509572478771624 77.115 L 31.983009978771623 77.115 L 31.456447478771622 77.115 L 30.92988497877162 77.115 L 30.40332247877162 77.115 L 29.87675997877162 77.115 L 29.35019747877162 77.115 L 28.823634978771622 77.115 L 28.29707247877162 77.115 L 27.77050997877162 77.115 L 27.243947478771624 77.115 L 26.717384978771623 77.115 L 26.190822478771622 77.115 L 25.66425997877162 77.115 L 25.13769747877162 77.115 L 24.61113497877162 77.115 L 24.08457247877162 77.115 L 23.55800997877162 77.115 L 23.031447478771618 77.115 L 22.50488497877162 77.115 L 21.97832247877162 77.115 L 21.45175997877162 77.115 L 20.925197478771622 77.115 L 20.39863497877162 77.115 L 19.87207247877162 77.115 L 19.34550997877162 77.115 L 18.81894747877162 77.115 L 18.292384978771622 77.115 L 17.76582247877162 77.115 L 17.23925997877162 77.115 L 16.71269747877162 77.115 L 16.18613497877162 77.115 L 15.659572478771619 77.115 L 15.133009978771621 77.115 L 14.60644747877162 77.115 L 14.07988497877162 77.115 L 13.55332247877162 77.115 L 13.026759978771619 77.115 L 12.500197478771618 77.115 L 11.97363497877162 77.115 L 11.44707247877162 77.115 L 10.92050997877162 77.115 L 10.393947478771619 77.115 L 9.867384978771618 77.115 L 9.340822478771619 77.115 L 8.81425997877162 77.115 L 8.28769747877162 77.115 L 7.761134978771619 77.115 L 7.234572478771619 77.115 L 6.708009978771619 77.115 L 6.181447478771618 77.115 L 5.654884978771618 77.115 L 5.128322478771619 77.115 L 4.601759978771619 77.115 L 4.075197478771619 77.115 L 3.5486349787716183 77.115 L 3.0220724787716184 77.115 L 3.3448166743295573 75.910078125 L 3.60769817089683 74.70515625 L 3.8060121378559684 73.500234375 L 3.936209319607756 72.2953125 L 3.995959557145134 71.090390625 L 3.9841934912677104 69.88546875 L 3.901121701068005 68.680546875 L 3.74823093516501 67.47562500000001 L 3.5282575031352557 66.27070312500001 L 3.2451383033590298 65.06578125 L 2.903940363743948 63.86085937499999 L 2.5107701563463647 62.65593749999999 L 2.072664308900818 61.451015625 L 1.5974636692101096 60.24609375 L 1.0936729762849824 59.041171875 L 0.570308649720665 57.83624999999999 L 0.03673742144720003 56.63132812499999 L -0.49749130211401965 55.42640624999999 L -1.0228163472472116 54.221484374999996 L -1.5298358907402427 53.0165625 L -2.009475725762151 51.811640625 L -2.453151664339886 50.60671875 L -2.8529231698920774 49.40179687499999 L -3.201635470234768 48.19687499999999 L -3.493047607640757 46.991953124999995 L -3.7219441342208803 45.78703124999999 L -3.8842284535978746 44.58210937499999 L -3.9769961383224457 43.37718749999999 L -3.998586910858507 42.172265624999994 L -3.9486143578258495 40.96734375 L -3.827972845699905 39.762421874999994 L -3.638821514197242 38.5575 L -3.3845456338196245 37.352578125 L -3.069696019146654 36.14765625 L -2.6999075822065866 34.942734375 L -2.2817984835882132 33.737812500000004 L -1.8228516862018587 32.532890625 L -1.3312810315400971 31.327968749999997 L -0.8158842352919584 30.123046875 L -0.2858854332707198 28.918124999999996 L 0.24922990436487516 27.713203124999996 L 0.7798847360304476 26.50828125 L 1.2965818505037172 25.303359375 L 1.7900738399759213 24.098437499999996 L 2.2515286023331247 22.893515624999996 L 2.6726874106475402 21.688593749999995 L 3.0460127208848764 20.483671875 L 3.3648230724904042 19.27875 L 3.6234126675171865 18.073828125 L 3.8171534881704052 16.868906250000002 L 3.9425781251543635 15.663984374999998 L 3.9974418344304996 14.459062499999998 L 3.980762711747046 13.254140625 L 3.8928392659305975 12.049218749999998 L 3.735245076427682 10.844296874999998 L 3.51080063071114 9.639375 L 3.223522845581574 8.434453125000001 L 2.878553175788927 7.229531249999999 L 2.482065596625236 6.024609374999999 L 2.041156107338283 4.8196875 L 1.5637157329405533 3.6147656249999995 L 1.0582892973196787 2.40984375 L 0.533922495209754 1.204921875 L 0 0 L 0.8687500000000001 0 L 1.7375000000000003 0 L 2.60625 0 L 3.4750000000000005 0 L 4.34375 0 L 5.2125 0 L 6.081250000000001 0 L 6.950000000000001 0 L 7.8187500000000005 0 L 8.6875 0 L 9.55625 0 L 10.425 0 L 11.293750000000001 0 L 12.162500000000001 0 L 13.031250000000002 0 L 13.900000000000002 0 L 14.317778345831504 0.9417187500000002 L 14.730986787799646 1.8834375000000003 L 15.135105410322002 2.8251562500000005 L 15.525713727576965 3.7668750000000006 L 15.898539037362774 4.70859375 L 16.249503158412857 5.650312500000001 L 16.574767039927448 6.592031250000002 L 16.87077275535632 7.533750000000001 L 17.13428242108005 8.475468750000001 L 17.362413614274583 9.4171875 L 17.5526709025377 10.358906250000002 L 17.70297314038796 11.300625000000002 L 17.811676234051067 12.242343750000003 L 17.877591125518986 13.184062500000003 L 17.899996799161833 14.125781250000001 L 17.878648168618476 15.067500000000003 L 17.813778757694468 16.009218750000002 L 17.706098145942107 16.950937500000002 L 17.556784206864332 17.89265625 L 17.367470223645526 18.834375 L 17.1402270233449 19.776093750000005 L 16.877540324979094 20.717812500000004 L 16.582283549273946 21.65953125 L 16.257686387508187 22.601250000000004 L 15.90729947326155 23.542968750000007 L 15.534955543508222 24.484687500000007 L 15.144727513898472 25.426406250000003 L 14.740883926825408 26.368125000000006 L 14.32784225961205 27.309843750000006 L 13.910120603561028 28.251562500000002 L 13.492288242429725 29.193281250000005 L 13.078915670932444 30.135000000000005 L 12.674524599996387 31.076718750000005 L 12.283538495643226 32.018437500000005 L 11.910234192530945 32.960156250000004 L 11.55869511143523 33.901875000000004 L 11.232766592405058 34.84359375000001 L 10.936013832184491 35.7853125 L 10.671682886005746 36.72703125 L 10.442665160338786 37.66875 L 10.25146578499646 38.61046875000001 L 10.1001762105596 39.55218750000001 L 9.990451330867495 40.49390625000001 L 9.923491380821297 41.43562500000001 L 9.90002880751277 42.37734375000001 L 9.920320258289667 43.3190625 L 9.984143773396962 44.26078125000001 L 10.09080121390243 45.20250000000001 L 10.239125898348586 46.14421875000001 L 10.427495364596727 47.085937500000014 L 10.653849117266615 48.02765625000001 L 10.915711166639944 48.969375000000014 L 11.210217112483814 49.911093750000006 L 11.534145476535596 50.852812500000006 L 11.883952940916075 51.79453125000001 L 12.255813107012546 52.73625000000001 L 12.64565835086454 53.677968750000005 L 13.049224317213415 54.61968750000001 L 13.462096565513981 55.561406250000005 L 13.879758857666754 56.503125000000004 L 14.29764255927139 57.44484375000001 L 14.711176614021456 58.38656250000001 L 15.115837544591507 59.32828125 L 15.507198933077373 60.27000000000001 L 16.12594893307737 60.27000000000001 L 16.744698933077373 60.27000000000001 L 17.363448933077372 60.27000000000001 L 17.98219893307737 60.27000000000001 L 18.60094893307737 60.27000000000001 L 19.21969893307737 60.27000000000001 L 19.838448933077373 60.27000000000001 L 20.457198933077372 60.27000000000001 L 21.07594893307737 60.27000000000001 L 21.694698933077373 60.27000000000001 L 22.313448933077375 60.27000000000001 L 22.932198933077373 60.27000000000001 L 23.550948933077372 60.27000000000001 L 24.169698933077374 60.27000000000001 L 24.788448933077376 60.27000000000001 L 25.407198933077375 60.27000000000001 L 26.025948933077373 60.27000000000001 L 26.644698933077375 60.27000000000001 L 27.263448933077377 60.27000000000001 L 27.882198933077376 60.27000000000001 L 28.500948933077375 60.27000000000001 L 29.119698933077373 60.27000000000001 L 29.738448933077372 60.27000000000001 L 30.357198933077374 60.27000000000001 L 30.975948933077376 60.27000000000001 L 31.594698933077375 60.27000000000001 L 32.21344893307737 60.27000000000001 L 32.83219893307737 60.27000000000001 L 33.45094893307737 60.27000000000001 L 34.069698933077376 60.27000000000001 L 34.688448933077375 60.27000000000001 L 35.30719893307737 60.27000000000001 L 35.72372253121825 61.32281250000001 L 36.11258482139284 62.375625000000014 L 36.46847062852203 63.428437500000015 L 36.78651551750663 64.48125 L 37.062372282894536 65.5340625 L 37.292270368779846 66.58687499999999 L 37.47306740675166 67.63968750000001 L 37.60229216744449 68.6925 L 37.67817833860592 69.74531250000001 L 37.69968866798496 70.798125 L 37.666529141043426 71.85093750000001 L 37.57915299970191 72.90375 L 37.438754547189845 73.95656249999999 L 37.24725282367852 75.00937499999999 L 37.007265375826826 76.0621875 L 36.72207247877162 77.115 L 36.72207247877162 77.115 Z" fill="black" stroke="black" />
				</svg>