<svg
					xmlns="http://www.w3.org/2000/svg" xmlns:xlink="http://www.w3.org/1999/xlink"
					style="
						overflow: visible;
						height: 100;
					"
					viewBox="0 0 30.774093239868645 77.115"
				>
					<path d="M 30.06853278397313 65.23500000000001 L 30.397901345121195 66.72 L 30.62899580534645 68.20500000000001 L 30.755538878968476 69.69000000000001 L 30.774093239868645 71.17500000000001 L 30.684154890573915 72.66 L 30.488166852485996 74.145 L 30.191452805384237 75.63 L 29.80207247877162 77.115 L 28.96519747877162 77.115 L 28.128322478771622 77.115 L 27.291447478771623 77.115 L 26.45457247877162 77.115 L 25.617697478771618 77.115 L 24.78082247877162 77.115 L 23.94394747877162 77.115 L 23.10707247877162 77.115 L 22.27019747877162 77.115 L 21.433322478771622 77.115 L 20.596447478771623 77.115 L 19.75957247877162 77.115 L 18.92269747877162 77.115 L 18.085822478771618 77.115 L 17.24894747877162 77.115 L 16.41207247877162 77.115 L 15.57519747877162 77.115 L 14.738322478771618 77.115 L 13.901447478771619 77.115 L 13.06457247877162 77.115 L 12.22769747877162 77.115 L 11.390822478771618 77.115 L 10.553947478771619 77.115 L 9.71707247877162 77.115 L 8.880197478771619 77.115 L 8.043322478771618 77.115 L 7.206447478771619 77.115 L 6.369572478771619 77.115 L 5.5326974787716185 77.115 L 4.6958224787716185 77.115 L 3.8589474787716185 77.115 L 3.0220724787716184 77.115 L 3.4114528053842377 75.63 L 3.708166852485993 74.145 L 3.9041548905739134 72.66 L 3.9940932398686444 71.17500000000001 L 3.975538878968476 69.69000000000001 L 3.8489958053464486 68.20500000000001 L 3.617901345121194 66.72 L 3.2885327839731278 65.23500000000001 L 3.9693193476687636 64.775625 L 4.641854084936751 64.31625000000001 L 5.306472258642289 63.85687500000001 L 5.96352975181423 63.3975 L 6.613402140681486 62.93812499999999 L 7.256483716414804 62.47874999999999 L 7.89318645812201 62.019375 L 8.52393895977172 61.55999999999999 L 7.955545739386199 60.119062499999984 L 7.347619568264806 58.67812499999999 L 6.71571036819991 57.23718749999999 L 6.075981514133515 55.796249999999986 L 5.444796397085135 54.35531249999998 L 4.8382998709414 52.914374999999986 L 4.2720052891272555 51.47343749999999 L 3.760397694197148 50.032499999999985 L 3.316563310214885 48.59156249999998 L 2.9518548150014574 47.150624999999984 L 2.6756009541299037 45.70968749999999 L 2.494867924344921 44.26874999999999 L 2.4142786298936993 42.82781249999999 L 2.4358944349443687 41.38687499999999 L 2.5591624367038213 39.94593749999999 L 2.7809296079165833 38.504999999999995 L 3.0955234469989295 37.06406249999999 L 3.494897072887869 35.62312499999999 L 3.968835053276789 34.18218749999999 L 4.505214701432383 32.741249999999994 L 5.0903161579769 31.30031249999999 L 5.709173326166901 29.85937499999999 L 6.345956684223037 28.41843749999999 L 6.984378182893876 26.977499999999992 L 7.608107871526714 25.536562499999995 L 8.201191595919026 24.09562499999999 L 8.748459083809594 22.654687499999994 L 9.235911979739384 21.213749999999994 L 9.651081903879987 19.772812499999997 L 9.98334937617345 18.331874999999997 L 10.224215448139262 16.890937499999996 L 10.367519094377585 15.449999999999996 L 9.590221946137227 15.003749999999997 L 8.803138326723616 14.557499999999997 L 8.006233415126552 14.111249999999998 L 7.199496531104415 13.665 L 6.382941161436223 13.21875 L 5.5566049267710955 12.7725 L 4.720549489156563 12.326250000000002 L 3.8748604004730614 11.880000000000003 L 3.659179837717257 10.395000000000003 L 3.3441039144020825 8.910000000000002 L 2.9381911289863147 7.425000000000002 L 2.4524674078937356 5.940000000000001 L 1.9001266050838035 4.455000000000001 L 1.2961721135794737 2.9700000000000006 L 0.657009323961924 1.4850000000000003 L 0 0 L 0.836875 0 L 1.67375 0 L 2.510625 0 L 3.3475 0 L 4.184375 0 L 5.02125 0 L 5.858125 0 L 6.695 0 L 7.531875 0 L 8.36875 0 L 9.205625000000001 0 L 10.0425 0 L 10.879375 0 L 11.71625 0 L 12.553125000000001 0 L 13.39 0 L 14.226875 0 L 15.06375 0 L 15.900625000000002 0 L 16.7375 0 L 17.574375000000003 0 L 18.411250000000003 0 L 19.248125 0 L 20.085 0 L 20.921875 0 L 21.75875 0 L 22.595625 0 L 23.4325 0 L 24.269375000000004 0 L 25.106250000000003 0 L 25.943125000000002 0 L 26.78 0 L 27.437009323961924 1.4850000000000003 L 28.076172113579474 2.9700000000000006 L 28.680126605083803 4.455000000000001 L 29.232467407893736 5.940000000000001 L 29.718191128986316 7.425000000000002 L 30.124103914402085 8.910000000000002 L 30.43917983771726 10.395000000000003 L 30.654860400473062 11.880000000000003 L 29.898049489156566 12.326250000000002 L 29.131604926771097 12.7725 L 28.355441161436225 13.21875 L 27.569496531104416 13.665 L 26.773733415126557 14.111249999999998 L 25.96813832672362 14.557499999999997 L 25.152721946137227 15.003749999999997 L 24.327519094377585 15.449999999999996 L 24.184215448139263 16.890937499999996 L 23.94334937617345 18.331874999999997 L 23.61108190387999 19.772812499999997 L 23.195911979739385 21.213749999999994 L 22.708459083809597 22.654687499999994 L 22.16119159591903 24.09562499999999 L 21.568107871526717 25.536562499999995 L 20.944378182893878 26.977499999999992 L 20.305956684223037 28.41843749999999 L 19.669173326166902 29.85937499999999 L 19.0503161579769 31.30031249999999 L 18.465214701432384 32.741249999999994 L 17.928835053276792 34.18218749999999 L 17.45489707288787 35.62312499999999 L 17.055523446998933 37.06406249999999 L 16.740929607916584 38.504999999999995 L 16.519162436703823 39.94593749999999 L 16.39589443494437 41.38687499999999 L 16.374278629893702 42.82781249999999 L 16.454867924344924 44.26874999999999 L 16.635600954129906 45.70968749999999 L 16.91185481500146 47.150624999999984 L 17.276563310214886 48.59156249999998 L 17.72039769419715 50.032499999999985 L 18.232005289127258 51.47343749999999 L 18.798299870941403 52.914374999999986 L 19.404796397085136 54.35531249999998 L 20.035981514133518 55.796249999999986 L 20.675710368199912 57.23718749999999 L 21.30761956826481 58.67812499999999 L 21.9155457393862 60.119062499999984 L 22.48393895977172 61.55999999999999 L 23.455686458122013 62.019375 L 24.42148371641481 62.47874999999999 L 25.38090214068149 62.93812499999999 L 26.333529751814233 63.3975 L 27.27897225864229 63.85687500000001 L 28.216854084936752 64.31625000000001 L 29.146819347668764 64.775625 L 30.06853278397313 65.23500000000001 L 30.06853278397313 65.23500000000001 Z" fill="black" stroke="black" />
				</svg>