<svg
					xmlns="http://www.w3.org/2000/svg" xmlns:xlink="http://www.w3.org/1999/xlink"
					style="
						overflow: visible;
						height: 100;
					"
					viewBox="-3.9614054580951255 2.1316282072803006e-13 54.89942489644693 79.38000000000001"
				>
					<path d="M 46.15951508712383 39.630000000000216 L 46.15951508712383 39.630000000000216 Q 46.071469199984406 40.380000000000216 46.001245619428225 41.11792968750022 Q 45.95762072511369 41.855859375000215 45.93071538960101 42.58171875000022 Q 45.92980966520626 43.30757812500022 45.94382140338932 44.02136718750022 Q 45.982578964312424 44.735156250000216 46.03387714163058 45.436875000000214 Q 46.10811921873584 46.13859375000021 46.19207962681949 46.828242187500216 Q 46.296745107190155 47.51789062500021 46.407989909814326 48.19546875000022 Q 46.537375297409945 48.87304687500021 46.67000790771388 49.53855468750021 Q 46.81799829991884 50.20406250000021 46.965825655009716 50.857500000000215 Q 47.12610996249989 51.51093750000022 47.28284629744082 52.15230468750021 Q 47.44911157010816 52.793671875000214 47.608559394398256 53.422968750000216 Q 47.774660683775366 54.05226562500022 47.93086616710385 54.66949218750021 Q 48.09096980098487 55.28671875000022 48.23835113496168 55.89187500000022 Q 48.387050563855816 56.49703125000021 48.52049905156246 57.09011718750022 Q 48.652903525003936 57.68320312500022 48.7678581432442 58.26421875000021 Q 48.879655375411424 58.84523437500022 48.97215234990001 59.414179687500216 Q 49.05964703783735 59.98312500000021 49.12634657331284 60.54000000000021 Q 49.187102145297345 61.09687500000022 49.22310424640431 61.63833984375022 Q 49.25135046666306 62.179804687500216 49.254253553654664 62.70585937500021 Q 49.24852226773788 63.23191406250021 49.21721951364219 63.74255859375021 Q 49.17668798332026 64.25320312500023 49.11067804583759 64.74843750000021 Q 49.03510041560304 65.2436718750002 48.93441605782423 65.7234960937502 Q 48.82404941850089 66.20332031250021 48.68918255294182 66.66773437500021 Q 48.54471090021968 67.1321484375002 48.37653705213023 67.5811523437502 Q 48.19899588990788 68.0301562500002 47.998700529823736 68.4637500000002 Q 47.78940432531853 68.8973437500002 47.55841299178495 69.3155273437502 Q 47.31888717289807 69.7337109375002 47.058800812361916 70.13648437500021 Q 46.790719523191314 70.53925781250021 46.50325602774251 70.9266210937502 Q 46.20838643552894 71.3139843750002 45.89532896807654 71.68593750000021 Q 45.575482549810324 72.05789062500023 45.238634913895986 72.4144335937502 Q 44.89562584513799 72.77097656250021 44.53677488312044 73.11210937500022 Q 44.17238540420418 73.45324218750022 43.79327019066415 73.77896484375022 Q 43.40922263306238 74.10468750000021 43.01151006583149 74.41500000000022 Q 42.60944507928626 74.7253125000002 42.1940468733163 75.01623046875022 Q 41.77494409693747 75.30714843750022 41.34362095274527 75.57867187500021 Q 40.90918220120805 75.85019531250022 40.46352696618554 76.10232421875023 Q 40.01528425119523 76.35445312500022 39.55672098302619 76.58718750000023 Q 39.09603771598656 76.81992187500022 38.625825205057396 77.03326171875021 Q 38.15390136939516 77.24660156250022 37.67314002009756 77.44054687500022 Q 37.1910202596225 77.63449218750021 36.70066134262374 77.80904296875022 Q 36.20924502886477 77.98359375000021 35.71010143541002 78.13875000000021 Q 35.210153896973246 78.29390625000022 34.70291164549794 78.42966796875021 Q 34.195075860386346 78.56542968750021 33.68030572032995 78.68179687500022 Q 33.16511388375629 78.79816406250022 32.64328258820861 78.89513671875022 Q 32.12116707108148 78.99210937500023 31.592647686803822 79.06968750000021 Q 31.328321374747347 79.10847656250021 31.062429378925586 79.14241699218772 Q 30.79650381469105 79.17635742187521 30.529032101941173 79.2054492187502 Q 30.261535963592916 79.23454101562521 29.992510185698432 79.25878417968772 Q 29.723467585442435 79.28302734375022 29.452908935986823 79.30242187500022 Q 29.182339593736813 79.3218164062502 28.910264964605933 79.33636230468771 Q 28.638184353039694 79.35090820312521 28.36460646192728 79.36060546875022 Q 28.091025922219625 79.37030273437523 27.815953410427298 79.37515136718773 Q 27.540880238028205 79.38000000000022 27.264317738028204 79.38000000000022 L 27.264317738028204 79.38000000000022 Q 26.994317738028204 79.38000000000022 26.7291077073023 79.37515136718773 Q 26.46389701596963 79.37030273437523 26.203473649427284 79.36060546875022 Q 25.943047634289698 79.35090820312521 25.687403636480933 79.33636230468771 Q 25.43175365623682 79.3218164062502 25.18087768598683 79.30242187500022 Q 24.929991022942442 79.28302734375022 24.68386760757344 79.25878417968772 Q 24.43772736984292 79.23454101562521 24.19633678944118 79.2054492187502 Q 23.713482242346796 79.14726562500022 23.24952268680383 79.06968750000021 Q 22.785385821081483 78.99210937500023 22.339962275708622 78.89513671875022 Q 21.894254508756298 78.79816406250022 21.467024470329957 78.68179687500022 Q 21.03937273538635 78.56542968750021 20.62990383299795 78.42966796875021 Q 20.21984139697326 78.29390625000022 19.827601435410024 78.13875000000021 Q 19.434557528864772 77.98359375000021 19.058903530123743 77.80904296875022 Q 18.68219213462251 77.63449218750021 18.322358770097566 77.44054687500022 Q 17.961166994395157 77.24660156250022 17.616254892557393 77.03326171875021 Q 17.26963146598656 76.81992187500022 16.938595983026197 76.58718750000023 Q 16.605440501195243 76.35445312500022 16.28708165368555 76.10232421875023 Q 15.96613532620805 75.85019531250022 15.659089702745277 75.57867187500021 Q 15.348928471937471 75.30714843750022 15.051664060816307 75.01623046875022 Q 14.750695079286267 74.7253125000002 14.461510065831485 74.41500000000022 Q 14.168597633062369 74.10468750000021 13.884984976389614 73.77873046875021 Q 13.596432829669528 73.45277343750021 13.316104584071153 73.11117187500021 Q 13.03022243219154 72.7695703125002 12.751430950905322 72.41232421875021 Q 12.466453432785931 72.05507812500022 12.187388446289976 71.68218750000021 Q 11.901499931302391 71.3092968750002 11.620317031506419 70.92076171875021 Q 11.3316830351506 70.53222656250021 11.046539053993866 70.12804687500022 Q 10.753344693697901 69.72386718750022 10.462440317837375 69.30404296875022 Q 10.16293606335125 68.88421875000023 9.86456582683551 68.44875000000022 Q 9.557120574000542 68.0132812500002 9.249730112858646 67.5621679687502 Q 8.932891323927855 67.1110546875002 8.615141456843 66.64429687500021 Q 8.287701762402449 66.17753906250022 7.958538578791151 65.6951367187502 Q 7.619607825770673 65.21273437500021 7.278337518476609 64.71468750000021 Q 6.927418779342541 64.21664062500021 6.573785459595932 63.702949218750206 Q 6.210852997589438 63.18925781250021 5.845117185568283 62.65992187500022 Q 5.4706938130625336 62.13058593750023 5.093708724733872 61.58560546875023 Q 4.70893941577942 61.040625000000226 4.322221588572078 60.480000000000224 Q 3.9289396385570665 59.91937500000022 3.535272586416511 59.346972656250216 Q 3.136657145735659 58.77457031250022 2.739208570389087 58.19039062500021 Q 2.3387039373756155 57.60621093750021 1.941270408381749 57.01025390625021 Q 1.542938073281195 56.41429687500022 1.1499240579434744 55.80656250000021 Q 0.7584116911825622 55.198828125000205 0.37478671386684226 54.57931640625021 Q -0.004725706191176293 53.95980468750021 -0.3734939635004575 53.3285156250002 Q -0.7353728229512209 52.697226562500205 -1.0834111256743735 52.05416015625021 Q -1.4216739614871323 51.41109375000021 -1.7428227559603677 50.75625000000021 Q -2.051269659195348 50.10140625000021 -2.339228945823432 49.43478515625021 Q -2.6116000866889393 48.76816406250022 -2.860100847628961 48.08976562500021 Q -3.090258451206784 47.41136718750021 -3.2932572806066767 46.72119140625021 Q -3.4753890470488544 46.03101562500022 -3.6272822207085746 45.32906250000022 Q -3.7561217226622845 44.62710937500022 -3.851973428792093 43.913378906250216 Q -3.9230314790194596 43.19964843750022 -3.9588093678050003 42.474140625000224 Q -3.9686087939585466 41.748632812500226 -3.9414184615875993 41.01134765625022 Q -3.887723230656674 40.27406250000023 -3.796031818938329 39.525000000000226 L -3.796031818938329 39.525000000000226 Q -3.6780601130465302 38.775937500000225 -3.526691171950439 38.03888671875023 Q -3.351613027336152 37.30183593750023 -3.1467260487612876 36.57679687500022 Q -2.921157581128054 35.85175781250022 -2.6696678030157073 35.13873046875022 Q -2.4008413762638154 34.425703125000226 -2.110129952096826 33.72468750000022 Q -1.8056110368560385 33.02367187500022 -1.483254489172985 32.33466796875022 Q -1.1506816827876003 31.645664062500224 -0.8042077885773677 30.968671875000222 Q -0.45106213385413035 30.291679687500217 -0.08773727785562391 29.62669921875022 Q 0.2788550446095987 28.96171875000022 0.6522039849716058 28.308750000000217 Q 1.0256334052590343 27.655781250000214 1.4027613501426621 27.014824218750217 Q 1.7770605766332648 26.37386718750022 2.1524109438533015 25.74492187500022 Q 2.522345435496084 25.11597656250022 2.891122747781626 24.499042968750217 Q 3.2522480127527587 23.882109375000216 3.610458901428427 23.277187500000217 Q 3.9591475102479223 22.672265625000215 4.303613332861778 22.079355468750215 Q 4.637055143152262 21.486445312500216 4.965399914892219 20.905546875000212 Q 5.281579378514349 20.324648437500215 5.592196978605422 19.755761718750215 Q 5.889851567600338 19.186875000000214 6.181856251996267 18.630000000000216 Q 6.459795028906703 18.073125000000218 6.732531362835324 17.532070312500217 Q 6.991831784690668 16.991015625000216 7.246857725495574 16.46578125000022 Q 7.488717595279379 15.940546875000216 7.7274792477752134 15.431132812500216 Q 7.953561559040554 14.921718750000215 8.17790989582527 14.428125000000216 Q 8.390236185462566 13.934531250000218 8.602324416753504 13.456757812500218 Q 8.803175019082182 12.978984375000218 9.005363973936593 12.517031250000219 Q 9.197187187754722 12.055078125000218 9.39196033002431 11.60894531250022 Q 9.577291808423691 11.162812500000221 9.767180859241806 10.73250000000022 Q 9.948573922629066 10.302187500000219 10.136095505537497 9.88769531250022 Q 10.316062567076226 9.473203125000222 10.503665834559644 9.074531250000224 Q 10.684630714099674 8.675859375000222 10.874655552797964 8.293007812500223 Q 11.058916135843056 7.910156250000224 11.253561275852476 7.543125000000224 Q 11.443261740675052 7.176093750000223 11.644561903408846 6.824882812500224 Q 11.84167358246754 6.473671875000225 12.051484681300527 6.138281250000224 Q 12.25779453198196 5.8028906250002255 12.477785879453211 5.483320312500226 Q 12.69489150283175 5.163750000000226 12.926543966612538 4.860000000000227 Q 13.156479120630454 4.556250000000226 13.403784441805096 4.271484375000226 Q 13.649259887473471 3.9867187500002244 13.912819528166334 3.7209375000002236 Q 14.174977781101108 3.455156250000223 14.455810015686648 3.208359375000222 Q 14.735592635704169 2.9615625000002215 15.03452752890024 2.733750000000221 Q 15.332695900818656 2.50593750000022 15.650396603656501 2.2971093750002196 Q 15.96755362190095 2.088281250000219 16.30453809834407 1.8984375000002185 Q 16.641149943040023 1.708593750000218 16.99781240609641 1.5377343750002175 Q 17.35422975789727 1.366875000000217 17.73086124402949 1.2150000000002166 Q 18.10733942702359 1.0631250000002161 18.50414706909198 0.9302343750002158 Q 18.900864734038763 0.7973437500002154 19.317989404898853 0.6834375000002151 Q 19.735065468279007 0.5695312500002148 20.172597559574623 0.4746093750002145 Q 20.610106197996878 0.37968750000021423 21.068099372553455 0.303750000000214 Q 21.52608293815165 0.2278125000002138 22.004565751187606 0.17085937500021364 Q 22.24380595408713 0.14238281250021356 22.488172300536522 0.1186523437502135 Q 22.732538280372303 0.09492187500021343 22.982030849549865 0.07593750000021338 Q 23.231523268559894 0.05695312500021332 23.486142506853387 0.04271484375021328 Q 23.740761697632543 0.028476562500213243 24.000507806243043 0.018984375000213216 Q 24.260253905467966 0.00949218750021319 24.525126953027332 0.004746093750213176 Q 24.7900000000001 2.1316282072803006e-13 25.060000000000098 2.1316282072803006e-13 L 25.060000000000098 2.1316282072803006e-13 Q 25.334375000000097 2.1316282072803006e-13 25.60769205719033 0.0048046875002131645 Q 25.881009113771967 0.009609375000213166 26.15326822267509 0.01921875000021317 Q 26.42552732184071 0.028828125000213173 26.696728441680975 0.04324218750021318 Q 26.96792951222529 0.05765625000021318 27.238072501201216 0.07687500000021319 Q 27.50821533437895 0.0960937500002132 27.77729984742481 0.1201171875002132 Q 28.046383980110736 0.1441406250002132 28.314409330157986 0.17296875000021322 Q 28.582433891516217 0.20179687500021323 28.849398874281007 0.23542968750021326 Q 29.11636239597916 0.26906250000021326 29.382265078326743 0.30750000000021327 Q 29.91406265468679 0.3843750000002133 30.441604311231696 0.48046875000021333 Q 30.96912163579625 0.5765625000002134 31.49235346399538 0.6918750000002134 Q 32.01553486334173 0.8071875000002134 32.534379908331594 0.9417187500002135 Q 33.05313160657715 1.0762500000002135 33.56746650212207 1.2300000000002136 Q 34.08164235835953 1.3837500000002136 34.591281778516105 1.5567187500002135 Q 35.10066692767268 1.7296875000002139 35.605346028789874 1.9218750000002138 Q 36.109638597688594 2.114062500000214 36.608993663815966 2.325468750000214 Q 37.10778481269541 2.5368750000002143 37.60133240676418 2.767500000000214 Q 38.09408504466615 2.998125000000214 38.58120007741155 3.247968750000214 Q 39.06722671859568 3.4978125000002147 39.54711997757705 3.7668750000002147 Q 40.02556034549053 4.035937500000214 40.497256177155016 4.324218750000215 Q 40.96705532130467 4.612500000000215 41.429370327884236 4.920000000000215 Q 41.88890984692919 5.226562500000215 42.34001736950557 5.5487695312502145 Q 42.788160864034836 5.870976562500214 43.22699701667231 6.208828125000213 Q 43.662246171697014 6.546679687500214 44.087197127531624 6.900175781250214 Q 44.507867599345104 7.253671875000213 44.91713312483491 7.622812500000213 Q 45.32135733553534 7.991953125000213 45.71295675290232 8.376738281250214 Q 46.09869267936823 8.761523437500214 46.470477407130716 9.161953125000213 Q 46.83552439195193 9.562382812500214 47.18519809038643 9.978457031250215 Q 47.52722068305965 10.394531250000215 47.85236798741244 10.826250000000215 Q 48.16892875603967 11.257968750000215 48.46705348171935 11.705332031250215 Q 48.75565560804241 12.152695312500216 49.02422914836646 12.615703125000218 Q 49.28236942189319 13.078710937500219 49.518889820176966 13.557363281250218 Q 49.74412237083804 14.036015625000218 49.946184225828034 14.53031250000022 Q 50.13619497106893 15.024609375000221 50.30156992114727 15.534550781250221 Q 50.45426124719996 16.04449218750022 50.580988270791906 16.570078125000222 Q 50.69457291738324 17.095664062500223 50.781057085316995 17.636894531250224 Q 50.85415956151576 18.17812500000023 50.89927718811471 18.735000000000227 Q 50.9316653239511 19.291875000000225 50.93801943835181 19.860761718750226 Q 50.93152037159667 20.429648437500227 50.89910361289979 21.010546875000223 Q 50.85465513359015 21.591445312500227 50.784783025770686 22.184355468750226 Q 50.704044014829826 22.777265625000226 50.59878514694763 23.382187500000228 Q 50.48418372877933 23.987109375000227 50.346399889141104 24.60404296875023 Q 50.201164708703544 25.22097656250023 50.03453196582445 25.849921875000227 Q 49.86270258205063 26.47886718750022 49.67170930476685 27.119824218750225 Q 49.478121773091665 27.760781250000225 49.26803975910365 28.41375000000022 Q 49.05828374868958 29.06671875000022 48.8351090161127 29.73169921875022 Q 48.615453301469344 30.396679687500225 48.38581371888709 31.073671875000223 Q 48.163097625434105 31.750664062500217 47.93412543353735 32.439667968750214 Q 47.715614819248486 33.12867187500022 47.494783243470955 33.82968750000022 Q 47.287990870669354 34.530703125000215 47.082915439412325 35.243730468750215 Q 46.89538712531083 35.956757812500214 46.71359397757105 36.68179687500022 Q 46.55266368622633 37.40683593750022 46.40132904311602 38.14388671875022 Q 46.2738480531105 38.880937500000215 46.15951508712383 39.630000000000216 L 46.15951508712383 39.630000000000216 Z M 10.809515087123827 39.630000000000216 L 10.809515087123827 39.630000000000216 Q 10.731103472529977 40.28531250000022 10.684005936025683 40.92287109375022 Q 10.656699297437001 41.56042968750022 10.658976774130608 42.18023437500022 Q 10.680211252003675 42.80003906250022 10.728930917697458 43.40208984375022 Q 10.795435151626075 44.00414062500022 10.887069264822895 44.58843750000022 Q 10.995066233881467 45.17273437500022 11.1256849407442 45.73927734375022 Q 11.271077960311562 46.30582031250022 11.436523899635983 46.854609375000216 Q 11.615062496358984 47.403398437500215 11.811103860972402 47.934433593750214 Q 12.018526945014028 48.46546875000021 12.240987222911528 48.97875000000022 Q 12.473142432163648 49.492031250000224 12.718006365045476 49.98755859375023 Q 12.970945651919891 50.48308593750023 13.234442002887775 50.960859375000226 Q 13.50449447092537 51.43863281250022 13.78315699475998 51.898652343750214 Q 14.066980683389446 52.35867187500022 14.35768926113078 52.80093750000022 Q 14.652304045599099 53.243203125000214 14.952308306539596 53.66771484375022 Q 15.255112355218278 54.092226562500215 15.56204029444824 54.49898437500021 Q 15.870812639041386 54.9057421875002 16.18266677934605 55.2947460937502 Q 16.495558537016848 55.683750000000195 16.810702111581225 56.0550000000002 Q 17.126218782300494 56.4262500000002 17.443784725657522 56.7742968750002 Q 17.76120073386641 57.1223437500002 18.080241552540627 57.4471875000002 Q 18.39876304495855 57.772031250000204 18.71868152925056 58.0736718750002 Q 19.037842374613206 58.3753125000002 19.358334635936327 58.6537500000002 Q 19.677939628528453 58.932187500000204 19.99893964479124 59.18742187500021 Q 20.31900996614355 59.44265625000021 20.640637136818253 59.67468750000021 Q 20.96135935592288 59.90671875000021 21.28387009496042 60.11554687500022 Q 21.60554954859479 60.32437500000022 21.929293549231186 60.510000000000204 Q 22.252312585069472 60.6956250000002 22.577694075219863 60.858046875000205 Q 22.90247535885157 61.020468750000205 23.22991942491078 61.1596875000002 Q 23.55689430211485 61.2989062500002 23.886818185889908 61.41492187500021 Q 24.21639994608925 61.530937500000206 24.549189106243887 61.62375000000021 Q 24.881750903600334 61.71656250000021 25.217739570802863 61.786171875000214 Q 25.553596717248254 61.855781250000206 25.89305265259665 61.90218750000021 Q 26.232448993771026 61.948593750000214 26.575562174801117 61.971796875000216 Q 26.91866028739661 61.99500000000021 27.26553528739661 61.99500000000021 L 27.26553528739661 61.99500000000021 Q 27.62553528739661 61.99500000000021 27.96353092480112 61.971796875000216 Q 28.301511493771027 61.948593750000214 28.617427652596653 61.90218750000021 Q 28.933284217248257 61.855781250000206 29.226958320802865 61.786171875000214 Q 29.520500903600336 61.71656250000021 29.791689106243886 61.62375000000021 Q 30.06264994608925 61.530937500000206 30.31103693588991 61.41492187500021 Q 30.55908180211485 61.2989062500002 30.78429442491078 61.1596875000002 Q 31.00903785885157 61.020468750000205 31.210662825219863 60.858046875000205 Q 31.41168758506947 60.6956250000002 31.589293549231186 60.510000000000204 Q 31.766174548594794 60.32437500000022 31.91933884496042 60.11554687500022 Q 32.07167185592288 59.90671875000021 32.20001213681825 59.67468750000021 Q 32.32744746614355 59.44265625000021 32.43065839479124 59.18742187500021 Q 32.53293962852845 58.932187500000204 32.61083463593633 58.6537500000002 Q 32.687842374613204 58.3753125000002 32.74040027925056 58.0736718750002 Q 32.79220054495855 57.772031250000204 32.81961655254062 57.4471875000002 Q 32.84651323386641 57.1223437500002 32.84925347565753 56.7742968750002 Q 32.85184378230049 56.4262500000002 32.830702111581225 56.0550000000002 Q 32.80993353701684 55.683750000000195 32.77301834184605 55.2947460937502 Q 32.73714076404138 54.9057421875002 32.685946544448235 54.49898437500021 Q 32.63659673021828 54.092226562500215 32.5729723690396 53.66771484375022 Q 32.5121477955991 53.243203125000214 32.438314261130785 52.80093750000022 Q 32.36838693338945 52.35867187500022 32.28694605725999 51.898652343750214 Q 32.210666345925375 51.43863281250022 32.12459825288778 50.960859375000226 Q 32.045086276919896 50.48308593750023 31.95773292754549 49.98755859375023 Q 31.878454932163656 49.492031250000224 31.793487222911534 48.97875000000022 Q 31.71821444501403 48.46546875000021 31.639580423472406 47.934433593750214 Q 31.572328121358986 47.403398437500215 31.504180149635978 46.854609375000216 Q 31.449124835311554 46.30582031250022 31.395724003244194 45.73927734375022 Q 31.35709748388146 45.17273437500022 31.322694264822893 44.58843750000022 Q 31.304653901626075 44.00414062500022 31.293344980197464 43.40208984375022 Q 31.29982062700368 42.80003906250022 31.315383024130615 42.18023437500022 Q 31.349902422437 41.56042968750022 31.395607498525678 40.92287109375022 Q 31.46110347252998 40.28531250000022 31.53951508712383 39.630000000000216 L 31.53951508712383 39.630000000000216 Q 31.637964421379973 38.975625000000214 31.743678614275634 38.33853515625022 Q 31.86741120254146 37.70144531250021 31.99521873446999 37.08164062500022 Q 32.13876029198302 36.46183593750022 32.283168560627054 35.859316406250215 Q 32.44095450827661 35.25679687500022 32.59647935358034 34.67156250000022 Q 32.763035428949195 34.086328125000215 32.924363705431645 33.51837890625022 Q 33.094454223423554 32.95042968750022 33.256574139755735 32.399765625000214 Q 33.42531810256586 31.849101562500213 33.58361824534841 31.315722656250216 Q 33.74657479937124 30.782343750000216 33.896913870365665 30.266250000000213 Q 34.050139565815 29.750156250000206 34.1888896494797 29.251347656250203 Q 34.32897060577914 28.752539062500205 34.45303728099234 28.27101562500021 Q 34.57709973560964 27.789492187500212 34.683922593107674 27.32525390625021 Q 34.78962545670815 26.861015625000206 34.87716262625317 26.414062500000206 Q 34.96267562752207 25.96710937500021 35.02937580025393 25.53744140625021 Q 35.09334662283998 25.107773437500207 35.13811181633062 24.695390625000204 Q 35.17962534813966 24.28300781250021 35.2017673419831 23.887910156250207 Q 35.22029980895806 23.49281250000021 35.219492809917185 23.115000000000208 Q 35.2148631826489 22.73718750000021 35.1846065345378 22.382988281250213 Q 35.15057837627664 22.028789062500213 35.09153960803916 21.698203125000212 Q 35.02889948270368 21.367617187500212 34.94198022749587 21.06064453125021 Q 34.85171819354599 20.753671875000215 34.73798282069314 20.470312500000215 Q 34.62122447760322 20.186953125000215 34.48183724023183 19.92720703125022 Q 34.33978445765455 19.667460937500216 34.175955306175894 19.43132812500022 Q 34.00983558490879 19.19519531250022 33.822774390110176 18.982675781250222 Q 33.63379845140742 18.77015625000022 33.42467709043854 18.581250000000225 Q 33.214004046912116 18.392343750000222 32.983925615490804 18.227050781250224 Q 32.75263492685227 18.061757812500225 32.50260923545563 17.920078125000224 Q 32.25167857963749 17.778398437500226 31.982603054694625 17.660332031250224 Q 31.712891234345992 17.542265625000226 31.42553636319468 17.447812500000225 Q 31.137770405594953 17.353359375000224 30.83276892363656 17.282519531250223 Q 30.52753460700447 17.211679687500226 30.205373716461942 17.16445312500023 Q 29.883108857720085 17.11722656250023 29.544124880998403 17.093613281250228 Q 29.205114841453987 17.070000000000228 28.849489841453988 17.070000000000228 L 28.849489841453988 17.070000000000228 Q 28.493864841453988 17.070000000000228 28.1477967559984 17.093613281250228 Q 27.801702607720085 17.11722656250023 27.46506121646194 17.16445312500023 Q 27.128315857004466 17.211679687500226 26.80081579863656 17.282519531250223 Q 26.473082905594953 17.353359375000224 26.154286363194682 17.447812500000225 Q 25.835078734345995 17.542265625000226 25.524399929694628 17.660332031250224 Q 25.213084829637495 17.778398437500226 24.90979673545563 17.920078125000224 Q 24.60560367685226 18.061757812500225 24.3088474904908 18.227050781250224 Q 24.010879046912112 18.392343750000222 23.719677090438548 18.581250000000225 Q 23.426923451407426 18.77015625000022 23.14019626511018 18.982675781250222 Q 22.851554334908798 19.19519531250022 22.5681428061759 19.43132812500022 Q 22.282440707654562 19.667460937500216 22.001134115231835 19.92720703125022 Q 21.717161977603222 20.186953125000215 21.436732820693145 20.470312500000215 Q 21.15328069354599 20.753671875000215 20.872527102495873 21.06064453125021 Q 20.588430732703685 21.367617187500212 20.306227108039163 21.698203125000212 Q 20.020422126276646 22.028789062500213 19.735778409537804 22.382988281250213 Q 19.447363182648896 22.73718750000021 19.159492809917186 23.115000000000208 Q 18.868424808958068 23.49281250000021 18.576259529483107 23.887910156250207 Q 18.280484723139665 24.28300781250021 17.983580566330627 24.695390625000204 Q 17.68342474783998 25.107773437500207 17.38230548775393 25.53744140625021 Q 17.078456877522065 25.96710937500021 16.77403762625316 26.414062500000206 Q 16.467594206708142 26.861015625000206 16.161227280607662 27.32525390625021 Q 15.853740360609635 27.789492187500212 15.547256030992335 28.27101562500021 Q 15.240767480779127 28.752539062500205 14.936506836979687 29.251347656250203 Q 14.63357706581499 29.750156250000206 14.334413870365655 30.266250000000213 Q 14.038137299371233 30.782343750000216 13.747485432848402 31.315722656250216 Q 13.46148997756586 31.849101562500213 13.183292889755734 32.399765625000214 Q 12.91171984842356 32.95042968750022 12.650418392931652 33.51837890625022 Q 12.397879178949196 34.086328125000215 12.158354353580345 34.67156250000022 Q 11.929860758276607 35.25679687500022 11.717348248127049 35.859316406250215 Q 11.518213416983016 36.46183593750022 11.338187484469984 37.08164062500022 Q 11.173895577541462 37.70144531250021 11.031920801775637 38.33853515625022 Q 10.90796442137997 38.975625000000214 10.809515087123827 39.630000000000216 L 10.809515087123827 39.630000000000216 Z" fill="black" stroke="black" />
				</svg>