<svg
					xmlns="http://www.w3.org/2000/svg" xmlns:xlink="http://www.w3.org/1999/xlink"
					style="
						overflow: visible;
						height: 100;
					"
					viewBox="-3.9677962511305918 0 47.23630656527402 79.27499999999999"
				>
					<path d="M 28.55948984145402 17.069999999999993 L 28.55948984145402 17.069999999999993 Q 28.253239841454022 17.069999999999993 27.95182019349844 17.093613281249993 Q 27.650374482720117 17.117226562499994 27.353654966461974 17.164453124999994 Q 27.056831482004498 17.21167968749999 26.764526736136595 17.28251953124999 Q 26.47198915559499 17.35335937499999 26.18366136319472 17.447812499999994 Q 25.894922484346033 17.542265624999995 25.609985867194666 17.660332031249993 Q 25.324412954637534 17.778398437499995 25.04214048545567 17.920078124999993 Q 24.7589630518523 18.061757812499994 24.478495927990842 18.227050781249993 Q 24.196816546912153 18.392343749999995 23.917177090438592 18.581249999999994 Q 23.635985951407477 18.770156249999992 23.356094702610235 18.98267578124999 Q 23.074288709908853 19.19519531249999 22.792986556175954 19.431328124999993 Q 22.509393832654613 19.667460937499996 22.225470052731893 19.927207031249992 Q 21.938880727603284 20.186953124999995 21.651107820693205 20.470312499999995 Q 21.360311943546062 20.753671874999995 21.067488039995947 21.060644531249995 Q 20.771321357703755 21.367617187499995 20.47232085803924 21.698203124999992 Q 20.16971900127672 22.028789062499996 19.863551847037883 22.382988281249993 Q 19.553613182648974 22.737187499999994 19.239492809917266 23.114999999999995 Q 18.920924808958148 23.492812499999996 18.602472052487983 23.889199218749994 Q 18.280387163158753 24.2855859375 17.958342465289526 24.700546874999997 Q 17.633009819859357 25.115507812499995 17.30785357779323 25.549042968749994 Q 16.979930059203166 25.982578124999993 16.652563932047116 26.434687499999995 Q 16.32314931397472 26.886796875 15.994950009768045 27.35748046875 Q 15.66563835915724 27.8281640625 15.33850610418176 28.317421875 Q 15.011430428256016 28.8066796875 14.687828824692952 29.31451171875 Q 14.365695463383739 29.82234375 14.048678982206702 30.348749999999995 Q 13.734787820250585 30.875156249999993 13.428012793283118 31.420136718749994 Q 13.126259036656197 31.965117187499995 12.833973751765232 32.528671875 Q 12.548826830630695 33.0922265625 12.275836250677791 33.674355468749994 Q 12.012291431729576 34.25648437499999 11.763892209909061 34.857187499999995 Q 11.527390784991907 35.457890625 11.309272697752245 36.077167968750004 Q 11.105587223769438 36.6964453125 10.923697947438178 37.334296875 Q 10.758780001974948 37.972148437499996 10.619151373749105 38.62857421875 Q 10.498940709270192 39.285000000000004 10.407476277706733 39.96 L 10.407476277706733 39.96 Q 10.337101192157565 40.6415625 10.3012960331757 41.30267578125 Q 10.286901383972353 41.9637890625 10.304825488633195 42.604453125 Q 10.343005537096701 43.2451171875 10.410863953223906 43.865332031250006 Q 10.497463523002022 44.485546875 10.610855591033316 45.0853125 Q 10.74122707120543 45.685078125 10.895388249376298 46.26439453124999 Q 11.06462180692165 46.84371093749999 11.254636127561504 47.40257812499999 Q 11.457758495435964 47.9614453125 11.6787383825726 48.49986328125 Q 11.910878050799022 49.03828125 12.158110446891055 49.55624999999999 Q 12.414629097057198 50.074218749999986 12.683688612471697 50.57173828124999 Q 12.960280197490377 51.069257812499984 13.24711132242382 51.54632812499999 Q 13.539871327526384 52.02339843749999 13.84084266728431 52.480019531249994 Q 14.146310837912473 52.936640624999995 14.458244898212802 53.372812499999995 Q 14.773425139777927 53.808984374999994 15.093607456064941 54.22470703124999 Q 15.415968758351497 54.640429687499996 15.742140191196427 55.035703125 Q 16.06960236541913 55.43097656250001 16.3999382301801 55.80580078125 Q 16.73084602481598 56.180625 17.06392544028325 56.535 Q 17.396389272474227 56.889374999999994 17.730092153191038 57.2216015625 Q 18.0633879167038 57.553828124999995 18.397628279103817 57.86390624999999 Q 18.731177305214082 58.17398437499999 19.065543079390512 58.4619140625 Q 19.399045153043126 58.74984375 19.733372065982184 59.015625 Q 20.066754789536343 59.28140625 20.40107724776788 59.5250390625 Q 20.73444796397683 59.768671875 21.068953044207003 59.99015625 Q 21.402554251869237 60.211640624999994 21.737539535133912 60.4109765625 Q 22.071708386921273 60.6103125 22.40754406462742 60.787499999999994 Q 22.742676258230965 60.9646875 23.079771695333328 61.119726562500006 Q 23.416289853166543 61.27476562500001 23.755064610349983 61.40765625000001 Q 24.09339108446245 61.54054687500001 24.434250271694545 61.65128906250001 Q 24.77478420293098 61.76203125000001 25.11809795441538 61.850625 Q 25.461196351311717 61.939218749999995 25.807283169741183 62.005664062499996 Q 26.153245746217216 62.072109375 26.502359455441596 62.116406250000004 Q 26.85141697030906 62.160703125 27.203737033600948 62.182851562500005 Q 27.55604290296499 62.205 27.91166790296499 62.205 L 27.91166790296499 62.205 Q 28.335417902964988 62.205 28.74835583894582 62.18320312499999 Q 29.161280027280608 62.16140625 29.563337345434007 62.11781249999999 Q 29.965340227071184 62.07421875 30.356368292800575 62.008828125 Q 30.747275968450857 61.9434375 31.12705111403829 61.856249999999996 Q 31.506617492350173 61.76906249999999 31.8748490072623 61.660078124999984 Q 32.242765026668344 61.551093749999986 32.59910626203056 61.42031249999999 Q 32.955012313963245 61.28953124999999 33.29907511662764 61.136953124999984 Q 33.64257689883236 60.984374999999986 33.97394961748208 60.80999999999999 Q 34.303888748065305 60.63374999999999 34.62971590252307 60.44742187499998 Q 34.954823391776976 60.261093749999986 35.27572785693356 60.064687499999984 Q 35.59590692931405 59.86828124999998 35.91181120392013 59.66179687499998 Q 36.22700165700049 59.455312499999984 36.537869086468376 59.23874999999999 Q 36.848054558039784 59.022187499999994 37.153896835894635 58.79554687499999 Q 37.459112436443746 58.56890624999999 37.75999743642158 58.33218749999998 Q 38.06033767740402 58.09546874999998 38.35639753556182 57.84867187499998 Q 38.65202446337783 57.601874999999986 38.94346380787215 57.344999999999985 L 38.94346380787215 57.344999999999985 L 39.4268635238497 58.445624999999986 L 39.89776332509604 59.546249999999986 L 40.3491295589369 60.64687499999999 L 40.77422033822489 61.74749999999999 L 41.16668624236431 62.84812499999999 L 41.52066515621112 63.94874999999999 L 41.83086983027526 65.049375 L 42.09266685437152 66.14999999999999 L 42.30214586511947 67.25062499999999 L 42.45617795356597 68.35125 L 42.55246240051777 69.451875 L 42.58956104151609 70.5525 L 42.56691974815661 71.65312499999999 L 42.48487670489631 72.75375 L 42.34465735771991 73.854375 L 42.14835611011544 74.955 Q 41.66662915000611 75.238125 41.182990854531184 75.50203125 Q 40.69639425324519 75.76593749999999 40.208851010672866 76.010625 Q 39.71885383287858 76.25531249999999 39.22877084938136 76.48078124999998 Q 38.736680204171655 76.70624999999998 38.24526407183336 76.9125 Q 37.752230336884665 77.11874999999999 37.26053580371341 77.30578125 Q 36.76756048434542 77.49281249999999 36.276499350780696 77.66062499999998 Q 35.784444700569594 77.82843749999998 35.2947960333718 77.97703124999998 Q 34.80439567609939 78.12562499999999 34.31681664246109 78.25499999999998 Q 33.828065512872136 78.38249999999998 33.33700719082709 78.49406249999998 Q 32.845551410942626 78.60562499999997 32.35202739637126 78.70124999999999 Q 31.85821937678907 78.79687499999997 31.36254011381034 78.87656249999998 Q 30.86666841060652 78.95624999999998 30.369083968792356 79.01999999999998 Q 29.8713789059084 79.08375 29.372084136236587 79.1315625 Q 28.872722640696026 79.179375 28.371861479686864 79.21124999999998 Q 27.870971022192805 79.24312499999999 27.36863985238803 79.25906249999998 Q 27.11747154013169 79.26703124999999 26.865949203155015 79.27101562499999 Q 26.614426412656712 79.27499999999999 26.362551412656714 79.27499999999999 L 26.362551412656714 79.27499999999999 Q 26.101613912656713 79.27499999999999 25.845383602001068 79.2701513671875 Q 25.589152619645994 79.265302734375 25.33762613779762 79.25560546874999 Q 25.08609696303366 79.245908203125 24.839266892758218 79.2313623046875 Q 24.59243074051587 79.21681640624999 24.350285552971574 79.19742187499999 Q 23.86596253764929 79.15863281249999 23.40033342831795 79.10044921874999 Q 22.93460504089564 79.042265625 22.487436259672528 78.9646875 Q 22.040087397716082 78.887109375 21.611113738512106 78.79013671874999 Q 21.181851592740962 78.69316406249999 20.770725721013726 78.57679687499999 Q 20.35917212696463 78.46042968749998 19.965456025868974 78.32466796874999 Q 19.571138381518324 78.18890624999999 19.194293510318037 78.03375 Q 18.81663453239219 77.87859375 18.456011011480413 77.70404296874999 Q 18.094317679092416 77.5294921875 17.74914289769259 77.33554687499999 Q 17.402595018328217 77.14160156249999 17.071962153271844 76.92826171875 Q 16.739601083003887 76.71492187499999 16.42245811943864 76.4821875 Q 16.10317627567646 76.24945312499999 15.798316231675532 75.99732421875 Q 15.490848150750768 75.74519531249999 15.196901324874533 75.473671875 Q 14.89981713499475 75.20214843749999 14.615246314754877 74.91123046874999 Q 14.326948612445438 74.62031249999998 14.050048296529528 74.30999999999999 Q 13.76877352499407 73.9996875 13.496277173626343 73.67396484374999 Q 13.21882822024931 73.34824218749999 12.949097313530231 73.00710937499998 Q 12.673810413019464 72.66597656249999 12.40512716018914 72.30943359374999 Q 12.130268915440686 71.952890625 11.860858362911328 71.58093749999999 Q 11.584650483985763 71.20898437499997 11.31270881327994 70.82162109374997 Q 11.033359237661706 70.43425781249998 10.75708870002157 70.03148437499999 Q 10.472829478147007 69.62871093749999 10.190480268183297 69.21052734374999 Q 9.899612431589532 68.79234374999999 9.609531607808059 68.35874999999999 Q 9.310477018301281 67.92515624999999 9.011164328994766 67.47615234374999 Q 8.702524231947312 67.02714843749999 8.392694397635683 66.56273437499999 Q 8.073314068728648 66.09832031249998 7.751964706146073 65.61849609374997 Q 7.42100318895908 65.13867187499997 7.087487138551033 64.64343749999999 Q 6.744490624062708 64.148203125 6.39859096884763 63.637558593749986 Q 6.043567874969994 63.12691406249999 5.685573423770496 62.600859374999985 Q 5.319068706234219 62.07480468749999 4.949847174348564 61.53333984374999 Q 4.573012857962213 60.99187499999999 4.194078434973188 60.43499999999999 Q 3.808736821098961 59.87812499999998 3.4231368287270945 59.310468749999984 Q 3.0327316068365096 58.74281249999999 2.6436161414735153 58.164374999999986 Q 2.2515513470977324 57.585937499999986 1.8626452762437156 56.99671874999999 Q 1.4728863439421764 56.407499999999985 1.0884643107375587 55.80749999999999 Q 0.7055041168318077 55.20749999999999 0.3303460934623067 54.59671874999998 Q -0.040849190312227446 53.98593749999998 -0.40152343287523784 53.36437499999998 Q -0.7555900811525147 52.742812499999985 -1.0962087296557497 52.11046874999998 Q -1.427483651571257 51.47812499999999 -1.7422333447630118 50.834999999999994 Q -2.0448748721128993 50.19187499999999 -2.327833671147147 49.53796875 Q -2.5959642632332534 48.8840625 -2.8412559268141586 48.21937499999999 Q -3.069125141143893 47.55468749999999 -3.2710925013820464 46.87921874999999 Q -3.4532574992701073 46.20374999999999 -3.6066516013681547 45.51749999999999 Q -3.7381712921442474 44.83125 -3.838351760729694 44.13421874999999 Q -3.914989475428664 43.437187499999986 -3.9581303459618273 42.72937499999999 Q -3.976558719461436 42.02156249999999 -3.9598527786973814 41.30296874999999 Q -3.9178533671384907 40.58437499999999 -3.8397069462872233 39.85499999999999 L -3.8397069462872233 39.85499999999999 Q -3.7363560827147166 39.12562499999999 -3.5992605076075916 38.406855468749995 Q -3.4391488149257925 37.68808593749999 -3.248397346793947 36.97992187499999 Q -3.0372659435423586 36.27175781249999 -2.798920127027418 35.57419921874999 Q -2.543160956789798 34.87664062499999 -2.2638046892266392 34.18968749999999 Q -1.9702177688793308 33.50273437499999 -1.6567224834318608 32.82638671874999 Q -1.3322876804825068 32.150039062499985 -0.9915950910010656 31.484296874999988 Q -0.6432641505257225 30.81855468749999 -0.28219146538932893 30.163417968749986 Q 0.08329552323668543 29.50828124999999 0.4582245018271463 28.86374999999999 Q 0.8344954612529126 28.21921874999999 1.2171913249308415 27.585292968749986 Q 1.5983699622049103 26.95136718749999 1.9832899917926057 26.328046874999988 Q 2.364094754683124 25.704726562499985 2.746326825994257 25.092011718749983 Q 3.1221418106804304 24.479296874999985 3.4974611148667956 23.87718749999999 Q 3.8643805073325606 23.275078124999986 4.2292810062599955 22.68357421874999 Q 4.584129269953429 22.09207031249999 4.935832342525582 21.511171874999988 Q 5.276162817853775 20.930273437499988 5.612605918258544 20.35998046874999 Q 5.936680788470907 19.78968749999999 6.256489147460858 19.22999999999999 Q 6.563444954691116 18.669374999999988 6.864505404826161 18.123749999999987 Q 7.152287213425264 17.57812499999999 7.434866830399988 17.047499999999985 Q 7.704266589903584 16.516874999999988 7.969430484706734 16.001249999999988 Q 8.221749164722219 15.485624999999988 8.47101445765545 14.984999999999987 Q 8.707961241108926 14.484374999999986 8.943198816433323 13.998749999999989 Q 9.166794587129887 13.513124999999988 9.390136409530989 13.042499999999986 Q 9.6026238370762 12.571874999999986 9.816377771512407 12.116249999999987 Q 10.020139640948486 11.660624999999989 10.226713098515237 11.21999999999999 Q 10.424199944384542 10.779374999999991 10.626033131491939 10.353749999999991 Q 10.819700726155542 9.928124999999993 11.019209809215905 9.517499999999993 Q 11.211466627260425 9.106874999999993 11.410996741871507 8.711249999999993 Q 11.604161175996005 8.315624999999994 11.805948906042348 7.934999999999995 Q 12.00221574117505 7.554374999999996 12.208360464221032 7.188749999999997 Q 12.409775919569471 6.823124999999997 12.622219253266813 6.472499999999998 Q 12.830663768752085 6.121874999999998 13.051176250414187 5.78625 Q 13.268354115800454 5.450625000000001 13.498528194935878 5.130000000000003 Q 13.725963087968314 4.809375000000003 13.968043358822749 4.508789062500003 Q 14.207980894380844 4.2082031250000025 14.463397331062456 3.9276562500000023 Q 14.717171031684384 3.6471093750000017 14.98711339018404 3.3866015625000014 Q 15.255824317744072 3.1260937500000012 15.541264085100064 2.8856250000000014 Q 15.825803946338795 2.645156250000001 16.12751828819628 2.424726562500001 Q 16.42859400327965 2.2042968750000007 16.747190561021355 2.003906250000001 Q 17.065349241540112 1.803515625000001 17.40129084211304 1.6231640625000008 Q 17.736944329424283 1.4428125000000007 18.090572863936302 1.2825000000000006 Q 18.444021162126525 1.1221875000000006 18.81558005937835 0.9819140625000006 Q 19.187033156522443 0.8416406250000004 19.576688023038507 0.7214062500000004 Q 19.966285728787746 0.6011718750000004 20.37414284736464 0.5009765625000002 Q 20.781972384567677 0.4007812500000002 21.208094859822822 0.32062500000000016 Q 21.634206034259734 0.24046875000000012 22.0786274479633 0.1803515625000001 Q 22.523045285489914 0.12023437500000006 22.98578077903171 0.08015625000000004 Q 23.448515566128783 0.04007812500000002 23.929570305141088 0.02003906250000001 Q 24.410624999999996 0 24.909999999999997 0 L 24.909999999999997 0 Q 25.378749999999997 0 25.862031242246942 0.020390624999999774 Q 26.345312437975625 0.04078124999999955 26.84312450380656 0.0815624999999991 Q 27.34093582535574 0.12234374999999864 27.853275598140904 0.18351562499999796 Q 28.36561160321729 0.24468749999999728 28.892468245576012 0.3262499999999964 Q 29.419312981932773 0.40781249999999547 29.960660127957123 0.5097656249999943 Q 30.23132316699147 0.5607421874999938 30.505605753386277 0.6168164062499931 Q 30.779877706350522 0.6728906249999925 31.057763393797693 0.7340624999999918 Q 31.33563402607057 0.7952343749999912 31.61711085357473 0.8615039062499905 Q 31.898566953330942 0.9277734374999898 32.18361967283113 0.9991406249999889 Q 32.46864452717219 1.070507812499988 32.75725405552146 1.1469726562499873 Q 33.04582688689257 1.2234374999999864 33.337969718842096 1.3049999999999855 Q 33.63027834817127 1.3856249999999855 33.9245470533838 1.4721679687499853 Q 34.2187555287678 1.5587109374999852 34.51490055562876 1.6511718749999855 Q 34.810968563385835 1.7436328124999856 35.10894484188851 1.8420117187499854 Q 35.40682398259705 1.9403906249999854 35.70657775496461 2.0446874999999856 Q 36.0062105358685 2.1489843749999857 36.307678320679926 2.259199218749986 Q 36.60899710381443 2.369414062499986 36.9121046190799 2.485546874999986 Q 37.21503053114128 2.6016796874999857 37.51969158292464 2.723730468749986 Q 37.82413339396056 2.8457812499999866 38.13024873825812 2.9737499999999866 Q 38.43610171741295 3.1017187499999865 38.7435579042118 3.235605468749987 Q 39.05070266201855 3.3694921874999872 39.35937087177075 3.509296874999987 Q 39.6676721998365 3.649101562499988 39.977407083993995 3.794824218749988 Q 40.28671280437315 3.940546874999988 40.597351343123975 4.092187499999989 Q 40.907491181204215 4.24382812499999 41.218851573125136 4.401386718749989 Q 41.52963606945436 4.558945312499989 41.84151666943485 4.7224218749999896 Q 42.15273614757939 4.88589843749999 42.464914471060766 5.05529296874999 Q 42.77633808028735 5.224687499999991 43.088569893580136 5.3999999999999915 L 43.088569893580136 5.3999999999999915 L 43.18401191509639 6.426562499999992 L 43.24540873062664 7.453124999999992 L 43.26851031414343 8.479687499999992 L 43.24956433036974 9.506249999999993 L 43.18536490070789 10.532812499999993 L 43.07329426733292 11.559374999999992 L 42.91135681397768 12.585937499999995 L 42.69820500127007 13.612499999999994 L 42.433156879562866 14.639062499999993 L 42.11620495165666 15.665624999999995 L 41.74801627023466 16.692187499999996 L 41.32992376874291 17.718749999999993 L 40.86390893838143 18.745312499999994 L 40.35257607633844 19.771874999999994 L 39.79911843994186 20.7984375 L 39.20727674659385 21.824999999999996 Q 38.941032166140104 21.568124999999995 38.667980176456325 21.322265624999993 Q 38.39284508421147 21.076406249999994 38.11115873358894 20.841562499999995 Q 37.82747033481671 20.606718749999995 37.53750961051091 20.382890624999995 Q 37.24564716732148 20.15906249999999 36.947807748378786 19.946249999999992 Q 36.648181834846305 19.733437499999994 36.342884928438146 19.531640624999994 Q 36.035927676195776 19.329843749999995 35.72361084406902 19.139062499999998 Q 35.40976717850021 18.948281249999997 35.090876141769726 18.768515625 Q 34.770595987957456 18.58875 34.44557737988853 18.42 Q 34.119308800767875 18.25125 33.78216409404153 18.103593749999998 Q 33.44404562681452 17.955937499999997 33.09559200181866 17.829375 Q 32.74641300925475 17.7028125 32.38737326208235 17.59734375 Q 32.027824304667504 17.491874999999997 31.65881690608483 17.407499999999995 Q 31.2894809029543 17.323124999999994 30.91101255678528 17.259843749999995 Q 30.532358241752245 17.196562499999995 30.14481848409866 17.154374999999995 Q 29.757195728876454 17.11218749999999 29.36085318503342 17.09109374999999 Q 28.96448984145402 17.069999999999993 28.55948984145402 17.069999999999993 L 28.55948984145402 17.069999999999993 Z" fill="black" stroke="black" />
				</svg>