<svg
					xmlns="http://www.w3.org/2000/svg" xmlns:xlink="http://www.w3.org/1999/xlink"
					style="
						overflow: visible;
						height: 100;
					"
					viewBox="-3.998586910858507 0 48.85574046751035 77.115"
				>
					<path d="M 40.355436038483944 36.94499999999999 L 40.355436038483944 36.94499999999999 Q 40.25295841075803 37.36312499999999 40.15546075759264 37.77694335937498 Q 40.06532170793904 38.19076171874998 39.98023951637249 38.600273437499986 Q 39.90270598237413 39.00978515624999 39.8302217098075 39.41499023437499 Q 39.765399075736234 39.82019531249999 39.70553889338589 40.22109374999999 Q 39.6533803039067 40.621992187499984 39.606023940688345 41.018583984374985 Q 39.56634065979475 41.415175781249985 39.53123217345363 41.80746093749998 Q 39.5037047672881 42.199746093749994 39.48046402687317 42.58772460937499 Q 39.46465415898557 42.975703124999995 39.4527888337666 43.359374999999986 Q 39.44815147335905 43.74304687499999 39.44706933615842 44.122412109374984 Q 39.45296519353343 44.501777343749986 39.461986560777305 44.87683593749999 Q 39.50000516706519 45.626953124999986 39.547695874450106 46.35984374999999 Q 39.619386351008615 47.09273437499999 39.69666824840245 47.80839843749999 Q 39.79481894710428 48.52406249999999 39.89429134068497 49.22249999999998 Q 40.01126936138745 49.92093749999998 40.12528331254683 50.60214843749998 Q 40.253353826686805 51.28335937499998 40.3743063775157 51.94734374999999 Q 40.50590640495542 52.611328125 40.626487273858814 53.2580859375 Q 40.75445028126701 53.90484374999999 40.86783900413658 54.534375 Q 40.98556963661233 55.16390625 41.08558376798656 55.7762109375 Q 41.187184402688054 56.388515625 41.2683814604586 56.98359375 Q 41.34873407877846 57.57867187499999 41.40647143046731 58.1565234375 Q 41.46127957364732 58.734375 41.4917374648577 59.295 Q 41.51753381980405 59.855625 41.520033105344964 60.39849609375 Q 41.516496943136886 60.9413671875 41.488853794728875 61.46648437500001 Q 41.45413668149903 61.99160156250001 41.394909310295986 62.49896484375001 Q 41.32787859518248 63.006328124999996 41.236296103556384 63.4959375 Q 41.13645858106496 63.985546875 41.0123411036872 64.45740234375 Q 40.879760111108624 64.9292578125 40.72343469123717 65.383359375 Q 40.558644762849646 65.8374609375 40.37086067411234 66.27380859375 Q 40.174783130536696 66.71015625 39.95662961980944 67.12875 Q 39.7304917457528 67.54734375 39.48332047251251 67.94818359375 Q 39.22858025809017 68.34902343750001 38.9539340636421 68.73210937500001 Q 38.67221187310355 69.11519531249999 38.37176094453218 69.48052734375 Q 38.06477894316494 69.845859375 37.74026494971668 70.1934375 Q 37.409794670033584 70.541015625 37.06298304608966 70.87083984375 Q 36.71080110803395 71.2006640625 36.34344133460807 71.51273437500001 Q 35.9712930474973 71.8248046875 35.58508653782634 72.11912109375001 Q 35.19465689748691 72.41343750000001 34.79123191418639 72.69000000000001 Q 34.38412335891865 72.96656250000001 33.967106695262366 73.22583984375001 Q 33.5469018447844 73.48511718750001 33.11769215071447 73.72710937500001 Q 32.68575430338314 73.96910156250001 32.24564256565105 74.19380859374999 Q 31.803224479347726 74.418515625 31.353389474585054 74.62593749999999 Q 30.901630293041745 74.833359375 30.443137186148185 75.02349609375 Q 29.98306222236863 75.2136328125 29.516863653341623 75.386484375 Q 29.049386393813574 75.5593359375 28.576325447788093 75.71490234375 Q 28.102251196518623 75.87046875 27.62306571012763 76.00874999999999 Q 27.143096351812392 76.14703125 26.65842407042633 76.26802734374999 Q 26.173163494079255 76.38902343750001 25.683547656272168 76.492734375 Q 25.193507441981932 76.5964453125 24.69940242768741 76.68287109375 Q 24.205007458127554 76.769296875 23.70678419403498 76.8384375 Q 23.208377907853407 76.90757812499999 22.706328776869167 76.95943359374999 Q 22.20417783256299 77.0112890625 21.69852088331589 77.04585937499999 Q 21.44567556779068 77.06314453125 21.191971728351806 77.0761083984375 Q 20.938261595167344 77.08907226562499 20.683701347036646 77.09771484375 Q 20.429138307465845 77.10635742187499 20.173730741614268 77.11067871093749 Q 19.91832247877162 77.115 19.66207247877162 77.115 L 19.66207247877162 77.115 L 19.14207247877162 77.115 L 18.62207247877162 77.115 L 18.10207247877162 77.115 L 17.582072478771618 77.115 L 17.06207247877162 77.115 L 16.54207247877162 77.115 L 16.02207247877162 77.115 L 15.50207247877162 77.115 L 14.98207247877162 77.115 L 14.46207247877162 77.115 L 13.942072478771621 77.115 L 13.422072478771618 77.115 L 12.902072478771618 77.115 L 12.382072478771619 77.115 L 11.86207247877162 77.115 L 11.34207247877162 77.115 L 10.82207247877162 77.115 L 10.302072478771619 77.115 L 9.782072478771617 77.115 L 9.262072478771618 77.115 L 8.742072478771618 77.115 L 8.222072478771619 77.115 L 7.702072478771618 77.115 L 7.182072478771619 77.115 L 6.662072478771618 77.115 L 6.1420724787716185 77.115 L 5.622072478771619 77.115 L 5.1020724787716185 77.115 L 4.582072478771618 77.115 L 4.0620724787716185 77.115 L 3.5420724787716185 77.115 L 3.0220724787716184 77.115 L 3.3448166743295573 75.910078125 L 3.60769817089683 74.70515625 L 3.8060121378559684 73.500234375 L 3.936209319607756 72.2953125 L 3.995959557145134 71.090390625 L 3.9841934912677104 69.88546875 L 3.901121701068005 68.680546875 L 3.74823093516501 67.47562500000001 L 3.5282575031352557 66.27070312500001 L 3.2451383033590298 65.06578125 L 2.903940363743948 63.86085937499999 L 2.5107701563463647 62.65593749999999 L 2.072664308900818 61.451015625 L 1.5974636692101096 60.24609375 L 1.0936729762849824 59.041171875 L 0.570308649720665 57.83624999999999 L 0.03673742144720003 56.63132812499999 L -0.49749130211401965 55.42640624999999 L -1.0228163472472116 54.221484374999996 L -1.5298358907402427 53.0165625 L -2.009475725762151 51.811640625 L -2.453151664339886 50.60671875 L -2.8529231698920774 49.40179687499999 L -3.201635470234768 48.19687499999999 L -3.493047607640757 46.991953124999995 L -3.7219441342208803 45.78703124999999 L -3.8842284535978746 44.58210937499999 L -3.9769961383224457 43.37718749999999 L -3.998586910858507 42.172265624999994 L -3.9486143578258495 40.96734375 L -3.827972845699905 39.762421874999994 L -3.638821514197242 38.5575 L -3.3845456338196245 37.352578125 L -3.069696019146654 36.14765625 L -2.6999075822065866 34.942734375 L -2.2817984835882132 33.737812500000004 L -1.8228516862018587 32.532890625 L -1.3312810315400971 31.327968749999997 L -0.8158842352919584 30.123046875 L -0.2858854332707198 28.918124999999996 L 0.24922990436487516 27.713203124999996 L 0.7798847360304476 26.50828125 L 1.2965818505037172 25.303359375 L 1.7900738399759213 24.098437499999996 L 2.2515286023331247 22.893515624999996 L 2.6726874106475402 21.688593749999995 L 3.0460127208848764 20.483671875 L 3.3648230724904042 19.27875 L 3.6234126675171865 18.073828125 L 3.8171534881704052 16.868906250000002 L 3.9425781251543635 15.663984374999998 L 3.9974418344304996 14.459062499999998 L 3.980762711747046 13.254140625 L 3.8928392659305975 12.049218749999998 L 3.735245076427682 10.844296874999998 L 3.51080063071114 9.639375 L 3.223522845581574 8.434453125000001 L 2.878553175788927 7.229531249999999 L 2.482065596625236 6.024609374999999 L 2.041156107338283 4.8196875 L 1.5637157329405533 3.6147656249999995 L 1.0582892973196787 2.40984375 L 0.533922495209754 1.204921875 L 0 0 L 0.5559375 0 L 1.111875 0 L 1.6678125 0 L 2.22375 0 L 2.7796874999999996 0 L 3.335625 0 L 3.8915625 0 L 4.4475 0 L 5.0034374999999995 0 L 5.559374999999999 0 L 6.1153125 0 L 6.67125 0 L 7.227187499999999 0 L 7.783125 0 L 8.3390625 0 L 8.895 0 L 9.450937499999998 0 L 10.006874999999999 0 L 10.5628125 0 L 11.118749999999999 0 L 11.6746875 0 L 12.230625 0 L 12.786562499999999 0 L 13.3425 0 L 13.8984375 0 L 14.454374999999999 0 L 15.0103125 0 L 15.56625 0 L 16.122187500000003 0 L 16.678125 0 L 17.2340625 0 L 17.79 0 Q 18.1790625 0 18.56663736905914 0.009287109375000005 Q 18.954212233723126 0.01857421875000001 19.340299432285057 0.03714843750000002 Q 19.72638656052474 0.05572265625000003 20.110985794116033 0.08358398437500004 Q 20.495584671705217 0.11144531250000006 20.878694916282104 0.14859375000000008 Q 21.26180403575216 0.1857421875000001 21.64342279945774 0.2321777343750001 Q 22.02503881650254 0.2786132812500002 22.405161138136915 0.3343359375000002 Q 22.7852777649793 0.3900585937500002 23.163894949886128 0.4550683593750003 Q 23.542501586568935 0.5200781250000003 23.91959968130946 0.5943750000000003 Q 24.296679786682915 0.6686718750000004 24.672237794873258 0.7522558593750004 Q 25.047767000227154 0.8358398437500005 25.421754843325537 0.9287109375000004 Q 25.79569881322773 1.0215820312500004 26.168075041942572 1.1237402343750005 Q 26.54038708896116 1.2258984375000006 26.91109635337474 1.3373437500000007 Q 27.281714816044378 1.4487890625000008 27.650685105571164 1.5695214843750007 Q 28.019530502273422 1.6902539062500008 28.386670170254295 1.8202734375000011 Q 28.753642145672305 1.9502929687500012 29.118836737796236 2.0895996093750013 Q 29.483810823320965 2.2289062500000014 29.846919734204647 2.3775000000000013 Q 30.209743949150365 2.526093750000001 30.57059693732388 2.6839746093750017 Q 30.93108826407668 2.8418554687500017 31.289481862334434 3.0090234375000016 Q 31.647422635617286 3.1761914062500023 32.0031165011944 3.3526464843750023 Q 32.358250759472156 3.5291015625000024 32.71096401677304 3.7148437500000018 Q 33.06299387240478 3.9005859375000016 33.4124015099909 4.095615234375002 Q 33.76098360400003 4.290644531250002 34.10671299715643 4.494960937500002 Q 34.45145511433426 4.699277343750003 34.79308275466264 4.912880859375003 Q 35.13354068501301 5.126484375000003 35.470589208985224 5.349375000000003 Q 35.80626395208043 5.572265625000003 36.138199571129014 5.804443359375003 Q 36.46853499055521 6.036621093750003 36.794765435825745 6.278085937500003 Q 37.11914648127576 6.519550781250003 37.43901958631418 6.7703027343750035 Q 37.75677121070568 7.021054687500004 38.069574264742805 7.281093750000005 Q 38.37996117261372 7.541132812500005 38.68492118531709 7.810458984375005 Q 38.98714855623035 8.079785156250004 39.28343358134296 8.358398437500005 Q 39.57664891761335 8.637011718750005 39.86337058725098 8.924912109375004 Q 40.146666838425226 9.212812500000005 40.42288426136661 9.510000000000005 Q 40.69520796428352 9.806718750000005 40.95872176948396 10.111684570312505 Q 41.21809497282791 10.416650390625005 41.46807600700025 10.729863281250005 Q 41.71355599460716 11.043076171875004 41.94904540837598 11.364536132812505 Q 42.1796725500296 11.685996093750004 42.399699949114954 12.015703125000005 Q 42.61450814703797 12.345410156250004 42.818102929499474 12.683364257812503 Q 43.016131643768624 13.021318359375002 43.202335934167195 13.367519531250002 Q 43.382643802823814 13.713720703125002 43.55052698309907 14.068168945312504 Q 43.71220702128835 14.422617187500002 43.86088182382061 14.785312500000003 Q 44.00307814953545 15.148007812500005 44.13171823815608 15.518950195312506 Q 44.25364423003669 15.889892578125005 44.36150314969708 16.269082031250004 Q 44.462460894950354 16.648271484375 44.54889222055213 17.035708007812502 Q 44.628293058685266 17.423144531250003 44.69277151859788 17.818828125000003 Q 44.750157429797405 18.214511718750003 44.792300720454584 18.618442382812503 Q 44.82736624681021 19.022373046875003 44.84695719234462 19.434550781250003 Q 44.85957151670394 19.846728515625003 44.85658016298727 20.267153320312502 Q 44.846808905307306 20.687578125 44.82141407244565 21.11625 Q 44.78954029866037 21.544921875 44.74215005170129 21.9818408203125 Q 44.6886939272459 22.418759765624998 44.61996436365162 22.863925781249996 Q 44.54570082509168 23.309091796875 44.45655252180901 23.7625048828125 Q 44.3625262880411 24.21591796875 44.254157703440036 24.677578124999997 Q 44.14169490547605 25.139238281249995 44.01559199499543 25.609145507812492 Q 43.88630767347995 26.079052734374994 43.74424895569394 26.557207031249995 Q 43.60004966129423 27.035361328125 43.44410596663898 27.521762695312496 Q 43.287186703667196 28.008164062499997 43.11971485465716 28.502812499999997 Q 42.952549636134556 28.997460937499998 42.77617934892614 29.500356445312498 Q 42.60150468507934 30.003251953125 42.41911805091135 30.514394531249998 Q 42.239908775860805 31.025537109374998 42.05461178009728 31.544926757812497 Q 41.87404873591103 32.06431640625 41.68913440451377 32.591953124999996 Q 41.51056364992147 33.11958984375 41.32946657987569 33.655473632812495 Q 41.15634997404263 34.191357421875 40.982592206339284 34.73548828124999 Q 40.8184494364628 35.27961914062499 40.65557786737732 35.83199707031249 Q 40.50392024154414 36.38437499999999 40.355436038483944 36.94499999999999 L 40.355436038483944 36.94499999999999 Z M 25.776812489270178 37.69499999999999 L 25.776812489270178 37.69499999999999 Q 25.9306637628275 37.043437499999996 26.085203906015373 36.412236328125 Q 26.255200889415935 35.78103515625 26.422192005633324 35.1701953125 Q 26.601954896180565 34.55935546875 26.775211455216866 33.968876953125 Q 26.9586461699905 33.378398437499996 27.13235204990311 32.80828124999999 Q 27.31380369572618 32.23816406249999 27.482641160752287 31.688408203124993 Q 27.657003773192795 31.13865234374999 27.81624097414662 30.609257812499987 Q 27.979027584156935 30.079863281249985 28.124569173151933 29.570830078124985 Q 28.271947203416662 29.061796874999985 28.40035334041797 28.573124999999987 Q 28.52915081211478 28.08445312499999 28.637630108377955 27.616142578124986 Q 28.745318239229437 27.147832031249987 28.831700118855636 26.699882812499983 Q 28.91635770133095 26.251933593749982 28.979049350624052 25.824345703124987 Q 29.039313895835623 25.396757812499985 29.07724648718627 24.989531249999985 Q 29.11225657748727 24.582304687499985 29.124824866455086 24.195439453124987 Q 29.13415753927814 23.808574218749982 29.1211562954838 23.442070312499986 Q 29.10476263238372 23.075566406249987 29.066322720402358 22.729423828124986 Q 29.024464177100683 22.383281249999985 28.96099048553743 22.057499999999987 Q 28.89417789908893 21.731718749999988 28.806290747382707 21.426298828124988 Q 28.71522741425926 21.120878906249988 28.603708562030445 20.835820312499987 Q 28.48923830704836 20.550761718749985 28.354982257559602 20.286064453124986 Q 28.21804301300429 20.021367187499987 28.062013942651372 19.777031249999986 Q 27.90359702970669 19.53269531249999 27.726791387423184 19.308720703124987 Q 27.547906434627212 19.084746093749985 27.351321033843405 18.881132812499985 Q 27.152966273958114 18.677519531249985 26.937571538663917 18.494267578124983 Q 26.720709088867622 18.311015624999982 26.487427006799653 18.148124999999986 Q 26.25296264967199 17.985234374999987 26.00264892179919 17.842705078124986 Q 25.751415858317067 17.700175781249982 25.48484570696578 17.578007812499983 Q 25.217591740198877 17.455839843749985 24.935448841216544 17.354033203124985 Q 24.652826463801677 17.252226562499985 24.355694494751866 17.170781249999983 Q 24.05825338856511 17.089335937499982 23.746609729592954 17.028251953124986 Q 23.43479123725182 16.967167968749987 23.109002419376885 16.926445312499986 Q 22.78313561010943 16.885722656249982 22.443454173575237 16.865361328124983 Q 22.10375319723879 16.844999999999985 21.750315697238793 16.844999999999985 L 21.750315697238793 16.844999999999985 L 21.246565697238793 16.844999999999985 L 20.742815697238793 16.844999999999985 L 20.239065697238793 16.844999999999985 L 19.735315697238793 16.844999999999985 L 19.231565697238796 16.844999999999985 L 18.727815697238796 16.844999999999985 L 18.224065697238796 16.844999999999985 L 17.720315697238796 16.844999999999985 L 17.500272774051204 18.194999999999986 L 17.19937548608599 19.544999999999987 L 16.824381337734795 20.894999999999985 L 16.38371188913017 22.244999999999987 L 15.887263626060802 23.594999999999988 L 15.34618570623629 24.944999999999986 L 14.772629573241101 26.29499999999999 L 14.179476061308655 27.64499999999999 L 13.580046119553856 28.994999999999987 L 12.987801652174237 30.34499999999999 L 12.416043193103832 31.694999999999993 L 11.877611204695262 33.04499999999999 L 11.384597708617687 34.39499999999999 L 10.948074725118977 35.74499999999999 L 10.577845619320797 37.095 L 10.282224938772787 38.44499999999999 L 10.067851686639674 39.79499999999999 L 9.939540224003062 41.144999999999996 L 9.900172149690668 42.495 L 9.950631585779018 43.845 L 10.089785322117653 45.19499999999999 L 10.314508265786065 46.544999999999995 L 10.619753623943385 47.894999999999996 L 10.998666243915345 49.245 L 11.442736565144509 50.595 L 11.941991725574885 51.94499999999999 L 12.485219530633474 53.295 L 13.06022025494831 54.644999999999996 L 13.6540806218793 55.995 L 14.25346380787216 57.345000000000006 L 14.844908958762968 58.69500000000001 L 15.4151334915428 60.045 L 16.1901334915428 60.045 L 16.9651334915428 60.045 L 17.7401334915428 60.045 L 18.515133491542798 60.045 Q 18.910758491542797 60.045 19.284330916571477 60.02349609375 Q 19.65789474243351 60.0019921875 20.00937179898392 59.958984375 Q 20.360815066332933 59.9159765625 20.690105000741692 59.851464843749994 Q 21.019321196078657 59.786953125 21.326288798409813 59.700937499999995 Q 21.6331310314979 59.61492187499999 21.917606278778603 59.50740234374999 Q 22.201897212667042 59.39988281249999 22.46368714817635 59.270859375 Q 22.725232211939417 59.141835937500005 22.964136173478565 58.991308593750006 Q 23.202740171888678 58.84078125 23.418568480901122 58.668749999999996 Q 23.634055704907357 58.49671874999999 23.82665190497266 58.30318359374999 Q 24.018889811944184 58.109648437499985 24.188156494392242 57.89460937499999 Q 24.357082962432347 57.6795703125 24.50301113343601 57.44302734374999 Q 24.648665194555065 57.20648437499999 24.771367017066666 56.94843749999998 Q 24.89392283482012 56.69039062499998 24.9936674156322 56.41083984374998 Q 25.093471089873816 56.13128906249999 25.17072277336417 55.83023437499998 Q 25.248331325120617 55.529179687499976 25.30378969886175 55.20662109374998 Q 25.360011310914615 54.884062499999985 25.394651824486555 54.53999999999998 Q 25.431211089557806 54.195937499999985 25.44804349419669 53.82908203124999 Q 25.466853485725526 53.462226562499986 25.46694665651705 53.072578124999986 Q 25.469863729151115 52.682929687499986 25.45532716261392 52.27048828124999 Q 25.444634383868557 51.858046874999985 25.418022903576016 51.42281249999998 Q 25.39645480979873 50.987578124999985 25.360786631070575 50.52955078124998 Q 25.331540627639235 50.071523437499984 25.290299784668893 49.590703124999976 Q 25.257030041214918 49.109882812499976 25.214148844888005 48.606269531249986 Q 25.180938272510996 48.10265624999998 25.140755299545045 47.57624999999999 Q 25.112061132182905 47.049843749999994 25.07925031704142 46.50064453124999 Q 25.059819027793534 45.95144531249999 25.039285816096996 45.37945312499999 Q 25.0340336610702 44.80746093749999 25.030774967854505 44.21267578125 Q 25.044631444983285 43.617890624999994 25.06355742086864 43.00031249999999 Q 25.101270432292658 42.382734375 25.146987841672814 41.74236328125 Q 25.21289141260309 41.1019921875 25.28945081457694 40.438828125 Q 25.387198878405222 39.7756640625 25.49781078294155 39.08970703125 Q 25.630083779778662 38.403749999999995 25.776812489270178 37.69499999999999 L 25.776812489270178 37.69499999999999 Z" fill="black" stroke="black" />
				</svg>