<svg
					xmlns="http://www.w3.org/2000/svg" xmlns:xlink="http://www.w3.org/1999/xlink"
					style="
						overflow: visible;
						height: 100;
					"
					viewBox="-3.998365063102449 0 33.488363147714416 101.30999999999999"
				>
					<path d="M 3.3355657112994406 101.30999999999999 L 3.3355657112994406 101.30999999999999 Q 3.039315711299441 101.30999999999999 2.751849783740268 101.30484374999997 Q 2.464385124811841 101.29968749999998 2.1857096136209977 101.28937499999998 Q 1.9070391792702757 101.2790625 1.6371680501791341 101.26359375 Q 1.3673083525925214 101.24812499999999 1.1062632136696684 101.22749999999998 Q 0.5842339792739724 101.18624999999997 0.09759291390079561 101.12437499999999 Q -0.38886452963414175 101.0625 -0.8396882940984596 100.97999999999999 Q -1.2873280386796164 100.90124999999998 -1.7066021115980239 100.81499999999997 Q -2.1255166002429418 100.72874999999999 -2.5159388994241483 100.63499999999999 Q -2.9059346682933933 100.54124999999999 -3.267300082995244 100.43999999999997 Q -3.628166081000782 100.33874999999998 -3.9602518858089133 100.22999999999999 L -3.9602518858089133 100.22999999999999 L -3.998365063102449 99.2175 L -3.985927281785899 98.205 L -3.9230957915747355 97.1925 L -3.8106649651715396 96.18 L -3.6500562550856013 95.16750000000002 L -3.4433002223406954 94.155 L -3.1930108642804194 93.1425 L -2.9023525660422402 92.13 L -2.5750000935297344 91.1175 L -2.215092133688118 90.10500000000002 L -1.8271789694691067 89.09250000000002 L -1.4161649510256473 88.08000000000001 L -0.9872464904678389 87.0675 L -0.5458463641066476 86.055 L -0.09754515279599682 85.04250000000002 L 0.3519893128333097 84.03000000000002 Q 0.604612058335241 84.10875000000001 0.862007345128844 84.1921875 Q 1.119378555181854 84.275625 1.3815232750775288 84.36375 Q 1.6436484340437785 84.451875 1.9105504627947767 84.5446875 Q 2.177439339066726 84.6375 2.449111219842944 84.73500000000001 Q 2.7224451765845488 84.82875000000001 3.0174455788157233 84.89906250000001 Q 3.3124480442945323 84.96937500000001 3.629118442692582 85.01625000000001 Q 3.9457911707716993 85.06312500000001 4.2841285849991255 85.08656250000001 Q 4.622466793506525 85.11000000000001 4.982466793506525 85.11000000000001 L 4.982466793506525 85.11000000000001 Q 5.451216793506524 85.11000000000001 5.905790195948818 85.05679687500002 Q 6.360367229107114 85.00359375000002 6.800778883117273 84.89718750000002 Q 7.241195145821257 84.79078125000001 7.667438721067014 84.63117187500002 Q 8.09365548481962 84.47156250000002 8.505614256344952 84.25875 Q 8.917432909594257 84.04593750000001 9.31474135848343 83.779921875 Q 9.71164573424953 83.51390625 10.093503463625712 83.19468750000001 Q 10.474455814871682 82.87546875000001 10.839397605225418 82.503046875 Q 11.202593573036523 82.130625 11.548223309174789 81.705 Q 11.890815942627814 81.279375 12.231206704987944 80.79890625 Q 12.56666959252301 80.3184375 12.896573341917858 79.783125 Q 13.218962610335035 79.2478125 13.531279675071696 78.65765624999999 Q 13.832718638913985 78.0675 14.11829201813431 77.42249999999999 Q 14.38881896557223 76.77749999999999 14.636362247839482 76.07765624999999 Q 14.863941021744793 75.3778125 15.060169220433906 74.623125 Q 15.148795962872299 74.24578125000001 15.22784566232144 73.8547265625 Q 15.299807981703562 73.463671875 15.360973883861035 73.05890625 Q 15.414330096735434 72.65414062500001 15.455643175508778 72.2356640625 Q 15.488437665593723 71.8171875 15.507936140302618 71.385 L 15.507936140302618 71.385 L 15.515723144437636 70.269609375 L 15.462217496894494 69.15421875 L 15.348239950988454 68.038828125 L 15.175538872601694 66.9234375 L 14.946763421012612 65.808046875 L 14.665422911947015 64.69265625 L 14.335832986204275 63.577265625 L 13.963049409608235 62.461875 L 13.552790519762798 61.346484374999996 L 13.111349509245183 60.23109375 L 12.645497890774372 59.11570312500001 L 12.162381625157078 58.00031250000001 L 11.669411505363223 56.884921875 L 11.174149478191424 55.76953125 L 10.684192647300666 54.654140625 L 10.207056736951007 53.53875000000001 L 9.750060804068822 52.42335937500001 L 9.320214967103254 51.30796875000001 L 8.924112873864239 50.192578125000004 L 8.56783055783866 49.0771875 L 8.256833234484606 47.961796875000005 L 7.995891467208036 46.84640625 L 7.789007988999149 45.731015625 L 7.63935630225275 44.615625 L 7.549231998624517 43.500234375000005 L 7.520017545655458 42.38484375 L 7.552161080322302 41.269453125000005 L 7.6451695348115845 40.15406250000001 L 7.79761619996502 39.038671875000006 L 8.00716261037623 37.92328125 L 8.270594415430947 36.807890625000006 L 8.583870686044628 35.6925 L 8.94218590075353 34.577109375 L 9.340043660319703 33.46171875 L 9.771341000099943 32.346328125 L 10.229462006863706 31.2309375 L 10.707379304018824 30.115546875 L 11.197761848505845 29.000156250000003 L 11.69308738580368 27.884765625 L 12.185757838035693 26.769375000000004 L 12.668215855173063 25.653984375000004 L 13.133060741490693 24.53859375 L 13.573161979014348 23.423203125 L 13.98176860655889 22.3078125 L 14.352612776530746 21.192421875 L 14.680005900978411 20.077031250000005 L 14.958925912052537 18.961640625 L 15.185094298338079 17.84625 L 15.355041735354806 16.730859375 L 15.466161303482885 15.61546875 L 15.516748476973735 14.500078125000002 L 15.506027270632163 13.384687500000002 L 15.434162143091093 12.269296875 L 15.302255474087797 11.15390625 L 15.112330654439155 10.038515625000002 L 14.867301048108324 8.923125 L 14.570925302471206 7.807734375 L 14.227749692303739 6.692343750000001 L 13.84303838190813 5.576953125 L 13.422692675126596 4.4615625 L 12.973160491912264 3.3461718750000005 L 12.50133746004711 2.23078125 L 12.014461139216944 1.115390625 L 11.52 0 L 12.393125 0 L 13.26625 0 L 14.139375000000001 0 L 15.012500000000001 0 L 15.885625000000001 0 L 16.758750000000003 0 L 17.631875 0 L 18.505000000000003 0 L 19.378125000000004 0 L 20.251250000000002 0 L 21.124375 0 L 21.997500000000002 0 L 22.870625000000004 0 L 23.743750000000002 0 L 24.616875 0 L 25.490000000000002 0 L 25.97184780173818 1.086796875 L 26.446677919172302 2.17359375 L 26.90757487432325 3.2603906250000003 L 27.347826113317616 4.3471875 L 27.761019768759546 5.4339843750000005 L 28.141138042871674 6.520781250000001 L 28.48264485136286 7.607578125000001 L 28.78056645156783 8.694375 L 29.030563880581585 9.781171875000002 L 29.228996148391687 10.867968750000001 L 29.37297326565668 11.954765625 L 29.460398333828245 13.041562500000001 L 29.48999808461197 14.128359375000002 L 29.461341423986603 15.215156250000001 L 29.37484571070475 16.301953125 L 29.231770677834152 17.38875 L 29.03420008586692 18.475546875000003 L 28.785011374602917 19.562343750000004 L 28.487833755800445 20.649140625 L 28.146995356937644 21.735937500000002 L 27.767460185888563 22.822734375000003 L 27.354755834567285 23.90953125 L 26.914892974472224 24.996328125000005 L 26.454277816606293 26.083125000000003 L 25.979618810716293 27.169921875 L 25.497828942694017 28.256718750000005 L 25.015925053090523 29.343515625000006 L 24.540925643079696 30.430312500000003 L 24.079748656236333 31.517109375 L 23.639110724846166 32.60390625 L 23.22542934813557 33.690703125000006 L 22.84472942710804 34.7775 L 22.50255551722426 35.864296875 L 22.20389107688745 36.951093750000005 L 21.953085887807887 38.037890625 L 21.75379270430431 39.12468750000001 L 21.608914054188894 40.211484375 L 21.52055996603339 41.29828125 L 21.4900172384813 42.38507812500001 L 21.517730699171086 43.471875000000004 L 21.603296726217593 44.558671875 L 21.74546912660552 45.645468750000006 L 21.94217728588136 46.73226562500001 L 22.190556324809695 47.8190625 L 22.486988823789037 48.90585937500001 L 22.827157507348176 49.99265625000001 L 23.20610812142031 51.07945312500001 L 23.61832158764336 52.166250000000005 L 24.0577943838234 53.253046875 L 24.518125979891213 54.33984375 L 24.99261205592517 55.426640625 L 25.474342144602893 56.51343750000001 L 25.95630027600626 57.600234375000014 L 26.43146715897786 58.68703125000001 L 26.89292241084829 59.77382812500001 L 27.33394534664942 60.860625000000006 L 27.74811285990834 61.947421875 L 28.129392969475482 63.03421875 L 28.472232669960544 64.121015625 L 28.77163880631287 65.2078125 L 29.023250794679956 66.29460937500002 L 29.223404130429632 67.38140625000001 L 29.36918375839795 68.468203125 L 29.45846652807274 69.555 Q 29.485871129253283 70.27687500000002 29.478707596651528 70.9810546875 Q 29.447082360313413 71.68523437500001 29.383464564383285 72.37171875 Q 29.296992818925922 73.058203125 29.181537542315585 73.7269921875 Q 29.04525306071678 74.39578125 28.88326991965956 75.046875 Q 28.702770360627557 75.69796875 28.499989083055954 76.33136718749999 Q 28.281174088016687 76.964765625 28.043499973959506 77.58046875 Q 27.79234036033826 78.196171875 27.52564291354575 78.79417968749999 Q 27.247984750462695 79.39218749999999 26.957922013143104 79.9725 Q 26.659327080064894 80.5528125 26.35120613665583 81.11542968750001 Q 26.0368283868272 81.67804687499999 25.715500848546093 82.22296874999999 Q 25.389997033613657 82.76789062499999 25.059787066107408 83.29511718750001 Q 24.727258608413933 83.82234375 24.391920192639247 84.331875 Q 24.055882682111978 84.84140624999999 23.71858226225754 85.33324218749999 Q 23.381958559554914 85.825078125 23.0452789819359 86.29921875 Q 22.710411776815853 86.773359375 22.376373407530043 87.22980468749999 Q 22.045053158176007 87.68625 21.715148232687447 88.125 Q 21.38865264681284 88.56375 21.065222623070248 88.98714843750001 Q 20.7457432578534 89.41054687500001 20.429503146564134 89.81859375 Q 20.117595456316696 90.226640625 19.808910034149044 90.61933593750001 Q 19.504796325175796 91.01203125 19.20372278072375 91.389375 Q 18.907335545956737 91.76671875 18.613666704436266 92.1287109375 Q 18.324691894354526 92.49070312500001 18.03799871751182 92.83734375 Q 17.755917770611664 93.18398437500001 17.475590105527218 93.51527343750001 Q 17.199719830526522 93.8465625 16.925004636792764 94.16250000000001 Q 16.65453428357989 94.47843750000001 16.38457079782587 94.77902343750002 Q 16.118595871079975 95.07960937500002 15.852447368302839 95.36484375 Q 15.589999924888783 95.65007812500002 15.326681906592707 95.91996093750001 Q 15.066757235035933 96.18984375000001 14.805262015227948 96.44437500000002 Q 14.54684172378844 96.69890625000002 14.286159496926949 96.9380859375 Q 14.028231137887829 97.17726562500002 13.767367700137104 97.40109375000002 Q 13.508941134366978 97.62492187500001 13.246932493647748 97.83339843750001 Q 12.987053254096335 98.04187500000002 12.72297740834199 98.23500000000001 Q 12.460136995809812 98.4271875 12.194283916410171 98.60736328125 Q 11.930032678442783 98.7875390625 11.662344242354571 98.95570312500001 Q 11.396052266794651 99.1238671875 11.12592421178563 99.28001953125 Q 10.856999492397716 99.43617187500001 10.583867008258292 99.5803125 Q 10.311758068514433 99.724453125 10.035097955432281 99.85658203125001 Q 9.759295679955768 99.9887109375 9.478627791722449 100.108828125 Q 9.19866659854549 100.2289453125 8.913554699213847 100.33705078125001 Q 8.629013177925804 100.44515625 8.339065331706607 100.54125 Q 8.049566463201625 100.63734375000001 7.754435067503817 100.72142578125 Q 7.459646130793596 100.8055078125 7.159027691744184 100.87757812500001 Q 6.8586599525171925 100.9496484375 6.552294691337131 101.00970703124999 Q 6.2461029558802705 101.06976562499999 5.93377432336523 101.11781249999999 Q 5.621556430311871 101.165859375 5.30309059553183 101.20189453124999 Q 4.984686906795822 101.23792968749997 4.659952275091424 101.26195312499999 Q 4.335245216373653 101.2859765625 4.004152020847714 101.29798828124999 Q 3.67306571129944 101.30999999999999 3.3355657112994406 101.30999999999999 L 3.3355657112994406 101.30999999999999 Z" fill="black" stroke="black" />
				</svg>