<svg
					xmlns="http://www.w3.org/2000/svg" xmlns:xlink="http://www.w3.org/1999/xlink"
					style="
						overflow: visible;
						height: 100;
					"
					viewBox="-3.998586910858507 0 66.536028745289 77.115"
				>
					<path d="M 38.66207247877162 77.115 L 37.83457247877162 77.115 L 37.00707247877162 77.115 L 36.17957247877162 77.115 L 35.35207247877162 77.115 L 34.52457247877162 77.115 L 33.69707247877162 77.115 L 32.86957247877162 77.115 L 32.04207247877162 77.115 L 31.214572478771622 77.115 L 30.38707247877162 77.115 L 29.55957247877162 77.115 L 28.73207247877162 77.115 L 27.90457247877162 77.115 L 27.07707247877162 77.115 L 26.24957247877162 77.115 L 25.42207247877162 77.115 L 25.49584666559637 76.24757812499999 L 25.53935961804273 75.38015625 L 25.550681729262234 74.51273437500001 L 25.528182186381542 73.64531249999999 L 25.47054410763591 72.777890625 L 25.376776765607943 71.91046874999999 L 25.24622478311597 71.043046875 L 25.078574216396294 70.175625 L 24.873855469115412 69.30820312499999 L 24.632443010164522 68.44078125 L 24.35505189785571 67.573359375 L 24.042731142782085 66.7059375 L 23.696853970947522 65.83851562499999 L 23.319105077543156 64.97109375 L 22.911464989680585 64.103671875 L 22.47619168322617 63.23625 L 22.01579962436815 62.36882812499999 L 21.53303643045189 61.50140625 L 21.030857366716283 60.633984375000004 L 20.512397915651526 59.7665625 L 19.98094467358833 58.899140624999994 L 19.439904844655018 58.031718749999996 L 18.8927746152584 57.164296875000005 L 18.343106702635016 56.296875 L 17.79447737868573 55.429453124999995 L 17.250453275176927 54.562031250000004 L 16.714558278421006 53.694609375000006 L 16.190240820718362 52.8271875 L 15.680841872160144 51.959765624999996 L 15.189563929890546 51.09234374999999 L 14.719441292668874 50.224921874999986 L 14.273311896641697 49.35749999999999 L 13.853790973744095 48.490078125 L 13.463246777231655 47.62265624999999 L 13.10377859965773 46.75523437499999 L 12.777197287332086 45.887812499999995 L 12.48500843212498 45.02039062499999 L 12.228398396629496 44.15296874999999 L 12.00822330239604 43.285546874999994 L 11.8250010834497 42.41812499999999 L 11.678906678849355 41.55070312499999 L 11.569770408911015 40.68328124999999 L 11.49707955016719 39.815859374999995 L 11.459983094443615 38.9484375 L 11.457299647879767 38.08101562499999 L 11.487528396574806 37.213593749999994 L 11.548863037076329 36.34617187499999 L 11.639208542409708 35.47874999999999 L 11.75620060802651 34.611328124999986 L 11.897227597175515 33.74390624999998 L 12.0594547820004 32.87648437499998 L 12.239850655359243 32.009062499999985 L 12.435215069140755 31.141640624999987 L 12.64220893789855 30.274218749999985 L 12.857385232095673 29.406796874999984 L 13.077220973281449 28.539374999999986 L 13.298149934222804 27.671953124999987 L 13.516595740468878 26.804531249999986 L 13.729005066101687 25.937109374999984 L 13.931880615551302 25.069687499999986 L 14.121813585339797 24.20226562499999 L 14.295515304445491 23.334843749999987 L 14.449847759603003 22.467421874999985 L 14.58185272220461 21.599999999999987 L 14.30185272220461 21.599999999999987 Q 14.155122519983573 22.139999999999993 13.964982584905263 22.774687499999995 Q 13.763433999416366 23.409374999999997 13.514033514918161 24.138749999999995 Q 13.384846572847136 24.5034375 13.243206599011657 24.891796874999997 Q 13.098833230461643 25.280156249999997 12.941940971144064 25.692187499999996 Q 12.782676665224084 26.104218749999994 12.611087318754835 26.53992187499999 Q 12.437702867592462 26.97562499999999 12.252496779883083 27.434999999999988 Q 12.067570454961343 27.894374999999986 11.877985832795291 28.362890624999984 Q 11.688507844989623 28.831406249999986 11.495508064309313 29.30906249999999 Q 11.303800486591328 29.78671874999999 11.109857507121216 30.27351562499999 Q 10.918492017787822 30.76031249999999 10.726318734249528 31.256249999999994 Q 10.538095447872035 31.752187499999994 10.350620304758499 32.257265624999995 Q 10.168538637589572 32.76234374999999 9.988871988069555 33.2765625 Q 9.81609310838635 33.790781249999995 9.64748494940633 34.31414062499999 Q 9.487285532831251 34.8375 9.333074439194458 35.37 Q 9.189490220183014 35.904374999999995 9.055352235214029 36.434296874999994 Q 8.932131084936026 36.96421875 8.81899572827442 37.489687499999995 Q 8.717503863662893 38.01515624999999 8.626531214376504 38.536171874999994 Q 8.547736809042659 39.05718749999999 8.479693439948482 39.57375 Q 8.4241741481334 40.090312499999996 8.379443581445138 40.602421875 Q 8.347399747340543 41.11453125 8.325998241861573 41.6221875 Q 8.317271123026948 42.12984375 8.318868106160423 42.633046875 Q 8.332962409457101 43.136250000000004 8.356904845510899 43.635000000000005 L 8.356904845510899 43.635000000000005 L 8.446531208825768 44.681250000000006 L 8.588444947095436 45.727500000000006 L 8.78073038802611 46.77375000000001 L 9.020791899255595 47.82000000000001 L 9.305388926405746 48.86625 L 9.630679736840554 49.91250000000001 L 9.992273278639495 50.95875000000001 L 10.385288454749622 52.005 L 10.804420012183487 53.051249999999996 L 11.24401015683445 54.0975 L 11.698124927191799 55.143750000000004 L 12.160634295998225 56.19 L 12.625294918569512 57.23625 L 13.08583441076913 58.282500000000006 L 13.536036018982067 59.32875 L 13.969822539140608 60.375 L 14.381338351991669 61.42125 L 14.765028467223871 62.467499999999994 L 15.11571350944963 63.51375 L 15.428659633817606 64.56 L 15.699642427475231 65.60624999999999 L 15.925003934284957 66.6525 L 16.10170203302619 67.69875 L 16.227351502533924 68.745 L 16.30025621944195 69.79124999999999 L 16.319432053898062 70.83749999999999 L 16.284620154185543 71.88374999999999 L 16.196290440923683 72.92999999999999 L 16.055635263679747 73.97625 L 15.864553305620781 75.02250000000001 L 15.625623953473974 76.06875 L 15.34207247877162 77.115 L 14.57207247877162 77.115 L 13.80207247877162 77.115 L 13.032072478771621 77.115 L 12.262072478771618 77.115 L 11.492072478771618 77.115 L 10.722072478771619 77.115 L 9.952072478771619 77.115 L 9.18207247877162 77.115 L 8.41207247877162 77.115 L 7.6420724787716185 77.115 L 6.872072478771619 77.115 L 6.1020724787716185 77.115 L 5.332072478771618 77.115 L 4.5620724787716185 77.115 L 3.7920724787716185 77.115 L 3.0220724787716184 77.115 L 3.3448166743295573 75.910078125 L 3.60769817089683 74.70515625 L 3.8060121378559684 73.500234375 L 3.936209319607756 72.2953125 L 3.995959557145134 71.090390625 L 3.9841934912677104 69.88546875 L 3.901121701068005 68.680546875 L 3.74823093516501 67.47562500000001 L 3.5282575031352557 66.27070312500001 L 3.2451383033590298 65.06578125 L 2.903940363743948 63.86085937499999 L 2.5107701563463647 62.65593749999999 L 2.072664308900818 61.451015625 L 1.5974636692101096 60.24609375 L 1.0936729762849824 59.041171875 L 0.570308649720665 57.83624999999999 L 0.03673742144720003 56.63132812499999 L -0.49749130211401965 55.42640624999999 L -1.0228163472472116 54.221484374999996 L -1.5298358907402427 53.0165625 L -2.009475725762151 51.811640625 L -2.453151664339886 50.60671875 L -2.8529231698920774 49.40179687499999 L -3.201635470234768 48.19687499999999 L -3.493047607640757 46.991953124999995 L -3.7219441342208803 45.78703124999999 L -3.8842284535978746 44.58210937499999 L -3.9769961383224457 43.37718749999999 L -3.998586910858507 42.172265624999994 L -3.9486143578258495 40.96734375 L -3.827972845699905 39.762421874999994 L -3.638821514197242 38.5575 L -3.3845456338196245 37.352578125 L -3.069696019146654 36.14765625 L -2.6999075822065866 34.942734375 L -2.2817984835882132 33.737812500000004 L -1.8228516862018587 32.532890625 L -1.3312810315400971 31.327968749999997 L -0.8158842352919584 30.123046875 L -0.2858854332707198 28.918124999999996 L 0.24922990436487516 27.713203124999996 L 0.7798847360304476 26.50828125 L 1.2965818505037172 25.303359375 L 1.7900738399759213 24.098437499999996 L 2.2515286023331247 22.893515624999996 L 2.6726874106475402 21.688593749999995 L 3.0460127208848764 20.483671875 L 3.3648230724904042 19.27875 L 3.6234126675171865 18.073828125 L 3.8171534881704052 16.868906250000002 L 3.9425781251543635 15.663984374999998 L 3.9974418344304996 14.459062499999998 L 3.980762711747046 13.254140625 L 3.8928392659305975 12.049218749999998 L 3.735245076427682 10.844296874999998 L 3.51080063071114 9.639375 L 3.223522845581574 8.434453125000001 L 2.878553175788927 7.229531249999999 L 2.482065596625236 6.024609374999999 L 2.041156107338283 4.8196875 L 1.5637157329405533 3.6147656249999995 L 1.0582892973196787 2.40984375 L 0.533922495209754 1.204921875 L 0 0 L 0.5784375 0 L 1.156875 0 L 1.7353125 0 L 2.31375 0 L 2.8921875000000004 0 L 3.470625 0 L 4.0490625 0 L 4.6275 0 L 5.205937500000001 0 L 5.784375000000001 0 L 6.3628125 0 L 6.94125 0 L 7.5196875 0 L 8.098125 0 L 8.6765625 0 L 9.255 0 L 9.833437500000002 0 L 10.411875000000002 0 L 10.990312500000002 0 L 11.568750000000001 0 L 12.147187500000001 0 L 12.725625 0 L 13.3040625 0 L 13.8825 0 L 14.4609375 0 L 15.039375 0 L 15.6178125 0 L 16.19625 0 L 16.7746875 0 L 17.353125 0 L 17.9315625 0 L 18.51 0 L 19.057396014283974 0.8557031249999998 L 19.601361823328826 1.7114062499999996 L 20.138498207083423 2.5671093749999994 L 20.665467635982104 3.422812499999999 L 21.179024418989403 4.278515624999999 L 21.67604402206351 5.134218749999999 L 22.153551292203474 5.9899218749999985 L 22.608747332131223 6.845624999999998 L 23.039034782848212 7.701328124999998 L 23.44204128568836 8.557031249999998 L 23.815640911933503 9.412734374999998 L 24.157973366416787 10.268437499999997 L 24.46746079164705 11.124140624999997 L 24.742822020661798 11.979843749999997 L 24.98308414986219 12.835546874999997 L 25.187591327292097 13.691249999999997 L 25.35601067697638 14.546953124999996 L 25.48833530580354 15.402656249999996 L 25.58488436579149 16.258359374999998 L 25.646300171173976 17.114062499999996 L 25.673542396349127 17.969765624999994 L 25.6678794071003 18.825468749999995 L 25.630876803394717 19.681171874999997 L 25.564383277253167 20.536874999999995 L 25.470513913437387 21.392578124999993 L 25.35163108380055 22.248281249999994 L 25.210323107883113 23.103984374999996 L 25.04938087251369 23.959687499999994 L 24.871772621611136 24.815390624999992 L 24.680617143912546 25.671093749999994 L 24.479155600823628 26.526796874999995 L 24.270722248871603 27.382499999999993 L 24.05871432122594 28.23820312499999 L 23.846561340348483 29.093906249999993 L 23.637694138973014 29.949609374999994 L 23.43551386924907 30.805312499999992 L 23.243361279991742 31.66101562499999 L 23.06448653955733 32.516718749999995 L 22.902019876936063 33.37242187499999 L 22.758943306262175 34.22812499999999 L 22.63806369015501 35.08382812499999 L 22.54198738521106 35.93953124999999 L 22.4730966986754 36.79523437499999 L 22.433528368960268 37.65093749999999 L 22.42515426439728 38.50664062499999 L 22.449564474572128 39.362343749999994 L 22.508052946978623 40.21804687499999 L 22.6016057987366 41.07374999999999 L 22.730892408954578 41.92945312499999 L 22.896259372200166 42.785156249999986 L 23.09772736769676 43.64085937499999 L 23.33499097252726 44.49656249999999 L 23.607421420532106 45.35226562499999 L 23.914072281980406 46.20796874999999 L 24.253688012709436 47.06367187499999 L 24.624715295507805 47.91937499999999 L 25.02531707129505 48.77507812499999 L 25.45338913335346 49.630781249999984 L 25.906579134715756 50.48648437499998 L 26.38230783701401 51.34218749999999 L 26.87779240884816 52.19789062499999 L 27.3900715632189 53.05359374999999 L 27.916032306957558 53.90929687499998 L 28.452438060524095 54.764999999999986 L 28.732438060524096 54.764999999999986 L 28.52806355695756 53.90929687499998 L 28.3341340632189 53.05359374999999 L 28.15388615884816 52.19789062499999 L 27.990432837014012 51.34218749999999 L 27.846735384715757 50.48648437499998 L 27.725576633353462 49.630781249999984 L 27.62953582129505 48.77507812499999 L 27.56096529550781 47.91937499999999 L 27.521969262709444 47.06367187499999 L 27.514384781980414 46.20796874999999 L 27.539765170532114 45.35226562499999 L 27.59936597252727 44.49656249999999 L 27.694133617696767 43.64085937499999 L 27.824696872200175 42.785156249999986 L 27.991361158954586 41.92945312499999 L 28.1941057987366 41.07374999999999 L 28.432584196978624 40.21804687499999 L 28.70612697457213 39.362343749999994 L 29.01374801439728 38.50664062499999 L 29.35415336896027 37.65093749999999 L 29.7257529486754 36.79523437499999 L 30.12667488521106 35.93953124999999 L 30.554782440155012 35.08382812499999 L 31.007693306262176 34.22812499999999 L 31.482801126936064 33.37242187499999 L 31.97729903955733 32.516718749999995 L 32.48820502999175 31.66101562499999 L 33.01238886924907 30.805312499999992 L 33.54660038897302 29.949609374999994 L 34.08749884034849 29.093906249999993 L 34.63168307122594 28.23820312499999 L 35.1757222488716 27.382499999999993 L 35.71618685082363 26.526796874999995 L 36.24967964391254 25.671093749999994 L 36.77286637161114 24.815390624999992 L 37.282505872513696 23.959687499999994 L 37.775479357883114 23.103984374999996 L 38.248818583800556 22.248281249999994 L 38.69973266343739 21.392578124999993 L 39.125633277253165 20.536874999999995 L 39.524158053394714 19.681171874999997 L 39.893191907100295 18.825468749999995 L 40.23088614634912 17.969765624999994 L 40.53567517117397 17.114062499999996 L 40.80629061579148 16.258359374999998 L 41.04177280580353 15.402656249999996 L 41.24147942697637 14.546953124999996 L 41.40509132729209 13.691249999999997 L 41.53261539986218 12.835546874999997 L 41.62438452066179 11.979843749999997 L 41.68105454164704 11.124140624999997 L 41.70359836641678 10.268437499999997 L 41.693297161933494 9.412734374999998 L 41.651728785688356 8.557031249999998 L 41.580753532848206 7.701328124999998 L 41.48249733213122 6.845624999999998 L 41.35933254220347 5.9899218749999985 L 41.2138565220635 5.134218749999999 L 41.0488681689894 4.278515624999999 L 40.8673426359821 3.422812499999999 L 40.67240445708342 2.5671093749999994 L 40.46729932332882 1.7114062499999996 L 40.255364764283975 0.8557031249999998 L 40.04 0 L 40.618125 0 L 41.19625 0 L 41.774375 0 L 42.3525 0 L 42.930625 0 L 43.50875 0 L 44.086875 0 L 44.665 0 L 45.243125 0 L 45.82125 0 L 46.399375 0 L 46.9775 0 L 47.555625 0 L 48.13375 0 L 48.711875 0 L 49.29 0 L 49.868125 0 L 50.44625 0 L 51.024375 0 L 51.6025 0 L 52.180625 0 L 52.75875 0 L 53.336875 0 L 53.915 0 L 54.493125 0 L 55.07125 0 L 55.649375 0 L 56.2275 0 L 56.805625 0 L 57.38375 0 L 57.961875 0 L 58.54 0 L 59.07392249520975 1.204921875 L 59.59828929731968 2.40984375 L 60.10371573294055 3.6147656249999995 L 60.58115610733828 4.8196875 L 61.02206559662523 6.024609374999999 L 61.41855317578893 7.229531249999999 L 61.763522845581576 8.434453125000001 L 62.05080063071114 9.639375 L 62.27524507642768 10.844296874999998 L 62.432839265930596 12.049218749999998 L 62.52076271174705 13.254140625 L 62.537441834430496 14.459062499999998 L 62.48257812515436 15.663984374999998 L 62.357153488170404 16.868906250000002 L 62.163412667517186 18.073828125 L 61.9048230724904 19.27875 L 61.586012720884874 20.483671875 L 61.21268741064754 21.688593749999995 L 60.79152860233312 22.893515624999996 L 60.330073839975924 24.098437499999996 L 59.83658185050372 25.303359375 L 59.319884736030446 26.50828125 L 58.78922990436487 27.713203124999996 L 58.25411456672928 28.918124999999996 L 57.72411576470804 30.123046875 L 57.208718968459905 31.327968749999997 L 56.71714831379814 32.532890625 L 56.25820151641179 33.737812500000004 L 55.840092417793414 34.942734375 L 55.470303980853345 36.14765625 L 55.15545436618037 37.352578125 L 54.90117848580276 38.5575 L 54.712027154300095 39.762421874999994 L 54.59138564217415 40.96734375 L 54.54141308914149 42.172265624999994 L 54.56300386167755 43.37718749999999 L 54.65577154640212 44.58210937499999 L 54.818055865779115 45.78703124999999 L 55.046952392359245 46.991953124999995 L 55.33836452976523 48.19687499999999 L 55.68707683010792 49.40179687499999 L 56.086848335660115 50.60671875 L 56.53052427423785 51.811640625 L 57.010164109259755 53.0165625 L 57.517183652752784 54.221484374999996 L 58.04250869788598 55.42640624999999 L 58.5767374214472 56.63132812499999 L 59.110308649720665 57.83624999999999 L 59.633672976284984 59.041171875 L 60.137463669210106 60.24609375 L 60.61266430890082 61.451015625 L 61.05077015634637 62.65593749999999 L 61.44394036374395 63.86085937499999 L 61.78513830335903 65.06578125 L 62.06825750313526 66.27070312500001 L 62.28823093516501 67.47562500000001 L 62.441121701068006 68.680546875 L 62.52419349126771 69.88546875 L 62.535959557145134 71.090390625 L 62.476209319607754 72.2953125 L 62.346012137855965 73.500234375 L 62.14769817089683 74.70515625 L 61.88481667432956 75.910078125 L 61.56207247877162 77.115 L 60.765822478771625 77.115 L 59.969572478771624 77.115 L 59.173322478771624 77.115 L 58.37707247877162 77.115 L 57.58082247877162 77.115 L 56.78457247877162 77.115 L 55.98832247877162 77.115 L 55.19207247877162 77.115 L 54.39582247877162 77.115 L 53.59957247877162 77.115 L 52.80332247877162 77.115 L 52.00707247877162 77.115 L 51.21082247877162 77.115 L 50.41457247877162 77.115 L 49.61832247877162 77.115 L 48.822072478771624 77.115 L 49.10820254201822 76.0584375 L 49.348792018660205 75.001875 L 49.54052896338647 73.9453125 L 49.68077393292665 72.88874999999999 L 49.76759632052371 71.83218749999997 L 49.79980093259099 70.77562499999999 L 49.7769444417003 69.71906249999998 L 49.69934148940991 68.6625 L 49.56806035492117 67.60593749999998 L 49.38490824918894 66.549375 L 49.15240643692628 65.49281249999999 L 48.87375552897325 64.43625 L 48.55279142281342 63.379687499999996 L 48.193932497759405 62.323125 L 47.80211879171628 61.2665625 L 47.38274399681332 60.209999999999994 L 46.94158121004943 59.15343749999998 L 46.484703461065976 58.09687499999998 L 46.018400111058675 57.040312499999985 L 45.5490902736777 55.983749999999986 L 45.08323444976065 54.92718749999999 L 44.62724559233108 53.87062499999999 L 44.18740082613838 52.81406249999999 L 43.76975503700438 51.75749999999999 L 43.380057520502284 50.700937499999995 L 43.023672837379046 49.644375 L 42.70550696522225 48.5878125 L 42.429939762964814 47.531249999999986 L 42.20076467791852 46.47468749999999 L 42.02113652532687 45.41812499999999 L 41.89352805930205 44.361562499999984 L 41.81969593298868 43.304999999999986 Q 41.80469279278204 42.84749999999998 41.80111519333295 42.38203124999998 Q 41.80823446825468 41.91656249999998 41.827507033933934 41.44312499999998 Q 41.85778184462255 40.96968749999999 41.900824488467805 40.488281249999986 Q 41.955048699811066 40.006874999999994 42.02252033942081 39.517499999999984 Q 42.10120960578318 39.02812499999999 42.1934694085593 38.53078124999998 Q 42.29682319942854 38.033437499999984 42.413893330660414 37.52812499999999 Q 42.54175895840909 37.022812499999986 42.68328991305917 36.50953124999998 Q 42.83512968755018 35.99624999999999 43.000369382632414 35.47499999999999 Q 43.17461798678386 34.95562499999999 43.35662395832893 34.443046874999986 Q 43.54684055534493 33.93046874999999 43.74323645112753 33.42468749999999 Q 43.94647165804009 32.91890624999999 44.154326271318794 32.419921874999986 Q 44.36764492182132 31.92093749999999 44.58406521072155 31.42874999999999 Q 44.80459203854998 30.93656249999999 45.02676585401249 30.45117187499999 Q 45.2517257476488 29.96578124999999 45.476959039309975 29.487187499999987 Q 45.70371167891747 29.008593749999985 45.92946006460864 28.536796874999986 Q 46.1555288924536 28.06499999999999 46.37942360821972 27.599999999999987 Q 46.60459586099403 27.133124999999986 46.8163911620865 26.690859374999988 Q 47.02649610178112 26.24859374999999 47.22266280420436 25.830937499999987 Q 47.41651989886103 25.41328124999999 47.59620995003871 25.020234374999994 Q 47.77320177226534 24.627187499999994 47.936076162982516 24.258749999999992 Q 48.25290303933574 23.521874999999994 48.5152293876428 22.8834375 Q 48.76621188913016 22.244999999999997 48.967257922107564 21.705 L 48.967257922107564 21.705 L 48.67725792210756 21.705 L 48.216580910690794 22.57078125 L 47.73400156779563 23.436562499999997 L 47.23248397116426 24.30234375 L 46.71516731877077 25.168124999999996 L 46.185336900956 26.033906249999994 L 45.64639372165999 26.899687499999995 L 45.10182304966191 27.765468749999997 L 44.55516219063096 28.631249999999998 L 44.00996777799713 29.49703125 L 43.46978288510001 30.3628125 L 42.93810426272636 31.22859375 L 42.4183500049881 32.094375 L 41.91382794253094 32.96015625 L 41.42770505533888 33.825937499999995 L 40.962978187971345 34.69171874999999 L 40.522446338026434 35.5575 L 40.108684774076266 36.42328125 L 39.72402122240325 37.2890625 L 39.370514342736485 38.15484375 L 39.049934692020905 39.020624999999995 L 38.76374835224557 39.88640624999999 L 38.51310337372287 40.75218749999999 L 38.298819159176404 41.617968749999996 L 38.12137888680192 42.48375 L 37.98092504236446 43.34953125 L 37.87725810164604 44.215312499999996 L 37.80983837542712 45.08109375 L 37.7777909999415 45.946875 L 37.77991402665845 46.81265624999999 L 37.81468953658646 47.678437499999994 L 37.88029767632584 48.54421875 L 37.97463348608015 49.41 L 38.09532636401933 50.275781249999994 L 38.23976198700941 51.1415625 L 38.40510648501004 52.007343750000004 L 38.58833264560135 52.873125 L 38.78624790632941 53.73890625 L 38.995523876027754 54.604687500000004 L 39.21272711213404 55.470468749999995 L 39.43435086940708 56.33624999999999 L 39.65684752646669 57.20203125 L 39.87666139031133 58.06781249999999 L 40.090261575473285 58.933593749999986 L 40.294174653780914 59.79937499999999 L 40.48501677281876 60.665156249999995 L 40.659524946089164 61.53093749999999 L 40.81458722553817 62.39671874999999 L 40.94727147744336 63.262499999999996 L 41.054852495575695 64.12828125 L 41.13483720092236 64.9940625 L 41.18498769495145 65.85984375 L 41.203341953246934 66.72562500000001 L 41.18823196816191 67.59140625 L 41.13829917272673 68.4571875 L 41.052507003188666 69.32296875 L 40.93015048401831 70.18875 L 40.77086274675137 71.05453125 L 40.5746184223864 71.9203125 L 40.341733875969595 72.78609374999999 L 40.072864281197276 73.65187499999999 L 39.76899756208698 74.51765624999999 L 39.43144525773805 75.38343749999999 L 39.06183039465416 76.24921875 L 38.66207247877162 77.115 L 38.66207247877162 77.115 Z" fill="black" stroke="black" />
				</svg>