<svg
					xmlns="http://www.w3.org/2000/svg" xmlns:xlink="http://www.w3.org/1999/xlink"
					style="
						overflow: visible;
						height: 100;
					"
					viewBox="-3.9662945726213388 7.460698725481052e-13 52.67625298489709 79.275"
				>
					<path d="M 19.6067391960176 49.14000000000073 L 19.321707868934226 48.13406250000073 L 19.07683992307896 47.128125000000736 L 18.87519124159087 46.122187500000734 L 18.719278343337386 45.11625000000073 L 18.611046977466177 44.11031250000073 L 18.551847841002644 43.104375000000736 L 18.54241972253071 42.09843750000074 L 18.58288028231894 41.09250000000074 L 18.67272458395345 40.08656250000074 L 18.810831395802445 39.080625000000744 L 18.995477183671824 38.07468750000075 L 19.224357620027497 37.06875000000075 L 19.494616341355332 36.062812500000746 L 19.802880594774958 35.056875000000744 L 20.14530332904775 34.05093750000075 L 20.517611204694973 33.04500000000075 L 21.21042370469497 33.04500000000075 L 21.903236204694974 33.04500000000075 L 22.596048704694972 33.04500000000075 L 23.28886120469497 33.04500000000075 L 23.981673704694973 33.04500000000075 L 24.674486204694972 33.04500000000075 L 25.36729870469497 33.04500000000075 L 26.060111204694973 33.04500000000075 L 26.75292370469497 33.04500000000075 L 27.44573620469497 33.04500000000075 L 28.138548704694973 33.04500000000075 L 28.83136120469497 33.04500000000075 L 29.52417370469497 33.04500000000075 L 30.216986204694972 33.04500000000075 L 30.909798704694968 33.04500000000075 L 31.60261120469497 33.04500000000075 L 32.29542370469497 33.04500000000075 L 32.98823620469497 33.04500000000075 L 33.68104870469497 33.04500000000075 L 34.37386120469497 33.04500000000075 L 35.06667370469496 33.04500000000075 L 35.759486204694966 33.04500000000075 L 36.45229870469497 33.04500000000075 L 37.14511120469497 33.04500000000075 L 37.83792370469497 33.04500000000075 L 38.53073620469497 33.04500000000075 L 39.22354870469496 33.04500000000075 L 39.916361204694965 33.04500000000075 L 40.60917370469497 33.04500000000075 L 41.30198620469497 33.04500000000075 L 41.99479870469497 33.04500000000075 L 42.68761120469497 33.04500000000075 L 42.21213174970623 34.34437500000075 L 41.788627835495376 35.64375000000075 L 41.425911714253864 36.94312500000075 L 41.13153076825383 38.242500000000746 L 40.91161046422526 39.54187500000074 L 40.77072689489385 40.84125000000074 L 40.71181155983001 42.140625000000746 L 40.7360903669253 43.44000000000075 L 40.8430581237509 44.73937500000075 L 41.03048904958112 46.038750000000746 L 41.29448308934805 47.338125000000744 L 41.62954706582852 48.63750000000074 L 42.0287089814519 49.93687500000074 L 42.48366309134154 51.236250000000744 L 42.984942728915705 52.53562500000075 L 43.5221172879001 53.83500000000075 L 44.084009261958265 55.134375000000745 L 44.65892682578795 56.43375000000075 L 45.2349071181457 57.733125000000754 L 45.79996516457612 59.03250000000075 L 46.34234326027205 60.33187500000075 L 46.85075562391716 61.631250000000755 L 47.31462323176367 62.930625000000745 L 47.72429394552755 64.23000000000074 L 48.07124335368861 65.52937500000075 L 48.34825214709808 66.82875000000074 L 48.54955633806927 68.12812500000074 L 48.67096719719848 69.42750000000075 L 48.70995841227575 70.72687500000075 L 48.665718655686454 72.02625000000074 L 48.53916846648316 73.32562500000074 L 48.33294109584659 74.62500000000074 Q 48.06087858517848 74.75343750000074 47.78405899986394 74.87894531250075 Q 47.506544448302485 75.00445312500075 47.22434745538315 75.12703125000075 Q 46.941497000447455 75.24960937500074 46.65403614876086 75.36925781250075 Q 46.36596193451154 75.48890625000075 46.0733467431468 75.60562500000074 Q 45.78015684354158 75.72234375000075 45.4824927387964 75.83613281250075 Q 45.1842911051001 75.94992187500075 44.88167938044363 76.06078125000076 Q 44.57856581085679 76.17164062500075 44.27110360808392 76.27957031250075 Q 43.9631737377908 76.38750000000076 43.65095404759397 76.49250000000075 Q 43.33829935747472 76.59750000000075 43.0214110377066 76.69957031250075 Q 42.704118880008046 76.80164062500076 42.38264668996136 76.90078125000076 Q 42.06080032927644 76.99992187500075 41.73482497836435 77.09613281250076 Q 41.40850364632905 77.19234375000076 41.078101855610946 77.28562500000075 Q 40.74738081779056 77.37890625000075 40.41262539285174 77.46925781250076 Q 40.077576026353064 77.55960937500076 39.738535940113316 77.64703125000077 Q 39.3992258205267 77.73445312500075 39.05596630461971 77.81894531250076 Q 38.71245930096245 77.90343750000076 38.365041944397035 77.98500000000075 Q 38.01707797307584 78.06562500000076 37.668709687030336 78.14121093750076 Q 37.320150657987874 78.21679687500077 36.97124168422735 78.28734375000076 Q 36.622169514147735 78.35789062500075 36.27279692076912 78.42339843750077 Q 35.923286023415976 78.48890625000075 35.57351960764163 78.54937500000077 Q 35.2236372734281 78.60984375000075 34.87353993250717 78.66527343750076 Q 34.52334669395104 78.72070312500074 34.17297478001556 78.77109375000074 Q 33.82252475976062 78.82148437500075 33.4719284155299 78.86683593750075 Q 33.12126965398592 78.91218750000075 32.77049312657017 78.95250000000074 Q 32.419667886569954 78.99281250000074 32.06874981695732 79.02808593750075 Q 31.717794863152626 79.06335937500074 31.366768549273946 79.09359375000074 Q 31.01571540029238 79.12382812500074 30.664609031846602 79.14902343750074 Q 30.313484183511207 79.17421875000073 29.96232104700339 79.19437500000073 Q 29.611146165177146 79.21453125000073 29.25994481787152 79.22964843750074 Q 28.908736899732624 79.24476562500074 28.557511311458175 79.25484375000073 Q 28.206282814240343 79.26492187500074 27.855042476207927 79.26996093750074 Q 27.503801412656447 79.27500000000074 27.152551412656447 79.27500000000074 L 27.152551412656447 79.27500000000074 Q 26.68942641265645 79.27500000000074 26.239565324826174 79.25812500000073 Q 25.789696085435015 79.24125000000073 25.35305806611456 79.20750000000073 Q 24.916387183271922 79.17375000000074 24.492881366053606 79.12312500000073 Q 24.069300646325868 79.07250000000073 23.658783848899805 79.00500000000073 Q 23.248131522861293 78.93750000000074 22.85040473267825 78.85312500000074 Q 22.452461474411173 78.76875000000074 22.067265184854456 78.66750000000073 Q 21.68174902189607 78.56625000000074 21.308757520922356 78.44812500000074 Q 20.935317750903028 78.33000000000075 20.574132498336297 78.19500000000073 Q 20.212342764791586 78.06000000000074 19.862485033423418 77.90812500000074 Q 19.51183575452938 77.75625000000073 19.17273875447608 77.58750000000074 Q 18.832629145220828 77.41875000000074 18.503629900932385 77.23312500000074 Q 18.17335988167289 77.04750000000074 17.853691186561736 76.84500000000074 Q 17.53245352882342 76.64250000000075 17.221236363244998 76.42312500000074 Q 16.908109486344518 76.20375000000074 16.60434634966985 75.96750000000074 Q 16.298288248067703 75.73125000000074 16.000857923290557 75.47812500000074 Q 15.700701772651135 75.22500000000075 15.40835611011529 74.95500000000075 Q 15.112808167262177 74.68500000000074 14.826700490905447 74.39730468750074 Q 14.536848448022482 74.10960937500076 14.255410897970947 73.80421875000074 Q 13.969641865994554 73.49882812500074 13.691177613171934 73.17574218750075 Q 13.407755117221377 72.85265625000075 13.13045061283036 72.51187500000074 Q 12.847529509253821 72.17109375000075 12.569473071997658 71.81261718750075 Q 12.28512118918422 71.45414062500075 12.004328832490986 71.07796875000075 Q 11.716556208869635 70.70179687500075 11.431005540834036 70.30792968750075 Q 11.137802038784368 69.91406250000074 10.845474940310107 69.50250000000075 Q 10.544856857372448 69.09093750000075 10.243791448112727 68.66167968750075 Q 9.933857516130772 68.23242187500074 9.622209642855246 67.78546875000075 Q 9.30120649165442 67.33851562500074 8.977320610589334 66.87386718750074 Q 8.643717367510128 66.40921875000075 8.306206234450377 65.92687500000075 Q 7.958777429585687 65.44453125000075 7.606609456358706 64.94449218750074 Q 7.244524805162714 64.44445312500075 6.8771172907333025 63.926718750000745 Q 6.500036236179974 63.40898437500074 6.117351944512382 62.873554687500736 Q 5.725520073134042 62.338125000000744 5.328163825491437 61.78500000000074 Q 4.922770919227718 61.23093750000075 4.51485237505253 60.65876953125075 Q 4.099807207788511 60.086601562500746 3.6831813824360737 59.49632812500075 Q 3.261022458114466 58.906054687500756 2.838742399069409 58.29767578125075 Q 2.412934002283841 57.68929687500075 1.9890095012169788 57.06281250000075 Q 1.563978817795085 56.436328125000756 1.1433974137650733 55.79173828125075 Q 0.7245388977122075 55.147148437500746 0.313249904533887 54.48445312500075 Q -0.09311070476161487 53.82175781250075 -0.488256663631253 53.14095703125074 Q -0.874945919262446 52.46015625000075 -1.2463087606603722 51.76125000000074 Q -1.6054430319084245 51.06234375000074 -1.9447621178633114 50.34533203125075 Q -2.2679438765651168 49.628320312500755 -2.566567736533117 48.89320312500075 Q -2.708450274231406 48.52564453125074 -2.8432851087410604 48.15355957031325 Q -2.9726287488643495 47.78147460937575 -3.0943211498143093 47.40486328125074 Q -3.21006083160853 47.02825195312574 -3.317554680805935 46.64711425781324 Q -3.4186557349178757 46.26597656250074 -3.510932171589588 45.88031250000074 Q -3.596403460329443 45.49464843750074 -3.67249441546611 45.10445800781325 Q -3.741402111686108 44.71426757812575 -3.8004044220512228 44.31955078125075 Q -3.851886303743655 43.92483398437574 -3.892976271212209 43.52559082031324 Q -3.9262563874622467 43.12634765625074 -3.9487046276812934 42.722578125000744 Q -3.9631081699443755 42.318808593750745 -3.9662945726213388 41.910512695313244 Q -3.961262763799755 41.50221679687574 -3.944691365617473 41.08939453125075 Q -3.9197961585020704 40.67657226562575 -3.8831097091734645 40.259223632813246 Q -3.8380680659564206 39.84187500000075 -3.781062048752362 39.42000000000075 L -3.781062048752362 39.42000000000075 Q -3.658289067002258 38.664375000000746 -3.500316914748796 37.921347656250745 Q -3.318417935887734 37.178320312500745 -3.1050868663523 36.44789062500075 Q -2.8709956887997925 35.717460937500746 -2.6095264668845806 34.99962890625075 Q -2.3307725597588766 34.28179687500075 -2.028823236710614 33.57656250000075 Q -1.7132338695489246 32.871328125000744 -1.3786165673001722 32.17869140625075 Q -1.0340458981909848 31.48605468750075 -0.6744738516168792 30.806015625000747 Q -0.3085651515721024 30.125976562500746 0.06856503394808844 29.458535156250747 Q 0.4485801234606108 28.791093750000748 0.8363682066438999 28.136250000000746 Q 1.2238315450467856 27.481406250000745 1.6160144969011077 26.839160156250742 Q 2.004964391299273 26.196914062500746 2.396019101396082 25.567265625000744 Q 2.781275756229258 24.93761718750075 3.166485655202594 24.32056640625075 Q 3.543701720078602 23.703515625000747 3.919190380387105 23.09906250000075 Q 4.284870053474662 22.494609375000746 4.647605538586417 21.902753906250748 Q 4.999096258917994 21.310898437500747 5.346870428212146 20.731640625000747 Q 5.682331508992364 20.152382812500747 6.013718683942983 19.585722656250745 Q 6.332071335177938 19.01906250000075 6.646370728224104 18.46500000000075 Q 6.946439171738982 17.911875000000748 7.241688996005042 17.374570312500747 Q 7.523598619907923 16.837265625000747 7.801658320611798 16.315781250000747 Q 8.066683783708848 15.794296875000748 8.329064823409109 15.288632812500747 Q 8.578925390557854 14.782968750000746 8.82752444919805 14.293125000000744 Q 9.064278981614072 13.803281250000744 9.301277159032367 13.329257812500744 Q 9.527226360569067 12.855234375000746 9.75499666690035 12.397031250000744 Q 9.972594456296243 11.938828125000743 10.193619083054474 11.496445312500743 Q 10.405394280723682 11.054062500000743 10.622192514724858 10.627500000000742 Q 10.830681444538207 10.200937500000741 11.045748552234524 9.790195312500742 Q 11.253438668406446 9.379453125000742 11.469195641127516 8.984531250000742 Q 11.678479896843093 8.589609375000741 11.897233604636824 8.21050781250074 Q 12.110374977371869 7.83140625000074 12.334288023920873 7.4681250000007395 Q 12.55339339458705 7.104843750000738 12.784462789058741 6.7573828125007385 Q 13.011465228382466 6.409921875000738 13.251508881732274 6.078281250000737 Q 13.488157316952766 5.746640625000738 13.738807319282385 5.430820312500737 Q 13.986662526411731 5.115000000000737 14.249364157715066 4.815000000000737 Q 14.50880970225257 4.514062500000737 14.784381603699838 4.231933593750738 Q 15.058172736981573 3.9498046875007384 15.348785439042874 3.6864843750007386 Q 15.638034595580402 3.4231640625007396 15.944679395788118 3.1786523437507404 Q 16.250303065112305 2.9341406250007402 16.57378781848604 2.708437500000741 Q 16.89652693294581 2.4827343750007413 17.23749690903644 2.2758398437507417 Q 17.577938056757873 2.068945312500742 17.936897169426427 1.8808593750007425 Q 18.295493855752245 1.6927734375007426 18.67282557634455 1.523496093750743 Q 19.04991890992691 1.3542187500007434 19.44590631806927 1.2037500000007437 Q 19.841744633763216 1.053281250000744 20.25658918571376 0.9216210937507442 Q 20.671346233933182 0.7899609375007446 21.1051849353677 0.6771093750007448 Q 21.538976366217366 0.5642578125007449 21.99189712462564 0.4702148437507452 Q 22.218348666117556 0.4231933593757452 22.44958814919483 0.3808740234382453 Q 22.68082389064016 0.3385546875007454 22.91685007782997 0.3009375000007455 Q 23.152873928874477 0.26332031250074556 23.39368998666319 0.2304052734382456 Q 23.63450467494034 0.1974902343757457 23.88011275171994 0.16927734375074574 Q 24.125720089233916 0.14106445312574578 24.376121561327846 0.11755371093824585 Q 24.626522676897686 0.09404296875074589 24.881718360571014 0.07523437500074592 Q 25.13691389820959 0.05642578125074596 25.396904227565116 0.04231933593824599 Q 25.656894510713958 0.028212890625746015 25.92167968141548 0.018808593750746033 Q 26.18646484298973 0.009404296875746052 26.456044921780258 0.004702148438246061 Q 26.72562500000033 7.460698725481052e-13 27.000000000000334 7.460698725481052e-13 L 27.000000000000334 7.460698725481052e-13 Q 27.301875000000333 7.460698725481052e-13 27.604101562366225 0.00527343750074602 Q 27.906328123927455 0.01054687500074597 28.208906241417267 0.02109375000074587 Q 28.511484346032493 0.03164062500074577 28.814413964733948 0.04746093750074562 Q 29.117343518258046 0.06328125000074547 29.420624450686343 0.08437500000074527 Q 29.7239051771241 0.10546875000074507 30.027536967047023 0.13183593750074482 Q 30.331168254074104 0.15820312500074457 30.635149993082347 0.18984375000074427 Q 30.939130689326127 0.22148437500074397 31.2434607851902 0.25839843750074365 Q 31.547788949327252 0.29531250000074327 31.852464846222173 0.3375000000007429 Q 32.15713744799711 0.3796875000007425 32.46215529873497 0.42714843750074205 Q 32.76716787207484 0.4746093750007416 33.07252216256928 0.5273437500007411 Q 33.37786841106321 0.5800781250007405 33.683551537361005 0.63808593750074 Q 33.98922289250018 0.6960937500007395 34.29522469085959 0.7593750000007389 Q 34.60120982359249 0.8226562500007383 34.90751705426768 0.8912109375007375 Q 35.213801340622716 0.9597656250007369 35.52039712623444 1.0335937500007364 Q 35.826962068001876 1.1074218750007356 36.13382528763865 1.1865234375007347 Q 36.44064788938857 1.265625000000734 36.74775252989472 1.3500000000007333 Q 37.054804633942204 1.4343750000007338 37.358655928364165 1.5219140625007341 Q 37.662443535729864 1.609453125000735 37.963013860374666 1.7001562500007352 Q 38.26350789354011 1.7908593750007356 38.56076594642145 1.884726562500736 Q 38.8579335457647 1.9785937500007365 39.151844081862684 2.075625000000737 Q 39.4456483398843 2.1726562500007374 39.736171903283086 2.2728515625007373 Q 40.026571596223 2.3730468750007376 40.31366425031172 2.476406250000738 Q 40.887413729299645 2.6831250000007385 41.44775465467778 2.902500000000739 Q 42.00734239280574 3.121875000000739 42.55323759138733 3.3539062500007395 Q 43.098164838908396 3.5859375000007394 43.62906040153249 3.8306250000007394 Q 44.158735271705524 4.07531250000074 44.67397922059 4.332656250000739 Q 45.18770898753191 4.590000000000739 45.68654396661273 4.860000000000738 L 45.68654396661273 4.860000000000738 L 45.786640732965886 5.879062500000739 L 45.855603110827616 6.898125000000739 L 45.88903392614387 7.91718750000074 L 45.882991062989994 8.93625000000074 L 45.8340379508494 9.95531250000074 L 45.73928757729518 10.974375000000741 L 45.596439462397655 11.993437500000741 L 45.403809121321004 13.012500000000742 L 45.1603496377769 14.031562500000742 L 44.86566507204076 15.050625000000743 L 44.520015531812085 16.069687500000743 L 44.124313840975525 17.088750000000744 L 43.680113848926474 18.107812500000744 L 43.1895905301854 19.126875000000744 L 42.655512129168066 20.145937500000745 L 42.081204706858024 21.165000000000745 Q 41.818578776068726 20.910000000000746 41.54429299887275 20.67070312500075 Q 41.26789251748589 20.431406250000748 40.98028680723714 20.20781250000075 Q 40.69075300342425 19.98421875000075 40.390478443967346 19.77632812500075 Q 40.08847513235896 19.568437500000748 39.77619509392426 19.376250000000745 Q 39.46239152697201 19.184062500000746 39.13876592407589 19.007578125000748 Q 38.81382202849856 18.831093750000747 38.47949386774928 18.670312500000747 Q 38.144047699793546 18.509531250000748 37.79963173514053 18.36445312500075 Q 37.454288960841616 18.21937500000075 37.10036225330066 18.09000000000075 Q 36.74659389506127 17.962500000000748 36.38347806576893 17.850937500000747 Q 36.01979920575021 17.739375000000745 35.64708834230887 17.643750000000743 Q 35.273959763400384 17.548125000000745 34.89207389362418 17.468437500000746 Q 34.50989567783403 17.38875000000074 34.1191919480548 17.325000000000742 Q 33.728299983129794 17.261250000000743 33.32906968599913 17.213437500000744 Q 32.929733029189855 17.16562500000074 32.522199403953465 17.133750000000738 Q 32.114618360635006 17.10187500000074 31.698935039115323 17.08593750000074 Q 31.283239841453913 17.07000000000074 30.859489841453914 17.07000000000074 L 30.859489841453914 17.07000000000074 Q 30.571989841453913 17.07000000000074 30.2897361285234 17.08224609375074 Q 30.007475402805284 17.09449218750074 29.73043292600086 17.11898437500074 Q 29.45336243715967 17.143476562500737 29.181454238974823 17.18021484375074 Q 28.909483162716455 17.21695312500074 28.64259074107902 17.26593750000074 Q 28.3755869157559 17.314921875000742 28.113550810210974 17.37615234375074 Q 27.8513414221025 17.437382812500736 27.593962054171932 17.510859375000738 Q 27.078459843684783 17.65781250000074 26.581257849095927 17.85375000000074 Q 26.08231941477539 18.04968750000074 25.599980439729407 18.29460937500074 Q 25.1149897991234 18.539531250000742 24.64455292920965 18.83343750000074 Q 24.170418349849182 19.127343750000744 23.708516634909053 19.470234375000743 Q 23.24179925439461 19.813125000000746 22.7848173040794 20.205000000000744 Q 22.32246002912929 20.595000000000745 21.868732315680422 21.017343750000745 Q 21.40864812860875 21.439687500000744 20.955824106126094 21.894375000000743 Q 20.49635529566409 22.34906250000074 20.04304530004654 22.836093750000742 Q 19.583081942110173 23.32312500000074 19.128560116540786 23.84250000000074 Q 18.66774233228679 24.361875000000737 18.21215973400671 24.913593750000736 Q 17.7510952926781 25.465312500000735 17.295703620408506 26.049375000000737 Q 16.836191088111793 26.63343750000074 16.38356499267609 27.249843750000736 Q 15.928808472406356 27.866250000000736 15.483050028100537 28.515000000000732 Q 15.037847056009122 29.163750000000732 14.607094400245854 29.829140625000736 Q 14.180098405571403 30.494531250000733 13.771109742109408 31.176562500000735 Q 13.369397397194664 31.85859375000074 12.989699470541572 32.55726562500074 Q 12.62103939506682 33.25593750000074 12.278765315443056 33.971250000000744 Q 11.951430726654742 34.68656250000075 11.65510219157177 35.41851562500075 Q 11.377627705853815 36.15046875000075 11.135881083477207 36.89906250000075 Q 11.02341259318598 37.27335937500075 10.920753139961102 37.651816406250745 Q 10.82419957849569 38.030273437500746 10.738023286062205 38.41289062500075 Q 10.658373576934448 38.795507812500745 10.589648804898324 39.18228515625075 Q 10.527840012092936 39.56906250000075 10.477476277706645 39.96000000000075 L 10.477476277706645 39.96000000000075 Q 10.407672135964013 40.635000000000744 10.372814771042028 41.289960937500744 Q 10.358967754020153 41.944921875000745 10.377887216411652 42.57984375000075 Q 10.416702389130407 43.214765625000744 10.485727057444441 43.82964843750075 Q 10.573183907885229 44.44453125000075 10.688053682518543 45.039375000000746 Q 10.819651318039314 45.63421875000074 10.975748602590771 46.20902343750075 Q 11.146725870280852 46.78382812500075 11.339279025479499 47.33859375000075 Q 11.544805144398223 47.89335937500074 11.769061270730793 48.42808593750074 Q 12.004394853776407 48.962812500000744 12.255760826607206 49.477500000000745 Q 12.51637705054324 49.992187500000746 12.790529386003282 50.48683593750074 Q 13.072216535405897 50.98148437500075 13.365181916271915 51.45609375000075 Q 13.664109601482794 51.93070312500075 13.97231877012154 52.38527343750074 Q 14.28508083861143 52.839843750000746 14.605399112802004 53.274375000000745 Q 14.929034686017598 53.708906250000744 15.258772624360914 54.12339843750074 Q 15.590768851276467 54.53789062500074 15.92767664155666 54.932343750000754 Q 16.265956719298913 55.32679687500076 16.608205737742214 55.70121093750076 Q 16.951105559487093 56.075625000000755 17.29726029946625 56.43000000000075 Q 17.644121796018975 56.78437500000075 17.991075656666464 57.116601562500755 Q 18.337685831746363 57.448828125000745 18.684076694929345 57.75890625000075 Q 19.02983106591988 58.06898437500075 19.37522207896797 58.356914062500756 Q 19.719796133376278 58.64484375000075 20.06399991664162 58.910625000000756 Q 20.407298749446923 59.17640625000076 20.750328492101747 59.42003906250076 Q 21.092438899148547 59.66367187500076 21.434462470546205 59.885156250000755 Q 21.775608450091934 60.10664062500075 22.116906280465074 60.30597656250075 Q 22.457408550233836 60.505312500000755 22.798335726218458 60.68250000000076 Q 23.138575583632537 60.85968750000075 23.47952835948873 61.014726562500755 Q 23.81991599522829 61.169765625000764 24.16130273553481 61.302656250000766 Q 24.5022499502137 61.43554687500077 24.84446638849886 61.54628906250076 Q 25.18636355280513 61.65703125000076 25.529772166435343 61.74562500000076 Q 25.872969199755545 61.83421875000075 26.21788245752909 61.90066406250075 Q 26.562673571941595 61.96710937500075 26.90934080041141 62.01140625000076 Q 27.255952759303927 62.05570312500076 27.604550390397993 62.07785156250076 Q 27.953134057553076 62.100000000000755 28.303759057553076 62.100000000000755 L 28.303759057553076 62.100000000000755 Q 28.611259057553077 62.100000000000755 28.94576205573346 62.08312500000075 Q 29.280256941129704 62.06625000000075 29.641722459802896 62.03250000000075 Q 30.003155786322974 61.998750000000754 30.391495794820784 61.94812500000074 Q 30.77976434724358 61.89750000000075 31.19484561444024 61.830000000000744 Q 31.612302297155072 61.76250000000074 31.97608454798626 61.69218750000074 Q 32.339734744768165 61.62187500000074 32.64969259535698 61.54875000000074 Q 32.959511174036734 61.475625000000726 33.215619631892544 61.39968750000073 Q 33.47158192614169 61.32375000000073 33.67381657629593 61.24500000000072 L 33.67381657629593 61.24500000000072 L 33.375618733744076 60.48843750000073 L 33.06544584908582 59.73187500000073 L 32.74548846980692 58.97531250000072 L 32.418006244856116 58.218750000000725 L 32.08531196622774 57.46218750000073 L 31.74975523523009 56.70562500000072 L 31.413705868793578 55.94906250000072 L 31.079537163009395 55.19250000000073 L 30.74960913209698 54.43593750000073 L 30.426251841172775 53.67937500000073 L 30.11174895052972 52.922812500000724 L 29.80832158764365 52.16625000000073 L 29.518112660807844 51.409687500000736 L 29.243171725178406 50.65312500000073 L 28.985440508111495 49.89656250000073 L 28.7467391960176 49.14000000000073 L 28.175489196017597 49.14000000000073 L 27.6042391960176 49.14000000000073 L 27.0329891960176 49.14000000000073 L 26.4617391960176 49.14000000000073 L 25.8904891960176 49.14000000000073 L 25.3192391960176 49.14000000000073 L 24.747989196017603 49.14000000000073 L 24.1767391960176 49.14000000000073 L 23.605489196017597 49.14000000000073 L 23.034239196017598 49.14000000000073 L 22.4629891960176 49.14000000000073 L 21.8917391960176 49.14000000000073 L 21.3204891960176 49.14000000000073 L 20.7492391960176 49.14000000000073 L 20.177989196017602 49.14000000000073 L 19.6067391960176 49.14000000000073 L 19.6067391960176 49.14000000000073 Z" fill="black" stroke="black" />
				</svg>