<svg
					xmlns="http://www.w3.org/2000/svg" xmlns:xlink="http://www.w3.org/1999/xlink"
					style="
						overflow: visible;
						height: 100;
					"
					viewBox="1.0099999999999998 0 53.712072478771624 77.115"
				>
					<path d="M 30.434422360153054 39.31499999999999 L 30.837106195082008 40.49624999999999 L 31.30704527541563 41.67749999999999 L 31.845563041084958 42.858749999999986 L 32.45280325195762 44.03999999999999 L 33.12772751490253 45.22124999999999 L 33.86813314606983 46.40249999999999 L 34.670691061121836 47.58374999999998 L 35.53100304163294 48.764999999999986 L 36.443677392570784 49.94624999999999 L 37.402421689410104 51.12749999999999 L 38.40015101945767 52.30874999999999 L 39.42910985543753 53.489999999999995 L 40.481005464885925 54.67125 L 41.54715056046756 55.8525 L 42.61861273736459 57.03374999999999 L 43.6863681271391 58.21499999999999 L 44.74145662493866 59.396249999999995 L 45.77513601985057 60.577499999999986 L 46.77903237707781 61.75874999999999 L 47.74528408508549 62.93999999999999 L 48.66667708984089 64.12124999999999 L 49.53676898986836 65.3025 L 50.349999857454804 66.48375 L 51.1017878796764 67.66499999999999 L 51.78860817404424 68.84625 L 52.40805342299417 70.0275 L 52.95887528419553 71.20875 L 53.44100586434518 72.39 L 53.85555888705771 73.57124999999999 L 54.20481053476205 74.7525 L 54.492160294159206 75.93374999999999 L 54.72207247877162 77.115 L 54.220197478771624 77.115 L 53.718322478771626 77.115 L 53.21644747877163 77.115 L 52.71457247877162 77.115 L 52.21269747877162 77.115 L 51.71082247877162 77.115 L 51.20894747877162 77.115 L 50.70707247877162 77.115 L 50.20519747877162 77.115 L 49.703322478771625 77.115 L 49.20144747877163 77.115 L 48.69957247877162 77.115 L 48.197697478771616 77.115 L 47.69582247877162 77.115 L 47.19394747877162 77.115 L 46.69207247877162 77.115 L 46.19019747877162 77.115 L 45.688322478771624 77.115 L 45.186447478771626 77.115 L 44.68457247877162 77.115 L 44.182697478771615 77.115 L 43.68082247877162 77.115 L 43.17894747877162 77.115 L 42.67707247877162 77.115 L 42.17519747877162 77.115 L 41.673322478771624 77.115 L 41.171447478771626 77.115 L 40.66957247877162 77.115 L 40.167697478771615 77.115 L 39.66582247877162 77.115 L 39.16394747877162 77.115 L 38.66207247877162 77.115 L 38.55794579911749 76.3621875 L 38.43123007542078 75.609375 L 38.28062620239979 74.8565625 L 38.10500211377946 74.10374999999999 L 37.90340069831793 73.35093749999999 L 37.67504649245191 72.59812499999998 L 37.41935110276207 71.84531249999999 L 37.13591732034169 71.0925 L 36.82454189829857 70.3396875 L 36.485216972968516 69.58687499999999 L 36.118130118902336 68.8340625 L 35.72366303724203 68.08125 L 35.30238888665756 67.32843749999998 L 34.85506827550799 66.57562499999999 L 34.38264394325172 65.8228125 L 33.886234168296596 65.07 L 33.36712494838553 64.31718749999999 L 32.826761008196925 63.564375 L 32.26673569703942 62.8115625 L 31.688779847282 62.05874999999999 L 31.094749671427344 61.305937499999985 L 30.486613782458672 60.55312499999999 L 29.866439428220932 59.80031249999999 L 29.236378036093136 59.04749999999999 L 28.59865016903133 58.294687499999995 L 27.955529998177756 57.541875 L 27.309329400612285 56.7890625 L 26.662381793443327 56.036249999999995 L 26.01702581727905 55.283437499999984 L 25.37558898317302 54.530624999999986 L 24.74037139739382 53.77781249999999 L 24.113629677823866 53.02499999999999 L 24.117246397393817 53.77781249999999 L 24.12933898317302 54.530624999999986 L 24.14765081727905 55.283437499999984 L 24.169881793443327 56.036249999999995 L 24.193704400612283 56.7890625 L 24.216779998177756 57.541875 L 24.236775169031333 58.294687499999995 L 24.251378036093136 59.04749999999999 L 24.25831442822093 59.80031249999999 L 24.255363782458673 60.55312499999999 L 24.240374671427347 61.305937499999985 L 24.211279847282 62.05874999999999 L 24.16611069703942 62.8115625 L 24.10301100819693 63.564375 L 24.020249948385533 64.31718749999999 L 23.916234168296594 65.07 L 23.78951894325172 65.8228125 L 23.638818275507987 66.57562499999999 L 23.463013886657563 67.32843749999998 L 23.261163037242028 68.08125 L 23.032505118902336 68.8340625 L 22.776466972968517 69.58687499999999 L 22.492666898298577 70.3396875 L 22.180917320341692 71.0925 L 21.84122610276207 71.84531249999999 L 21.47379649245191 72.59812499999998 L 21.079025698317935 73.35093749999999 L 20.657502113779465 74.10374999999999 L 20.21000120239979 74.8565625 L 19.737480075420773 75.609375 L 19.241070799117487 76.3621875 L 18.72207247877162 77.115 L 17.74082247877162 77.115 L 16.759572478771616 77.115 L 15.778322478771617 77.115 L 14.797072478771618 77.115 L 13.815822478771619 77.115 L 12.83457247877162 77.115 L 11.85332247877162 77.115 L 10.872072478771617 77.115 L 9.890822478771618 77.115 L 8.909572478771619 77.115 L 7.928322478771618 77.115 L 6.947072478771618 77.115 L 5.965822478771618 77.115 L 4.984572478771618 77.115 L 4.003322478771619 77.115 L 3.0220724787716184 77.115 L 3.8848087588084503 75.88312499999999 L 4.684855847813156 74.65125 L 5.417226670894471 73.419375 L 6.078200073894817 72.1875 L 6.665390429568143 70.955625 L 7.177792262012916 69.72375 L 7.61579905463638 68.491875 L 7.981195889837071 67.25999999999999 L 8.27712605808425 66.02812499999999 L 8.508032260989278 64.79624999999999 L 8.679573508196924 63.564374999999984 L 8.798519262584652 62.33249999999999 L 8.872622813840566 61.100624999999994 L 8.910476249034899 59.86874999999999 L 8.921349733038051 58.63687499999999 L 8.915018105130882 57.404999999999994 L 8.90157803541035 56.173125 L 8.891259161177691 54.94125 L 8.894232736103955 53.709374999999994 L 8.920421371492559 52.4775 L 8.979313428530247 51.245625000000004 L 9.079785533418638 50.01375 L 9.229936535335694 48.78187499999999 L 9.436936013132227 47.55 L 9.706890164526639 46.318124999999995 L 10.044727586412248 45.08624999999999 L 10.454107082817579 43.854375 L 10.93734922502102 42.622499999999995 L 11.495392944024493 41.390624999999986 L 12.127777967347102 40.15874999999999 L 12.832653428667959 38.926874999999995 L 13.606812489270174 37.69499999999999 L 13.395789686778995 36.517031249999995 L 13.239034598046644 35.3390625 L 13.130643411934658 34.16109374999999 L 13.06388497776933 32.983124999999994 L 13.031315952109622 31.805156249999996 L 13.024908128676497 30.627187499999994 L 13.036185773267844 29.449218749999993 L 13.056370614332353 28.271249999999995 L 13.076532008913778 27.093281249999997 L 13.087739715144314 25.915312499999995 L 13.08121665787674 24.737343749999994 L 13.048489074162337 23.559374999999996 L 12.981531470103416 22.381406249999998 L 12.87290390936875 21.203437499999996 L 12.715879284839016 20.025468749999995 L 12.504558396203437 18.847499999999997 L 12.233970864926913 17.66953125 L 11.900160160280683 16.491562499999997 L 11.500251281934444 15.313593749999997 L 11.032499941294258 14.135624999999997 L 10.4963224002632 12.957656249999998 L 9.892305456986511 11.779687499999998 L 9.222196407759574 10.601718749999998 L 8.48887315681587 9.423749999999998 L 7.696294985313306 8.245781249999999 L 6.849434821691737 7.067812499999999 L 5.954194172022242 5.889843749999999 L 5.017302165596371 4.711874999999999 L 4.046200442737124 3.5339062499999994 L 3.048915854004087 2.3559374999999996 L 2.03392314847019 1.1779687499999998 L 1.0099999999999998 0 L 1.9731249999999998 0 L 2.93625 0 L 3.899375 0 L 4.8625 0 L 5.8256250000000005 0 L 6.78875 0 L 7.751875 0 L 8.715 0 L 9.678125 0 L 10.64125 0 L 11.604375 0 L 12.567499999999999 0 L 13.530624999999999 0 L 14.493749999999999 0 L 15.456874999999998 0 L 16.419999999999998 0 L 17.041391634940883 0.7457812499999998 L 17.66051120258273 1.4915624999999997 L 18.27510222794045 2.2373437499999995 L 18.882939313652848 2.9831249999999994 L 19.481843412018947 3.728906249999999 L 20.0696967789546 4.474687499999999 L 20.644457507246262 5.220468749999998 L 21.20417353936579 5.966249999999999 L 21.746996063681856 6.712031249999999 L 22.271192202134863 7.457812499999998 L 22.775156902304936 8.203593749999998 L 23.25742395226223 8.949374999999998 L 23.71667604260899 9.695156249999998 L 24.151753806661453 10.440937499999997 L 24.561663776732356 11.186718749999997 L 24.945585201913183 11.932499999999997 L 25.302875680568324 12.678281249999996 L 25.633075568887598 13.424062499999998 L 25.935911135242883 14.169843749999998 L 26.211296438701787 14.915624999999997 L 26.459333918806855 15.661406249999995 L 26.680313692572817 16.407187499999996 L 26.8747115635264 17.15296875 L 27.043185756451823 17.898749999999996 L 27.186572400250178 18.644531249999993 L 27.305879789912076 19.390312499999997 L 27.402281466981403 20.136093749999997 L 27.477108165996263 20.881874999999994 L 27.531838682175543 21.627656249999994 L 27.568089723022652 22.373437499999994 L 27.587604813490888 23.119218749999995 L 27.592242330849988 23.864999999999995 L 28.15697981349089 23.119218749999995 L 28.706839723022654 22.373437499999994 L 29.239963682175546 21.627656249999994 L 29.754608165996267 20.881874999999994 L 30.249156466981407 20.136093749999997 L 30.722129789912074 19.390312499999997 L 31.172197400250177 18.644531249999993 L 31.598185756451826 17.898749999999996 L 31.999086563526408 17.15296875 L 32.374063692572825 16.407187499999996 L 32.72245891880686 15.661406249999995 L 33.04379643870179 14.915624999999997 L 33.33778613524288 14.169843749999998 L 33.6043255688876 13.424062499999998 L 33.843500680568326 12.678281249999996 L 34.05558520191318 11.932499999999997 L 34.24103877673235 11.186718749999997 L 34.400503806661455 10.440937499999997 L 34.53480104260899 9.695156249999998 L 34.64492395226223 8.949374999999998 L 34.73203190230494 8.203593749999998 L 34.79744220213486 7.457812499999998 L 34.842621063681854 6.712031249999999 L 34.86917353936579 5.966249999999999 L 34.87883250724626 5.220468749999998 L 34.8734467789546 4.474687499999999 L 34.85496841201895 3.728906249999999 L 34.82543931365285 2.9831249999999994 L 34.786977227940454 2.2373437499999995 L 34.74176120258272 1.4915624999999997 L 34.69201663494088 0.7457812499999998 L 34.64 0 L 35.63 0 L 36.620000000000005 0 L 37.61 0 L 38.6 0 L 39.59 0 L 40.58 0 L 41.57 0 L 42.56 0 L 43.55 0 L 44.54 0 L 45.53 0 L 46.519999999999996 0 L 47.51 0 L 48.5 0 L 49.489999999999995 0 L 50.48 0 L 50.5155973231984 1.2285937499999997 L 50.541066425964715 2.4571874999999994 L 50.54646753528777 3.685781249999999 L 50.5222342667128 4.914374999999999 L 50.45935161814508 6.142968749999998 L 50.34952370453782 7.371562499999998 L 50.18532811256406 8.600156249999998 L 49.960354003322564 9.828749999999998 L 49.66932139351514 11.057343749999998 L 49.30817939572892 12.285937499999996 L 48.87418158994815 13.514531249999997 L 48.36593712391991 14.743124999999996 L 47.78343659159171 15.971718749999996 L 47.12805220812208 17.200312499999995 L 46.40251227820806 18.428906249999997 L 45.610850432776175 19.657499999999995 L 44.75833057854787 20.886093749999993 L 43.85134895688071 22.114687499999995 L 42.897315134195594 23.343281249999993 L 41.9045141383025 24.57187499999999 L 40.881952305740334 25.800468749999993 L 39.83918970832175 27.029062499999995 L 38.78616227678371 28.257656249999997 L 37.732996931142004 29.48624999999999 L 36.689823157466044 30.71484374999999 L 35.666584536909355 31.94343749999999 L 34.672853733719066 33.17203124999999 L 33.71765438458944 34.40062499999999 L 32.809293203317054 35.62921874999999 L 31.95520542464739 36.857812499999994 L 31.161816463011316 38.08640624999999 L 30.434422360153054 39.31499999999999 L 30.434422360153054 39.31499999999999 Z" fill="black" stroke="black" />
				</svg>