<svg
					xmlns="http://www.w3.org/2000/svg" xmlns:xlink="http://www.w3.org/1999/xlink"
					style="
						overflow: visible;
						height: 100;
					"
					viewBox="0 0 48.12369888781098 77.115"
				>
					<path d="M 15.12 0 L 15.791221078341211 0.8943749999999999 L 16.45852637072559 1.7887499999999998 L 17.118038729299325 2.6831249999999995 L 17.76595790116221 3.5774999999999997 L 18.398598026475206 4.471875 L 19.012424007821227 5.366249999999999 L 19.60408639195295 6.260625 L 20.170454419740146 7.154999999999999 L 20.708646918203904 8.049374999999998 L 21.216060729817844 8.94375 L 21.69039639855677 9.838125 L 22.129680859241766 10.732499999999998 L 22.532286906299834 11.626875 L 22.896949249834694 12.52125 L 23.222777000579228 13.415624999999999 L 23.509262460537162 14.309999999999999 L 23.756286132574406 15.204374999999999 L 23.964117899529125 16.098749999999995 L 24.133414361205887 16.993125 L 24.265212355530494 17.8875 L 24.360918727794008 18.781875 L 24.42229644893554 19.67625 L 24.45144721983843 20.570625 L 24.45079073328781 21.464999999999996 L 24.42304079821743 22.359375 L 24.371178561834036 23.25375 L 24.29842309384386 24.148125 L 24.208199623034414 25.0425 L 24.104105739629716 25.936874999999997 L 23.989875896909297 26.831249999999997 L 23.869344562363025 27.725625 L 23.74640838197906 28.619999999999997 L 24.420594562363025 27.725625 L 25.092375896909296 26.831249999999997 L 25.757855739629715 25.936874999999997 L 26.413199623034416 25.0425 L 27.054673093843864 24.148125 L 27.67867856183404 23.25375 L 28.28179079821743 22.359375 L 28.860790733287814 21.464999999999996 L 29.412697219838428 20.570625 L 29.934796448935536 19.67625 L 30.424668727794003 18.781875 L 30.880212355530492 17.8875 L 31.29966436120589 16.993125 L 31.681617899529126 16.098749999999995 L 32.02503613257441 15.204374999999999 L 32.32926246053716 14.309999999999999 L 32.59402700057923 13.415624999999999 L 32.81944924983469 12.52125 L 33.00603690629983 11.626875 L 33.15468085924177 10.732499999999998 L 33.26664639855677 9.838125 L 33.343560729817845 8.94375 L 33.387396918203905 8.049374999999998 L 33.40045441974014 7.154999999999999 L 33.38533639195295 6.260625 L 33.34492400782122 5.366249999999999 L 33.282348026475205 4.471875 L 33.200957901162205 3.5774999999999997 L 33.10428872929933 2.6831249999999995 L 32.99602637072559 1.7887499999999998 L 32.879971078341214 0.8943749999999999 L 32.76 0 L 33.700625 0 L 34.64125 0 L 35.581875 0 L 36.522499999999994 0 L 37.46312499999999 0 L 38.403749999999995 0 L 39.344375 0 L 40.285 0 L 41.225624999999994 0 L 42.16625 0 L 43.106875 0 L 44.0475 0 L 44.988125 0 L 45.92875 0 L 46.869375000000005 0 L 47.81 0 L 47.8715133937977 0.7340624999999998 L 47.930860035732806 1.4681249999999997 L 47.985887580143526 2.2021874999999995 L 48.03447239798633 2.9362499999999994 L 48.07453369632372 3.670312499999999 L 48.10404735300525 4.404374999999999 L 48.12105937455837 5.138437499999998 L 48.12369888781098 5.872499999999999 L 48.11019057886746 6.606562499999999 L 48.07886649673461 7.340624999999998 L 48.02817714311799 8.074687499999998 L 47.9567017746554 8.808749999999998 L 47.8631578490904 9.542812499999998 L 47.746409552580694 10.276874999999997 L 47.60547535144529 11.010937499999997 L 47.43953451814082 11.744999999999997 L 47.247932588077276 12.479062499999996 L 47.030185710992335 13.213124999999998 L 46.78598386795283 13.947187499999998 L 46.51519293259449 14.681249999999997 L 46.217855562895174 15.415312499999995 L 45.894190917552464 16.149374999999996 L 45.54459319885132 16.8834375 L 45.16962903170995 17.617499999999996 L 44.770033696329946 18.351562499999993 L 44.34670623949885 19.085624999999997 L 43.900703497048994 19.819687499999997 L 43.433233067215646 20.553749999999994 L 42.9456452816131 21.287812499999994 L 42.43942422721152 22.021874999999994 L 41.91617787900725 22.755937499999995 L 41.37762740899222 23.489999999999995 L 40.825595742504156 24.224062499999995 L 40.261995438043954 24.958124999999992 L 39.68881597114407 25.692187499999996 L 39.10811050683451 26.426249999999996 L 38.52198224865298 27.160312499999993 L 37.932570454961336 27.894374999999997 L 37.34203621554229 28.628437499999997 L 36.75254808304441 29.362499999999994 L 36.16626765480837 30.09656249999999 L 35.585335200937344 30.83062499999999 L 35.01185543416684 31.564687499999994 L 34.447883516146945 32.29874999999999 L 33.89541139317736 33.03281249999999 L 33.356354552245904 33.766875 L 32.83253928542614 34.50093749999999 L 32.32569054731006 35.23499999999999 L 31.83742048620885 35.96906249999999 L 31.36921772537481 36.703124999999986 L 30.922437465511123 37.43718749999999 L 30.49829247437534 38.17124999999999 L 30.0978450233845 38.905312499999994 L 29.7219998248335 39.639374999999994 L 29.3714980166853 40.373437499999994 L 29.046912234926733 41.10749999999999 L 28.74864280625245 41.84156249999999 L 28.476915086391173 42.57562499999999 L 28.23177796177076 43.309687499999995 L 28.01310352448439 44.04374999999999 L 27.820587922718776 44.77781249999999 L 27.65375338099025 45.51187499999999 L 27.51195137675656 46.24593749999999 L 27.39436695228391 46.97999999999999 L 27.616563837941612 47.92171874999999 L 27.874567482644437 48.86343749999999 L 28.165555691646155 49.80515624999999 L 28.486345465746904 50.746874999999996 L 28.833427818799787 51.688593749999995 L 29.20300616105346 52.63031249999999 L 29.591037828471038 53.572031249999995 L 29.9932783037535 54.51374999999999 L 30.4053276453521 55.45546874999999 L 30.822678616602094 56.397187499999994 L 31.240765988513218 57.338906249999994 L 31.65501647691413 58.280624999999986 L 32.06089876770915 59.22234374999999 L 32.453973083041696 60.164062499999986 L 32.82993974618093 61.105781249999986 L 33.184686213900235 62.04749999999999 L 33.51433206188006 62.98921875 L 33.815271431058406 63.9309375 L 34.08421247062594 64.87265624999999 L 34.318213346215245 65.814375 L 34.514714419405465 66.75609374999999 L 34.67156624654428 67.6978125 L 34.787053090619544 68.63953125 L 34.85991168899409 69.58125 L 34.889345071711205 70.52296874999999 L 34.8750312792181 71.4646875 L 34.81712688414776 72.40640624999999 L 34.716265278635944 73.34812499999998 L 34.57354974590757 74.28984374999999 L 34.39054139191964 75.2315625 L 34.16924206907129 76.17328124999999 L 33.91207247877162 77.115 L 33.03894747877162 77.115 L 32.16582247877162 77.115 L 31.292697478771622 77.115 L 30.41957247877162 77.115 L 29.54644747877162 77.115 L 28.67332247877162 77.115 L 27.800197478771622 77.115 L 26.92707247877162 77.115 L 26.05394747877162 77.115 L 25.18082247877162 77.115 L 24.307697478771622 77.115 L 23.43457247877162 77.115 L 22.56144747877162 77.115 L 21.68832247877162 77.115 L 20.815197478771623 77.115 L 19.94207247877162 77.115 L 20.19410399524946 76.1934375 L 20.41183682079503 75.271875 L 20.592990041026855 74.3503125 L 20.73566594031918 73.42875000000001 L 20.838369881794133 72.5071875 L 20.900025964762154 71.585625 L 20.919988295587338 70.6640625 L 20.898047753906905 69.74249999999999 L 20.83443418332359 68.82093749999999 L 20.729813983621796 67.89937499999999 L 20.58528312973085 66.9778125 L 20.402355690567017 66.05624999999999 L 20.182947968027854 65.1346875 L 19.929358422294964 64.21312499999999 L 19.644243593742566 63.29156249999999 L 19.33059027368789 62.37 L 18.991684215515697 61.448437500000004 L 18.631075713951248 60.526875000000004 L 18.252542413064695 59.6053125 L 17.860049732620823 58.68375 L 17.457709327337753 57.762187499999996 L 17.049736014225083 56.840624999999996 L 16.64040361921974 55.9190625 L 16.234000205659104 54.9975 L 15.834783153606796 54.075937499999995 L 15.446934560608614 53.154375 L 15.074517431089296 52.232812499999994 L 14.721433113338875 51.311249999999994 L 14.391380429968104 50.3896875 L 14.087816929971977 49.468125 L 13.813922668315087 48.54656249999999 L 13.572566892474708 47.625 L 13.138786090662926 46.880859375 L 12.729033976717044 46.13671875 L 12.344303835056373 45.392578125 L 11.985417988285551 44.6484375 L 11.653022178702 43.904296875 L 11.347581156282622 43.16015625 L 11.06937550329463 42.416015625 L 10.81849971722631 41.671875 L 10.594861565135986 40.927734375 L 10.398182713830613 40.18359375 L 10.228000631568296 39.439453125 L 10.083671748291419 38.6953125 L 9.964375852798213 37.951171875 L 9.869121696809213 37.20703125 L 9.796753767638979 36.462890625 L 9.745960183199099 35.71875 L 9.71528165539001 34.974609375 L 9.70312146063967 34.23046875 L 9.707756349465589 33.486328125 L 9.72734832052108 32.7421875 L 9.75995717867989 31.998046875 L 9.803553791356514 31.25390625 L 9.856033952488817 30.509765625 L 9.915232759457771 29.765625 L 9.97893940471441 29.021484375 L 10.044912281050776 28.27734375 L 10.110894297308509 27.533203125 L 10.174628299881025 26.7890625 L 10.233872494642391 26.044921875 L 10.286415763933032 25.30078125 L 10.330092773949461 24.556640625 L 10.362798769317328 23.8125 L 10.382503953764298 23.068359375 L 10.387267358637287 22.32421875 L 10.375250104507883 21.580078125 L 10.344727965256439 20.8359375 L 10.294103148791155 20.091796875 L 10.22191521391076 19.34765625 L 10.12685104872168 18.603515625 L 10.007753842432502 17.859375 L 9.863630989226209 17.115234375 L 9.69366087020725 16.37109375 L 9.497198467086024 15.626953125 L 9.27377976924543 14.8828125 L 9.023124944078374 14.138671875 L 8.745140248934987 13.39453125 L 8.439918671616239 12.650390625 L 8.107739295037806 11.90625 L 7.749065390405097 11.162109375 L 7.364541251927747 10.41796875 L 6.9549877947003225 9.673828125 L 6.521396945826538 8.9296875 L 6.064924867109471 8.185546875 L 5.586884055613513 7.44140625 L 5.088734376070718 6.697265625 L 4.572073086402332 5.953125 L 4.038623924505813 5.208984375 L 3.490225330871521 4.46484375 L 2.9288178874976447 3.720703125 L 2.3564310589265967 2.9765625 L 1.7751693259943027 2.232421875 L 1.1871978070330989 1.48828125 L 0.5947274647708959 0.744140625 L 0 0 L 0.945 0 L 1.89 0 L 2.835 0 L 3.78 0 L 4.725 0 L 5.67 0 L 6.615 0 L 7.56 0 L 8.504999999999999 0 L 9.45 0 L 10.395 0 L 11.34 0 L 12.285 0 L 13.23 0 L 14.175 0 L 15.12 0 L 15.12 0 Z" fill="black" stroke="black" />
				</svg>