<svg
					xmlns="http://www.w3.org/2000/svg" xmlns:xlink="http://www.w3.org/1999/xlink"
					style="
						overflow: visible;
						height: 100;
					"
					viewBox="0 0 42.94822945103522 77.115"
				>
					<path d="M 30.209489841454015 17.069999999999993 L 30.055670994695536 18.008203124999994 L 29.862379161782414 18.946406249999992 L 29.631712939055056 19.88460937499999 L 29.36617670180741 20.822812499999994 L 29.068653413935756 21.761015624999995 L 28.74237332719829 22.699218749999993 L 28.39087890992207 23.637421874999994 L 28.017986385931206 24.575624999999995 L 27.627744301273495 25.513828124999993 L 27.224389568592326 26.452031249999997 L 26.812301466376265 27.390234375 L 26.39595409252278 28.328437499999996 L 25.97986778843449 29.266640624999994 L 25.568560061043236 30.204843749999995 L 25.16649653560837 31.143046874999996 L 24.778042471801612 32.08125 L 24.407415369475043 33.01945312499999 L 24.058639178678057 33.95765624999999 L 23.73550061107144 34.89585937499999 L 23.441508027071677 35.83406249999999 L 23.179853345093484 36.77226562499999 L 22.95337738644717 37.71046874999999 L 22.764539032146182 38.64867187499999 L 22.61538852649362 39.58687499999999 L 22.50754521729437 40.52507812499999 L 22.44217997437057 41.463281249999994 L 22.420002477264923 42.401484374999995 L 22.441253510151093 43.3396875 L 22.505702347606427 44.277890625 L 22.612649259629983 45.21609375 L 22.760933108708556 46.15429687499999 L 22.948943956448336 47.092499999999994 L 23.174640542900175 48.03070312499999 L 23.435572448803043 48.96890624999999 L 23.728906700127105 49.907109375 L 24.05145852606716 50.84531249999999 L 24.399725936542684 51.783515624999986 L 24.769927743791676 52.721718749999994 L 25.158044615252617 53.659921874999995 L 25.55986271201765 54.59812499999999 L 25.971019439068307 55.53632812499998 L 26.387050810576955 56.474531249999984 L 26.80343991602242 57.41273437499999 L 27.21566596091637 58.350937499999986 L 27.619253349698482 59.28914062499999 L 28.009820277900516 60.227343749999996 L 28.383126306007494 61.16554687499999 L 28.73511839849986 62.10374999999999 L 29.0619749282244 63.041953125 L 29.360147168332286 63.98015624999999 L 29.626397821300543 64.918359375 L 29.857836166721956 65.8565625 L 30.051949446258988 66.794765625 L 30.206630145010877 67.73296875 L 30.320198873096324 68.671171875 L 30.391422599023237 69.609375 L 30.419528036883325 70.547578125 L 30.40421004202485 71.48578125 L 30.345634924050593 72.423984375 L 30.244438641171335 73.3621875 L 30.10171989551905 74.30039062499999 L 29.91902820438486 75.23859374999999 L 29.698347076894105 76.17679687500001 L 29.442072478771617 77.115 L 28.573947478771615 77.115 L 27.705822478771616 77.115 L 26.837697478771616 77.115 L 25.969572478771617 77.115 L 25.101447478771618 77.115 L 24.23332247877162 77.115 L 23.36519747877162 77.115 L 22.497072478771617 77.115 L 21.628947478771614 77.115 L 20.760822478771615 77.115 L 19.892697478771616 77.115 L 19.024572478771617 77.115 L 18.156447478771618 77.115 L 17.28832247877162 77.115 L 16.42019747877162 77.115 L 15.552072478771617 77.115 L 15.808347076894105 76.17679687500001 L 16.029028204384858 75.23859374999999 L 16.21171989551905 74.30039062499999 L 16.35443864117134 73.3621875 L 16.455634924050592 72.423984375 L 16.514210042024853 71.48578125 L 16.529528036883328 70.547578125 L 16.501422599023236 69.609375 L 16.430198873096323 68.671171875 L 16.31663014501088 67.73296875 L 16.16194944625899 66.794765625 L 15.967836166721959 65.8565625 L 15.736397821300542 64.918359375 L 15.470147168332286 63.98015624999999 L 15.171974928224405 63.041953125 L 14.845118398499862 62.10374999999999 L 14.493126306007495 61.16554687499999 L 14.11982027790052 60.227343749999996 L 13.729253349698483 59.28914062499999 L 13.32566596091637 58.350937499999986 L 12.913439916022421 57.41273437499999 L 12.497050810576956 56.474531249999984 L 12.081019439068308 55.53632812499998 L 11.669862712017652 54.59812499999999 L 11.268044615252618 53.659921874999995 L 10.87992774379168 52.721718749999994 L 10.509725936542686 51.783515624999986 L 10.161458526067161 50.84531249999999 L 9.838906700127106 49.907109375 L 9.545572448803046 48.96890624999999 L 9.284640542900174 48.03070312499999 L 9.058943956448338 47.092499999999994 L 8.870933108708558 46.15429687499999 L 8.722649259629984 45.21609375 L 8.61570234760643 44.277890625 L 8.551253510151094 43.3396875 L 8.530002477264924 42.401484374999995 L 8.552179974370574 41.463281249999994 L 8.617545217294373 40.52507812499999 L 8.72538852649362 39.58687499999999 L 8.874539032146185 38.64867187499999 L 9.063377386447172 37.71046874999999 L 9.289853345093485 36.77226562499999 L 9.55150802707168 35.83406249999999 L 9.84550061107144 34.89585937499999 L 10.16863917867806 33.95765624999999 L 10.517415369475046 33.01945312499999 L 10.888042471801612 32.08125 L 11.276496535608372 31.143046874999996 L 11.678560061043237 30.204843749999995 L 12.08986778843449 29.266640624999994 L 12.50595409252278 28.328437499999996 L 12.922301466376267 27.390234375 L 13.334389568592327 26.452031249999997 L 13.737744301273494 25.513828124999993 L 14.127986385931205 24.575624999999995 L 14.500878909922072 23.637421874999994 L 14.85237332719829 22.699218749999993 L 15.17865341393576 21.761015624999995 L 15.476176701807413 20.822812499999994 L 15.741712939055056 19.88460937499999 L 15.972379161782417 18.946406249999992 L 16.16567099469554 18.008203124999994 L 16.31948984145402 17.069999999999993 L 15.536364841454018 17.069999999999993 L 14.753239841454018 17.069999999999993 L 13.970114841454018 17.069999999999993 L 13.186989841454018 17.069999999999993 L 12.403864841454018 17.069999999999993 L 11.620739841454018 17.069999999999993 L 10.837614841454018 17.069999999999993 L 10.054489841454018 17.069999999999993 L 9.271364841454018 17.069999999999993 L 8.488239841454018 17.069999999999993 L 7.705114841454018 17.069999999999993 L 6.921989841454018 17.069999999999993 L 6.138864841454018 17.069999999999993 L 5.355739841454018 17.069999999999993 L 4.572614841454018 17.069999999999993 L 3.7894898414540186 17.069999999999993 L 3.914337155888708 16.003124999999994 L 3.984244089515087 14.936249999999994 L 3.9982294510352117 13.869374999999994 L 3.956096946400548 12.802499999999995 L 3.8584379339322763 11.735624999999995 L 3.706623124205568 10.668749999999996 L 3.50278334119561 9.601874999999996 L 3.249779614715739 8.534999999999997 L 2.95116302392065 7.468124999999997 L 2.611124855498379 6.401249999999997 L 2.2344377761146923 5.334374999999998 L 1.8263888447945842 4.267499999999998 L 1.3927053054576093 3.2006249999999987 L 0.9394742011592241 2.133749999999999 L 0.47305693830686213 1.0668749999999996 L 0 0 L 0.60859375 0 L 1.2171875 0 L 1.8257812500000001 0 L 2.434375 0 L 3.04296875 0 L 3.6515625000000003 0 L 4.2601562500000005 0 L 4.86875 0 L 5.47734375 0 L 6.0859375 0 L 6.694531250000001 0 L 7.3031250000000005 0 L 7.91171875 0 L 8.520312500000001 0 L 9.12890625 0 L 9.7375 0 L 10.346093750000001 0 L 10.9546875 0 L 11.56328125 0 L 12.171875 0 L 12.78046875 0 L 13.389062500000001 0 L 13.997656250000002 0 L 14.606250000000001 0 L 15.21484375 0 L 15.8234375 0 L 16.43203125 0 L 17.040625000000002 0 L 17.649218750000003 0 L 18.2578125 0 L 18.86640625 0 L 19.475 0 L 20.083593750000002 0 L 20.692187500000003 0 L 21.30078125 0 L 21.909375 0 L 22.51796875 0 L 23.1265625 0 L 23.73515625 0 L 24.34375 0 L 24.95234375 0 L 25.5609375 0 L 26.169531250000002 0 L 26.778125000000003 0 L 27.386718750000004 0 L 27.995312500000004 0 L 28.60390625 0 L 29.212500000000002 0 L 29.821093750000003 0 L 30.4296875 0 L 31.03828125 0 L 31.646875 0 L 32.255468750000006 0 L 32.8640625 0 L 33.47265625 0 L 34.081250000000004 0 L 34.68984375000001 0 L 35.298437500000006 0 L 35.90703125 0 L 36.515625 0 L 37.12421875 0 L 37.7328125 0 L 38.341406250000006 0 L 38.95 0 L 39.423056938306864 1.0668749999999996 L 39.889474201159224 2.133749999999999 L 40.34270530545761 3.2006249999999987 L 40.77638884479459 4.267499999999998 L 41.18443777611469 5.334374999999998 L 41.561124855498385 6.401249999999997 L 41.90116302392065 7.468124999999997 L 42.199779614715744 8.534999999999997 L 42.45278334119561 9.601874999999996 L 42.656623124205574 10.668749999999996 L 42.80843793393228 11.735624999999995 L 42.90609694640055 12.802499999999995 L 42.94822945103522 13.869374999999994 L 42.93424408951509 14.936249999999994 L 42.86433715588871 16.003124999999994 L 42.739489841454024 17.069999999999993 L 41.956364841454025 17.069999999999993 L 41.17323984145403 17.069999999999993 L 40.39011484145403 17.069999999999993 L 39.60698984145402 17.069999999999993 L 38.82386484145402 17.069999999999993 L 38.04073984145402 17.069999999999993 L 37.25761484145402 17.069999999999993 L 36.47448984145402 17.069999999999993 L 35.691364841454025 17.069999999999993 L 34.90823984145402 17.069999999999993 L 34.12511484145402 17.069999999999993 L 33.34198984145402 17.069999999999993 L 32.55886484145402 17.069999999999993 L 31.775739841454016 17.069999999999993 L 30.992614841454017 17.069999999999993 L 30.209489841454015 17.069999999999993 L 30.209489841454015 17.069999999999993 Z" fill="black" stroke="black" />
				</svg>