<svg
					xmlns="http://www.w3.org/2000/svg" xmlns:xlink="http://www.w3.org/1999/xlink"
					style="
						overflow: visible;
						height: 100;
					"
					viewBox="0.5 0 43.529688667984956 77.115"
				>
					<path d="M 41.63719893307737 60.27000000000001 L 42.05372253121825 61.32281250000001 L 42.44258482139284 62.375625000000014 L 42.798470628522026 63.428437500000015 L 43.11651551750663 64.48125 L 43.392372282894534 65.5340625 L 43.622270368779844 66.58687499999999 L 43.80306740675166 67.63968750000001 L 43.93229216744449 68.6925 L 44.008178338605916 69.74531250000001 L 44.029688667984956 70.798125 L 43.996529141043425 71.85093750000001 L 43.90915299970191 72.90375 L 43.76875454718984 73.95656249999999 L 43.57725282367852 75.00937499999999 L 43.337265375826824 76.0621875 L 43.05207247877162 77.115 L 42.426603728771624 77.115 L 41.80113497877162 77.115 L 41.17566622877162 77.115 L 40.55019747877162 77.115 L 39.924728728771626 77.115 L 39.29925997877162 77.115 L 38.67379122877162 77.115 L 38.048322478771624 77.115 L 37.42285372877163 77.115 L 36.797384978771625 77.115 L 36.17191622877162 77.115 L 35.546447478771626 77.115 L 34.92097872877162 77.115 L 34.29550997877162 77.115 L 33.67004122877162 77.115 L 33.04457247877162 77.115 L 32.41910372877162 77.115 L 31.79363497877162 77.115 L 31.16816622877162 77.115 L 30.542697478771622 77.115 L 29.917228728771622 77.115 L 29.291759978771623 77.115 L 28.66629122877162 77.115 L 28.04082247877162 77.115 L 27.41535372877162 77.115 L 26.789884978771617 77.115 L 26.164416228771618 77.115 L 25.538947478771618 77.115 L 24.91347872877162 77.115 L 24.28800997877162 77.115 L 23.66254122877162 77.115 L 23.03707247877162 77.115 L 22.41160372877162 77.115 L 21.78613497877162 77.115 L 21.16066622877162 77.115 L 20.53519747877162 77.115 L 19.909728728771622 77.115 L 19.284259978771622 77.115 L 18.65879122877162 77.115 L 18.03332247877162 77.115 L 17.40785372877162 77.115 L 16.78238497877162 77.115 L 16.15691622877162 77.115 L 15.531447478771618 77.115 L 14.905978728771618 77.115 L 14.280509978771619 77.115 L 13.65504122877162 77.115 L 13.02957247877162 77.115 L 12.40410372877162 77.115 L 11.77863497877162 77.115 L 11.153166228771621 77.115 L 10.527697478771618 77.115 L 9.902228728771618 77.115 L 9.276759978771619 77.115 L 8.651291228771619 77.115 L 8.02582247877162 77.115 L 7.400353728771619 77.115 L 6.7748849787716185 77.115 L 6.149416228771619 77.115 L 5.5239474787716185 77.115 L 4.898478728771618 77.115 L 4.2730099787716185 77.115 L 3.6475412287716185 77.115 L 3.0220724787716184 77.115 L 3.24366320945078 76.31156250000001 L 3.4394214367051066 75.50812499999999 L 3.607788143845919 74.70468749999999 L 3.7474224599942128 73.90125 L 3.8572123387637895 73.0978125 L 3.9362834145882553 72.294375 L 3.984005966160202 71.4909375 L 3.9999999315258057 70.6875 L 3.984137934894673 69.8840625 L 3.936546301059433 69.080625 L 3.8576040493462784 68.2771875 L 3.747939875108601 67.47375 L 3.6084271428030816 66.67031250000001 L 3.4401769305233327 65.86687500000001 L 3.2445291813843764 65.06343749999999 L 3.023042032228217 64.26 L 3.145082737904726 63.519140625000006 L 3.248178209623842 62.77828125 L 3.333984705800705 62.03742187500001 L 3.404275572354972 61.29656250000001 L 3.460929232939158 60.555703125 L 3.50591646754071 59.81484375000001 L 3.5412870656118756 59.07398437500001 L 3.5691559441175595 58.333125 L 3.5916888245148892 57.592265624999996 L 3.6110875656654833 56.85140625 L 3.6295752520115396 56.110546875000004 L 3.6493811380041645 55.3696875 L 3.672725550746147 54.628828125 L 3.7018048530940604 53.887968750000006 L 3.7387765690553305 53.147109375 L 3.7857447722167996 52.40625 L 3.844745836159744 51.665390625 L 3.9177346433650873 50.924531249999994 L 4.006571346007243 50.183671875 L 4.11300876829754 49.4428125 L 4.238680535693401 48.701953124999996 L 4.385090011366664 47.961093749999996 L 4.553600114857584 47.220234375000004 L 4.745424091866395 46.479375 L 4.9616172976929445 45.73851562499999 L 5.203070049970022 44.99765625 L 5.4705015990944315 44.256796875 L 5.7644552571903045 43.51593749999999 L 6.085294718593181 42.77507812499999 L 6.433201596773929 42.034218749999994 L 6.80817419438338 41.293359374999994 L 7.210027514747425 40.552499999999995 L 7.638394514734712 39.811640624999995 L 8.092728590512039 39.070781249999996 L 8.572307279352984 38.329921875 L 9.076237152429703 37.5890625 L 9.603459865452058 36.84820312499999 L 10.152759326176845 36.10734374999999 L 10.722769930246052 35.366484375 L 11.311985809577898 34.62562499999999 L 11.918771030677023 33.884765624999986 L 12.541370673797065 33.14390624999999 L 13.177922717923279 32.403046874999994 L 13.826470651085575 31.66218749999999 L 14.484976720600196 30.921328124999988 L 15.151335733504325 30.18046874999999 L 15.823389313721885 29.439609374999993 L 16.49894051940554 28.69874999999999 L 17.175768721460752 27.957890624999987 L 17.85164464248886 27.21703124999999 L 18.524345454299763 26.47617187499999 L 19.191669831748115 25.73531249999999 L 19.85145286094273 24.994453124999986 L 20.501580700865162 24.253593749999986 L 21.140004899103417 23.512734374999987 L 21.764756264749167 22.771874999999987 L 22.373958204506017 22.031015624999988 L 22.96583943169158 21.29015624999999 L 23.53874596206318 20.549296874999985 L 24.09115231522695 19.808437499999986 L 24.62167184577003 19.067578124999986 L 25.12906613414965 18.326718749999984 L 25.612253373740295 17.585859374999984 L 26.070315697238794 16.844999999999985 L 25.390628197238794 16.844999999999985 L 24.710940697238794 16.844999999999985 L 24.031253197238794 16.844999999999985 L 23.351565697238794 16.844999999999985 L 22.671878197238794 16.844999999999985 L 21.992190697238794 16.844999999999985 L 21.312503197238794 16.844999999999985 L 20.632815697238794 16.844999999999985 L 19.953128197238794 16.844999999999985 L 19.273440697238794 16.844999999999985 L 18.593753197238794 16.844999999999985 L 17.914065697238794 16.844999999999985 L 17.234378197238794 16.844999999999985 L 16.554690697238794 16.844999999999985 L 15.875003197238794 16.844999999999985 L 15.195315697238794 16.844999999999985 L 14.515628197238794 16.844999999999985 L 13.835940697238794 16.844999999999985 L 13.156253197238794 16.844999999999985 L 12.476565697238794 16.844999999999985 L 11.796878197238794 16.844999999999985 L 11.117190697238794 16.844999999999985 L 10.437503197238794 16.844999999999985 L 9.757815697238794 16.844999999999985 L 9.078128197238794 16.844999999999985 L 8.398440697238794 16.844999999999985 L 7.718753197238794 16.844999999999985 L 7.039065697238794 16.844999999999985 L 6.359378197238794 16.844999999999985 L 5.679690697238794 16.844999999999985 L 5.000003197238794 16.844999999999985 L 4.320315697238794 16.844999999999985 L 4.432558444700739 15.792187499999986 L 4.491048907174884 14.739374999999987 L 4.494987606140515 13.686562499999987 L 4.444320705380764 12.633749999999988 L 4.339740746844436 11.58093749999999 L 4.182677184617036 10.52812499999999 L 3.975276846387651 9.47531249999999 L 3.720374589474703 8.422499999999992 L 3.421454552499469 7.369687499999993 L 3.0826025323399873 6.316874999999994 L 2.708450137302257 5.264062499999995 L 2.3041114798526903 4.211249999999996 L 1.8751132742289611 3.158437499999997 L 1.4273192943920177 2.105624999999998 L 0.9668502248678462 1.052812499999999 L 0.5 0 L 1.10875 0 L 1.7174999999999998 0 L 2.32625 0 L 2.9349999999999996 0 L 3.5437499999999997 0 L 4.1525 0 L 4.7612499999999995 0 L 5.369999999999999 0 L 5.978749999999999 0 L 6.587499999999999 0 L 7.196249999999999 0 L 7.804999999999999 0 L 8.413749999999999 0 L 9.022499999999999 0 L 9.631249999999998 0 L 10.239999999999998 0 L 10.848749999999999 0 L 11.457499999999998 0 L 12.066249999999997 0 L 12.674999999999997 0 L 13.283749999999998 0 L 13.892499999999998 0 L 14.501249999999999 0 L 15.109999999999998 0 L 15.718749999999996 0 L 16.327499999999997 0 L 16.936249999999998 0 L 17.544999999999998 0 L 18.153749999999995 0 L 18.762499999999996 0 L 19.371249999999996 0 L 19.979999999999997 0 L 20.588749999999997 0 L 21.197499999999998 0 L 21.80625 0 L 22.414999999999996 0 L 23.023749999999993 0 L 23.632499999999993 0 L 24.241249999999994 0 L 24.849999999999994 0 L 25.458749999999995 0 L 26.067499999999995 0 L 26.676249999999996 0 L 27.284999999999997 0 L 27.893749999999997 0 L 28.502499999999998 0 L 29.11125 0 L 29.719999999999995 0 L 30.328749999999992 0 L 30.937499999999993 0 L 31.546249999999993 0 L 32.154999999999994 0 L 32.763749999999995 0 L 33.372499999999995 0 L 33.981249999999996 0 L 34.589999999999996 0 L 35.19874999999999 0 L 35.80749999999999 0 L 36.41624999999999 0 L 37.02499999999999 0 L 37.63374999999999 0 L 38.24249999999999 0 L 38.85124999999999 0 L 39.459999999999994 0 L 39.816609239337524 0.8034374999999994 L 40.17037844603243 1.6068749999999987 L 40.51849020543546 2.410312499999998 L 40.85817215875462 3.2137499999999974 L 41.18671908209462 4.017187499999997 L 41.501514430834646 4.820624999999996 L 41.80005117776523 5.6240624999999955 L 42.07995177902947 6.427499999999995 L 42.33898710886002 7.230937499999994 L 42.575094212315825 8.034374999999994 L 42.786392734635996 8.837812499999993 L 42.97119989636748 9.641249999999992 L 43.128043895004865 10.444687499999992 L 43.25567562641177 11.248124999999991 L 43.353078632674475 12.05156249999999 L 43.41947719716323 12.85499999999999 L 43.105111020087875 13.59585937499999 L 42.76370430757887 14.33671874999999 L 42.39521473539625 15.077578124999992 L 41.99978339470528 15.818437499999991 L 41.57773383655346 16.55929687499999 L 41.12956988066004 17.300156249999993 L 40.655972203357706 18.041015624999993 L 40.157793727794 18.781874999999992 L 39.636053847612146 19.52273437499999 L 39.0919315232303 20.26359374999999 L 38.526757297474134 21.004453124999994 L 37.942004284635836 21.745312499999994 L 37.33927819398494 22.486171874999993 L 36.720306455295756 23.227031249999996 L 36.086926520037224 23.967890624999995 L 35.44107341745419 24.708749999999995 L 34.784766649814884 25.449609374999998 L 34.12009651557507 26.190468749999994 L 33.44920995308348 26.931328124999993 L 32.77429600070047 27.672187499999996 L 32.097570971799335 28.413046875 L 31.421263445050993 29.15390625 L 30.747599171643294 29.894765624999994 L 30.078786001649206 30.635624999999997 L 29.416998931628118 31.376484375 L 28.764365374723592 32.117343749999996 L 28.1229507530141 32.858203124999996 L 27.494744509690737 33.5990625 L 26.88164663579286 34.339921875 L 26.285454802747587 35.08078125 L 25.707852187856588 35.821640625 L 25.150396075180534 36.5625 L 24.61450730902036 37.303359375 L 24.101460671420373 38.04421875 L 23.612376248860386 38.785078125 L 23.148211846604955 39.5259375 L 22.709756502082577 40.266796875000004 L 22.297625141224742 41.007656250000004 L 21.91225441395412 41.748515624999996 L 21.553899737025564 42.489375 L 21.22263356424689 43.23023437500001 L 20.9183448957942 43.97109375 L 20.6407400299448 44.711953125 L 20.38934455213678 45.45281250000001 L 20.16350654788445 46.19367187500001 L 19.9624010177907 46.934531250000006 L 19.785035464756056 47.675390625000006 L 19.630256615545736 48.416250000000005 L 19.496758231193727 49.157109375000005 L 19.38308995334886 49.89796875000001 L 19.287667126652046 50.638828125 L 19.20878153062386 51.3796875 L 19.144612948381962 52.12054687500001 L 19.09324149384071 52.86140625 L 19.05266061390846 53.602265625 L 19.020790677626668 54.34312500000001 L 18.9954930602201 55.083984375000014 L 18.97458462667552 55.824843750000014 L 18.955852516760654 56.565703125000006 L 18.93706913135356 57.30656250000001 L 18.9160072185894 58.04742187500001 L 18.89045495765541 58.788281250000004 L 18.858230938080997 59.52914062500001 L 18.81719893307737 60.27000000000001 L 19.53032393307737 60.27000000000001 L 20.24344893307737 60.27000000000001 L 20.956573933077372 60.27000000000001 L 21.66969893307737 60.27000000000001 L 22.38282393307737 60.27000000000001 L 23.09594893307737 60.27000000000001 L 23.80907393307737 60.27000000000001 L 24.52219893307737 60.27000000000001 L 25.235323933077368 60.27000000000001 L 25.94844893307737 60.27000000000001 L 26.66157393307737 60.27000000000001 L 27.37469893307737 60.27000000000001 L 28.08782393307737 60.27000000000001 L 28.800948933077372 60.27000000000001 L 29.51407393307737 60.27000000000001 L 30.22719893307737 60.27000000000001 L 30.940323933077373 60.27000000000001 L 31.65344893307737 60.27000000000001 L 32.366573933077376 60.27000000000001 L 33.079698933077374 60.27000000000001 L 33.79282393307737 60.27000000000001 L 34.50594893307738 60.27000000000001 L 35.219073933077375 60.27000000000001 L 35.93219893307737 60.27000000000001 L 36.64532393307737 60.27000000000001 L 37.35844893307737 60.27000000000001 L 38.071573933077374 60.27000000000001 L 38.78469893307737 60.27000000000001 L 39.49782393307737 60.27000000000001 L 40.210948933077376 60.27000000000001 L 40.92407393307737 60.27000000000001 L 41.63719893307737 60.27000000000001 L 41.63719893307737 60.27000000000001 Z" fill="black" stroke="black" />
				</svg>