<svg
					xmlns="http://www.w3.org/2000/svg" xmlns:xlink="http://www.w3.org/1999/xlink"
					style="
						overflow: visible;
						height: 100;
					"
					viewBox="-0.31860738586576465 6.608047442568932e-13 38.76835089952126 79.275"
				>
					<path d="M 35.21243806052438 54.76500000000065 L 35.21243806052438 54.76500000000065 Q 35.38347630012086 55.155937500000654 35.546270346758455 55.54441406250065 Q 35.70989412286644 55.932890625000645 35.86461361300243 56.31890625000065 Q 36.01952090753861 56.70492187500066 36.164888387561405 57.08847656250065 Q 36.30982045512195 57.47203125000065 36.44460602055004 57.85312500000065 Q 36.578355872973695 58.23421875000066 36.70138518448488 58.612851562500666 Q 36.822805188533046 58.99148437500067 36.932966592817635 59.367656250000664 Q 37.0409751629897 59.743828125000654 37.137225905743904 60.117539062500654 Q 37.23081328443988 60.49125000000066 37.312184812655765 60.862500000000665 Q 37.390417939423486 61.23375000000067 37.456020299275096 61.60253906250067 Q 37.518046779681534 61.971328125000674 37.56707212470721 62.33765625000066 Q 37.61212331741337 62.70398437500066 37.64384854931843 63.067851562500664 Q 37.67124179718795 63.43171875000066 37.685030368418545 63.793125000000664 Q 37.69417040593458 64.15453125000067 37.68947331919175 64.51347656250067 Q 37.67985289409032 64.87242187500067 37.65620893916367 65.22890625000068 Q 37.62740869101924 65.58539062500067 37.58444396373067 65.93941406250067 Q 37.53613160626365 66.29343750000066 37.473558357941386 66.64500000000066 Q 37.40594613885905 66.99562500000067 37.32241983891706 67.33804687500066 Q 37.233499921922984 67.68046875000067 37.12902215570098 68.01468750000066 Q 37.019270010984386 68.34890625000067 36.894357574679596 68.67492187500066 Q 36.76432746891692 69.00093750000066 36.61956747225432 69.31875000000066 Q 36.46987752976869 69.63656250000065 36.305912995078955 69.94617187500066 Q 36.137231176551744 70.25578125000067 35.95474761242573 70.55718750000065 Q 35.767778717075316 70.85859375000065 35.567491753905266 71.15179687500066 Q 35.36296551732987 71.44500000000065 35.14560966038321 71.73000000000064 Q 34.92426999028374 72.01500000000064 34.69058851805146 72.29179687500064 Q 34.453183883846314 72.56859375000064 34.203919895253385 72.83718750000065 Q 33.95119486511459 73.10578125000065 33.68708345867571 73.36617187500065 Q 33.419771358622725 73.62656250000066 33.14153290960806 73.87875000000065 Q 32.860349563798934 74.13093750000064 32.56868405172353 74.37492187500064 Q 32.27432255074593 74.61890625000065 31.969904878759486 74.85468750000064 Q 31.66303131327933 75.09046875000064 31.34650755303105 75.31804687500065 Q 31.027757643316786 75.54562500000064 30.69974213331266 75.76500000000064 Q 30.369718680624757 75.98437500000065 30.030987075094497 76.19003906250066 Q 29.690545373840607 76.39570312500065 29.341906453959844 76.58765625000066 Q 28.991825434421973 76.77960937500066 28.6340066780455 76.95785156250065 Q 28.274984861357733 77.13609375000065 27.908635513246292 77.30062500000065 Q 27.541294480344632 77.46515625000066 27.166989413545373 77.61597656250066 Q 26.79187795095605 77.76679687500065 26.41012206440218 77.90390625000066 Q 26.027720744836255 78.04101562500065 25.638953671858747 78.16441406250064 Q 25.24967965695716 78.28781250000065 24.854280588152097 78.39750000000065 Q 24.458492468911285 78.50718750000064 24.05678492006281 78.60316406250065 Q 23.65478743694489 78.69914062500067 23.247043818051925 78.78140625000066 Q 22.839092327216022 78.86367187500065 22.42553819187277 78.93222656250066 Q 22.011842766187556 79.00078125000066 21.592660641534128 79.05562500000065 Q 21.173389715017173 79.11046875000065 20.7487224312423 79.15160156250064 Q 20.324005913402665 79.19273437500064 19.89395936848153 79.22015625000066 Q 19.463891170893806 79.24757812500064 19.028536481097454 79.26128906250065 Q 18.593176412656472 79.27500000000066 18.152551412656475 79.27500000000066 L 18.152551412656475 79.27500000000066 Q 17.711301412656475 79.27500000000066 17.28683290638848 79.26750000000067 Q 16.862362792293915 79.26000000000066 16.454667733077866 79.24500000000066 Q 16.046966219925164 79.23000000000064 15.656026816114586 79.20750000000065 Q 15.265072806284646 79.18500000000066 14.890861318458331 79.15500000000065 Q 14.516623654419382 79.12500000000065 14.159102081924692 79.08750000000066 Q 13.801539189358152 79.05000000000067 13.460658848899829 79.00500000000066 Q 13.119718273345777 78.96000000000066 12.795419273361572 78.90750000000067 Q 12.471037114597983 78.85500000000066 12.163247730282203 78.79500000000067 Q 11.855997761623122 78.73312500000065 11.556934209030958 78.66210937500065 Q 11.25771317944544 78.59109375000065 10.96659439640418 78.51093750000065 Q 10.675270888896616 78.43078125000065 10.3919518753914 78.34148437500065 Q 10.108373165299055 78.25218750000064 9.832686687764314 78.15375000000066 Q 9.556677193069653 78.05531250000065 9.28843217248944 77.94773437500065 Q 9.019791811707787 77.84015625000065 8.758771635194528 77.72343750000064 Q 8.497274121812705 77.60671875000065 8.243234909144702 77.48085937500065 Q 7.988626016104332 77.35500000000064 7.741294877419371 77.22000000000065 Q 7.493290710006421 77.08500000000063 7.245130847380613 76.93992187500064 Q 6.996172626636293 76.79484375000064 6.746815348022746 76.63968750000063 Q 6.496520062664102 76.48453125000064 6.245556764636234 76.31929687500065 Q 5.993500845018705 76.15406250000065 5.740481287146286 75.97875000000064 Q 5.486199006857612 75.80343750000064 5.2306298849540305 75.61804687500063 Q 4.973612100857543 75.43265625000063 4.7149560127722285 75.23718750000063 Q 4.4546493407792624 75.04171875000063 4.192324246715176 74.83617187500063 Q 3.928130778672204 74.63062500000063 3.6615100658314095 74.41500000000065 L 3.6615100658314095 74.41500000000065 L 3.838203922494292 73.25437500000064 L 3.9511558921822463 72.09375000000064 L 3.9984901569786553 70.93312500000064 L 3.9794206264574714 69.77250000000063 L 3.8942639924578177 68.61187500000064 L 3.744434469713768 67.45125000000064 L 3.5324203096828035 66.29062500000065 L 3.2617424776129087 65.13000000000065 L 2.9368961791072308 63.96937500000064 L 2.563276207267361 62.80875000000064 L 2.1470873501914562 61.64812500000065 L 1.695241346709359 60.487500000000644 L 1.215242101633222 59.32687500000064 L 0.7150610667789277 58.166250000000645 L 0.20300485733277013 57.00562500000065 L -0.31242269791282 55.845000000000645 Q 0.034670779192646134 56.040000000000646 0.37968437065890004 56.22937500000066 Q 0.7247607765955763 56.41875000000066 1.067675295286815 56.602500000000646 Q 1.4105798412977455 56.78625000000064 1.7512555815280468 56.96437500000065 Q 2.0918589779800785 57.14250000000065 2.4301806944118853 57.31500000000065 Q 2.768377445511502 57.48750000000065 3.1042526337828424 57.65437500000066 Q 3.4399593027481434 57.82125000000066 3.7733164612420884 57.98250000000066 Q 4.106469924944305 58.143750000000665 4.437256815434394 58.299375000000666 Q 4.76781252524219 58.45500000000066 5.095994447925595 58.60500000000066 Q 5.423924711310101 58.75500000000066 5.749482807631284 58.89937500000066 Q 6.074775103033437 59.04375000000066 6.397704697717927 59.18250000000066 Q 6.72036003325443 59.32125000000066 7.040669025123584 59.45437500000067 Q 7.3607003499203145 59.58750000000066 7.678407659350618 59.715000000000664 Q 7.995838334648138 59.84250000000067 8.310972413975135 59.96437500000067 Q 8.62583474965155 60.08625000000067 8.938432161400085 60.20250000000067 Q 9.250766022202287 60.31875000000067 9.56087008875041 60.429375000000675 Q 9.870721573313025 60.540000000000674 10.178381100463216 60.64500000000067 Q 10.485801295122737 60.75000000000067 10.78730093075618 60.84843750000068 Q 11.088580554650955 60.946875000000674 11.383988948698258 61.03875000000066 Q 11.679197903839096 61.130625000000656 11.96858509712887 61.21593750000066 Q 12.257794145254362 61.301250000000664 12.541230289584064 61.38000000000066 Q 12.824509818258019 61.458750000000656 13.102064008589418 61.530937500000654 Q 13.379482908149356 61.60312500000065 13.65122212366385 61.66875000000066 Q 14.194355548428698 61.800000000000644 14.715025343978034 61.90500000000064 Q 15.235389910373222 62.010000000000645 15.73358487549052 62.08875000000064 Q 16.231603006966292 62.16750000000063 16.707682442765893 62.22000000000064 Q 17.183681673366053 62.27250000000064 17.637901011571774 62.29875000000064 Q 18.092100058647205 62.325000000000635 18.524600058647206 62.325000000000635 L 18.524600058647206 62.325000000000635 Q 18.910850058647206 62.325000000000635 19.26229797919893 62.29968750000064 Q 19.613727029458644 62.27437500000064 19.9302788052723 62.22375000000064 Q 20.24675595991231 62.173125000000645 20.528208038217954 62.09718750000064 Q 20.809495470338167 62.021250000000634 21.055542663603205 61.92000000000064 Q 21.301305341969396 61.81875000000065 21.51155329798622 61.69218750000064 Q 21.721373403758008 61.565625000000644 21.89535600635394 61.413750000000654 Q 22.241579262689413 61.11000000000065 22.44229374048924 60.70500000000066 Q 22.639399682466657 60.30000000000065 22.72068515940916 59.84062500000066 Q 22.79824415049782 59.38125000000065 22.759227675910395 58.867500000000646 Q 22.716890942600465 58.353750000000645 22.558029611701343 57.78562500000065 Q 22.396985236298537 57.21750000000064 22.120592013659476 56.595000000000645 L 22.120592013659476 56.595000000000645 Q 21.784254260666717 55.83750000000065 21.348917945433413 55.15125000000066 Q 20.917176362753672 54.465000000000664 20.388484845447657 53.85000000000066 Q 20.126131177230885 53.54250000000065 19.839572123697305 53.25281250000066 Q 19.554496858186614 52.96312500000066 19.245101449719897 52.69125000000066 Q 18.937222936725007 52.41937500000065 18.604828359866886 52.165312500000645 Q 18.273925491424066 51.91125000000064 17.91824820225462 51.675000000000644 Q 17.562741507357313 51.438750000000645 17.154882003922772 51.17976562500064 Q 16.74888314778343 50.920781250000644 16.291343381900994 50.63906250000065 Q 15.836195928165676 50.35734375000065 15.330474909051576 50.05289062500064 Q 14.827777875950332 49.74843750000065 14.275643607292553 49.421250000000654 Q 14.00097884848799 49.25765625000066 13.714196852067765 49.08837890625066 Q 13.42845800569283 48.919101562500664 13.130777994032275 48.74414062500066 Q 12.834250596134629 48.56917968750066 12.525969832832118 48.388535156250654 Q 12.218958006282929 48.20789062500066 11.90039238221884 48.02156250000066 Q 11.583218749590655 47.83523437500067 11.254702592037345 47.643222656250664 Q 10.927707995627998 47.45121093750067 10.589593671957628 47.25351562500067 Q 10.253136678744363 47.05582031250067 9.905793972233967 46.85244140625067 Q 9.560250141156029 46.649062500000674 9.20406537613471 46.44000000000067 L 9.20406537613471 46.44000000000067 Q 8.934115129402782 46.27125000000067 8.669163124497995 46.10144531250067 Q 8.405516957157054 45.93164062500067 8.146922883707239 45.76078125000067 Q 7.889671717365184 45.58992187500066 7.637525698037148 45.41800781250066 Q 7.386758435761447 45.24609375000066 7.141148428216315 45.073125000000665 Q 6.654176203980429 44.72718750000067 6.18813683069126 44.37703125000066 Q 5.72800767792314 44.02687500000066 5.28919800765052 43.67250000000066 Q 4.856528334310015 43.318125000000656 4.445538445899543 42.95953125000066 Q 4.040886047642381 42.600937500000654 3.65824217892815 42.23812500000066 Q 3.2820966146225663 41.87531250000066 2.928251447334398 41.50828125000066 Q 2.5810243316607897 41.14125000000065 2.2563472498107044 40.77000000000065 Q 1.938362574925228 40.398750000000646 1.6497912077875383 40.006406250000644 Q 1.368550521279627 39.61406250000064 1.118122449005691 39.20062500000065 Q 0.875602486713952 38.78718750000065 0.665235644930275 38.35265625000064 Q 0.46325923698039917 37.91812500000064 0.29466981863730535 37.462500000000645 Q 0.1348188370002048 37.00687500000065 0.009427405130335131 36.530156250000644 Q -0.10705556568207797 36.05343750000065 -0.18822855898453383 35.555625000000646 Q -0.2605482318346639 35.05781250000065 -0.2969954052933401 34.53890625000065 Q -0.32491889523128803 34.02000000000065 -0.3167641882773897 33.48000000000065 Q -0.30073949166763114 32.94000000000065 -0.2398691116440037 32.364609375000654 Q -0.17182396234220598 31.789218750000654 -0.05905561003574378 31.178437500000655 Q 0.059552386635325805 30.567656250000656 0.22185680352753667 29.92148437500066 Q 0.38791222944755066 29.27531250000066 0.5955670815797917 28.593750000000654 Q 0.8040355168244445 27.912187500000652 1.0507952359054067 27.195234375000652 Q 1.294520332069097 26.478281250000656 1.5719211819635075 25.725937500000658 Q 1.7078345513912554 25.349765625000657 1.851085791069167 24.96474609375066 Q 1.9917057141236378 24.57972656250066 2.1388373897192277 24.185859375000657 Q 2.282607955683805 23.791992187500654 2.431986070829314 23.389277343750656 Q 2.577228128825359 22.986562500000655 2.7271009776627033 22.575000000000657 L 2.7271009776627033 22.575000000000657 Q 2.8907854509719 22.109062500000658 3.0541326993149154 21.652617187500656 Q 3.2105763909823875 21.19617187500066 3.366482779551367 20.749218750000658 Q 3.5150703144675823 20.302265625000658 3.6630846793537453 19.86480468750066 Q 3.8035001115959988 19.42734375000066 3.943455069973344 18.999375000000658 Q 4.075654825342015 18.571406250000656 4.207638822302446 18.15292968750066 Q 4.331822876751387 17.734453125000655 4.456150933886685 17.325468750000656 Q 4.572733080388302 16.916484375000657 4.689917040526476 16.516992187500655 Q 4.799494990957676 16.117500000000653 4.9102139463775325 15.727500000000655 Q 5.013539907029035 15.337500000000656 5.11861139117606 14.956992187500655 Q 5.216563643795432 14.576484375000653 5.316916061982684 14.205468750000653 Q 5.410471979547379 13.834453125000653 5.5071186547088455 13.47292968750065 Q 5.597329484475582 13.111406250000652 5.691344601532947 12.759375000000652 Q 5.779312258858248 12.407343750000653 5.871808906929778 12.064804687500652 Q 5.9586649429419065 11.722265625000649 6.050775379266513 11.389218750000648 Q 6.1376622142967925 11.056171875000647 6.2305204077700385 10.732617187500647 Q 6.318574860757028 10.409062500000646 6.413301316446436 10.095000000000645 Q 6.503209283203596 9.781875000000646 6.598447135027578 9.478359375000647 Q 6.6897321481774705 9.174843750000647 6.786999247351121 8.880937500000648 Q 6.880707984447175 8.58703125000065 6.9810176281866205 8.30273437500065 Q 7.078145918915052 8.018437500000651 7.182457384190331 7.743750000000652 Q 7.283944270193057 7.469062500000653 7.393157833832268 7.203984375000653 Q 7.4998813203639045 6.938906250000654 7.614834873028396 6.683437500000655 Q 7.727609200335844 6.427968750000655 7.849076281114911 6.182109375000655 Q 7.9686505413251085 5.936250000000657 8.097339619835246 5.7000000000006565 Q 8.224397547055586 5.4637500000006565 8.360952383665634 5.237109375000657 Q 8.496113150176189 5.0104687500006575 8.64111407158146 4.793437500000658 Q 8.784933930722188 4.576406250000658 8.93889986688785 4.368984375000658 Q 9.091874492877967 4.161562500000658 9.255265631763685 3.9637500000006582 Q 9.41783301766627 3.7659375000006583 9.591053945602052 3.5777343750006585 Q 9.763597732468797 3.3895312500006582 9.947000940118933 3.210937500000658 Q 10.129854062593571 3.032343750000658 10.323743708735158 2.863359375000658 Q 10.51719225470316 2.6943750000006577 10.721828092237118 2.5350000000006574 Q 10.926517515862864 2.3765625000006576 11.140619611766235 2.2280273437506577 Q 11.354454741294711 2.079492187500658 11.57780874152675 1.9408593750006582 Q 11.800959656402634 1.8022265625006584 12.03371616394927 1.6734960937506584 Q 12.266321382640294 1.5447656250006587 12.50860188052605 1.4259375000006589 Q 12.750772364746245 1.307109375000659 13.002673103299692 1.198183593750659 Q 13.25449606896396 1.0892578125006593 13.51609174029362 0.9902343750006595 Q 13.777634241767652 0.8912109375006596 14.048981412058062 0.8020898437506597 Q 14.32029367330955 0.7129687500006598 14.601433950017027 0.63375000000066 Q 14.882552422299725 0.5545312500006601 15.173515338807904 0.48521484375066015 Q 15.464465469570298 0.41589843750066025 15.765271074416098 0.3564843750006603 Q 16.06606977628666 0.2970703125006604 16.37673091775915 0.24755859375066047 Q 16.687388729796087 0.19804687500066054 17.00791302962404 0.1584375000006606 Q 17.328435965612407 0.11882812500066064 17.658827477677935 0.08912109375066068 Q 17.98921855820055 0.059414062500660725 18.32947910983734 0.03960937500066075 Q 18.66973957622992 0.019804687500660778 19.019869790778994 0.009902343750660791 Q 19.370000000000292 6.608047442568932e-13 19.73000000000029 6.608047442568932e-13 L 19.73000000000029 6.608047442568932e-13 Q 20.045000000000293 6.608047442568932e-13 20.3589713539085 0.006562500000660748 Q 20.672942706265967 0.013125000000660692 20.985885400125685 0.026250000000660578 Q 21.29882806917352 0.039375000000660465 21.610741999085167 0.059062500000660295 Q 21.922655803387418 0.07875000000066013 22.23354060803219 0.1050000000006599 Q 22.544425015695506 0.13125000000065967 22.85427981583541 0.1640625000006594 Q 23.16413364681439 0.1968750000006591 23.47295669182199 0.23625000000065877 Q 23.781777727297975 0.2756250000006584 24.089565948839752 0.321562500000658 Q 24.3973504478428 0.36750000000065763 24.704098920957712 0.4200000000006572 Q 25.010841044544016 0.47250000000065673 25.316542356536164 0.5315625000006562 Q 25.622233500040682 0.5906250000006557 25.92687702785362 0.6562500000006551 Q 26.231505062022514 0.7218750000006546 26.53507615909595 0.794062500000654 Q 26.838624581277465 0.8662500000006533 27.141103675315815 0.9450000000006527 Q 27.4435506723635 1.023750000000652 27.744912275982323 1.1090625000006513 Q 28.046229701112473 1.1943750000006506 28.346441337984245 1.2862500000006496 Q 28.646593604541142 1.3781250000006489 28.945614654446736 1.4765625000006481 Q 29.244557550374665 1.5750000000006472 29.542338017491275 1.6800000000006463 Q 29.839608942554673 1.7840625000006463 30.134255693922075 1.8900585937506464 Q 30.42878678468339 1.9960546875006462 30.72067247747733 2.103984375000646 Q 31.012424913714337 2.2119140625006466 31.301508977911038 2.3217773437506466 Q 31.590440978636533 2.4316406250006466 31.876679828779313 2.543437500000647 Q 32.448633844030724 2.7670312500006475 33.00965223433648 2.998359375000648 Q 33.56980648190519 3.229687500000649 34.11878108059755 3.46875000000065 Q 34.66669472426048 3.707812500000651 35.20315242058825 3.9546093750006523 Q 35.73833067084938 4.2014062500006535 36.26174324840365 4.455937500000656 Q 36.783635857464155 4.710468750000658 37.2934187860081 4.972734375000659 Q 37.801419117675444 5.235000000000661 38.29693097539509 5.505000000000663 L 38.29693097539509 5.505000000000663 L 38.38223541320449 6.510937500000662 L 38.434495297293054 7.5168750000006614 L 38.44974351365549 8.522812500000661 L 38.42447484349681 9.52875000000066 L 38.35568970737773 10.534687500000658 L 38.240931599122916 11.540625000000658 L 38.07831774232766 12.546562500000658 L 37.86656258687818 13.552500000000656 L 37.604993852255724 14.558437500000654 L 37.29356091740846 15.564375000000654 L 36.93283545248804 16.570312500000654 L 36.5240042845667 17.576250000000652 L 36.06885458636904 18.58218750000065 L 35.569751572858735 19.58812500000065 L 35.02960898402057 20.59406250000065 L 34.45185272220439 21.600000000000648 Q 34.12953932520732 21.31687500000065 33.80161431673907 21.04804687500065 Q 33.471122134601536 20.779218750000652 33.13541569260628 20.524687500000653 Q 32.79728259833984 20.270156250000653 32.45436193716994 20.029921875000653 Q 32.10918078847073 19.789687500000657 31.759656991210594 19.563750000000656 Q 31.408056946954133 19.337812500000656 31.0525675333921 19.126171875000654 Q 30.695197503022058 18.914531250000657 30.33439110011414 18.717187500000655 Q 29.971905272792455 18.519843750000657 29.606428308511145 18.336796875000655 Q 29.239473663627667 18.153750000000656 28.869958966610646 17.985000000000653 Q 28.50041463400941 17.81625000000065 28.133192713861494 17.66859375000065 Q 27.764975980640184 17.52093750000065 27.399636250960707 17.39437500000065 Q 27.033556758603304 17.26781250000065 26.670839292228145 17.16234375000065 Q 26.307603256254595 17.056875000000648 25.94813965211133 16.972500000000647 Q 25.588341790095267 16.888125000000645 25.232648430257527 16.824843750000646 Q 24.8767660698341 16.761562500000647 24.525239295798354 16.719375000000646 Q 24.173628224056458 16.67718750000064 23.826541040328824 16.656093750000643 Q 23.47943273894614 16.635000000000645 23.13693273894614 16.635000000000645 L 23.13693273894614 16.635000000000645 Q 22.80443273894614 16.635000000000645 22.49111341903582 16.657031250000646 Q 22.17777106332247 16.679062500000644 21.883517309757405 16.723125000000643 Q 21.589171610171167 16.767187500000645 21.313730956000374 16.83328125000065 Q 21.038084187526245 16.89937500000065 20.781068693219158 16.98750000000065 Q 20.26594559809739 17.16375000000065 19.82304901489588 17.428125000000655 Q 19.37692929324819 17.692500000000656 18.998821340473896 18.045000000000663 Q 18.615906891814166 18.393750000000658 18.295941674224334 18.790312500000656 Q 17.96922656760023 19.186875000000654 17.702552155551636 19.631250000000655 Q 17.427889052990732 20.075625000000652 17.210391432373036 20.56781250000065 Q 16.983859172276304 21.06000000000065 16.811852722204392 21.600000000000648 L 16.811852722204392 21.600000000000648 Q 16.657205660256025 22.061250000000648 16.564640967767723 22.49437500000065 Q 16.466528425228553 22.927500000000652 16.43265391525491 23.332500000000657 Q 16.394552619445207 23.737500000000658 16.422486590837167 24.114375000000656 Q 16.447293209274797 24.49125000000066 16.539596157699947 24.840000000000664 Q 16.6255928761341 25.192500000000663 16.78214253852473 25.560937500000662 Q 16.936701924330528 25.929375000000665 17.161995072076223 26.31375000000066 Q 17.27403138558531 26.505937500000663 17.403811555582546 26.70210937500066 Q 17.533261438063544 26.898281250000657 17.68050996034453 27.098437500000657 Q 17.82750074038395 27.298593750000656 17.99235691451054 27.502734375000657 Q 18.157036877842533 27.706875000000657 18.33966152081117 27.91500000000066 Q 18.520117568917097 28.12500000000066 18.719652249589195 28.34929687500066 Q 18.91920762206381 28.573593750000658 19.13797121199566 28.812187500000654 Q 19.356902694200095 29.05078125000065 19.595231913102197 29.30367187500065 Q 19.83392152813903 29.55656250000065 20.09226719409084 29.82375000000065 Q 20.351216744015527 30.090937500000653 20.630158301190338 30.372421875000654 Q 20.910003692098073 30.653906250000652 21.210263298598196 30.94968750000065 Q 21.511788226552593 31.245468750000647 21.83424393556039 31.555546875000648 Q 21.996097049401225 31.710585937500646 22.16329599979796 31.86919921875065 Q 22.33097808989978 32.02781250000065 22.504089918181688 32.19000000000065 L 22.504089918181688 32.19000000000065 Q 22.675746828119646 32.344687500000646 22.842817801679967 32.50130859375065 Q 23.01043700950464 32.657929687500655 23.17353494837579 32.816484375000655 Q 23.501550681632665 33.13359375000066 23.81189153475106 33.458437500000656 Q 24.125070443911717 33.783281250000655 24.42116010775503 34.11585937500065 Q 24.72055090914578 34.44843750000065 25.003480964823446 34.788750000000654 Q 25.290198097338454 35.12906250000066 25.56112259869209 35.47710937500065 Q 25.836339114251928 35.825156250000646 26.096466462875075 36.18093750000065 Q 26.361405046685427 36.53671875000065 26.611987929357625 36.90023437500065 Q 26.867909941383715 37.26375000000065 27.110233232799768 37.635000000000645 Q 27.35842568568107 38.00625000000065 27.590161711877336 38.39437500000065 Q 27.828606954867237 38.782500000000645 28.052038689501337 39.187500000000654 Q 28.283054968892674 39.59250000000065 28.50057624562299 40.01437500000065 Q 28.72657511906797 40.43625000000065 28.940650771677763 40.875000000000654 Q 29.164092620177975 41.31375000000065 29.377207810320453 41.76937500000065 Q 29.60054629783932 42.225000000000655 29.815144472740077 42.69750000000066 Q 30.04075955067541 43.170000000000655 30.2591688269536 43.65937500000065 Q 30.489288281803223 44.14875000000066 30.71363651116008 44.655000000000655 Q 30.951496563259 45.16125000000065 31.184355445593958 45.698906250000654 Q 31.43054387072212 46.23656250000066 31.67422835892044 46.80562500000065 Q 31.93203140764537 47.374687500000654 32.189489506657466 47.97515625000065 Q 32.46145255524808 48.57562500000065 32.73471816715872 49.20750000000065 Q 33.02233559589666 49.83937500000065 33.31220088144301 50.502656250000655 Q 33.61558157288183 51.16593750000065 33.9212531691411 51.860625000000645 Q 34.23877882421859 52.55531250000065 34.55753875862712 53.28140625000066 Q 34.88553896253337 54.007500000000654 35.21243806052438 54.76500000000065 L 35.21243806052438 54.76500000000065 Z" fill="black" stroke="black" />
				</svg>