<svg
					xmlns="http://www.w3.org/2000/svg" xmlns:xlink="http://www.w3.org/1999/xlink"
					style="
						overflow: visible;
						height: 100;
					"
					viewBox="0 0 74.60352632642768 77.115"
				>
					<path d="M 59.260000000000005 0 L 60.096875000000004 0 L 60.93375 0 L 61.77062500000001 0 L 62.60750000000001 0 L 63.44437500000001 0 L 64.28125000000001 0 L 65.11812500000002 0 L 65.95500000000001 0 L 66.791875 0 L 67.62875000000001 0 L 68.46562500000002 0 L 69.30250000000001 0 L 70.139375 0 L 70.97625000000001 0 L 71.81312500000001 0 L 72.65 0 L 72.98595374520976 1.204921875 L 73.31235179731968 2.40984375 L 73.61980948294055 3.6147656249999995 L 73.89928110733828 4.8196875 L 74.14222184662523 6.024609374999999 L 74.34074067578892 7.229531249999999 L 74.48774159558157 8.434453125000001 L 74.57705063071114 9.639375 L 74.60352632642768 10.844296874999998 L 74.5631517659306 12.049218749999998 L 74.45310646174704 13.254140625 L 74.2718168344305 14.459062499999998 L 74.01898437515436 15.663984374999998 L 73.6955909881704 16.868906250000002 L 73.30388141751718 18.073828125 L 72.84732307249041 19.27875 L 72.33054397088489 20.483671875 L 71.75924991064755 21.688593749999995 L 71.14012235233314 22.893515624999996 L 70.48069883997593 24.098437499999996 L 69.78923810050372 25.303359375 L 69.07457223603046 26.50828125 L 68.34594865436489 27.713203124999996 L 67.61286456672929 28.918124999999996 L 66.88489701470805 30.123046875 L 66.1715314684599 31.327968749999997 L 65.48199206379815 32.532890625 L 64.82507651641178 33.737812500000004 L 64.20899866779341 34.942734375 L 63.641241480853346 36.14765625 L 63.12842311618037 37.352578125 L 62.67617848580276 38.5575 L 62.28905840430009 39.762421874999994 L 61.97044814217415 40.96734375 L 61.72250683914149 42.172265624999994 L 61.546128861677545 43.37718749999999 L 61.440927796402114 44.58210937499999 L 61.405243365779114 45.78703124999999 L 61.436171142359235 46.991953124999995 L 61.52961452976523 48.19687499999999 L 61.68035808010792 49.40179687499999 L 61.882160835660116 50.60671875 L 62.12786802423785 51.811640625 L 62.409539109259754 53.0165625 L 62.71858990275278 54.221484374999996 L 63.045946197885975 55.42640624999999 L 63.382206171447194 56.63132812499999 L 63.717808649720666 57.83624999999999 L 64.04320422628498 59.041171875 L 64.34902616921012 60.24609375 L 64.62625805890082 61.451015625 L 64.86639515634637 62.65593749999999 L 65.06159661374394 63.86085937499999 L 65.20482580335903 65.06578125 L 65.28997625313525 66.27070312500001 L 65.31198093516501 67.47562500000001 L 65.266902951068 68.680546875 L 65.15200599126771 69.88546875 L 64.96580330714512 71.090390625 L 64.70808431960776 72.2953125 L 64.37991838785598 73.500234375 L 63.98363567089684 74.70515625 L 63.52278542432956 75.910078125 L 63.00207247877162 77.115 L 62.48894747877162 77.115 L 61.97582247877162 77.115 L 61.46269747877162 77.115 L 60.94957247877162 77.115 L 60.436447478771626 77.115 L 59.923322478771624 77.115 L 59.41019747877162 77.115 L 58.89707247877162 77.115 L 58.38394747877162 77.115 L 57.87082247877162 77.115 L 57.35769747877163 77.115 L 56.844572478771624 77.115 L 56.33144747877162 77.115 L 55.81832247877162 77.115 L 55.30519747877162 77.115 L 54.79207247877162 77.115 L 54.27894747877163 77.115 L 53.765822478771625 77.115 L 53.25269747877162 77.115 L 52.73957247877162 77.115 L 52.22644747877162 77.115 L 51.71332247877162 77.115 L 51.20019747877163 77.115 L 50.687072478771626 77.115 L 50.17394747877162 77.115 L 49.66082247877162 77.115 L 49.14769747877162 77.115 L 48.634572478771624 77.115 L 48.12144747877163 77.115 L 47.608322478771626 77.115 L 47.095197478771624 77.115 L 46.58207247877162 77.115 L 46.71331988439839 76.06546875000001 L 46.79965400729987 75.01593749999999 L 46.837822140818616 73.96640624999999 L 46.82522584376186 72.916875 L 46.7599562364758 71.86734375 L 46.64081993022121 70.8178125 L 46.4673552376375 69.76828125 L 46.239838444099284 68.71875 L 45.95928005477827 67.66921875 L 45.627411068388554 66.6196875 L 45.24665946406692 65.57015625 L 44.820117220779636 64.520625 L 44.35149831724979 63.471093749999994 L 43.84508828291543 62.42156249999999 L 43.305685985195915 61.37203125 L 42.738538443802554 60.32249999999999 L 42.14926955754703 59.27296874999999 L 41.54380371179103 58.223437499999996 L 40.92828530421965 57.17390624999999 L 40.30899528206492 56.124374999999986 L 39.692265824500765 55.07484374999999 L 39.08439432912589 54.025312499999984 L 38.49155787090426 52.97578124999998 L 37.91972929551487 51.92624999999999 L 37.374596086861736 50.876718749999995 L 36.86148311081182 49.827187499999994 L 36.385280284575686 48.777656249999986 L 35.95037615423812 47.72812499999999 L 35.560598282692034 46.67859374999999 L 35.2191612577195 45.62906249999999 L 34.92862302645524 44.579531249999995 L 34.69085014936579 43.529999999999994 Q 34.599827083689185 43.04249999999999 34.48329111700236 42.23249999999999 Q 34.43716820513508 41.82749999999999 34.39384113249117 41.34187499999999 Q 34.36207511006311 40.856249999999996 34.34061639213485 40.29 Q 34.334548748083485 39.723749999999995 34.343883611601655 39.116249999999994 Q 34.37022899994669 38.50874999999999 34.41570085839972 37.85999999999999 Q 34.47934722787446 37.21124999999999 34.565272949400914 36.52124999999999 Q 34.66984252909129 35.83124999999999 34.798935363264114 35.09999999999999 Q 34.942380822923674 34.37249999999999 35.10666523029698 33.65156249999999 Q 35.285380788962165 32.93062499999999 35.48101731756626 32.216249999999995 Q 35.687336739124355 31.501875 35.90656832333189 30.794062500000003 Q 36.13263289101397 30.08625 36.36762260497899 29.385000000000005 Q 36.609764991737364 28.68 36.83656566002054 28.0303125 Q 37.06280148556053 27.380624999999995 37.270861284527236 26.786249999999995 Q 37.4760506831074 26.191875 37.66183975919468 25.6528125 Q 37.84350904049065 25.11375 38.005802934781045 24.630000000000003 L 38.005802934781045 24.630000000000003 Q 37.77100904049065 25.11375 37.49683975919467 25.6528125 Q 37.2185506831074 26.191875 36.90086128452724 26.786249999999995 Q 36.58030148556053 27.380624999999995 36.221565660020545 28.0303125 Q 35.86226499173737 28.68 35.46762260497899 29.385000000000005 Q 35.08013289101397 30.08625 34.69219332333189 30.794062500000003 Q 34.311086739124356 31.501875 33.93351731756626 32.216249999999995 Q 33.566630788962165 32.93062499999999 33.20729023029699 33.65156249999999 Q 32.862380822923676 34.37249999999999 32.52893536326411 35.09999999999999 Q 32.21234252909128 35.83124999999999 31.9290229494009 36.52124999999999 Q 31.664347227874455 37.21124999999999 31.43070085839972 37.85999999999999 Q 31.215228999946692 38.50874999999999 31.027633611601654 39.116249999999994 Q 30.857048748083486 39.723749999999995 30.71061639213485 40.29 Q 30.577075110063106 40.856249999999996 30.47509113249117 41.34187499999999 Q 30.384668205135075 41.82749999999999 30.318291117002357 42.23249999999999 Q 30.20982708368918 43.04249999999999 30.160850149365785 43.529999999999994 L 30.160850149365785 43.529999999999994 L 30.090185526455244 44.579531249999995 L 30.072286257719508 45.62906249999999 L 30.10528578269204 46.67859374999999 L 30.18662615423812 47.72812499999999 L 30.31309278457568 48.777656249999986 L 30.480858110811816 49.827187499999994 L 30.685533586861737 50.876718749999995 L 30.922229295514867 51.92624999999999 L 31.185620370904253 52.97578124999998 L 31.47001932912589 54.025312499999984 L 31.769453324500763 55.07484374999999 L 32.07774528206492 56.124374999999986 L 32.38859780421964 57.17390624999999 L 32.695678711791025 58.223437499999996 L 32.99270705754703 59.27296874999999 L 33.27353844380255 60.32249999999999 L 33.532248485195915 61.37203125 L 33.76321328291543 62.42156249999999 L 33.9611858172498 63.471093749999994 L 34.12136722077964 64.520625 L 34.23947196406692 65.57015625 L 34.31178606838855 66.6196875 L 34.33521755477826 67.66921875 L 34.30733844409928 68.71875 L 34.2264177376375 69.76828125 L 34.09144493022121 70.8178125 L 33.90214373647579 71.86734375 L 33.65897584376185 72.916875 L 33.36313464081861 73.96640624999999 L 33.016529007299866 75.01593749999999 L 32.621757384398386 76.06546875000001 L 32.182072478771616 77.115 L 31.668947478771617 77.115 L 31.15582247877162 77.115 L 30.642697478771616 77.115 L 30.129572478771617 77.115 L 29.61644747877162 77.115 L 29.103322478771616 77.115 L 28.590197478771618 77.115 L 28.07707247877162 77.115 L 27.563947478771617 77.115 L 27.050822478771618 77.115 L 26.53769747877162 77.115 L 26.024572478771617 77.115 L 25.51144747877162 77.115 L 24.99832247877162 77.115 L 24.485197478771617 77.115 L 23.97207247877162 77.115 L 23.45894747877162 77.115 L 22.945822478771618 77.115 L 22.43269747877162 77.115 L 21.91957247877162 77.115 L 21.406447478771618 77.115 L 20.89332247877162 77.115 L 20.38019747877162 77.115 L 19.867072478771618 77.115 L 19.35394747877162 77.115 L 18.840822478771617 77.115 L 18.32769747877162 77.115 L 17.81457247877162 77.115 L 17.301447478771617 77.115 L 16.78832247877162 77.115 L 16.27519747877162 77.115 L 15.762072478771618 77.115 L 15.88575417432956 75.910078125 L 15.949573170896832 74.70515625 L 15.94882463785597 73.500234375 L 15.879959319607757 72.2953125 L 15.740647057145136 71.090390625 L 15.529818491267712 69.88546875 L 15.247684201068006 68.680546875 L 14.89573093516501 67.47562500000001 L 14.476695003135257 66.27070312500001 L 13.99451330335903 65.06578125 L 13.454252863743948 63.86085937499999 L 12.862020156346365 62.65593749999999 L 12.224851808900818 61.451015625 L 11.550588669210109 60.24609375 L 10.847735476284981 59.041171875 L 10.125308649720665 57.83624999999999 L 9.392674921447199 56.63132812499999 L 8.65938369788598 55.42640624999999 L 7.934996152752788 54.221484374999996 L 7.228914109259756 53.0165625 L 6.550211774237848 51.811640625 L 5.907473335660113 50.60671875 L 5.308639330107921 49.40179687499999 L 4.760864529765232 48.19687499999999 L 4.270389892359243 46.991953124999995 L 3.8424308657791197 45.78703124999999 L 3.4810840464021253 44.58210937499999 L 3.189253861677554 43.37718749999999 L 2.968600589141493 42.172265624999994 L 2.81951064217415 40.96734375 L 2.741089654300094 39.762421874999994 L 2.731178485802758 38.5575 L 2.7863918661803764 37.352578125 L 2.9021789808533467 36.14765625 L 3.072904917793414 34.942734375 L 3.291951516411787 33.737812500000004 L 3.5518358137981414 32.532890625 L 3.844343968459903 31.327968749999997 L 4.160678264708041 30.123046875 L 4.49161456672928 28.918124999999996 L 4.827667404364875 27.713203124999996 L 5.159259736030447 26.50828125 L 5.476894350503716 25.303359375 L 5.7713238399759215 24.098437499999996 L 6.033716102333125 22.893515624999996 L 6.25581241064754 21.688593749999995 L 6.430075220884876 20.483671875 L 6.549823072490405 19.27875 L 6.609350167517187 18.073828125 L 6.604028488170405 16.868906250000002 L 6.5303906251543635 15.663984374999998 L 6.3861918344305 14.459062499999998 L 6.170450211747045 13.254140625 L 5.883464265930598 12.049218749999998 L 5.526807576427682 10.844296874999998 L 5.10330063071114 9.639375 L 4.616960345581575 8.434453125000001 L 4.0729281757889275 7.229531249999999 L 3.4773780966252357 6.024609374999999 L 2.8374061073382832 4.8196875 L 2.1609032329405533 3.6147656249999995 L 1.4564142973196788 2.40984375 L 0.732984995209754 1.204921875 L 0 0 L 0.836875 0 L 1.67375 0 L 2.510625 0 L 3.3475 0 L 4.184375 0 L 5.02125 0 L 5.858125 0 L 6.695 0 L 7.531875 0 L 8.36875 0 L 9.205625000000001 0 L 10.0425 0 L 10.879375 0 L 11.71625 0 L 12.553125000000001 0 L 13.39 0 L 14.101095972283789 1.2084375 L 14.802552617318053 2.416875 L 15.484904131040578 3.6253125 L 16.139028632071035 4.83375 L 16.756312370051504 6.042187500000001 L 17.328804786822218 7.250625 L 17.84936163908534 8.4590625 L 18.31177360612164 9.6675 L 18.710878067417116 10.875937500000001 L 19.042652038024926 12.084375000000001 L 19.304284588678538 13.292812500000002 L 19.494227446979277 14.50125 L 19.61222286875647 15.7096875 L 19.659308277871524 16.918125 L 19.637797590942135 18.126562500000002 L 19.551239563171166 19.335 L 19.404353905121404 20.5434375 L 19.202946320435647 21.751875000000002 L 18.953803993957962 22.9603125 L 18.664573411635775 24.168750000000003 L 18.343622711638485 25.377187500000005 L 17.999891044590857 26.585625000000004 L 17.642727654676097 27.794062500000003 L 17.281723578404037 29.0025 L 16.92653899073381 30.2109375 L 16.58672930659467 31.419375 L 16.271573168253585 32.6278125 L 15.989905415030023 33.83625 L 15.749958042168018 35.04468750000001 L 15.559212011858286 36.253125000000004 L 15.424262584047103 37.4615625 L 15.350700591291162 38.67 Q 15.343366367198685 39.01875 15.339522180531068 39.44625 Q 15.344215962540277 39.873749999999994 15.35896919998443 40.379999999999995 Q 15.386054380436995 40.88624999999999 15.431184081633788 41.47124999999999 Q 15.493115722527847 42.056249999999984 15.582349689474288 42.719999999999985 Q 15.693137921802911 43.379999999999995 15.829767231584853 44.064375 Q 15.989125964376782 44.74875 16.176910748880225 45.457499999999996 Q 16.388082492136743 46.16625 16.629589192870952 46.899375 Q 16.759144683507582 47.26593749999999 16.896503036346786 47.63859374999999 Q 17.03959399207544 48.01124999999999 17.190550839663047 48.389999999999986 Q 17.346543734996814 48.766874999999985 17.50653916233843 49.141406249999996 Q 17.671612864266553 49.51593749999999 17.840170218568282 49.888125 Q 18.013339800159116 50.2603125 18.18945934708594 50.630156250000006 Q 18.36970703302277 51 18.55236093022546 51.36750000000001 Q 18.928328571902693 52.102500000000006 19.31062237983627 52.828125000000014 Q 19.70335586298506 53.55375000000001 20.098044069491706 54.27000000000001 Q 20.49907482223518 54.98625000000001 20.865432582411657 55.6453125 Q 21.23393877000118 56.30437500000001 21.563883628470922 56.90625 Q 21.893118181932607 57.50812499999999 22.181651039339403 58.05281249999999 Q 22.467747428759665 58.59749999999998 22.712396851904685 59.08499999999998 L 22.712396851904685 59.08499999999998 Q 22.574679663792317 58.679999999999986 22.43122723141601 58.25976562499998 Q 22.28612704633342 57.83953124999997 22.135853321053016 57.404062499999974 Q 21.984691061379014 56.968593749999975 21.829133797941985 56.51789062499998 Q 21.6736108310401 56.067187499999974 21.5147026958561 55.60124999999998 Q 21.356920797989044 55.13531249999999 21.197005147300665 54.65414062499998 Q 21.039477957796326 54.17296874999998 20.88131489118018 53.67656249999999 Q 20.726968635327324 53.18015624999999 20.573729042156074 52.66851562499999 Q 20.425890224440767 52.156874999999985 20.281135507411346 51.62999999999998 Q 20.14225328797479 51.10312499999998 20.012795227377026 50.575546874999986 Q 19.891802010377923 50.04796874999998 19.781546305536832 49.51968749999998 Q 19.680990030073726 48.99140624999998 19.59237088209536 48.46242187499999 Q 19.514559879209738 47.93343749999998 19.449754163062547 47.40374999999998 Q 19.396722863137573 46.87406249999998 19.35761745751808 46.343671874999984 Q 19.331095510200637 45.81328124999999 19.31925828969124 45.28218749999999 Q 19.320643580006987 44.751093749999995 19.337298531043945 44.21929687499999 Q 19.367634528646608 43.687499999999986 19.413641400406092 43.154999999999994 Q 19.473579776631727 42.620625 19.546838389973487 42.095625 Q 19.633695875239926 41.57062499999999 19.73284848482769 41.05499999999999 Q 19.84497803563275 40.53937499999999 19.968234960738318 40.033125 Q 20.103705553339214 39.526875000000004 20.249028737908564 39.03 Q 20.40569041392627 38.533125 20.5708566941966 38.045625 Q 20.746402547266406 37.558125000000004 20.929063305554518 37.08 Q 21.12108737119828 36.60187499999999 21.318823675532958 36.13312499999999 Q 21.524873940372313 35.66437499999999 21.735246514007226 35.205 Q 21.952245517530102 34.7475 22.166297368654547 34.309921875 Q 22.386224418544273 33.87234375 22.601414460132357 33.454687500000006 Q 22.821292639552382 33.03703125 23.034868613082608 32.639296875 Q 23.252085976758302 32.2415625 23.46166032959253 31.86375 Q 23.888744971121255 31.108125 24.278866126941587 30.4321875 Q 24.67434271374383 29.756249999999998 25.02700562501957 29.159999999999997 L 25.02700562501957 29.159999999999997 L 25.572933099045468 28.248749999999994 L 26.11874410621288 27.3375 L 26.6602980068345 26.42625 L 27.19349776594635 25.514999999999997 L 27.71433191844873 24.603749999999994 L 28.21891565777146 23.692499999999995 L 28.703530627200237 22.781249999999996 L 29.16466300628906 21.869999999999997 L 29.59903950224708 20.95875 L 30.003660877646894 20.0475 L 30.37583267103653 19.136249999999997 L 30.71319279578972 18.224999999999998 L 31.013735734504753 17.31375 L 31.275833081133424 16.402499999999996 L 31.49825022043089 15.491249999999997 L 31.680158973882097 14.579999999999998 L 31.821146082574984 13.66875 L 31.92121744013201 12.757499999999999 L 31.980798032342925 11.846249999999998 L 32.000727584117065 10.934999999999999 L 31.982251958342687 10.02375 L 31.92701039475305 9.112499999999999 L 31.837018719509235 8.201249999999998 L 31.714648697480573 7.289999999999999 L 31.562603738713378 6.378749999999999 L 31.38389120792195 5.467499999999999 L 31.181791620630367 4.5562499999999995 L 30.959825041483125 3.6449999999999996 L 30.72171502890015 2.7337499999999997 L 30.471350495384296 1.8224999999999998 L 30.21274587413874 0.9112499999999999 L 29.950000000000003 0 L 30.755625000000002 0 L 31.56125 0 L 32.366875 0 L 33.1725 0 L 33.978125 0 L 34.78375 0 L 35.589375000000004 0 L 36.395 0 L 37.200625 0 L 38.00625000000001 0 L 38.81187500000001 0 L 39.61750000000001 0 L 40.423125000000006 0 L 41.228750000000005 0 L 42.034375000000004 0 L 42.84 0 L 43.381495874138736 0.9112499999999999 L 43.9188504953843 1.8224999999999998 L 44.44796502890015 2.7337499999999997 L 44.964825041483124 3.6449999999999996 L 45.46554162063037 4.5562499999999995 L 45.94639120792195 5.467499999999999 L 46.40385373871338 6.378749999999999 L 46.83464869748057 7.289999999999999 L 47.23576871950923 8.201249999999998 L 47.60451039475304 9.112499999999999 L 47.938501958342684 10.02375 L 48.235727584117065 10.934999999999999 L 48.49454803234293 11.846249999999998 L 48.713717440132015 12.757499999999999 L 48.89239608257498 13.66875 L 49.0301589738821 14.579999999999998 L 49.127000220430894 15.491249999999997 L 49.183333081133426 16.402499999999996 L 49.19998573450476 17.31375 L 49.17819279578973 18.224999999999998 L 49.11958267103654 19.136249999999997 L 49.0261608776469 20.0475 L 48.90028950224709 20.95875 L 48.744663006289066 21.869999999999997 L 48.56228062720024 22.781249999999996 L 48.356415657771464 23.692499999999995 L 48.13058191844873 24.603749999999994 L 47.888497765946354 25.514999999999997 L 47.6340480068345 26.42625 L 47.371244106212885 27.3375 L 47.10418309904547 28.248749999999994 L 46.83700562501957 29.159999999999997 Q 46.67749932631139 29.72625 46.492021569956414 30.384375000000002 Q 46.311510431099414 31.0425 46.11089011430814 31.7925 Q 46.01441356570133 32.167500000000004 45.91458448984703 32.56546875 Q 45.818344224203784 32.9634375 45.720195285627106 33.384375000000006 Q 45.62675094487152 33.8053125 45.53311520162936 34.24921875 Q 45.445474235543166 34.693124999999995 45.35963844642244 35.16 Q 45.28182650910299 35.625 45.20973087988695 36.099375 Q 45.146123073834474 36.573750000000004 45.08965711519139 37.0575 Q 45.04275986264656 37.54125 45.00444093029776 38.034375000000004 Q 44.97673541505454 38.5275 44.95902873790857 39.03 Q 44.952918658835664 39.5325 44.95818198324238 40.044375 Q 44.97593603795484 40.55625 45.00635932170792 41.0775 Q 45.05004913848853 41.598749999999995 45.10759014722511 42.129374999999996 Q 45.17902463994326 42.66 45.26534156465664 43.199999999999996 Q 45.36474895682252 43.739999999999995 45.47730774738694 44.278359374999994 Q 45.6038681850536 44.81671874999999 45.743057373605566 45.3534375 Q 45.895714833478145 45.890156250000004 46.06029239410478 46.425234375 Q 46.23762202399283 46.96031250000001 46.425991163058264 47.493750000000006 Q 46.62622739249612 48.02718750000001 46.836466766499925 48.55898437500001 Q 47.05753556481546 49.09078125000002 47.2874333416993 49.62093750000002 Q 47.52698801997073 50.151093750000015 47.774079165144 50.67960937500002 Q 48.02953908917049 51.20812500000001 48.291145233651896 51.735000000000014 Q 48.55848679647936 52.261875 48.820884842924585 52.771874999999994 Q 49.08851476586021 53.28187499999999 49.34918023118254 53.77499999999999 Q 49.613487325032985 54.26812499999999 49.86907790278594 54.744374999999984 Q 50.12689843027378 55.220624999999984 50.37452459411845 55.679999999999986 Q 50.62315480042317 56.13937499999999 50.86038373779442 56.581874999999975 Q 51.097577005153354 57.02437499999998 51.322422808768295 57.449999999999974 Q 51.546374351013846 57.87562499999997 51.75727731138477 58.28437499999997 Q 51.96659919006343 58.693124999999974 52.16239685190469 59.08499999999998 L 52.16239685190469 59.08499999999998 Q 51.923874074738215 58.40999999999998 51.66352660502169 57.65343749999998 Q 51.531908240689134 57.27515624999998 51.395351557236026 56.87648437499999 Q 51.25850909659077 56.477812499999985 51.11736629058198 56.05874999999999 Q 50.976695243664444 55.6396875 50.832623432063656 55.200234375 Q 50.689974849326084 54.76078125 50.54511160546739 54.30093749999999 Q 50.402828711194566 53.841093749999985 50.25982345516188 53.36085937499999 Q 50.12076739665494 52.88062499999998 49.98279979037827 52.37999999999998 Q 49.849834324965286 51.88124999999999 49.72398711934736 51.38484374999998 Q 49.60474339597212 50.888437499999974 49.493620027117714 50.394374999999975 Q 49.39011000823677 49.90031249999998 49.29560128396681 49.40859374999998 Q 49.20960017788716 48.916874999999976 49.133352991711774 48.42749999999998 Q 49.06638484853796 47.938124999999985 49.00978970638869 47.451093749999984 Q 48.9631167911958 46.96406249999998 48.9272990918664 46.47937499999999 Q 48.90191499172424 45.99468749999998 48.88772999295897 45.512343749999985 Q 48.884356366224885 45.02999999999999 48.89238772239272 44.54999999999998 Q 48.91037733719146 44.07187499999998 48.937907109069734 43.623046874999986 Q 48.97529282222822 43.17421874999999 49.019782724064484 42.75468749999999 Q 49.0729564125666 42.33515624999998 49.130842754020165 41.944921874999984 Q 49.196237957236406 41.554687499999986 49.264059408846286 41.19374999999999 Q 49.418783564913426 40.47187499999999 49.570653548129265 39.867187499999986 Q 49.739856898236305 39.26249999999999 49.89210367976091 38.77499999999999 L 49.89210367976091 38.77499999999999 L 50.314288829348484 37.56328124999999 L 50.79861845875518 36.351562499999986 L 51.33954481314084 35.13984375 L 51.93049577483265 33.928124999999994 L 52.56399381425522 32.71640624999999 L 53.23179132820995 31.504687499999996 L 53.92501991597148 30.292968749999993 L 54.63435089140373 29.081249999999994 L 55.35016412593371 27.869531249999994 L 56.062722166438434 26.65781249999999 L 56.762346476627535 25.446093749999996 L 57.439592612070676 24.234374999999993 L 58.08542115831907 23.022656249999994 L 58.691361338255405 21.810937499999994 L 59.249664327488794 20.59921875 L 59.753443502888715 19.387499999999996 L 60.1967990858533 18.175781249999993 L 60.57492492435236 16.964062499999997 L 60.88419548106159 15.752343749999998 L 61.12223145316094 14.540624999999997 L 61.28794283612287 13.328906249999996 L 61.3815486520645 12.117187499999996 L 61.40457298559397 10.905468749999997 L 61.35981739889931 9.693749999999998 L 61.25131022534844 8.482031249999999 L 61.08423365935198 7.270312499999998 L 60.86482996211373 6.058593749999998 L 60.600288480881844 4.846874999999999 L 60.298615526576675 3.635156249999999 L 59.96848946492301 2.4234374999999995 L 59.61910364384031 1.2117187499999997 L 59.260000000000005 0 L 59.260000000000005 0 Z" fill="black" stroke="black" />
				</svg>