<svg
					xmlns="http://www.w3.org/2000/svg" xmlns:xlink="http://www.w3.org/1999/xlink"
					style="
						overflow: visible;
						height: 100;
					"
					viewBox="0 0 40.24583339276675 12.95999999999998"
				>
					<path d="M 36.28 0 L 36.63951419679204 0.8099999999999987 L 36.9961182937033 1.6199999999999974 L 37.346925746755325 2.429999999999996 L 37.68909693310036 3.239999999999995 L 38.01986213644492 4.049999999999994 L 38.33654396661245 4.859999999999992 L 38.636579031769074 5.669999999999991 L 38.91753868788589 6.47999999999999 L 39.17714869748057 7.2899999999999885 L 39.413307638509934 8.099999999999987 L 39.62410391440208 8.909999999999986 L 39.807831227539786 9.719999999999985 L 39.96300239094454 10.529999999999983 L 40.088361366362065 11.339999999999982 L 40.18289343130664 12.14999999999998 L 40.24583339276675 12.95999999999998 L 39.67895839276675 12.95999999999998 L 39.11208339276675 12.95999999999998 L 38.545208392766746 12.95999999999998 L 37.97833339276675 12.95999999999998 L 37.411458392766754 12.95999999999998 L 36.84458339276675 12.95999999999998 L 36.27770839276675 12.95999999999998 L 35.710833392766745 12.95999999999998 L 35.14395839276675 12.95999999999998 L 34.577083392766745 12.95999999999998 L 34.01020839276674 12.95999999999998 L 33.443333392766746 12.95999999999998 L 32.87645839276674 12.95999999999998 L 32.30958339276675 12.95999999999998 L 31.742708392766744 12.95999999999998 L 31.175833392766744 12.95999999999998 L 30.608958392766745 12.95999999999998 L 30.042083392766745 12.95999999999998 L 29.475208392766746 12.95999999999998 L 28.908333392766746 12.95999999999998 L 28.341458392766746 12.95999999999998 L 27.774583392766747 12.95999999999998 L 27.207708392766744 12.95999999999998 L 26.640833392766744 12.95999999999998 L 26.073958392766745 12.95999999999998 L 25.50708339276674 12.95999999999998 L 24.940208392766742 12.95999999999998 L 24.373333392766742 12.95999999999998 L 23.806458392766743 12.95999999999998 L 23.239583392766743 12.95999999999998 L 22.672708392766744 12.95999999999998 L 22.105833392766744 12.95999999999998 L 21.538958392766745 12.95999999999998 L 20.972083392766745 12.95999999999998 L 20.405208392766745 12.95999999999998 L 19.838333392766746 12.95999999999998 L 19.271458392766743 12.95999999999998 L 18.704583392766743 12.95999999999998 L 18.137708392766744 12.95999999999998 L 17.570833392766744 12.95999999999998 L 17.003958392766744 12.95999999999998 L 16.437083392766745 12.95999999999998 L 15.870208392766747 12.95999999999998 L 15.303333392766746 12.95999999999998 L 14.736458392766744 12.95999999999998 L 14.169583392766745 12.95999999999998 L 13.602708392766745 12.95999999999998 L 13.035833392766746 12.95999999999998 L 12.468958392766746 12.95999999999998 L 11.902083392766745 12.95999999999998 L 11.335208392766745 12.95999999999998 L 10.768333392766746 12.95999999999998 L 10.201458392766746 12.95999999999998 L 9.634583392766745 12.95999999999998 L 9.067708392766745 12.95999999999998 L 8.500833392766745 12.95999999999998 L 7.933958392766745 12.95999999999998 L 7.3670833927667445 12.95999999999998 L 6.800208392766745 12.95999999999998 L 6.233333392766745 12.95999999999998 L 5.666458392766745 12.95999999999998 L 5.099583392766744 12.95999999999998 L 4.532708392766745 12.95999999999998 L 3.965833392766745 12.95999999999998 L 3.9028934313066346 12.14999999999998 L 3.808361366362061 11.339999999999982 L 3.6830023909445395 10.529999999999983 L 3.5278312275397865 9.719999999999985 L 3.3441039144020785 8.909999999999986 L 3.13330763850993 8.099999999999987 L 2.8971486974805667 7.2899999999999885 L 2.6375386878858893 6.47999999999999 L 2.356579031769075 5.669999999999991 L 2.0565439666124496 4.859999999999992 L 1.7398621364449183 4.049999999999994 L 1.4090969331003578 3.239999999999995 L 1.0669257467553228 2.429999999999996 L 0.7161182937032956 1.6199999999999974 L 0.35951419679204366 0.8099999999999987 L 0 0 L 0.566875 0 L 1.13375 0 L 1.700625 0 L 2.2675 0 L 2.834375 0 L 3.40125 0 L 3.968125 0 L 4.535 0 L 5.101875 0 L 5.66875 0 L 6.235625000000001 0 L 6.8025 0 L 7.369375 0 L 7.93625 0 L 8.503125 0 L 9.07 0 L 9.636875 0 L 10.20375 0 L 10.770624999999999 0 L 11.3375 0 L 11.904375000000002 0 L 12.471250000000001 0 L 13.038125 0 L 13.605 0 L 14.171875 0 L 14.73875 0 L 15.305625 0 L 15.8725 0 L 16.439375000000002 0 L 17.00625 0 L 17.573125 0 L 18.14 0 L 18.706875 0 L 19.27375 0 L 19.840625 0 L 20.4075 0 L 20.974375 0 L 21.541249999999998 0 L 22.108125 0 L 22.675 0 L 23.241875 0 L 23.808750000000003 0 L 24.375625000000003 0 L 24.942500000000003 0 L 25.509375000000002 0 L 26.07625 0 L 26.643125 0 L 27.21 0 L 27.776875 0 L 28.34375 0 L 28.910625 0 L 29.4775 0 L 30.044375 0 L 30.61125 0 L 31.178125 0 L 31.745 0 L 32.311875 0 L 32.878750000000004 0 L 33.44562500000001 0 L 34.0125 0 L 34.579375 0 L 35.14625 0 L 35.713125000000005 0 L 36.28 0 L 36.28 0 Z" fill="black" stroke="black" />
				</svg>