<svg
					xmlns="http://www.w3.org/2000/svg" xmlns:xlink="http://www.w3.org/1999/xlink"
					style="
						overflow: visible;
						height: 100;
					"
					viewBox="-3.9998825542811307 0 51.9864046656683 78.195"
				>
					<path d="M 43.99 0 L 44.63220846371908 1.4512500000000004 L 45.25775465467747 2.9025000000000007 L 45.85040860730014 4.353750000000002 L 46.39479375405617 5.8050000000000015 L 46.87678587467355 7.256250000000001 L 47.28387955286469 8.707500000000003 L 47.605512632743476 10.158750000000003 L 47.83334025682429 11.610000000000003 L 47.9614513756126 13.061250000000005 L 47.986522111387174 14.512500000000003 L 47.90790199710908 15.963750000000003 L 47.72763085296534 17.415000000000006 L 47.450385862681024 18.866250000000008 L 47.083360222719 20.317500000000006 L 46.6360765128469 21.768750000000004 L 46.12013963022248 23.220000000000006 L 45.548935697189584 24.671250000000008 L 44.93728475470352 26.12250000000001 L 44.30105625234927 27.57375000000001 L 43.65675731116812 29.025000000000006 L 43.021104441925466 30.476250000000004 L 42.41058983070539 31.927500000000006 L 41.841053444669996 33.37875000000001 L 41.32727205981552 34.83000000000001 L 40.88257587351157 36.281250000000014 L 40.518502648915174 37.732500000000016 L 40.24449836457661 39.18375000000002 L 40.06767213596408 40.63500000000001 L 39.992611767534925 42.08625000000001 L 40.02126472090471 43.53750000000001 L 40.15288758742745 44.98875000000001 L 40.384065376134586 46.44000000000001 Q 40.47629242662619 46.89562500000001 40.570787423978956 47.34540527343752 Q 40.673806893688614 47.79518554687502 40.778131704701124 48.239121093750015 Q 40.89021727827469 48.683056640625026 41.002621176468274 49.12114746093752 Q 41.121987329117246 49.559238281250025 41.24067512888008 49.99148437500001 Q 41.36550482539463 50.42373046875001 41.48866342851928 50.8501318359375 Q 41.61713375255694 51.27653320312501 41.742956524934485 51.69708984375001 Q 41.873262044359514 52.117646484375015 41.99997086134971 52.532358398437516 Q 42.130344596601546 52.94707031250002 42.25620945411144 53.35593750000001 Q 42.38494137278462 53.7648046875 42.50829751434782 54.16782714843751 Q 42.63375052589498 54.570849609375 42.7530130836704 54.96802734375001 Q 42.873636553100695 55.365205078125 42.98731274250022 55.75653808593751 Q 43.101653581008684 56.14787109375 43.20835252456237 56.533359375 Q 43.315063948206266 56.91884765625001 43.41350423436224 57.298491210937506 Q 43.5113523093304 57.678134765625 43.600367416351716 58.05193359375001 Q 43.68823553129042 58.425732421875004 43.76677726553183 58.79368652343751 Q 43.843668688109446 59.16164062500001 43.91080880008233 59.52375000000001 Q 43.975847486872915 59.885859375 44.03077763803755 60.2421240234375 Q 44.083207474302746 60.598388671875 44.1252377329008 60.94880859375 Q 44.164420382398966 61.299228515625 44.192976428314466 61.643803710937505 Q 44.21838797333251 61.98837890625001 44.23300719041248 62.327109375000006 Q 44.25189929492457 63.004570312500014 44.227072328208706 63.658652343750006 Q 44.18724430330767 64.312734375 44.103674028964406 64.9434375 Q 44.00433110851115 65.574140625 43.86193777478457 66.18146484374999 Q 43.70357005827817 66.7887890625 43.50342513675104 67.372734375 Q 43.287574750023005 67.95667968749999 43.031669343738656 68.51724609374999 Q 42.76069934320249 69.0778125 42.45172012748749 69.615 Q 42.12857075816787 70.15125 41.76915463953676 70.653984375 Q 41.397260764963804 71.15671875 40.992416528645805 71.62593749999999 Q 40.7859364762852 71.86054687500001 40.57182306401845 72.08677734375 Q 40.35521292276063 72.31300781249999 40.13135889363219 72.53085937499999 Q 39.90521038267591 72.7487109375 39.672193988259785 72.95818359375 Q 39.43707953448281 73.16765625 39.19545801475124 73.36874999999999 Q 38.95192767675301 73.56984374999999 38.70223456896094 73.76255859374999 Q 38.45081363085184 73.95527343749998 38.19355671216521 74.13960937499999 Q 37.934743884412434 74.3239453125 37.67040368527991 74.49990234375 Q 37.40466984935812 74.67585937499999 37.13369867470089 74.8434375 Q 36.86148610887001 75.011015625 36.58430750526192 75.17021484374999 Q 36.30602953029964 75.32941406249999 36.02303813923375 75.480234375 Q 35.73907912519759 75.6310546875 35.45064086510573 75.77349609375 Q 35.16135654301804 75.9159375 34.867809065767936 76.05 Q 34.57352709135608 76.18406249999998 34.2751804623541 76.30974609375 Q 33.97620118250405 76.4354296875 33.67333873715871 76.55273437499999 Q 33.369936113439444 76.67003906249998 33.06281544648617 76.77896484374997 Q 32.75523809387774 76.88789062499998 32.444092141842816 76.98843749999997 Q 32.132564444573454 77.08898437499998 31.817602625391856 77.18115234374997 Q 31.502325895493588 77.27332031249998 31.183735272936655 77.35710937499998 Q 30.8648889207158 77.44089843749998 30.542835364785812 77.51630859374998 Q 30.220578053836004 77.59171874999998 29.895207371616586 77.65875 Q 29.569678134252648 77.72578125 29.24111714884519 77.78443359375 Q 28.912436440891007 77.84308593749999 28.580793999008844 77.89335937499999 Q 28.249064675724377 77.9436328125 27.91443256725543 77.98552734375 Q 27.579740764839418 78.02742187499999 27.24219454023042 78.0609375 Q 26.904610449793715 78.094453125 26.56421012346572 78.11958984374999 Q 26.223788646649883 78.14472656249998 25.880579276842678 78.16148437499999 Q 25.53736055437765 78.17824218749999 25.191372691860227 78.18662109374999 Q 24.845382498336544 78.195 24.496632498336545 78.195 L 24.496632498336545 78.195 Q 24.163819998336546 78.195 23.838581500285635 78.18703124999999 Q 23.513340893959057 78.17906249999999 23.195665848262394 78.163125 Q 22.877982344830034 78.1471875 22.567847445581204 78.12328124999999 Q 22.257693424351704 78.099375 21.955062388913987 78.0675 Q 21.65239713079886 78.03562499999998 21.357220359919257 77.99578125 Q 21.061989661000545 77.9559375 20.774203783423655 77.908125 Q 20.486339455186428 77.86031249999999 20.20586676225752 77.80453125 Q 19.925286024657957 77.74875 19.652033802014728 77.68499999999999 Q 19.378638577210076 77.62124999999997 19.11249834238006 77.54953124999999 Q 18.846174458717876 77.47781249999998 18.58702111528205 77.398125 Q 18.327637433050175 77.31843749999999 18.075328354016705 77.23078124999998 Q 17.82273582650492 77.143125 17.577109881673103 77.04749999999999 Q 17.331140567303198 76.951875 17.09201711169284 76.84828124999999 Q 16.85248315533992 76.7446875 16.61966099821838 76.63312499999999 Q 16.386353602373802 76.5215625 16.159609979028772 76.40203125 Q 15.932298388136687 76.2825 15.71138795930703 76.155 Q 15.489818483430131 76.02749999999999 15.274472390202844 75.89203124999999 Q 15.058367497116631 75.7565625 14.848292502099085 75.613125 Q 14.637350009947909 75.46968749999999 14.432227758595946 75.31828125 Q 14.226120164328627 75.166875 14.025606603406647 75.0075 Q 13.82398058529333 74.84812499999998 13.627705578505447 74.68078125 Q 13.43018171405814 74.5134375 13.237748897850322 74.33812499999999 Q 13.04392164135185 74.1628125 12.854908566660669 73.97953125 Q 12.664346533161828 73.79624999999999 12.478305141380371 73.60499999999999 Q 12.10107450359012 73.2225 11.740043834955173 72.80812499999999 Q 11.370769944635862 72.39375 11.014979386894183 71.94749999999999 Q 10.64945326644567 71.50125 10.294496010266386 71.023125 Q 9.928260271367503 70.545 9.569545648077831 70.035 Q 9.198077150095708 69.5259375 8.833501197968396 68.99003906249999 Q 8.454998288175704 68.45414062500001 8.080920901230227 67.89140624999999 Q 7.691958099132154 67.328671875 7.3051860962692015 66.7391015625 Q 6.902878742132936 66.14953125 6.5008965700116645 65.533125 Q 6.083149327387734 64.91671875 5.664382783998185 64.2734765625 Q 5.230160637536354 63.630234374999986 4.794257833457063 62.96015625 Q 4.570795281502878 62.6251171875 4.346921677960129 62.283369140625 Q 4.119617183642326 61.941621093749994 3.8919845176179986 61.593164062499994 Q 3.6611646330431498 61.24470703125 3.4301645980900757 60.88954101562499 Q 3.196275579898116 60.534375 2.962423871005563 60.17249999999999 Q 2.726038433543974 59.81062499999999 2.4899810093837322 59.44204101562499 Q 2.2518040421438417 59.073457031249994 2.0143222254279882 58.698164062499984 Q 1.7751952400322797 58.32287109374998 1.5372094148460507 57.94086914062498 Q 1.298113476920195 57.558867187499985 1.0606851337246146 57.17015624999999 Q 0.8227420286825748 56.781445312500004 0.5870739035686435 56.386025390625 Q 0.3515452834500945 55.99060546875 0.11897933895153906 55.588476562500006 Q -0.112736399233341 55.18634765625001 -0.34072339810152863 54.777509765625 Q -0.567096742747907 54.368671875000004 -0.7889002907691797 53.953125 Q -1.0082789789033968 53.537578124999996 -1.222176744820126 53.115322265625 Q -1.4327970586842058 52.693066406250004 -1.6369618369156467 52.2641015625 Q -1.8369630026050054 51.83513671874999 -2.0294788517853597 51.399462890624996 Q -2.2169206680562814 50.9637890625 -2.3958023402073843 50.52140625 Q -2.568686115796717 50.0790234375 -2.731901825119888 49.629931640624996 Q -2.888194643691125 49.18083984374999 -3.0336921595996835 48.7250390625 Q -3.171354422706427 48.269238281250004 -3.2970903979107185 47.806728515625004 Q -3.4141065183661423 47.344218749999996 -3.5180788799327583 46.875 L -3.5180788799327583 46.875 L -3.780023270768013 45.41015625 L -3.9420521059067988 43.9453125 L -3.9998825542811307 42.48046875 L -3.951986011178392 41.015625 L -3.7996285031220336 39.55078125 L -3.546837223595148 38.0859375 L -3.2002940841522185 36.62109375 L -2.7691590946318065 35.15625 L -2.2648282409769784 33.69140625 L -1.7006322605637365 32.2265625 L -1.0914842771658568 30.76171875 L -0.4534856094533196 29.296875 L 0.19649982749931322 27.83203125 L 0.8412912780522612 26.3671875 L 1.463845276735738 24.90234375 L 2.047706150059438 23.4375 L 2.5774409814964425 21.97265625 L 3.039047542419189 20.5078125 L 3.420324406343243 19.04296875 L 3.7111934634252624 17.578125 L 3.903966310342972 16.11328125 L 3.993547474200231 14.6484375 L 3.977569098736485 13.18359375 L 3.856453532744116 11.71875 L 3.6334021663238687 10.25390625 L 3.3143108100642866 8.7890625 L 2.9076138538870326 7.32421875 L 2.4240613248331453 5.859375 L 1.876434736715644 4.39453125 L 1.2792092424493424 2.9296875 L 0.6481710192245184 1.46484375 L 0 0 L 0.8724999999999999 0 L 1.7449999999999999 0 L 2.6174999999999997 0 L 3.4899999999999998 0 L 4.3625 0 L 5.234999999999999 0 L 6.1075 0 L 6.9799999999999995 0 L 7.852499999999999 0 L 8.725 0 L 9.5975 0 L 10.469999999999999 0 L 11.3425 0 L 12.215 0 L 13.087499999999999 0 L 13.959999999999999 0 L 14.585958247962113 1.4142187499999994 L 15.19649239960206 2.828437499999999 L 15.776558420284108 4.242656249999998 L 16.311863033730894 5.656874999999998 L 16.789215919427622 7.0710937499999975 L 17.196854732341503 8.485312499999996 L 17.52473493621871 9.899531249999995 L 17.76477730874178 11.313749999999995 L 17.911067019828604 12.727968749999993 L 17.95999937762937 14.142187499999995 L 17.91036865092727 15.556406249999995 L 17.763397779290056 16.97062499999999 L 17.522708238891358 18.38484374999999 L 17.19423080653128 19.79906249999999 L 16.78605942069993 21.213281249999994 L 16.30825174066054 22.62749999999999 L 15.772581317930953 24.041718749999987 L 15.192247486850182 25.455937499999987 L 14.581550122751349 26.87015624999999 L 13.955537281951667 28.28437499999999 L 13.32963440598312 29.698593749999986 L 12.719264226759043 31.11281249999999 L 12.139466738507771 32.527031249999986 L 11.60452860065947 33.94124999999998 L 11.12763110348619 35.355468749999986 L 10.72052537089459 36.76968749999998 L 10.393242803626238 38.183906249999986 L 10.153847897769413 39.59812499999998 L 10.008239529325813 41.012343749999985 L 9.960005601334498 42.42656249999999 L 10.01033463516052 43.840781249999985 L 10.157986484407438 45.25499999999998 Q 10.234935307916862 45.767812499999984 10.32875083509111 46.262929687499984 Q 10.433577668435003 46.758046874999984 10.553146787299559 47.23546874999998 Q 10.682390997711323 47.71289062499998 10.824335173706105 48.172617187499974 Q 10.974648200774492 48.632343749999976 11.135737259025614 49.07437499999998 Q 11.303948267682639 49.51640624999999 11.481156536193879 49.940742187499986 Q 11.664321308675515 50.36507812499998 11.85486787063324 50.771718749999984 Q 12.050302480291093 51.178359374999985 12.251677214810135 51.56730468749998 Q 12.456978264812198 51.95624999999998 12.666955526233066 52.327499999999986 Q 13.095885292865791 53.06999999999999 13.537281293112832 53.74171874999999 Q 13.985511319380224 54.413437499999986 14.440140288154328 55.014374999999994 Q 14.897793608706511 55.6153125 15.3580478750884 56.14546875 Q 15.818923566623141 56.675625 16.280407806724774 57.135000000000005 Q 16.73996376621267 57.594375 17.202977463777405 57.996328125000005 Q 17.66471353634551 58.39828125 18.12991910683651 58.74281249999999 Q 18.593709889544115 59.08734374999999 19.061465098948045 59.37445312499999 Q 19.527963206627174 59.66156249999999 19.9991739846756 59.89124999999999 Q 20.469439319998415 60.1209375 20.945230771831444 60.29320312499999 Q 21.420429964908045 60.46546874999999 21.901887769839938 60.580312499999984 Q 22.383063476605816 60.69515624999998 22.87104320768532 60.75257812499999 Q 23.358949617482075 60.80999999999999 23.85394961748208 60.80999999999999 L 23.85394961748208 60.80999999999999 Q 24.11957461748208 60.80999999999999 24.370246531439733 60.795410156249986 Q 24.620913667331436 60.78082031249999 24.856608665668375 60.75164062499999 Q 25.327941994515086 60.693281249999984 25.739135398941865 60.57656249999999 Q 26.150037671447187 60.45984374999999 26.50023747952219 60.28476562499999 Q 26.849826830777733 60.109687499999986 27.137959832092637 59.876249999999985 Q 27.425120449175612 59.642812499999984 27.649990993222936 59.35101562499999 Q 27.873573473812545 59.059218749999985 28.03410591433539 58.70906249999998 Q 28.193199040148095 58.358906249999976 28.288753591752396 57.95039062499998 Q 28.383029998177744 57.541874999999976 28.413792120542432 57.074999999999974 Q 28.446008560299067 56.60999999999997 28.417199741683053 56.07492187499997 Q 28.389134599137225 55.539843749999974 28.302139079037328 54.93468749999998 Q 28.218368128886937 54.32953124999999 28.07957878867022 53.654296874999986 Q 27.947902892377915 52.97906249999999 27.76738711088855 52.233749999999986 Q 27.681746374924263 51.86109374999998 27.585473021866946 51.47091796874999 Q 27.493219116587557 51.08074218749998 27.391605392631465 50.67304687499998 Q 27.294976871486266 50.26535156249999 27.190435916493463 49.84013671874999 Q 27.091949866420187 49.41492187499999 26.987168643651554 48.97218749999999 Q 26.889605698390515 48.52945312499999 26.78752347128187 48.06919921875 Q 26.693900528561798 47.6089453125 26.59767400664755 47.13117187499999 Q 26.51120287266734 46.65339843749999 26.42415632332651 46.158105468749994 Q 26.348186689290632 45.662812499999994 26.273745561599668 45.14999999999999 L 26.273745561599668 45.14999999999999 L 26.13343769680737 43.73906249999999 L 26.090171641437593 42.328124999999986 L 26.14500857334573 40.9171875 L 26.29660351811011 39.506249999999994 L 26.54123833694966 38.09531249999999 L 26.87291292076745 36.684374999999996 L 27.28349235362215 35.27343749999999 L 27.762906436178397 33.8625 L 28.299396675464575 32.451562499999994 L 28.879804683069647 31.04062499999999 L 29.489894908294495 29.629687499999996 L 30.114703790646463 28.218749999999993 L 30.738906768083954 26.807812499999994 L 31.347194139473597 25.396874999999998 L 31.924646562556866 23.9859375 L 32.45710097766295 22.574999999999996 L 32.93149798223037 21.164062499999993 L 33.33620213615228 19.753124999999997 L 33.66128734188038 18.342187499999998 L 33.89878029982709 16.93125 L 34.042856067884024 15.520312499999996 L 34.08998092860792 14.109374999999996 L 34.03899905999902 12.698437499999999 L 33.891160884115266 11.287499999999998 L 33.65009239822148 9.876562499999999 L 33.321706240682296 8.465625 L 32.91405667286779 7.054687499999998 L 32.437142033901566 5.643749999999999 L 31.90265951340403 4.2328125 L 31.323718256870485 2.8218749999999995 L 30.714517840290934 1.4109374999999997 L 30.090000000000003 0 L 30.958750000000002 0 L 31.827500000000004 0 L 32.696250000000006 0 L 33.565000000000005 0 L 34.43375 0 L 35.30250000000001 0 L 36.17125000000001 0 L 37.040000000000006 0 L 37.908750000000005 0 L 38.7775 0 L 39.64625 0 L 40.515 0 L 41.38375 0 L 42.2525 0 L 43.12125 0 L 43.99 0 L 43.99 0 Z" fill="black" stroke="black" />
				</svg>