<svg
					xmlns="http://www.w3.org/2000/svg" xmlns:xlink="http://www.w3.org/1999/xlink"
					style="
						overflow: visible;
						height: 100;
					"
					viewBox="-3.998586910858508 1.0658141036401503e-13 44.51618515521134 77.11499999999998"
				>
					<path d="M 4.7369515717340014e-14 1.0658141036401503e-13 L 0.5559375000000474 1.0658141036401503e-13 L 1.1118750000000472 1.0658141036401503e-13 L 1.6678125000000472 1.0658141036401503e-13 L 2.2237500000000474 1.0658141036401503e-13 L 2.779687500000047 1.0658141036401503e-13 L 3.3356250000000474 1.0658141036401503e-13 L 3.8915625000000476 1.0658141036401503e-13 L 4.447500000000047 1.0658141036401503e-13 L 5.003437500000047 1.0658141036401503e-13 L 5.559375000000046 1.0658141036401503e-13 L 6.115312500000047 1.0658141036401503e-13 L 6.671250000000047 1.0658141036401503e-13 L 7.2271875000000465 1.0658141036401503e-13 L 7.783125000000047 1.0658141036401503e-13 L 8.339062500000049 1.0658141036401503e-13 L 8.895000000000048 1.0658141036401503e-13 L 9.450937500000046 1.0658141036401503e-13 L 10.006875000000047 1.0658141036401503e-13 L 10.562812500000048 1.0658141036401503e-13 L 11.118750000000047 1.0658141036401503e-13 L 11.674687500000047 1.0658141036401503e-13 L 12.230625000000048 1.0658141036401503e-13 L 12.786562500000047 1.0658141036401503e-13 L 13.342500000000047 1.0658141036401503e-13 L 13.898437500000048 1.0658141036401503e-13 L 14.454375000000047 1.0658141036401503e-13 L 15.010312500000047 1.0658141036401503e-13 L 15.566250000000048 1.0658141036401503e-13 L 16.12218750000005 1.0658141036401503e-13 L 16.678125000000048 1.0658141036401503e-13 L 17.234062500000046 1.0658141036401503e-13 L 17.790000000000045 1.0658141036401503e-13 Q 18.095937500000044 1.0658141036401503e-13 18.39982747373772 0.006225585937606581 Q 18.703717446151437 0.012451171875106581 19.0055598817112 0.02490234375010658 Q 19.307402296087716 0.03735351562510658 19.607197104764847 0.05603027343760658 Q 19.906991806202374 0.07470703125010658 20.204738679519103 0.09960937500010658 Q 20.502485213910532 0.12451171875010658 20.79818340121096 0.15563964843760658 Q 21.093880761081703 0.18676757812510658 21.38752876774668 0.22412109375010658 Q 21.68117505874603 0.2614746093751066 21.972770265123085 0.3050537109376066 Q 22.264362293299495 0.3486328125001066 22.553900494533497 0.3984375000001066 Q 22.84343327463368 0.4482421875001066 23.130908141720074 0.5042724609376066 Q 23.41837432691135 0.5603027343751066 23.703776789484962 0.6225585937501066 Q 23.989166023119118 0.6848144531251066 24.272483574747515 0.7532958984376066 Q 24.555781765071917 0.8217773437501066 24.836997692151908 0.8964843750001066 Q 25.39934504686318 1.0458984375001066 25.953274961300217 1.2202148437501066 Q 26.507002060591567 1.3945312500001066 27.052137087574394 1.5937500000001066 Q 27.596926872919827 1.7929687500001066 28.132865281246886 2.0170898437501066 Q 28.66825242658684 2.2412109375001066 29.194421359215962 2.4902343750001066 Q 29.719753784611015 2.7392578125001066 30.235368925644774 3.0131835937501066 Q 30.749766629710138 3.2871093750001066 31.25378983890814 3.5859375000001066 Q 31.756102300632726 3.8847656250001066 32.247198688022834 4.208496093750107 Q 32.735962500446306 4.532226562500107 33.212458860086784 4.880859375000107 Q 33.68585772911166 5.229492187500107 34.14570475051578 5.603027343750107 Q 34.60153450872624 5.976562500000107 35.04227571928898 6.375000000000107 Q 35.47791754521726 6.773437500000107 35.89576190467411 7.192968750000106 Q 36.30737709720355 7.612500000000107 36.69937749127839 8.053125000000108 Q 37.08390023871627 8.493750000000105 37.44678992322916 8.955468750000106 Q 37.8008511142746 9.417187500000106 38.13107944024577 9.900000000000105 Q 38.451051091284405 10.382812500000107 38.74483956253882 10.886718750000107 Q 39.02690071120669 11.390625000000107 39.28032197846581 11.915625000000105 Q 39.520548431388 12.440625000000106 39.72963032065601 12.986718750000104 Q 39.92411001074366 13.532812500000103 40.084965891862936 14.100000000000104 Q 40.22994066390617 14.667187500000106 40.33892634815042 15.255468750000103 Q 40.43095971613559 15.843750000000101 40.4848556016537 16.4531250000001 Q 40.521024387012254 17.0625000000001 40.5172397377522 17.6929687500001 Q 40.49534550566372 18.3234375000001 40.43213956838301 18.9750000000001 Q 40.35093345939608 19.626562500000105 40.22764564314174 20.2992187500001 Q 40.08705761688701 20.9718750000001 39.904336269807075 21.6656250000001 Q 39.7056970482174 22.3593750000001 39.46571360590661 23.0742187500001 Q 39.21195488765626 23.7890625000001 38.91858752683078 24.525000000000098 L 38.91858752683078 24.525000000000098 Q 38.64623221894177 25.185000000000095 38.35397105991541 25.837734375000096 Q 38.0560854412045 26.4904687500001 37.74148087191383 27.1359375000001 Q 37.42428193471995 27.7814062500001 37.09340466819524 28.4196093750001 Q 36.7628519219343 29.0578125000001 36.42145511394596 29.6887500000001 Q 36.08313380263581 30.319687500000093 35.73654648788327 30.943359375000096 Q 35.39557015843218 31.5670312500001 35.04861031277889 32.183437500000096 Q 34.70954327783926 32.79984375000009 34.36645073026956 33.4089843750001 Q 34.03325036138106 34.018125000000104 33.697639212100206 34.620000000000104 Q 33.37421465630485 35.2200000000001 33.04811397606909 35.805000000000106 Q 32.734556515061655 36.3900000000001 32.41851076618714 36.96000000000011 Q 32.11565060333997 37.53000000000011 31.810074182055878 38.08500000000011 Q 31.517980588424802 38.6400000000001 31.222583689912447 39.180000000000106 Q 30.940664446092104 39.72000000000011 30.654554647569753 40.24500000000012 Q 30.38165974981075 40.77000000000011 30.103445583464858 41.280000000000115 Q 29.83797107532648 41.79000000000011 29.565863865923042 42.28500000000011 Q 29.305852411694417 42.780000000000115 29.03776340123526 43.26000000000011 Q 28.77962647972367 43.73812500000011 28.507323695929383 44.19117187500011 Q 28.2449571692356 44.64421875000011 27.966027013977225 45.072187500000105 Q 27.6957476515605 45.5001562500001 27.406628327755325 45.9030468750001 Q 27.124927925486734 46.3059375000001 26.82227014308031 46.6837500000001 Q 26.525881050993757 47.06156250000009 26.206600326195282 47.414296875000105 Q 25.892538147602735 47.7670312500001 25.55384626208492 48.094687500000106 Q 25.21943321015342 48.42234375000011 24.858852352770256 48.72492187500011 Q 24.501724797988967 49.02750000000011 24.11708785395241 49.30500000000011 Q 23.926427188862856 49.443750000000115 23.726928804260645 49.57382812500012 Q 23.52801506150765 49.70390625000012 23.320090382110557 49.82531250000011 Q 23.112660264437988 49.9467187500001 22.896063440860072 50.059453125000104 Q 22.679880929095447 50.172187500000106 22.454392363228937 50.276250000000104 Q 22.229247043902543 50.3803125000001 21.994671715614096 50.47570312500011 Q 21.760377104007468 50.5710937500001 21.51654291226527 50.657812500000105 Q 21.272934803553227 50.744531250000115 21.019690952300625 50.82257812500011 Q 20.766625829346257 50.90062500000011 20.503841284502272 50.9700000000001 Q 20.24119480706411 51.03937500000009 19.968756847406297 51.100078125000095 Q 19.696422444029057 51.1607812500001 19.41423532540021 51.2128125000001 Q 19.132122906082547 51.26484375000009 18.840106655353743 51.3082031250001 Q 18.548141460207304 51.3515625000001 18.246230812708987 51.386250000000096 Q 17.944352409223406 51.42093750000009 17.632495900902693 51.4469531250001 Q 17.32065734008751 51.47296875000009 16.998816563435124 51.4903125000001 Q 16.676983702990796 51.5076562500001 16.34513273377368 51.5163281250001 Q 16.013283734517344 51.5250000000001 15.671408734517343 51.5250000000001 L 15.671408734517343 51.5250000000001 L 14.698908734517342 51.5250000000001 L 13.726408734517344 51.5250000000001 L 12.753908734517346 51.5250000000001 L 11.781408734517345 51.5250000000001 L 12.090840599155857 52.324687500000095 L 12.414546496214665 53.12437500000009 L 12.749972428258772 53.92406250000009 L 13.094471928301152 54.723750000000095 L 13.44532694008314 55.52343750000011 L 13.799769263184876 56.323125000000104 L 14.155002393766674 57.1228125000001 L 14.508223588620655 57.9225000000001 L 14.856645978450205 58.722187500000096 L 15.197520555906358 59.521875000000094 L 15.528157864898294 60.32156250000009 L 15.845949220052182 61.1212500000001 L 16.14838728889956 61.92093750000011 L 16.433085874404473 62.720625000000105 L 16.697798741747807 63.5203125000001 L 16.940437340827916 64.3200000000001 L 17.159087284649342 65.1196875000001 L 17.35202345358728 65.91937500000009 L 17.51772360635708 66.71906250000009 L 17.65488039030006 67.5187500000001 L 17.76241165622596 68.3184375000001 L 17.839468996429353 69.1181250000001 L 17.885444438516117 69.91781250000011 L 17.899975242226564 70.7175000000001 L 17.88294676140891 71.51718750000009 L 17.83449334856253 72.3168750000001 L 17.754997294814185 73.1165625000001 L 17.645085813690752 73.9162500000001 L 17.50562609248606 74.71593750000011 L 17.337718450265896 75.51562500000011 L 17.14268765649367 76.3153125000001 L 16.922072478771593 77.1150000000001 L 16.05332247877159 77.1150000000001 L 15.184572478771592 77.1150000000001 L 14.31582247877159 77.1150000000001 L 13.447072478771592 77.1150000000001 L 12.57832247877159 77.1150000000001 L 11.709572478771591 77.1150000000001 L 10.84082247877159 77.1150000000001 L 9.97207247877159 77.1150000000001 L 9.103322478771592 77.1150000000001 L 8.23457247877159 77.1150000000001 L 7.36582247877159 77.1150000000001 L 6.4970724787715906 77.1150000000001 L 5.62832247877159 77.1150000000001 L 4.75957247877159 77.1150000000001 L 3.8908224787715904 77.1150000000001 L 3.02207247877159 77.1150000000001 L 3.34481667432953 75.9100781250001 L 3.6076981708968088 74.7051562500001 L 3.806012137855955 73.5002343750001 L 3.9362093196077486 72.29531250000011 L 3.995959557145132 71.0903906250001 L 3.9841934912677144 69.8854687500001 L 3.901121701068015 68.6805468750001 L 3.748230935165027 67.47562500000011 L 3.5282575031352774 66.27070312500011 L 3.2451383033590564 65.0657812500001 L 2.90394036374398 63.860859375000096 L 2.5107701563464007 62.6559375000001 L 2.0726643089008605 61.4510156250001 L 1.597463669210152 60.24609375000011 L 1.0936729762850268 59.04117187500011 L 0.5703086497207107 57.836250000000106 L 0.03673742144724622 56.631328125000095 L -0.4974913021139703 55.4264062500001 L -1.022816347247167 54.2214843750001 L -1.5298358907402 53.016562500000106 L -2.009475725762108 51.81164062500011 L -2.4531516643398463 50.6067187500001 L -2.8529231698920423 49.401796875000095 L -3.2016354702347405 48.1968750000001 L -3.4930476076407344 46.9919531250001 L -3.7219441342208635 45.7870312500001 L -3.8842284535978626 44.5821093750001 L -3.976996138322441 43.377187500000105 L -3.998586910858508 42.17226562500011 L -3.9486143578258566 40.967343750000104 L -3.82797284569992 39.7624218750001 L -3.6388215141972613 38.557500000000104 L -3.3845456338196493 37.35257812500011 L -3.0696960191466838 36.147656250000104 L -2.6999075822066207 34.9427343750001 L -2.2817984835882528 33.7378125000001 L -1.8228516862018997 32.53289062500011 L -1.3312810315401424 31.327968750000103 L -0.8158842352920036 30.123046875000107 L -0.28588543327076765 28.918125000000103 L 0.24922990436482728 27.713203125000103 L 0.7798847360304005 26.508281250000106 L 1.2965818505036717 25.303359375000106 L 1.79007383997588 24.098437500000102 L 2.2515286023330865 22.893515625000102 L 2.6726874106475056 21.688593750000102 L 3.046012720884846 20.483671875000105 L 3.364823072490379 19.278750000000105 L 3.623412667517167 18.073828125000105 L 3.8171534881703906 16.86890625000011 L 3.9425781251543555 15.663984375000105 L 3.997441834430498 14.459062500000105 L 3.980762711747051 13.254140625000106 L 3.892839265930608 12.049218750000104 L 3.7352450764276988 10.844296875000104 L 3.510800630711162 9.639375000000106 L 3.223522845581602 8.434453125000108 L 2.87855317578896 7.229531250000106 L 2.4820655966252727 6.0246093750001055 L 2.0411561073383235 4.819687500000106 L 1.5637157329405968 3.614765625000106 L 1.0582892973197242 2.4098437500001064 L 0.5339224952098008 1.2049218750001065 L 4.7369515717340014e-14 1.0658141036401503e-13 L 4.7369515717340014e-14 1.0658141036401503e-13 Z M 21.32031569723878 16.84500000000009 L 21.32031569723878 16.84500000000009 L 20.42031569723878 16.84500000000009 L 19.52031569723878 16.84500000000009 L 18.62031569723878 16.84500000000009 L 17.72031569723878 16.84500000000009 L 17.54598146052664 17.952187500000093 L 17.316538038129345 19.05937500000009 L 17.03545347844649 20.16656250000009 L 16.7069763881593 21.273750000000092 L 16.33607171433564 22.380937500000094 L 15.928345699015562 23.488125000000093 L 15.489961140592362 24.59531250000009 L 15.027544242817546 25.702500000000093 L 14.548084459411413 26.809687500000095 L 14.058828848132856 27.916875000000093 L 13.567172531151686 29.024062500000092 L 13.080546917420232 30.131250000000094 L 12.606307376568491 31.238437500000096 L 12.15162206213728 32.3456250000001 L 11.723363564591635 33.45281250000009 L 11.328005031784334 34.560000000000095 L 12.013005031784333 34.560000000000095 L 12.698005031784334 34.560000000000095 L 13.383005031784334 34.560000000000095 L 14.068005031784333 34.560000000000095 Q 14.409255031784335 34.560000000000095 14.750597247770122 34.527187500000096 Q 15.09197350224932 34.4943750000001 15.433577529688446 34.42875000000009 Q 15.775315915610008 34.363125000000096 16.117547777382157 34.26468750000009 Q 16.460075132583384 34.166250000000105 16.80348077879346 34.035000000000096 Q 17.14739449734376 33.903750000000095 17.49267337210654 33.739687500000095 Q 17.838710700672117 33.5756250000001 18.186678444669962 33.3787500000001 Q 18.535674452167495 33.181875000000105 18.887213609242256 32.9521875000001 Q 19.240046654700407 32.7225000000001 19.596044181193538 32.46000000000011 Q 19.95307315048397 32.195625000000106 20.300365862664556 31.8817968750001 Q 20.64955607530735 31.567968750000098 20.989885256143857 31.204687500000098 Q 21.332298826061546 30.841406250000098 21.666477753492394 30.428671875000095 Q 22.00265082311723 30.0159375000001 22.330783891259085 29.553750000000097 Q 22.660411203270105 29.091562500000094 22.981552959823837 28.579921875000093 Q 23.303133447428227 28.068281250000094 23.614916225174156 27.507187500000093 Q 23.925375835292087 26.94609375000009 24.223627750603935 26.33554687500009 Q 24.517946250363117 25.725000000000094 24.796333079246157 25.065000000000097 L 24.796333079246157 25.065000000000097 Q 24.98575440183592 24.6056250000001 25.139760439163453 24.1682812500001 Q 25.289605977125625 23.730937500000095 25.40404773002435 23.315625000000097 Q 25.51403112948424 22.900312500000094 25.588884272315106 22.507031250000097 Q 25.65917177451576 22.113750000000095 25.69481440884277 21.7425000000001 Q 25.72594035103456 21.3712500000001 25.723071194371578 21.0220312500001 Q 25.715858061962344 20.6728125000001 25.675420238210744 20.345625000000098 Q 25.63090509368491 20.0184375000001 25.554016955727118 19.713281250000104 Q 25.47338537449539 19.408125000000105 25.361279159273785 19.125000000000107 Q 25.246223200225042 18.840000000000103 25.095512830285138 18.590625000000102 Q 24.942099993338807 18.3412500000001 24.75449386622857 18.1275000000001 Q 24.564849739549334 17.9137500000001 24.342323293124497 17.7356250000001 Q 24.118353633832022 17.557500000000097 23.862630852965324 17.415000000000095 Q 23.60597108838337 17.272500000000093 23.31848302918994 17.16562500000009 Q 23.03046254771375 17.058750000000096 22.712318693219235 16.987500000000093 Q 22.39393661326784 16.91625000000009 22.045906047342545 16.88062500000009 Q 21.697815697238777 16.84500000000009 21.32031569723878 16.84500000000009 L 21.32031569723878 16.84500000000009 Z" fill="black" stroke="black" />
				</svg>