<svg
					xmlns="http://www.w3.org/2000/svg" xmlns:xlink="http://www.w3.org/1999/xlink"
					style="
						overflow: visible;
						height: 100;
					"
					viewBox="0 0 51.374550630711134 77.115"
				>
					<path d="M 34.42 0 L 35.391875 0 L 36.36375 0 L 37.33562500000001 0 L 38.307500000000005 0 L 39.279375 0 L 40.25125 0 L 41.223124999999996 0 L 42.195 0 L 43.166875000000005 0 L 44.13875 0 L 45.110625 0 L 46.082499999999996 0 L 47.05437499999999 0 L 48.02625 0 L 48.998125 0 L 49.97 0 L 50.24064124520975 1.204921875 L 50.501726797319684 2.40984375 L 50.74387198294055 3.6147656249999995 L 50.95803110733828 4.8196875 L 51.13565934662523 6.024609374999999 L 51.26886567578892 7.229531249999999 L 51.35055409558157 8.434453125000001 L 51.374550630711134 9.639375 L 51.33571382642768 10.844296874999998 L 51.230026765930596 12.049218749999998 L 51.05466896174705 13.254140625 L 50.8080668344305 14.459062499999998 L 50.489921875154366 15.663984374999998 L 50.10121598817041 16.868906250000002 L 49.644193917517185 18.073828125 L 49.1223230724904 19.27875 L 48.540231470884876 20.483671875 L 47.90362491064754 21.688593749999995 L 47.21918485233312 22.893515624999996 L 46.49444883997592 24.098437499999996 L 45.73767560050372 25.303359375 L 44.95769723603045 26.50828125 L 44.16376115436488 27.713203124999996 L 43.36536456672928 28.918124999999996 L 42.572084514708045 30.123046875 L 41.793406468459914 31.327968749999997 L 41.038554563798144 32.532890625 L 40.31632651641179 33.737812500000004 L 39.63493616779342 34.942734375 L 39.001866480853344 36.14765625 L 38.42373561618037 37.352578125 L 37.90617848580276 38.5575 L 37.4537459043001 39.762421874999994 L 37.06982314217416 40.96734375 L 36.75656933914149 42.172265624999994 L 36.51487886167755 43.37718749999999 L 36.344365296402124 44.58210937499999 L 36.24336836577912 45.78703124999999 L 36.20898364235924 46.991953124999995 L 36.23711452976523 48.19687499999999 L 36.32254558010792 49.40179687499999 L 36.45903583566012 50.60671875 L 36.639430524237845 51.811640625 L 36.85578910925975 53.0165625 L 37.099527402752784 54.221484374999996 L 37.36157119788597 55.42640624999999 L 37.632518671447194 56.63132812499999 L 37.90280864972066 57.83624999999999 L 38.16289172628498 59.041171875 L 38.403401169210106 60.24609375 L 38.61532055890081 61.451015625 L 38.79014515634636 62.65593749999999 L 38.920034113743945 63.86085937499999 L 38.99795080335902 65.06578125 L 39.01778875313525 66.27070312500001 L 38.974480935165005 67.47562500000001 L 38.864090451068 68.680546875 L 38.683880991267706 69.88546875 L 38.43236580714513 71.090390625 L 38.109334319607754 72.2953125 L 37.715855887855966 73.500234375 L 37.254260670896834 74.70515625 L 36.72809792432955 75.910078125 L 36.14207247877162 77.115 L 35.63144747877162 77.115 L 35.120822478771615 77.115 L 34.61019747877162 77.115 L 34.09957247877161 77.115 L 33.588947478771615 77.115 L 33.07832247877162 77.115 L 32.56769747877161 77.115 L 32.057072478771616 77.115 L 31.54644747877162 77.115 L 31.035822478771617 77.115 L 30.525197478771616 77.115 L 30.01457247877162 77.115 L 29.503947478771618 77.115 L 28.993322478771617 77.115 L 28.48269747877162 77.115 L 27.97207247877162 77.115 L 27.461447478771618 77.115 L 26.95082247877162 77.115 L 26.44019747877162 77.115 L 25.929572478771618 77.115 L 25.41894747877162 77.115 L 24.90832247877162 77.115 L 24.39769747877162 77.115 L 23.88707247877162 77.115 L 23.37644747877162 77.115 L 22.86582247877162 77.115 L 22.355197478771622 77.115 L 21.84457247877162 77.115 L 21.33394747877162 77.115 L 20.823322478771622 77.115 L 20.31269747877162 77.115 L 19.80207247877162 77.115 L 19.86262917432956 75.910078125 L 19.863323170896834 74.70515625 L 19.79944963785597 73.500234375 L 19.667459319607758 72.2953125 L 19.465022057145134 71.090390625 L 19.19106849126771 69.88546875 L 18.845809201068004 68.680546875 L 18.43073093516501 67.47562500000001 L 17.948570003135256 66.27070312500001 L 17.403263303359033 65.06578125 L 16.79987786374395 63.86085937499999 L 16.144520156346367 62.65593749999999 L 15.444226808900817 61.451015625 L 14.706838669210109 60.24609375 L 13.940860476284982 59.041171875 L 13.155308649720666 57.83624999999999 L 12.3595499214472 56.63132812499999 L 11.563133697885982 55.42640624999999 L 10.775621152752791 54.221484374999996 L 10.006414109259758 53.0165625 L 9.264586774237848 51.811640625 L 8.558723335660114 50.60671875 L 7.8967643301079224 49.40179687499999 L 7.285864529765233 48.19687499999999 L 6.732264892359244 46.991953124999995 L 6.241180865779121 45.78703124999999 L 5.816709046402128 44.58210937499999 L 5.461753861677555 43.37718749999999 L 5.177975589141493 42.172265624999994 L 4.96576064217415 40.96734375 L 4.8242146543000946 39.762421874999994 L 4.751178485802758 38.5575 L 4.7432668661803765 37.352578125 L 4.795928980853347 36.14765625 L 4.9035299177934135 34.942734375 L 5.059451516411787 33.737812500000004 L 5.256210813798142 32.532890625 L 5.485593968459903 31.327968749999997 L 5.738803264708041 30.123046875 L 6.00661456672928 28.918124999999996 L 6.279542404364876 27.713203124999996 L 6.548009736030448 26.50828125 L 6.802519350503717 25.303359375 L 7.033823839975922 24.098437499999996 L 7.233091102333125 22.893515624999996 L 7.39206241064754 21.688593749999995 L 7.503200220884876 20.483671875 L 7.5598230724904045 19.27875 L 7.556225167517187 18.073828125 L 7.487778488170406 16.868906250000002 L 7.351015625154364 15.663984374999998 L 7.1436918344305 14.459062499999998 L 6.864825211747046 13.254140625 L 6.514714265930598 12.049218749999998 L 6.0949325764276825 10.844296874999998 L 5.60830063071114 9.639375 L 5.058835345581574 8.434453125000001 L 4.451678175788928 7.229531249999999 L 3.793003096625236 6.024609374999999 L 3.089906107338283 4.8196875 L 2.3502782329405534 3.6147656249999995 L 1.5826642973196787 2.40984375 L 0.796109995209754 1.204921875 L 0 0 L 0.97625 0 L 1.9525 0 L 2.92875 0 L 3.905 0 L 4.88125 0 L 5.8575 0 L 6.83375 0 L 7.81 0 L 8.786249999999999 0 L 9.7625 0 L 10.73875 0 L 11.715 0 L 12.69125 0 L 13.6675 0 L 14.64375 0 L 15.62 0 L 16.3798951460796 1.2220312499999997 L 17.129823010007286 2.4440624999999994 L 17.859999789750425 3.666093749999999 L 18.561005265968966 4.888124999999999 L 19.223956211671325 6.110156249999998 L 19.840669916786428 7.332187499999998 L 20.403814817452318 8.554218749999997 L 20.907045457201313 9.776249999999997 L 21.345119295643848 10.998281249999998 L 21.71399321440876 12.220312499999997 L 22.010897943835513 13.442343749999996 L 22.23438904035398 14.664374999999996 L 22.38437347614796 15.886406249999997 L 22.46211135163351 17.108437499999994 L 22.47019269922842 18.330468749999994 L 22.41248980541454 19.552499999999995 L 22.294085928759962 20.774531249999995 L 22.121181726076657 21.996562499999996 L 21.90098110924341 23.218593749999993 L 21.641558633868996 24.440624999999994 L 21.351710860936816 25.66265624999999 L 21.040794427601515 26.88468749999999 L 20.71855380796922 28.106718749999995 L 20.39494193448213 29.328749999999992 L 20.079936981952137 30.55078124999999 L 19.783358686926828 31.772812499999993 L 19.514687583625044 32.994843749999994 L 19.282890483990233 34.21687499999999 L 19.09625541446659 35.43890624999999 L 18.962239048021377 36.66093749999999 L 18.887329439921402 37.88296874999999 L 18.876926594056258 39.10499999999999 Q 18.88749265265798 39.64499999999999 18.911910728488408 40.265624999999986 Q 18.954804380436997 40.88624999999999 19.02175316541205 41.58749999999999 Q 19.06428167937211 41.93812499999999 19.114947389691938 42.30890624999999 Q 19.17240077213669 42.67968749999999 19.239472235447202 43.07062499999999 Q 19.31406955005634 43.4615625 19.399787250019344 43.872656250000006 Q 19.493739358009073 44.28375 19.600301377814723 44.715 Q 19.71699655268587 45.14625 19.841707987077893 45.577734375 Q 19.975048672980144 46.009218749999995 20.116120734507895 46.44093749999999 Q 20.26548804932328 46.87265624999999 20.42222268803279 47.304609374999984 Q 20.586841260577756 47.736562499999984 20.758386994235014 48.16874999999999 Q 20.93733152191061 48.600937499999986 21.122690711840526 49.03335937499998 Q 21.314893935862738 49.46578124999998 21.512931449711694 49.89843749999998 Q 21.717193482548723 50.33109374999998 21.926646672002523 50.763984374999986 Q 22.14164559863747 51.19687499999998 22.361135507411348 51.62999999999998 Q 22.585957251531145 52.06124999999999 22.800860484069243 52.47234374999999 Q 23.019415087273373 52.88343749999999 23.226649112801688 53.27437499999999 Q 23.436568317892583 53.665312499999985 23.633999685511633 54.03609374999999 Q 23.833301603098434 54.40687499999999 24.019170249402276 54.75749999999999 Q 24.39427526586998 55.458749999999995 24.711519942722 56.079375 Q 25.029755601937396 56.699999999999996 25.286956697170073 57.239999999999995 L 25.286956697170073 57.239999999999995 Q 25.084755601937395 56.699999999999996 24.862768253916844 56.08218749999999 Q 24.641757050371613 55.46437499999999 24.404072171321094 54.76875 Q 24.171080089553968 54.073125 23.9271683907013 53.2996875 Q 23.80897515856209 52.91296875 23.68964183233729 52.50679687499999 Q 23.573844917682685 52.10062499999998 23.45824820225437 51.67499999999998 Q 23.34920478883102 51.251249999999985 23.24609354579619 50.82726562499998 Q 23.148252149875674 50.40328124999999 23.057027194419103 49.97906249999999 Q 22.971727315168977 49.55484374999999 22.893680926667276 49.13039062499999 Q 22.822163950409514 48.7059375 22.758484438414616 48.281249999999986 Q 22.70188220033693 47.856562499999995 22.653642910763036 47.431640624999986 Q 22.612967177408187 47.00671874999999 22.581116470593646 46.58156249999999 Q 22.55724944277782 46.15640624999999 22.54260173899915 45.73101562499998 Q 22.53628766638087 45.305624999999985 22.5395156455105 44.87999999999998 Q 22.551353634712488 44.454374999999985 22.572835985276647 44.048203124999986 Q 22.60232957369419 43.64203124999999 22.640067820354467 43.25531249999999 Q 22.685157753986527 42.86859374999999 22.73707423153379 42.501328124999986 Q 22.795650393287808 42.134062499999985 22.859648923011235 41.78624999999999 Q 23.00550206117326 41.09062499999999 23.16494448213511 40.47281249999999 Q 23.342793053712775 39.85499999999999 23.52442236015305 39.31499999999999 L 23.52442236015305 39.31499999999999 L 23.965878963011313 38.08640624999999 L 24.473330424647386 36.857812499999994 L 25.041480703317056 35.62921874999999 L 25.66390438458944 34.40062499999999 L 26.333166233719066 33.17203124999999 L 27.04095953690935 31.94343749999999 L 27.778260657466035 30.71484374999999 L 28.535496931142 29.48624999999999 L 29.302724776783705 28.257656249999997 L 30.069814708321736 27.029062499999995 L 30.826639805740328 25.800468749999993 L 31.563264138302493 24.57187499999999 L 32.27012763419558 23.343281249999993 L 32.938223956880705 22.114687499999995 L 33.559268078547866 20.886093749999993 L 34.125850432776176 19.657499999999995 L 34.631574778208055 18.428906249999997 L 35.07117720812208 17.200312499999995 L 35.44062409159171 15.971718749999996 L 35.73718712391992 14.743124999999996 L 35.95949408994815 13.514531249999997 L 36.107554395728926 12.285937499999996 L 36.18275889351514 11.057343749999998 L 36.18785400332257 9.828749999999998 L 36.12689061256407 8.600156249999998 L 36.00514870453783 7.371562499999998 L 35.82903911814508 6.142968749999998 L 35.60598426671281 4.914374999999999 L 35.34428003528778 3.685781249999999 L 35.052941425964725 2.4571874999999994 L 34.7415348231984 1.2285937499999997 L 34.42 0 L 34.42 0 Z" fill="black" stroke="black" />
				</svg>