<svg
					xmlns="http://www.w3.org/2000/svg" xmlns:xlink="http://www.w3.org/1999/xlink"
					style="
						overflow: visible;
						height: 100;
					"
					viewBox="-3.9985869108585073 2.1316282072803006e-14 51.09065938963012 77.11499999999998"
				>
					<path d="M 9.473903143468002e-15 2.1316282072803006e-14 L 0.5265625000000095 2.1316282072803006e-14 L 1.0531250000000096 2.1316282072803006e-14 L 1.5796875000000097 2.1316282072803006e-14 L 2.1062500000000095 2.1316282072803006e-14 L 2.6328125000000093 2.1316282072803006e-14 L 3.1593750000000096 2.1316282072803006e-14 L 3.68593750000001 2.1316282072803006e-14 L 4.21250000000001 2.1316282072803006e-14 L 4.73906250000001 2.1316282072803006e-14 L 5.26562500000001 2.1316282072803006e-14 L 5.7921875000000105 2.1316282072803006e-14 L 6.31875000000001 2.1316282072803006e-14 L 6.84531250000001 2.1316282072803006e-14 L 7.371875000000011 2.1316282072803006e-14 L 7.898437500000011 2.1316282072803006e-14 L 8.42500000000001 2.1316282072803006e-14 L 8.95156250000001 2.1316282072803006e-14 L 9.47812500000001 2.1316282072803006e-14 L 10.004687500000008 2.1316282072803006e-14 L 10.531250000000009 2.1316282072803006e-14 L 11.05781250000001 2.1316282072803006e-14 L 11.58437500000001 2.1316282072803006e-14 L 12.110937500000011 2.1316282072803006e-14 L 12.63750000000001 2.1316282072803006e-14 L 13.164062500000009 2.1316282072803006e-14 L 13.69062500000001 2.1316282072803006e-14 L 14.21718750000001 2.1316282072803006e-14 L 14.743750000000011 2.1316282072803006e-14 L 15.270312500000012 2.1316282072803006e-14 L 15.79687500000001 2.1316282072803006e-14 L 16.32343750000001 2.1316282072803006e-14 L 16.850000000000012 2.1316282072803006e-14 Q 17.177343750000013 2.1316282072803006e-14 17.50204508447801 0.0055627441406463154 Q 17.826746418011517 0.011125488281271315 18.148805328467066 0.022250976562521313 Q 18.470864223810707 0.03337646484377131 18.79028064696278 0.05006469726564631 Q 19.109696993611163 0.0667529296875213 19.426470709394493 0.0890039062500213 Q 19.74324418339114 0.1112548828125213 20.057374656292087 0.1390686035156463 Q 20.371504538907537 0.1668823242187713 20.682990702662774 0.2002587890625213 Q 20.994475642454745 0.23363525390627127 21.30331562816706 0.2725744628906463 Q 21.612153346496797 0.31151367187502127 21.91834415427373 0.35601562500002126 Q 22.224531094415383 0.40051757812502126 22.528068208713954 0.45058227539064627 Q 22.831599128784397 0.5006469726562712 23.13247607775428 0.5562744140625212 Q 23.43334358781557 0.6119018554687712 23.731551447078733 0.6730920410156462 Q 24.02974549092937 0.7342822265625212 24.3252723324222 0.8010351562500212 Q 24.620779614801474 0.8677880859375211 24.913609901540685 0.9401037597656462 Q 25.2064132617285 1.0124194335937713 25.496527189649616 1.0902978515625212 Q 25.78660492275649 1.1681762695312712 26.073977711118893 1.251617431640646 Q 26.36130283873283 1.3350585937500212 26.645903970991885 1.424062500000021 Q 27.214917498393692 1.602070312500021 27.77288908422692 1.8023291015625211 Q 28.330466734553763 2.002587890625021 28.876739984926875 2.225097656250021 Q 29.422414928134636 2.447607421875021 29.95642786094633 2.692368164062521 Q 30.489568974236185 2.9371289062500208 31.010576182074328 3.204140625000021 Q 31.530356347759113 3.4711523437500205 32.03739668118521 3.760415039062521 Q 32.54276050879147 4.049677734375021 33.034624836704644 4.361191406250021 Q 33.52425704754964 4.672705078125021 33.9994575039068 5.00646972656252 Q 34.471753528522875 5.340234375000021 34.92849598236391 5.6962500000000205 Q 35.381536657354424 6.05226562500002 35.817698487999955 6.430532226562521 Q 36.24923108512168 6.8087988281250205 36.66234668943779 7.209316406250021 Q 37.06977484599957 7.609833984375021 37.45703162636647 8.03260253906252 Q 37.83741704594142 8.45537109375002 38.19566489576024 8.90039062500002 Q 38.54574391822992 9.34541015625002 38.871521399056256 9.812680664062519 Q 39.187739658557646 10.27995117187502 39.477320104956654 10.76947265625002 Q 39.75588845626158 11.25899414062502 40.00534910096538 11.77076660156252 Q 40.24232374686101 12.282539062500021 40.447640575391034 12.81656250000002 Q 40.63902981458769 13.350585937500018 40.79620017967765 13.906860351562518 Q 40.938099362231775 14.463134765625018 41.043293361833065 15.04166015625002 Q 41.132048438349486 15.620185546875021 41.18178864335137 16.22096191406252 Q 41.21418708880271 16.82173828125002 41.2055543706774 17.44476562500002 Q 41.17904023710641 18.06779296875002 41.10990118911946 18.71307128906252 Q 41.0228086065261 19.35834960937502 40.89205740701236 20.025878906250018 Q 40.74385406025859 20.693408203125017 40.55165866939848 21.383188476562516 Q 40.34318773200468 22.07296875000002 40.09122717543887 22.785000000000018 L 40.09122717543887 22.785000000000018 Q 39.92872876528666 23.223750000000017 39.754890813329816 23.655117187500018 Q 39.576541844120314 24.08648437500002 39.38792888611031 24.510468750000015 Q 39.19571137209725 24.93445312500001 38.994244729623794 25.35105468750001 Q 38.79004342572491 25.767656250000012 38.577538405196556 26.176875000000013 Q 38.363123866856746 26.586093750000014 38.14127479523758 26.987929687500014 Q 37.918290044800365 27.389765625000013 37.68865879840738 27.78421875000001 Q 37.458609397126345 28.17867187500001 37.22261720163311 28.565742187500007 Q 36.986864487262025 28.952812500000007 36.74578673357591 29.33250000000001 Q 36.505543954845805 29.712187500000013 36.260507752107614 30.08449218750001 Q 36.01683881239471 30.45679687500001 35.76882298500507 30.82171875000001 Q 35.52264349709073 31.18664062500001 35.27248072635101 31.544179687500005 Q 35.024561077308775 31.901718750000008 34.77294188890043 32.25187500000001 Q 34.523912017736436 32.60203125000001 34.271390322786644 32.94480468750001 Q 34.02174592245344 33.28757812500001 33.76874583130963 33.62296875000001 Q 33.51885570009269 33.95835937500001 33.265679343173474 34.286367187500005 Q 33.015793627263484 34.61437500000001 32.762629735554206 34.93500000000001 Q 32.512888823984966 35.25562500000001 32.26209172560827 35.56974609375001 Q 32.014825518578924 35.883867187500016 31.766445307509517 36.191484375000016 Q 31.52166546902402 36.499101562500016 31.27567098865299 36.80021484375001 Q 31.033311237630414 37.10132812500001 30.789597977446267 37.39593750000001 Q 30.549522029468076 37.69054687500001 30.307920020724183 37.978652343750014 Q 30.069929477348833 38.26675781250002 29.830211082771733 38.54835937500001 Q 29.59405317034139 38.82996093750001 29.35594067799274 39.105058593750016 Q 29.12131575269452 39.38015625000001 28.88448869855641 39.648750000000014 Q 28.651057448649265 39.91734375000001 28.415159606189796 40.179433593750005 Q 28.18254989561939 40.44152343750001 27.947195883384058 40.69710937500001 Q 27.715009193371422 40.95269531250001 27.479790663446188 41.20177734375001 Q 27.24760809997656 41.450859375000014 27.012099480920646 41.693437500000016 Q 26.779487326331946 41.93601562500001 26.543251103854047 42.17208984375001 Q 26.309765899912932 42.408164062500006 26.07235742715752 42.63773437500001 Q 25.837550585119754 42.86730468750001 25.598522421956787 43.09037109375001 Q 25.36194436216182 43.31343750000001 25.120850149365786 43.530000000000015 L 25.120850149365786 43.530000000000015 L 25.673623026455246 44.57953125000002 L 26.279161257719505 45.62906250000002 L 26.93559828269204 46.67859375000001 L 27.640376154238123 47.72812500000001 L 28.39028028457568 48.77765625000001 L 29.18148311081182 49.82718750000001 L 30.009596086861745 50.876718750000016 L 30.86972929551487 51.92625000000001 L 31.756557870904256 52.975781250000004 L 32.6643943291259 54.02531250000001 L 33.58726582450077 55.074843750000014 L 34.51899528206492 56.12437500000001 L 35.45328530421965 57.173906250000016 L 36.38380371179104 58.22343750000002 L 37.30426955754704 59.27296875000001 L 38.20853844380255 60.32250000000002 L 39.09068598519592 61.37203125000002 L 39.945088282915435 62.421562500000014 L 40.766498317249805 63.47109375000002 L 41.55011722077965 64.52062500000002 L 42.291659464066925 65.57015625000003 L 42.98741106838856 66.61968750000003 L 43.634280054778266 67.66921875000003 L 44.229838444099286 68.71875000000003 L 44.772355237637505 69.76828125000002 L 45.26081993022122 70.81781250000002 L 45.694956236475804 71.86734375000003 L 46.07522584376186 72.91687500000002 L 46.40282214081861 73.96640625 L 46.679654007299874 75.01593750000002 L 46.90831988439839 76.06546875000002 L 47.09207247877161 77.11500000000001 L 46.10644747877161 77.11500000000001 L 45.12082247877161 77.11500000000001 L 44.13519747877161 77.11500000000001 L 43.14957247877161 77.11500000000001 L 42.16394747877161 77.11500000000001 L 41.17832247877161 77.11500000000001 L 40.19269747877161 77.11500000000001 L 39.207072478771614 77.11500000000001 L 38.221447478771616 77.11500000000001 L 37.23582247877162 77.11500000000001 L 36.25019747877162 77.11500000000001 L 35.26457247877162 77.11500000000001 L 34.27894747877162 77.11500000000001 L 33.29332247877162 77.11500000000001 L 32.307697478771615 77.11500000000001 L 31.322072478771616 77.11500000000001 L 31.223127274053706 76.23750000000001 L 31.093189499990217 75.36000000000001 L 30.930266802317586 74.48250000000002 L 30.732680141380374 73.60500000000002 L 30.499079740861596 72.7275 L 30.22845790893226 71.85000000000001 L 29.92015861003555 70.97250000000003 L 29.57388369638598 70.09500000000001 L 29.189695739992228 69.21750000000002 L 28.76801743830303 68.34000000000003 L 28.309627599121775 67.46250000000002 L 27.81565374292796 66.58500000000002 L 27.287561392874004 65.70750000000002 L 26.727140154188728 64.83000000000001 L 26.13648671521544 63.952500000000015 L 25.517984931552945 63.07500000000002 L 24.87428318247477 62.19750000000002 L 24.208269214711592 61.320000000000014 L 23.523042712548865 60.44250000000001 L 22.821885854788544 59.56500000000001 L 22.108232138246255 58.687500000000014 L 21.385633763920737 57.81000000000001 L 20.657727895625303 56.93250000000002 L 19.928202111581147 56.05500000000002 L 19.200759377138272 55.177500000000016 L 18.479082871338342 54.300000000000026 L 17.76680100142212 53.42250000000003 L 17.067452937599104 52.54500000000002 L 16.384454995454774 51.66750000000002 L 15.721068185319794 50.79000000000002 L 15.080367236840555 49.91250000000002 L 14.465211392978116 49.03500000000002 L 13.582711392978116 49.03500000000002 L 12.700211392978117 49.03500000000002 L 11.817711392978119 49.03500000000002 L 10.935211392978118 49.03500000000002 L 11.210679736840557 49.91250000000002 L 11.511693185319796 50.79000000000002 L 11.835392495454776 51.66750000000002 L 12.178702937599105 52.54500000000002 L 12.538363501422122 53.42250000000003 L 12.910957871338342 54.300000000000026 L 13.292946877138275 55.177500000000016 L 13.680702111581146 56.05500000000002 L 14.070540395625303 56.93250000000002 L 14.458758763920738 57.81000000000001 L 14.841669638246255 58.687500000000014 L 15.215635854788543 59.56500000000001 L 15.577105212548865 60.44250000000001 L 15.922644214711594 61.320000000000014 L 16.24897068247477 62.19750000000002 L 16.552984931552945 63.07500000000002 L 16.83179921521544 63.952500000000015 L 17.082765154188728 64.83000000000001 L 17.303498892874003 65.70750000000002 L 17.49190374292796 66.58500000000002 L 17.646190099121775 67.46250000000002 L 17.76489243830303 68.34000000000003 L 17.846883239992227 69.21750000000002 L 17.89138369638598 70.09500000000001 L 17.89797111003555 70.97250000000003 L 17.86658290893226 71.85000000000001 L 17.797517240861595 72.7275 L 17.691430141380373 73.60500000000002 L 17.549329302317584 74.48250000000002 L 17.372564499990215 75.36000000000001 L 17.162814774053704 76.23750000000001 L 16.922072478771614 77.11500000000001 L 16.053322478771616 77.11500000000001 L 15.184572478771615 77.11500000000001 L 14.315822478771615 77.11500000000001 L 13.447072478771615 77.11500000000001 L 12.578322478771614 77.11500000000001 L 11.709572478771614 77.11500000000001 L 10.840822478771614 77.11500000000001 L 9.972072478771615 77.11500000000001 L 9.103322478771615 77.11500000000001 L 8.234572478771614 77.11500000000001 L 7.365822478771614 77.11500000000001 L 6.497072478771614 77.11500000000001 L 5.628322478771613 77.11500000000001 L 4.759572478771614 77.11500000000001 L 3.8908224787716135 77.11500000000001 L 3.0220724787716136 77.11500000000001 L 3.3448166743295493 75.91007812500001 L 3.607698170896827 74.70515625000002 L 3.806012137855966 73.50023437500002 L 3.9362093196077548 72.29531250000002 L 3.9959595571451336 71.09039062500001 L 3.984193491267711 69.88546875000002 L 3.9011217010680075 68.68054687500002 L 3.7482309351650134 67.47562500000002 L 3.528257503135259 66.27070312500003 L 3.2451383033590337 65.06578125000001 L 2.9039403637439527 63.86085937500001 L 2.510770156346373 62.655937500000014 L 2.072664308900827 61.45101562500002 L 1.597463669210116 60.24609375000002 L 1.0936729762849926 59.041171875000025 L 0.5703086497206755 57.83625000000002 L 0.03673742144721069 56.63132812500001 L -0.49749130211400905 55.426406250000014 L -1.0228163472472047 54.22148437500002 L -1.529835890740233 53.01656250000002 L -2.0094757257621416 51.811640625000024 L -2.4531516643398774 50.60671875000001 L -2.85292316989207 49.40179687500001 L -3.201635470234764 48.19687500000001 L -3.4930476076407517 46.991953125000016 L -3.7219441342208777 45.78703125000001 L -3.884228453597872 44.582109375000016 L -3.9769961383224453 43.37718750000002 L -3.9985869108585073 42.17226562500002 L -3.9486143578258504 40.96734375000002 L -3.8279728456999083 39.762421875000015 L -3.6388215141972453 38.55750000000002 L -3.3845456338196303 37.35257812500002 L -3.069696019146659 36.14765625000002 L -2.699907582206593 34.942734375000015 L -2.281798483588222 33.73781250000002 L -1.8228516862018664 32.53289062500002 L -1.3312810315401056 31.327968750000018 L -0.8158842352919671 30.12304687500002 L -0.2858854332707287 28.918125000000018 L 0.24922990436486453 27.713203125000017 L 0.779884736030439 26.50828125000002 L 1.296581850503707 25.30335937500002 L 1.7900738399759133 24.098437500000017 L 2.251528602333117 22.893515625000017 L 2.6726874106475336 21.688593750000017 L 3.0460127208848706 20.48367187500002 L 3.3648230724903994 19.27875000000002 L 3.623412667517183 18.07382812500002 L 3.817153488170402 16.868906250000023 L 3.9425781251543617 15.66398437500002 L 3.997441834430499 14.45906250000002 L 3.980762711747047 13.254140625000021 L 3.8928392659305993 12.04921875000002 L 3.7352450764276854 10.844296875000019 L 3.510800630711144 9.63937500000002 L 3.22352284558158 8.434453125000022 L 2.8785531757889338 7.22953125000002 L 2.482065596625243 6.02460937500002 L 2.041156107338291 4.819687500000021 L 1.563715732940562 3.614765625000021 L 1.0582892973196876 2.409843750000021 L 0.5339224952097633 1.2049218750000212 L 9.473903143468002e-15 2.1316282072803006e-14 L 9.473903143468002e-15 2.1316282072803006e-14 Z M 20.5747500144209 15.765000000000008 L 20.5747500144209 15.765000000000008 L 19.889750014420898 15.765000000000008 L 19.2047500144209 15.765000000000008 L 18.5197500144209 15.765000000000008 L 17.834750014420898 15.765000000000008 L 17.717589111990392 16.86562500000001 L 17.543406321260623 17.96625000000001 L 17.31480334486257 19.06687500000001 L 17.035194739209363 20.16750000000001 L 16.708756912555362 21.268125000000012 L 16.3403657435617 22.368750000000013 L 15.935523752136241 23.469375000000014 L 15.500277910369674 24.570000000000014 L 15.041129321194731 25.670625000000015 L 14.564936113864366 26.771250000000016 L 14.078811006662473 27.871875000000017 L 13.590015066914313 28.972500000000018 L 13.105849255163257 30.07312500000002 L 12.633545373477597 31.17375000000002 L 12.180158046751409 32.27437500000002 L 11.752459350434005 33.37500000000002 L 12.399959350434006 33.37500000000002 L 13.047459350434004 33.37500000000002 L 13.694959350434004 33.37500000000002 L 14.342459350434005 33.37500000000002 Q 14.738709350434007 33.37500000000002 15.12977690277795 33.34218750000002 Q 15.520872836690867 33.309375000000024 15.9068991924357 33.24375000000002 Q 16.293037100355086 33.17812500000002 16.674325226359752 33.07968750000002 Q 17.055856875483357 32.98125000000002 17.432853405377198 32.85000000000002 Q 17.8102640346296 32.71875000000002 18.18353056472796 32.55468750000002 Q 18.55740567987699 32.39062500000002 18.927578666488813 32.19375000000002 Q 19.298559078376776 31.996875000000017 19.666297470376684 31.767187500000013 Q 20.035021702903105 31.537500000000016 20.400941459715906 31.275000000000013 Q 20.768769834658915 31.01062500000001 21.1275751498085 30.694921875000013 Q 21.487688194702784 30.379218750000017 21.839286448178864 30.012187500000017 Q 22.19216110920595 29.645156250000014 22.536691601093718 29.226796875000016 Q 22.882134924039615 28.808437500000018 23.218870858794364 28.33875000000002 Q 23.555684748326552 27.86906250000002 23.88267544416368 27.34804687500002 Q 24.20828927536959 26.82703125000002 24.521980879673723 26.254687500000024 Q 24.832073961894917 25.682343750000026 25.12693705429719 25.058671875000023 Q 25.415084909213608 24.435000000000024 25.683290459954584 23.760000000000026 L 25.683290459954584 23.760000000000026 Q 25.864687717141326 23.287500000000023 26.004909048084563 22.841250000000024 Q 26.139549014787082 22.39500000000002 26.233519308598584 21.97500000000002 Q 26.321879261977358 21.555000000000017 26.370346373340556 21.161250000000017 Q 26.413373864014957 20.76750000000002 26.417484231936218 20.40000000000002 Q 26.416476538734717 20.032500000000017 26.377661804468676 19.691250000000018 Q 26.33415766319399 19.35000000000002 26.25403439927874 19.035000000000018 Q 26.169719418030063 18.72000000000002 26.050002791386664 18.43125000000002 Q 25.926628940087948 18.142500000000023 25.769060246680922 17.880000000000024 Q 25.607443232605917 17.615625000000023 25.40387606253646 17.38429687500002 Q 25.1978365635264 17.15296875000002 24.951210194154122 16.95468750000002 Q 24.70273675986373 16.75640625000002 24.414880406026853 16.591171875000015 Q 24.125725632368937 16.425937500000014 23.798212604217134 16.29375000000001 Q 23.4698613548897 16.16156250000001 23.103983573476725 16.06242187500001 Q 22.73763148414014 15.963281250000009 22.334382704849414 15.89718750000001 Q 21.930922315651063 15.831093750000008 21.49098767247648 15.79804687500001 Q 21.0510000144209 15.765000000000008 20.5747500144209 15.765000000000008 L 20.5747500144209 15.765000000000008 Z" fill="black" stroke="black" />
				</svg>