<svg
					xmlns="http://www.w3.org/2000/svg" xmlns:xlink="http://www.w3.org/1999/xlink"
					style="
						overflow: visible;
						height: 100;
					"
					viewBox="-7.976940907080142 0 59.11798657252752 154.23"
				>
					<path d="M 40.14355948147109 68.49 L 39.53605948147109 68.49 L 38.92855948147109 68.49 L 38.32105948147109 68.49 L 37.71355948147109 68.49 L 37.106059481471085 68.49 L 36.498559481471084 68.49 L 35.89105948147108 68.49 L 35.28355948147109 68.49 L 34.67605948147109 68.49 L 34.06855948147109 68.49 L 33.46105948147109 68.49 L 32.85355948147109 68.49 L 32.246059481471086 68.49 L 31.63855948147108 68.49 L 31.03105948147108 68.49 L 30.423559481471084 68.49 L 29.552910779083277 70.70249999999999 L 28.76770013956928 72.91499999999999 L 28.07773891265047 75.1275 L 27.491401182582333 77.33999999999997 L 27.015497407458042 79.55249999999998 L 26.655171652840075 81.76499999999997 L 26.413823970412352 83.97749999999998 L 26.29305909291986 86.18999999999997 L 26.828684092919865 86.18999999999997 L 27.36430909291986 86.18999999999997 L 27.899934092919864 86.18999999999997 L 28.435559092919867 86.18999999999997 L 28.971184092919863 86.18999999999997 L 29.506809092919866 86.18999999999997 L 30.04243409291987 86.18999999999997 L 30.578059092919865 86.18999999999997 L 31.11368409291986 86.18999999999997 L 31.649309092919864 86.18999999999997 L 32.18493409291987 86.18999999999997 L 32.72055909291986 86.18999999999997 L 33.25618409291986 86.18999999999997 L 33.79180909291986 86.18999999999997 L 34.327434092919866 86.18999999999997 L 34.86305909291986 86.18999999999997 L 34.95392550885993 87.86437499999997 L 35.112979955211095 89.53874999999996 L 35.33884714577272 91.21312499999998 L 35.62957408873929 92.88749999999997 L 35.98264697351332 94.56187499999997 L 36.395012906715316 96.23624999999998 L 36.86310630944727 97.91062499999997 L 37.38287974756224 99.58499999999998 L 37.949838928361785 101.25937499999999 L 38.559081561117374 102.93374999999997 L 39.20533974540317 104.60812499999997 L 39.88302552072339 106.28249999999998 L 40.58627918358314 107.956875 L 41.30901995422262 109.63125 L 42.04499855491779 111.30562499999998 L 42.787851245221816 112.97999999999999 L 42.148476245221815 112.97999999999999 L 41.509101245221814 112.97999999999999 L 40.86972624522181 112.97999999999999 L 40.23035124522181 112.97999999999999 L 39.59097624522181 112.97999999999999 L 38.95160124522181 112.97999999999999 L 38.31222624522181 112.97999999999999 L 37.672851245221814 112.97999999999999 L 37.03347624522182 112.97999999999999 L 36.39410124522182 112.97999999999999 L 35.75472624522182 112.97999999999999 L 35.11535124522182 112.97999999999999 L 34.475976245221815 112.97999999999999 L 33.836601245221814 112.97999999999999 L 33.19722624522181 112.97999999999999 L 32.55785124522181 112.97999999999999 L 33.538405607398225 115.55812499999999 L 34.49663151614952 118.13624999999999 L 35.40958981177427 120.71437499999999 L 36.25526839480165 123.29249999999999 L 37.013033023826964 125.87062499999999 L 37.664049895437344 128.44875 L 38.19167135198233 131.026875 L 38.58177681806849 133.605 L 38.82306198355315 136.183125 L 38.90727031070024 138.76125 L 38.829362124336576 141.339375 L 38.58761782211868 143.9175 L 38.18367309121055 146.495625 L 37.62248541015076 149.07375 L 36.91223252193557 151.651875 L 36.064144957543235 154.23 L 35.47476995754324 154.23 L 34.88539495754324 154.23 L 34.29601995754324 154.23 L 33.70664495754324 154.23 L 33.117269957543236 154.23 L 32.52789495754324 154.23 L 31.938519957543235 154.23 L 31.34914495754324 154.23 L 30.759769957543234 154.23 L 30.170394957543238 154.23 L 29.581019957543234 154.23 L 28.991644957543237 154.23 L 28.402269957543233 154.23 L 27.812894957543236 154.23 L 27.22351995754324 154.23 L 26.634144957543235 154.23 L 27.482232521935572 151.651875 L 28.19248541015076 149.07375 L 28.753673091210548 146.495625 L 29.157617822118684 143.9175 L 29.39936212433658 141.339375 L 29.477270310700238 138.76125 L 29.39306198355315 136.183125 L 29.15177681806849 133.605 L 28.76167135198233 131.026875 L 28.234049895437348 128.44875 L 27.583033023826964 125.87062499999999 L 26.82526839480165 123.29249999999999 L 25.979589811774268 120.71437499999999 L 25.066631516149528 118.13624999999999 L 24.108405607398225 115.55812499999999 L 23.12785124522181 112.97999999999999 L 22.390351245221808 112.97999999999999 L 21.652851245221807 112.97999999999999 L 20.915351245221807 112.97999999999999 L 20.177851245221806 112.97999999999999 L 19.440351245221805 112.97999999999999 L 18.702851245221805 112.97999999999999 L 17.965351245221807 112.97999999999999 L 17.227851245221807 112.97999999999999 L 18.212780607398223 115.55812499999999 L 19.175381516149525 118.13624999999999 L 20.092714811774265 120.71437499999999 L 20.94276839480165 123.29249999999999 L 21.704908023826967 125.87062499999999 L 22.360299895437347 128.44875 L 22.892296351982324 131.026875 L 23.28677681806849 133.605 L 23.53243698355315 136.183125 L 23.62102031070024 138.76125 L 23.547487124336577 141.339375 L 23.310117822118684 143.9175 L 22.910548091210547 146.495625 L 22.353735410150758 149.07375 L 21.64785752193557 151.651875 L 20.804144957543237 154.23 L 20.219144957543236 154.23 L 19.634144957543235 154.23 L 19.049144957543234 154.23 L 18.464144957543233 154.23 L 17.879144957543232 154.23 L 17.294144957543235 154.23 L 16.709144957543238 154.23 L 16.124144957543237 154.23 L 15.539144957543234 154.23 L 14.954144957543235 154.23 L 14.369144957543236 154.23 L 13.784144957543237 154.23 L 13.199144957543236 154.23 L 12.614144957543237 154.23 L 12.029144957543238 154.23 L 11.444144957543237 154.23 L 12.287857521935575 151.651875 L 12.99373541015076 149.07375 L 13.550548091210551 146.495625 L 13.950117822118687 143.9175 L 14.187487124336581 141.339375 L 14.261020310700243 138.76125 L 14.172436983553155 136.183125 L 13.926776818068493 133.605 L 13.53229635198233 131.026875 L 13.00029989543735 128.44875 L 12.344908023826966 125.87062499999999 L 11.58276839480165 123.29249999999999 L 10.732714811774269 120.71437499999999 L 9.815381516149527 118.13624999999999 L 8.852780607398227 115.55812499999999 L 7.867851245221812 112.97999999999999 L 6.8778512452218115 112.97999999999999 L 5.887851245221811 112.97999999999999 L 4.897851245221811 112.97999999999999 L 3.9078512452218113 112.97999999999999 L 2.917851245221811 112.97999999999999 L 1.927851245221811 112.97999999999999 L 0.937851245221811 112.97999999999999 L -0.05214875477818917 112.97999999999999 L -0.7950014450822136 111.30562499999998 L -1.5309800457773854 109.63125 L -2.253720816416865 107.956875 L -2.9569744792766066 106.28249999999998 L -3.634660254596829 104.60812499999997 L -4.2809184388826305 102.93374999999997 L -4.890161071638221 101.25937499999999 L -5.457120252437759 99.58499999999998 L -5.976893690552738 97.91062499999997 L -6.444987093284689 96.23624999999998 L -6.857353026486682 94.56187499999997 L -7.210425911260716 92.88749999999997 L -7.501152854227286 91.21312499999998 L -7.727020044788908 89.53874999999996 L -7.88607449114007 87.86437499999997 L -7.976940907080142 86.18999999999997 L -7.3744409070801415 86.18999999999997 L -6.7719409070801415 86.18999999999997 L -6.169440907080142 86.18999999999997 L -5.566940907080141 86.18999999999997 L -4.964440907080142 86.18999999999997 L -4.361940907080142 86.18999999999997 L -3.7594409070801422 86.18999999999997 L -3.156940907080142 86.18999999999997 L -2.554440907080142 86.18999999999997 L -1.951940907080143 86.18999999999997 L -1.349440907080143 86.18999999999997 L -0.7469409070801429 86.18999999999997 L -0.1444409070801429 86.18999999999997 L 0.45805909291985714 86.18999999999997 L 1.0605590929198563 86.18999999999997 L 1.6630590929198572 86.18999999999997 L 1.7838239704123504 83.97749999999998 L 2.0251716528400676 81.76499999999997 L 2.385497407458038 79.55249999999998 L 2.8614011825823296 77.33999999999997 L 3.44773891265047 75.1275 L 4.13770013956928 72.91499999999999 L 4.922910779083274 70.70249999999999 L 5.793559481471083 68.49 L 5.271684481471083 68.49 L 4.749809481471083 68.49 L 4.227934481471084 68.49 L 3.706059481471084 68.49 L 3.1841844814710845 68.49 L 2.662309481471084 68.49 L 2.1404344814710834 68.49 L 1.6185594814710837 68.49 L 1.096684481471084 68.49 L 0.5748094814710836 68.49 L 0.05293448147108304 68.49 L -0.4689405185289166 68.49 L -0.9908155185289163 68.49 L -1.5126905185289163 68.49 L -2.0345655185289164 68.49 L -2.556440518528916 68.49 L -1.9342169576998067 66.77437499999999 L -1.27292144805645 65.05874999999999 L -0.578556964020863 63.343124999999986 L 0.14257333314781562 61.62749999999999 L 0.8839233129138271 59.911874999999995 L 1.6387632986025227 58.19624999999999 L 2.400241156696091 56.48062499999998 L 3.1614444977432044 54.764999999999986 L 3.9154634242477755 53.04937499999999 L 4.655453255936751 51.33374999999998 L 5.374696663012171 49.61812499999998 L 6.066664643366931 47.90249999999998 L 6.725075790237572 46.18687499999998 L 7.343953312286185 44.47124999999998 L 7.917679288506134 42.75562499999998 L 8.441045665447382 41.03999999999998 L 9.071045665447382 41.03999999999998 L 9.701045665447381 41.03999999999998 L 10.33104566544738 41.03999999999998 L 10.961045665447381 41.03999999999998 L 11.591045665447382 41.03999999999998 L 12.221045665447381 41.03999999999998 L 12.85104566544738 41.03999999999998 L 13.48104566544738 41.03999999999998 L 14.111045665447381 41.03999999999998 L 14.74104566544738 41.03999999999998 L 15.371045665447383 41.03999999999998 L 16.001045665447382 41.03999999999998 L 16.63104566544738 41.03999999999998 L 17.26104566544738 41.03999999999998 L 17.891045665447383 41.03999999999998 L 18.52104566544738 41.03999999999998 L 19.356901612602975 38.47499999999998 L 20.055934289156376 35.90999999999998 L 20.607165792739814 33.344999999999985 L 21.002614433249263 30.779999999999983 L 21.237456536958 28.214999999999982 L 21.310124231602362 25.649999999999984 L 21.222337230149172 23.084999999999987 L 20.979067968927062 20.51999999999999 L 20.588440806838438 17.95499999999999 L 20.061567329076688 15.389999999999992 L 19.412321094057113 12.824999999999992 L 18.65705638987175 10.259999999999994 L 17.814276701612332 7.694999999999996 L 16.904259610362352 5.129999999999997 L 15.948645727872602 2.5649999999999986 L 14.969999999999999 0 L 15.559375 0 L 16.14875 0 L 16.738125 0 L 17.3275 0 L 17.916875 0 L 18.50625 0 L 19.095625 0 L 19.685 0 L 20.274375 0 L 20.863749999999996 0 L 21.453124999999996 0 L 22.042499999999997 0 L 22.631874999999997 0 L 23.221249999999998 0 L 23.810624999999998 0 L 24.4 0 L 25.3742707278726 2.5649999999999986 L 26.32550961036235 5.129999999999997 L 27.231151701612333 7.694999999999996 L 28.06955638987175 10.259999999999994 L 28.820446094057107 12.824999999999992 L 29.465317329076683 15.389999999999992 L 29.987815806838437 17.95499999999999 L 30.37406796892706 20.51999999999999 L 30.61296223014917 23.084999999999987 L 30.69637423160236 25.649999999999984 L 30.619331536957997 28.214999999999982 L 30.38011443324926 30.779999999999983 L 29.98029079273981 33.344999999999985 L 29.424684289156374 35.90999999999998 L 28.721276612602974 38.47499999999998 L 27.88104566544738 41.03999999999998 L 28.609795665447383 41.03999999999998 L 29.33854566544738 41.03999999999998 L 30.067295665447382 41.03999999999998 L 30.796045665447384 41.03999999999998 L 31.52479566544738 41.03999999999998 L 32.25354566544738 41.03999999999998 L 32.98229566544738 41.03999999999998 L 33.71104566544738 41.03999999999998 L 34.54690161260298 38.47499999999998 L 35.245934289156374 35.90999999999998 L 35.79716579273981 33.344999999999985 L 36.19261443324926 30.779999999999983 L 36.427456536958005 28.214999999999982 L 36.50012423160236 25.649999999999984 L 36.41233723014917 23.084999999999987 L 36.16906796892707 20.51999999999999 L 35.77844080683843 17.95499999999999 L 35.251567329076686 15.389999999999992 L 34.60232109405712 12.824999999999992 L 33.84705638987175 10.259999999999994 L 33.00427670161233 7.694999999999996 L 32.09425961036235 5.129999999999997 L 31.1386457278726 2.5649999999999986 L 30.16 0 L 30.75 0 L 31.340000000000003 0 L 31.930000000000003 0 L 32.52 0 L 33.11 0 L 33.7 0 L 34.290000000000006 0 L 34.88 0 L 35.47 0 L 36.06 0 L 36.650000000000006 0 L 37.24 0 L 37.83 0 L 38.42 0 L 39.010000000000005 0 L 39.6 0 L 40.5736457278726 2.5649999999999986 L 41.52425961036236 5.129999999999997 L 42.42927670161234 7.694999999999996 L 43.267056389871755 10.259999999999994 L 44.01732109405711 12.824999999999992 L 44.66156732907669 15.389999999999992 L 45.18344080683843 17.95499999999999 L 45.56906796892706 20.51999999999999 L 45.807337230149166 23.084999999999987 L 45.89012423160236 25.649999999999984 L 45.812456536958 28.214999999999982 L 45.572614433249264 30.779999999999983 L 45.17216579273981 33.344999999999985 L 44.61593428915638 35.90999999999998 L 43.91190161260298 38.47499999999998 L 43.07104566544738 41.03999999999998 L 43.575420665447375 41.03999999999998 L 44.07979566544738 41.03999999999998 L 44.58417066544738 41.03999999999998 L 45.08854566544738 41.03999999999998 L 45.59292066544737 41.03999999999998 L 46.097295665447376 41.03999999999998 L 46.60167066544738 41.03999999999998 L 47.106045665447375 41.03999999999998 L 47.61042066544737 41.03999999999998 L 48.114795665447375 41.03999999999998 L 48.61917066544738 41.03999999999998 L 49.123545665447374 41.03999999999998 L 49.62792066544738 41.03999999999998 L 50.13229566544738 41.03999999999998 L 50.636670665447376 41.03999999999998 L 51.14104566544738 41.03999999999998 L 50.61767928850613 42.75562499999998 L 50.043953312286185 44.47124999999998 L 49.42507579023757 46.18687499999998 L 48.76666464336693 47.90249999999998 L 48.07469666301217 49.61812499999998 L 47.35545325593675 51.33374999999998 L 46.61546342424778 53.04937499999999 L 45.86144449774321 54.764999999999986 L 45.10024115669609 56.48062499999998 L 44.33876329860252 58.19624999999999 L 43.583923312913825 59.911874999999995 L 42.84257333314782 61.62749999999999 L 42.12144303597914 63.343124999999986 L 41.42707855194355 65.05874999999999 L 40.76578304230019 66.77437499999999 L 40.14355948147109 68.49 L 40.14355948147109 68.49 Z M 15.153559481471081 68.49 L 14.282910779083275 70.70249999999999 L 13.497700139569279 72.91499999999999 L 12.807738912650468 75.1275 L 12.22140118258233 77.33999999999997 L 11.74549740745804 79.55249999999998 L 11.385171652840068 81.76499999999997 L 11.143823970412349 83.97749999999998 L 11.023059092919858 86.18999999999997 L 11.753059092919859 86.18999999999997 L 12.48305909291986 86.18999999999997 L 13.21305909291986 86.18999999999997 L 13.94305909291986 86.18999999999997 L 14.67305909291986 86.18999999999997 L 15.403059092919861 86.18999999999997 L 16.133059092919858 86.18999999999997 L 16.86305909291986 86.18999999999997 L 16.983823970412352 83.97749999999998 L 17.225171652840068 81.76499999999997 L 17.585497407458035 79.55249999999998 L 18.06140118258233 77.33999999999997 L 18.64773891265047 75.1275 L 19.33770013956928 72.91499999999999 L 20.12291077908327 70.70249999999999 L 20.99355948147108 68.49 L 20.26355948147108 68.49 L 19.533559481471084 68.49 L 18.803559481471083 68.49 L 18.073559481471083 68.49 L 17.343559481471083 68.49 L 16.613559481471082 68.49 L 15.883559481471082 68.49 L 15.153559481471081 68.49 L 15.153559481471081 68.49 Z" fill="black" stroke="black" />
				</svg>