<svg
					xmlns="http://www.w3.org/2000/svg" xmlns:xlink="http://www.w3.org/1999/xlink"
					style="
						overflow: visible;
						height: 100;
					"
					viewBox="-5.519001960498217 0 50.00559623544017 176.70000000000002"
				>
					<path d="M 12.494523062602902 176.70000000000002 L 13.401590082889333 174.54000000000002 L 14.339557099273982 172.38 L 15.294933587013078 170.21999999999997 L 16.253978625666633 168.06 L 17.202898531023664 165.89999999999998 L 18.128045245914304 163.73999999999998 L 19.01611263650779 161.57999999999996 L 19.854327870819983 159.41999999999996 Q 19.57735909571689 159.39187499999997 19.307734872437415 159.35671874999997 Q 19.03809413912172 159.32156249999997 18.775784645362563 159.279375 Q 18.513451218566537 159.23718749999998 18.25843289845717 159.18796874999998 Q 18.00338174850407 159.13875000000002 17.755626666393656 159.08249999999998 Q 17.50782832258343 159.02624999999998 17.267304002954496 158.96296875 Q 17.02672438471687 158.89968749999997 16.793393630229897 158.82937499999997 Q 16.559993856705617 158.75906249999997 16.333814545096946 158.68171875000002 Q 16.107550723918163 158.604375 15.8884755845883 158.52 Q 15.450019041998978 158.35125000000002 15.040099705828993 158.15437500000002 Q 14.62961005129836 157.9575 14.2473145756845 157.73250000000002 Q 13.864250877327416 157.50750000000005 13.508972245951524 157.25437500000004 Q 13.152688533859541 157.00125000000003 12.823708454559965 156.72000000000003 Q 12.495930996042203 156.43500000000003 12.180506795675331 156.12468750000002 Q 11.86345989453613 155.81437499999998 11.55817657150401 155.47875 Q 11.250923318907176 155.143125 10.954765855783398 154.7821875 Q 10.65624398595168 154.42125 10.368066915116774 154.035 Q 10.07708088460344 153.64875 9.795600824550764 153.2371875 Q 9.510814851459184 152.825625 9.234604230402594 152.38875000000002 Q 8.954536705887643 151.95187500000003 8.68201911120114 151.4896875 Q 8.405038841463448 151.0275 8.134486478729743 150.54000000000002 L 8.134486478729743 150.54000000000002 L 8.535005849261667 148.47562500000004 L 8.838495018509432 146.41125000000002 L 9.040966499424178 144.346875 L 9.139760057342802 142.2825 L 9.133577662310268 140.218125 L 9.022500543650787 138.15375 L 8.807988122711018 136.089375 L 8.492858837797794 134.02499999999998 L 8.081253113247909 131.960625 L 7.578578959172384 129.89625 L 6.9914409166299425 127.831875 L 6.327553281805612 125.76749999999998 L 5.595638749325776 123.70312499999996 L 4.805313806415884 121.63874999999996 L 3.9669623836855727 119.57437499999996 L 3.091599422619616 117.50999999999996 Q 3.75849069431609 118.07624999999996 4.418294458437971 118.61390624999997 Q 5.075944951784443 119.15156249999998 5.7265581730788835 119.66062499999998 Q 6.374889787456029 120.1696875 7.0163573893240585 120.65015625 Q 7.655502968310836 121.130625 8.288058225439395 121.58250000000001 Q 8.918323979822102 122.03437500000003 9.542352303289263 122.45765625000001 Q 10.164182523057598 122.88093750000002 10.780187714883475 123.27562500000002 Q 11.394132082957842 123.67031250000002 12.00270530027024 124.03640625000003 Q 12.609388993481339 124.40250000000005 13.211180547375797 124.74000000000004 Q 13.811277204640106 125.07750000000003 14.391346224760985 125.38640625000004 Q 14.969928777307059 125.69531250000003 15.528970698782825 125.97562500000002 Q 16.086739991143773 126.2559375 16.62544176409862 126.50765625 Q 17.16308284562684 126.75937499999999 17.682105727219998 126.9825 Q 18.200271660213712 127.20562500000001 18.700236423124842 127.40015625000001 Q 19.199534433379533 127.59468750000002 19.68100881098081 127.76062500000002 Q 20.16198859783629 127.92656250000002 20.62547678316598 128.06390625000003 Q 21.088620807157618 128.20125000000002 21.53455482855068 128.31000000000003 L 21.53455482855068 128.31000000000003 L 21.01980754361526 126.64875000000004 L 20.458502857090448 124.98750000000003 L 19.85541843025521 123.32625000000002 L 19.215687541315155 121.66500000000002 L 18.544755392440194 120.00375000000003 L 17.84833276179671 118.34250000000002 L 17.132347395074532 116.68125 L 16.40289355024979 115.02000000000001 L 15.666180125043951 113.35875000000001 L 14.928477808602873 111.6975 L 14.196065707225271 110.03625 L 13.475177898446947 108.375 L 12.771950368396594 106.71375 L 12.092368784076953 105.0525 L 11.442217545118488 103.39124999999999 L 10.827030548661945 101.72999999999999 Q 10.461942881360804 101.488125 10.099255652385988 101.24027343750001 Q 9.737496856606512 100.992421875 9.378261089460288 100.73859375 Q 9.02003374828894 100.48476562500001 8.66445911871256 100.22496093750001 Q 8.309977307190803 99.96515625 7.958285093424891 99.699375 Q 7.6077745116404305 99.43359375 7.260197701866876 99.1618359375 Q 6.913895759905985 98.89007812499999 6.570679108789805 98.61234375000001 Q 6.228834958613561 98.33460937500001 5.890234987916854 98.0508984375 Q 5.553109497074577 97.76718749999999 5.2193944351759685 97.47749999999999 Q 4.887260097140335 97.1878125 4.558709752175885 96.89214843750001 Q 4.231850527978644 96.59648437499999 3.9087560892295095 96.29484375 Q 3.587467174999487 95.99320312500001 3.270130937089755 95.68558593750001 Q 2.9547184520479366 95.37796875000001 2.6434534564881558 95.064375 Q 2.3342340459441457 94.75078124999999 2.0293636345657626 94.4312109375 Q 1.7266639824884287 94.11164062499998 1.428521257366084 93.78609374999999 Q 1.1326775031741105 93.46054687499999 0.8416046877309222 93.12902343749998 Q 0.5529617420703143 92.79749999999999 0.26930943821064446 92.45999999999998 Q -0.290284738240997 91.78499999999997 -0.8236643106012105 91.05749999999998 Q -1.3447535563431856 90.32999999999998 -1.8357235391242366 89.54999999999998 Q -2.3121885998910727 88.76999999999998 -2.7542941539796617 87.93749999999999 Q -3.17954573621849 87.10499999999999 -3.565918210174157 86.21999999999998 Q -3.9330138933395844 85.33499999999998 -4.256514898509883 84.39749999999998 Q -4.558325481810158 83.45999999999998 -4.811743988288688 82.46999999999998 Q -5.041175016960705 81.47999999999999 -5.217482402063524 80.43749999999999 Q -5.367754865583778 79.39499999999998 -5.460420620467589 78.29999999999998 Q -5.5266621603830055 77.20499999999998 -5.518000299180023 76.03124999999997 Q -5.479309664394918 74.85749999999999 -5.359765655707189 73.60499999999999 Q -5.20878166545834 72.35249999999999 -4.972214412423682 71.02125 Q -4.7041482866195 69.69 -4.34756972105339 68.27999999999999 Q -3.9612304710800768 66.86999999999998 -3.485877782790532 65.38124999999998 Q -3.2382853272208187 64.63687499999997 -2.968826559741735 63.87281249999998 Q -2.6936639027476907 63.108749999999986 -2.3971717308735787 62.32499999999999 Q -2.0958962182348593 61.541249999999984 -1.7740646624390677 60.73781249999999 Q -1.4485577257803712 59.934374999999996 -1.1035195472882695 59.11125 Q -0.7561081479940214 58.288125 -0.39045335715693075 57.4453125 Q -0.023925402282824235 56.6025 0.3592870061059052 55.739999999999995 L 0.3592870061059052 55.739999999999995 Q 0.9041386659940849 54.50999999999999 1.4446709899722343 53.3185546875 Q 1.9789494785457977 52.12710937499999 2.5051507189913025 50.97421874999999 Q 3.021353393523665 49.821328124999994 3.526808694384608 48.70699218749999 Q 4.0193294996305635 47.59265624999999 4.499446553225573 46.516875 Q 4.964454121019621 45.44109374999999 5.41631953752432 44.40386718749999 Q 5.851595811185315 43.36664062499999 6.273799753815468 42.36796874999999 Q 6.678553030994398 41.36929687499999 7.070995014583069 40.409179687499986 Q 7.445659487462482 39.44906249999999 7.809346330028805 38.52749999999999 Q 8.155378228289443 37.605937499999996 8.492223154573022 36.7229296875 Q 8.811901601103019 35.839921874999995 9.124531542859014 34.99546875 Q 9.42077031879037 34.151015625 9.712346626297208 33.345117187499994 Q 9.988521284309051 32.539218749999996 10.262577416045097 31.771874999999998 Q 10.522370626061605 31.00453125 10.782668953551646 30.275742187499997 Q 11.029935637764147 29.546953124999995 11.280344304972177 28.856718749999995 Q 11.518997026463836 28.166484375 11.763386837102367 27.514804687499996 Q 11.997301041636923 26.863124999999997 12.239461601265495 26.25 Q 12.471652947715063 25.634999999999998 12.707744044819622 25.052578124999997 Q 12.935593980556185 24.47015625 13.169283211220586 23.920312499999998 Q 13.395725438542136 23.370468749999997 13.629833159829985 22.853203125 Q 13.8576321698066 22.3359375 14.094798292582812 21.85125 Q 14.326529600384617 21.366562499999997 14.569198192659725 20.914453124999998 Q 14.80723608773932 20.46234375 15.057646799254606 20.042812499999997 Q 15.304158405567513 19.623281249999998 15.564343535191991 19.236328124999996 Q 15.821288025139154 18.849375 16.09307411487125 18.494999999999997 Q 16.36220599285878 18.140624999999996 16.647218913661153 17.818828124999996 Q 16.930094373119648 17.497031249999996 17.229766961236024 17.207812499999996 Q 17.52775241600987 16.91859375 17.843333817927654 16.661953124999997 Q 18.15761580982874 16.405312499999994 18.490181795031663 16.18125 Q 18.821777579965236 15.957187499999998 19.172241179595716 15.765703124999996 Q 19.52200939202386 15.574218749999995 19.891131316105202 15.415312499999995 Q 20.259782203703608 15.256406249999996 20.64818057811858 15.130078124999997 Q 21.036285384130736 15.003749999999997 21.444444430342426 14.909999999999997 L 21.444444430342426 14.909999999999997 L 20.85383592715153 13.046249999999997 L 20.20641643527631 11.182499999999997 L 19.509120660452787 9.318749999999998 L 18.769417548349193 7.454999999999998 L 17.995230282432868 5.591249999999999 L 17.19485141635887 3.727499999999999 L 16.376854049922933 1.8637499999999996 L 15.55 0 L 16.378750000000004 0 L 17.207500000000003 0 L 18.036250000000003 0 L 18.865000000000002 0 L 19.69375 0 L 20.5225 0 L 21.35125 0 L 22.18 0 L 22.995248990714753 1.8375000000000021 L 23.802009641299243 3.6750000000000043 L 24.591881991883696 5.512500000000006 L 25.356641922907563 7.3500000000000085 L 26.088326784325936 9.18750000000001 L 26.779318302405727 11.025000000000013 L 27.422421900889383 12.862500000000015 L 28.010941610637296 14.700000000000017 Q 28.297284104998944 14.739375000000017 28.583103006086194 14.787304687500015 Q 28.868880376239424 14.835234375000013 29.15410429049382 14.891718750000013 Q 29.439270215295345 14.948203125000013 29.72384721154325 15.013242187500012 Q 30.008346847412955 15.078281250000009 30.292216337834873 15.151875000000008 Q 30.575986089822937 15.225468750000008 30.85907858334376 15.307617187500005 Q 31.142045847470204 15.389765625000006 31.424282675578958 15.480468750000005 Q 31.70636555454051 15.571171875000003 31.987658571810822 15.670429687500004 Q 32.26876556646365 15.769687500000003 32.549016828368224 15.877500000000001 Q 33.10885351600473 16.093125 33.66482157638554 16.342968749999997 Q 34.21957475746831 16.592812499999994 34.769767001994396 16.876874999999995 Q 35.31835313489411 17.160937499999996 35.86156679447008 17.479218749999994 Q 36.40271570646554 17.797499999999992 36.93755387470168 18.14999999999999 Q 37.46893556705463 18.498749999999994 37.98961981733544 18.861562499999994 Q 38.50748832787445 19.224375 39.01415742336218 19.60125 Q 39.517718895301286 19.978125 40.00954910438352 20.3690625 Q 40.497963933086865 20.759999999999998 40.97408643320104 21.165 Q 41.44647089726079 21.57 41.90597381370786 21.989062499999996 Q 42.36140245408234 22.408124999999995 42.803333692447026 22.841249999999995 Q 43.24084251915553 23.274374999999992 43.66421347082901 23.721562499999987 Q 44.082804076049854 24.168749999999985 44.48659427494196 24.62999999999998 L 44.48659427494196 24.62999999999998 L 44.41471717078688 26.439374999999984 L 44.26249191932193 28.248749999999983 L 44.02949928948909 30.058124999999983 L 43.71613547223 31.867499999999986 L 43.323608080569045 33.67687499999999 L 42.85392395763372 35.486249999999984 L 42.309868915701884 37.29562499999999 L 41.694979610829094 39.10499999999999 L 41.01350783700782 40.91437499999999 L 40.27037760034228 42.723749999999995 L 39.47113540661524 44.53312499999999 L 38.621894264140046 46.342499999999994 L 37.72927196724139 48.15187499999999 L 36.80032428345047 49.96124999999999 L 35.84247371895242 51.770625 L 34.86343458146482 53.58 Q 34.72124239471667 53.144999999999996 34.56433474030104 52.7325 Q 34.40654304876822 52.32000000000001 34.23403992390823 51.93000000000001 Q 34.06058372800822 51.54 33.872478060011886 51.1725 Q 33.68339116717984 50.80500000000001 33.47976443034377 50.46 Q 33.27516246615243 50.114999999999995 33.05616829483589 49.792500000000004 Q 32.83623272175147 49.470000000000006 32.602081583669964 49.17 Q 32.36704481842723 48.87 32.117989818798584 48.592499999999994 Q 31.86812150374675 48.31499999999999 31.604445358642455 48.05999999999999 Q 31.34128981274506 47.80499999999999 31.070720804438253 47.56828124999999 Q 30.799489796349352 47.3315625 30.52101765937073 47.113125 Q 30.24195584619563 46.894687499999996 29.9558253619131 46.69453125 Q 29.66917999212494 46.494375 29.375635105350476 46.3125 Q 29.08165038677979 46.130625 28.780928932553984 45.96703125 Q 28.479841001537025 45.8034375 28.172170019129453 45.658125 Q 27.86420248658052 45.512812499999995 27.549794095442504 45.385781249999994 Q 27.235154143916624 45.25874999999999 26.91420195532588 45.14999999999999 L 26.91420195532588 45.14999999999999 L 26.3104358269712 46.78312499999999 L 25.67269217019179 48.41624999999999 L 25.006217151284304 50.04937499999999 L 24.316493284648644 51.6825 L 23.60919433287684 53.315625000000004 L 22.89013863360816 54.948750000000004 L 22.165241237090157 56.581875 L 21.440465248168657 58.215 L 20.721772772974045 59.84812500000001 L 20.015075873823125 61.48125 L 19.32618793578818 63.114375 L 18.660775844998554 64.7475 L 18.024313372062505 66.38062500000001 L 17.422036144083663 68.01375000000002 L 16.858898575678417 69.64687500000001 L 16.339533113285597 71.28000000000002 Q 16.56926654169162 71.56312500000001 16.793948780903794 71.84835937500002 Q 17.020140179611708 72.13359375000002 17.24136704395223 72.42093750000001 Q 17.464167488907684 72.70828125 17.682090980042947 72.99773437500001 Q 17.90165255683243 73.2871875 18.11642555449734 73.57875 Q 18.332901102446236 73.87031250000001 18.54467710109982 74.163984375 Q 18.758219944075368 74.45765624999999 18.967152776250604 74.75343749999999 Q 19.17791644019643 75.04921875 19.38415998659195 75.34710937499999 Q 19.592297903861212 75.64499999999998 19.796005790263507 75.945 Q 20.00167099085968 76.245 20.202996272028365 76.54710937499999 Q 20.406341061907476 76.84921874999999 20.605435892601474 77.15343749999998 Q 20.806611519236025 77.45765624999999 21.003626812606594 77.76398437499998 Q 21.202783118060346 78.07031249999997 21.397868191686698 78.37874999999998 Q 21.59515325350022 78.6871875 21.788455463395398 78.997734375 Q 21.984015223635268 79.30828125 22.175679586604154 79.62093749999998 Q 22.565960470905495 80.24624999999997 22.94117520052675 80.87999999999998 Q 23.324514439916722 81.51749999999998 23.689285817789568 82.19812499999998 Q 24.065372724357896 82.87874999999997 24.425883378175 83.60249999999998 Q 24.79929625355191 84.32624999999999 25.160275805635955 85.09312499999999 Q 25.5357724467449 85.85999999999999 25.902079144922812 86.66999999999999 Q 26.284497913645048 87.47999999999999 26.661004266764582 88.333125 Q 27.055137625247866 89.18625 27.4465872892147 90.0825 Q 27.857026041467314 90.97875 28.26786071590964 91.918125 Q 28.698808256223707 92.8575 29.132964610227994 93.84 Q 29.58765104405082 94.82625 30.052923518877876 95.8884375 Q 30.54094700455066 96.95062499999999 31.044145063667287 98.08875 Q 31.57101887577798 99.226875 32.116643706583424 100.44093749999999 Q 32.68579222852317 101.655 33.27580629369573 102.945 Q 33.88777653307239 104.23499999999999 34.52077871619065 105.60093749999999 Q 35.1724082301879 106.966875 35.84279327699124 108.40875 Q 36.5263917402531 109.85062499999998 37.22356306914042 111.36843749999998 Q 37.57449179062904 112.12734375 37.927318642452505 112.90523437499998 Q 38.280304921940356 113.68312499999999 38.63391339434015 114.47999999999999 L 38.63391339434015 114.47999999999999 Q 39.11688469247374 115.573125 39.57190190544822 116.645625 Q 40.02135826744171 117.71812500000001 40.439970184509974 118.77000000000001 Q 40.85011662538158 119.821875 41.22704696637897 120.853125 Q 41.59301289687141 121.884375 41.9239055515367 122.89500000000001 Q 42.24174251713579 123.90562500000001 42.52314830925605 124.89562500000002 Q 42.7898073289218 125.88562500000002 43.01915223975788 126.85500000000002 Q 43.23244414392258 127.824375 43.40798236586076 128.77312500000002 Q 43.56652448221886 129.721875 43.68727957317865 130.65 Q 43.79043196687762 131.578125 43.85612919566559 132.485625 Q 43.903923458031976 133.393125 43.91491619020416 134.28000000000003 Q 43.907979506106855 135.166875 43.865172197065114 136.033125 Q 43.80464912267174 136.89937500000002 43.70941917582912 137.745 Q 43.59689324105528 138.59062500000002 43.451013667999405 139.415625 Q 43.288430594404524 140.24062500000002 43.09399509289448 141.04500000000002 Q 42.88358909894552 141.849375 42.64294085293247 142.633125 Q 42.38716521307722 143.416875 42.10283042428064 144.18 Q 41.80491816274954 144.943125 41.47969364986955 145.6686328125 Q 41.14184282908336 146.39414062499998 40.77954424132889 147.08203125 Q 40.406146243672964 147.76992187500002 40.01100559275186 148.4201953125 Q 39.606215431948826 149.07046875 39.18220252700834 149.683125 Q 38.74989315112083 150.29578125 38.300679318133774 150.87082031250003 Q 37.844412184423334 151.445859375 37.37334886476127 151.98328125 Q 36.896358355021626 152.52070312499998 36.40646816859457 153.0205078125 Q 35.91165744926001 153.5203125 35.40563538788774 153.98250000000002 Q 34.895581432525724 154.44468750000001 34.37580399373292 154.86925781250002 Q 33.85276965260989 155.293828125 33.321309910930246 155.68078125 Q 32.78726111297452 156.067734375 32.2459079369 156.41707031250002 Q 31.702534327024004 156.76640625 31.1528141703399 157.078125 Q 30.60155170669074 157.38984375 30.044751621852456 157.6639453125 Q 29.486805873326986 157.938046875 28.923996603563623 158.17453125000003 Q 28.360365690918066 158.411015625 27.79242389135252 158.60988281250002 Q 27.508241730527967 158.70931640625003 27.223067460661532 158.79934570312503 Q 26.937779761236698 158.88937500000003 26.65154901399339 158.97000000000003 L 26.65154901399339 158.97000000000003 L 25.802992524745186 161.18625000000003 L 24.899581668798152 163.40250000000003 L 23.954994650022 165.61875000000003 L 22.983533105075644 167.83500000000004 L 21.999905567707454 170.05125 L 21.01900477237967 172.2675 L 20.05568216897928 174.48375000000004 L 19.1245230626029 176.70000000000002 L 18.2957730626029 176.70000000000002 L 17.4670230626029 176.70000000000002 L 16.638273062602902 176.70000000000002 L 15.809523062602903 176.70000000000002 L 14.980773062602903 176.70000000000002 L 14.152023062602904 176.70000000000002 L 13.323273062602905 176.70000000000002 L 12.494523062602902 176.70000000000002 L 12.494523062602902 176.70000000000002 Z M 11.74922576670751 65.45999999999998 L 12.76559673990472 62.947499999999984 L 13.836129628950198 60.43499999999999 L 14.940000542031921 57.92249999999999 L 16.05573709964274 55.41 L 17.1616361130211 52.8975 L 18.236185752268753 50.385000000000005 L 19.258483992176274 47.87250000000001 L 20.20864519619265 45.360000000000014 Q 19.664737507468924 45.49500000000001 19.144198890882397 45.73453125000002 Q 18.62285945485776 45.97406250000001 18.123528358234317 46.31812500000001 Q 17.62262402757466 46.662187500000016 17.141919423577352 47.11078125000001 Q 16.658727415823076 47.559375 16.19364352555427 48.112500000000004 Q 15.725147606397387 48.665625000000006 15.272610871462605 49.32328125 Q 14.815902015891604 49.980937499999996 14.373238100623933 50.743125 Q 13.926028303564804 51.50531249999999 13.491545507617865 52.37203124999999 Q 13.05279821766894 53.23874999999999 12.626486029744282 54.20999999999998 L 12.626486029744282 54.20999999999998 Q 12.172226022861443 55.23749999999998 11.81731152392621 56.16374999999998 Q 11.461944160849946 57.08999999999998 11.208324224007718 57.91499999999999 Q 10.95597850451249 58.739999999999995 10.806313826527193 59.46375 Q 10.658734320393252 60.187499999999986 10.613716256650147 60.80999999999999 Q 10.57094201764463 61.43249999999999 10.61822450682539 62.03437499999998 Q 10.668190692857491 62.63624999999999 10.808417099544151 63.21749999999999 Q 10.951663660626101 63.79874999999998 11.185244737491121 64.35937499999997 Q 11.303245050355354 64.63968749999998 11.443824274592028 64.91484374999997 Q 11.585241411999762 65.18999999999998 11.74922576670751 65.45999999999998 L 11.74922576670751 65.45999999999998 L 11.74922576670751 65.45999999999998 Z M 19.400387478201417 106.70999999999998 L 20.528152859991472 109.35374999999999 L 21.691488314107133 111.99749999999999 L 22.865343141098307 114.64124999999999 L 24.024440122459417 117.285 L 25.143819827949716 119.92875000000001 L 26.199378079815865 122.5725 L 27.168385000423697 125.21625 L 28.02997446638006 127.86000000000001 Q 28.46919791522975 127.62000000000002 28.813590343516502 127.28484375000002 Q 29.15601613893255 126.94968750000001 29.401456634266076 126.519375 Q 29.643795295285017 126.08906249999998 29.786574332757525 125.56359374999998 Q 29.925000452532323 125.03812499999998 29.96103180182728 124.41749999999999 Q 29.991469113869876 123.796875 29.916625918924886 123.08109375000001 Q 29.83512126624085 122.3653125 29.645667116708104 121.554375 Q 29.448862840785253 120.74343749999998 29.141985091796624 119.83734374999999 Q 28.827694395116506 118.93124999999999 28.402140065166854 117.93 L 28.402140065166854 117.93 Q 27.958616067869123 116.9025 27.501142045946203 115.97812499999999 Q 27.040306553272554 115.05375000000001 26.569183184941608 114.2325 Q 26.09701047045952 113.41125 25.6166159743735 112.693125 Q 25.13650735980514 111.97500000000001 24.649049188236923 111.36000000000001 Q 24.15668608830404 110.73750000000001 23.580865662898457 110.135625 Q 23.00651019769828 109.53375 22.349087347635994 108.95249999999999 Q 21.69356830572006 108.37124999999997 20.955236883358324 107.81062499999999 Q 20.586899166602734 107.53031249999998 20.197886370471053 107.25515624999998 Q 19.809469710875057 106.97999999999999 19.400387478201417 106.70999999999998 L 19.400387478201417 106.70999999999998 L 19.400387478201417 106.70999999999998 Z" fill="black" stroke="black" />
				</svg>