<svg
					xmlns="http://www.w3.org/2000/svg" xmlns:xlink="http://www.w3.org/1999/xlink"
					style="
						overflow: visible;
						height: 100;
					"
					viewBox="0 0 27.86727976538935 32.85000000000001"
				>
					<path d="M 27.612910869039236 32.85000000000001 L 26.991973369039236 32.85000000000001 L 26.371035869039236 32.85000000000001 L 25.750098369039236 32.85000000000001 L 25.129160869039236 32.85000000000001 L 24.508223369039236 32.85000000000001 L 23.887285869039236 32.85000000000001 L 23.266348369039235 32.85000000000001 L 22.64541086903924 32.85000000000001 L 22.02447336903924 32.85000000000001 L 21.40353586903924 32.85000000000001 L 20.78259836903924 32.85000000000001 L 20.16166086903924 32.85000000000001 L 19.540723369039238 32.85000000000001 L 18.919785869039238 32.85000000000001 L 18.298848369039238 32.85000000000001 L 17.677910869039238 32.85000000000001 L 17.056973369039238 32.85000000000001 L 16.436035869039237 32.85000000000001 L 15.815098369039237 32.85000000000001 L 15.194160869039239 32.85000000000001 L 14.57322336903924 32.85000000000001 L 13.95228586903924 32.85000000000001 L 13.33134836903924 32.85000000000001 L 12.71041086903924 32.85000000000001 L 12.08947336903924 32.85000000000001 L 11.46853586903924 32.85000000000001 L 10.84759836903924 32.85000000000001 L 10.22666086903924 32.85000000000001 L 9.60572336903924 32.85000000000001 L 8.98478586903924 32.85000000000001 L 8.36384836903924 32.85000000000001 L 7.74291086903924 32.85000000000001 L 7.921570292772145 30.79687500000001 L 7.997279765389349 28.743750000000006 L 7.969055354890393 26.690625000000004 L 7.837263870073753 24.637500000000006 L 7.603618093433036 22.584375000000005 L 7.271154521571131 20.531250000000007 L 6.844193902421334 18.478125000000006 L 6.328285082139803 16.425000000000004 L 5.730132891443827 14.371875000000003 L 5.057511008596173 12.318750000000003 L 4.319160931481636 10.265625000000004 L 3.524678371750287 8.212500000000002 L 2.6843885474666878 6.159375000000002 L 1.8092119949810548 4.106250000000001 L 0.9105226439520333 2.0531250000000005 L 0 0 L 0.6209374999999999 0 L 1.2418749999999998 0 L 1.8628124999999998 0 L 2.4837499999999997 0 L 3.1046875 0 L 3.7256249999999995 0 L 4.346562499999999 0 L 4.967499999999999 0 L 5.5884374999999995 0 L 6.209375 0 L 6.8303125 0 L 7.451249999999999 0 L 8.072187499999998 0 L 8.693124999999998 0 L 9.314062499999999 0 L 9.934999999999999 0 L 10.555937499999999 0 L 11.176874999999999 0 L 11.7978125 0 L 12.41875 0 L 13.0396875 0 L 13.660625 0 L 14.2815625 0 L 14.902499999999998 0 L 15.523437499999996 0 L 16.144374999999997 0 L 16.765312499999997 0 L 17.386249999999997 0 L 18.007187499999997 0 L 18.628124999999997 0 L 19.249062499999997 0 L 19.869999999999997 0 L 20.780522643952033 2.0531250000000005 L 21.679211994981053 4.106250000000001 L 22.554388547466687 6.159375000000002 L 23.394678371750285 8.212500000000002 L 24.189160931481634 10.265625000000004 L 24.92751100859617 12.318750000000003 L 25.600132891443824 14.371875000000003 L 26.1982850821398 16.425000000000004 L 26.714193902421332 18.478125000000006 L 27.141154521571128 20.531250000000007 L 27.473618093433032 22.584375000000005 L 27.70726387007375 24.637500000000006 L 27.83905535489039 26.690625000000004 L 27.86727976538935 28.743750000000006 L 27.791570292772143 30.79687500000001 L 27.612910869039236 32.85000000000001 L 27.612910869039236 32.85000000000001 Z" fill="black" stroke="black" />
				</svg>