<svg
					xmlns="http://www.w3.org/2000/svg" xmlns:xlink="http://www.w3.org/1999/xlink"
					style="
						overflow: visible;
						height: 100;
					"
					viewBox="-7.584635989579874 0 35.433256259297664 192.68999999999997"
				>
					<path d="M 15.137884099552107 97.20000000000002 L 15.137884099552107 97.20000000000002 Q 15.453478392034754 98.28000000000002 15.786401041104156 99.35964843750003 Q 16.13921250518512 100.43929687500003 16.506833765889766 101.51859375000002 Q 16.891701896234963 102.597890625 17.28859998298494 103.6768359375 Q 17.699859740489988 104.75578125 18.12014882160151 105.83437500000001 Q 18.551713063952317 106.91296875000002 18.989128740846787 107.99121093750003 Q 19.43457646551686 109.06945312500002 19.88256642926941 110.14734375000002 Q 20.33523554326076 111.22523437500001 20.787054090895534 112.30277343750001 Q 21.240137362093648 113.38031249999999 21.688942405298267 114.45749999999998 Q 22.135585210432104 115.53468749999999 22.574536379459055 116.61152343749998 Q 23.00793484379684 117.68835937499998 23.430291279554936 118.76484374999998 Q 23.843789403799665 119.84132812499999 24.24300584154147 120.91746093749998 Q 24.63019023180046 121.99359374999999 25.000010010123063 123.06937499999998 Q 25.354800866910704 124.14515624999997 25.68934454546318 125.22058593749998 Q 26.006081626774243 126.29601562499997 26.29992996429006 127.37109374999996 Q 26.573452314904834 128.44617187499995 26.821722444875448 129.52089843749997 Q 27.047440778026644 130.59562499999996 27.245854521184487 131.66999999999996 Q 27.419430915452924 132.74249999999995 27.56190256205413 133.80867187499996 Q 27.67875573674856 134.87484374999997 27.76375599600444 135.93468749999997 Q 27.822284512406096 136.99453124999997 27.848620269717788 138.04804687499995 Q 27.84802474187447 139.10156249999994 27.81529374426659 140.14874999999995 Q 27.755556247414233 141.19593749999996 27.66412108534201 142.23679687499998 Q 27.54597393182181 143.27765624999995 27.396925966980774 144.31218749999994 Q 27.22181096658882 145.34671874999995 27.016925362592886 146.37492187499996 Q 26.786944762309552 147.403125 26.52862783964674 148.42499999999995 Q 26.246488189641223 149.44687499999995 25.93771836543866 150.46242187499996 Q 25.606668585377513 151.47796874999997 25.250932173633988 152.48718749999998 Q 24.8746970972312 153.49640624999995 24.475920238042196 154.49929687499997 Q 24.058630896340585 155.50218749999996 23.62110885523033 156.49874999999997 Q 23.167230722388787 157.49531249999998 22.695555755345563 158.48554687499998 Q 22.20981612696513 159.47578124999998 21.708805045446617 160.45968749999997 Q 21.19612065104734 161.44359374999996 20.670743146451542 162.42117187499997 Q 20.136149017000392 163.39874999999995 19.591457718275265 164.36999999999998 Q 19.039228612965903 165.343125 18.480378082957152 166.30523437499997 Q 17.91731089671553 167.26734374999998 17.350215010583394 168.21843749999996 Q 16.78134999815413 169.16953124999998 16.210889695346307 170.10960937499996 Q 15.640991219730362 171.04968749999998 15.071748427503188 171.97874999999996 Q 14.505259338468484 172.90781249999998 13.941476013954658 173.82585937499996 Q 13.382480745422825 174.74390624999998 12.828026501834955 175.65093749999997 Q 12.280222654217468 176.55796874999996 11.73857067079538 177.45398437499998 Q 11.205248718292657 178.34999999999997 10.6794595189916 179.23499999999996 Q 10.163490177324569 180.11999999999998 9.656202769857693 180.99398437499997 Q 9.160031476329738 181.86796875 8.67346127027804 182.73093749999998 Q 8.199109164540793 183.59390624999997 7.735052033733984 184.44585937499997 Q 7.284122782919208 185.29781249999996 6.843964601810558 186.13874999999996 Q 6.417656386317116 186.97968749999995 6.002387351059402 187.80960937499998 Q 5.601509315607664 188.63953124999998 5.211742356282073 189.45843749999997 Q 4.836734833111624 190.27734374999994 4.472727432282821 191.08523437499997 Q 4.123685257765407 191.89312499999997 3.7853640104201274 192.68999999999997 L 3.7853640104201274 192.68999999999997 L 3.074739010420129 192.68999999999997 L 2.3641140104201286 192.68999999999997 L 1.6534890104201283 192.68999999999997 L 0.942864010420128 192.68999999999997 L 0.23223901042012773 192.68999999999997 L -0.47838598957987255 192.68999999999997 L -1.1890109895798728 192.68999999999997 L -1.8996359895798731 192.68999999999997 L -2.6102609895798734 192.68999999999997 L -3.3208859895798737 192.68999999999997 L -4.031510989579873 192.68999999999997 L -4.742135989579873 192.68999999999997 L -5.452760989579874 192.68999999999997 L -6.163385989579874 192.68999999999997 L -6.874010989579873 192.68999999999997 L -7.584635989579874 192.68999999999997 Q -7.2690727344474775 191.86499999999998 -6.94072313749902 191.02957031249997 Q -6.596390680576505 190.194140625 -6.2390720619165405 189.34828124999996 Q -5.866055887171979 188.50242187499998 -5.4800411676670615 187.64613281249996 Q -5.078794865986973 186.78984375 -4.664739191286869 185.92312499999997 Q -4.236107776519196 185.05640624999995 -3.795070198946108 184.17925781249997 Q -3.3403099222187187 183.30210937499996 -2.8737712101450867 182.41453124999998 Q -2.3945651769498024 181.52695312499998 -1.9044410491975015 180.62894531249998 Q -1.4029099376305325 179.73093749999998 -0.8915590208967452 178.82249999999996 Q -0.37026620653367237 177.91406249999994 0.15950797158003205 176.99519531249996 Q 0.697557556743075 176.07632812499997 1.2425111962129174 175.14703124999997 Q 1.7938791049185947 174.21773437499996 2.3503399928463495 173.27800781249996 Q 2.9111697817283657 172.33828124999997 3.4750569263727056 171.38812499999997 Q 4.0410976556359905 170.43796874999998 4.607949152554761 169.47738281249997 Q 5.174587273349786 168.51679687499998 5.739596755076714 167.54578124999998 Q 6.301896675773747 166.57476562499997 6.859958569459421 165.59332031249997 Q 7.4127120553163 164.61187499999997 7.95847572506155 163.61999999999998 Q 8.496885128639587 162.62812499999998 9.023686595261537 161.63156249999997 Q 9.539929655316318 160.635 10.04191774313388 159.63374999999996 Q 10.5308397083302 158.63249999999996 11.002925568647441 157.62656249999998 Q 11.459544016168786 156.62062499999996 11.896847409362833 155.60999999999996 Q 12.316423552519051 154.59937499999998 12.714344244133613 153.58406249999996 Q 13.0924538581328 152.56874999999997 13.446742115542094 151.54874999999998 Q 13.779345046131105 150.52875 14.086170177322625 149.50406249999997 Q 14.369677358627627 148.47937499999998 14.625693203279825 147.45 Q 14.857030087178963 146.42062500000003 15.059436353977697 145.38656250000003 Q 15.236101645140593 144.35250000000002 15.382699989539592 143.31375 Q 15.502818589140968 142.27499999999998 15.59206234370305 141.2315625 Q 15.654431431832165 140.188125 15.685467937849982 139.14000000000001 Q 15.689595170633371 138.09187500000002 15.662299715631637 137.0390625 Q 15.608432578636863 135.98625 15.52343302002889 134.92875000000004 Q 15.412578464894263 133.87125 15.271269715613899 132.8090625 Q 15.105203311996721 131.74687500000002 14.909750979118687 130.68 Q 14.691639938558165 129.613125 14.448056361842644 128.5480078125 Q 14.18328030235378 127.48289062500001 13.895336406556064 126.41953124999999 Q 13.588569799336243 125.356171875 13.26119316021225 124.29457031250001 Q 12.917605877836333 123.23296875000001 12.556180898129554 122.173125 Q 12.1813605415965 121.11328125 11.791648350547074 120.05519531250002 Q 11.391517897708303 118.99710937500002 10.979572188739446 117.94078125000001 Q 10.560304197732028 116.884453125 10.132384250344968 115.82988281249999 Q 9.70031287388227 114.7753125 9.262795018859885 113.7225 Q 8.824327089265985 112.6696875 8.383615871364407 111.61863281249998 Q 7.945142302517875 110.56757812499998 7.507582572472638 109.51828125 Q 7.075391294026921 108.468984375 6.647182422709062 107.4214453125 Q 6.227374014981489 106.37390624999998 5.814487367910539 105.32812499999997 Q 5.41289450378112 104.28234374999998 5.020995245128854 103.23832031249998 Q 4.643106969442046 102.19429687499996 4.27748118250334 101.15203124999995 Q 3.9283729712572706 100.10976562499997 3.5938609886220254 99.06925781249996 Q 3.278131431221654 98.02874999999995 2.979068164173335 96.98999999999995 L 2.979068164173335 96.98999999999995 Q 2.7619546929523873 96.18656249999995 2.5556538728264737 95.38335937499996 Q 2.362616419098459 94.58015624999996 2.181162768433704 93.77718749999995 Q 2.013697267560606 92.97421874999995 1.8584767018904067 92.17148437499995 Q 1.7178568130854064 91.36874999999995 1.590027940687678 90.56624999999995 Q 1.477295377628212 89.76374999999996 1.3777807575650831 88.96148437499996 Q 1.293737487132633 88.15921874999995 1.2232167850460174 87.35718749999995 Q 1.1684191501704344 86.55515624999995 1.1273242400980203 85.75335937499997 Q 1.102079047193624 84.95156249999997 1.0905910920389639 84.14999999999996 Q 1.0949536877752735 83.34843749999996 1.1130022152438226 82.54710937499996 Q 1.1467765615217065 81.74578124999996 1.19404053644873 80.94468749999996 Q 1.2567812765797965 80.14359374999997 1.332692154752083 79.34273437499998 Q 1.4237086480908907 78.54187499999998 1.5274553810274654 77.74124999999997 Q 1.6458176678070382 76.94062499999995 1.776353612637421 76.14023437499998 Q 1.9209002556298316 75.33984374999997 2.0769519293117664 74.53968749999997 Q 2.2462996642955124 73.73953124999997 2.426377267063053 72.93960937499997 Q 2.6189323800405617 72.13968749999998 2.821341999278985 71.33999999999997 Q 3.035313335059217 70.54031249999997 3.258170727870217 69.74085937499997 Q 3.4915842221144677 68.94140624999997 3.732830062762062 68.14218749999998 Q 3.9835446779809605 67.34296874999997 4.240961145286134 66.54398437499998 Q 4.50668608065896 65.74499999999998 4.777914650323129 64.94624999999998 Q 5.0562276856664905 64.14749999999998 5.338787983523753 63.348984374999986 Q 5.6271548093348125 62.55046874999998 5.918464373726918 61.752187499999984 Q 6.214258752027212 60.95390624999999 6.511653546918222 60.15585937499999 Q 6.812178141678926 59.35781249999999 7.112933656824649 58.55999999999999 Q 7.4154413681027 57.76218749999999 7.71679413859832 56.964609374999995 Q 8.018509771186041 56.167031249999994 8.317679146059199 55.36968749999999 Q 8.6158212414668 54.57234374999999 8.91003122967628 53.775234375 Q 9.201833889636573 52.97812499999999 9.48833491188305 52.18124999999999 Q 9.771069442288123 51.38437499999999 10.047159818435379 50.587734375 Q 10.3181560246745 49.79109374999999 10.58120302929998 48.99468749999999 Q 10.837869997343045 48.198281249999994 11.08533031995719 47.40210937499999 Q 11.325176522185949 46.60593749999999 11.55461597394311 45.80999999999999 Q 11.77560254269616 45.01312499999999 11.982795957756458 44.22131835937499 Q 12.180198661622939 43.429511718749986 12.363004233765498 42.64277343749999 Q 12.535144604419168 41.85603515624999 12.692006060344188 41.07436523437499 Q 12.837439150378916 40.29269531249999 12.967034566802717 39.51609374999999 Q 13.084551327486915 38.73949218749999 13.185794344450297 37.96795898437499 Q 13.274421748619591 37.19642578124999 13.346460600106116 36.42996093749999 Q 13.405459644982237 35.663496093749984 13.447674148066024 34.902099609374986 Q 13.476535885424813 34.14070312499999 13.488532540469315 33.38437499999999 Q 13.48697229166465 32.628046874999995 13.468577654892641 31.87678710937499 Q 13.436527575865824 31.12552734374999 13.387780072018042 30.379335937499995 Q 13.325380238696198 29.633144531249997 13.246520585613482 28.892021484374993 Q 13.154108773156457 28.15089843749999 13.045569192096881 27.41484374999999 Q 12.923669522436432 26.67878906249999 12.786061907927003 25.94780273437499 Q 12.635372539112566 25.21681640624999 12.469475760297605 24.490898437499986 Q 12.290855788487114 23.76498046874999 12.097602290442364 23.044130859374988 Q 11.892058031127267 22.32328124999999 11.672519899635093 21.60749999999999 Q 11.441190709042335 20.891718749999992 11.196565356045731 20.18100585937499 Q 10.940709146793328 19.47029296874999 10.672304766341096 18.764648437499993 Q 10.393283363513486 18.05900390624999 10.102504299649928 17.35842773437499 Q 9.801768774677033 16.657851562499992 9.490100933586092 15.962343749999993 Q 9.169177043822685 15.266835937499994 8.838173472772093 14.576396484374994 Q 8.49864732464207 13.885957031249994 8.149914070043657 13.200585937499993 Q 7.793418113189082 12.515214843749995 7.4286004595443496 11.834912109374994 Q 7.056799908744838 11.154609374999993 6.67756908951776 10.479374999999994 Q 6.292148860354827 9.804140624999995 5.900189321034233 9.133974609374995 Q 5.502841554490096 8.463808593749995 5.099838837388505 7.798710937499995 Q 4.692251077900954 7.133613281249996 4.2798803876906035 6.473583984374996 Q 3.863724468734902 5.813554687499996 3.4436399674393683 5.158593749999997 Q 3.020561648563599 4.503632812499998 2.5943865187873016 3.8537402343749982 Q 2.1659959082663187 3.2038476562499985 1.7353132139260148 2.5590234374999987 Q 1.3031760018876308 1.914199218749999 0.8695203666701967 1.2744433593749993 Q 0.43514988474066096 0.6346874999999996 0 0 L 0 0 L 0.7156250000000001 0 L 1.4312500000000001 0 L 2.146875 0 L 2.8625000000000003 0 L 3.578125 0 L 4.29375 0 L 5.009375 0 L 5.7250000000000005 0 L 6.440625000000001 0 L 7.15625 0 L 7.871875 0 L 8.5875 0 L 9.303125000000001 0 L 10.01875 0 L 10.734375 0 L 11.450000000000001 0 Q 12.039253512301281 0.8099999999999987 12.626911448576685 1.6313671874999978 Q 13.213061983792159 2.4527343749999964 13.796020088087271 3.2854687499999953 Q 14.375870835188016 4.118203124999994 14.950802312962542 4.962304687499994 Q 15.520945830389161 5.806406249999993 16.084325379477846 6.661874999999992 Q 16.641170086401758 7.517343749999992 17.189303298369484 8.38417968749999 Q 17.729105382290513 9.25101562499999 18.25816362952893 10.12921874999999 Q 18.777064443973487 11.00742187499999 19.283125279036234 11.89699218749999 Q 19.777194210358658 12.786562499999988 20.256287202432635 13.68749999999999 Q 20.721569877409504 14.58843749999999 21.169727696896363 15.50074218749999 Q 21.602299283538883 16.41304687499999 22.015613720271602 17.33671874999999 Q 22.411636944055033 18.26039062499999 22.786319408908344 19.195429687499992 Q 23.142106766849295 20.13046874999999 23.474552682079178 21.07687499999999 Q 23.78663218966463 22.02328124999999 24.073488522367438 22.98105468749999 Q 24.33867217562556 23.938828124999993 24.57690721387943 24.907968749999995 Q 24.792361193758378 25.877109374999993 24.979335509445068 26.857617187499994 Q 25.142651001518537 27.838124999999994 25.27618839117747 28.83 Q 25.385380143975368 29.82375 25.46515926039063 30.8232421875 Q 25.52052525773255 31.822734375 25.546304925650244 32.82796875 Q 25.54793450095905 33.833203125 25.520123926144514 34.844179687499995 Q 25.468745563341884 35.85515624999999 25.388403689717705 36.871874999999996 Q 25.285400553767502 37.88859374999999 25.15424736058235 38.911054687499984 Q 25.001664211461808 39.933515624999984 24.822083047214335 40.96171874999999 Q 24.62262391787774 41.98992187499999 24.397654301638482 43.02386718749999 Q 24.154670426489375 44.05781249999999 23.88799086207091 45.09749999999998 Q 23.605458465281412 46.13718749999999 23.30135894507362 47.182617187499986 Q 22.983846637006717 48.22804687499999 22.647190659252566 49.279218749999984 Q 22.299816343102034 50.330390624999986 21.93599242758966 51.38730468749998 Q 21.564369785611504 52.444218749999976 21.179232646453716 53.50687499999998 Q 20.789407453881413 54.56953124999998 20.38920917209831 55.637929687499984 Q 19.98758587467521 56.70632812499997 19.57889760514837 57.78046874999997 Q 19.172156790446344 58.85460937499997 18.761781734550404 59.93449218749998 Q 18.35678932477649 61.01437499999997 17.95166789833258 62.099999999999966 Q 17.55459978076781 63.18749999999997 17.163910657968927 64.27617187499997 Q 16.78539880902592 65.36484374999998 16.416534025975224 66.45468749999998 Q 16.063001972234996 67.54453124999998 15.722207024868236 68.63554687499997 Q 15.399691946614782 69.72656249999997 15.092779105621808 70.81875 Q 14.80683993692931 71.91093749999999 14.539099220596322 73.004296875 Q 14.294730934978524 74.09765624999997 14.070847955292354 75.19218749999999 Q 13.872403383679748 76.28671874999999 13.696385368933953 77.38242187499999 Q 13.547505803129173 78.47812499999999 13.422616996293087 79.57499999999999 Q 13.32617271713097 80.671875 13.254880225579647 81.76992187500001 Q 13.212921962133873 82.86796875 13.196852992497186 83.96718750000001 Q 13.210575168493945 85.06640625000001 13.250486422182759 86.16679687500002 Q 13.32020288026343 87.2671875 13.415962712771222 88.36875 Q 13.541095428624791 89.4703125 13.691679191345543 90.57304687500002 Q 13.870760300485774 91.67578125000001 14.074259090124752 92.77968750000001 Q 14.30494635290924 93.88359375000002 14.558589193378534 94.98867187500002 Q 14.837694821624382 96.09375000000003 15.137884099552107 97.20000000000002 L 15.137884099552107 97.20000000000002 Z" fill="black" stroke="black" />
				</svg>