<svg
					xmlns="http://www.w3.org/2000/svg" xmlns:xlink="http://www.w3.org/1999/xlink"
					style="
						overflow: visible;
						height: 100;
					"
					viewBox="-6.476681964407298 0 29.221401075076706 156.81000000000003"
				>
					<path d="M 15.190000000000001 0 L 15.854133156971127 1.5595312500000005 L 16.513073060173262 3.119062500000001 L 17.161665415125142 4.678593750000001 L 17.7948335536521 6.238125000000002 L 18.40761651855996 7.797656250000003 L 18.995206280256262 9.357187500000002 L 19.552983806123486 10.916718750000003 L 20.076553712055162 12.476250000000004 L 20.561777236202545 14.035781250000003 L 21.00480328756586 15.595312500000006 L 21.402097336506678 17.154843750000005 L 21.750467930447577 18.714375000000004 L 22.047090635840824 20.273906250000003 L 22.2895292267958 21.833437500000006 L 22.475753961410117 23.39296875000001 L 22.604156808697127 24.952500000000008 L 22.67356351187894 26.512031250000007 L 22.683242397547236 28.071562500000006 L 22.632909864606454 29.631093750000005 L 22.522732511821793 31.19062500000001 L 22.35332588801136 32.75015625000002 L 22.125749874258464 34.30968750000001 L 21.841500732786198 35.869218750000016 L 21.502499882142878 37.42875000000001 L 21.111079482905865 38.988281250000014 L 20.66996494203835 40.547812500000006 L 20.18225446714984 42.10734375000001 L 19.651395824042147 43.66687500000001 L 19.08116047190369 45.22640625000002 L 18.475615270187262 46.78593750000002 L 17.839091969423578 48.345468750000016 L 17.176154714847574 49.905000000000015 L 16.4915658066221 51.464531250000014 L 15.790249973522487 53.024062500000014 L 15.07725742809739 54.58359375000001 L 14.357725980462469 56.14312500000001 L 13.636842494945604 57.70265625000001 L 12.91980397873217 59.26218750000001 L 12.211778594419535 60.82171875000001 L 11.517866888960889 62.38125000000002 L 10.84306352985513 63.94078125000003 L 10.192219835634123 65.50031250000004 L 9.570007381740087 67.05984375000003 L 8.980882954818249 68.61937500000002 L 8.429055118334315 70.17890625000003 L 7.91845264033819 71.73843750000003 L 7.452695020225909 73.29796875000002 L 7.035065335605071 74.85750000000002 L 6.668485612964024 76.41703125000002 L 6.355494906911642 77.97656250000003 L 6.098230252435105 79.53609375000002 L 5.898410633070042 81.09562500000001 L 5.757324085252215 82.65515625000002 L 5.675818035592703 84.21468750000003 L 5.6542929435653955 85.77421875000002 L 5.692699297298733 87.33375000000002 L 5.7905379850089815 88.89328125000003 L 5.946864039288579 90.45281250000004 L 6.160293726160274 92.01234375000004 L 6.429014925715642 93.57187500000003 L 6.75080072646347 95.13140625000003 L 7.123026131404448 96.69093750000003 L 7.542687750504902 98.25046875000004 L 8.00642633183848 99.81000000000003 L 7.28205133183848 99.81000000000003 L 6.55767633183848 99.81000000000003 L 5.83330133183848 99.81000000000003 L 5.10892633183848 99.81000000000003 L 4.3845513318384794 99.81000000000003 L 3.6601763318384792 99.81000000000003 L 2.935801331838481 99.81000000000003 L 2.2114263318384806 99.81000000000003 L 1.4870513318384804 99.81000000000003 L 0.7626763318384802 99.81000000000003 L 0.038301331838479946 99.81000000000003 L -0.6860736681615203 99.81000000000003 L -1.4104486681615205 99.81000000000003 L -2.1348236681615202 99.81000000000003 L -2.85919866816152 99.81000000000003 L -3.5835736681615202 99.81000000000003 L -4.1035622494950985 98.25046875000004 L -4.579473868595553 96.69093750000003 L -5.007949273536532 95.13140625000003 L -5.385985074284359 93.57187500000003 L -5.710956273839726 92.01234375000004 L -5.980635960711421 90.45281250000004 L -6.193212014991018 88.89328125000003 L -6.347300702701267 87.33375000000002 L -6.441957056434606 85.77421875000002 L -6.476681964407298 84.21468750000003 L -6.4514259147477855 82.65515625000002 L -6.366589366929958 81.09562500000001 L -6.223019747564893 79.53609375000002 L -6.0220050930883575 77.97656250000003 L -5.765264387035977 76.41703125000002 L -5.454934664394929 74.85750000000002 L -5.09355497977409 73.29796875000002 L -4.684047359661811 71.73843750000003 L -4.229694881665687 70.17890625000003 L -3.734117045181752 68.61937500000002 L -3.201242618259914 67.05984375000003 L -2.6352801643658768 65.50031250000004 L -2.0406864701448724 63.94078125000003 L -1.4221331110391122 62.38125000000002 L -0.784471405580466 60.82171875000001 L -0.1326960212678301 59.26218750000001 L 0.528092494945602 57.70265625000001 L 1.1927259804624661 56.14312500000001 L 1.8560074280973882 54.58359375000001 L 2.5127499735224856 53.024062500000014 L 3.1578158066221 51.464531250000014 L 3.786154714847574 49.905000000000015 L 4.392841969423576 48.345468750000016 L 4.973115270187262 46.78593750000002 L 5.522410471903689 45.22640625000002 L 6.036395824042147 43.66687500000001 L 6.511004467149842 42.10734375000001 L 6.942464942038352 40.547812500000006 L 7.327329482905864 38.988281250000014 L 7.662499882142879 37.42875000000001 L 7.945250732786198 35.869218750000016 L 8.173249874258463 34.30968750000001 L 8.344575888011356 32.75015625000002 L 8.457732511821792 31.19062500000001 L 8.511659864606456 29.631093750000005 L 8.505742397547234 28.071562500000006 L 8.439813511878935 26.512031250000007 L 8.314156808697124 24.952500000000008 L 8.129503961410114 23.39296875000001 L 7.887029226795799 21.833437500000006 L 7.588340635840822 20.273906250000003 L 7.235467930447577 18.714375000000004 L 6.830847336506678 17.154843750000005 L 6.377303287565858 15.595312500000006 L 5.878027236202544 14.035781250000003 L 5.336553712055161 12.476250000000004 L 4.756733806123483 10.916718750000003 L 4.14270628025626 9.357187500000002 L 3.4988665185599577 7.797656250000003 L 2.8298335536521013 6.238125000000002 L 2.1404154151251413 4.678593750000001 L 1.435573060173263 3.119062500000001 L 0.7203831569711248 1.5595312500000005 L 0 0 L 0.9493750000000001 0 L 1.8987500000000002 0 L 2.8481250000000005 0 L 3.7975000000000003 0 L 4.746875000000001 0 L 5.696250000000001 0 L 6.645625000000001 0 L 7.595000000000001 0 L 8.544375000000002 0 L 9.493750000000002 0 L 10.443125000000002 0 L 11.392500000000002 0 L 12.341875000000002 0 L 13.291250000000002 0 L 14.240625000000001 0 L 15.190000000000001 0 L 15.190000000000001 0 Z M 7.8766141075786535 136.73999999999995 L 7.8766141075786535 136.73999999999995 Q 7.694124564363314 135.33374999999995 7.518556235070376 134.03249999999994 Q 7.304623302301126 132.73124999999996 7.1123659728109025 131.53499999999997 Q 6.889932131150553 130.33874999999995 6.702198160330411 129.24749999999995 Q 6.491489659877907 128.15624999999994 6.32654680158215 127.16999999999996 Q 6.144686548416354 126.18374999999996 6.017671042783206 125.30249999999995 Q 5.878629493422906 124.42124999999996 5.801638300492424 123.64499999999997 Q 5.716420522309046 122.86874999999998 5.698787543217941 122.19749999999996 Q 5.675767165407516 121.52624999999998 5.724443177143968 120.95999999999998 Q 5.769770129632351 120.39374999999998 5.854050026605334 119.89828125 Q 5.93609396234895 119.40281249999998 6.05868439428839 118.97812499999999 Q 6.179845691558064 118.5534375 6.342710453637443 118.19953125 Q 6.504710326065881 117.845625 6.70922683155168 117.5625 Q 6.913257384209528 117.279375 7.16035457746678 117.06703125000001 Q 7.407208226738111 116.85468750000001 7.697481692925216 116.713125 Q 7.987656430023682 116.5715625 8.321457967509062 116.50078125000002 Q 8.655236254278199 116.43 9.032736254278198 116.43 L 9.032736254278198 116.43 Q 9.401486254278199 116.43 9.788801717509063 116.50078125000002 Q 10.176093930023681 116.5715625 10.581856692925214 116.713125 Q 10.987520726738108 116.85468750000001 11.411448327466779 117.06703125000001 Q 11.835132384209528 117.279375 12.27672683155168 117.5625 Q 12.717835326065883 117.845625 13.176304203637445 118.19953125 Q 13.633908191558065 118.5534375 14.108059394288393 118.97812499999999 Q 14.580781462348952 119.40281249999998 15.068893776605337 119.89828125 Q 15.554770129632354 120.39374999999998 16.05444317714397 120.95999999999998 Q 16.550767165407517 121.52624999999998 17.050662543217943 122.19749999999996 Q 17.545170522309046 122.86874999999998 18.039138300492425 123.64499999999997 Q 18.524879493422908 124.42124999999996 19.004546042783208 125.30249999999995 Q 19.472186548416357 126.18374999999996 19.926546801582152 127.16999999999996 Q 20.36398965987791 128.15624999999994 20.779073160330412 129.24749999999995 Q 21.17118213115055 130.33874999999995 21.529865972810903 131.53499999999997 Q 21.85837330230113 132.73124999999996 22.140431235070377 134.03249999999994 Q 22.384124564363315 135.33374999999995 22.566614107578655 136.73999999999995 L 22.566614107578655 136.73999999999995 Q 22.695289264892047 138.06374999999994 22.74312354271871 139.29609374999995 Q 22.753723332954713 140.52843749999994 22.69390584448036 141.66937499999995 Q 22.601961822060645 142.81031249999995 22.44993938728025 143.85984374999998 Q 22.27098609779335 144.90937499999995 22.041757623034883 145.86749999999995 Q 21.790570936231465 146.82562499999997 21.498075997468973 147.69234374999996 Q 21.188168083514746 148.55906249999998 20.844908499839903 149.33437499999997 Q 20.48823751303776 150.10968749999995 20.105087281499994 150.79359374999996 Q 19.711935754650707 151.47749999999996 19.298093623729976 152.07 Q 18.877070555757555 152.66250000000002 18.4568194479448 153.1809375 Q 18.031309987407035 153.699375 17.609813705056926 154.14375 Q 17.184618606011824 154.58812500000002 16.76606285370151 154.95843750000003 Q 16.345040874062857 155.32875 15.932729992288792 155.62500000000003 Q 15.518896755322892 155.92125000000004 15.115350658249685 156.1434375 Q 14.710973564231633 156.36562500000002 14.318015965091917 156.51375000000002 Q 13.924697262824942 156.66187500000004 13.54352853943562 156.73593750000003 Q 13.162270793001703 156.81000000000003 12.793520793001704 156.81000000000003 L 12.793520793001704 156.81000000000003 Q 12.416020793001703 156.81000000000003 12.07618478943562 156.73593750000003 Q 11.736259762824943 156.66187500000004 11.433640965091918 156.51375000000002 Q 11.130661064231635 156.36562500000002 10.864256908249686 156.1434375 Q 10.597021755322892 155.92125000000004 10.365229992288791 155.62500000000003 Q 10.131915874062857 155.32875 9.932469103701507 154.95843750000003 Q 9.730556106011822 154.58812500000002 9.560438705056924 154.14375 Q 9.386622487407033 153.699375 9.241975697944795 153.1809375 Q 9.092070555757552 152.66250000000002 8.968093623729974 152.07 Q 8.836935754650707 151.47749999999996 8.753212281499994 150.79359374999996 Q 8.659487513037758 150.10968749999995 8.607408499839902 149.33437499999997 Q 8.541918083514744 148.55906249999998 8.511200997468974 147.69234374999996 Q 8.463070936231462 146.82562499999997 8.44175762303488 145.86749999999995 Q 8.398486097793347 144.90937499999995 8.37306438728025 143.85984374999998 Q 8.320711822060645 142.81031249999995 8.276405844480356 141.66937499999995 Q 8.199973332954709 140.52843749999994 8.121248542718707 139.29609374999995 Q 8.005289264892046 138.06374999999994 7.8766141075786535 136.73999999999995 L 7.8766141075786535 136.73999999999995 Z" fill="black" stroke="black" />
				</svg>