<svg
					xmlns="http://www.w3.org/2000/svg" xmlns:xlink="http://www.w3.org/1999/xlink"
					style="
						overflow: visible;
						height: 100;
					"
					viewBox="-7.886223771161975 0 32.488743670797064 192.68999999999997"
				>
					<path d="M -6.182115900447893 97.20000000000002 L -6.182115900447893 97.20000000000002 Q -6.4823051783756185 96.09375000000003 -6.754067056621465 94.98867187500002 Q -7.000366147090758 93.88359375000002 -7.216365909875247 92.77968750000001 Q -7.405177199514225 91.67578125000001 -7.562227058654455 90.57304687500002 Q -7.690779571375207 89.4703125 -7.786537287228779 88.36875 Q -7.852922119736573 87.2671875 -7.885919827817242 86.16679687500002 Q -7.889112331506056 85.06640625000001 -7.858772007502814 83.96718750000001 Q -7.798640537866128 82.86796875 -7.705276024420355 81.76992187500001 Q -7.582577282869034 80.671875 -7.427383003706914 79.57499999999999 Q -7.243744196870826 78.47812499999999 -7.0287708810660465 77.38242187499999 Q -6.786659116320251 76.28671874999999 -6.514777044707646 75.19218749999999 Q -6.217456565021477 74.09765624999997 -5.892307029403679 73.004296875 Q -5.5437850630706915 71.91093749999999 -5.169720894378193 70.81875 Q -4.774683053385221 69.72656249999997 -4.3566992251317656 68.63554687499997 Q -3.9204355277650045 67.54453124999998 -3.464090974024778 66.45468749999998 Q -2.99241369097408 65.36484374999998 -2.503745592031073 64.27617187499997 Q -2.002900219232188 63.18749999999997 -1.4883321016674178 62.099999999999966 Q -0.9663356752235097 61.01437499999997 -0.43474170294959347 59.93449218749998 Q 0.10223491544634666 58.85460937499997 0.6453038551483729 57.78046874999997 Q 1.1903202496752185 56.70632812499997 1.7379982345983185 55.637929687499984 Q 2.2842512038814182 54.56953124999998 2.8298576464537204 53.50687499999998 Q 3.3707760356115104 52.444218749999976 3.907906490089665 51.38730468749998 Q 4.4372382181020384 50.330390624999986 4.959846909252567 49.279218749999984 Q 5.4717372620067195 48.22804687499999 5.9742105075736225 47.182617187499986 Q 6.4632709652814135 46.13718749999999 6.940490862070912 45.09749999999998 Q 7.4018579264893765 44.05781249999999 7.849255864138485 43.02386718749999 Q 8.278639542877743 41.98992187499999 8.692239297214337 40.96171874999999 Q 9.085961086461808 39.933515624999984 9.46241142308235 38.911054687499984 Q 9.817431803767503 37.88859374999999 10.154028689717709 36.871874999999996 Q 10.467964313341886 35.85515624999999 10.762662988644514 34.844179687499995 Q 11.03379387595905 33.833203125 11.285211175650248 32.82796875 Q 11.512478382732557 31.822734375 11.719885822890632 30.8232421875 Q 11.90288014397537 29.82375 12.066188391177473 28.83 Q 12.20515100151854 27.838124999999994 12.325702696945072 26.857617187499994 Q 12.42259556875838 25.877109374999993 12.50237596387943 24.907968749999995 Q 12.559375300625561 23.938828124999993 12.60079320986744 22.98105468749999 Q 12.620538439664632 22.02328124999999 12.626427682079179 21.07687499999999 Q 12.611950516849294 20.13046874999999 12.585499096408345 19.195429687499992 Q 12.540152569055032 18.26039062499999 12.484832470271602 17.33671874999999 Q 12.412221158538884 16.41304687499999 12.331719884396367 15.50074218749999 Q 12.235632377409505 14.58843749999999 12.133787202432636 13.68749999999999 Q 12.01813171035866 12.786562499999988 11.898867466536236 11.89699218749999 Q 11.767611318973486 11.00742187499999 11.634882379528932 10.12921874999999 Q 11.491996007290513 9.25101562499999 11.349732985869485 8.38417968749999 Q 11.199138836401758 7.517343749999992 11.051200379477846 6.661874999999992 Q 10.896727080389162 5.806406249999993 10.746857000462544 4.962304687499994 Q 10.592198960188016 4.118203124999994 10.443988838087272 3.2854687499999953 Q 10.292671358792159 2.4527343749999964 10.149528636076685 1.6313671874999978 Q 10.004878512301282 0.8099999999999987 9.870000000000001 0 L 9.870000000000001 0 L 10.585 0 L 11.3 0 L 12.015 0 L 12.73 0 L 13.445 0 L 14.16 0 L 14.875 0 L 15.59 0 L 16.305 0 L 17.02 0 L 17.735 0 L 18.45 0 L 19.165 0 L 19.88 0 L 20.595 0 L 21.31 0 Q 21.441399884740658 0.6346874999999996 21.577254741670195 1.2744433593749993 Q 21.71239475188763 1.914199218749999 21.851250713926014 2.5590234374999987 Q 21.98865215826632 3.2038476562499985 22.128995893787298 3.8537402343749982 Q 22.267124148563596 4.503632812499998 22.407389967439364 5.158593749999997 Q 22.5446619687349 5.813554687499996 22.6832397626906 6.473583984374996 Q 22.81803232790095 7.133613281249996 22.953276337388502 7.798710937499995 Q 23.083935304490094 8.463808593749995 23.21417369603423 9.133974609374995 Q 23.339023860354825 9.804140624999995 23.462569089517757 10.479374999999994 Q 23.57992490874484 11.154609374999993 23.69508483454435 11.834912109374994 Q 23.803261863189082 12.515214843749995 23.908351570043656 13.200585937499993 Q 24.00567857464207 13.885957031249994 24.099032847772094 14.576396484374994 Q 24.183864543822683 15.266835937499994 24.26385093358609 15.962343749999993 Q 24.33458127467703 16.657851562499992 24.39961367464993 17.35842773437499 Q 24.45468961351349 18.05900390624999 24.503242266341097 18.764648437499993 Q 24.54117789679333 19.47029296874999 24.571799731045733 20.18100585937499 Q 24.591190709042337 20.891718749999992 24.60251989963509 21.60749999999999 Q 24.602058031127264 22.32328124999999 24.59283666544236 23.044130859374988 Q 24.57132453848711 23.76498046874999 24.540413260297605 24.490898437499986 Q 24.496778789112565 25.21681640624999 24.443171282927004 25.94780273437499 Q 24.376482022436427 26.67878906249999 24.299319192096878 27.41484374999999 Q 24.20879627315645 28.15089843749999 24.107379960613482 28.892021484374993 Q 23.992411488696195 29.633144531249997 23.86621757201804 30.379335937499995 Q 23.72637132586582 31.12552734374999 23.57506202989264 31.87678710937499 Q 23.41009729166465 32.628046874999995 23.233532540469312 33.38437499999999 Q 23.043410885424812 34.14070312499999 22.841658523066023 34.902099609374986 Q 22.62655339498224 35.663496093749984 22.399898100106114 36.42996093749999 Q 22.16020299861959 37.19642578124999 21.909153719450295 37.96795898437499 Q 21.645488827486915 38.73949218749999 21.370784566802715 39.51609374999999 Q 21.084001650378912 40.29269531249999 20.786615435344185 41.07436523437499 Q 20.477800854419165 41.85603515624999 20.158941733765495 42.64277343749999 Q 19.829417411622934 43.429511718749986 19.490530332756457 44.22131835937499 Q 19.141852542696157 45.01312499999999 18.784615973943108 45.80999999999999 Q 18.41923902218595 46.60593749999999 18.047703366832188 47.40210937499999 Q 17.668553591093044 48.198281249999994 17.28444521679998 48.99468749999999 Q 16.893956805924503 49.79109374999999 16.49976724031038 50.587734375 Q 16.100483504788123 51.38437499999999 15.69880366188305 52.18124999999999 Q 15.293357327136574 52.97812499999999 14.886857401551278 53.775234375 Q 14.4779501477168 54.57234374999999 14.069358833559198 55.36968749999999 Q 13.65974023993604 56.167031249999994 13.251823435473318 56.964609374999995 Q 12.844269493102699 57.76218749999999 12.439808656824647 58.55999999999999 Q 12.037100016678927 59.35781249999999 11.638870343793222 60.15585937499999 Q 11.243770470777214 60.95390624999999 10.854519061226918 61.752187499999984 Q 10.469752465584811 62.55046874999998 10.092176655398754 63.348984374999986 Q 9.720407373166493 64.14749999999998 9.357133400323132 64.94624999999998 Q 9.000943893158961 65.74499999999998 8.654506067161135 66.54398437499998 Q 8.31637670923096 67.34296874999997 7.9891972502620625 68.14218749999998 Q 7.671486565864469 68.94140624999997 7.365856274745218 69.74085937499997 Q 7.070782085059219 70.54031249999997 6.788841999278986 71.33999999999997 Q 6.5184636300405625 72.13968749999998 6.262187813938056 72.93960937499997 Q 6.018389508045515 73.73953124999997 5.789569116811769 74.53968749999997 Q 5.574044786879833 75.33984374999997 5.374273534512423 76.14023437499998 Q 5.188512980307039 76.94062499999995 5.019174131027468 77.74124999999997 Q 4.864450835590892 78.54187499999998 4.726705826627084 79.34273437499998 Q 4.604066432829797 80.14359374999997 4.498845223948733 80.94468749999996 Q 4.409100780271709 81.74578124999996 4.337094012118824 82.54710937499996 Q 4.280813062775275 83.34843749999996 4.242466092038964 84.14999999999996 Q 4.219969672193625 84.95156249999997 4.215478536973021 85.75335937499997 Q 4.226837118920434 86.55515624999995 4.256146472546017 87.35718749999995 Q 4.301178893382632 88.15921874999995 4.36398192944008 88.96148437499996 Q 4.442256315128209 89.76374999999996 4.537996690687676 90.56624999999995 Q 4.648833375585404 91.36874999999995 4.776709123765405 92.17148437499995 Q 4.9191855488106055 92.97421874999995 5.078154955933704 93.77718749999995 Q 5.251112512848459 94.58015624999996 5.439901919701475 95.38335937499996 Q 5.641954692952386 96.18656249999995 5.859068164173334 96.98999999999995 L 5.859068164173334 96.98999999999995 Q 6.158131431221653 98.02874999999995 6.481165676122024 99.06925781249996 Q 6.822982346257269 100.10976562499997 7.186699932503338 101.15203124999995 Q 7.566935094442044 102.19429687499996 7.966737432628853 103.23832031249998 Q 8.380550753781119 104.28234374999998 8.811362367910538 105.32812499999997 Q 9.25346776498149 106.37390624999998 9.709799610209064 107.4214453125 Q 10.174531919026922 108.468984375 10.65055132247264 109.51828125 Q 11.131939177517877 110.56757812499998 11.621545558864408 111.61863281249998 Q 12.113389589265985 112.6696875 12.610295018859885 113.7225 Q 13.10625037388227 114.7753125 13.60406393784497 115.82988281249999 Q 14.09772607273203 116.884453125 14.590040938739447 117.94078125000001 Q 15.075033522708301 118.99710937500002 15.555515538047073 120.05519531250002 Q 16.0255792915965 121.11328125 16.488055898129556 122.173125 Q 16.937137127836333 123.23296875000001 17.37568534771225 124.29457031250001 Q 17.798022924336244 125.356171875 18.207055156556066 126.41953124999999 Q 18.597264677353778 127.48289062500001 18.971611049342645 128.5480078125 Q 19.324764938558165 129.613125 19.659750979118687 130.68 Q 19.97207831199672 131.74687500000002 20.2636134656139 132.8090625 Q 20.530390964894266 133.87125 20.77530802002889 134.92875000000004 Q 20.994370078636862 135.98625 21.190893465631635 137.0390625 Q 21.36084517063337 138.09187500000002 21.50796793784998 139.14000000000001 Q 21.628181431832164 140.188125 21.72565609370305 141.2315625 Q 21.796256089140968 142.27499999999998 21.84457498953959 143.31375 Q 21.866414145140592 144.35250000000002 21.866780103977696 145.38656250000003 Q 21.841405087178963 146.42062500000003 21.795693203279825 147.45 Q 21.725302358627623 148.47937499999998 21.636013927322626 149.50406249999997 Q 21.523407546131104 150.52875 21.393617115542096 151.54874999999998 Q 21.2421413581328 152.56874999999997 21.075437994133615 153.58406249999996 Q 20.888923552519053 154.59937499999998 20.68934740936283 155.60999999999996 Q 20.472044016168788 156.62062499999996 20.244019318647442 157.62656249999998 Q 20.000527208330197 158.63249999999996 19.748792743133876 159.63374999999996 Q 19.48399215531632 160.635 19.21353034526154 161.63156249999997 Q 18.932510128639585 162.62812499999998 18.64847572506155 163.61999999999998 Q 18.3564620553163 164.61187499999997 18.066638256959422 165.59332031249997 Q 17.771506050773745 166.57476562499997 17.48131550507671 167.54578124999998 Q 17.188415398349786 168.51679687499998 16.90306634005476 169.47738281249997 Q 16.617503905635992 170.43796874999998 16.34193192637271 171.38812499999997 Q 16.068513531728367 172.33828124999997 15.807332180346354 173.27800781249996 Q 15.550519729918596 174.21773437499996 15.307979946212917 175.14703124999997 Q 15.071854431743073 176.07632812499997 14.851812659080032 176.99519531249996 Q 14.640046293466328 177.91406249999994 14.445940979103256 178.82249999999996 Q 14.26177756236947 179.73093749999998 14.0966136383025 180.62894531249998 Q 13.9428566980502 181.52695312499998 13.809197539854917 182.41453124999998 Q 13.688205702781286 183.30210937499996 13.588171988553896 184.17925781249997 Q 13.501860973480806 185.05640624999995 13.437135808713133 185.92312499999997 Q 13.386986384013028 186.78984375 13.358826019832938 187.64613281249996 Q 13.34589723782802 188.50242187499998 13.355146688083458 189.34828124999996 Q 13.380093694423497 190.194140625 13.427206550000978 191.02957031249997 Q 13.49030226555252 191.86499999999998 13.575364010420124 192.68999999999997 L 13.575364010420124 192.68999999999997 L 12.864739010420127 192.68999999999997 L 12.154114010420127 192.68999999999997 L 11.443489010420127 192.68999999999997 L 10.732864010420126 192.68999999999997 L 10.022239010420126 192.68999999999997 L 9.311614010420126 192.68999999999997 L 8.600989010420125 192.68999999999997 L 7.890364010420126 192.68999999999997 L 7.179739010420126 192.68999999999997 L 6.4691140104201255 192.68999999999997 L 5.758489010420125 192.68999999999997 L 5.047864010420127 192.68999999999997 L 4.337239010420128 192.68999999999997 L 3.626614010420128 192.68999999999997 L 2.9159890104201276 192.68999999999997 L 2.2053640104201273 192.68999999999997 Q 2.0893102577654084 191.89312499999997 1.9953446197828208 191.08523437499997 Q 1.9163442081116244 190.27734374999994 1.8597111062820737 189.45843749999997 Q 1.817837440607664 188.63953124999998 1.7984420385594033 187.80960937499998 Q 1.7934376363171172 186.97968749999995 1.8108396018105584 186.13874999999996 Q 1.8420915329192082 185.29781249999996 1.8954817212339865 184.44585937499997 Q 1.961999789540795 183.59390624999997 2.050180020278039 182.73093749999998 Q 2.1505783513297363 181.86796875 2.271944957357694 180.99398437499997 Q 2.404427677324569 180.11999999999998 2.556959518991599 179.23499999999996 Q 2.7193112182926584 178.34999999999997 2.900562858295383 177.45398437499998 Q 3.0901445292174703 176.55796874999996 3.2972452518349553 175.65093749999997 Q 3.5109963704228244 174.74390624999998 3.740655701454658 173.82585937499996 Q 3.975103088468484 172.90781249999998 4.223623427503188 171.97874999999996 Q 4.474897469730364 171.04968749999998 4.7381943828463085 170.10960937499996 Q 5.002053123154132 169.16953124999998 5.275683760583394 168.21843749999996 Q 5.547545271715532 167.26734374999998 5.826745270457158 166.30523437499997 Q 6.101728612965909 165.343125 6.381457718275266 164.36999999999998 Q 6.653649017000391 163.39874999999995 6.925469708951543 162.42117187499997 Q 7.188073776047346 161.44359374999996 7.447711295446622 160.45968749999997 Q 7.695675501965132 159.47578124999998 7.938094817845565 158.48554687499998 Q 8.16644947238879 157.49531249999998 8.38673385523033 156.49874999999997 Q 8.590662146340586 155.50218749999996 8.784084300542197 154.49929687499997 Q 8.9589939722312 153.49640624999995 9.121088423633989 152.48718749999998 Q 9.262684210377516 151.47796874999997 9.389319927938661 150.46242187499996 Q 9.493675689641226 149.44687499999995 9.581127839646744 148.42499999999995 Q 9.644757262309556 147.403125 9.68977692509289 146.37492187499996 Q 9.709701591588823 145.34671874999995 9.70958221698078 144.31218749999994 Q 9.683395806821812 143.27765624999995 9.636035147842016 142.23679687499998 Q 9.561962497414239 141.19593749999996 9.465918744266595 140.14874999999995 Q 9.342868491874476 139.10156249999994 9.197409332217795 138.04804687499995 Q 9.025018887406102 136.99453124999997 8.830162246004445 135.93468749999997 Q 8.608833861748561 134.87484374999997 8.36537912455413 133.80867187499996 Q 8.096305915452923 132.74249999999995 7.805854521184488 131.66999999999996 Q 7.489940778026644 130.59562499999996 7.154066194875448 129.52089843749997 Q 6.795639814904835 128.44617187499995 6.4193049642900615 127.37109374999996 Q 6.022644126774242 126.29601562499997 5.610438295463175 125.22058593749998 Q 5.180425866910701 124.14515624999997 4.73751001012306 123.06937499999998 Q 4.279565231800459 121.99359374999999 3.8115995915414693 120.91746093749998 Q 3.3316019037996645 119.84132812499999 2.844666279554936 118.76484374999998 Q 2.3488723437968386 117.68835937499998 1.849380129459055 116.61152343749998 Q 1.344335210432104 115.53468749999999 0.8389424052982645 114.45749999999998 Q 0.33138736209364505 113.38031249999999 -0.1731021591044667 112.30277343750001 Q -0.6763269567392399 111.22523437500001 -1.1730585707305898 110.14734375000002 Q -1.6651110344831408 109.06945312500002 -2.147277509153211 107.99121093750003 Q -2.6214119360476866 106.91296875000002 -3.082351178398488 105.83437500000001 Q -3.5320152595100094 104.75578125 -3.9653062670150545 103.6768359375 Q -4.384235603765035 102.597890625 -4.7837912341102315 101.51859375000002 Q -5.166099994814878 100.43929687500003 -5.526255208895842 99.35964843750003 Q -5.866521607965248 98.28000000000002 -6.182115900447893 97.20000000000002 L -6.182115900447893 97.20000000000002 Z" fill="black" stroke="black" />
				</svg>