<svg
					xmlns="http://www.w3.org/2000/svg" xmlns:xlink="http://www.w3.org/1999/xlink"
					style="
						overflow: visible;
						height: 100;
					"
					viewBox="-7.960514196435502 0 54.870852731101344 158.54999999999998"
				>
					<path d="M 32.34897968290804 34.139999999999986 L 32.34897968290804 34.139999999999986 Q 32.04272968290804 34.139999999999986 31.737937261996873 34.18722656249999 Q 31.433092715440235 34.23445312499999 31.129497432923944 34.32890624999999 Q 30.825694214008998 34.42335937499998 30.522725347273187 34.56503906249998 Q 30.219290811189975 34.70671874999998 29.916072726389437 34.89562499999999 Q 29.612032468692064 35.08453124999999 29.30739360938933 35.320664062499986 Q 29.001482159275064 35.55679687499999 28.693968470911337 35.840156249999986 Q 28.384644853704607 36.12351562499999 28.072538730981684 36.454101562499986 Q 27.75800809382431 36.78468749999999 27.43935418087719 37.16249999999999 Q 27.117596902814956 37.540312499999985 26.79023628022047 37.96535156249998 Q 26.459046169817704 38.39039062499998 26.120660612351912 38.862656249999986 Q 25.77769391530923 39.33492187499999 25.425861980463786 39.854414062499984 Q 25.068698955206564 40.37390624999999 24.700965641386414 40.94062499999999 Q 24.32718638709212 41.50734374999999 23.94114795499189 42.12128906249999 Q 23.54842396540751 42.73523437499999 23.141829216078474 43.396406249999984 Q 22.72803175255344 44.05757812499999 22.298900569075762 44.765976562499986 Q 21.86222636529795 45.47437499999999 21.408985619834528 46.22999999999999 Q 20.947474617916292 46.98562499999999 20.475217542475967 47.77839843749999 Q 19.995696201317507 48.571171875 19.505278680579057 49.401093749999994 Q 19.00828526471872 50.23101562499999 18.500668093086464 51.09808593749999 Q 17.987516368406336 51.965156249999986 17.464502864094232 52.86937499999999 Q 16.937392377949443 53.77359375 16.40173595703609 54.7149609375 Q 15.863854843314483 55.656328125 15.319355958363525 56.63484375 Q 14.774970231512034 57.613359375 14.226556086885905 58.6290234375 Q 13.681078426767478 59.6446875 13.134857964413406 60.69749999999999 Q 12.594888140501169 61.750312499999986 12.058174024066238 62.84027343749999 Q 11.531502448312395 63.93023437499999 11.012791253530468 65.05734375 Q 10.508356786261391 66.184453125 10.017258438855585 67.34871093749999 Q 9.545051613459155 68.51296874999998 9.092159419818124 69.71437499999999 Q 8.663062819983814 70.91578125 8.25975633300449 72.15433593750001 Q 7.8853150725388765 73.392890625 7.543489644876355 74.66859375 Q 7.235606878949893 75.94429687499999 6.967326184998211 77.2571484375 Q 6.737881418540384 78.57000000000001 6.554952555413466 79.92 L 6.554952555413466 79.92 Q 6.414202384315129 81.283125 6.331615503851397 82.6053515625 Q 6.291849642944703 83.927578125 6.305744727266391 85.20890625 Q 6.360151699193401 86.490234375 6.462938843947812 87.73066406250001 Q 6.603208296004043 88.97109375 6.786086182066632 90.170625 Q 7.002922892410861 91.37015625 7.256362436252599 92.52878906249998 Q 7.539946738843301 93.68742187499998 7.854116005123012 94.80515624999998 Q 8.194501365871929 95.922890625 8.559625202645202 96.9997265625 Q 8.947068601598046 98.0765625 9.353720893782109 99.11249999999998 Q 9.778945694114395 100.14843749999997 10.218275662443395 101.14347656249998 Q 10.672669769980757 102.13851562499997 11.136566394847641 103.09265624999998 Q 11.612320780052771 104.04679687499998 12.093521272068623 104.96003906249999 Q 12.58371542582495 105.87328124999999 13.075864796425604 106.74562499999999 Q 13.574506529555855 107.61796874999999 14.072175849629884 108.44941406249998 Q 14.574203141702995 109.28085937499999 15.072874132392853 110.07140625 Q 15.574126605838257 110.86195312500001 16.070149897860205 111.6116015625 Q 16.567317049631956 112.36125 17.057850880566495 113.07 Q 17.547778544948454 113.77874999999999 18.02889524388208 114.443203125 Q 18.509197708407598 115.10765624999999 18.980100308207636 115.72781249999998 Q 19.449620235428164 116.34796874999998 19.90948459628103 116.923828125 Q 20.367621556086252 117.4996875 20.816119131964374 118.03125 Q 21.262728329072687 118.5628125 21.699927933035763 119.050078125 Q 22.13522405295366 119.53734375 22.561499838414008 119.9803125 Q 22.985967878738474 120.42328124999999 23.401915007767826 120.821953125 Q 23.81622927384255 121.220625 24.22258812925484 121.57499999999999 Q 24.627540016461932 121.929375 25.025129328166656 122.23945312500001 Q 25.421564081333084 122.54953125000002 25.811222970699966 122.81531250000002 Q 26.199985293924893 123.08109375000002 26.582523980889086 123.30257812500003 Q 26.964412155861957 123.52406250000001 27.34057090883076 123.70125 Q 27.716298952623433 123.87843749999999 28.086714776982365 124.01132812499999 Q 28.456882117434432 124.14421875 28.822062660883187 124.23281250000001 Q 29.18713081561812 124.32140625 29.547435004701896 124.36570312500001 Q 29.907710805929977 124.41 30.263335805929977 124.41 L 30.263335805929977 124.41 Q 30.687085805929975 124.41 31.09218042789164 124.36640624999998 Q 31.497247554561216 124.3228125 31.883549690868012 124.23562499999998 Q 32.26974295414237 124.1484375 32.63695533560116 124.01765625 Q 33.00392693690172 123.886875 33.35160222807659 123.71249999999999 Q 33.69885998470035 123.53812499999998 34.0264167645246 123.32015624999997 Q 34.353342553336695 123.10218749999997 34.660087524061126 122.84062499999997 Q 34.96596212792649 122.57906249999998 35.25111898325528 122.27390624999997 Q 35.53515379766472 121.96874999999997 35.79789923496415 121.61999999999998 Q 36.057777496130605 121.26749999999998 36.308806805046125 120.89484374999996 Q 36.55839678355395 120.52218749999997 36.798955713867116 120.12937499999997 Q 37.038063858628085 119.73656249999996 37.26799740784026 119.32359374999996 Q 37.49650331400099 118.91062499999997 37.71573817293675 118.47749999999998 Q 37.933609116079566 118.04437499999999 38.14216867178927 117.59109374999998 Q 38.3494748728875 117.13781249999998 38.54749487284316 116.66437499999996 Q 38.74442535480805 116.19093749999996 38.932170071123636 115.69734374999996 Q 39.11904892675565 115.20374999999997 39.2969276157443 114.68999999999997 L 39.2969276157443 114.68999999999997 L 40.2637270476994 116.89124999999997 L 41.20552665019208 119.09249999999997 L 42.1082591178738 121.29374999999997 L 42.95844067644978 123.49499999999998 L 43.743372484728624 125.69624999999998 L 44.45133031242225 127.89749999999998 L 45.07173966055053 130.09875 L 45.59533370874305 132.29999999999998 L 46.01429173023895 134.50124999999997 L 46.32235590713194 136.7025 L 46.514924801035534 138.90375 L 46.58912208303219 141.105 L 46.54383949631321 143.30624999999998 L 46.37975340979263 145.5075 L 46.09931471543982 147.70875 L 45.706712220230884 149.91 Q 45.16575830001223 150.47625 44.62379420906236 151.0040625 Q 44.07591350649038 151.53187499999999 43.52895202134573 152.02125 Q 42.97708266575715 152.51062499999998 42.42785419876273 152.96156249999996 Q 41.874610408343315 153.41249999999997 41.32552814366673 153.825 Q 40.773210673769334 154.23749999999998 40.22638410742682 154.6115625 Q 39.67699596869083 154.98562499999997 39.13424870156138 155.32124999999996 Q 38.589514401139176 155.65687499999996 38.052404566743604 155.95406249999996 Q 37.51379135219878 156.25124999999997 36.98363328492219 156.50999999999996 Q 36.452381025744266 156.76499999999996 35.923701881654175 156.98812499999997 Q 35.39422782188525 157.21124999999995 34.867804792742525 157.40249999999997 Q 34.34081375357814 157.59374999999994 33.81726772762068 157.75312499999995 Q 33.29333682121304 157.91249999999997 32.77316793758472 158.03999999999996 Q 32.25275781181681 158.1675 31.736355772473175 158.263125 Q 31.21982028139205 158.35875 30.70747295937373 158.42249999999996 Q 30.19506704438561 158.48624999999998 29.686967204776057 158.51812499999997 Q 29.432911830263382 158.53406249999998 29.179945281310037 158.54203124999998 Q 28.92697782531343 158.54999999999998 28.67510282531343 158.54999999999998 L 28.67510282531343 158.54999999999998 Q 28.41416532531343 158.54999999999998 28.15969298525214 158.540302734375 Q 27.905219301791995 158.53060546875 27.657205400595245 158.51121093749998 Q 27.40918611356733 158.49181640625 27.16761581676644 158.462724609375 Q 26.926033356031738 158.43363281249998 26.690883605943153 158.39484374999998 Q 26.220518825298576 158.31726562499998 25.775744981635896 158.20089843749997 Q 25.33077258179128 158.08453125 24.911122519345053 157.929375 Q 24.49111229543217 157.77421875 24.09605560202422 157.58027343749998 Q 23.700421935481923 157.38632812499998 23.329263942027456 157.15359374999997 Q 22.95725050392926 156.92085937499996 22.609115176737948 156.64933593749998 Q 22.25977676303665 156.37781249999998 21.933587020636075 156.0675 Q 21.605769064784383 155.7571875 21.300225147960823 155.40808593749998 Q 20.992541608184837 155.058984375 20.706098295385182 154.67109374999998 Q 20.416908786656435 154.28320312499997 20.147752431543694 153.8565234375 Q 19.875139666007776 153.42984374999997 19.621166238877283 152.964375 Q 19.362915051352925 152.49890624999998 19.121710588351064 151.9946484375 Q 18.875290051501537 151.49039062499997 18.644115149749066 150.94734375 Q 18.406665519989502 150.40429687499997 18.182445754509754 149.82246093749998 Q 17.950772224890876 149.24062499999997 17.73009659305906 148.61999999999998 Q 17.500672049988147 147.999375 17.277827784752688 147.34792968749997 Q 17.04507831549862 146.69648437499998 16.816788377060462 146.01421874999997 Q 16.577386451038926 145.33195312499998 16.34021525787828 144.61886718749997 Q 16.090694080881374 143.90578125 15.841091725822654 143.16187499999998 Q 15.577894717971526 142.41796874999994 15.31225356405988 141.64324218749994 Q 15.03179660032341 140.86851562499996 14.746521150043137 140.06296874999998 Q 14.445268331294013 139.25742187499998 14.136858973866593 138.42105468749997 Q 13.811412363179064 137.58468749999997 13.476563215616117 136.71749999999997 Q 13.12376653660256 135.85031249999997 12.759477095489533 134.95230468749997 Q 12.376532838894622 134.05429687499998 11.980232545271365 133.12546874999998 Q 11.564831262457297 132.19664062499996 11.134515349792146 131.23699218749994 Q 10.68497512791816 130.27734374999994 10.219349277102065 129.28687499999998 Q 9.734762498125415 128.29640625 9.23339287519526 127.27511718749997 Q 8.713776374939986 126.25382812499998 8.17724059754099 125.20171874999997 Q 7.623684287468438 124.14960937499998 7.053717786197128 123.06667968749998 Q 6.468525715924425 121.98374999999999 5.868156869946376 120.86999999999998 Q 5.254973642197921 119.75624999999997 4.631429907454189 118.62093749999997 Q 3.998275713673019 117.48562499999998 3.357857282947031 116.32874999999997 Q 2.7115401941954644 115.17187499999997 2.0616968024874307 113.99343749999998 Q 1.4101476878843526 112.81499999999997 0.7594286214751172 111.61499999999998 Q 0.11163323366361522 110.41499999999998 -0.5304015630753869 109.19343749999996 Q -1.164510880624455 107.97187499999995 -1.787421865750476 106.72874999999996 Q -2.397117662305029 105.48562499999997 -2.9897612093114994 104.22093749999996 Q -3.5637173031425142 102.95624999999998 -4.114466689526024 101.66999999999999 Q -4.640999744225798 100.38374999999998 -5.138011092294294 99.0759375 Q -5.605366026466507 97.768125 -6.036886853628317 96.43874999999998 Q -6.433562782287787 95.10937499999999 -6.788278752764093 93.75843749999999 Q -7.103389998540214 92.40749999999998 -7.37080320273631 91.03499999999998 Q -7.594467584288495 89.6625 -7.765297271459388 88.26843749999998 Q -7.889041450857328 86.87437499999997 -7.955635691923655 85.45874999999998 Q -7.972804938922872 84.04312499999997 -7.929549307394763 82.60593749999998 Q -7.8357067342769815 81.16874999999997 -7.679413892574447 79.70999999999998 L -7.679413892574447 79.70999999999998 Q -7.472712165429433 78.25124999999998 -7.209771015215183 76.81371093749999 Q -6.900797629851585 75.37617187499998 -6.541794693587894 73.95984374999998 Q -6.142031887084717 72.54351562499998 -5.699090254054836 71.14839843749998 Q -5.221321913579596 69.75328124999999 -4.707609378453279 68.37937499999998 Q -4.165435537758662 67.00546874999998 -3.5946949668637216 65.65277343749997 Q -3.002075360965014 64.30007812499997 -2.3881901820021314 62.968593749999975 Q -1.759028301051445 61.63710937499998 -1.1156329307786579 60.32683593749997 Q -0.46340895352662914 59.01656249999998 0.19644900365429263 57.72749999999998 Q 0.8589909225058252 56.43843749999998 1.523132649861683 55.17058593749997 Q 2.184239924409821 53.90273437499998 2.8415799835852114 52.656093749999975 Q 3.4906895093662484 51.40945312499997 4.131403651988514 50.18402343749997 Q 4.7592836213608605 48.95859374999997 5.37492222973359 47.75437499999998 Q 5.97376101466512 46.55015624999997 6.557312012519992 45.36714843749998 Q 7.120758539906859 44.18414062499998 7.666664685051163 43.022343749999976 Q 8.18982563570755 41.860546874999976 8.693961836517088 40.71996093749998 Q 9.173361576941815 39.57937499999998 9.632978294921717 38.45999999999998 Q 10.066889909382233 37.338749999999976 10.478463934652321 36.247499999999974 Q 10.863480676850529 35.15624999999998 11.227546160799976 34.09499999999997 Q 11.565251929807168 33.033749999999976 11.883939094413467 32.002499999999976 Q 12.176935829444437 30.971249999999976 12.4532789153109 29.969999999999974 Q 12.704984982217853 28.96874999999997 12.942725757866649 27.997499999999977 Q 13.157182924259773 27.026249999999976 13.360585319061979 26.084999999999972 Q 13.542278924152399 25.143749999999972 13.715958668024815 24.232499999999973 Q 13.86965428189697 23.321249999999978 14.018426197030472 22.43999999999998 Q 14.149024888769082 21.558749999999982 14.277769387983877 20.707499999999982 Q 14.390182702311083 19.856249999999985 14.50373211843181 19.034999999999986 Q 14.602777004520851 18.213749999999987 14.705821608743015 17.422499999999985 Q 14.796134851992012 16.631249999999987 14.893147812084695 15.86999999999999 Q 14.979118982350101 15.108749999999992 15.074299053442065 14.377499999999994 Q 15.160020589138941 13.646249999999995 15.257251006533625 12.944999999999997 Q 15.34648378750417 12.243749999999997 15.449305625828371 11.5725 Q 15.545458231600907 10.901250000000003 15.657056389871755 10.260000000000005 Q 15.76317617593663 9.618750000000006 15.889172655145497 9.017578125000005 Q 16.01088366376169 8.416406250000005 16.154138412124915 7.855312500000005 Q 16.294107688368765 7.294218750000003 16.45700021786808 6.773203125000003 Q 16.617429885488143 6.2521875000000025 16.801903170200127 5.771250000000003 Q 16.984576642677588 5.290312500000002 17.192185013892562 4.849453125000002 Q 17.3985161315593 4.408593750000001 17.63047487204271 4.007812500000002 Q 17.861557858080225 3.607031250000002 18.118792621726072 3.2463281250000016 Q 18.375451158848566 2.8856250000000014 18.658645727872603 2.5650000000000013 Q 18.941479824253054 2.244375000000001 19.2511210562567 1.9638281250000011 Q 19.560550688044884 1.6832812500000007 19.89696979607702 1.4428125000000007 Q 20.233274582575493 1.2023437500000007 20.59668413222928 1.0019531250000004 Q 20.960038519135356 0.8015625000000004 21.35056471964565 0.6412500000000003 Q 21.741068318519474 0.48093750000000024 22.1587783334266 0.3607031250000002 Q 22.576481195979827 0.24046875000000012 23.021405308063425 0.16031250000000008 Q 23.466328007257573 0.08015625000000004 23.93847654778218 0.04007812500000002 Q 24.410624999999996 0 24.909999999999997 0 L 24.909999999999997 0 Q 25.378749999999997 0 25.87109373449389 0.04078124999999955 Q 26.363437375951257 0.0815624999999991 26.879374007613123 0.1631249999999982 Q 27.395309150711483 0.24468749999999728 27.934832446281817 0.3670312499999959 Q 28.474348206434584 0.48937499999999456 29.037436491152032 0.6524999999999928 Q 29.600500963865553 0.8156249999999909 30.187101505914246 1.0195312499999887 Q 30.480380708982942 1.1214843749999877 30.779531819272556 1.2336328124999862 Q 31.07866166270104 1.345781249999985 31.383651787595387 1.4681249999999837 Q 31.68861180214114 1.5904687499999823 31.99941701964946 1.723007812499981 Q 32.310180781661884 1.8555468749999795 32.62677059566226 1.9982812499999778 Q 32.94330467934437 2.141015624999976 33.26564092354292 2.2939453124999747 Q 33.58790377378514 2.446874999999973 33.915939437684195 2.609999999999971 Q 34.243681696342534 2.771249999999971 34.5759300442676 2.9443359374999707 Q 34.90805793253562 3.1174218749999705 35.24464486125754 3.302343749999971 Q 35.581077751771666 3.487265624999971 35.921913121277015 3.6840234374999707 Q 36.2625542151941 3.8807812499999708 36.60753050992923 4.089374999999971 Q 36.95226482173701 4.2979687499999715 37.30125507885985 4.518398437499972 Q 37.64994733262888 4.738828124999972 38.00280298815981 4.971093749999972 Q 38.355295437282564 5.203359374999971 38.71184410334928 5.447460937499972 Q 39.06795428792111 5.691562499999973 39.42799747651624 5.947499999999973 Q 39.78751593482591 6.203437499999973 40.150826745923595 6.471210937499974 Q 40.51351469903711 6.7389843749999745 40.879835493541506 7.018593749999974 Q 41.24542252467301 7.298203124999976 41.614462605487994 7.589648437499976 Q 41.98264435874631 7.881093749999976 42.354077686247955 8.184374999999978 Q 42.72451361240843 8.48765624999998 43.097976583750274 8.802773437499978 Q 43.47028776390873 9.117890624999978 43.845377088869704 9.444843749999979 Q 44.219144170158785 9.77179687499998 44.59541487962154 10.11058593749998 Q 44.9701761605747 10.449374999999982 45.34713978716027 10.799999999999983 L 45.34713978716027 10.799999999999983 L 45.803648830192785 12.853124999999984 L 46.19206746125329 14.906249999999984 L 46.503895628286855 16.959374999999984 L 46.73162866073949 19.012499999999985 L 46.86885480141578 21.065624999999986 L 46.91033853466584 23.118749999999984 L 46.85208862795536 25.17187499999999 L 46.691410002540145 27.224999999999987 L 46.42693875912573 29.278124999999985 L 46.058659903313334 31.33124999999999 L 45.58790754046931 33.38437499999999 L 45.01734753748582 35.437499999999986 L 44.35094287676286 37.49062499999999 L 43.593902152676876 39.54374999999999 L 42.752611879883716 41.596875 L 41.83455349318769 43.64999999999999 Q 41.65331433228021 43.13624999999999 41.45955410291265 42.644531249999986 Q 41.26162766842295 42.15281249999999 41.051692467177865 41.68312499999999 Q 40.837753169633416 41.21343749999999 40.61236297102182 40.76578124999999 Q 40.38316933464295 40.31812499999998 40.143115496757574 39.892499999999984 Q 39.899488669692616 39.46687499999999 39.64561360687629 39.06328124999999 Q 39.388417852391555 38.65968749999999 39.121596688138034 38.278124999999996 Q 38.85172185700043 37.896562499999995 38.57284603353945 37.53703125 Q 38.29119197591491 37.1775 38.001154759777066 36.84 Q 37.70861760153576 36.5025 37.39995318808306 36.207187499999996 Q 37.08934125362904 35.911874999999995 36.76368400363731 35.65875 Q 36.436576018509506 35.405625 36.09537152416469 35.1946875 Q 35.753148609335 34.98374999999999 35.39763381216966 34.81499999999999 Q 35.0414618059086 34.64624999999999 34.67265011357056 34.51968749999999 Q 34.303466483504494 34.39312499999999 33.92213696819732 34.30874999999999 Q 33.540641457752905 34.22437499999998 33.14733137006684 34.18218749999998 Q 32.75397968290804 34.139999999999986 32.34897968290804 34.139999999999986 L 32.34897968290804 34.139999999999986 Z" fill="black" stroke="black" />
				</svg>