<svg
					xmlns="http://www.w3.org/2000/svg" xmlns:xlink="http://www.w3.org/1999/xlink"
					style="
						overflow: visible;
						height: 100;
					"
					viewBox="-7.927131318447945 0 70.64116750944319 172.38000000000002"
				>
					<path d="M 51.666042908940454 76.47000000000003 L 51.666042908940454 76.47000000000003 Q 51.43120538102745 77.74125000000002 51.22056297800266 79.00687500000002 Q 51.04740915229849 80.27250000000001 50.899549780675144 81.5325 Q 50.790221502741105 82.79250000000002 50.70649804631524 84.04687500000001 Q 50.66157355595572 85.30125000000001 50.6417930381515 86.55000000000001 Q 50.660323195356526 87.79875 50.70279780618615 89.041875 Q 50.78237141280576 90.285 50.88399728247933 91.52250000000001 Q 51.02083281871914 92.76 51.17719365030496 93.99187500000002 Q 51.36625434425536 95.22375000000001 51.571746662482795 96.45000000000002 Q 51.80796715484676 97.68 52.04973572861679 98.87953125000001 Q 52.316729191579924 100.07906250000002 52.58338277359866 101.248125 Q 52.870673620995184 102.41718750000001 53.152012266278625 103.55578125000002 Q 53.44952990709196 104.69437500000002 53.735874765684066 105.80250000000001 Q 54.03416979918168 106.91062500000001 54.31655060157914 107.98828125000003 Q 54.6069592063961 109.06593750000003 54.87725175027274 110.11312500000003 Q 55.15201151058034 111.1603125 55.40302905582561 112.17703125 Q 55.65535067099414 113.19375000000001 55.880894124868334 114.18 Q 56.10458854537584 115.16250000000001 56.29205498513912 116.09671875000002 Q 56.47594793600043 117.03093750000002 56.62214014819618 117.91687500000002 Q 56.763206168418186 118.80281250000002 56.86584325265234 119.64046875000004 Q 56.962321416399185 120.47812500000003 57.02027749613063 121.26750000000001 Q 57.07148854160759 122.056875 57.08460911296452 122.79796875000002 Q 57.090770994842146 123.53906250000003 57.059691959049964 124.23187500000003 Q 57.021741235072895 124.92468750000002 56.947716852386364 125.56921875000002 Q 56.86714124350295 126.21375000000002 56.751885317972295 126.81000000000003 Q 56.628153634556845 127.40250000000003 56.46419605067803 127.92093750000002 Q 56.29537060112119 128.439375 56.08883447298355 128.88375000000002 Q 55.87854984599534 129.328125 55.63289445275704 129.6984375 Q 55.38454060311165 130.06875000000002 55.10288670882148 130.365 Q 54.81945850721145 130.66125 54.50446077708498 130.88343749999999 Q 54.1884452512838 131.105625 53.842198735447255 131.25375 Q 53.495493826047564 131.401875 53.11946873488387 131.4759375 Q 52.74332816257045 131.54999999999998 52.33832816257045 131.54999999999998 L 52.33832816257045 131.54999999999998 Q 52.014578162570444 131.54999999999998 51.68365550373588 131.499375 Q 51.3526788452724 131.44875 51.014313901912445 131.3475 Q 50.675734081657716 131.24625 50.32933811262659 131.09437499999999 Q 49.982462953034734 130.9425 49.62713852238396 130.74 Q 49.27097313853969 130.53750000000002 48.9055310729661 130.284375 Q 48.53879774513773 130.03125 48.161781579611265 129.72750000000002 Q 47.78294761126705 129.42375 47.392666763998314 129.06937500000004 Q 46.99998167360104 128.71500000000003 46.59455482855068 128.31000000000003 Q 46.18484843043086 127.90500000000002 45.77350400610709 127.45640625000001 Q 45.35860324856261 127.0078125 44.940857126035986 126.515625 Q 44.5190539805391 126.0234375 44.09321094535002 125.48765625000001 Q 43.66286552522714 124.95187500000002 43.22734358753932 124.3725 Q 42.78696322649735 123.793125 42.34037958164541 123.17015625 Q 41.888709606926355 122.5471875 41.42997832685515 121.88062500000001 Q 40.96610438162071 121.21406250000003 40.49454536731418 120.50390625000003 Q 40.018006506421926 119.79375000000002 39.53346451082862 119.04000000000002 L 39.53346451082862 119.04000000000002 L 39.023464510828624 119.04000000000002 Q 39.10787299412335 119.715 39.16495711727122 120.3609375 Q 39.21799634259933 121.00687500000002 39.243757466169924 121.62375000000002 Q 39.26523284595271 122.24062500000001 39.25966301471312 122.8284375 Q 39.24970273815218 123.41625 39.21308620921516 123.975 Q 39.17208997297707 124.53374999999997 39.10495339624597 125.06343749999998 Q 39.03354355374303 125.59312499999999 38.93660895421405 126.09374999999997 Q 38.835584756973 126.59437499999997 38.70972586883046 127.06593749999999 Q 38.580021255122666 127.5375 38.42622355641194 127.97999999999999 Q 38.27121684458992 128.42624999999998 38.08646055209551 128.81671874999998 Q 37.89881899578713 129.20718749999997 37.682969091900866 129.54187499999998 Q 37.464929553201635 129.87656249999998 37.220076552570305 130.15546874999998 Q 36.973663851886606 130.434375 36.7016491500268 130.65749999999997 Q 36.428616616407254 130.880625 36.13098166582608 131.04796875 Q 35.83276590685031 131.21531249999998 35.51071435071508 131.32687499999997 Q 35.188402103814035 131.43843749999996 34.842772907316366 131.49421875 Q 34.49707816257045 131.54999999999998 34.128328162570455 131.54999999999998 L 34.128328162570455 131.54999999999998 Q 33.70957816257045 131.54999999999998 33.29345240642084 131.50406249999997 Q 32.87728218053561 131.458125 32.46355859763005 131.36624999999998 Q 32.049657972886365 131.27437499999996 31.63785131655536 131.13656249999997 Q 31.225649507050093 130.99874999999997 30.815019109778056 130.815 Q 30.4036943518256 130.63125000000002 29.993256696839794 130.4015625 Q 29.581750951656527 130.171875 29.170297709172385 129.89625 Q 28.75733717015577 129.620625 28.343459547785383 129.2990625 Q 27.927581877834292 128.97749999999996 27.509702304044527 128.60999999999999 Q 27.08929167968177 128.2425 26.66570396443786 127.82906249999999 Q 26.239035104390602 127.41562499999999 25.80795428755037 126.95624999999998 Q 25.373246678082843 126.49687499999997 24.93286976647044 125.99156249999999 Q 24.4883532457663 125.48625 24.036931934447743 124.93499999999999 Q 23.580924643020445 124.38374999999999 23.11685089337087 123.78656249999999 Q 22.647850314427416 123.189375 22.169755298128297 122.54625000000001 Q 21.686542677917686 121.90312500000002 21.19340906912071 121.21406250000003 Q 20.695166900313875 120.525 20.186453786857395 119.79000000000002 Q 19.672107121358028 119.05312500000001 19.154004590415585 118.28730468750001 Q 18.631784961378195 117.521484375 18.10637016757272 116.72671875 Q 17.577832415790045 115.931953125 17.04699556464559 115.1082421875 Q 16.514291325776647 114.28453125000001 15.980550649583718 113.431875 Q 15.446476422900638 112.57921875 14.913021922029737 111.69761718749999 Q 14.381057925442002 110.81601562499999 13.851784176284022 109.90546875000001 Q 13.32612078965883 108.99492187500002 12.805645458242564 108.05542968750001 Q 12.291193793795257 107.11593750000002 11.784858270840491 106.14750000000002 Q 11.28724123056483 105.17906250000003 10.801089681078484 104.18167968750002 Q 10.326609797707517 103.18429687500002 9.867342928678177 102.15796875 Q 9.422923371961407 101.13164062499999 8.9978233997175 100.07636718749998 Q 8.590918798698524 99.02109374999999 8.207742478123874 97.93687500000001 Q 7.846216697182273 96.85265625000002 7.513053891982101 95.73949218750002 Q 7.205022635854081 94.62632812500001 6.930118792480784 93.48421875000003 Q 6.6837559304654475 92.34210937500002 6.475297991583506 91.17105468750003 Q 6.298605802694897 90.00000000000003 6.164472572645261 88.80000000000003 L 6.164472572645261 88.80000000000003 Q 6.087171250806781 87.90750000000003 6.037875415153755 87.02648437500002 Q 6.007597509849653 86.14546875000002 6.004563843363129 85.27593750000003 Q 6.0201893932458255 84.40640625000003 6.062120116224742 83.54835937500002 Q 6.122180720374417 82.69031250000002 6.207454579361184 81.84375000000003 Q 6.310178898889366 80.99718750000002 6.436896632574618 80.16210937500003 Q 6.580256005069168 79.32703125000002 6.746285542453991 78.50343750000002 Q 6.928038992987593 77.67984375000002 7.131059716516276 76.86773437500001 Q 7.348797739731812 76.05562500000002 7.586343237058218 75.25500000000001 Q 7.837529816005667 74.454375 8.107028634394727 73.66523437500001 Q 8.38904105148848 72.87609375000001 8.687855056895067 72.09843750000002 Q 8.998021139034547 71.32078125000001 9.323481166240168 70.55460937500001 Q 9.659113688514811 69.78843750000001 10.008552248204388 69.03375000000001 Q 10.366980297677049 68.27906250000001 10.737761180126583 67.53585937500002 Q 11.116358352194908 66.79265625000002 11.505903034676992 66.06093750000001 Q 11.90211239891893 65.32921875 12.30792322459596 64.608984375 Q 12.719279054487394 63.88875 13.138959204224252 63.18000000000001 Q 13.563105515531802 62.47125000000001 13.991058431647163 61.781132812500005 Q 14.42238140677454 61.091015625000004 14.856283140074797 60.41953125000001 Q 15.292560341670361 59.748046875000014 15.73034100672417 59.09519531250001 Q 16.1696053934759 58.442343750000006 16.609447859503348 57.80812500000001 Q 17.04998460559576 57.173906250000016 17.49031935392395 56.558320312500015 Q 17.93065911931413 55.94273437500001 18.370155898091248 55.345781250000016 Q 18.809065167920817 54.74882812500002 19.246622041471916 54.17050781250001 Q 19.683091115546794 53.59218750000001 20.11782146469092 53.032500000000006 Q 20.551050633938438 52.4728125 20.982268617096192 51.9317578125 Q 21.41165301544969 51.390703125 21.838857950498472 50.86828125 Q 22.263971519677572 50.345859375 22.68683159501841 49.842070312500006 Q 23.107410547799102 49.33828125000001 23.52574621946479 48.85312500000001 Q 23.94167233562282 48.36796875000002 24.355439716696132 47.901445312500016 Q 24.766723755956907 47.43492187500001 25.175998256045638 46.98703125000001 Q 25.58276372494204 46.539140625000016 25.987724151714545 46.10988281250001 Q 26.39019161688342 45.680625000000006 26.791104909241177 45.27000000000001 Q 27.190865685626136 44.857500000000016 27.58610866901617 44.470781250000016 Q 27.979055796144586 44.084062500000016 28.367972386669056 43.72312500000001 Q 28.754786136172328 43.362187500000005 29.138071913981502 43.02703125000001 Q 29.519464733508634 42.691875 29.8978359829695 42.38250000000001 Q 30.27453349121504 42.073125000000005 30.64870950167796 41.789531249999996 Q 31.02143368847794 41.5059375 31.392121195278353 41.248125 Q 31.76157571348705 40.9903125 32.129455352848716 40.758281249999996 Q 32.496312766411684 40.526250000000005 32.86202740067536 40.32000000000001 Q 33.22691823989907 40.11375 33.59106300046132 39.93328125000001 Q 33.954566469729514 39.752812500000005 34.31768036306256 39.598125 Q 34.680316547021654 39.4434375 35.04287547306198 39.31453125 Q 35.405098893539616 39.185625 35.76750993458235 39.082499999999996 Q 36.12970432126242 38.979375 36.492301172385815 38.90203125 Q 36.85477532469292 38.824687499999996 37.21781475287075 38.77312500000001 Q 37.58079938786867 38.721562500000005 37.94445862561247 38.695781249999996 Q 38.308104126342336 38.67 38.67247912634234 38.67 L 38.67247912634234 38.67 Q 39.113729126342335 38.67 39.54477635539888 38.702343750000004 Q 39.97580196914121 38.7346875 40.39653845253158 38.799375 Q 40.81718878090686 38.8640625 41.227378182664665 38.96109375 Q 41.637374896550625 39.058125000000004 42.03665532906547 39.1875 Q 42.43559614115087 39.316874999999996 42.823484658635145 39.47859375 Q 43.210848540216965 39.6403125 43.586747474076965 39.834374999999994 Q 43.96190179725159 40.028437499999995 44.32510714261015 40.25484375 Q 44.68731697729254 40.481249999999996 45.03702908570219 40.739999999999995 Q 45.386551273082816 40.995 45.715527110236664 41.25515625 Q 46.04324787022048 41.51531250000001 46.350354695884235 41.780625 Q 46.65619025233185 42.0459375 46.941348009274364 42.31640625 Q 47.22522184519972 42.586875000000006 47.48835817858511 42.862500000000004 Q 47.750201805492495 43.138125 47.99125284730099 43.41890625 Q 48.231006598942514 43.699687499999996 48.44991777592449 43.985625 Q 48.66753162468589 44.2715625 48.86425848789202 44.562656249999996 Q 49.05969288170964 44.85374999999999 49.23420195532588 45.14999999999999 L 49.23420195532588 45.14999999999999 L 48.14057467734322 47.93062499999999 L 46.9591703012053 50.711249999999986 L 45.71705388113054 53.49187499999999 L 44.442736413288465 56.272499999999994 L 43.16549580668524 59.05312499999999 L 41.91467958895112 61.833749999999995 L 40.71900595406326 64.614375 L 39.605879798526715 67.39499999999998 L 38.60074003556527 70.17562499999998 L 37.72645373194449 72.95624999999998 L 37.002771496902895 75.736875 L 36.445857093863275 78.51749999999998 L 36.06790247787646 81.29812499999998 L 35.876837427217836 84.07874999999999 L 35.876140684664634 86.85937499999999 L 36.064757106387745 89.63999999999999 Q 36.13168196583105 90.18 36.26451134433367 91.185 Q 36.42073196376534 92.19000000000001 36.68489577361851 93.66 Q 36.99247720877562 95.115 37.36209819791952 96.6 Q 37.56327462189776 97.34249999999997 37.779640290755445 98.09249999999997 Q 38.006287214584674 98.84249999999997 38.247756452265705 99.59999999999997 L 38.247756452265705 99.59999999999997 Q 38.66280394513239 100.83749999999998 39.06829281969855 101.89499999999997 Q 39.48987371028508 102.95249999999999 39.88825185955107 103.82999999999998 Q 40.29599002428374 104.70749999999997 40.67117597114297 105.40499999999997 Q 41.05134002436696 106.10249999999998 41.392914462327894 106.61999999999998 Q 42.07150606005125 107.63999999999999 42.59376424094939 108.14999999999999 Q 43.11776532506354 108.66 43.47776532506354 108.66 L 43.47776532506354 108.66 Q 43.80276532506353 108.66 43.98339735398997 108.3825 Q 44.164521738446304 108.10499999999999 44.20336046236508 107.55000000000001 Q 44.244505996246325 106.99500000000002 44.14853520960632 106.16250000000001 Q 44.05899429277666 105.33000000000001 43.84252802334453 104.22000000000003 Q 43.643293731705484 103.11750000000004 43.36572495075084 101.82375000000003 Q 43.112370610928934 100.53000000000002 42.799868414657695 99.04500000000002 Q 42.6577818617456 98.30250000000004 42.50562310558075 97.51218750000004 Q 42.365208541493516 96.72187500000003 42.21844092507921 95.88375000000002 Q 42.08584244256158 95.04562500000002 41.951053793490196 94.15968750000002 Q 41.83309243930509 93.27375 41.71751627593674 92.34 Q 41.62345993144719 91.41 41.53879997362105 90.46124999999999 Q 41.4752790142943 89.51249999999999 41.42354452668769 88.545 Q 41.3944247410234 87.5775 41.379351479320086 86.59124999999999 Q 41.3881734598461 85.60499999999999 41.41311393948719 84.6 Q 41.46298491668952 83.595 41.530797010244285 82.57124999999999 Q 41.62427808441951 81.5475 41.737210131839376 80.505 Q 41.876201186543376 79.4625 42.035776148011585 78.40125 Q 42.221401182582326 77.34 42.42830281736623 76.26 L 42.42830281736623 76.26 Q 42.76060237052073 74.74875 43.11247160073723 73.27617187499999 Q 43.50721571221268 71.80359375 43.911806127844436 70.3696875 Q 44.35163999323342 68.93578125 44.791718275067325 67.540546875 Q 45.259344285855605 66.14531249999999 45.718070936869104 64.78875000000001 Q 46.19687010663696 63.43218750000001 46.658348674206806 62.11429687500001 Q 47.13287119101187 60.79640625000001 47.58256781660239 59.51718750000001 Q 48.03889498089151 58.237968750000014 48.463933763848026 56.99742187500001 Q 48.88991941683181 55.756875 49.27926400093259 54.55500000000001 Q 49.66466769624732 53.35312500000001 50.00920279192998 52.18992187500001 Q 50.345729569342886 51.02671875000001 50.638257998451756 49.90218750000001 Q 50.91952089356104 48.77765625000001 51.15469241482127 47.69179687500001 Q 51.37611402218594 46.60593750000001 51.55030190767675 45.55875000000002 Q 51.70897065118221 44.51156250000002 51.82011097639571 43.50304687500002 Q 51.91460646341905 42.49453125000002 51.96201356797519 41.52468750000001 Q 51.992213723956816 40.55484375000002 51.97638349199632 39.62367187500003 Q 51.94326427070708 38.692500000000024 51.86567493319099 37.800000000000026 Q 51.771351850090014 36.909375000000026 51.631725976394065 36.074414062500026 Q 51.476480168613925 35.239453125000026 51.27941845931192 34.460156250000026 Q 51.06824058748844 33.680859375000026 50.818836088325796 32.957226562500026 Q 50.556938874175856 32.233593750000026 50.26038642631576 31.565625000000026 Q 49.953002031638675 30.897656250000026 49.61442048980234 30.285351562500026 Q 49.26664033893239 29.673046875000026 48.890934949874534 29.116406250000026 Q 48.507587952807945 28.559765625000026 48.09934830692369 28.058789062500026 Q 47.684912529616966 27.557812500000026 47.24834087180513 27.112500000000026 Q 46.8068832835036 26.667187500000026 46.34574777228725 26.277539062500026 Q 45.88088666169388 25.887890625000026 45.39849428893453 25.553906250000026 Q 44.91337917853826 25.219921875000026 44.41256341133358 24.941601562500026 Q 43.90986772511339 24.663281250000026 43.39298642881752 24.440625000000026 Q 43.134096921791304 24.329296875000026 42.871893872503975 24.231884765625026 Q 42.609462408351334 24.134472656250026 42.343848498746375 24.050976562500026 Q 42.078067167779636 23.967480468750026 41.80921538577438 23.897900390625026 Q 41.54024757941514 23.828320312500026 41.26830237207478 23.772656250000026 Q 40.9962830390673 23.716992187500026 40.7213605547535 23.675244140625026 Q 40.446396432987534 23.633496093750026 40.1685847323956 23.605664062500026 Q 39.89075454508875 23.577832031250026 39.61011377129267 23.563916015625026 Q 39.32946837867391 23.550000000000026 39.04603087867391 23.550000000000026 L 39.04603087867391 23.550000000000026 Q 38.60040587867391 23.550000000000026 38.167620309121304 23.584570312500027 Q 37.73480622668541 23.61914062500003 37.314717465081635 23.688281250000024 Q 36.89451447875089 23.757421875000023 36.48680808023279 23.861132812500024 Q 36.07884404556982 23.964843750000025 35.68303226534897 24.103125000000023 Q 35.28676096703219 24.241406250000026 34.90218065101514 24.414257812500026 Q 34.51687951878304 24.587109375000026 34.14268961155158 24.794531250000023 Q 33.76745718848338 25.00195312500002 33.40263619992889 25.243945312500017 Q 33.036389744452364 25.48593750000002 32.67973361023775 25.762500000000017 Q 32.321207307790836 26.039062500000014 31.971328174026716 26.350195312500013 Q 31.619072529761166 26.661328125000015 31.27439908775941 27.007031250000015 Q 30.92678216665565 27.352734375000015 30.585562257513534 27.733007812500013 Q 30.24077353052673 28.11328125000001 29.901079828834696 28.528125000000006 Q 29.557137469990593 28.942968750000002 29.216877137340372 29.392382812500003 Q 28.871639692729644 29.841796875 28.528568959971405 30.325781250000002 Q 28.179752369848657 30.809765624999997 27.831497056020766 31.328320312499994 Q 27.476698048941934 31.846874999999994 27.120781047025563 32.39999999999999 Q 26.75729371049171 32.95499999999999 26.392607223307373 33.535546874999994 Q 26.019952540399398 34.11609375 25.644851937642123 34.722187500000004 Q 25.26125752219717 35.32828125 24.87400055485312 35.959921875000006 Q 24.47777781472532 36.59156250000001 24.07672976473878 37.24875 Q 23.666316883504095 37.90593750000001 23.249996462441885 38.588671875 Q 22.82400631174483 39.271406250000005 22.391136384881765 39.979687500000004 Q 21.948409089567203 40.68796875 21.497971838617705 41.42179687500001 Q 21.037631508548486 42.15562500000001 20.568927420499115 42.915000000000006 Q 20.09044232331801 43.67437500000001 19.60315213614926 44.459296875000014 Q 19.10639731569531 45.244218750000016 18.600645766574846 46.054687500000014 Q 18.08596681540627 46.86515625000002 17.562386727422783 47.70117187500002 Q 17.030663104153227 48.53718750000002 16.490458020274225 49.39875000000002 Q 15.94316397076131 50.26031250000001 15.388167207376807 51.14742187500002 Q 14.827428013404791 52.034531250000015 14.26015567226399 52.94718750000002 Q 13.688796625285164 53.859843750000024 13.112491786499822 54.798046875000026 Q 12.534076983292781 55.73625000000002 11.952742021062804 56.70000000000002 Q 11.371393089779358 57.66562500000001 10.792984327768501 58.649414062500014 Q 10.21735755594052 59.63320312500001 9.647469442993089 60.63515625000001 Q 9.083159198948543 61.63710937500001 8.527678938897658 62.657226562500014 Q 7.980749872214069 63.67734375000001 7.446003664429938 64.715625 Q 6.922921200708087 65.75390625 6.4155948385373325 66.81035156249999 Q 5.923137260515463 67.866796875 5.450177972114459 68.94140625 Q 4.995329700322845 70.016015625 4.563829091255096 71.1087890625 Q 4.153655274903235 72.2015625 3.770713775689387 73.3125 Q 3.412216886869669 74.4234375 3.0847907356699915 75.55253906249999 Q 2.7847505223972036 76.681640625 2.519483016222037 77.82890624999999 Q 2.2842819032988695 78.97617187499999 2.0873214191892613 80.1416015625 Q 1.922758236711851 81.30703125 1.7995663408984344 82.490625 Q 1.7106620896192206 83.67421875 1.6658158961685778 84.8759765625 Q 1.6566161027705286 86.07773437499999 1.693609886617332 87.29765624999999 Q 1.7669889306147262 88.517578125 1.8880408106695477 89.75566406249999 Q 2.045514383209679 90.99375 2.251384631790053 92.25 L 2.251384631790053 92.25 Q 2.4003567190054698 93.04593750000001 2.565926118588398 93.832001953125 Q 2.744878767004095 94.61806640625001 2.939117866520591 95.3942578125 Q 3.1457383872154487 96.17044921875001 3.366305405260272 96.936767578125 Q 3.598209059387722 97.70308593750002 3.842706253085539 98.45953125000001 Q 4.362072469273623 99.97242187500001 4.9237278166564975 101.44582031250003 Q 5.517689590071698 102.91921875000003 6.143496865405707 104.353125 Q 6.79299533012458 105.78703125 7.4645922484068254 107.18144531250002 Q 8.1516777590851 108.57585937500002 8.852077905729075 109.93078125000002 Q 9.560407454774213 111.28570312500001 10.274415264950091 112.60113281250001 Q 10.98960018929993 113.91656250000001 11.704082941566947 115.19250000000002 Q 12.413899245946816 116.46843750000004 13.117930789327792 117.70488281250005 Q 13.81240870753313 118.94132812500004 14.497302931771092 120.13828125000003 Q 15.16871480867577 121.33523437500003 15.82796847608677 122.49269531250003 Q 16.4707349663564 123.65015625000004 17.099899751354084 124.76812500000003 Q 17.710434006654516 125.88609375000003 18.30693674660398 126.96457031250003 Q 18.88344501004158 128.04304687500004 19.446373556897335 129.08203125000006 Q 19.988628688996986 130.12101562500004 20.518498635126104 131.12050781250005 Q 21.02760081352874 132.12000000000003 21.526115979205528 133.08000000000004 Q 22.004547196298 134.03812500000004 22.471610602103432 134.93636718750003 Q 22.920015619809842 135.83460937500007 23.361322702487428 136.67296875000005 Q 23.785866503024856 137.51132812500003 24.207676700487447 138.28980468750004 Q 24.61474438689085 139.06828125000004 25.023387946692793 139.78687500000004 Q 25.419332530195607 140.50546875000003 25.820991937390517 141.16417968750002 Q 26.211939669174466 141.822890625 26.612485219633413 142.42171875000003 Q 27.00419244631426 143.02054687500004 27.409065214141975 143.5594921875 Q 27.80681952268763 144.09843750000002 28.220954175007133 144.57750000000001 Q 28.629512105122338 145.05656249999998 29.057291845864373 145.4757421875 Q 29.480845503427812 145.89492187500002 29.926081708304558 146.25421875 Q 30.14754716246249 146.4338671875 30.374832496486015 146.598544921875 Q 30.60147626910614 146.76322265625 30.834176742118707 146.9129296875 Q 31.066349846538273 147.06263671874999 31.304793407319355 147.197373046875 Q 31.5428119986162 147.33210937500002 31.787292075866866 147.451875 Q 32.03143800049173 147.571640625 32.28221406933961 147.67643554687498 Q 32.53273544333165 147.78123046875 32.790033604105986 147.8710546875 Q 33.04714539204674 147.96087890625 33.31115893544554 148.035732421875 Q 33.575043505742926 148.1105859375 33.84593344190896 148.17046875 Q 34.11674107736387 148.23035156249998 34.39463660970264 148.275263671875 Q 34.672485955592464 148.32017578125 34.95748488340348 148.3501171875 Q 35.242463318520784 148.38005859375 35.534632355675946 148.395029296875 Q 35.82679627489276 148.41 36.126171274892755 148.41 L 36.126171274892755 148.41 Q 36.37804627489276 148.41 36.63494874006197 148.399453125 Q 36.89184866534445 148.38890625 37.153765893801825 148.36781249999999 Q 37.415672955378916 148.34671874999998 37.6825769741903 148.31507812499999 Q 37.94945809017822 148.2834375 38.221305590028834 148.24125 Q 38.493112306282825 148.1990625 38.76984454141938 148.146328125 Q 39.04651291822733 148.09359375 39.328055573723326 148.0303125 Q 39.609506040931905 147.96703125 39.89576907007909 147.89320312499999 Q 40.18190625378043 147.81937499999998 40.47278368917015 147.73499999999999 Q 40.76349621384327 147.650625 41.0588659564757 147.555703125 Q 41.35402622725766 147.46078125 41.65374981880519 147.3553125 Q 41.95321378936234 147.24984375 42.25713617351907 147.13382812499998 Q 42.56074310580161 147.01781249999996 42.86869238547216 146.89124999999996 Q 43.17626460846357 146.76468749999998 43.488051806382046 146.62757812499996 Q 43.79939448179954 146.49046875 44.11481331302268 146.34281249999998 Q 44.429714216783296 146.19515624999997 44.7485408823663 146.03695312499997 Q 45.0667702115023 145.87874999999997 45.38876322354046 145.70999999999998 Q 45.710073439124386 145.54125 46.0293813686687 145.3644140625 Q 46.34793609996569 145.18757812500002 46.66434744649201 145.00265625 Q 46.9799315728969 144.817734375 47.293224156078814 144.6247265625 Q 47.60561192538178 144.43171875000002 47.9155529836288 144.230625 Q 48.22450813387636 144.02953125 48.53085447778301 143.8203515625 Q 48.83613041686379 143.611171875 49.13862864420387 143.39390625000001 Q 49.439968693886456 143.176640625 49.73835547300494 142.95128906250002 Q 50.03549318436012 142.72593750000004 50.32949561300188 142.49250000000004 Q 50.62215516031197 142.25906250000003 50.911491207077205 142.01753906250005 Q 51.19938786746638 141.77601562500007 51.483766903188574 141.52640625000004 Q 51.76660762929194 141.27679687500003 52.045731055690425 141.01910156250003 Q 52.32321514871017 140.76140625000005 52.59677713166729 140.49562500000002 Q 52.8685970221327 140.22984375000004 53.136285336877826 139.95597656250004 Q 53.40212748032583 139.68210937500004 53.66362447566656 139.40015625000004 Q 53.92317037028018 139.11820312500004 54.17815405879624 138.82816406250004 Q 54.431081391773276 138.53812500000004 54.67922667257249 138.24000000000004 L 54.67922667257249 138.24000000000004 L 54.76767998301292 139.753125 L 54.79986279974612 141.26625000000004 L 54.775547836662405 142.77937500000004 L 54.69490681438562 144.29250000000002 L 54.55850924752305 145.80562500000002 L 54.36731842255762 147.31875000000002 L 54.122684594787714 148.83187500000003 L 53.82633545236041 150.34500000000003 L 53.48036391474405 151.85812500000003 L 53.087213351811904 153.37125000000003 L 52.64966032792456 154.88437500000003 L 52.170794992878434 156.39750000000004 L 51.65399925820606 157.910625 L 51.102922912954945 159.42375 L 50.52145784762313 160.93687500000004 L 49.91371056829143 162.45000000000002 Q 49.55825992478249 162.74625 49.2024816259989 163.0341796875 Q 48.8459682266687 163.322109375 48.489273294812506 163.60171875 Q 48.131942271515406 163.881328125 47.77456208792379 164.1526171875 Q 47.41663588727854 164.42390625000002 47.05877979392057 164.686875 Q 46.70045921707531 164.94984374999999 46.34231557925679 165.20449218750002 Q 45.98378086471546 165.459140625 45.62551817033756 165.70546875 Q 45.26693010834442 165.95179687499996 44.908698092762044 166.1898046875 Q 44.55019916071673 166.4278125 44.192129947203235 166.65749999999997 Q 43.83384545652709 166.88718749999998 43.476054703282344 167.1085546875 Q 43.118093949073725 167.329921875 42.760681994608326 167.54296874999997 Q 42.40313940030282 167.75601562499997 42.046192399885854 167.9607421875 Q 41.689148649974406 168.16546874999997 41.33273969664407 168.36187499999997 Q 40.97626285129299 168.55828124999996 40.62045307569313 168.74636718749997 Q 40.26459966185344 168.93445312499998 39.9094393058758 169.11421874999996 Q 39.55425538016361 169.29398437499998 39.19978484004101 169.46542968749998 Q 38.845307019314475 169.63687499999997 38.4915578544258 169.79999999999998 Q 38.13864751534807 169.96124999999998 37.78893698744718 170.112421875 Q 37.439241079269834 170.26359374999998 37.09275060056935 170.4046875 Q 36.74628083368804 170.54578124999998 36.40301831709369 170.67679687499998 Q 36.059780058278996 170.80781249999998 35.71974778211058 170.92875 Q 35.37974121973034 171.0496875 35.042936942923184 171.16054687500002 Q 34.70615816875682 171.27140625 34.372576162035465 171.37218750000002 Q 34.039018168626896 171.47296875 33.708650160830494 171.563671875 Q 33.37830375372997 171.65437500000002 33.05113979282788 171.735 Q 32.72399441739843 171.815625 32.400023646019456 171.88617187500003 Q 32.07606812873688 171.95671875000005 31.755279474251708 172.01718750000003 Q 31.434502678615225 172.07765625000002 31.1168854579661 172.12804687500002 Q 30.799276855266115 172.17843750000003 30.484821294837445 172.21875000000003 Q 30.170371450104078 172.25906250000003 29.859069120979814 172.28929687500002 Q 29.54777009446884 172.31953125 29.239614263431836 172.33968750000003 Q 28.931459927998 172.35984375 28.626445824603167 172.36992187500002 Q 28.321432099273967 172.38000000000002 28.019557099273968 172.38000000000002 L 28.019557099273968 172.38000000000002 Q 27.73174459927397 172.38000000000002 27.450690337838488 172.37050781250002 Q 27.16963641185707 172.36101562500005 26.895342061616955 172.34203125000002 Q 26.621049039273867 172.32304687500002 26.353518225263056 172.2945703125 Q 26.08599034680704 172.26609375000004 25.82522852111929 172.22812500000003 Q 25.564471784181265 172.19015625000003 25.31048603083189 172.14269531250002 Q 25.05650796730563 172.09523437500002 24.8093067370999 172.03828125 Q 24.562116119928756 171.981328125 24.321708895087927 171.91488281250003 Q 24.0813153746925 171.84843750000002 23.847712262955973 171.77250000000004 Q 23.614125933015487 171.69656250000003 23.387337190928395 171.61113281250002 Q 23.160568083231027 171.52570312500004 22.94060356834613 171.43078125000002 Q 22.72066107645765 171.335859375 22.50752962823336 171.23144531250003 Q 22.29442185980248 171.12703125000002 22.088130609069758 171.01312500000003 Q 21.88186366669848 170.89921875000002 21.682417273704406 170.77582031250003 Q 21.482994464467616 170.65242187500002 21.29039428568626 170.51953125000003 Q 21.097815259590522 170.386640625 20.912058443728533 170.24425781250002 Q 20.72631826166246 170.101875 20.547396775581213 169.95000000000002 Q 20.1895778528217 169.64625 19.858982812440633 169.30453125000003 Q 19.528333079764202 168.9628125 19.22477213203896 168.58312500000002 Q 18.921001125892897 168.2034375 18.644083513595906 167.78578125 Q 18.366721595072324 167.36812500000002 18.1158511306353 166.91250000000002 Q 17.864205288298695 166.456875 17.638534291854093 165.96328125000002 Q 17.41164115985166 165.46968750000002 17.210022106441638 164.938125 Q 17.006599155155133 164.4065625 16.827535151994365 163.83703125 Q 16.64593131228489 163.26749999999998 16.487526854881487 162.66 Q 16.326299182499636 162.0525 16.18658663409595 161.4120703125 Q 16.04240186055032 160.771640625 15.918165028068987 160.09828124999999 Q 15.788265075319124 159.424921875 15.67648219092063 158.71863281249998 Q 15.55767366692615 158.01234374999999 15.454877836562147 157.273125 Q 15.343522032123936 156.53390625 15.24579726948928 155.76175781249998 Q 15.137811828854922 154.989609375 15.040802199951234 154.18453125 Q 14.931677042518773 153.379453125 14.830611560528972 152.5414453125 Q 14.715441707142546 151.7034375 14.60517764364582 150.83249999999998 Q 14.47871557685151 149.96156249999996 14.353802766488524 149.0576953125 Q 14.210532801738287 148.153828125 14.06530128439655 147.21703125 Q 13.899538119330817 146.28023437499996 13.728211057324962 145.31050781249996 Q 13.534224169876971 144.34078125 13.331057369111424 143.338125 Q 13.103222225260946 142.33546875000002 12.862670753901588 141.29988281250002 Q 12.595646839912646 140.264296875 12.312558156492809 139.19578125 Q 12.001492653185736 138.127265625 11.671324318225064 137.0258203125 Q 11.312078781728303 135.924375 10.931137235369977 134.79000000000002 Q 10.519907949737222 133.65562500000004 10.087814813364592 132.49511718750003 Q 9.626440226898705 131.334609375 9.143599493817092 130.14796875000002 Q 8.632543483905723 128.96132812500002 8.100217274461706 127.74855468750002 Q 7.541498587193372 126.53578125000001 6.962598827357229 125.296875 Q 6.3599444440642685 124.05796874999999 5.739171179267854 122.79292968749999 Q 5.098136571613224 121.52789062500001 4.442077508721041 120.23671875000001 Q 3.7701231822530543 118.945546875 3.0873036393901425 117.6282421875 Q 2.393817147074566 116.31093750000001 1.6946896049611675 114.9675 Q 0.9909424672181372 113.62406249999998 0.2878054560970875 112.25449218749999 Q -0.41316475039432454 110.88492187499997 -1.106327533115819 109.48921874999998 Q -1.7899181705250915 108.093515625 -2.457685753686988 106.67167968749999 Q -3.1080192382792378 105.24984375 -3.733872897630512 103.80187499999998 Q -4.334178976931356 102.35390625 -4.90093458131632 100.8798046875 Q -5.434024031084655 99.40570312499999 -5.924354212691859 97.90546874999998 Q -6.154144680869167 97.15535156249999 -6.371541429978927 96.39870117187499 Q -6.5776273629081725 95.64205078124998 -6.770216898440178 94.87886718749998 Q -6.950613262096589 94.11568359374998 -7.1164499854023475 93.34596679687498 Q -7.269269427282265 92.57624999999999 -7.406517458621862 91.79999999999998 L -7.406517458621862 91.79999999999998 Q -7.593603913393058 90.58499999999998 -7.736338504501686 89.38054687499998 Q -7.844408162482613 88.17609374999998 -7.908137395740115 86.9821875 Q -7.936936988459458 85.78828125 -7.922069111664483 84.60492187499999 Q -7.8726399413815695 83.4215625 -7.780827352343161 82.24875 Q -7.655410686807689 81.0759375 -7.489446562842347 79.91367187499999 Q -7.291371905624371 78.75140625 -7.055071680629838 77.5996875 Q -6.788631693914704 76.44796875 -6.486703128476107 75.306796875 Q -6.157018926138092 74.165625 -5.794924414712632 73.03500000000001 Q -5.407804803540987 71.904375 -4.991619387040024 70.784296875 Q -4.55341742574275 69.66421875 -4.08968574047733 68.55468750000001 Q -3.607155722329143 67.44515625000003 -3.1027508300476736 66.34617187500001 Q -2.582908488447869 65.24718750000001 -2.044895209512597 64.15875000000001 Q -1.4948836084900776 63.070312500000014 -0.9303886329585933 61.992421875000005 Q -0.35735184830105804 60.91453125000001 0.22655746118489595 59.84718750000001 Q 0.8155911294264291 58.77984375000001 1.4120176934877369 57.72304687500001 Q 2.0102416003780057 56.66625000000002 2.612558147188267 55.62000000000002 Q 3.2128562522320467 54.57375000000002 3.8101442319078904 53.54437500000003 Q 4.403086855841175 52.51500000000003 4.990354531439461 51.502500000000026 Q 5.5706204659121195 50.490000000000016 6.142942293241296 49.49437500000002 Q 6.705917983597712 48.498750000000015 7.259080919909181 47.520000000000024 Q 7.800873700675004 46.54125000000002 8.331382102766657 45.57937500000002 Q 8.848817868024646 44.61750000000002 9.3538839089064 43.67250000000003 Q 9.844491202934126 42.72750000000002 10.322012818476528 41.799375000000026 Q 10.783995382482887 40.871250000000025 11.232523777888687 39.96000000000002 Q 11.664723579660109 39.04875000000002 12.08342228965978 38.15437500000002 Q 12.48527500399262 37.260000000000026 12.87387241989397 36.38250000000002 Q 13.245357228303304 35.505000000000024 13.60409438867475 34.644375000000025 Q 13.945679836089951 33.783750000000026 14.275255134666379 32.940000000000026 Q 14.587842627100835 32.096250000000026 14.889354929517761 31.269375000000025 Q 15.174221287722661 30.442500000000024 15.449112775140229 29.632500000000025 Q 15.707853081850864 28.822500000000026 15.957852960766031 28.029375000000023 Q 16.192324759239362 27.23625000000002 16.41939479822065 26.460000000000022 Q 16.63166452233345 25.683750000000025 16.83755174222328 24.928593750000026 Q 17.029603010660026 24.173437500000023 17.217034516006535 23.439375000000023 Q 17.391640015627324 22.70531250000002 17.563386689495935 21.99234375000002 Q 17.723340330844234 21.279375000000023 17.88216966410947 20.58750000000002 Q 18.030242266254323 19.895625000000017 18.178877775375287 19.22484375000002 Q 18.31777931294758 18.55406250000002 18.458866394513745 17.904375000000016 Q 18.591214593758984 17.254687500000017 18.72729254262736 16.626093750000017 Q 18.855587504890167 15.99750000000002 18.989067329076697 15.390000000000018 Q 19.11567177845059 14.782500000000017 19.248819375547278 14.196093750000017 Q 19.37594406977893 13.609687500000017 19.51086828374507 13.044375000000016 Q 19.64056209099648 12.479062500000017 19.77920714180223 11.934843750000017 Q 19.913351267610537 11.390625000000016 20.057493036474302 10.867500000000014 Q 20.19779888231178 10.344375000000014 20.349044539338127 9.842343750000014 Q 20.497054683792847 9.340312500000014 20.65684516001044 8.859375000000014 Q 20.813936973191765 8.378437500000013 20.983551802840154 7.918593750000011 Q 21.150943231796187 7.458750000000011 21.3315073209853 7.02000000000001 Q 21.510264416583794 6.58125000000001 21.70415538128703 6.169921875000009 Q 21.896642330113405 5.758593750000008 22.104818033719713 5.374687500000007 Q 22.311923236971605 4.9907812500000075 22.53517207287456 4.6342968750000075 Q 22.757621968107017 4.277812500000007 22.996582156734206 3.9487500000000058 Q 23.234960526543095 3.6196875000000053 23.49013915781042 3.318046875000005 Q 23.744906012004872 3.0164062500000046 24.016697466975508 2.742187500000004 Q 24.288207165205126 2.4679687500000034 24.576910623241353 2.221171875000003 Q 24.865428973610808 1.9743750000000029 25.171264774764197 1.7550000000000026 Q 25.476984903401885 1.5356250000000022 25.800109590144668 1.3436718750000018 Q 26.123166427092656 1.1517187500000017 26.46368633500169 0.9871875000000014 Q 26.804169603527566 0.8226562500000012 27.162152907677093 0.685546875000001 Q 27.520118537746026 0.5484375000000008 27.89560569100331 0.43875000000000064 Q 28.271085603911153 0.3290625000000005 28.664098125843644 0.24679687500000036 Q 29.05710835672613 0.16453125000000024 29.467655948288524 0.10968750000000016 Q 29.878203087286014 0.05484375000000008 30.30628905778575 0.02742187500000004 Q 30.734375 0 31.180000000000003 0 L 31.180000000000003 0 Q 31.440937500000004 0 31.703802083162074 0.009082031250000025 Q 31.966666665296543 0.01816406250000005 32.23145832237234 0.0363281250000001 Q 32.49624996300664 0.05449218750000015 32.762968625147494 0.08173828125000022 Q 33.02968720405355 0.1089843750000003 33.298332631831634 0.1453125000000004 Q 33.56697779654866 0.1816406250000005 33.83754940732927 0.2270507812500006 Q 34.10812037588117 0.2724609375000008 34.38061700956294 0.3269531250000009 Q 34.92560605994777 0.4359375000000012 35.478288439418755 0.5812500000000016 Q 36.030953985811244 0.726562500000002 36.5912870895099 0.9082031250000024 Q 37.151579107245816 1.089843750000003 37.719488738556265 1.3078125000000036 Q 38.28731321314247 1.525781250000004 38.86266941309943 1.780078125000005 Q 39.43786796876944 2.0343750000000056 40.02046236900306 2.3250000000000064 Q 40.60278814596627 2.615625000000007 41.192307654040725 2.9425781250000083 Q 41.78139760254192 3.2695312500000093 42.37739463530619 3.6328125000000098 Q 42.97273848585658 3.9960937500000107 43.574598072622024 4.395703125000012 Q 44.17550436050976 4.795312500000013 44.782408573103986 5.231250000000014 Q 45.387968244096506 5.667187500000016 45.99885857723332 6.139453125000017 Q 46.60790688191617 6.611718750000019 47.22144540592679 7.12031250000002 Q 47.8325230028354 7.628906250000021 48.44705334125723 8.173828125000023 Q 49.05836777268129 8.718750000000025 49.67187721727251 9.300000000000026 Q 50.28126619310535 9.881250000000025 50.88686318225254 10.492734375000023 Q 51.48737846822328 11.104218750000022 52.08257258917786 11.745937500000021 Q 52.67159320637583 12.38765625000002 53.253552938961164 13.059609375000019 Q 53.82811600071822 13.731562500000019 54.39366423389592 14.433750000000018 Q 54.95046423574268 15.135937500000015 55.496082571868925 15.868359375000015 Q 56.031480230770455 16.600781250000015 56.55332384502212 17.363437500000014 Q 57.06336627438035 18.126093750000013 57.557291137623295 18.91898437500001 Q 58.037745157492175 19.71187500000001 58.499349407982784 20.535000000000007 Q 58.945749731738445 21.358125000000005 59.370430877811884 22.211484375000005 Q 59.778144770097626 23.06484375 60.16117420498762 23.948437499999997 Q 60.52548395365346 24.83203125 60.862099947420184 25.745859374999995 Q 61.17830411741203 26.659687499999997 61.46382400326299 27.603749999999994 Q 61.72735792758449 28.547812499999992 61.95730960658277 29.522109374999992 Q 62.16388490612728 30.496406249999993 62.33415704512475 31.50093749999999 Q 62.47991914753949 32.50546874999999 62.586928535470705 33.54023437499999 Q 62.66863018194611 34.57499999999999 62.709503642254475 35.639999999999986 Q 62.72369000477566 36.70687499999998 62.69347466461258 37.79988281249999 Q 62.63780416292684 38.89289062499999 62.53711065261866 40.01203124999999 Q 62.41184515772238 41.13117187499999 62.24159941189237 42.276445312499995 Q 62.04828959022172 43.42171875 61.810790185141364 44.593125 Q 61.55241280614736 45.764531250000005 61.25145781170171 46.96207031250001 Q 60.93252954638632 48.15960937500001 60.57351534554117 49.38328125000001 Q 60.20017453336561 50.60695312500001 59.790157805783174 51.85675781250001 Q 59.37020527961488 53.10656250000001 58.91791911758016 54.382500000000014 Q 58.46080911736966 55.65843750000002 57.97662438587506 56.96050781250001 Q 57.49339694244425 58.26257812500002 56.98922059165938 59.59078125000002 Q 56.49236760071662 60.91898437500002 55.98147076345843 62.27332031250002 Q 55.48472936715934 63.62765625000003 54.98149979049002 65.00812500000004 Q 54.49956869554664 66.38859375000003 54.01918441022381 67.79519531250003 Q 53.5673614320093 69.20179687500004 53.12538557631199 70.63453125000002 Q 52.71912801224847 72.06726562500002 52.3310283838729 73.52613281250001 Q 51.98544175350401 74.98500000000003 51.666042908940454 76.47000000000003 L 51.666042908940454 76.47000000000003 Z M 16.001790960470892 88.55999999999999 L 16.001790960470892 88.55999999999999 Q 16.14411001163164 89.88374999999999 16.3343499583753 91.11656250000001 Q 16.55983217576264 92.34937500000001 16.821096909678282 93.49125000000001 Q 17.110885095456798 94.63312500000002 17.425488897521078 95.68406250000004 Q 17.762541564796308 96.73500000000004 18.1148363986807 97.69500000000004 Q 18.484308070238562 98.65500000000003 18.860919640124777 99.52406250000004 Q 19.250295800603247 100.39312500000003 19.640150295972756 101.17125000000003 Q 20.03919971775118 101.94937500000005 20.43340132110448 102.63656250000004 Q 20.834003312296907 103.32375000000003 21.225615579821607 103.92000000000004 Q 22.01592489901035 105.10500000000003 22.749166033606762 105.99375000000003 Q 23.48990419173127 106.88250000000002 24.16161876584593 107.47500000000001 Q 24.83599677259954 108.0675 25.435349390704868 108.36375000000001 Q 26.03526532506354 108.66 26.55776532506354 108.66 L 26.55776532506354 108.66 Q 26.91776532506354 108.66 27.20474443176226 108.55031249999999 Q 27.49179778628879 108.44062499999998 27.70613424170086 108.22125 Q 27.9207886684401 108.001875 28.063396963044138 107.67281249999999 Q 28.206798827177288 107.34375 28.279316150242938 106.905 Q 28.35343649457676 106.46624999999999 28.358506487393512 105.9178125 Q 28.366460589111433 105.369375 28.308103980416455 104.71125 Q 28.254551048608825 104.05312500000001 28.138605186600767 103.2853125 Q 28.030205903732977 102.5175 27.86480444506712 101.63999999999999 Q 27.709451767882996 100.76249999999997 27.50658542750652 99.74812499999999 Q 27.320876155770687 98.73374999999999 27.09904452154511 97.58249999999998 Q 26.902046355884323 96.43124999999999 26.68346826621842 95.143125 Q 26.4992937401438 93.85499999999999 26.311330731795678 92.42999999999998 Q 26.234388700016005 91.71749999999999 26.160331238619403 90.97078124999999 Q 26.099244310166295 90.22406249999999 26.043800324440408 89.44312499999998 Q 26.00291909457696 88.66218749999999 25.970562605784824 87.84703124999999 Q 25.954379264380602 87.03187499999999 25.949681880796877 86.1825 Q 25.96274369961445 85.333125 25.99027660273046 84.44953124999999 Q 26.03707896604676 83.56593749999999 26.101293894038353 82.648125 Q 26.186152207954724 81.7303125 26.291241149503232 80.77828124999999 Q 26.418141723521074 79.82625 26.567875902495487 78.84 L 26.567875902495487 78.84 L 26.95876092375493 76.78875000000001 L 27.443258272436065 74.73750000000001 L 28.01566658952473 72.68625 L 28.669144095037936 70.635 L 29.39579734269807 68.58375000000001 L 30.186783617299362 66.5325 L 31.03242564642162 64.48125 L 31.922337138398788 62.43000000000001 Q 31.650905266044433 62.220000000000006 31.400520862198814 62.085 Q 31.15027269404109 61.949999999999996 30.920760840604157 61.889999999999986 Q 30.68989402296132 61.845000000000006 30.411966059362896 61.82250000000002 Q 30.13404170597329 61.800000000000026 29.809041705973286 61.800000000000026 L 29.809041705973286 61.800000000000026 Q 29.53904170597329 61.800000000000026 29.264917033605368 61.831171875000024 Q 28.990799301662197 61.86234375000002 28.712584818077982 61.92468750000002 Q 28.156240884134256 62.049375000000026 27.583902027270746 62.29875000000002 Q 27.012045377573784 62.54812500000003 26.42520859254078 62.92218750000003 Q 25.839569681920967 63.29625000000003 25.24069701855617 63.79500000000002 Q 24.644230567793137 64.29375000000002 24.03726814164787 64.91718750000001 Q 23.43460804725099 65.540625 22.825509202614942 66.28875000000002 Q 22.223527671606366 67.03687500000001 21.620858974260244 67.90968750000002 Q 21.029287607787865 68.78250000000001 20.444863528178274 69.78000000000002 Q 19.87691160377558 70.77750000000002 19.344386373483427 71.81906250000002 Q 18.831950590456415 72.860625 18.360386041166063 73.94625 Q 17.912761862742745 75.03187500000001 17.511883217378887 76.1615625 Q 17.138928114318887 77.29125 16.818896691537113 78.465 Q 16.530770863360573 79.63875 16.301882943824353 80.8565625 Q 16.108714870225167 82.074375 15.981023753795238 83.33624999999999 Q 15.892499306772839 84.59812499999998 15.875361466832043 85.9040625 Q 15.900239705092316 87.21 16.001790960470892 88.55999999999999 L 16.001790960470892 88.55999999999999 Z" fill="black" stroke="black" />
				</svg>