<svg
					xmlns="http://www.w3.org/2000/svg" xmlns:xlink="http://www.w3.org/1999/xlink"
					style="
						overflow: visible;
						height: 100;
					"
					viewBox="-7.997173821717014 0 46.5269112730231 154.23"
				>
					<path d="M 33.65871314372565 120.32999999999996 L 34.50172923429061 122.44874999999995 L 35.28977952422668 124.56749999999997 L 36.011957979268445 126.68624999999997 L 36.6582701827181 128.80499999999995 L 37.219771650794584 130.92374999999996 L 37.68869161768624 133.04249999999996 L 38.05854057721308 135.16125 L 38.32420009280177 137.27999999999997 L 38.48199363286932 139.39874999999995 L 38.52973745130609 141.51749999999998 L 38.46677080890993 143.63625 L 38.293965117528934 145.755 L 38.01371188036478 147.87374999999997 L 37.629889595333836 149.99249999999998 L 37.14781007951914 152.11124999999998 L 36.57414495754324 154.23 L 35.62008245754324 154.23 L 34.66601995754324 154.23 L 33.71195745754324 154.23 L 32.757894957543236 154.23 L 31.803832457543237 154.23 L 30.849769957543238 154.23 L 29.89570745754324 154.23 L 28.94164495754324 154.23 L 27.98758245754324 154.23 L 27.03351995754324 154.23 L 26.079457457543242 154.23 L 25.125394957543236 154.23 L 24.171332457543237 154.23 L 23.217269957543238 154.23 L 22.26320745754324 154.23 L 21.30914495754324 154.23 L 20.35508245754324 154.23 L 19.401019957543237 154.23 L 18.446957457543235 154.23 L 17.492894957543236 154.23 L 16.538832457543236 154.23 L 15.584769957543237 154.23 L 14.630707457543236 154.23 L 13.676644957543237 154.23 L 12.722582457543236 154.23 L 11.768519957543237 154.23 L 10.814457457543238 154.23 L 9.860394957543237 154.23 L 8.906332457543236 154.23 L 7.952269957543237 154.23 L 6.998207457543237 154.23 L 6.044144957543237 154.23 L 6.689633348659115 151.82015625 L 7.21539634179366 149.4103125 L 7.612024275711937 147.00046875 L 7.872418639215512 144.590625 L 7.991919114290268 142.18078125 L 7.968386982535421 139.7709375 L 7.80224340213601 137.36109375 L 7.49646187033002 134.95125000000002 L 7.056515006270511 132.54140625000002 L 6.4902766067180595 130.1315625 L 5.807880727487896 127.72171874999998 L 5.021540312692729 125.31187499999999 L 4.145328617801636 122.90203125 L 3.1949273384202193 120.4921875 L 2.187345952569965 118.08234375 L 1.14061729944133 115.67249999999999 L 0.07347484289440007 113.26265624999998 L -0.9949826042280393 110.85281249999998 L -2.045632694494423 108.44296874999999 L -3.0596717814804855 106.033125 L -4.018951451524302 103.62328125 L -4.906303328679772 101.2134375 L -5.705846339784155 98.80359374999998 L -6.403270940469536 96.39374999999998 L -6.986095215281514 93.98390624999999 L -7.443888268441761 91.57406249999998 L -7.768456907195749 89.16421874999997 L -7.953992276644891 86.75437499999998 L -7.997173821717014 84.34453124999999 L -7.897228715651699 81.9346875 L -7.65594569139981 79.52484374999999 L -7.277643028394484 77.115 L -6.769091267639249 74.70515625 L -6.139392038293308 72.2953125 L -5.399815164413173 69.88546875 L -4.5635969671764265 67.47562500000001 L -3.6457033724037173 65.06578125 L -2.6625620630801943 62.65593749999999 L -1.6317684705839168 60.24609375 L -0.5717708665414396 57.83624999999999 L 0.4984598087297503 55.42640624999999 L 1.5597694720608952 53.0165625 L 2.5931637010074344 50.60671875 L 3.5801476799518426 48.19687499999999 L 4.503057204666249 45.78703124999999 L 5.3453748212950805 43.37718749999999 L 6.092025441769753 40.96734375 L 6.7296461449808085 38.5575 L 7.246825335034373 36.14765625 L 7.6343069763408105 33.737812500000004 L 7.885156250308727 31.327968749999997 L 7.994883668860999 28.918124999999996 L 7.961525423494092 26.50828125 L 7.785678531861195 24.098437499999996 L 7.470490152855364 21.688593749999995 L 7.02160126142228 19.27875 L 6.447045691163148 16.868906250000002 L 5.757106351577854 14.459062499999998 L 4.964131193250472 12.049218749999998 L 4.082312214676566 9.639375 L 3.1274314658811067 7.229531249999999 L 2.1165785946393574 4.8196875 L 1.067844990419508 2.40984375 L 0 0 L 0.9540625 0 L 1.908125 0 L 2.8621875 0 L 3.81625 0 L 4.7703125 0 L 5.724375 0 L 6.6784375 0 L 7.6325 0 L 8.5865625 0 L 9.540625 0 L 10.494687500000001 0 L 11.44875 0 L 12.4028125 0 L 13.356875 0 L 14.310937500000001 0 L 15.265 0 L 16.2190625 0 L 17.173125 0 L 18.127187499999998 0 L 19.08125 0 L 20.035312500000003 0 L 20.989375000000003 0 L 21.9434375 0 L 22.8975 0 L 23.8515625 0 L 24.805625 0 L 25.7596875 0 L 26.71375 0 L 27.667812500000004 0 L 28.621875000000003 0 L 29.575937500000002 0 L 30.53 0 L 31.45790673523878 2.0924999999999994 L 32.37328779646179 4.184999999999999 L 33.263786591850405 6.277499999999998 L 34.117382411565075 8.369999999999997 L 34.922552693506695 10.462499999999997 L 35.66842856465625 12.554999999999996 L 36.34494155836355 14.647499999999996 L 36.942959527070215 16.739999999999995 L 37.45440991580156 18.832499999999996 L 37.872388732376905 20.924999999999994 L 38.191253743365785 23.01749999999999 L 38.4067006377518 25.109999999999992 L 38.51582113018221 27.202499999999993 L 38.51714221947629 29.29499999999999 L 38.41064607244756 31.38749999999999 L 38.197770264631316 33.47999999999999 L 37.67808276463131 33.47999999999999 L 37.15839526463132 33.47999999999999 L 36.63870776463132 33.47999999999999 L 36.11902026463132 33.47999999999999 L 35.59933276463131 33.47999999999999 L 35.07964526463132 33.47999999999999 L 34.55995776463132 33.47999999999999 L 34.04027026463132 33.47999999999999 L 33.520582764631314 33.47999999999999 L 33.00089526463132 33.47999999999999 L 32.48120776463132 33.47999999999999 L 31.961520264631318 33.47999999999999 L 31.441832764631318 33.47999999999999 L 30.922145264631318 33.47999999999999 L 30.40245776463132 33.47999999999999 L 29.88277026463132 33.47999999999999 L 29.36308276463132 33.47999999999999 L 28.84339526463132 33.47999999999999 L 28.32370776463132 33.47999999999999 L 27.80402026463132 33.47999999999999 L 27.28433276463132 33.47999999999999 L 26.76464526463132 33.47999999999999 L 26.24495776463132 33.47999999999999 L 25.72527026463132 33.47999999999999 L 25.20558276463132 33.47999999999999 L 24.68589526463132 33.47999999999999 L 24.16620776463132 33.47999999999999 L 23.64652026463132 33.47999999999999 L 23.126832764631317 33.47999999999999 L 22.607145264631317 33.47999999999999 L 22.087457764631317 33.47999999999999 L 21.567770264631317 33.47999999999999 L 21.349130208755327 34.99312499999999 L 21.077881835849812 36.50624999999999 L 20.755940795124232 38.01937499999998 L 20.38558074482601 39.532499999999985 L 19.96941729488479 41.04562499999999 L 19.510389534576362 42.55874999999998 L 19.01173927566438 44.07187499999998 L 18.476988157611775 45.58499999999998 L 17.909912776552865 47.09812499999998 L 17.31451801367382 48.61124999999998 L 16.695008751365666 50.12437499999997 L 16.05576017690006 51.637499999999974 L 15.401286883353468 53.15062499999998 L 14.736210985999667 54.66374999999997 L 14.065229479343545 56.17687499999997 L 13.393081065332023 57.68999999999997 L 14.356206065332024 57.68999999999997 L 15.319331065332024 57.68999999999997 L 16.282456065332024 57.68999999999997 L 17.245581065332026 57.68999999999997 L 18.208706065332024 57.68999999999997 L 19.171831065332025 57.68999999999997 L 20.134956065332027 57.68999999999997 L 21.098081065332025 57.68999999999997 L 22.061206065332023 57.68999999999997 L 23.024331065332024 57.68999999999997 L 23.987456065332026 57.68999999999997 L 24.950581065332024 57.68999999999997 L 25.913706065332022 57.68999999999997 L 26.876831065332023 57.68999999999997 L 27.839956065332025 57.68999999999997 L 28.803081065332023 57.68999999999997 L 27.880460437206196 59.78249999999996 L 26.977136949489193 61.87499999999997 L 26.105304430621143 63.96749999999997 L 25.276731617171123 66.05999999999997 L 24.50260328942519 68.15249999999996 L 23.793369289712828 70.24499999999996 L 23.158603461550786 72.33749999999998 L 22.60687441376359 74.42999999999996 L 22.14562985411665 76.52249999999995 L 21.781096053824818 78.61499999999997 L 21.51819380004998 80.70749999999997 L 21.360471970932288 82.79999999999995 L 21.310059629815804 84.89249999999996 L 21.36763728534134 86.98499999999996 L 21.532427705362252 89.07749999999996 L 21.80220640868479 91.16999999999996 L 20.83908140868479 91.16999999999996 L 19.87595640868479 91.16999999999996 L 18.912831408684788 91.16999999999996 L 17.94970640868479 91.16999999999996 L 16.986581408684792 91.16999999999996 L 16.02345640868479 91.16999999999996 L 15.060331408684789 91.16999999999996 L 14.09720640868479 91.16999999999996 L 13.134081408684793 91.16999999999996 L 12.170956408684791 91.16999999999996 L 11.20783140868479 91.16999999999996 L 10.244706408684792 91.16999999999996 L 9.28158140868479 91.16999999999996 L 8.318456408684792 91.16999999999996 L 7.355331408684791 91.16999999999996 L 6.39220640868479 91.16999999999996 L 6.7099121249659355 92.99249999999996 L 7.101264528081507 94.81499999999996 L 7.562255070656974 96.63749999999996 L 8.088161915252687 98.45999999999995 L 8.673598299236358 100.28249999999994 L 9.312567710356408 102.10499999999995 L 9.99852530786325 103.92749999999995 L 10.724444960054006 105.74999999999996 L 11.48289121158779 107.57249999999996 L 12.266095443424296 109.39499999999997 L 13.066035445294059 111.21749999999997 L 13.874517585654877 113.03999999999996 L 14.683260737483382 114.86249999999994 L 15.483981100265957 116.68499999999995 L 16.2684770493737 118.50749999999995 L 17.028713143725646 120.32999999999996 L 17.548400643725646 120.32999999999996 L 18.068088143725646 120.32999999999996 L 18.587775643725646 120.32999999999996 L 19.107463143725646 120.32999999999996 L 19.62715064372565 120.32999999999996 L 20.14683814372565 120.32999999999996 L 20.66652564372565 120.32999999999996 L 21.18621314372565 120.32999999999996 L 21.70590064372565 120.32999999999996 L 22.22558814372565 120.32999999999996 L 22.74527564372565 120.32999999999996 L 23.264963143725648 120.32999999999996 L 23.784650643725648 120.32999999999996 L 24.304338143725648 120.32999999999996 L 24.824025643725648 120.32999999999996 L 25.343713143725648 120.32999999999996 L 25.863400643725647 120.32999999999996 L 26.383088143725647 120.32999999999996 L 26.902775643725647 120.32999999999996 L 27.422463143725647 120.32999999999996 L 27.942150643725647 120.32999999999996 L 28.461838143725647 120.32999999999996 L 28.981525643725647 120.32999999999996 L 29.501213143725646 120.32999999999996 L 30.020900643725646 120.32999999999996 L 30.540588143725646 120.32999999999996 L 31.060275643725646 120.32999999999996 L 31.579963143725646 120.32999999999996 L 32.099650643725646 120.32999999999996 L 32.61933814372564 120.32999999999996 L 33.139025643725645 120.32999999999996 L 33.65871314372565 120.32999999999996 L 33.65871314372565 120.32999999999996 Z" fill="black" stroke="black" />
				</svg>