<svg
					xmlns="http://www.w3.org/2000/svg" xmlns:xlink="http://www.w3.org/1999/xlink"
					style="
						overflow: visible;
						height: 100;
					"
					viewBox="-7.960502668054917 1.4921397450962104e-12 60.67041949260643 158.55"
				>
					<path d="M 16.673478392035193 98.28000000000146 L 16.10341573786845 96.26812500000146 L 15.613679846157915 94.25625000000147 L 15.210382483181732 92.24437500000147 L 14.898556686674771 90.23250000000147 L 14.682093954932352 88.22062500000146 L 14.563695682005285 86.20875000000147 L 14.544839445061418 84.19687500000148 L 14.625760564637876 82.18500000000148 L 14.805449167906898 80.17312500000148 L 15.081662791604888 78.16125000000149 L 15.450954367343646 76.1493750000015 L 15.908715240054995 74.1375000000015 L 16.449232682710665 72.12562500000149 L 17.065761189549914 70.11375000000149 L 17.750606658095492 68.1018750000015 L 18.49522240938994 66.0900000000015 L 19.188034909389938 66.0900000000015 L 19.88084740938994 66.0900000000015 L 20.57365990938994 66.0900000000015 L 21.266472409389937 66.0900000000015 L 21.95928490938994 66.0900000000015 L 22.65209740938994 66.0900000000015 L 23.344909909389937 66.0900000000015 L 24.03772240938994 66.0900000000015 L 24.730534909389938 66.0900000000015 L 25.423347409389937 66.0900000000015 L 26.11615990938994 66.0900000000015 L 26.808972409389938 66.0900000000015 L 27.501784909389936 66.0900000000015 L 28.19459740938994 66.0900000000015 L 28.887409909389934 66.0900000000015 L 29.580222409389936 66.0900000000015 L 30.27303490938994 66.0900000000015 L 30.96584740938994 66.0900000000015 L 31.658659909389943 66.0900000000015 L 32.35147240938994 66.0900000000015 L 33.04428490938994 66.0900000000015 L 33.73709740938994 66.0900000000015 L 34.42990990938994 66.0900000000015 L 35.122722409389944 66.0900000000015 L 35.815534909389946 66.0900000000015 L 36.50834740938994 66.0900000000015 L 37.201159909389936 66.0900000000015 L 37.89397240938994 66.0900000000015 L 38.58678490938994 66.0900000000015 L 39.27959740938994 66.0900000000015 L 39.972409909389945 66.0900000000015 L 40.66522240938994 66.0900000000015 L 39.71426349941247 68.6887500000015 L 38.86725567099075 71.2875000000015 L 38.14182342850773 73.8862500000015 L 37.55306153650766 76.48500000000149 L 37.11322092845052 79.08375000000149 L 36.83145378978769 81.68250000000148 L 36.71362311966003 84.28125000000149 L 36.762180733850606 86.8800000000015 L 36.9761162475018 89.4787500000015 L 37.35097809916223 92.07750000000149 L 37.8789661786961 94.67625000000149 L 38.54909413165703 97.27500000000148 L 39.347417962903805 99.87375000000148 L 40.25732618268308 102.47250000000149 L 41.25988545783141 105.0712500000015 L 42.3342345758002 107.6700000000015 L 43.45801852391652 110.26875000000149 L 44.60785365157591 112.8675000000015 L 45.759814236291405 115.46625000000151 L 46.88993032915224 118.0650000000015 L 47.97468652054411 120.6637500000015 L 48.99151124783431 123.26250000000151 L 49.91924646352733 125.86125000000149 L 50.738587891055104 128.4600000000015 L 51.432486707377215 131.0587500000015 L 51.98650429419616 133.65750000000148 L 52.38911267613854 136.25625000000147 L 52.63193439439695 138.8550000000015 L 52.70991682455151 141.4537500000015 L 52.62143731137291 144.0525000000015 L 52.368336932966315 146.65125000000148 L 51.95588219169319 149.25000000000148 Q 51.659257170356945 149.5068750000015 51.35772737472787 149.7578906250015 Q 51.05480764660498 150.0089062500015 50.74713241076631 150.2540625000015 Q 50.43815025089491 150.4992187500015 50.12455667252171 150.7385156250015 Q 49.80973636902307 150.9778125000015 49.49044348629361 151.21125000000148 Q 49.17000118708316 151.4446875000015 48.845219852592805 151.6722656250015 Q 48.5193634602002 151.8998437500015 48.18929626088726 152.12156250000152 Q 47.85822537171358 152.3432812500015 47.52306659116783 152.5591406250015 Q 47.1869724755816 152.7750000000015 46.846908095187935 152.9850000000015 Q 46.505973714949434 153.1950000000015 46.16118145041321 153.3991406250015 Q 45.8155815100161 153.60328125000152 45.46623087992273 153.80156250000152 Q 45.11613190855288 153.9998437500015 44.76238433172871 154.1922656250015 Q 44.40794479265811 154.38468750000152 44.049953711221896 154.5712500000015 Q 43.69132413558111 154.7578125000015 43.32923516070348 154.93851562500151 Q 42.96655830270613 155.11921875000152 42.60050938022663 155.29406250000153 Q 42.23392039105341 155.4689062500015 41.864041984239414 155.63789062500152 Q 41.493668601924895 155.80687500000153 41.12008388879407 155.9700000000015 Q 40.746030946151684 156.13125000000153 40.373005311560675 156.28242187500152 Q 39.999598190975746 156.43359375000153 39.6273271184547 156.57468750000152 Q 39.25472965329546 156.7157812500015 38.88336727903823 156.84679687500153 Q 38.51172829683195 156.9778125000015 38.14141421528325 157.09875000000153 Q 37.77086829685621 157.2196875000015 37.40172830251434 157.33054687500152 Q 37.03239651290207 157.44140625000148 36.664543310031114 157.5421875000015 Q 36.29653389452123 157.6429687500015 35.930067768559795 157.7336718750015 Q 35.56347680797184 157.8243750000015 35.198486253140345 157.90500000000148 Q 34.8333982731399 157.98562500000148 34.469960571414646 158.0561718750015 Q 34.10644910130525 158.1267187500015 33.744630848547885 158.18718750000147 Q 33.38275892558475 158.24765625000148 33.0226165011932 158.2980468750015 Q 32.66243711702241 158.34843750000147 32.304017094006774 158.38875000000147 Q 31.94557358035429 158.42906250000146 31.588913073243035 158.45929687500148 Q 31.232239424465238 158.48953125000148 30.87736637291634 158.50968750000146 Q 30.522487503480683 158.52984375000148 30.169420889915855 158.53992187500148 Q 29.81635282531289 158.5500000000015 29.46510282531289 158.5500000000015 L 29.46510282531289 158.5500000000015 Q 29.001977825312892 158.5500000000015 28.558232212152348 158.51625000000146 Q 28.114470295870024 158.48250000000147 27.690022382229117 158.41500000000147 Q 27.26550874154384 158.34750000000147 26.860176794607206 158.24625000000145 Q 26.45469504265173 158.14500000000146 26.06819269779961 158.01000000000147 Q 25.681419295722584 157.87500000000148 25.313348527856498 157.7062500000015 Q 24.944844823822347 157.53750000000147 24.59468661970891 157.33500000000146 Q 24.243888668792138 157.13250000000147 23.91099160434471 156.8962500000015 Q 23.577198001806053 156.6600000000015 23.26076499667259 156.39000000000146 Q 22.94312302958317 156.12000000000148 22.642196629346838 155.81625000000147 Q 22.33968713405876 155.51250000000147 22.05313375895216 155.1750000000015 Q 21.764555165441653 154.83750000000148 21.49104886436477 154.46625000000148 Q 21.215001013345777 154.09500000000148 20.95300737312347 153.69000000000148 Q 20.68787580764684 153.2850000000015 20.435636788989992 152.84625000000148 Q 20.179578347689038 152.40750000000148 19.935098949339704 151.93500000000148 Q 19.686029621135404 151.46250000000148 19.44706740908111 150.9562500000015 Q 19.20265354530227 150.4500000000015 18.96671222023058 149.9100000000015 Q 18.724366334524355 149.37000000000148 18.491369731810895 148.79460937500147 Q 18.250884396044963 148.21921875000152 18.017696795941895 147.6084375000015 Q 17.775846231989107 146.99765625000148 17.53907397634387 146.3514843750015 Q 17.292385234442758 145.7053125000015 17.048401225660722 145.02375000000148 Q 16.79318401850764 144.3421875000015 16.53816489399532 143.6252343750015 Q 16.270554878368443 142.9082812500015 16.00053266498197 142.1559375000015 Q 15.716549917739272 141.4035937500015 15.427479831668071 140.6158593750015 Q 15.123104077568737 139.82812500000148 14.810949880620214 139.0050000000015 Q 14.482213714744898 138.1818750000015 14.143051646225453 137.3233593750015 Q 13.786152532261543 136.46484375000148 13.416294285710494 135.5709375000015 Q 13.027725483308842 134.67703125000148 12.623859971178668 133.74773437500147 Q 12.200559735020256 132.8184375000015 11.759912468900755 131.8537500000015 Q 11.299429859171374 130.8890625000015 10.819937662717411 129.88898437500148 Q 10.320612110325428 128.8889062500015 9.801109581466605 127.85343750000149 Q 9.26225997235995 126.81796875000148 8.702672639024765 125.74710937500147 Q 8.124790146268083 124.67625000000149 7.526327650982873 123.57000000000149 Q 6.911166838455436 122.4618750000015 6.27872818760506 121.3175390625015 Q 5.632036290577021 120.17320312500149 4.969956514872147 118.9926562500015 Q 4.296810541228933 117.81210937500151 3.611195735638818 116.5953515625015 Q 2.9185242545676817 115.3785937500015 2.2173940024339576 114.1256250000015 Q 1.5140513855901696 112.87265625000151 0.8073807650301462 111.5834765625015 Q 0.10415592042441446 110.29429687500149 -0.5961564409322264 108.9689062500015 Q -1.2866120345232301 107.6435156250015 -1.9668648897625065 106.28191406250149 Q -2.6302043385248925 104.9203125000015 -3.2751175213207446 103.52250000000149 Q -3.8955735638168494 102.12468750000149 -4.488625798226623 100.6906640625015 Q -5.0494033781302345 99.25664062500151 -5.5732917230662355 97.7864062500015 Q -5.820377110962812 97.05128906250148 -6.056423733107121 96.3071191406265 Q -6.2814879664787 95.5629492187515 -6.494306362128619 94.80972656250148 Q -6.69521931946706 94.05650390625148 -6.882697252236871 93.29422851562649 Q -7.057389594835752 92.53195312500148 -7.217489343179176 91.76062500000148 Q -7.363978795658887 90.98929687500149 -7.49476422155722 90.2089160156265 Q -7.6111831296222165 89.4285351562515 -7.710847906602446 88.6391015625015 Q -7.795471826237311 87.84966796875148 -7.862368558049418 87.05118164062648 Q -7.913645587424494 86.25269531250149 -7.946315505362587 85.44515625000149 Q -7.9628960273887515 84.63761718750149 -7.9600989108676785 83.82102539062649 Q -7.940865371349511 83.00443359375149 -7.901609293734946 82.1787890625015 Q -7.845705598254142 81.3531445312515 -7.76927605897193 80.51844726562649 Q -7.676136131912841 79.6837500000015 -7.562124097504725 78.8400000000015 L -7.562124097504725 78.8400000000015 Q -7.316578134004516 77.32875000000149 -7.012743204497593 75.84269531250149 Q -6.661054621775469 74.35664062500149 -6.258611232704601 72.8957812500015 Q -5.8146476275995855 71.43492187500149 -5.3280373087691615 69.9992578125015 Q -4.806857619517754 68.5635937500015 -4.251396473421228 67.1531250000015 Q -3.6686552390978497 65.74265625000149 -3.059967509600345 64.3573828125015 Q -2.43137304638197 62.9721093750015 -1.7848852032337588 61.61203125000149 Q -1.1257240531442052 60.25195312500149 -0.4562293071038235 58.917070312501494 Q 0.21903524692122134 57.582187500001496 0.8977364132877995 56.27250000000149 Q 1.5757880900935708 54.96281250000149 2.251169618802215 53.678320312501484 Q 2.9200850325985463 52.39382812500149 3.5811007027921637 51.13453125000149 Q 4.230520262458516 49.8752343750015 4.867736935405189 48.6411328125015 Q 5.488965940157204 47.407031250001495 6.094630760774209 46.1981250000015 Q 6.680677606949323 44.98921875000149 7.248726702172833 43.805507812501496 Q 7.7942862678359885 42.62179687500149 8.320303356424292 41.463281250001494 Q 8.821694267984729 40.304765625001494 9.302827992885966 39.17144531250149 Q 9.757892670355876 38.0381250000015 10.192741456448209 36.9300000000015 Q 10.599753343477964 35.823750000001496 10.985682679510084 34.749140625001495 Q 11.344931614815845 33.67453125000149 11.685035391223597 32.63156250000149 Q 11.999070692417698 31.588593750001497 12.296371834318219 30.577265625001495 Q 12.56863203111571 29.565937500001493 12.8269238983961 28.58625000000149 Q 13.061526713228144 27.606562500001488 13.285171505564733 26.65851562500149 Q 13.486718346138133 25.710468750001493 13.680462083800702 24.794062500001488 Q 13.853860787592486 23.877656250001486 14.022667853608947 22.992890625001486 Q 14.172976061447365 22.108125000001486 14.321885029449717 21.255000000001484 Q 14.454175389076417 20.401875000001482 14.58817679196905 19.580390625001485 Q 14.707424211812894 18.758906250001484 14.831360032255034 17.969062500001485 Q 14.942350418686186 17.179218750001482 15.060834396773648 16.42101562500148 Q 15.168093704743738 15.66281250000148 15.285451047841745 14.936250000001479 Q 15.393193039174104 14.209687500001476 15.513417765617483 13.514765625001477 Q 15.625508581764933 12.819843750001477 15.752236513464549 12.156562500001474 Q 15.872174008905533 11.493281250001475 16.00866932606477 10.861640625001474 Q 16.139575052823464 10.230000000001475 16.28872831543013 9.630000000001473 Q 16.43199440450514 9.028125000001474 16.596692894899675 8.463867187501476 Q 16.757829848963144 7.899609375001477 16.941789628085747 7.372968750001477 Q 17.123022316160803 6.846328125001479 17.328225979076233 6.357304687501481 Q 17.531387380224608 5.8682812500014805 17.759450636972076 5.416875000001482 Q 17.98602261589162 4.965468750001483 18.23823600557288 4.551679687501483 Q 18.489391738515746 4.137890625001484 18.76676308885285 3.761718750001485 Q 19.043409586504485 3.385546875001485 19.346705840189095 3.046992187501486 Q 19.649525319853815 2.708437500001487 19.979312636138534 2.4075000000014875 Q 20.30880176752643 2.106562500001488 20.665483058927517 1.8432421875014884 Q 21.02198934286636 1.5799218750014892 21.4058386207354 1.3542187500014895 Q 21.789593357434725 1.1285156250014898 22.200786436751272 0.9404296875014904 Q 22.40636530098511 0.8463867187514904 22.618814970264662 0.7617480468764906 Q 22.83125715628031 0.6771093750014908 23.050575155659935 0.601875000001491 Q 23.26988848274895 0.5266406250014911 23.49608114520138 0.4608105468764912 Q 23.72227106863068 0.3949804687514914 23.95534269093987 0.3385546875014915 Q 24.188412834717827 0.28212890625149156 24.428366169530694 0.2351074218764917 Q 24.66831879129537 0.18808593750149177 24.915155471142025 0.15046875000149185 Q 25.161991858919176 0.11285156250149192 25.415712752005227 0.08463867187649197 Q 25.669433552677916 0.05642578125149203 25.930039050330958 0.037617187501492066 Q 26.190644529729454 0.018808593751492103 26.458134765435513 0.009404296876492121 Q 26.725625000000665 1.4921397450962104e-12 27.000000000000668 1.4921397450962104e-12 L 27.000000000000668 1.4921397450962104e-12 Q 27.301875000000667 1.4921397450962104e-12 27.606445312232445 0.01054687500149204 Q 27.9110156228549 0.02109375000149194 28.218281232834535 0.04218750000149174 Q 28.525546817064985 0.06328125000149154 28.8355076169679 0.09492187500149124 Q 29.145468286516092 0.12656250000149094 29.45812390137268 0.16875000000149054 Q 29.77077910424819 0.21093750000149014 30.086128621594046 0.26367187500148964 Q 30.40147713314821 0.31640625000148914 30.719518736164687 0.37968750000148854 Q 31.03755825365225 0.44296875000148794 31.358288757880402 0.5167968750014873 Q 31.679015398654503 0.5906250000014865 32.002429692444345 0.6750000000014857 Q 32.32583739599421 0.759375000001485 32.65192778496995 0.8542968750014841 Q 32.97800761914969 0.9492187500014831 33.30676307513857 1.0546875000014821 Q 33.63550244712642 1.160156250001481 33.96690776222202 1.27617187500148 Q 34.29828953500037 1.392187500001479 34.63232438171919 1.5187500000014778 Q 34.966325897184994 1.6453125000014766 35.302963796035364 1.782421875001475 Q 35.63955580624545 1.9195312500014738 35.97876300246889 2.0671875000014728 Q 36.31790851100376 2.2148437500014713 36.659642762777295 2.3730468750014695 Q 37.00129577877715 2.531250000001468 37.34550505978944 2.7000000000014666 Q 37.68960926788441 2.8687500000014676 38.03184310672833 3.0438281250014683 Q 38.37394957145973 3.21890625000147 38.71415272074933 3.4003125000014705 Q 39.05420328708021 3.581718750001471 39.392313142842895 3.769453125001472 Q 39.730242091529405 3.957187500001473 40.06618816372536 4.151250000001474 Q 40.40192167976859 4.345312500001475 40.73562505656616 4.5457031250014746 Q 41.06908069244599 4.746093750001475 41.40045350062343 4.952812500001476 Q 42.062327458599285 5.366250000001477 42.71550930935556 5.805000000001478 Q 43.36718478561149 6.243750000001478 44.00960018277466 6.707812500001479 Q 44.6500796778168 7.171875000001479 45.280620803065 7.661250000001479 Q 45.90872054341106 8.15062500000148 46.526083441180006 8.665312500001479 Q 47.14041797506383 9.180000000001478 47.74308793322546 9.720000000001477 L 47.74308793322546 9.720000000001477 L 48.21765646593178 11.758125000001478 L 48.629956221655235 13.796250000001478 L 48.97119285228773 15.83437500000148 L 49.23348212597998 17.87250000000148 L 49.4099509016988 19.91062500000148 L 49.49482515459036 21.948750000001482 L 49.48350392479531 23.986875000001483 L 49.37261824264201 26.025000000001484 L 49.160074275553804 28.063125000001484 L 48.84508014408153 30.101250000001485 L 48.42815606362418 32.139375000001486 L 47.91112768195105 34.17750000000149 L 47.297102697852964 36.21562500000149 L 46.590431060370804 38.25375000000149 L 45.79664925833613 40.29187500000149 L 44.92240941371606 42.33000000000149 Q 44.73840755213746 41.82000000000149 44.5357734977455 41.3414062500015 Q 44.328910034971784 40.862812500001496 44.10432361447428 40.4156250000015 Q 43.87588100684849 39.9684375000015 43.63064438793469 39.5526562500015 Q 43.38195026471792 39.136875000001496 43.117390187848514 38.75250000000149 Q 42.849783053944016 38.36812500000149 42.56721934815178 38.015156250001496 Q 42.282019056997115 37.662187500001494 41.98273773549855 37.340625000001495 Q 41.68122039958709 37.019062500001496 41.36645097028106 36.7289062500015 Q 41.04982792168323 36.4387500000015 40.72072450660132 36.1800000000015 Q 40.39068779012254 35.925000000001496 40.04773738153785 35.70187500000149 Q 39.70366091150042 35.47875000000149 39.34730168461774 35.28750000000149 Q 38.99010702680077 35.09625000000149 38.62117903724836 34.93687500000149 Q 38.251666355668064 34.77750000000148 37.870883896109596 34.650000000001484 Q 37.48972496625959 34.522500000001486 37.097670621998255 34.42687500000149 Q 36.7054035583797 34.33125000000148 36.30252380790692 34.267500000001476 Q 35.89954922127002 34.20375000000148 35.48615132823065 34.17187500000148 Q 35.07272968290782 34.14000000000148 34.64897968290782 34.14000000000148 L 34.64897968290782 34.14000000000148 Q 34.36147968290783 34.14000000000148 34.0774800695468 34.16449218750148 Q 33.793466430610565 34.18898437500148 33.512897102001716 34.23796875000148 Q 33.23227174931934 34.286953125001475 32.954978790449644 34.36042968750148 Q 32.67756007543291 34.43390625000148 32.40330648215804 34.53187500000148 Q 32.12883008151179 34.629843750001484 31.857296932921944 34.75230468750148 Q 31.585417219205 34.87476562500147 31.316205358343865 35.021718750001476 Q 30.776294687369568 35.31562500000148 30.24501569819185 35.70750000000148 Q 29.710263829550776 36.09937500000148 29.180742129458817 36.58921875000148 Q 28.645917098246795 37.079062500001484 28.112230858419295 37.66687500000148 Q 27.571149199698358 38.25468750000149 27.026564519818102 38.940468750001486 Q 26.47234850878922 39.62625000000149 25.909634608158804 40.41000000000149 Q 25.336170058258574 41.19000000000149 24.755745881360838 42.03468750000149 Q 24.162608757217498 42.87937500000149 23.559773212252185 43.788750000001485 Q 22.94364809132818 44.69812500000148 22.315621850093073 45.672187500001485 Q 21.674288884220342 46.64625000000148 21.019620233081568 47.68500000000148 Q 20.352359664573576 48.72375000000147 19.671350718013418 49.82718750000147 Q 18.9793780853562 50.93062500000147 18.27453224081701 52.09875000000147 Q 17.561444676223584 53.26687500000148 16.837911235352177 54.49968750000147 Q 16.11011694481271 55.73250000000147 15.376100056201071 57.030000000001465 Q 14.643194112018245 58.327500000001464 13.919501300491707 59.65828125000147 Q 13.203321811142805 60.98906250000147 12.503469484218815 62.35312500000147 Q 11.818169794389327 63.71718750000148 11.157211441083144 65.11453125000148 Q 10.51832879013364 66.51187500000148 9.912530630886113 67.94250000000149 Q 9.336611453309485 69.3731250000015 8.803016883143538 70.8370312500015 Q 8.307130411707627 72.3009375000015 7.863012166954412 73.7981250000015 Q 7.65776268637196 74.5467187500015 7.4672094049222 75.30363281250149 Q 7.288867906991378 76.06054687500149 7.12635907212441 76.8257812500015 Q 6.976903403868894 77.59101562500149 6.84437573479665 78.3645703125015 Q 6.725680024185872 79.1381250000015 6.624952555413289 79.9200000000015 L 6.624952555413289 79.9200000000015 Q 6.485344271928027 81.27000000000149 6.403832667084058 82.57992187500149 Q 6.364341758040303 83.88984375000149 6.378586932823303 85.1596875000015 Q 6.432623528260813 86.42953125000149 6.53528223988888 87.6592968750015 Q 6.674805315770456 88.8890625000015 6.8573573650370845 90.07875000000149 Q 7.073365136078627 91.26843750000148 7.3265753301815435 92.4180468750015 Q 7.609545490561704 93.5676562500015 7.923870550958997 94.6771875000015 Q 8.264141538796448 95.78671875000148 8.630075666461586 96.85617187500148 Q 9.018164707552813 97.92562500000149 9.426521653214412 98.95500000000149 Q 9.853379101086478 99.98437500000149 10.295511897006566 100.97367187500149 Q 10.752714320811792 101.9629687500015 11.220676332543828 102.9121875000015 Q 11.700562952965587 103.8614062500015 12.187215665243077 104.77054687500149 Q 12.68297417722286 105.67968750000149 13.182048225604008 106.54875000000149 Q 13.687756872035195 107.41781250000149 14.193873373721825 108.24679687500148 Q 14.704506452552934 109.07578125000148 15.213165783113324 109.86468750000151 Q 15.724569688597825 110.65359375000152 16.23211460048443 111.40242187500152 Q 16.740961118974184 112.15125000000151 17.2445205989325 112.8600000000015 Q 17.74886859203795 113.5687500000015 18.243323188332926 114.23320312500151 Q 18.737090413492727 114.89765625000149 19.220340889858694 115.5178125000015 Q 19.70231838183976 116.1379687500015 20.17349103293593 116.71382812500151 Q 20.64302976675255 117.2896875000015 21.101749833283243 117.82125000000151 Q 21.55865999889384 118.35281250000152 22.004953859203496 118.84007812500153 Q 22.449409048297095 119.32734375000152 22.88361244109241 119.77031250000151 Q 23.316060650183868 120.2132812500015 23.738734435930144 120.6119531250015 Q 24.159817100467674 121.01062500000151 24.571671452436913 121.36500000000152 Q 24.98215116726507 121.7193750000015 25.383978593977453 122.02945312500151 Q 25.784675740456574 122.33953125000153 26.17729297106962 122.60531250000153 Q 26.569031150427392 122.87109375000153 26.95322965199771 123.09257812500152 Q 27.336789605610257 123.31406250000153 27.713294332870685 123.49125000000151 Q 28.089375899511086 123.6684375000015 28.45881179005818 123.8013281250015 Q 28.828003393883186 123.9342187500015 29.19086910082282 124.02281250000152 Q 29.553624268607855 124.11140625000152 29.910272655795985 124.15570312500152 Q 30.266893115106146 124.20000000000151 30.617518115106147 124.20000000000151 L 30.617518115106147 124.20000000000151 Q 30.92501811510615 124.20000000000151 31.253399111466916 124.1662500000015 Q 31.581763882259406 124.1325000000015 31.930944919605793 124.0650000000015 Q 32.28006157264595 123.99750000000151 32.64986658964157 123.89625000000149 Q 33.019528694487164 123.7950000000015 33.409691228880476 123.66000000000149 Q 33.802104594310144 123.52500000000148 34.13966909597252 123.38437500000148 Q 34.47696948953633 123.24375000000148 34.759385190713964 123.09750000000147 Q 35.04152234807347 122.95125000000145 35.26873926378508 122.79937500000146 Q 35.49566385228337 122.64750000000146 35.66763315259185 122.49000000000144 L 35.66763315259185 122.49000000000144 L 35.07123746748815 120.97687500000146 L 34.45089169817163 119.46375000000145 L 33.81097693961384 117.95062500000144 L 33.156012489712225 116.43750000000145 L 32.490623932455485 114.92437500000146 L 31.819510470460173 113.41125000000144 L 31.147411737587152 111.89812500000144 L 30.479074326018782 110.38500000000145 L 29.819218264193957 108.87187500000147 L 29.172503682345543 107.35875000000146 L 28.543497901059435 105.84562500000145 L 27.936643175287294 104.33250000000146 L 27.35622532161569 102.81937500000147 L 26.80634345035681 101.30625000000146 L 26.29088101622299 99.79312500000145 L 25.813478392035194 98.28000000000146 L 25.242228392035194 98.28000000000146 L 24.670978392035195 98.28000000000146 L 24.099728392035196 98.28000000000146 L 23.528478392035197 98.28000000000146 L 22.957228392035198 98.28000000000146 L 22.3859783920352 98.28000000000146 L 21.8147283920352 98.28000000000146 L 21.243478392035193 98.28000000000146 L 20.672228392035194 98.28000000000146 L 20.100978392035195 98.28000000000146 L 19.529728392035196 98.28000000000146 L 18.958478392035197 98.28000000000146 L 18.387228392035198 98.28000000000146 L 17.8159783920352 98.28000000000146 L 17.2447283920352 98.28000000000146 L 16.673478392035193 98.28000000000146 L 16.673478392035193 98.28000000000146 Z" fill="black" stroke="black" />
				</svg>