<svg
					xmlns="http://www.w3.org/2000/svg" xmlns:xlink="http://www.w3.org/1999/xlink"
					style="
						overflow: visible;
						height: 100;
					"
					viewBox="-7.996730126204898 0 41.48672629542884 202.61999999999998"
				>
					<path d="M -0.528868577401119 202.61999999999998 L -0.528868577401119 202.61999999999998 Q -0.8251185774011187 202.61999999999998 -1.1131754325194647 202.60968749999995 Q -1.4012297503763183 202.59937499999995 -1.6810807727580048 202.57874999999996 Q -1.960921641459449 202.558125 -2.2325388996417326 202.5271875 Q -2.5041332948149577 202.49624999999997 -2.7674735726606636 202.45499999999996 Q -3.2940320414520556 202.37249999999995 -3.787314172198409 202.24874999999997 Q -4.280229059268284 202.125 -4.73937658819692 201.95999999999998 Q -5.194656077359234 201.80249999999995 -5.621954223196049 201.62999999999994 Q -6.048533200485884 201.45749999999998 -6.446877798848297 201.26999999999998 Q -6.844369336586787 201.08249999999998 -7.213350165990489 200.87999999999994 Q -7.581332162001564 200.67749999999995 -7.920503771617827 200.45999999999998 L -7.920503771617827 200.45999999999998 L -7.996730126204898 198.435 L -7.971854563571798 196.41 L -7.846191583149471 194.385 L -7.621329930343079 192.36 L -7.3001125101712026 190.33500000000004 L -6.886600444681391 188.31 L -6.386021728560839 186.285 L -5.8047051320844805 184.26 L -5.150000187059469 182.235 L -4.430184267376236 180.21000000000004 L -3.6543579389382135 178.18500000000003 L -2.8323299020512946 176.16000000000003 L -1.9744929809356777 174.135 L -1.091692728213295 172.11 L -0.19509030559199364 170.08500000000004 L 0.7039786256666194 168.06000000000003 Q 0.921724116670482 168.21750000000003 1.142139690257688 168.384375 Q 1.3625071103637079 168.55125 1.5855465501550572 168.7275 Q 1.8085468680875567 168.90375 2.0342259255895527 169.089375 Q 2.2598786781334512 169.275 2.4882224396858876 169.47000000000003 Q 2.7198903531690974 169.65750000000003 2.983641157631446 169.79812500000003 Q 3.247396088589064 169.93875000000003 3.5432368853851632 170.03250000000003 Q 3.8390823415433983 170.12625000000003 4.16700716999825 170.17312500000003 Q 4.494933587013049 170.22000000000003 4.85493358701305 170.22000000000003 L 4.85493358701305 170.22000000000003 Q 5.323683587013049 170.22000000000003 5.801892891897635 170.11359375000004 Q 6.280109458214229 170.00718750000004 6.767807766234546 169.79437500000003 Q 7.255515291642514 169.58156250000002 7.752689942134028 169.26234375000004 Q 8.24981096963924 168.94312500000004 8.756228512689907 168.5175 Q 9.262365819188515 168.09187500000002 9.77729521696686 167.55984375 Q 10.291416468499058 167.0278125 10.813256927251421 166.38937500000003 Q 11.33328662974336 165.75093750000002 11.859107710450838 165.00609375 Q 12.381437146073047 164.26125 12.906446618349577 163.41 Q 13.425381885255627 162.55875 13.960694659975886 161.5978125 Q 14.486151685046016 160.636875 15.021271683835714 159.56625 Q 15.541362720670069 158.495625 16.062090600143392 157.31531249999998 Q 16.561062277827965 156.135 17.04908403626862 154.84499999999997 Q 17.507012931144466 153.55499999999998 17.939755745678966 152.15531249999998 Q 18.332569543489587 150.755625 18.68346344086781 149.24625 Q 18.8399356757446 148.49156250000001 18.98244913714288 147.709453125 Q 19.11078783840712 146.92734375 19.22272901772207 146.1178125 Q 19.319050818470863 145.30828125000002 19.396481663517555 144.471328125 Q 19.456875331187447 143.634375 19.495872280605237 142.77 L 19.495872280605237 142.77 L 19.511446288875273 140.53921875 L 19.40443499378899 138.3084375 L 19.17647990197691 136.07765625 L 18.831077745203388 133.846875 L 18.373526842025225 131.61609375 L 17.81084582389403 129.3853125 L 17.15166597240855 127.15453125 L 16.40609881921647 124.92375 L 15.585581039525596 122.69296874999999 L 14.702699018490366 120.4621875 L 13.770995781548745 118.23140625000002 L 12.804763250314158 116.00062500000001 L 11.818823010726446 113.76984375 L 10.828298956382849 111.5390625 L 9.848385294601332 109.30828125 L 8.894113473902012 107.07750000000001 L 7.980121608137645 104.84671875000002 L 7.120429934206508 102.61593750000002 L 6.328225747728478 100.38515625000001 L 5.6156611156773195 98.154375 L 4.993666468969214 95.92359375000001 L 4.4717829344160736 93.6928125 L 4.058015977998299 91.46203125 L 3.7587126045055 89.23125 L 3.5784639972490355 87.00046875000001 L 3.520035091310917 84.7696875 L 3.5843221606446045 82.53890625000001 L 3.7703390696231693 80.30812500000002 L 4.075232399930042 78.07734375000001 L 4.49432522075246 75.8465625 L 5.021188830861895 73.61578125000001 L 5.647741372089258 71.385 L 6.364371801507062 69.15421875 L 7.160087320639406 66.9234375 L 8.022682000199884 64.69265625 L 8.938924013727412 62.461875 L 9.894758608037646 60.23109375 L 10.87552369701169 58.00031250000001 L 11.866174771607362 55.76953125 L 12.851515676071386 53.53875000000001 L 13.816431710346128 51.30796875000001 L 14.746121482981385 49.0771875 L 15.626323958028694 46.84640625 L 16.443537213117786 44.615625 L 17.185225553061493 42.38484375 L 17.840011801956823 40.15406250000001 L 18.397851824105075 37.92328125 L 18.850188596676155 35.6925 L 19.190083470709613 33.46171875 L 19.412322606965773 31.2309375 L 19.51349695394747 29.000156250000003 L 19.492054541264327 26.769375000000004 L 19.348324286182187 24.53859375 L 19.0845109481756 22.3078125 L 18.70466130887831 20.077031250000005 L 18.214602096216648 17.84625 L 17.62185060494241 15.61546875 L 16.935499384607482 13.384687500000002 L 16.166076763816257 11.15390625 L 15.325385350253192 8.923125 L 14.426320983824526 6.692343750000001 L 13.482674920094219 4.4615625 L 12.508922278433888 2.23078125 L 11.52 0 L 12.393125 0 L 13.26625 0 L 14.139375000000001 0 L 15.012500000000001 0 L 15.885625000000001 0 L 16.758750000000003 0 L 17.631875 0 L 18.505000000000003 0 L 19.378125000000004 0 L 20.251250000000002 0 L 21.124375 0 L 21.997500000000002 0 L 22.870625000000004 0 L 23.743750000000002 0 L 24.616875 0 L 25.490000000000002 0 L 26.453695603476355 2.17359375 L 27.403355838344602 4.3471875 L 28.325149748646496 6.520781250000001 L 29.20565222663523 8.694375 L 30.03203953751909 10.867968750000001 L 30.792276085743342 13.041562500000001 L 31.475289702725718 15.215156250000001 L 32.07113290313566 17.38875 L 32.57112776116317 19.562343750000004 L 32.96799229678337 21.735937500000002 L 33.255946531313356 23.90953125 L 33.43079666765649 26.083125000000003 L 33.489996169223936 28.256718750000005 L 33.432682847973204 30.430312500000003 L 33.2596914214095 32.60390625 L 32.9735413556683 34.7775 L 32.57840017173385 36.951093750000005 L 32.08002274920583 39.12468750000001 L 31.485667511600884 41.29828125 L 30.803990713875287 43.471875000000004 L 30.044920371777124 45.645468750000006 L 29.21951166913457 47.8190625 L 28.339785948944446 49.99265625000001 L 27.418555633212584 52.166250000000005 L 26.46923762143258 54.33984375 L 25.50565788538803 56.51343750000001 L 24.54185010618104 58.68703125000001 L 23.59185128615939 60.860625000000006 L 22.669497312472668 63.03421875 L 21.78822144969233 65.2078125 L 20.96085869627114 67.38140625000001 L 20.199458854216072 69.555 L 19.515111034448516 71.72859375 L 18.9177821537749 73.90218750000001 L 18.416171775615773 76.07578125 L 18.01758540860862 78.24937500000001 L 17.727828108377782 80.42296875 L 17.551119932066776 82.5965625 L 17.4900344769626 84.77015625000001 L 17.545461398342166 86.94375000000001 L 17.71659345243518 89.11734375 L 18.00093825321104 91.29093750000001 L 18.39435457176272 93.46453125000002 L 18.891112649619387 95.638125 L 19.483977647578072 97.81171875000003 L 20.16431501469635 99.98531250000002 L 20.92221624284062 102.15890625000002 L 21.74664317528672 104.33250000000001 L 22.6255887676468 106.50609375 L 23.546251959782428 108.6796875 L 24.495224111850337 110.85328125 L 25.458684289205785 113.02687500000002 L 26.422600552012515 115.20046875000003 L 27.372934317955714 117.37406250000002 L 28.29584482169658 119.54765625000002 L 29.177890693298835 121.72125000000001 L 30.006225719816676 123.89484375 L 30.76878593895096 126.0684375 L 31.454465339921086 128.24203125 L 32.053277612625735 130.415625 L 32.55650158935991 132.58921875000004 L 32.95680826085926 134.76281250000002 L 33.248367516795895 136.93640625 L 33.42693305614548 139.11 Q 33.48174225850657 140.55375000000004 33.476555818303055 141.962109375 Q 33.422445970626825 143.37046875000001 33.31349162876657 144.7434375 Q 33.15882938785184 146.11640625 32.955340709631166 147.453984375 Q 32.71019362143356 148.7915625 32.42278983931912 150.09375 Q 32.09835322125512 151.3959375 31.738493791111903 152.66273437499999 Q 31.346566926033375 153.92953125 30.926062447919012 155.1609375 Q 30.47858697067652 156.39234375 30.009176452091495 157.58835937499998 Q 29.517844500925392 158.78437499999998 29.01084402628621 159.945 Q 28.48677916012979 161.105625 27.95280289831166 162.23085937500002 Q 27.4063130236544 163.35609374999999 26.855064197092183 164.44593749999999 Q 26.295462817227317 165.53578124999999 25.735589757214814 166.59023437500002 Q 25.171079716827865 167.6446875 24.610090385278497 168.66375 Q 24.047702864223957 169.68281249999998 23.491930149515085 170.66648437499998 Q 22.93751086910983 171.65015625 22.3921204638718 172.5984375 Q 21.850354803631703 173.54671875 21.319387440060083 174.45960937499999 Q 20.793856316352013 175.3725 20.280296465374896 176.25 Q 19.773555293625677 177.1275 19.279820246140492 177.97429687500002 Q 18.793986515706795 178.82109375000002 18.321506293128266 179.6371875 Q 17.857690912633394 180.45328125 17.407195068298087 181.23867187500002 Q 16.965842650351593 182.0240625 16.537445561447505 182.77875 Q 16.11842109191348 183.5334375 15.711708408872536 184.257421875 Q 15.314383788709057 184.98140625000002 14.928497435023637 185.6746875 Q 14.551835541223332 186.36796875000002 14.185555211054435 187.03054687500003 Q 13.828189661053045 187.693125 13.480009273585532 188.32500000000002 Q 13.14031856715978 188.95687500000003 12.808516595651744 189.55804687500003 Q 12.484691742159953 190.15921875000004 12.16739473660568 190.7296875 Q 11.85749984977757 191.30015625000004 11.552738813185417 191.83992187500002 Q 11.25476447007187 192.37968750000002 10.960524030455897 192.88875000000004 Q 10.672433447576877 193.39781250000004 10.386693993853894 193.876171875 Q 10.106462275775659 194.35453125000004 9.82723540027421 194.80218750000003 Q 9.552882268733955 195.24984375000003 9.278239987295493 195.66679687500002 Q 9.007856508192667 196.08375000000004 8.73595481668398 196.47000000000003 Q 8.467148991619624 196.854375 8.197356895320343 197.2147265625 Q 7.930768481885569 197.575078125 7.662344734709141 197.91140625000003 Q 7.396713908589301 198.247734375 7.128449986071262 198.5600390625 Q 6.862592734795433 198.87234375000003 6.593359016516585 199.160625 Q 6.3261723870288655 199.44890625 6.054922473364564 199.71316406250003 Q 5.785388234911537 199.977421875 5.5111618334448975 200.21765625 Q 5.23834882209098 200.457890625 4.960273460927696 200.67410156250003 Q 4.683338855851609 200.8903125 4.400630663413215 201.0825 Q 4.118820426403252 201.27468750000003 3.830784197507632 201.4428515625 Q 3.5434328865871914 201.611015625 3.249461633488366 201.75515625000003 Q 2.955991780034383 201.899296875 2.6555659451742617 202.01941406249998 Q 2.355487161760541 202.13953124999998 2.0481736467304597 202.23562499999997 Q 1.7410816106237395 202.33171875 1.4265327535636594 202.40378906249998 Q 1.1121081885916446 202.47585937499994 0.7900608001828457 202.52390624999998 Q 0.46806855774730494 202.571953125 0.13834310419542817 202.59597656249997 Q -0.19136857740111957 202.61999999999998 -0.528868577401119 202.61999999999998 L -0.528868577401119 202.61999999999998 Z" fill="black" stroke="black" />
				</svg>