<svg
					xmlns="http://www.w3.org/2000/svg" xmlns:xlink="http://www.w3.org/1999/xlink"
					style="
						overflow: visible;
						height: 100;
					"
					viewBox="-7.997173821717014 0 74.53205749057801 154.23"
				>
					<path d="M 41.68414495754324 154.23 L 40.85664495754324 154.23 L 40.02914495754324 154.23 L 39.20164495754324 154.23 L 38.37414495754324 154.23 L 37.546644957543236 154.23 L 36.719144957543236 154.23 L 35.89164495754324 154.23 L 35.06414495754324 154.23 L 34.23664495754324 154.23 L 33.40914495754324 154.23 L 32.58164495754324 154.23 L 31.75414495754324 154.23 L 30.92664495754324 154.23 L 30.09914495754324 154.23 L 29.271644957543238 154.23 L 28.444144957543237 154.23 L 28.756068331192747 152.49515624999998 L 29.00746923608546 150.7603125 L 29.194488458524468 149.02546875000002 L 29.313864372763085 147.29062499999998 L 29.36296321527182 145.55578125 L 29.339803531215882 143.82093749999999 L 29.24307456623194 142.08609375 L 29.072148432792588 140.35125 L 28.827085938230827 138.61640624999998 L 28.508636020329046 136.8815625 L 28.11822879571142 135.14671875 L 27.657962285564167 133.411875 L 27.13058294189504 131.67703124999997 L 26.539460155086307 129.9421875 L 25.888554979361167 128.20734375 L 25.182383366452335 126.4725 L 24.425974248736296 124.73765624999999 L 23.62482286090378 123.0028125 L 22.784839733432563 121.26796875000001 L 21.91229583130305 119.533125 L 21.013764347176654 117.79828124999999 L 20.096059689310028 116.06343749999999 L 19.166174230516795 114.32859375000001 L 18.23121340527003 112.59375 L 17.298329757371462 110.85890624999999 L 16.37465655035385 109.12406250000001 L 15.46724155684201 107.38921875000001 L 14.582981641436723 105.654375 L 13.728558744320289 103.91953124999999 L 12.910377859781091 102.18468749999998 L 12.134507585337747 100.44984374999997 L 11.406623793283394 98.71499999999997 L 10.73195694748819 96.98015625 L 10.115243554463309 95.24531249999998 L 9.560682199315458 93.51046874999999 L 9.071894574664173 91.77562499999999 L 8.651891864249958 90.04078124999998 L 8.30304679325899 88.30593749999998 L 8.027071604792079 86.57109374999999 L 7.8250021668994 84.83624999999998 L 7.697188357698711 83.10140624999998 L 7.64329081782203 81.36656249999999 L 7.66228410033438 79.63171874999999 L 7.7524661888872295 77.896875 L 7.9114742957595325 76.16203124999998 L 8.136306793149613 74.42718749999999 L 8.423351074152656 72.69234374999998 L 8.768417084819415 70.95749999999998 L 9.16677621605302 69.22265624999997 L 9.61320519435103 67.48781249999996 L 10.102034564000796 65.75296874999997 L 10.627201310718483 64.01812499999997 L 11.182305138281507 62.28328124999997 L 11.760667875797097 60.54843749999997 L 12.355395464191343 58.81359374999997 L 12.959441946562896 57.07874999999997 L 13.565674868445607 55.343906249999975 L 14.166941480937755 53.60906249999997 L 14.756135132203372 51.87421874999997 L 15.326261231102603 50.13937499999997 L 15.870502170679591 48.40453124999998 L 16.38228060889098 46.669687499999974 L 16.855320519206003 44.93484374999997 L 17.283705444409218 43.199999999999974 L 17.003705444409217 43.199999999999974 Q 16.675245039967145 44.27999999999999 16.259965169810524 45.54937499999999 Q 15.82186799883273 46.818749999999994 15.288067029836318 48.27749999999999 Q 15.012193145694269 49.006875 14.711413198023314 49.783593749999994 Q 14.405166460923285 50.560312499999995 14.073881942288125 51.38437499999999 Q 13.737853330448168 52.20843749999999 13.377174637509668 53.07984374999998 Q 13.01290573518492 53.95124999999998 12.624993559766166 54.869999999999976 Q 12.236390909922685 55.78874999999997 11.83862791559058 56.72578124999997 Q 11.441078189979244 57.66281249999997 11.036641128618625 58.61812499999998 Q 10.634788473182656 59.57343749999998 10.228621264242431 60.54703124999998 Q 9.827609035575641 61.52062499999998 9.425137468499056 62.51249999999999 Q 9.030565895744068 63.50437499999999 8.637646859516995 64.51453124999999 Q 8.25551477517914 65.52468749999998 7.878368976139107 66.553125 Q 7.514998716772697 67.58156249999999 7.160126148812657 68.62828124999999 Q 6.822071065662501 69.675 6.496148878388915 70.74 Q 6.190230440366026 71.80874999999999 5.905548220428055 72.86859374999999 Q 5.642699669872052 73.9284375 5.402366456548835 74.97937499999999 Q 5.185320227325784 76.03031249999998 4.991656178753009 77.07234374999999 Q 4.822348618085319 78.11437499999998 4.676886879896965 79.1475 Q 4.556473296266796 80.18062499999999 4.459980912890273 81.20484375 Q 4.388861994681086 82.2290625 4.341371483723144 83.244375 Q 4.319229746053895 84.2596875 4.320079962320844 85.26609375 Q 4.345924818914203 86.27250000000001 4.393809691021796 87.27000000000001 L 4.393809691021796 87.27000000000001 L 4.573062417651534 89.36250000000001 L 4.856889894190872 91.45500000000001 L 5.241460776052218 93.54750000000001 L 5.721583798511189 95.64000000000001 L 6.290777852811491 97.7325 L 6.941359473681107 99.82500000000002 L 7.664546557278988 101.91750000000002 L 8.450576909499244 104.01 L 9.288840024366971 106.10249999999999 L 10.168020313668901 108.195 L 11.076249854383597 110.28750000000001 L 12.001268591996448 112.38 L 12.930589837139024 114.4725 L 13.851668821538258 116.56500000000001 L 14.752072037964131 118.6575 L 15.619645078281218 120.75 L 16.442676703983338 122.8425 L 17.210056934447742 124.93499999999999 L 17.91142701889926 127.0275 L 18.537319267635212 129.12 L 19.079284854950462 131.21249999999998 L 19.530007868569914 133.305 L 19.88340406605238 135.3975 L 20.13470300506785 137.49 L 20.280512438883896 139.58249999999998 L 20.318864107796124 141.67499999999998 L 20.249240308371085 143.76749999999998 L 20.072580881847365 145.85999999999999 L 19.791270527359494 147.9525 L 19.409106611241562 150.04500000000002 L 18.93124790694795 152.1375 L 18.36414495754324 154.23 L 17.594144957543236 154.23 L 16.82414495754324 154.23 L 16.054144957543237 154.23 L 15.284144957543237 154.23 L 14.514144957543238 154.23 L 13.744144957543238 154.23 L 12.974144957543237 154.23 L 12.204144957543237 154.23 L 11.434144957543237 154.23 L 10.664144957543236 154.23 L 9.894144957543237 154.23 L 9.124144957543237 154.23 L 8.354144957543237 154.23 L 7.584144957543237 154.23 L 6.8141449575432365 154.23 L 6.044144957543237 154.23 L 6.689633348659115 151.82015625 L 7.21539634179366 149.4103125 L 7.612024275711937 147.00046875 L 7.872418639215512 144.590625 L 7.991919114290268 142.18078125 L 7.968386982535421 139.7709375 L 7.80224340213601 137.36109375 L 7.49646187033002 134.95125000000002 L 7.056515006270511 132.54140625000002 L 6.4902766067180595 130.1315625 L 5.807880727487896 127.72171874999998 L 5.021540312692729 125.31187499999999 L 4.145328617801636 122.90203125 L 3.1949273384202193 120.4921875 L 2.187345952569965 118.08234375 L 1.14061729944133 115.67249999999999 L 0.07347484289440007 113.26265624999998 L -0.9949826042280393 110.85281249999998 L -2.045632694494423 108.44296874999999 L -3.0596717814804855 106.033125 L -4.018951451524302 103.62328125 L -4.906303328679772 101.2134375 L -5.705846339784155 98.80359374999998 L -6.403270940469536 96.39374999999998 L -6.986095215281514 93.98390624999999 L -7.443888268441761 91.57406249999998 L -7.768456907195749 89.16421874999997 L -7.953992276644891 86.75437499999998 L -7.997173821717014 84.34453124999999 L -7.897228715651699 81.9346875 L -7.65594569139981 79.52484374999999 L -7.277643028394484 77.115 L -6.769091267639249 74.70515625 L -6.139392038293308 72.2953125 L -5.399815164413173 69.88546875 L -4.5635969671764265 67.47562500000001 L -3.6457033724037173 65.06578125 L -2.6625620630801943 62.65593749999999 L -1.6317684705839168 60.24609375 L -0.5717708665414396 57.83624999999999 L 0.4984598087297503 55.42640624999999 L 1.5597694720608952 53.0165625 L 2.5931637010074344 50.60671875 L 3.5801476799518426 48.19687499999999 L 4.503057204666249 45.78703124999999 L 5.3453748212950805 43.37718749999999 L 6.092025441769753 40.96734375 L 6.7296461449808085 38.5575 L 7.246825335034373 36.14765625 L 7.6343069763408105 33.737812500000004 L 7.885156250308727 31.327968749999997 L 7.994883668860999 28.918124999999996 L 7.961525423494092 26.50828125 L 7.785678531861195 24.098437499999996 L 7.470490152855364 21.688593749999995 L 7.02160126142228 19.27875 L 6.447045691163148 16.868906250000002 L 5.757106351577854 14.459062499999998 L 4.964131193250472 12.049218749999998 L 4.082312214676566 9.639375 L 3.1274314658811067 7.229531249999999 L 2.1165785946393574 4.8196875 L 1.067844990419508 2.40984375 L 0 0 L 0.5784375 0 L 1.156875 0 L 1.7353125 0 L 2.31375 0 L 2.8921875000000004 0 L 3.470625 0 L 4.0490625 0 L 4.6275 0 L 5.205937500000001 0 L 5.784375000000001 0 L 6.3628125 0 L 6.94125 0 L 7.5196875 0 L 8.098125 0 L 8.6765625 0 L 9.255 0 L 9.833437500000002 0 L 10.411875000000002 0 L 10.990312500000002 0 L 11.568750000000001 0 L 12.147187500000001 0 L 12.725625 0 L 13.3040625 0 L 13.8825 0 L 14.4609375 0 L 15.039375 0 L 15.6178125 0 L 16.19625 0 L 16.7746875 0 L 17.353125 0 L 17.9315625 0 L 18.51 0 L 19.437135778567946 1.7114062499999996 L 20.357411146657654 3.422812499999999 L 21.26402766416685 5.134218749999999 L 22.150310271964205 6.845624999999998 L 23.009767587978807 8.557031249999998 L 23.836150544127022 10.268437499999997 L 24.623508834406948 11.979843749999997 L 25.366244664262442 13.691249999999997 L 26.059163315696424 15.402656249999996 L 26.69752007137672 17.114062499999996 L 27.277063073867 18.825468749999995 L 27.794071732833572 20.536874999999995 L 28.245390333294097 22.248281249999994 L 28.628456541323594 23.959687499999994 L 28.941324549724374 25.671093749999994 L 29.18268265458419 27.382499999999993 L 29.351865103952754 29.093906249999993 L 29.448858111607073 30.805312499999992 L 29.474299981582973 32.516718749999995 L 29.42947534234795 34.22812499999999 L 29.31630354269825 35.93953124999999 L 29.1373213142006 37.65093749999999 L 28.89565985678943 39.362343749999994 L 28.59501655450633 41.07374999999999 L 28.239621576874775 42.785156249999986 L 27.834199667601105 44.49656249999999 L 27.38392746576623 46.20796874999999 L 26.894386745027386 47.91937499999999 L 26.371513993222273 49.630781249999984 L 25.821546787825092 51.34218749999999 L 25.250967451647256 53.05359374999999 L 24.666444497743203 54.764999999999986 L 24.074772392451877 56.47640624999998 L 23.482810180696966 58.187812499999986 L 22.89741952794603 59.89921874999999 L 22.32540273849814 61.610624999999985 L 21.773441309983486 63.32203124999998 L 21.24803557911466 65.03343749999999 L 20.75544600387212 66.74484374999999 L 20.30163661252435 68.45624999999998 L 19.89222113031002 70.16765624999998 L 19.532412270422114 71.87906249999997 L 19.22697464735079 73.59046874999999 L 18.98018173792053 75.30187499999998 L 18.795777278794553 77.01328124999998 L 18.676941449144255 78.72468749999999 L 18.62626214395724 80.43609374999998 L 18.645711597473195 82.14749999999998 L 18.736628567909158 83.85890624999998 L 18.899706244400335 85.57031249999997 L 19.134985985393524 87.28171874999998 L 19.44185694505452 88.99312499999998 L 19.819061591064216 90.70453124999997 L 20.264707063960813 92.41593749999998 L 20.776282275418872 94.12734374999998 L 21.35068059101561 95.83874999999998 L 21.9842278925901 97.55015624999999 L 22.67271576670692 99.26156249999997 L 23.41143951943151 100.97296874999996 L 24.19524067402802 102.68437499999997 L 25.018553567696312 104.39578124999998 L 25.875455626437798 106.10718749999998 L 26.759720863915113 107.81859374999996 L 27.664876121048184 109.52999999999997 L 27.944876121048186 109.52999999999997 L 27.371752113915115 107.81859374999996 L 26.8195181264378 106.10718749999998 L 26.294647317696313 104.39578124999998 L 25.803365674028022 102.68437499999997 L 25.351595769431512 100.97296874999996 L 24.94490326670692 99.26156249999997 L 24.5884466425901 97.55015624999999 L 24.28693059101561 95.83874999999998 L 24.04456352541888 94.12734374999998 L 23.86501956396082 92.41593749999998 L 23.751405341064224 90.70453124999997 L 23.70623194505453 88.99312499999998 L 23.731392235393532 87.28171874999998 L 23.828143744400343 85.57031249999997 L 23.997097317909166 83.85890624999998 L 24.2382115974732 82.14749999999998 L 24.550793393957242 80.43609374999998 L 24.933503949144256 78.72468749999999 L 25.384371028794554 77.01328124999998 L 25.900806737920533 75.30187499999998 L 26.47963089735079 73.59046874999999 L 27.117099770422115 71.87906249999997 L 27.80893988031002 70.16765624999998 L 28.550386612524353 68.45624999999998 L 29.33622725387212 66.74484374999999 L 30.16084807911466 65.03343749999999 L 31.018285059983487 63.32203124999998 L 31.902277738498142 61.610624999999985 L 32.80632577794603 59.89921874999999 L 33.72374768069697 58.187812499999986 L 34.64774114245188 56.47640624999998 L 35.57144449774321 54.764999999999986 L 36.48799870164726 53.05359374999999 L 37.39060928782509 51.34218749999999 L 38.272607743222274 49.630781249999984 L 39.127511745027384 47.91937499999999 L 39.949083715766236 46.20796874999999 L 40.731387167601106 44.49656249999999 L 41.468840326874776 42.785156249999986 L 42.15626655450633 41.07374999999999 L 42.78894110678942 39.362343749999994 L 43.36263381420059 37.65093749999999 L 43.873647292698244 35.93953124999999 L 44.31885034234794 34.22812499999999 L 44.69570623158297 32.516718749999995 L 45.00229561160707 30.805312499999992 L 45.23733385395275 29.093906249999993 L 45.400182654584185 27.382499999999993 L 45.49085579972437 25.671093749999994 L 45.51001904132359 23.959687499999994 L 45.45898408329409 22.248281249999994 L 45.339696732833566 20.536874999999995 L 45.154719323867 18.825468749999995 L 44.907207571376716 17.114062499999996 L 44.60088206569642 15.402656249999996 L 44.23999466426244 13.691249999999997 L 43.82929008440694 11.979843749999997 L 43.37396304412702 10.268437499999997 L 42.8796113379788 8.557031249999998 L 42.3521852719642 6.845624999999998 L 41.79793391416684 5.134218749999999 L 41.22334864665765 3.422812499999999 L 40.63510452856795 1.7114062499999996 L 40.04 0 L 40.618125 0 L 41.19625 0 L 41.774375 0 L 42.3525 0 L 42.930625 0 L 43.50875 0 L 44.086875 0 L 44.665 0 L 45.243125 0 L 45.82125 0 L 46.399375 0 L 46.9775 0 L 47.555625 0 L 48.13375 0 L 48.711875 0 L 49.29 0 L 49.868125 0 L 50.44625 0 L 51.024375 0 L 51.6025 0 L 52.180625 0 L 52.75875 0 L 53.336875 0 L 53.915 0 L 54.493125 0 L 55.07125 0 L 55.649375 0 L 56.2275 0 L 56.805625 0 L 57.38375 0 L 57.961875 0 L 58.54 0 L 59.60784499041951 2.40984375 L 60.656578594639356 4.8196875 L 61.66743146588111 7.229531249999999 L 62.62231221467657 9.639375 L 63.50413119325047 12.049218749999998 L 64.29710635157785 14.459062499999998 L 64.98704569116315 16.868906250000002 L 65.56160126142228 19.27875 L 66.01049015285537 21.688593749999995 L 66.3256785318612 24.098437499999996 L 66.50152542349409 26.50828125 L 66.534883668861 28.918124999999996 L 66.42515625030873 31.327968749999997 L 66.17430697634082 33.737812500000004 L 65.78682533503437 36.14765625 L 65.26964614498081 38.5575 L 64.63202544176976 40.96734375 L 63.88537482129508 43.37718749999999 L 63.04305720466625 45.78703124999999 L 62.12014767995184 48.19687499999999 L 61.13316370100743 50.60671875 L 60.09976947206089 53.0165625 L 59.03845980872975 55.42640624999999 L 57.96822913345856 57.83624999999999 L 56.908231529416085 60.24609375 L 55.877437936919804 62.65593749999999 L 54.89429662759628 65.06578125 L 53.97640303282357 67.47562500000001 L 53.14018483558682 69.88546875 L 52.40060796170669 72.2953125 L 51.77090873236075 74.70515625 L 51.26235697160551 77.115 L 50.88405430860019 79.52484374999999 L 50.6427712843483 81.9346875 L 50.542826178282986 84.34453124999999 L 50.58600772335511 86.75437499999998 L 50.77154309280425 89.16421874999997 L 51.09611173155824 91.57406249999998 L 51.55390478471848 93.98390624999999 L 52.13672905953047 96.39374999999998 L 52.83415366021585 98.80359374999998 L 53.63369667132023 101.2134375 L 54.5210485484757 103.62328125 L 55.48032821851952 106.033125 L 56.49436730550558 108.44296874999999 L 57.54501739577196 110.85281249999998 L 58.6134748428944 113.26265624999998 L 59.68061729944133 115.67249999999999 L 60.72734595256996 118.08234375 L 61.73492733842022 120.4921875 L 62.68532861780164 122.90203125 L 63.56154031269273 125.31187499999999 L 64.34788072748789 127.72171874999998 L 65.03027660671806 130.1315625 L 65.59651500627051 132.54140625000002 L 66.03646187033002 134.95125000000002 L 66.342243402136 137.36109375 L 66.50838698253543 139.7709375 L 66.53191911429026 142.18078125 L 66.41241863921552 144.590625 L 66.15202427571194 147.00046875 L 65.75539634179366 149.4103125 L 65.22963334865912 151.82015625 L 64.58414495754323 154.23 L 63.787894957543244 154.23 L 62.991644957543244 154.23 L 62.19539495754324 154.23 L 61.39914495754324 154.23 L 60.60289495754324 154.23 L 59.80664495754324 154.23 L 59.01039495754324 154.23 L 58.21414495754324 154.23 L 57.41789495754324 154.23 L 56.62164495754324 154.23 L 55.82539495754324 154.23 L 55.02914495754324 154.23 L 54.23289495754324 154.23 L 53.43664495754324 154.23 L 52.640394957543236 154.23 L 51.84414495754324 154.23 L 52.41640508403644 152.116875 L 52.8975840373204 150.00375 L 53.281057926772945 147.890625 L 53.5615478658533 145.77749999999997 L 53.73519264104741 143.66437499999995 L 53.799601865181984 141.55124999999998 L 53.7538888834006 139.43812499999996 L 53.59868297881981 137.325 L 53.33612070984235 135.21187499999996 L 52.969816498377874 133.09875 L 52.50481287385255 130.98562499999997 L 51.947511057946485 128.8725 L 51.305582845626844 126.75937499999999 L 50.587864995518814 124.64625 L 49.80423758343257 122.533125 L 48.96548799362664 120.41999999999999 L 48.083162420098844 118.30687499999996 L 47.16940692213195 116.19374999999997 L 46.23680022211734 114.08062499999997 L 45.29818054735539 111.96749999999997 L 44.366468899521294 109.85437499999998 L 43.45449118466215 107.74124999999998 L 42.57480165227676 105.62812499999998 L 41.739510074008756 103.51499999999999 L 40.96011504100456 101.40187499999999 L 40.24734567475809 99.28875 L 39.611013930444486 97.175625 L 39.059879525929624 95.06249999999997 L 38.60152935583704 92.94937499999997 L 38.24227305065373 90.83624999999998 L 37.98705611860409 88.72312499999997 L 37.83939186597736 86.60999999999997 Q 37.80938558556409 85.69499999999996 37.80113663666589 84.76406249999997 Q 37.81428143650936 83.83312499999997 37.85063906786786 82.88624999999996 Q 37.90900118924509 81.93937499999998 37.99180522693561 80.97656249999997 Q 38.096972399622125 80.01374999999999 38.22754067884161 79.03499999999997 Q 38.38054421156637 78.05624999999998 38.55959506711859 77.06156249999997 Q 38.76083389885707 76.06687499999997 38.988411661320825 75.05624999999998 Q 39.23758041681817 74.04562499999997 39.51298607611834 73.01906249999996 Q 39.80900937510036 71.99249999999998 40.13073876526482 70.94999999999997 Q 40.47048597356771 69.91124999999998 40.82465416665786 68.88609374999997 Q 41.195243610689865 67.86093749999998 41.57709790225506 66.84937499999998 Q 41.972630816080176 65.83781249999998 42.376308792637595 64.83984374999997 Q 42.79091484364264 63.84187499999998 43.2106304214431 62.85749999999998 Q 43.638559077099956 61.87312499999998 44.06868795802498 60.90234374999998 Q 44.5043889952976 59.93156249999998 44.939543078619955 58.974374999999974 Q 45.37773585783495 58.01718749999997 45.81282637921729 57.07359374999997 Q 46.248557784907206 56.12999999999998 46.67884721643943 55.199999999999974 Q 47.11044172198807 54.26624999999997 47.516532324173 53.381718749999976 Q 47.919242203562234 52.49718749999998 48.29532560840872 51.661874999999974 Q 48.66678979772207 50.82656249999998 49.01116990007742 50.04046874999999 Q 49.35015354453068 49.25437499999999 49.66215232596503 48.517499999999984 Q 50.268306078671486 47.04374999999999 50.770458775285604 45.766875 Q 51.249923778260325 44.489999999999995 51.634515844215116 43.41 L 51.634515844215116 43.41 L 51.34451584421511 43.41 L 50.58519307138159 45.1415625 L 49.78206563559127 46.873124999999995 L 48.94106169232852 48.6046875 L 48.068459637541544 50.33624999999999 L 47.170830051912 52.06781249999999 L 46.25497494331998 53.79937499999999 L 45.32786484932382 55.53093749999999 L 44.396574381261914 57.262499999999996 L 43.46821680599427 58.9940625 L 42.549878270200004 60.725625 L 41.648552275452715 62.4571875 L 40.7710750099762 64.18875 L 39.92406213506189 65.9203125 L 39.113847610677766 67.65187499999999 L 38.34642512594269 69.38343749999999 L 37.627392676052864 71.115 L 36.96190079815253 72.8465625 L 36.354604944806496 74.578125 L 35.80962243547297 76.3096875 L 35.33049438404181 78.04124999999999 L 34.920152954491144 79.77281249999999 L 34.58089424744574 81.50437499999998 L 34.31435706835281 83.23593749999999 L 34.12150777360384 84.9675 L 34.00263133472892 86.6990625 L 33.95732870329208 88.43062499999999 L 33.98452050085423 90.1621875 L 34.082456999883 91.89375 L 34.24873430331691 93.62531249999998 L 34.480316573172914 95.35687499999999 L 34.773564102651676 97.0884375 L 35.12426697216031 98.82 L 35.52768397803865 100.55156249999999 L 35.978586474018805 102.283125 L 36.47130672002007 104.01468750000001 L 36.999790291202686 105.74625 L 37.55765206265882 107.4778125 L 38.1382352520555 109.20937500000001 L 38.73467297426808 110.94093749999999 L 39.339951738814165 112.67249999999999 L 39.946976302933386 114.4040625 L 40.54863528062265 116.13562499999998 L 41.13786690094656 117.86718749999997 L 41.707724307561826 119.59874999999998 L 42.25143979563752 121.33031249999999 L 42.76248739217833 123.06187499999999 L 43.23464320107633 124.79343749999998 L 43.66204295488672 126.52499999999999 L 44.039236241151386 128.2565625 L 44.36123690184471 129.988125 L 44.6235691399029 131.7196875 L 44.82230890649387 133.45125000000002 L 44.95412018632382 135.1828125 L 45.01628584545347 136.914375 L 45.00673275637733 138.6459375 L 44.924050968036624 140.3775 L 44.767506743502736 142.1090625 L 44.53704934477279 143.840625 L 44.233311501939184 145.57218749999998 L 43.857603562394544 147.30374999999998 L 43.41190137417397 149.03531249999997 L 42.8988280154761 150.76687499999997 L 42.32162953930832 152.4984375 L 41.68414495754324 154.23 L 41.68414495754324 154.23 Z" fill="black" stroke="black" />
				</svg>