<svg
					xmlns="http://www.w3.org/2000/svg" xmlns:xlink="http://www.w3.org/1999/xlink"
					style="
						overflow: visible;
						height: 100;
					"
					viewBox="-7.997173821717014 0 64.95205749057801 154.23"
				>
					<path d="M 48.96 0 L 50.02784499041951 2.40984375 L 51.07657859463936 4.8196875 L 52.08743146588111 7.229531249999999 L 53.04231221467657 9.639375 L 53.924131193250474 12.049218749999998 L 54.717106351577854 14.459062499999998 L 55.40704569116315 16.868906250000002 L 55.981601261422284 19.27875 L 56.43049015285536 21.688593749999995 L 56.745678531861195 24.098437499999996 L 56.921525423494096 26.50828125 L 56.954883668861 28.918124999999996 L 56.845156250308726 31.327968749999997 L 56.59430697634081 33.737812500000004 L 56.206825335034374 36.14765625 L 55.68964614498081 38.5575 L 55.05202544176976 40.96734375 L 54.30537482129508 43.37718749999999 L 53.46305720466625 45.78703124999999 L 52.54014767995184 48.19687499999999 L 51.553163701007435 50.60671875 L 50.519769472060894 53.0165625 L 49.45845980872975 55.42640624999999 L 48.38822913345856 57.83624999999999 L 47.32823152941609 60.24609375 L 46.297437936919806 62.65593749999999 L 45.314296627596285 65.06578125 L 44.39640303282357 67.47562500000001 L 43.560184835586824 69.88546875 L 42.82060796170669 72.2953125 L 42.190908732360754 74.70515625 L 41.682356971605515 77.115 L 41.30405430860019 79.52484374999999 L 41.0627712843483 81.9346875 L 40.96282617828299 84.34453124999999 L 41.00600772335511 86.75437499999998 L 41.19154309280425 89.16421874999997 L 41.51611173155824 91.57406249999998 L 41.973904784718485 93.98390624999999 L 42.55672905953047 96.39374999999998 L 43.25415366021585 98.80359374999998 L 44.05369667132023 101.2134375 L 44.9410485484757 103.62328125 L 45.90032821851952 106.033125 L 46.91436730550558 108.44296874999999 L 47.96501739577196 110.85281249999998 L 49.0334748428944 113.26265624999998 L 50.10061729944133 115.67249999999999 L 51.147345952569964 118.08234375 L 52.15492733842022 120.4921875 L 53.10532861780164 122.90203125 L 53.98154031269273 125.31187499999999 L 54.7678807274879 127.72171874999998 L 55.45027660671806 130.1315625 L 56.01651500627051 132.54140625000002 L 56.45646187033002 134.95125000000002 L 56.76224340213601 137.36109375 L 56.92838698253542 139.7709375 L 56.95191911429027 142.18078125 L 56.83241863921551 144.590625 L 56.57202427571194 147.00046875 L 56.17539634179366 149.4103125 L 55.649633348659115 151.82015625 L 55.00414495754324 154.23 L 54.435082457543245 154.23 L 53.866019957543244 154.23 L 53.29695745754324 154.23 L 52.72789495754324 154.23 L 52.15883245754324 154.23 L 51.58976995754324 154.23 L 51.02070745754324 154.23 L 50.45164495754324 154.23 L 49.882582457543236 154.23 L 49.313519957543235 154.23 L 48.744457457543234 154.23 L 48.17539495754324 154.23 L 47.606332457543246 154.23 L 47.037269957543245 154.23 L 46.468207457543244 154.23 L 45.89914495754324 154.23 L 45.33008245754324 154.23 L 44.76101995754324 154.23 L 44.19195745754324 154.23 L 43.62289495754324 154.23 L 43.05383245754324 154.23 L 42.484769957543236 154.23 L 41.915707457543235 154.23 L 41.34664495754324 154.23 L 40.77758245754325 154.23 L 40.208519957543245 154.23 L 39.639457457543244 154.23 L 39.07039495754324 154.23 L 38.50133245754324 154.23 L 37.93226995754324 154.23 L 37.36320745754324 154.23 L 36.79414495754324 154.23 L 36.9673001105539 152.53218749999996 L 37.08257199478657 150.834375 L 37.1363257054329 149.1365625 L 37.1254732476869 147.43874999999997 L 37.047500989693255 145.74093749999997 L 36.90049200928379 144.04312499999997 L 36.68314313583421 142.34531249999998 L 36.39477653573565 140.64749999999998 L 36.03534573848359 138.94968749999998 L 35.60543604981074 137.25187499999998 L 35.10625934819122 135.5540625 L 34.539643310976196 133.85625 L 33.90801516594294 132.1584375 L 33.21438011270967 130.460625 L 32.46229460585439 128.7628125 L 31.6558347372568 127.065 L 30.799559998751004 125.3671875 L 29.89847274724704 123.66937499999999 L 28.957973732685186 121.9715625 L 27.983814084189092 120.27375 L 26.982044181271537 118.5759375 L 25.95895986463881 116.87812500000001 L 24.921046464791413 115.18031250000001 L 23.874921146019147 113.4825 L 22.827274078365047 111.78468749999999 L 21.784808960552134 110.08687499999999 L 20.75418342263729 108.38906250000001 L 19.74194983822565 106.69125 L 18.754497072437864 104.99343749999998 L 17.797993683503424 103.295625 L 16.878333082930446 101.5978125 L 16.001081141789903 99.89999999999999 L 15.171426708905917 98.20218749999998 L 14.394135480856153 96.50437499999998 L 13.673507633888105 94.80656249999998 L 13.013339594412882 93.10874999999999 L 12.416890287945055 91.41093749999999 L 11.88685216654288 89.71312499999999 L 11.425327272321317 88.0153125 L 11.033808549838415 86.3175 L 10.713166573492057 84.6196875 L 10.463641807923363 82.921875 L 10.284842470233514 81.2240625 L 10.175748013019295 79.52625 L 10.134718197262476 77.82843749999999 L 10.159507674412994 76.130625 L 10.247285948028079 74.4328125 L 10.394662537503972 72.73499999999999 L 10.597717120189177 71.03718749999999 L 10.852034383909263 69.33937499999999 L 11.152743280056646 67.64156249999999 L 11.494560328276833 65.94375 L 11.871836587762994 64.24593749999998 L 12.278607877573796 62.548124999999985 L 12.708647799504885 60.850312499999994 L 13.155523092129146 59.15249999999999 L 13.612650823896162 57.45468749999999 L 14.07335691683182 55.756875 L 14.530935480549497 54.059062499999996 L 14.978708429080548 52.36125 L 15.410084850517448 50.6634375 L 15.818619601660505 48.965624999999996 L 16.19807060674888 47.26781249999999 L 16.54245435087774 45.56999999999999 L 16.25245435087774 45.56999999999999 Q 15.823296951595601 46.81499999999999 15.324498338752273 48.187499999999986 Q 14.804872955937947 49.55999999999999 14.214280617912062 51.05999999999999 Q 13.9124566419437 51.80999999999999 13.59335212568294 52.59187499999999 Q 13.270956677821593 53.373749999999994 12.932025932263661 54.187499999999986 Q 12.590956923601597 55.001249999999985 12.234485129415761 55.84687499999998 Q 11.877325242332972 56.692499999999995 11.506318092029094 57.56999999999999 Q 11.135138931616726 58.44749999999999 10.764669114765498 59.326874999999994 Q 10.397134062500083 60.20625 10.032175706869207 61.08749999999999 Q 9.67200052330943 61.96875 9.316259816396274 62.85187499999999 Q 8.96712420125801 63.73499999999999 8.624252937978259 64.62 Q 8.2897639914753 65.505 7.963322962676863 66.391875 Q 7.646978668258373 67.27874999999999 7.340401254457927 68.16749999999999 Q 7.045554351325103 69.05624999999999 6.762110693916224 69.94687499999999 Q 6.491933313756472 70.83749999999999 6.234695440151839 71.72999999999999 Q 5.99319016215779 72.61874999999999 5.770301730454715 73.48781249999999 Q 5.562481915421909 74.35687499999999 5.372975806142899 75.20625 Q 5.198797739731815 76.05562499999999 5.042370108024163 76.8853125 Q 4.901310760544088 77.71499999999999 4.7772137964726085 78.52499999999999 Q 4.668332719022406 79.335 4.575436284754844 80.12531249999998 Q 4.497437287785193 80.91562499999999 4.434289646620806 81.68624999999999 Q 4.3855809971450395 82.45687499999997 4.350467496039937 83.20781249999997 Q 4.329219597851261 83.95874999999998 4.3202183871308915 84.68999999999997 L 4.3202183871308915 84.68999999999997 L 4.371329008300746 86.86312499999997 L 4.538155081679668 89.03624999999997 L 4.818267980577556 91.20937499999997 L 5.2075898672276395 93.38249999999996 L 5.700453057281722 95.55562499999996 L 6.289682529031915 97.72874999999996 L 6.966700376203114 99.90187499999996 L 7.721650683709531 102.07499999999997 L 8.543543008454488 104.24812499999999 L 9.420412376403416 106.42124999999999 L 10.33949346671884 108.59437499999997 L 11.287406447213268 110.76749999999998 L 12.250351755757714 112.94062499999998 L 13.214310992050136 115.11374999999997 L 14.165250995194192 117.28687499999998 L 15.089328136160269 119.45999999999998 L 15.97308985107264 121.63312499999998 L 16.80367048143406 123.80624999999999 L 17.568978570277853 125.97937499999998 L 18.25787288762077 128.15249999999997 L 18.86032462266678 130.325625 L 19.367563381594348 132.49874999999997 L 19.772204865515203 134.67187499999997 L 20.068358369889758 136.84499999999997 L 20.25171254044033 139.018125 L 20.319598137141526 141.19125 L 20.271026892579975 143.364375 L 20.106705898989663 145.5375 L 19.829027314518868 147.710625 L 19.442033538583082 149.88374999999996 L 18.95135836327551 152.056875 L 18.36414495754324 154.23 L 17.594144957543236 154.23 L 16.82414495754324 154.23 L 16.054144957543237 154.23 L 15.284144957543237 154.23 L 14.514144957543238 154.23 L 13.744144957543238 154.23 L 12.974144957543237 154.23 L 12.204144957543237 154.23 L 11.434144957543237 154.23 L 10.664144957543236 154.23 L 9.894144957543237 154.23 L 9.124144957543237 154.23 L 8.354144957543237 154.23 L 7.584144957543237 154.23 L 6.8141449575432365 154.23 L 6.044144957543237 154.23 L 6.689633348659115 151.82015625 L 7.21539634179366 149.4103125 L 7.612024275711937 147.00046875 L 7.872418639215512 144.590625 L 7.991919114290268 142.18078125 L 7.968386982535421 139.7709375 L 7.80224340213601 137.36109375 L 7.49646187033002 134.95125000000002 L 7.056515006270511 132.54140625000002 L 6.4902766067180595 130.1315625 L 5.807880727487896 127.72171874999998 L 5.021540312692729 125.31187499999999 L 4.145328617801636 122.90203125 L 3.1949273384202193 120.4921875 L 2.187345952569965 118.08234375 L 1.14061729944133 115.67249999999999 L 0.07347484289440007 113.26265624999998 L -0.9949826042280393 110.85281249999998 L -2.045632694494423 108.44296874999999 L -3.0596717814804855 106.033125 L -4.018951451524302 103.62328125 L -4.906303328679772 101.2134375 L -5.705846339784155 98.80359374999998 L -6.403270940469536 96.39374999999998 L -6.986095215281514 93.98390624999999 L -7.443888268441761 91.57406249999998 L -7.768456907195749 89.16421874999997 L -7.953992276644891 86.75437499999998 L -7.997173821717014 84.34453124999999 L -7.897228715651699 81.9346875 L -7.65594569139981 79.52484374999999 L -7.277643028394484 77.115 L -6.769091267639249 74.70515625 L -6.139392038293308 72.2953125 L -5.399815164413173 69.88546875 L -4.5635969671764265 67.47562500000001 L -3.6457033724037173 65.06578125 L -2.6625620630801943 62.65593749999999 L -1.6317684705839168 60.24609375 L -0.5717708665414396 57.83624999999999 L 0.4984598087297503 55.42640624999999 L 1.5597694720608952 53.0165625 L 2.5931637010074344 50.60671875 L 3.5801476799518426 48.19687499999999 L 4.503057204666249 45.78703124999999 L 5.3453748212950805 43.37718749999999 L 6.092025441769753 40.96734375 L 6.7296461449808085 38.5575 L 7.246825335034373 36.14765625 L 7.6343069763408105 33.737812500000004 L 7.885156250308727 31.327968749999997 L 7.994883668860999 28.918124999999996 L 7.961525423494092 26.50828125 L 7.785678531861195 24.098437499999996 L 7.470490152855364 21.688593749999995 L 7.02160126142228 19.27875 L 6.447045691163148 16.868906250000002 L 5.757106351577854 14.459062499999998 L 4.964131193250472 12.049218749999998 L 4.082312214676566 9.639375 L 3.1274314658811067 7.229531249999999 L 2.1165785946393574 4.8196875 L 1.067844990419508 2.40984375 L 0 0 L 0.5671875000000001 0 L 1.1343750000000001 0 L 1.7015625 0 L 2.2687500000000003 0 L 2.8359375 0 L 3.403125 0 L 3.9703125000000004 0 L 4.5375000000000005 0 L 5.104687500000001 0 L 5.671875 0 L 6.2390625 0 L 6.80625 0 L 7.3734375000000005 0 L 7.940625000000001 0 L 8.5078125 0 L 9.075000000000001 0 L 9.642187500000002 0 L 10.209375000000001 0 L 10.7765625 0 L 11.34375 0 L 11.9109375 0 L 12.478125 0 L 13.045312500000001 0 L 13.6125 0 L 14.1796875 0 L 14.746875000000001 0 L 15.314062500000002 0 L 15.881250000000001 0 L 16.4484375 0 L 17.015625 0 L 17.582812500000003 0 L 18.150000000000002 0 L 19.185386501077677 1.6739062500000004 L 20.214353125068065 3.3478125000000007 L 21.230535474182222 5.021718750000002 L 22.227679629786795 6.6956250000000015 L 23.199696197522506 8.369531250000001 L 24.14071293063657 10.043437500000003 L 25.045125476768845 11.717343750000003 L 25.907645809647967 13.391250000000003 L 26.72334792716053 15.065156250000005 L 27.48771042087958 16.739062500000003 L 28.19665554917517 18.412968750000005 L 28.84658447624482 20.086875000000006 L 29.434408372535305 21.760781250000008 L 29.95757510779203 23.434687500000006 L 30.4140913060601 25.108593750000004 L 30.802539572042008 26.782500000000006 L 31.122090739945342 28.456406250000008 L 31.37251103896829 30.13031250000001 L 31.55416411350034 31.80421875000001 L 31.668007880579935 33.478125000000006 L 31.715586251766325 35.15203125000001 L 31.699015790963575 36.82593750000001 L 31.62096742349713 38.49984375000001 L 31.48464335450948 40.17375000000001 L 31.293749396141465 41.847656250000014 L 31.052462942642354 43.521562500000016 L 30.76539687016126 45.19546875000002 L 30.437559673190805 46.86937500000001 L 30.074312182155875 48.54328125000001 L 29.681321236185504 50.21718750000001 L 29.264510711418502 51.89109375000001 L 28.830010328046463 53.56500000000001 L 28.384102678493505 55.238906250000014 L 27.933168934504664 56.912812500000015 L 27.48363370233139 58.58671875000002 L 27.041909502564746 60.26062500000002 L 26.614341354410467 61.93453125000002 L 26.207151943297486 63.60843750000002 L 25.82638784567066 65.28234375000002 L 25.477867275682197 66.95625000000001 L 25.16712980534447 68.63015625 L 24.89938849265272 70.30406250000001 L 24.67948483137685 71.97796875 L 24.5118469118371 73.65187500000002 L 24.40045115423004 75.32578125 L 24.34878794519771 76.99968750000002 L 24.359831474601876 78.67359375000001 L 24.436014033168007 80.34750000000003 L 24.579204993113564 82.02140625000001 L 24.79069465340585 83.69531250000003 L 25.071183089255513 85.36921875000002 L 25.420774102206074 87.04312500000003 L 25.838974323101674 88.71703125000002 L 26.324697475685003 90.39093750000004 L 26.876273763980226 92.06484375000002 L 27.49146430233703 93.73875000000002 L 28.167480463434174 95.41265625000001 L 28.901007977041054 97.08656250000001 L 29.688235571280543 98.76046875000002 L 30.52488790888095 100.43437500000002 L 31.40626253378861 102.10828125000002 L 32.327270508856024 103.78218750000002 L 33.28248039342241 105.45609375000002 L 34.26616518074138 107.13000000000002 L 34.47616518074138 107.13000000000002 Q 33.94517389958548 105.89250000000001 33.38148838333496 104.54625000000003 Q 32.8382617817708 103.20000000000002 32.27491306714431 101.745 Q 32.00458011366661 101.0175 31.732133060817887 100.26281249999998 Q 31.468883688944018 99.50812499999996 31.205736964646135 98.72624999999996 Q 30.9533997873031 97.94437499999998 30.703582889737618 97.13531249999997 Q 30.46629049094773 96.32624999999996 30.234118569831168 95.48999999999995 Q 30.014151280811156 94.64999999999996 29.80972256777401 93.80718749999997 Q 29.620690417565854 92.96437499999996 29.448187846023675 92.11874999999998 Q 29.29190804939683 91.27312499999996 29.153027172344714 90.42468749999998 Q 29.031063376007225 89.57624999999999 28.92723531275665 88.725 Q 28.840877254953995 87.87375 28.7732492942001 87.01968749999999 Q 28.7234944672344 86.16562499999999 28.692912804242624 85.30874999999997 Q 28.680450371713253 84.45187499999999 28.687445225874548 83.5921875 Q 28.71264243390807 82.73249999999999 28.757415778790048 81.86999999999998 Q 28.820307084875136 81.00749999999996 28.899202605835917 80.17171874999997 Q 28.99477015134037 79.33593749999997 29.103803175982367 78.52687499999998 Q 29.22801746854195 77.71781249999998 29.363195990430413 76.93546874999998 Q 29.512057128848788 76.15312499999997 29.66945759446947 75.39749999999998 Q 30.02057342850811 73.88624999999998 30.392152486357507 72.48187499999997 Q 30.80140603640013 71.07749999999997 31.21486352817828 69.77999999999997 L 31.21486352817828 69.77999999999997 L 31.97133794621498 67.59937499999998 L 32.795367847977175 65.41874999999997 L 33.674874296461425 63.238124999999975 L 34.59696515879411 61.057499999999976 L 35.548124083913514 58.87687499999998 L 36.514408630274474 56.69624999999998 L 37.48165463934594 54.51562499999998 L 38.43568385911858 52.33499999999998 L 39.3625117741999 50.15437499999998 L 40.24855259604586 47.97374999999998 L 41.08081840850601 45.79312499999998 L 41.847109549532505 43.61249999999998 L 42.536193438367086 41.431874999999984 L 43.137969226890625 39.251249999999985 L 43.64361586161438 37.070624999999986 L 44.04572138596521 34.889999999999986 L 44.33839158750376 32.70937499999999 L 44.5173363974842 30.528749999999988 L 44.57993277627871 28.34812499999999 L 44.525263162868576 26.16749999999999 L 44.354128924795155 23.98687499999999 L 44.06903861141619 21.80624999999999 L 43.67417118265563 19.625624999999992 L 43.17531475225364 17.444999999999993 L 42.579781743441124 15.264374999999994 L 41.89630170071825 13.083749999999995 L 41.1348933289421 10.903124999999996 L 40.306717635421876 8.722499999999997 L 39.423914327719686 6.541874999999997 L 38.49942386529865 4.361249999999998 L 37.546797773451715 2.180624999999999 L 36.58 0 L 37.35375 0 L 38.1275 0 L 38.90125 0 L 39.675 0 L 40.44875 0 L 41.2225 0 L 41.996249999999996 0 L 42.769999999999996 0 L 43.543749999999996 0 L 44.317499999999995 0 L 45.091249999999995 0 L 45.864999999999995 0 L 46.638749999999995 0 L 47.412499999999994 0 L 48.18625 0 L 48.96 0 L 48.96 0 Z" fill="black" stroke="black" />
				</svg>