<svg
					xmlns="http://www.w3.org/2000/svg" xmlns:xlink="http://www.w3.org/1999/xlink"
					style="
						overflow: visible;
						height: 100;
					"
					viewBox="-7.997173821717014 0 56.36005968330535 154.23"
				>
					<path d="M 37.07087207696789 73.88999999999999 L 37.07087207696789 73.88999999999999 Q 36.86591682151606 74.72624999999998 36.67419299956028 75.55388671874996 Q 36.49718638462807 76.38152343749996 36.33356497024498 77.20054687499997 Q 36.185040870998264 78.01957031249998 36.04988677899 78.82998046874998 Q 35.930055963972464 79.64039062499998 35.823421536771775 80.44218749999997 Q 35.73219029531341 81.24398437499997 35.6538349907517 82.03716796874997 Q 35.5908258508395 82.83035156249997 35.54023778440725 83.61492187499996 Q 35.50481187832619 84.39949218749999 35.481230788121344 85.17544921874997 Q 35.47251144297114 85.95140624999999 35.47495266753319 86.71874999999997 Q 35.49184982171809 87.48609374999998 35.51912890669183 88.24482421874997 Q 35.56036398081686 89.00355468749997 35.61112155905461 89.75367187499998 Q 35.75258845913038 91.25390624999997 35.926485498900206 92.71968749999998 Q 36.14838207701723 94.18546874999998 36.3945474343049 95.61679687499998 Q 36.682450394208566 97.04812499999998 36.986082681369936 98.44499999999996 Q 37.324726222774906 99.84187499999996 37.670527562593655 101.20429687499995 Q 38.044442028373616 102.56671874999996 38.4172065050314 103.89468749999997 Q 38.81126593491083 105.22265625 39.19637298521762 106.516171875 Q 39.596244312534026 107.80968749999998 39.980053008273146 109.06875 Q 40.37254552322466 110.3278125 40.74269097347312 111.552421875 Q 41.11600943037611 112.77703125 41.46160667091719 113.9671875 Q 41.805515032556926 115.15734374999998 42.117278798434626 116.313046875 Q 42.42318414729464 117.46875 42.6934749297154 118.59 Q 42.9544426396081 119.71125 43.17936308568993 120.7969921875 Q 43.39221263627377 121.882734375 43.567395089457754 122.93296875000001 Q 43.72842961299806 123.98320312500002 43.850990495591965 124.99792968750002 Q 43.95794469036496 126.01265624999999 44.026342207112776 126.991875 Q 44.078229662129914 127.97109375 44.09210408237439 128.9148046875 Q 44.08905147221726 129.858515625 44.049056882474346 130.76671875 Q 43.992133275699295 131.674921875 43.899768223224676 132.5476171875 Q 43.79081626107339 133.4203125 43.64825923961888 134.2575 Q 43.4897334915056 135.0946875 43.29968782002502 135.8963671875 Q 43.09450426618033 136.69804687500002 42.8600556272842 137.46421875000001 Q 42.6114549962071 138.23039062499998 42.33594376406436 138.9610546875 Q 42.04737038632988 139.69171875 41.73427989943335 140.386875 Q 41.409276840067164 141.08203125 41.062137967179325 141.7416796875 Q 40.7042584660679 142.401328125 40.32657016921614 143.02546875000002 Q 39.939304844994595 143.649609375 39.53446995065268 144.23824218750002 Q 39.12118879497381 144.82687500000003 38.69246382837278 145.38000000000002 Q 38.2563717178373 145.93312500000002 37.80886182802473 146.45167968750002 Q 37.354975564568804 146.97023437500002 36.89147805142893 147.45421875000002 Q 36.422524231766275 147.93820312500003 35.945621068802105 148.38761718749998 Q 35.46410520869545 148.83703125 34.976153949170104 149.25187499999998 Q 34.484354336083484 149.66671875 33.98748530979637 150.0469921875 Q 33.48745256973726 150.427265625 32.983571056683246 150.77296875 Q 32.47713216262715 151.118671875 31.967924333076184 151.4298046875 Q 31.456689893037247 151.7409375 30.943631420255254 152.01749999999998 Q 30.429005203624783 152.2940625 29.91337157835266 152.53605468749998 Q 29.39656136315851 152.77804687500003 28.879439062544336 152.98546875 Q 28.361468008963865 153.192890625 27.843765792874816 153.3657421875 Q 27.325483666255106 153.53859375 26.807943388069962 153.676875 Q 26.290037065706816 153.81515624999997 25.773243491238333 153.91886718749998 Q 25.256246290125983 154.022578125 24.74063551663178 154.09171874999998 Q 24.482796448081363 154.1262890625 24.225339941078612 154.152216796875 Q 23.96787084658469 154.17814453124998 23.710801131573287 154.1954296875 Q 23.453725833681684 154.21271484374998 23.19706109260353 154.22135742187498 Q 22.94039495754324 154.23 22.68414495754324 154.23 L 22.68414495754324 154.23 L 22.164144957543236 154.23 L 21.64414495754324 154.23 L 21.124144957543237 154.23 L 20.604144957543237 154.23 L 20.084144957543238 154.23 L 19.564144957543235 154.23 L 19.04414495754324 154.23 L 18.524144957543236 154.23 L 18.00414495754324 154.23 L 17.484144957543236 154.23 L 16.96414495754324 154.23 L 16.444144957543237 154.23 L 15.924144957543236 154.23 L 15.404144957543236 154.23 L 14.884144957543237 154.23 L 14.364144957543237 154.23 L 13.844144957543238 154.23 L 13.324144957543236 154.23 L 12.804144957543237 154.23 L 12.284144957543237 154.23 L 11.764144957543238 154.23 L 11.244144957543238 154.23 L 10.724144957543237 154.23 L 10.204144957543237 154.23 L 9.684144957543237 154.23 L 9.164144957543236 154.23 L 8.644144957543237 154.23 L 8.124144957543237 154.23 L 7.604144957543237 154.23 L 7.084144957543237 154.23 L 6.5641449575432365 154.23 L 6.044144957543237 154.23 L 6.689633348659115 151.82015625 L 7.21539634179366 149.4103125 L 7.612024275711937 147.00046875 L 7.872418639215512 144.590625 L 7.991919114290268 142.18078125 L 7.968386982535421 139.7709375 L 7.80224340213601 137.36109375 L 7.49646187033002 134.95125000000002 L 7.056515006270511 132.54140625000002 L 6.4902766067180595 130.1315625 L 5.807880727487896 127.72171874999998 L 5.021540312692729 125.31187499999999 L 4.145328617801636 122.90203125 L 3.1949273384202193 120.4921875 L 2.187345952569965 118.08234375 L 1.14061729944133 115.67249999999999 L 0.07347484289440007 113.26265624999998 L -0.9949826042280393 110.85281249999998 L -2.045632694494423 108.44296874999999 L -3.0596717814804855 106.033125 L -4.018951451524302 103.62328125 L -4.906303328679772 101.2134375 L -5.705846339784155 98.80359374999998 L -6.403270940469536 96.39374999999998 L -6.986095215281514 93.98390624999999 L -7.443888268441761 91.57406249999998 L -7.768456907195749 89.16421874999997 L -7.953992276644891 86.75437499999998 L -7.997173821717014 84.34453124999999 L -7.897228715651699 81.9346875 L -7.65594569139981 79.52484374999999 L -7.277643028394484 77.115 L -6.769091267639249 74.70515625 L -6.139392038293308 72.2953125 L -5.399815164413173 69.88546875 L -4.5635969671764265 67.47562500000001 L -3.6457033724037173 65.06578125 L -2.6625620630801943 62.65593749999999 L -1.6317684705839168 60.24609375 L -0.5717708665414396 57.83624999999999 L 0.4984598087297503 55.42640624999999 L 1.5597694720608952 53.0165625 L 2.5931637010074344 50.60671875 L 3.5801476799518426 48.19687499999999 L 4.503057204666249 45.78703124999999 L 5.3453748212950805 43.37718749999999 L 6.092025441769753 40.96734375 L 6.7296461449808085 38.5575 L 7.246825335034373 36.14765625 L 7.6343069763408105 33.737812500000004 L 7.885156250308727 31.327968749999997 L 7.994883668860999 28.918124999999996 L 7.961525423494092 26.50828125 L 7.785678531861195 24.098437499999996 L 7.470490152855364 21.688593749999995 L 7.02160126142228 19.27875 L 6.447045691163148 16.868906250000002 L 5.757106351577854 14.459062499999998 L 4.964131193250472 12.049218749999998 L 4.082312214676566 9.639375 L 3.1274314658811067 7.229531249999999 L 2.1165785946393574 4.8196875 L 1.067844990419508 2.40984375 L 0 0 L 0.5559375 0 L 1.111875 0 L 1.6678125 0 L 2.22375 0 L 2.7796874999999996 0 L 3.335625 0 L 3.8915625 0 L 4.4475 0 L 5.0034374999999995 0 L 5.559374999999999 0 L 6.1153125 0 L 6.67125 0 L 7.227187499999999 0 L 7.783125 0 L 8.3390625 0 L 8.895 0 L 9.450937499999998 0 L 10.006874999999999 0 L 10.5628125 0 L 11.118749999999999 0 L 11.6746875 0 L 12.230625 0 L 12.786562499999999 0 L 13.3425 0 L 13.8984375 0 L 14.454374999999999 0 L 15.0103125 0 L 15.56625 0 L 16.122187500000003 0 L 16.678125 0 L 17.2340625 0 L 17.79 0 Q 18.1790625 0 18.57076497249328 0.01857421875000001 Q 18.962467436196253 0.03714843750000002 19.356809802070117 0.07429687500000004 Q 19.751152027299483 0.11144531250000006 20.14813369760707 0.1671679687500001 Q 20.54511465591043 0.22289062500000012 20.944733582564208 0.29718750000000016 Q 21.344350259004326 0.3714843750000002 21.746601458290478 0.4643554687500002 Q 22.14884716425508 0.5572265625000004 22.553720713773828 0.6686718750000004 Q 22.958582873708597 0.7801171875000004 23.366061384147255 0.9101367187500006 Q 23.77351879813787 1.0401562500000006 24.183574362618916 1.1887500000000006 Q 24.593593948365825 1.3373437500000007 25.006184574121512 1.5045117187500008 Q 25.418717594204306 1.671679687500001 25.833783124151076 1.8574218750000009 Q 26.24876090770546 2.0431640625000007 26.66621844326014 2.247480468750001 Q 27.08354761542232 2.451796875000001 27.503286456749482 2.6746875000000014 Q 27.922843694588757 2.8975781250000017 28.344719820517323 3.1390429687500014 Q 28.766346160796843 3.3805078125000017 29.190176278008582 3.6405468750000023 Q 29.613671010094606 3.9005859375000025 30.039226209967467 4.179199218750003 Q 30.464340396641926 4.457812500000003 30.891339468409292 4.755000000000003 Q 31.31776914830073 5.052187500000002 31.74587160902276 5.367949218750003 Q 32.17325074690336 5.6837109375000034 32.60204966216887 6.018046875000003 Q 33.02994292748457 6.352382812500005 33.458957611763786 6.705292968750005 Q 33.886853081444315 7.058203125000005 34.31552178354608 7.4296875000000036 Q 34.74282368230956 7.801171875000003 35.1704963793568 8.191230468750003 Q 35.59651798925007 8.581289062500003 36.02244943181286 8.989921875000004 Q 36.44640632241852 9.398554687500006 36.86974949370028 9.825761718750005 Q 37.290753245026025 10.252968750000006 37.71055341797044 10.698750000000006 Q 38.12760602916085 11.144531250000005 38.54279562663303 11.608886718750005 Q 38.95478482486043 12.073242187500005 39.36417930915148 12.556171875000006 Q 39.76987499380153 13.039101562500006 40.172170032003365 13.540605468750007 Q 40.57022210891135 14.042109375000008 40.963992279485616 14.56218750000001 Q 41.352930157727435 15.08226562500001 41.73662948000917 15.62091796875001 Q 42.114863518710706 16.15957031250001 42.486828100185924 16.71679687500001 Q 42.852653303976695 17.27402343750001 43.211106408876965 17.84982421875001 Q 43.56270867685046 18.42562500000001 43.905768522733226 19.02000000000001 Q 44.24104092856703 19.61343750000001 44.565236507717906 20.22336914062501 Q 44.88115088315582 20.83330078125001 45.18482388900049 21.45972656250001 Q 45.47949480171432 22.08615234375001 45.76072753550195 22.72907226562501 Q 46.03223572505921 23.37199218750001 46.2890873982299 24.03140625000001 Q 46.53550066907594 24.69082031250001 46.766030077748944 25.366728515625006 Q 46.985427350037256 26.042636718750003 47.1877187433344 26.735039062500004 Q 47.378217293147635 27.427441406250004 47.550409434948136 28.136337890625008 Q 47.71019529257669 28.845234375000004 47.85051364764122 29.570625000000007 Q 47.9778750490709 30.29601562500001 48.08466694506217 31.037900390625012 Q 48.17803064757339 31.77978515625001 48.24980317439416 32.53816406250001 Q 48.307773352400716 33.29654296875 48.34323365985427 34.071416015625005 Q 48.36463299237053 34.846289062500006 48.36273053719576 35.637656250000006 Q 48.34664298459481 36.42902343750001 48.30661315965916 37.23688476562501 Q 48.25242780612042 38.04474609375001 48.17383625968924 38.869101562500006 Q 48.08129147090787 39.693457031250006 47.96407829472453 40.534306640625005 Q 47.833305310614605 41.37515625 47.67782814489129 42.2325 Q 47.50939309732074 43.08984375 47.316468072152574 43.963681640625 Q 47.11141129199179 44.837519531249995 46.882350602303234 45.72785156249999 Q 46.64222196268335 46.61818359375 46.37886676236801 47.525009765625 Q 46.1057557010822 48.4318359375 45.81050290688007 49.35515624999999 Q 45.50706168595209 50.27847656249999 45.18288320874087 51.218291015624985 Q 44.852341909459895 52.15810546874999 44.502794786387874 53.11441406249999 Q 44.14896651008845 54.07072265625 43.77819240202795 55.04352539062499 Q 43.40546715733439 56.016328124999994 43.018179709314325 57.005624999999995 Q 42.631505522269116 57.994921874999996 42.23296416660229 59.000712890624996 Q 41.83781405765868 60.00650390625 41.433782976822705 61.028789062499996 Q 41.03610661422161 62.051074218749996 40.63279777894457 63.089853515624995 Q 40.238956846822056 64.1286328125 39.84295630902754 65.18390624999999 Q 39.45964292484294 66.2391796875 39.07781987850138 67.31094726562499 Q 38.71195776058524 68.38271484375 38.35135628767858 69.47097656249998 Q 38.0099848104256 70.55923828124997 37.67769870350463 71.66399414062498 Q 37.367840483088266 72.76874999999998 37.07087207696789 73.88999999999999 L 37.07087207696789 73.88999999999999 Z M 22.31362497854035 75.38999999999999 L 22.31362497854035 75.38999999999999 Q 22.621327525654998 74.08687499999999 22.941452733905745 72.82447265625 Q 23.29249162258187 71.5620703125 23.648563698766644 70.340390625 Q 24.030179323611133 69.1187109375 24.40982720730873 67.93775390625 Q 24.809831402481002 66.75679687499999 25.201422849806214 65.61656249999999 Q 25.60850582895235 64.47632812499998 26.00140536837957 63.376816406249986 Q 26.405355202635583 62.27730468749998 26.79009913579323 61.218515624999974 Q 27.181941887063864 60.15972656249997 27.550339518178863 59.14166015624997 Q 27.92241003183332 58.12359374999997 28.267581680835935 57.146249999999974 Q 28.61353599922955 56.16890624999998 28.929898888630905 55.23228515624997 Q 29.244679447208874 54.295664062499974 29.527892425211267 53.399765624999965 Q 29.80765680891189 52.503867187499964 30.054534248123097 51.648691406249974 Q 30.29655747917124 50.79351562499997 30.504961724372535 49.97906249999997 Q 30.707520967474537 49.16460937499997 30.876241529785165 48.390878906249974 Q 31.038490859806274 47.617148437499964 31.1671172784676 46.88414062499997 Q 31.28895885851744 46.151132812499974 31.37775286267971 45.45884765624997 Q 31.459709604201368 44.76656249999997 31.509480971074858 44.114999999999974 Q 31.552574548177862 43.463437499999976 31.564563916640417 42.852597656249976 Q 31.570200922268516 42.241757812499976 31.545971811560882 41.671640624999974 Q 31.515839895346716 41.10152343749997 31.457181311994198 40.57212890624997 Q 31.393156338508575 40.042734374999974 31.301996635302743 39.55406249999997 Q 31.206061246913382 39.06539062499998 31.084393321721365 38.617441406249974 Q 30.958566775504423 38.16949218749997 30.808384255186805 37.76226562499997 Q 30.654663016666227 37.35503906249997 30.47790674920283 36.98853515624997 Q 30.298215052735245 36.622031249999964 30.0967290135993 36.29624999999997 Q 29.892878424343976 35.970468749999974 29.668374015473375 35.68541015624997 Q 29.442030935384135 35.400351562499964 29.196058601431556 35.15601562499997 Q 28.948718636647754 34.91167968749997 28.682645729308092 34.70806640624997 Q 28.415613865103357 34.50445312499997 28.130607739503727 34.34156249999997 Q 27.844983339630218 34.178671874999964 27.541998756060906 34.05650390624997 Q 27.238664505753636 33.934335937499974 26.91843452625377 33.85289062499997 Q 26.59804856396886 33.771445312499964 26.26107826902548 33.73072265624997 Q 25.924068894477585 33.68999999999997 25.570631394477587 33.68999999999997 L 25.570631394477587 33.68999999999997 L 25.066881394477587 33.68999999999997 L 24.563131394477587 33.68999999999997 L 24.059381394477587 33.68999999999997 L 23.555631394477587 33.68999999999997 L 23.05188139447759 33.68999999999997 L 22.54813139447759 33.68999999999997 L 22.04438139447759 33.68999999999997 L 21.54063139447759 33.68999999999997 L 21.100545548102403 36.38999999999997 L 20.498750972171983 39.089999999999975 L 19.748762675469592 41.78999999999997 L 18.86742377826033 44.489999999999974 L 17.874527252121602 47.189999999999976 L 16.792371412472576 49.88999999999997 L 15.645259146482198 52.58999999999998 L 14.458952122617308 55.28999999999998 L 13.260092239107712 57.989999999999974 L 12.075603304348473 60.68999999999998 L 10.932086386207661 63.389999999999986 L 9.855222409390521 66.08999999999997 L 8.869195417235371 68.78999999999998 L 7.996149450237951 71.48999999999998 L 7.255691238641593 74.19 L 6.664449877545571 76.88999999999999 L 6.235703373279345 79.58999999999997 L 5.979080448006122 82.28999999999999 L 5.900344299381334 84.99 L 6.001263171558032 87.69 L 6.279570644235302 90.38999999999999 L 6.729016531572129 93.08999999999999 L 7.339507247886768 95.78999999999999 L 8.097332487830688 98.49 L 8.985473130289016 101.19 L 9.983983451149768 103.88999999999999 L 11.070439061266947 106.59 L 12.22044050989662 109.28999999999999 L 13.4081612437586 111.99 L 14.606927615744318 114.69000000000001 L 15.789817917525932 117.39000000000001 L 16.930266983085602 120.09 L 17.7052669830856 120.09 L 18.4802669830856 120.09 L 19.255266983085598 120.09 L 20.030266983085596 120.09 Q 20.4258919830856 120.09 20.790614958142957 120.0469921875 Q 21.15532073486702 120.003984375 21.489056097967847 119.91796875 Q 21.82272388266587 119.831953125 22.125288126483383 119.70292968749999 Q 22.427704892157312 119.57390625 22.698827596819623 119.40187499999999 Q 22.9696995629958 119.22984374999999 23.209040682557205 119.01480468749997 Q 23.44801317533408 118.79976562499998 23.655186796352705 118.54171875 Q 23.86187067387883 118.28367187500001 24.03647547195713 117.98261718750001 Q 24.210480343777352 117.6815625 24.35213696180224 117.33749999999999 Q 24.49311140981472 116.99343749999998 24.601506934945323 116.60636718749998 Q 24.709185873888373 116.21929687499997 24.784125488784486 115.78921874999997 Q 24.8583846748647 115.359140625 24.89985039187202 114.88605468749998 Q 24.940767889110134 114.41296874999998 24.948984034133332 113.89687499999997 Q 24.95690816964024 113.38078124999996 24.932412956264397 112.82167968749997 Q 24.908035929747626 112.26257812499998 24.851758046728335 111.66046874999996 Q 24.79619390024123 111.05835937499995 24.709532522723496 110.41324218749996 Q 24.62439762182923 109.76812499999997 24.509303648973113 109.07999999999996 Q 24.397422179115612 108.39187499999997 24.257649488393376 107.65816406249998 Q 24.121831971451048 106.92445312499997 23.96014331303409 106.14515624999997 Q 23.80410245830223 105.36585937499997 23.624716825227832 104.54097656249998 Q 23.453018767737117 103.71609374999997 23.261045807152026 102.84562499999996 Q 23.079159619597455 101.97515624999997 22.880635762141146 101.05910156249996 Q 22.69495625527847 100.14304687499997 22.496849569337783 99.18140624999995 Q 22.314685082429836 98.21976562499995 22.124860189776008 97.21253906249997 Q 21.954376545021994 96.20531249999996 21.78151059909009 95.15249999999997 Q 21.63162226436581 94.09968749999999 21.485063134082836 93.00128906249998 Q 21.365263055587068 91.90289062499998 21.25482163219399 90.75890624999998 Q 21.174942322140403 89.61492187499998 21.11061243570901 88.4253515625 Q 21.08051288996657 87.23578124999999 21.072114841737278 86.00062499999999 Q 21.101290864585316 84.76546875 21.158038183345624 83.4847265625 Q 21.255157825206176 82.203984375 21.38515162915388 80.87765625 Q 21.557522756810442 79.551328125 21.767184065883093 78.1794140625 Q 22.02016755955732 76.80749999999999 22.31362497854035 75.38999999999999 L 22.31362497854035 75.38999999999999 Z" fill="black" stroke="black" />
				</svg>