<svg
					xmlns="http://www.w3.org/2000/svg" xmlns:xlink="http://www.w3.org/1999/xlink"
					style="
						overflow: visible;
						height: 100;
					"
					viewBox="-7.997173821717014 0 58.231319163829156 154.23"
				>
					<path d="M 22.866010063568737 69.11999999999998 L 22.676388344014565 70.44984374999997 L 22.517222036876458 71.77968749999998 L 22.39073580065473 73.10953124999997 L 22.298975997824183 74.43937499999998 L 22.24379953028376 75.76921874999996 L 22.226863708465824 77.09906249999997 L 22.249617209377085 78.42890624999998 L 22.3132921729024 79.75874999999998 L 22.418897479492397 81.08859374999997 L 22.567213245910636 82.41843749999998 L 22.75878656907027 83.74828124999999 L 22.99392854118115 85.07812499999997 L 23.272712552492024 86.40796874999998 L 23.59497389088783 87.73781249999998 L 23.9603106405265 89.06765624999998 L 24.36808587461261 90.39749999999998 L 24.817431130344403 91.72734374999997 L 25.30725114707567 93.05718749999998 L 25.836229841841977 94.38703124999998 L 26.40283748964984 95.71687499999999 L 27.005339069354893 97.04671875 L 27.641803729595136 98.37656249999999 L 28.3101153231355 99.70640624999999 L 29.00798395215 101.03624999999998 L 29.73295846145291 102.36609374999998 L 30.48243981151837 103.69593749999997 L 31.25369525832774 105.02578124999997 L 32.043873262682304 106.35562499999997 L 32.85001904763912 107.68546875 L 33.66909071919159 109.0153125 L 34.497975862243614 110.34515624999999 L 35.33350852133285 111.67499999999998 L 36.17248647345975 113.00484374999998 L 37.01168869878502 114.33468749999997 L 37.84789295387899 115.66453124999997 L 38.677893351646695 116.99437499999999 L 39.49851785201587 118.32421875 L 40.30664556796246 119.6540625 L 41.09922379245505 120.98390624999999 L 41.87328465342271 122.31374999999998 L 42.625961305880054 123.64359374999998 L 43.35450357286838 124.97343749999997 L 44.05629294987912 126.30328124999997 L 44.7288568908983 127.63312499999998 L 45.369882298130236 128.96296875000002 L 45.97722814180318 130.2928125 L 46.54893714120581 131.62265624999998 L 47.08324644322492 132.9525 L 47.57859724012457 134.28234375 L 48.03364327409385 135.61218749999998 L 48.44725818216414 136.94203124999996 L 48.818541641423465 138.271875 L 49.14682428100081 139.60171875 L 49.43167133402172 140.93156249999998 L 49.6728850096106 142.26140625 L 49.87050557199878 143.59125 L 50.02481112085081 144.92109374999998 L 50.13631607400754 146.25093749999996 L 50.205768360923656 147.58078124999997 L 50.23414534211214 148.91062499999998 L 50.22264847685787 150.24046875 L 50.172696768292575 151.5703125 L 50.08591902159346 152.90015625 L 49.96414495754324 154.23 L 48.98351995754324 154.23 L 48.00289495754324 154.23 L 47.022269957543244 154.23 L 46.04164495754324 154.23 L 45.06101995754324 154.23 L 44.08039495754324 154.23 L 43.099769957543245 154.23 L 42.11914495754324 154.23 L 41.13851995754324 154.23 L 40.15789495754324 154.23 L 39.177269957543245 154.23 L 38.19664495754324 154.23 L 37.21601995754324 154.23 L 36.23539495754324 154.23 L 35.25476995754324 154.23 L 34.27414495754324 154.23 L 34.46102049049892 152.386875 L 34.579298641590064 150.54375 L 34.62441758205371 148.700625 L 34.59258188063836 146.85750000000002 L 34.48080226358827 145.014375 L 34.286926929524306 143.17125 L 34.00966409117467 141.328125 L 33.64859550781381 139.48499999999999 L 33.204180866647185 137.64187499999997 L 32.67775296724359 135.79874999999998 L 32.0715037594617 133.955625 L 31.38846138113403 132.11249999999998 L 30.632458436055703 130.269375 L 29.80809184458992 128.42624999999998 L 28.920674687485125 126.58312499999998 L 27.97618054737578 124.74 L 26.98118093103139 122.89687500000001 L 25.942776427902494 121.05375000000001 L 24.86852232612939 119.210625 L 23.766349465241646 117.3675 L 22.644481154675503 115.52437499999999 L 21.51134702845016 113.68124999999999 L 20.37549473843947 111.838125 L 19.245500411318208 109.995 L 18.12987880721359 108.15187499999999 L 17.036994121217226 106.30875 L 15.974972362178589 104.46562499999999 L 14.951616226677748 102.62249999999999 L 13.974323359936207 100.779375 L 13.050008859943954 98.93625 L 12.185032836630171 97.09312499999999 L 11.385133784949415 95.25 L 11.10353542403318 96.16874999999999 L 10.838770406418455 97.08749999999999 L 10.590190204364134 98.00625 L 10.35710413376379 98.92499999999998 L 10.138781153161014 99.84374999999997 L 9.934451767883004 100.76249999999997 L 9.743310034332694 101.68124999999998 L 9.56451565921889 102.59999999999997 L 10.179959189669212 104.21343749999997 L 10.825833450181635 105.82687499999997 L 11.496952632407572 107.44031249999998 L 12.18792823324221 109.05374999999998 L 12.893212319816023 110.66718749999998 L 13.607142074568541 112.28062499999999 L 14.323985262746262 113.89406249999999 L 15.037986257260188 115.50749999999996 L 15.743412251363537 117.12093749999995 L 16.43459928810185 118.73437499999996 L 17.105997736959253 120.34781249999996 L 17.752216852562864 121.96124999999996 L 18.36806805767777 123.57468749999997 L 18.94860660296771 125.18812499999997 L 19.489171269029928 126.80156249999997 L 19.98542179193132 128.41499999999996 L 20.43337371175145 130.0284375 L 20.829430364328896 131.64187499999997 L 21.170411759345072 133.2553125 L 21.45358011287965 134.86874999999998 L 21.67666182943332 136.4821875 L 21.837865756921467 138.09562499999998 L 21.935897568066924 139.70906250000002 L 21.969970152721878 141.3225 L 21.93980993767748 142.93593749999997 L 21.845659083218685 144.54937499999997 L 21.688273538787872 146.16281249999997 L 21.468916973368543 147.77624999999998 L 21.18935062932291 149.38968749999998 L 20.85181918114811 151.00312499999998 L 20.459032712693084 152.6165625 L 20.014144957543238 154.23 L 19.14101995754324 154.23 L 18.26789495754324 154.23 L 17.39476995754324 154.23 L 16.521644957543238 154.23 L 15.64851995754324 154.23 L 14.77539495754324 154.23 L 13.90226995754324 154.23 L 13.029144957543238 154.23 L 12.156019957543238 154.23 L 11.282894957543238 154.23 L 10.409769957543238 154.23 L 9.536644957543238 154.23 L 8.663519957543237 154.23 L 7.790394957543237 154.23 L 6.917269957543237 154.23 L 6.044144957543237 154.23 L 6.689633348659115 151.82015625 L 7.21539634179366 149.4103125 L 7.612024275711937 147.00046875 L 7.872418639215512 144.590625 L 7.991919114290268 142.18078125 L 7.968386982535421 139.7709375 L 7.80224340213601 137.36109375 L 7.49646187033002 134.95125000000002 L 7.056515006270511 132.54140625000002 L 6.4902766067180595 130.1315625 L 5.807880727487896 127.72171874999998 L 5.021540312692729 125.31187499999999 L 4.145328617801636 122.90203125 L 3.1949273384202193 120.4921875 L 2.187345952569965 118.08234375 L 1.14061729944133 115.67249999999999 L 0.07347484289440007 113.26265624999998 L -0.9949826042280393 110.85281249999998 L -2.045632694494423 108.44296874999999 L -3.0596717814804855 106.033125 L -4.018951451524302 103.62328125 L -4.906303328679772 101.2134375 L -5.705846339784155 98.80359374999998 L -6.403270940469536 96.39374999999998 L -6.986095215281514 93.98390624999999 L -7.443888268441761 91.57406249999998 L -7.768456907195749 89.16421874999997 L -7.953992276644891 86.75437499999998 L -7.997173821717014 84.34453124999999 L -7.897228715651699 81.9346875 L -7.65594569139981 79.52484374999999 L -7.277643028394484 77.115 L -6.769091267639249 74.70515625 L -6.139392038293308 72.2953125 L -5.399815164413173 69.88546875 L -4.5635969671764265 67.47562500000001 L -3.6457033724037173 65.06578125 L -2.6625620630801943 62.65593749999999 L -1.6317684705839168 60.24609375 L -0.5717708665414396 57.83624999999999 L 0.4984598087297503 55.42640624999999 L 1.5597694720608952 53.0165625 L 2.5931637010074344 50.60671875 L 3.5801476799518426 48.19687499999999 L 4.503057204666249 45.78703124999999 L 5.3453748212950805 43.37718749999999 L 6.092025441769753 40.96734375 L 6.7296461449808085 38.5575 L 7.246825335034373 36.14765625 L 7.6343069763408105 33.737812500000004 L 7.885156250308727 31.327968749999997 L 7.994883668860999 28.918124999999996 L 7.961525423494092 26.50828125 L 7.785678531861195 24.098437499999996 L 7.470490152855364 21.688593749999995 L 7.02160126142228 19.27875 L 6.447045691163148 16.868906250000002 L 5.757106351577854 14.459062499999998 L 4.964131193250472 12.049218749999998 L 4.082312214676566 9.639375 L 3.1274314658811067 7.229531249999999 L 2.1165785946393574 4.8196875 L 1.067844990419508 2.40984375 L 0 0 L 0.8731250000000002 0 L 1.7462500000000003 0 L 2.6193750000000007 0 L 3.4925000000000006 0 L 4.365625000000001 0 L 5.238750000000001 0 L 6.111875000000001 0 L 6.985000000000001 0 L 7.858125000000002 0 L 8.731250000000003 0 L 9.604375000000003 0 L 10.477500000000003 0 L 11.350625000000003 0 L 12.223750000000003 0 L 13.096875000000002 0 L 13.970000000000002 0 L 14.89790673523878 2.0924999999999994 L 15.813287796461786 4.184999999999999 L 16.703786591850402 6.277499999999998 L 17.557382411565076 8.369999999999997 L 18.362552693506693 10.462499999999997 L 19.108428564656254 12.554999999999996 L 19.784941558363556 14.647499999999996 L 20.38295952707022 16.739999999999995 L 20.894409915801564 18.832499999999996 L 21.31238873237691 20.924999999999994 L 21.63125374336579 23.01749999999999 L 21.8467006377518 25.109999999999992 L 21.955821130182215 27.202499999999993 L 21.957142219476296 29.29499999999999 L 21.850646072447564 31.38749999999999 L 21.637770264631317 33.47999999999999 L 21.321388374667833 35.57249999999999 L 20.905771194294772 37.66499999999999 L 20.396529077569284 39.757499999999986 L 19.800536207539047 41.84999999999999 L 19.125837802675083 43.94249999999999 L 18.381541515672797 46.03499999999998 L 17.577694490612615 48.12749999999999 L 16.72514773806713 50.219999999999985 L 15.835409658934884 52.31249999999998 L 14.920490694260641 54.40499999999999 L 13.992741198090934 56.49749999999999 L 13.064684721894906 58.58999999999998 L 12.14884896101907 60.682499999999976 L 11.257596645204533 62.77499999999998 L 10.402958655950211 64.86749999999998 L 9.596471623445714 66.95999999999998 Q 10.284474646468524 65.72249999999998 11.012186947276806 64.475625 Q 11.756256916606368 63.22874999999999 12.53572139783036 61.9725 Q 13.326746003991067 60.71625 14.148321172491814 59.450625 Q 14.56166031564005 58.8178125 14.98165488183274 58.18265625 Q 15.402552350662747 57.54749999999999 15.829418680694072 56.91 Q 16.254819940130638 56.27625 16.67523209040913 55.6509375 Q 17.09516297065293 55.025625000000005 17.509460812232966 54.40875 Q 18.334394643031477 53.175000000000004 19.133438392825934 51.974999999999994 Q 19.923547948348567 50.77499999999999 20.684182868248673 49.608749999999986 Q 21.432192400018074 48.442499999999995 22.148153621653954 47.30999999999999 L 22.148153621653954 47.30999999999999 L 23.044184892896936 45.83156249999999 L 23.90996498336605 44.35312499999999 L 24.741931998946256 42.87468749999999 L 25.536752027978487 41.39624999999999 L 26.291341619941917 39.91781249999998 L 27.00288857541836 38.439374999999984 L 27.66887090716375 36.960937499999986 L 28.28707384444293 35.48249999999999 L 28.855604765977137 34.00406249999999 L 29.372905960819764 32.52562499999999 L 29.83776513112097 31.047187499999996 L 30.249323565967025 29.568749999999994 L 30.607081931182734 28.09031249999999 L 30.910903636059608 26.61187499999999 L 31.161015754309798 25.133437499999992 L 31.358007493036403 23.654999999999994 L 31.50282622004293 22.176562499999996 L 31.59677107626756 20.698124999999994 L 31.64148421640995 19.219687499999992 L 31.638939736810087 17.741249999999994 L 31.59143036523226 16.262812499999995 L 31.50155200229736 14.784374999999997 L 31.372186218791967 13.305937499999995 L 31.206480826864954 11.827499999999997 L 31.007828656108977 10.349062499999997 L 30.779844677627864 8.870624999999997 L 30.526341630329323 7.392187499999999 L 30.251304313781084 5.9137499999999985 L 29.95886272095925 4.435312499999998 L 29.653264192039543 2.9568749999999993 L 29.338844776982718 1.4784374999999996 L 29.020000000000003 0 L 29.969375000000003 0 L 30.918750000000003 0 L 31.868125000000003 0 L 32.8175 0 L 33.766875 0 L 34.71625 0 L 35.665625000000006 0 L 36.615 0 L 37.564375 0 L 38.51375 0 L 39.463125000000005 0 L 40.4125 0 L 41.361875 0 L 42.31125 0 L 43.260625000000005 0 L 44.21 0 L 44.66144765831135 2.1599999999999993 L 45.09912101141708 4.3199999999999985 L 45.509443866200726 6.479999999999998 L 45.87923340433186 8.639999999999997 L 46.19588978716028 10.799999999999997 L 46.447577375771786 12.959999999999996 L 46.62339495976687 15.119999999999994 L 46.71353254640798 17.279999999999994 L 46.70941245507957 19.439999999999994 L 46.6038126877378 21.599999999999994 L 46.39097080094612 23.75999999999999 L 46.06666678553349 25.91999999999999 L 45.628283761839725 28.079999999999988 L 45.074845617584614 30.239999999999988 L 44.40703104702556 32.39999999999999 L 43.6271637894826 34.55999999999999 L 42.73917920762704 36.719999999999985 L 41.748567686229464 38.87999999999999 L 40.66229566544738 41.03999999999999 L 39.48870544440921 43.19999999999999 L 38.23739519619266 45.359999999999985 L 36.9190809199092 47.51999999999998 L 35.54544231540045 49.679999999999986 L 34.1289547972889 51.83999999999998 L 32.68271006447895 53.99999999999998 L 31.22022780580878 56.159999999999975 L 29.755261250039144 58.31999999999997 L 28.30159935690097 60.479999999999976 L 26.872868494234137 62.639999999999986 L 25.48233645364119 64.79999999999998 L 24.14272162344571 66.95999999999998 L 22.866010063568737 69.11999999999998 L 22.866010063568737 69.11999999999998 Z" fill="black" stroke="black" />
				</svg>