<svg
					xmlns="http://www.w3.org/2000/svg" xmlns:xlink="http://www.w3.org/1999/xlink"
					style="
						overflow: visible;
						height: 100;
					"
					viewBox="-7.997173821717014 0 49.69655115768692 154.23"
				>
					<path d="M 39.74414495754324 154.23 L 39.217582457543244 154.23 L 38.69101995754324 154.23 L 38.16445745754324 154.23 L 37.63789495754324 154.23 L 37.11133245754324 154.23 L 36.584769957543244 154.23 L 36.05820745754324 154.23 L 35.53164495754324 154.23 L 35.00508245754324 154.23 L 34.47851995754324 154.23 L 33.95195745754324 154.23 L 33.42539495754324 154.23 L 32.898832457543236 154.23 L 32.37226995754324 154.23 L 31.84570745754324 154.23 L 31.319144957543237 154.23 L 30.79258245754324 154.23 L 30.266019957543243 154.23 L 29.73945745754324 154.23 L 29.21289495754324 154.23 L 28.686332457543237 154.23 L 28.15976995754324 154.23 L 27.633207457543236 154.23 L 27.10664495754324 154.23 L 26.580082457543234 154.23 L 26.053519957543237 154.23 L 25.52695745754324 154.23 L 25.000394957543236 154.23 L 24.47383245754324 154.23 L 23.94726995754324 154.23 L 23.420707457543237 154.23 L 22.89414495754324 154.23 L 22.367582457543236 154.23 L 21.84101995754324 154.23 L 21.31445745754324 154.23 L 20.787894957543237 154.23 L 20.26133245754324 154.23 L 19.734769957543236 154.23 L 19.20820745754324 154.23 L 18.681644957543238 154.23 L 18.155082457543237 154.23 L 17.62851995754324 154.23 L 17.101957457543236 154.23 L 16.57539495754324 154.23 L 16.048832457543234 154.23 L 15.522269957543237 154.23 L 14.995707457543238 154.23 L 14.469144957543238 154.23 L 13.942582457543239 154.23 L 13.416019957543238 154.23 L 12.889457457543237 154.23 L 12.362894957543237 154.23 L 11.836332457543238 154.23 L 11.309769957543237 154.23 L 10.783207457543238 154.23 L 10.256644957543237 154.23 L 9.730082457543237 154.23 L 9.203519957543238 154.23 L 8.676957457543237 154.23 L 8.150394957543238 154.23 L 7.623832457543237 154.23 L 7.0972699575432365 154.23 L 6.570707457543237 154.23 L 6.044144957543237 154.23 L 6.689633348659115 151.82015625 L 7.21539634179366 149.4103125 L 7.612024275711937 147.00046875 L 7.872418639215512 144.590625 L 7.991919114290268 142.18078125 L 7.968386982535421 139.7709375 L 7.80224340213601 137.36109375 L 7.49646187033002 134.95125000000002 L 7.056515006270511 132.54140625000002 L 6.4902766067180595 130.1315625 L 5.807880727487896 127.72171874999998 L 5.021540312692729 125.31187499999999 L 4.145328617801636 122.90203125 L 3.1949273384202193 120.4921875 L 2.187345952569965 118.08234375 L 1.14061729944133 115.67249999999999 L 0.07347484289440007 113.26265624999998 L -0.9949826042280393 110.85281249999998 L -2.045632694494423 108.44296874999999 L -3.0596717814804855 106.033125 L -4.018951451524302 103.62328125 L -4.906303328679772 101.2134375 L -5.705846339784155 98.80359374999998 L -6.403270940469536 96.39374999999998 L -6.986095215281514 93.98390624999999 L -7.443888268441761 91.57406249999998 L -7.768456907195749 89.16421874999997 L -7.953992276644891 86.75437499999998 L -7.997173821717014 84.34453124999999 L -7.897228715651699 81.9346875 L -7.65594569139981 79.52484374999999 L -7.277643028394484 77.115 L -6.769091267639249 74.70515625 L -6.139392038293308 72.2953125 L -5.399815164413173 69.88546875 L -4.5635969671764265 67.47562500000001 L -3.6457033724037173 65.06578125 L -2.6625620630801943 62.65593749999999 L -1.6317684705839168 60.24609375 L -0.5717708665414396 57.83624999999999 L 0.4984598087297503 55.42640624999999 L 1.5597694720608952 53.0165625 L 2.5931637010074344 50.60671875 L 3.5801476799518426 48.19687499999999 L 4.503057204666249 45.78703124999999 L 5.3453748212950805 43.37718749999999 L 6.092025441769753 40.96734375 L 6.7296461449808085 38.5575 L 7.246825335034373 36.14765625 L 7.6343069763408105 33.737812500000004 L 7.885156250308727 31.327968749999997 L 7.994883668860999 28.918124999999996 L 7.961525423494092 26.50828125 L 7.785678531861195 24.098437499999996 L 7.470490152855364 21.688593749999995 L 7.02160126142228 19.27875 L 6.447045691163148 16.868906250000002 L 5.757106351577854 14.459062499999998 L 4.964131193250472 12.049218749999998 L 4.082312214676566 9.639375 L 3.1274314658811067 7.229531249999999 L 2.1165785946393574 4.8196875 L 1.067844990419508 2.40984375 L 0 0 L 0.8687500000000001 0 L 1.7375000000000003 0 L 2.60625 0 L 3.4750000000000005 0 L 4.34375 0 L 5.2125 0 L 6.081250000000001 0 L 6.950000000000001 0 L 7.8187500000000005 0 L 8.6875 0 L 9.55625 0 L 10.425 0 L 11.293750000000001 0 L 12.162500000000001 0 L 13.031250000000002 0 L 13.900000000000002 0 L 14.735556691663007 1.8834375000000003 L 15.56197357559929 3.7668750000000006 L 16.370210820644 5.650312500000001 L 17.15142745515393 7.533750000000001 L 17.89707807472555 9.4171875 L 18.599006316825708 11.300625000000002 L 19.249534079854893 13.184062500000003 L 19.84154551071264 15.067500000000003 L 20.368564842160104 16.950937500000002 L 20.824827228549168 18.834375 L 21.205341805075392 20.717812500000004 L 21.505946280775923 22.601250000000004 L 21.723352468102128 24.484687500000007 L 21.85518225103797 26.368125000000006 L 21.899993598323668 28.251562500000002 L 21.857296337236953 30.135000000000005 L 21.727557515388934 32.018437500000005 L 21.512196291884212 33.901875000000004 L 21.213568413728662 35.7853125 L 20.83494044729105 37.66875 L 20.380454046689792 39.55218750000001 L 19.855080649958182 41.43562500000001 L 19.264567098547886 43.3190625 L 18.615372775016375 45.20250000000001 L 17.914598946523093 47.085937500000014 L 17.16991108701644 48.969375000000014 L 16.38945502779694 50.852812500000006 L 15.581767853650815 52.73625000000001 L 14.755684519224097 54.61968750000001 L 13.920241207122052 56.503125000000004 L 13.084576484859447 58.38656250000001 L 12.257831341864886 60.27000000000001 L 11.44904919999277 62.15343750000001 L 10.66707699128645 64.03687500000001 L 9.920468385061888 65.92031250000001 L 9.217390222870456 67.80375000000001 L 8.565533184810114 69.68718750000002 L 7.972027664368981 71.570625 L 7.44336577201149 73.4540625 L 6.985330320677569 75.3375 L 6.602931569992918 77.22093750000002 L 6.300352421119197 79.10437500000002 L 6.080902661734989 80.98781250000002 L 5.946982761642592 82.87125000000002 L 5.9000576150255375 84.75468750000002 L 5.940640516579334 86.638125 L 6.06828754679392 88.52156250000002 L 6.281602427804858 90.40500000000002 L 6.57825179669717 92.28843750000001 L 6.954990729193451 94.17187500000003 L 7.407698234533227 96.05531250000001 L 7.9314223332798885 97.93875000000003 L 8.520434224967628 99.82218750000001 L 9.168290953071187 101.70562500000001 L 9.867905881832147 103.58906250000003 L 10.611626214025092 105.47250000000003 L 11.391316701729078 107.35593750000001 L 12.19844863442683 109.23937500000002 L 13.024193131027962 111.12281250000001 L 13.859517715333507 113.00625000000001 L 14.695285118542778 114.88968750000002 L 15.52235322804291 116.77312500000002 L 16.331675089183012 118.6565625 L 17.114397866154743 120.54000000000002 L 17.73314786615474 120.54000000000002 L 18.351897866154744 120.54000000000002 L 18.970647866154742 120.54000000000002 L 19.58939786615474 120.54000000000002 L 20.20814786615474 120.54000000000002 L 20.82689786615474 120.54000000000002 L 21.445647866154744 120.54000000000002 L 22.064397866154742 120.54000000000002 L 22.68314786615474 120.54000000000002 L 23.301897866154743 120.54000000000002 L 23.920647866154745 120.54000000000002 L 24.539397866154744 120.54000000000002 L 25.158147866154742 120.54000000000002 L 25.776897866154744 120.54000000000002 L 26.395647866154746 120.54000000000002 L 27.014397866154745 120.54000000000002 L 27.633147866154744 120.54000000000002 L 28.251897866154746 120.54000000000002 L 28.870647866154748 120.54000000000002 L 29.489397866154746 120.54000000000002 L 30.108147866154745 120.54000000000002 L 30.726897866154744 120.54000000000002 L 31.345647866154742 120.54000000000002 L 31.964397866154744 120.54000000000002 L 32.58314786615475 120.54000000000002 L 33.201897866154745 120.54000000000002 L 33.820647866154744 120.54000000000002 L 34.43939786615474 120.54000000000002 L 35.05814786615474 120.54000000000002 L 35.67689786615475 120.54000000000002 L 36.295647866154745 120.54000000000002 L 36.914397866154744 120.54000000000002 L 37.7474450624365 122.64562500000002 L 38.525169642785684 124.75125000000003 L 39.23694125704405 126.85687500000003 L 39.87303103501326 128.9625 L 40.42474456578907 131.068125 L 40.884540737559696 133.17374999999998 L 41.24613481350332 135.27937500000002 L 41.504584334888975 137.385 L 41.65635667721183 139.49062500000002 L 41.699377335969906 141.59625 L 41.63305828208686 143.70187500000003 L 41.45830599940382 145.8075 L 41.177509094379694 147.91312499999998 L 40.794505647357035 150.01874999999998 L 40.31453075165364 152.124375 L 39.74414495754324 154.23 L 39.74414495754324 154.23 Z" fill="black" stroke="black" />
				</svg>