<svg
					xmlns="http://www.w3.org/2000/svg" xmlns:xlink="http://www.w3.org/1999/xlink"
					style="
						overflow: visible;
						height: 100;
					"
					viewBox="-7.997173821717014 0 54.28739124630745 154.23"
				>
					<path d="M 0 0 L 0.5603125 0 L 1.120625 0 L 1.6809375 0 L 2.24125 0 L 2.8015625 0 L 3.361875 0 L 3.9221874999999997 0 L 4.4825 0 L 5.0428125 0 L 5.603125 0 L 6.163437500000001 0 L 6.72375 0 L 7.284062499999999 0 L 7.844374999999999 0 L 8.4046875 0 L 8.965 0 L 9.5253125 0 L 10.085625 0 L 10.6459375 0 L 11.20625 0 L 11.766562500000001 0 L 12.326875000000001 0 L 12.8871875 0 L 13.4475 0 L 14.0078125 0 L 14.568124999999998 0 L 15.128437499999999 0 L 15.688749999999999 0 L 16.2490625 0 L 16.809375 0 L 17.369687499999998 0 L 17.93 0 Q 18.27875 0 18.62555012999985 0.009697265625000007 Q 18.972350258748808 0.019394531250000013 19.317200507490472 0.03878906250000003 Q 19.662050736217857 0.05818359375000004 20.004951019891614 0.08727539062500006 Q 20.347851202243415 0.11636718750000008 20.68880122939319 0.1551562500000001 Q 21.029750936318305 0.19394531250000013 21.368749997702636 0.24243164062500017 Q 21.70774827730262 0.2909179687500002 22.044794960734826 0.34910156250000024 Q 22.38184002311205 0.4072851562500003 22.716931853334064 0.4751660156250003 Q 23.05202068051307 0.5430468750000004 23.38515368420943 0.6206250000000004 Q 23.718281565268924 0.6982031250000005 24.049449761405338 0.7854785156250006 Q 24.38060975304984 0.8727539062500006 24.70980456883044 0.9697265625000007 Q 25.03898688175601 1.0666992187500006 25.366196494640242 1.1733691406250009 Q 25.693387806213785 1.2800390625000009 26.01859641262303 1.396406250000001 Q 26.343779106604323 1.512773437500001 26.666966118185435 1.638837890625001 Q 26.990117452481094 1.764902343750001 27.31125662108389 1.9006640625000013 Q 27.632347824837403 2.0364257812500015 27.95140629771107 2.1818847656250013 Q 28.270401599408423 2.3273437500000016 28.587338906532743 2.4825000000000017 Q 29.220963293661413 2.792812500000002 29.84616203683027 3.1419140625000024 Q 30.470838204365243 3.4910156250000024 31.086740165549703 3.8789062500000027 Q 31.701847767403244 4.2667968750000025 32.3077055489785 4.6934765625000034 Q 32.91240450449568 5.1201562500000035 33.50722480626999 5.585625000000004 Q 34.10041164763477 6.051093750000004 34.6829103134905 6.555351562500004 Q 35.26317282215575 7.059609375000004 35.8317288429836 7.602656250000005 Q 36.397300243399954 8.145703125000006 36.949910165009314 8.727539062500005 Q 37.49862447536159 9.309375000000006 38.03285901217571 9.930000000000007 Q 38.563428726083885 10.552500000000006 39.08226219075953 11.208632812500005 Q 39.59489665395195 11.864765625000004 40.093893885759805 12.554531250000002 Q 40.585346768650304 13.244296875 41.06100077071243 13.967695312499998 Q 41.5276058059977 14.691093749999999 41.97598813793857 15.448124999999997 Q 42.413664542730196 16.205156249999995 42.830438308379996 16.995820312499994 Q 43.23471054691933 17.786484374999993 43.61515918929562 18.610781249999995 Q 43.98119366052667 19.435078124999993 44.32026815073049 20.29300781249999 Q 44.6429293423037 21.15093749999999 44.9353162401745 22.04249999999999 Q 45.209244717333796 22.93406249999999 45.449457326588806 23.859257812499987 Q 45.66917159161167 24.784453124999985 45.85166600134911 25.74328124999999 Q 46.011689737811295 26.70210937499999 46.131006907541995 27.694570312499984 Q 46.226022386958384 28.687031249999983 46.27695656908544 29.713124999999984 Q 46.301984023438116 30.739218749999985 46.27977670689478 31.79894531249998 Q 46.230378244891114 32.858671874999985 46.13093543750724 33.95203124999998 Q 46.0034406019471 35.04539062499998 45.82356965121724 36.172382812499976 Q 45.615317991377104 37.29937499999998 45.35297829492172 38.45999999999998 L 45.35297829492172 38.45999999999998 Q 45.03446085272164 39.727499999999985 44.67887901831678 40.94624999999999 Q 44.295351630904186 42.16499999999999 43.88243525775632 43.334999999999994 Q 43.44688376989989 44.504999999999995 42.988970998601744 45.62625 Q 42.51336247578191 46.747499999999995 42.0216430452543 47.81999999999999 Q 41.516688425792054 48.8925 41.00102212608789 49.91624999999999 Q 40.47603739106819 50.93999999999999 39.94486262039377 51.91499999999999 Q 39.40771346593005 52.889999999999986 38.86803047349606 53.81624999999998 Q 38.32514482022763 54.742499999999986 37.78255814718828 55.619999999999976 Q 37.24024119809094 56.497499999999974 36.70837090635406 57.329531249999974 Q 36.17724177689202 58.161562499999974 35.65798010714281 58.948124999999976 Q 35.14074843662038 59.734687499999986 34.63624236157287 60.47578124999998 Q 34.13467109678979 61.21687499999998 33.64619972454416 61.91249999999999 Q 33.16123584995933 62.608124999999994 32.68934183310437 63.25828124999999 Q 32.221248431496996 63.908437499999984 31.765867909625282 64.51312499999999 Q 31.31435270505736 65.11781249999999 30.874939671335625 65.67703125 Q 30.439276507555885 66.23625 30.014918700868023 66.75 Q 29.59530954472268 67.26375 29.19220265629047 67.73671875 Q 28.792311899051185 68.2096875 28.408052319574388 68.64187499999998 Q 28.02666325431737 69.07406249999998 27.65999714264183 69.46546874999999 Q 27.29581834700375 69.85687499999999 26.945451429866285 70.20749999999998 Q 26.597173081224597 70.55812499999996 26.26182210600291 70.86796874999997 Q 25.928164123152744 71.17781249999997 25.6066004538402 71.44687499999998 Q 25.28635302386642 71.71593749999997 24.97743899828361 71.94421874999998 Q 24.669496144671676 72.17249999999997 24.372214873887813 72.35999999999997 L 24.372214873887813 72.35999999999997 L 24.077058011334085 73.43999999999997 Q 24.288431949396912 73.63124999999997 24.492063724031727 73.85578124999998 Q 24.696716286930076 74.08031249999999 24.894250020519557 74.33812499999999 Q 25.09315425942607 74.59593749999999 25.285673554633753 74.88703124999998 Q 25.479974304859407 75.178125 25.668740641246597 75.50249999999998 Q 25.85976434103661 75.82687499999997 26.04622671501045 76.18453124999998 Q 26.235490666677567 76.54218749999998 26.421294288137744 76.93312499999998 Q 26.610514660981583 77.32406249999997 26.797507947252726 77.74828124999999 Q 26.988605717636844 78.17249999999999 27.178844720306103 78.62999999999998 Q 27.373948639679774 79.08749999999998 27.555990398789813 79.60124999999996 Q 27.74427644125257 80.11499999999998 27.922341408144856 80.68499999999997 Q 28.108216893505055 81.25499999999998 28.287069466709482 81.88124999999998 Q 28.475475720804415 82.50749999999996 28.66039957843312 83.18999999999998 Q 28.856776153890493 83.87249999999999 29.053522308553948 84.61124999999998 Q 29.26374098674225 85.35 29.478441594989416 86.14499999999998 Q 29.708703159152513 86.94 29.947744072554606 87.79124999999999 Q 30.20443099362825 88.64249999999998 30.474276460875764 89.54999999999998 Q 30.76324225495813 90.45374999999999 31.06209240621134 91.43671874999998 Q 31.38320210653501 92.41968749999998 31.720417993868992 93.48187499999997 Q 32.08232297111645 94.54406249999998 32.46615606698621 95.68546874999998 Q 32.87646657692913 96.82687499999997 33.31371454612018 98.04749999999997 Q 33.77825027328745 99.26812499999997 34.2734334607965 100.56796874999998 Q 34.79535531841847 101.86781249999997 35.349788476313286 103.24687499999997 Q 35.92864394524375 104.62593749999998 36.53944739165932 106.08421874999996 Q 37.17018438780533 107.54249999999995 37.82930364897311 109.07999999999996 L 37.82930364897311 109.07999999999996 Q 38.40154605570367 110.39062499999996 38.944262479654945 111.66656249999997 Q 39.490169432885565 112.94249999999997 40.000526517174805 114.18374999999996 Q 40.50858982697634 115.42499999999995 40.97612403246826 116.63156249999997 Q 41.43664836942541 117.83812499999996 41.85272265641726 119.00999999999996 Q 42.25786174834665 120.18187499999996 42.61566399739843 121.31906249999997 Q 42.95938803470467 122.45624999999995 43.25386820870617 123.55874999999996 Q 43.5318761102001 124.66124999999997 43.75963561878063 125.72906249999997 Q 43.969225440013915 126.79687499999996 44.12837150601319 127.82999999999998 Q 44.26828137764827 128.863125 44.358258106740465 129.8615625 Q 44.42848883157218 130.85999999999999 44.44989530097186 131.82375 Q 44.45152425679396 132.7875 44.405928397469495 133.7165625 Q 44.340922808991934 134.645625 44.230678265504416 135.53999999999996 Q 44.10171431885441 136.434375 43.92978591642491 137.2940625 Q 43.74007866865079 138.15375 43.50988066110989 138.97875 Q 43.26302829780192 139.80374999999998 42.97827825571746 140.59406249999998 Q 42.6781230070127 141.38437499999998 42.34271305844499 142.14 Q 41.99259501616473 142.895625 41.61617249190687 143.6040234375 Q 41.22745590001241 144.31242187499998 40.815831413687235 144.97359374999996 Q 40.3936297191489 145.63476562499997 39.95169817629126 146.2487109375 Q 39.50080015202755 146.86265625 39.03310019855677 147.429375 Q 38.55791559158057 147.99609375 38.068588494722505 148.5155859375 Q 37.573116270554735 149.03507812499998 37.06588493336383 149.50734375 Q 36.55369984593812 149.979609375 36.03186379748165 150.4046484375 Q 35.50611722614191 150.82968749999998 34.97255970910449 151.20749999999998 Q 34.435991030885184 151.5853125 33.89319467577346 151.9158984375 Q 33.34814983545416 152.24648437500002 32.798217824718975 152.52984375 Q 32.24667219061031 152.81320312500003 31.69135224548577 153.04933593750002 Q 31.41328020240435 153.16740234374998 31.13443825251455 153.273662109375 Q 30.855376267557396 153.379921875 30.57564421341676 153.474375 Q 30.295739823440897 153.56882812499998 30.015252993191435 153.651474609375 Q 29.734635258132982 153.73412109375 29.45351088103775 153.80496093749997 Q 29.17229099860108 153.87580078124998 28.890628782398746 153.934833984375 Q 28.608900640284332 153.9938671875 28.32678328202286 154.04109375000002 Q 28.04462394082238 154.0883203125 27.762117564944674 154.123740234375 Q 27.479587665952554 154.15916015625 27.19674218449881 154.1827734375 Q 26.913886277760582 154.20638671875 26.630735668598263 154.218193359375 Q 26.34758245754324 154.23 26.064144957543235 154.23 L 26.064144957543235 154.23 L 25.438519957543235 154.23 L 24.812894957543236 154.23 L 24.187269957543236 154.23 L 23.561644957543237 154.23 L 22.936019957543238 154.23 L 22.310394957543238 154.23 L 21.68476995754324 154.23 L 21.05914495754324 154.23 L 20.43351995754324 154.23 L 19.807894957543237 154.23 L 19.182269957543234 154.23 L 18.556644957543234 154.23 L 17.931019957543235 154.23 L 17.305394957543236 154.23 L 16.679769957543236 154.23 L 16.054144957543237 154.23 L 15.428519957543235 154.23 L 14.802894957543236 154.23 L 14.177269957543237 154.23 L 13.551644957543237 154.23 L 12.926019957543236 154.23 L 12.300394957543237 154.23 L 11.674769957543237 154.23 L 11.049144957543238 154.23 L 10.423519957543236 154.23 L 9.797894957543237 154.23 L 9.172269957543236 154.23 L 8.546644957543236 154.23 L 7.921019957543237 154.23 L 7.295394957543237 154.23 L 6.669769957543237 154.23 L 6.044144957543237 154.23 L 6.689633348659115 151.82015625 L 7.21539634179366 149.4103125 L 7.612024275711937 147.00046875 L 7.872418639215512 144.590625 L 7.991919114290268 142.18078125 L 7.968386982535421 139.7709375 L 7.80224340213601 137.36109375 L 7.49646187033002 134.95125000000002 L 7.056515006270511 132.54140625000002 L 6.4902766067180595 130.1315625 L 5.807880727487896 127.72171874999998 L 5.021540312692729 125.31187499999999 L 4.145328617801636 122.90203125 L 3.1949273384202193 120.4921875 L 2.187345952569965 118.08234375 L 1.14061729944133 115.67249999999999 L 0.07347484289440007 113.26265624999998 L -0.9949826042280393 110.85281249999998 L -2.045632694494423 108.44296874999999 L -3.0596717814804855 106.033125 L -4.018951451524302 103.62328125 L -4.906303328679772 101.2134375 L -5.705846339784155 98.80359374999998 L -6.403270940469536 96.39374999999998 L -6.986095215281514 93.98390624999999 L -7.443888268441761 91.57406249999998 L -7.768456907195749 89.16421874999997 L -7.953992276644891 86.75437499999998 L -7.997173821717014 84.34453124999999 L -7.897228715651699 81.9346875 L -7.65594569139981 79.52484374999999 L -7.277643028394484 77.115 L -6.769091267639249 74.70515625 L -6.139392038293308 72.2953125 L -5.399815164413173 69.88546875 L -4.5635969671764265 67.47562500000001 L -3.6457033724037173 65.06578125 L -2.6625620630801943 62.65593749999999 L -1.6317684705839168 60.24609375 L -0.5717708665414396 57.83624999999999 L 0.4984598087297503 55.42640624999999 L 1.5597694720608952 53.0165625 L 2.5931637010074344 50.60671875 L 3.5801476799518426 48.19687499999999 L 4.503057204666249 45.78703124999999 L 5.3453748212950805 43.37718749999999 L 6.092025441769753 40.96734375 L 6.7296461449808085 38.5575 L 7.246825335034373 36.14765625 L 7.6343069763408105 33.737812500000004 L 7.885156250308727 31.327968749999997 L 7.994883668860999 28.918124999999996 L 7.961525423494092 26.50828125 L 7.785678531861195 24.098437499999996 L 7.470490152855364 21.688593749999995 L 7.02160126142228 19.27875 L 6.447045691163148 16.868906250000002 L 5.757106351577854 14.459062499999998 L 4.964131193250472 12.049218749999998 L 4.082312214676566 9.639375 L 3.1274314658811067 7.229531249999999 L 2.1165785946393574 4.8196875 L 1.067844990419508 2.40984375 L 0 0 L 0 0 Z M 12.730283017410686 59.18999999999997 L 13.252783017410687 59.18999999999997 L 13.775283017410686 59.18999999999997 L 14.297783017410685 59.18999999999997 L 14.820283017410686 59.18999999999997 L 15.342783017410687 59.18999999999997 L 15.865283017410688 59.18999999999997 L 16.38778301741069 59.18999999999997 L 16.910283017410688 59.18999999999997 Q 17.34153301741069 59.18999999999997 17.77059375917288 59.12249999999997 Q 18.19967053260561 59.054999999999964 18.626620503540305 58.91999999999997 Q 19.053629586169592 58.784999999999975 19.4786217213057 58.58249999999997 Q 19.90372801502774 58.37999999999997 20.326944410951032 58.10999999999997 Q 20.750316741458054 57.839999999999975 21.171897932161038 57.50249999999997 Q 21.593628085047104 57.16499999999998 22.01357671987295 56.75999999999998 Q 22.433572901353443 56.35499999999997 22.85163197829638 55.88249999999997 Q 23.269487099642753 55.409999999999975 23.684993559766163 54.869999999999976 Q 24.51128043694778 53.78999999999998 25.292879237936443 52.60124999999998 Q 26.06689013034859 51.41249999999999 26.788912466152432 50.11499999999998 Q 27.496397929455103 48.81749999999998 28.141389990230348 47.41124999999999 Q 28.762658220433856 46.004999999999995 29.307423778260322 44.489999999999995 L 29.307423778260322 44.489999999999995 Q 29.584492225018945 43.67999999999999 29.809024697397497 42.920624999999994 Q 30.02377939365282 42.161249999999995 30.187726154286086 41.452499999999986 Q 30.487629276862833 40.03499999999998 30.596474352345744 38.81999999999998 Q 30.674959681559713 37.604999999999976 30.579779554836538 36.59249999999998 Q 30.46194795092474 35.57999999999998 30.187218967509665 34.76999999999998 Q 30.044187572201565 34.36499999999998 29.864730495097454 34.010624999999976 Q 29.6823288595105 33.65624999999998 29.465144733791256 33.35249999999998 Q 29.245772595403647 33.04874999999998 28.99305440013132 32.79562499999997 Q 28.738803844418783 32.542499999999976 28.45242147625401 32.339999999999975 Q 28.165052336442635 32.137499999999974 27.84653266102263 31.985624999999974 Q 27.527455520609482 31.833749999999974 27.17796891324369 31.73249999999997 Q 26.82823383863236 31.631249999999973 26.448585542073012 31.58062499999997 Q 26.0688750288418 31.529999999999973 25.659500028841798 31.529999999999973 L 25.659500028841798 31.529999999999973 L 24.687000028841798 31.529999999999973 L 23.714500028841798 31.529999999999973 L 22.7420000288418 31.529999999999973 L 21.7695000288418 31.529999999999973 L 21.59523391379252 33.25874999999997 L 21.35004149161421 34.98749999999997 L 21.03618267970977 36.716249999999974 L 20.65655028767247 38.44499999999997 L 20.214643354509494 40.17374999999997 L 19.71453489830126 41.902499999999975 L 19.160834375545164 43.63124999999997 L 18.558645196192668 45.35999999999997 L 17.913517685960052 47.08874999999997 L 17.23139792945511 48.81749999999997 L 16.518572965628262 50.546249999999965 L 15.78161284067694 52.27499999999997 L 15.027310052496553 54.003749999999975 L 14.262616944813377 55.73249999999997 L 13.49458162803219 57.461249999999964 L 12.730283017410686 59.18999999999997 L 12.730283017410686 59.18999999999997 Z M 10.794757106387756 89.63999999999999 L 10.218507106387758 89.63999999999999 L 9.642257106387756 89.63999999999999 L 9.066007106387755 89.63999999999999 L 8.489757106387756 89.63999999999999 L 7.9135071063877565 89.63999999999999 L 7.3372571063877565 89.63999999999999 L 6.761007106387757 89.63999999999999 L 6.184757106387757 89.63999999999999 L 6.471012396754325 91.66499999999999 L 6.851191688286293 93.69 L 7.320488409465719 95.71499999999999 L 7.87296928537803 97.74 L 8.501649351556416 99.76499999999999 L 9.198580264239672 101.78999999999999 L 9.954950790545066 103.81500000000001 L 10.761198208068372 105.84 L 11.607129205496237 107.865 L 12.482048755695553 109.89000000000001 L 13.374895331949448 111.91500000000002 L 14.274380757813528 113.94000000000001 L 15.169132922483598 115.965 L 16.047839557337706 117.99000000000001 L 16.89939125589897 120.01500000000003 L 17.713021929031203 122.04000000000002 L 18.325521929031204 122.04000000000002 L 18.938021929031205 122.04000000000002 L 19.550521929031202 122.04000000000002 L 20.163021929031203 122.04000000000002 L 20.775521929031203 122.04000000000002 L 21.388021929031204 122.04000000000002 L 22.0005219290312 122.04000000000002 L 22.613021929031202 122.04000000000002 Q 23.0630219290312 122.04000000000002 23.450853170498714 121.96734375000001 Q 23.838622749526106 121.89468750000003 24.1639787773806 121.74937500000003 Q 24.48909373676046 121.60406250000001 24.751322357656385 121.38609375000001 Q 25.013029679909106 121.168125 25.211183938423428 120.87750000000001 Q 25.408464602698505 120.58687500000002 25.541383712430147 120.22359375000002 Q 25.673046213045268 119.86031250000002 25.73946831184809 119.42437500000001 Q 25.804274862149086 118.9884375 25.802983633760498 118.47984374999999 Q 25.79981101622775 117.97125 25.729817917525917 117.38999999999999 Q 25.659485707101897 116.8125 25.547727948442645 116.195625 Q 25.434361028241028 115.57875000000001 25.279794883830398 114.92250000000001 Q 25.12415247112947 114.26625000000001 24.927826638457198 113.570625 Q 24.73118672195239 112.875 24.494718106261153 112.14000000000001 Q 24.258958490539335 111.40500000000002 23.984612423643252 110.63062500000001 Q 23.71228875249207 109.85625000000002 23.40305421386424 109.04250000000002 Q 23.097471201267943 108.22875 22.75712685060727 107.37562500000001 Q 22.422398199359098 106.52250000000002 22.05556428144265 105.63000000000002 L 22.05556428144265 105.63000000000002 Q 21.739934781003658 104.84625000000001 21.417102523234625 104.08453125000001 Q 21.10114657860616 103.32281250000001 20.778257250253375 102.58312500000002 Q 20.155282356556192 101.10375 19.50445219089958 99.7125 Q 19.19099489838052 99.01687500000003 18.87013647983079 98.34328125000003 Q 18.557465734459008 97.66968750000001 18.236896208075745 97.01812500000001 Q 17.92449295835239 96.36656250000001 17.603563359116006 95.73703125 Q 17.290674033377172 95.1075 16.968524052587263 94.5 Q 16.65420036943955 93.8925 16.32492639812345 93.36093749999999 Q 16.00185849284467 92.829375 15.660487795443274 92.37375 Q 15.32379821590964 91.91812499999999 14.96579488122585 91.53843749999999 Q 14.611106128381055 91.15875 14.232509568113148 90.85499999999999 Q 13.856064358364161 90.55124999999998 13.453587218726504 90.32343749999998 Q 13.052332142176212 90.09562499999998 12.623426717549545 89.94375 Q 12.195067929210932 89.79187499999999 11.737968940555952 89.71593749999998 Q 11.281007106387758 89.63999999999999 10.794757106387756 89.63999999999999 L 10.794757106387756 89.63999999999999 L 10.794757106387756 89.63999999999999 Z" fill="black" stroke="black" />
				</svg>