<svg
					xmlns="http://www.w3.org/2000/svg" xmlns:xlink="http://www.w3.org/1999/xlink"
					style="
						overflow: visible;
						height: 100;
					"
					viewBox="-1.5814427402126006 0 36.34962921994989 154.23"
				>
					<path d="M 33.35706556794626 130.47000000000003 L 34.01580269024239 133.44 L 34.4779916106929 136.41000000000003 L 34.73107775793695 139.38000000000002 L 34.76818647973729 142.35000000000002 L 34.58830978114783 145.32 L 34.19633370497199 148.29 L 33.602905610768474 151.26 L 32.82414495754324 154.23 L 31.98726995754324 154.23 L 31.15039495754324 154.23 L 30.313519957543242 154.23 L 29.476644957543236 154.23 L 28.639769957543237 154.23 L 27.802894957543238 154.23 L 26.96601995754324 154.23 L 26.12914495754324 154.23 L 25.29226995754324 154.23 L 24.45539495754324 154.23 L 23.618519957543242 154.23 L 22.781644957543236 154.23 L 21.944769957543237 154.23 L 21.107894957543238 154.23 L 20.27101995754324 154.23 L 19.43414495754324 154.23 L 18.59726995754324 154.23 L 17.760394957543237 154.23 L 16.923519957543235 154.23 L 16.086644957543236 154.23 L 15.249769957543238 154.23 L 14.412894957543237 154.23 L 13.576019957543238 154.23 L 12.739144957543237 154.23 L 11.902269957543236 154.23 L 11.065394957543237 154.23 L 10.228519957543238 154.23 L 9.391644957543237 154.23 L 8.554769957543236 154.23 L 7.717894957543237 154.23 L 6.881019957543237 154.23 L 6.044144957543237 154.23 L 6.822905610768475 151.26 L 7.416333704971986 148.29 L 7.808309781147827 145.32 L 7.988186479737289 142.35000000000002 L 7.951077757936952 139.38000000000002 L 7.697991610692897 136.41000000000003 L 7.235802690242388 133.44 L 6.5770655679462555 130.47000000000003 L 7.137388695337527 129.55125 L 7.681208169873503 128.63250000000002 L 8.20919451728458 127.71375000000002 L 8.72205950362846 126.795 L 9.220554281362972 125.87624999999998 L 9.70546743282961 124.95749999999998 L 10.177622916244022 124.03875 L 10.637877919543438 123.11999999999998 L 9.5010914787724 120.23812499999997 L 8.285239136529611 117.35624999999997 L 7.021420736399821 114.47437499999998 L 5.74196302826703 111.59249999999997 L 4.479592794170271 108.71062499999996 L 3.266599741882801 105.82874999999997 L 2.134010578254512 102.94687499999998 L 1.1107953883942967 100.06499999999997 L 0.22312662042977038 97.18312499999996 L -0.5062903699970844 94.30124999999997 L -1.0587980917401918 91.41937499999997 L -1.4202641513101568 88.53749999999998 L -1.5814427402126006 85.65562499999999 L -1.5382111301112618 82.77374999999998 L -1.2916751265923567 79.89187499999998 L -0.8481407841668327 77.00999999999999 L -0.21895310600214035 74.12812499999998 L 0.5797941457757387 71.24624999999997 L 1.527670106553579 68.36437499999998 L 2.600429402864766 65.48249999999999 L 3.7706323159538 62.60062499999998 L 5.008346652333804 59.71874999999998 L 6.281913368446075 56.83687499999998 L 7.558756365787751 53.954999999999984 L 8.806215743053428 51.07312499999999 L 9.992383191838051 48.19124999999998 L 11.086918167619189 45.30937499999999 L 12.061823959478772 42.42749999999999 L 12.892163807759978 39.545624999999994 L 13.5566987523469 36.66374999999999 L 14.038430896278523 33.78187499999999 L 14.325038188755173 30.89999999999999 L 13.571693892274453 30.007499999999993 L 12.79877665344723 29.114999999999995 L 12.006216830253106 28.222499999999997 L 11.193993062208829 27.33 L 10.362132322872448 26.4375 L 9.51070985354219 25.545 L 8.639848978313127 24.652500000000003 L 7.749720800946123 23.760000000000005 L 7.318359675434514 20.790000000000006 L 6.688207828804165 17.820000000000004 L 5.8763822579726295 14.850000000000003 L 4.904934815787471 11.880000000000003 L 3.800253210167607 8.910000000000002 L 2.5923442271589474 5.940000000000001 L 1.314018647923848 2.9700000000000006 L 0 0 L 0.836875 0 L 1.67375 0 L 2.510625 0 L 3.3475 0 L 4.184375 0 L 5.02125 0 L 5.858125 0 L 6.695 0 L 7.531875 0 L 8.36875 0 L 9.205625000000001 0 L 10.0425 0 L 10.879375 0 L 11.71625 0 L 12.553125000000001 0 L 13.39 0 L 14.226875 0 L 15.06375 0 L 15.900625000000002 0 L 16.7375 0 L 17.574375000000003 0 L 18.411250000000003 0 L 19.248125 0 L 20.085 0 L 20.921875 0 L 21.75875 0 L 22.595625 0 L 23.4325 0 L 24.269375000000004 0 L 25.106250000000003 0 L 25.943125000000002 0 L 26.78 0 L 28.09401864792385 2.9700000000000006 L 29.372344227158948 5.940000000000001 L 30.58025321016761 8.910000000000002 L 31.68493481578747 11.880000000000003 L 32.65638225797263 14.850000000000003 L 33.46820782880417 17.820000000000004 L 34.098359675434516 20.790000000000006 L 34.52972080094612 23.760000000000005 L 33.81734897831313 24.652500000000003 L 33.08570985354219 25.545 L 32.33463232287245 26.4375 L 31.563993062208834 27.33 L 30.773716830253107 28.222499999999997 L 29.963776653447233 29.114999999999995 L 29.134193892274457 30.007499999999993 L 28.285038188755173 30.89999999999999 L 27.998430896278524 33.78187499999999 L 27.5166987523469 36.66374999999999 L 26.85216380775998 39.545624999999994 L 26.021823959478773 42.42749999999999 L 25.04691816761919 45.30937499999999 L 23.952383191838052 48.19124999999998 L 22.76621574305343 51.07312499999999 L 21.518756365787752 53.954999999999984 L 20.241913368446077 56.83687499999998 L 18.968346652333807 59.71874999999998 L 17.7306323159538 62.60062499999998 L 16.560429402864767 65.48249999999999 L 15.48767010655358 68.36437499999998 L 14.53979414577574 71.24624999999997 L 13.741046893997861 74.12812499999998 L 13.111859215833169 77.00999999999999 L 12.668324873407645 79.89187499999998 L 12.42178886988874 82.77374999999998 L 12.378557259787401 85.65562499999999 L 12.539735848689844 88.53749999999998 L 12.90120190825981 91.41937499999997 L 13.453709630002917 94.30124999999997 L 14.183126620429771 97.18312499999996 L 15.070795388394298 100.06499999999997 L 16.09401057825451 102.94687499999998 L 17.2265997418828 105.82874999999997 L 18.439592794170274 108.71062499999996 L 19.70196302826703 111.59249999999997 L 20.981420736399823 114.47437499999998 L 22.245239136529612 117.35624999999997 L 23.461091478772403 120.23812499999997 L 24.597877919543443 123.11999999999998 L 25.740122916244022 124.03875 L 26.870467432829614 124.95749999999998 L 27.988054281362977 125.87624999999998 L 29.092059503628462 126.795 L 30.181694517284583 127.71375000000002 L 31.256208169873503 128.63250000000002 L 32.31488869533753 129.55125 L 33.35706556794626 130.47000000000003 L 33.35706556794626 130.47000000000003 Z" fill="black" stroke="black" />
				</svg>