<svg
					xmlns="http://www.w3.org/2000/svg" xmlns:xlink="http://www.w3.org/1999/xlink"
					style="
						overflow: visible;
						height: 100;
					"
					viewBox="-7.997173821717014 0 46.3743160411933 154.23"
				>
					<path d="M 7.259784711481036 96.32999999999996 L 7.771164803778613 98.13937499999994 L 8.34220009733385 99.94874999999995 L 8.967125458371477 101.75812499999996 L 9.639631682632817 103.56749999999997 L 10.352929192676129 105.37687499999996 L 11.099816584992068 107.18624999999997 L 11.872753334887376 108.99562499999996 L 12.663935925113183 110.80499999999996 L 13.465376629648363 112.61437499999997 L 14.268984157242192 114.42374999999996 L 15.06664534054463 116.23312499999997 L 15.850307046096164 118.04249999999996 L 16.61205747821964 119.85187499999996 L 17.344206055975263 121.66124999999998 L 18.039361056746618 123.47062499999998 L 18.690504242573237 125.27999999999997 L 19.291061715807263 127.08937499999996 L 19.83497028874032 128.89874999999995 L 20.31673869713731 130.708125 L 20.731503039669434 132.51749999999998 L 21.075075883533685 134.32687499999997 L 21.343988540491736 136.13625 L 21.535526086512217 137.94562499999998 L 21.647754771460495 139.755 L 21.67954154210947 141.56437499999998 L 21.63056548136847 143.37374999999997 L 21.50132104824056 145.183125 L 21.293113085797774 146.99249999999998 L 21.008043647573608 148.801875 L 20.648990775372383 150.61124999999998 L 20.219579442753542 152.420625 L 19.72414495754324 154.23 L 18.869144957543234 154.23 L 18.014144957543238 154.23 L 17.159144957543234 154.23 L 16.304144957543237 154.23 L 15.449144957543238 154.23 L 14.594144957543238 154.23 L 13.739144957543237 154.23 L 12.884144957543237 154.23 L 12.029144957543236 154.23 L 11.174144957543238 154.23 L 10.319144957543237 154.23 L 9.464144957543237 154.23 L 8.609144957543236 154.23 L 7.754144957543237 154.23 L 6.899144957543237 154.23 L 6.044144957543237 154.23 L 6.689633348659115 151.82015625 L 7.21539634179366 149.4103125 L 7.612024275711937 147.00046875 L 7.872418639215512 144.590625 L 7.991919114290268 142.18078125 L 7.968386982535421 139.7709375 L 7.80224340213601 137.36109375 L 7.49646187033002 134.95125000000002 L 7.056515006270511 132.54140625000002 L 6.4902766067180595 130.1315625 L 5.807880727487896 127.72171874999998 L 5.021540312692729 125.31187499999999 L 4.145328617801636 122.90203125 L 3.1949273384202193 120.4921875 L 2.187345952569965 118.08234375 L 1.14061729944133 115.67249999999999 L 0.07347484289440007 113.26265624999998 L -0.9949826042280393 110.85281249999998 L -2.045632694494423 108.44296874999999 L -3.0596717814804855 106.033125 L -4.018951451524302 103.62328125 L -4.906303328679772 101.2134375 L -5.705846339784155 98.80359374999998 L -6.403270940469536 96.39374999999998 L -6.986095215281514 93.98390624999999 L -7.443888268441761 91.57406249999998 L -7.768456907195749 89.16421874999997 L -7.953992276644891 86.75437499999998 L -7.997173821717014 84.34453124999999 L -7.897228715651699 81.9346875 L -7.65594569139981 79.52484374999999 L -7.277643028394484 77.115 L -6.769091267639249 74.70515625 L -6.139392038293308 72.2953125 L -5.399815164413173 69.88546875 L -4.5635969671764265 67.47562500000001 L -3.6457033724037173 65.06578125 L -2.6625620630801943 62.65593749999999 L -1.6317684705839168 60.24609375 L -0.5717708665414396 57.83624999999999 L 0.4984598087297503 55.42640624999999 L 1.5597694720608952 53.0165625 L 2.5931637010074344 50.60671875 L 3.5801476799518426 48.19687499999999 L 4.503057204666249 45.78703124999999 L 5.3453748212950805 43.37718749999999 L 6.092025441769753 40.96734375 L 6.7296461449808085 38.5575 L 7.246825335034373 36.14765625 L 7.6343069763408105 33.737812500000004 L 7.885156250308727 31.327968749999997 L 7.994883668860999 28.918124999999996 L 7.961525423494092 26.50828125 L 7.785678531861195 24.098437499999996 L 7.470490152855364 21.688593749999995 L 7.02160126142228 19.27875 L 6.447045691163148 16.868906250000002 L 5.757106351577854 14.459062499999998 L 4.964131193250472 12.049218749999998 L 4.082312214676566 9.639375 L 3.1274314658811067 7.229531249999999 L 2.1165785946393574 4.8196875 L 1.067844990419508 2.40984375 L 0 0 L 0.9496875 0 L 1.899375 0 L 2.8490625 0 L 3.79875 0 L 4.7484375 0 L 5.698125 0 L 6.647812500000001 0 L 7.5975 0 L 8.5471875 0 L 9.496875 0 L 10.446562499999999 0 L 11.39625 0 L 12.345937500000002 0 L 13.295625000000001 0 L 14.2453125 0 L 15.195 0 L 16.1446875 0 L 17.094375 0 L 18.0440625 0 L 18.99375 0 L 19.943437499999998 0 L 20.893124999999998 0 L 21.8428125 0 L 22.7925 0 L 23.7421875 0 L 24.691875000000003 0 L 25.641562500000003 0 L 26.591250000000002 0 L 27.540937500000002 0 L 28.490625 0 L 29.4403125 0 L 30.39 0 L 31.31790673523878 2.0924999999999994 L 32.23328779646179 4.184999999999999 L 33.123786591850404 6.277499999999998 L 33.977382411565074 8.369999999999997 L 34.782552693506695 10.462499999999997 L 35.52842856465625 12.554999999999996 L 36.20494155836355 14.647499999999996 L 36.802959527070215 16.739999999999995 L 37.31440991580156 18.832499999999996 L 37.732388732376904 20.924999999999994 L 38.051253743365784 23.01749999999999 L 38.266700637751796 25.109999999999992 L 38.37582113018221 27.202499999999993 L 38.37714221947629 29.29499999999999 L 38.27064607244756 31.38749999999999 L 38.057770264631316 33.47999999999999 L 37.535582764631314 33.47999999999999 L 37.01339526463131 33.47999999999999 L 36.49120776463131 33.47999999999999 L 35.96902026463131 33.47999999999999 L 35.44683276463132 33.47999999999999 L 34.924645264631316 33.47999999999999 L 34.402457764631315 33.47999999999999 L 33.880270264631314 33.47999999999999 L 33.35808276463131 33.47999999999999 L 32.83589526463132 33.47999999999999 L 32.31370776463132 33.47999999999999 L 31.791520264631316 33.47999999999999 L 31.269332764631315 33.47999999999999 L 30.747145264631314 33.47999999999999 L 30.224957764631313 33.47999999999999 L 29.702770264631315 33.47999999999999 L 29.180582764631318 33.47999999999999 L 28.658395264631316 33.47999999999999 L 28.136207764631315 33.47999999999999 L 27.614020264631314 33.47999999999999 L 27.091832764631313 33.47999999999999 L 26.569645264631315 33.47999999999999 L 26.047457764631318 33.47999999999999 L 25.525270264631317 33.47999999999999 L 25.003082764631316 33.47999999999999 L 24.480895264631314 33.47999999999999 L 23.958707764631313 33.47999999999999 L 23.436520264631316 33.47999999999999 L 22.914332764631315 33.47999999999999 L 22.392145264631317 33.47999999999999 L 21.869957764631316 33.47999999999999 L 21.347770264631315 33.47999999999999 L 21.075669687369817 35.315625 L 20.72672262440138 37.15124999999999 L 20.304554894160354 38.98687499999999 L 19.81355313204547 40.82249999999999 L 19.25881921002904 42.658125 L 18.646117224428416 44.49375 L 17.981813602676063 46.329375 L 17.27281095142317 48.165 L 16.5264763333441 50.000625 L 15.750564717898706 51.83625000000001 L 14.95313840145592 53.671875 L 14.142483234063024 55.50750000000001 L 13.327022523326727 57.34312500000001 L 12.51522951000834 59.17875 L 11.715539324776476 61.014375 L 10.936261340951912 62.85000000000001 L 11.89938634095191 62.85000000000001 L 12.862511340951912 62.85000000000001 L 13.825636340951913 62.85000000000001 L 14.788761340951911 62.85000000000001 L 15.751886340951913 62.85000000000001 L 16.715011340951914 62.85000000000001 L 17.678136340951912 62.85000000000001 L 18.641261340951914 62.85000000000001 L 19.604386340951915 62.85000000000001 L 20.567511340951913 62.85000000000001 L 21.530636340951915 62.85000000000001 L 22.493761340951917 62.85000000000001 L 23.456886340951915 62.85000000000001 L 24.420011340951916 62.85000000000001 L 25.383136340951918 62.85000000000001 L 26.346261340951916 62.85000000000001 L 25.493153284030267 64.9425 L 24.688598522109046 67.035 L 23.94345761939472 69.1275 L 23.267789121308667 71.22 L 22.67071377568939 73.3125 L 22.160291413183728 75.405 L 21.743412148800328 77.49749999999999 L 21.425703373279347 79.58999999999997 L 21.21145378978781 81.68249999999998 L 21.103555521358036 83.77499999999998 L 21.103465070552073 85.86749999999996 L 21.211183658351807 87.95999999999997 L 21.42525720767709 90.05249999999998 L 21.742795971754447 92.14499999999997 L 22.15951354237586 94.23749999999995 L 22.66978471148104 96.32999999999996 L 21.70665971148104 96.32999999999996 L 20.74353471148104 96.32999999999996 L 19.780409711481038 96.32999999999996 L 18.81728471148104 96.32999999999996 L 17.85415971148104 96.32999999999996 L 16.891034711481037 96.32999999999996 L 15.927909711481039 96.32999999999996 L 14.964784711481038 96.32999999999996 L 14.001659711481036 96.32999999999996 L 13.038534711481038 96.32999999999996 L 12.075409711481036 96.32999999999996 L 11.112284711481035 96.32999999999996 L 10.149159711481037 96.32999999999996 L 9.186034711481035 96.32999999999996 L 8.222909711481035 96.32999999999996 L 7.259784711481036 96.32999999999996 L 7.259784711481036 96.32999999999996 Z" fill="black" stroke="black" />
				</svg>