<svg
					xmlns="http://www.w3.org/2000/svg" xmlns:xlink="http://www.w3.org/1999/xlink"
					style="
						overflow: visible;
						height: 100;
					"
					viewBox="-0.6491433567755287 0 59.678764503183785 154.86"
				>
					<path d="M 58.127044975407266 154.86 L 57.17766997540727 154.86 L 56.228294975407266 154.86 L 55.27891997540726 154.86 L 54.32954497540726 154.86 L 53.380169975407256 154.86 L 52.43079497540726 154.86 L 51.48141997540726 154.86 L 50.53204497540726 154.86 L 49.582669975407256 154.86 L 48.63329497540726 154.86 L 47.683919975407264 154.86 L 46.73454497540726 154.86 L 45.78516997540726 154.86 L 44.83579497540726 154.86 L 43.886419975407264 154.86 L 42.93704497540726 154.86 L 43.29682638642039 153.05062500000003 L 43.59225302854318 151.24125000000004 L 43.818752184972155 149.431875 L 43.97244702614635 147.6225 L 44.05019574995686 145.813125 L 44.04962330116888 144.00375 L 43.96914534981895 142.194375 L 43.80798428650337 140.385 L 43.56617707307023 138.575625 L 43.24457486945509 136.76625 L 42.844834440427725 134.956875 L 42.36940142900685 133.1475 L 41.82148566541329 131.338125 L 41.205028760840776 129.52875 L 40.52466431321541 127.71937499999999 L 39.785671126703804 125.91 L 39.2637961267038 125.91 L 38.7419211267038 125.91 L 38.22004612670381 125.91 L 37.698171126703805 125.91 L 37.176296126703804 125.91 L 36.6544211267038 125.91 L 36.1325461267038 125.91 L 35.6106711267038 125.91 L 35.088796126703805 125.91 L 34.566921126703804 125.91 L 34.0450461267038 125.91 L 33.5231711267038 125.91 L 33.0012961267038 125.91 L 32.4794211267038 125.91 L 31.957546126703804 125.91 L 31.435671126703802 125.91 L 30.9137961267038 125.91 L 30.3919211267038 125.91 L 29.870046126703805 125.91 L 29.348171126703804 125.91 L 28.826296126703802 125.91 L 28.3044211267038 125.91 L 27.7825461267038 125.91 L 27.260671126703798 125.91 L 26.738796126703804 125.91 L 26.216921126703802 125.91 L 25.6950461267038 125.91 L 25.1731711267038 125.91 L 24.651296126703798 125.91 L 24.129421126703797 125.91 L 23.607546126703802 125.91 L 23.0856711267038 125.91 L 23.504664313215407 127.71937499999999 L 23.865028760840772 129.52875 L 24.16148566541329 131.338125 L 24.389401429006853 133.1475 L 24.544834440427728 134.956875 L 24.624574869455095 136.76625 L 24.626177073070227 138.575625 L 24.547984286503365 140.385 L 24.389145349818946 142.194375 L 24.149623301168877 144.00375 L 23.830195749956857 145.813125 L 23.43244702614635 147.6225 L 22.958752184972155 149.431875 L 22.41225302854318 151.24125000000004 L 21.79682638642039 153.05062500000003 L 21.117044975407264 154.86 L 20.16329497540726 154.86 L 19.209544975407262 154.86 L 18.255794975407262 154.86 L 17.302044975407263 154.86 L 16.348294975407264 154.86 L 15.394544975407264 154.86 L 14.440794975407265 154.86 L 13.487044975407263 154.86 L 12.533294975407262 154.86 L 11.579544975407263 154.86 L 10.625794975407263 154.86 L 9.672044975407264 154.86 L 8.718294975407265 154.86 L 7.764544975407263 154.86 L 6.810794975407264 154.86 L 5.8570449754072635 154.86 L 6.796723004052364 152.4403125 L 7.618495502156341 150.02062500000002 L 8.312265628705255 147.60093750000004 L 8.870246146408247 145.18125 L 9.287099930283597 142.7615625 L 9.560036267778614 140.34187500000002 L 9.68886121283749 137.9221875 L 9.675981085356245 135.5025 L 9.526359052882563 133.08281250000002 L 9.24742557797619 130.66312500000004 L 8.848944347068038 128.24343750000003 L 8.342836099923218 125.82375000000002 L 7.742963538431312 123.4040625 L 7.064881195710336 120.984375 L 6.325554778747265 118.5646875 L 5.543055048600895 116.14500000000001 L 4.736231761622462 113.72531250000002 L 3.9243735549178007 111.30562500000002 L 3.1268599128888233 108.88593750000003 L 2.362811494576764 106.46625 L 1.6507451311066594 104.0465625 L 1.0082397182673395 101.626875 L 0.45161903267598014 99.2071875 L -0.004342805383941162 96.78750000000001 L -0.3466879079861611 94.36781250000001 L -0.5645084244969114 91.948125 L -0.6491433567755287 89.5284375 L -0.5943348334161547 87.10875000000001 L -0.39634102330489984 84.6890625 L -0.05400365114292427 82.26937500000001 L 0.4312311032771605 79.8496875 L 1.0553386991365254 77.43 L 1.8117888511701583 75.01031250000001 L 2.691663358508462 72.590625 L 3.68381701974218 70.17093750000001 L 4.775078730748612 67.75125 L 5.950489136781569 65.33156250000002 L 7.19357055076271 62.91187500000001 L 8.486624267518451 60.4921875 L 9.811049909389482 58.072500000000005 L 11.14768104111799 55.65281250000001 L 12.477130998363883 53.233125 L 13.780142689912308 50.8134375 L 15.037936061935648 48.393750000000004 L 16.232546954857767 45.9740625 L 17.34715123867534 43.55437500000001 L 18.36636837821861 41.134687500000005 L 19.276538950988396 38.715 L 20.06597111019173 36.2953125 L 20.725151545933855 33.875625 L 21.2469171381 31.455937500000005 L 21.626584203717638 29.036250000000003 L 21.862033006731576 26.6165625 L 21.953746005344414 24.196875000000002 L 21.90479914680861 21.777187500000004 L 21.72080636674208 19.3575 L 21.409818294390874 16.9378125 L 20.9821769915449 14.518125000000001 L 20.4503293461171 12.098437500000001 L 19.828602487408705 9.67875 L 19.132945275342774 7.259062500000001 L 18.380640528090865 4.839375 L 17.589993180497693 2.4196875 L 16.78 0 L 17.358125 0 L 17.93625 0 L 18.514375 0 L 19.0925 0 L 19.670625 0 L 20.24875 0 L 20.826875 0 L 21.405 0 L 21.983125 0 L 22.56125 0 L 23.139375 0 L 23.7175 0 L 24.295625 0 L 24.87375 0 L 25.451875 0 L 26.03 0 L 26.608125 0 L 27.18625 0 L 27.764375 0 L 28.3425 0 L 28.920625 0 L 29.49875 0 L 30.076875 0 L 30.655 0 L 31.233125 0 L 31.81125 0 L 32.389375 0 L 32.9675 0 L 33.545625 0 L 34.12375 0 L 34.701875 0 L 35.28 0 L 36.617649430497686 2.4196875 L 37.935953028090864 4.839375 L 39.21591402534278 7.259062500000001 L 40.43922748740871 9.67875 L 41.5886105961171 12.098437500000001 L 42.6481144915449 14.518125000000001 L 43.60341204439088 16.9378125 L 44.44205636674209 19.3575 L 45.153705396808604 21.777187500000004 L 45.73030850534441 24.196875000000002 L 46.16625175673158 26.6165625 L 46.45845920371764 29.036250000000003 L 46.6064483881 31.455937500000005 L 46.61233904593386 33.875625 L 46.480814860191735 36.2953125 L 46.2190389509884 38.715 L 45.836524628218605 41.134687500000005 L 45.34496373867535 43.55437500000001 L 44.75801570485777 45.9740625 L 44.09106106193565 48.393750000000004 L 43.36092393991231 50.8134375 L 42.585568498363884 53.233125 L 41.783774791118 55.65281250000001 L 40.97479990938949 58.072500000000005 L 40.17803051751845 60.4921875 L 39.412633050762715 62.91187500000001 L 38.69720788678158 65.33156250000002 L 38.04945373074862 67.75125 L 37.485848269742185 70.17093750000001 L 37.02135085850847 72.590625 L 36.66913260117017 75.01031250000001 L 36.44033869913653 77.43 L 36.34388735327716 79.8496875 L 36.386308848857084 82.26937500000001 L 36.57162772669511 84.6890625 L 36.90129016658385 87.10875000000001 L 37.37413789322447 89.5284375 L 37.986429075503096 91.948125 L 38.73190584201385 94.36781250000001 L 39.60190719461607 96.78750000000001 L 40.58552528267598 99.2071875 L 41.66980221826735 101.626875 L 42.83996388110667 104.0465625 L 44.07968649457677 106.46625 L 45.37139116288883 108.88593750000003 L 46.69656105491781 111.30562500000002 L 48.03607551162247 113.72531250000002 L 49.3705550486009 116.14500000000001 L 50.68071102874727 118.5646875 L 51.94769369571034 120.984375 L 53.153432288431326 123.4040625 L 54.280961099923225 125.82375000000002 L 55.31472559706804 128.24343750000003 L 56.2408630779762 130.66312500000004 L 57.047452802882574 133.08281250000002 L 57.724731085356254 135.5025 L 58.26526746283749 137.9221875 L 58.664098767778626 140.34187500000002 L 58.91881868028361 142.7615625 L 59.02962114640826 145.18125 L 58.99929687870526 147.60093750000004 L 58.833183002156346 150.02062500000002 L 58.539066754052364 152.4403125 L 58.127044975407266 154.86 L 58.127044975407266 154.86 Z M 24.273482541378137 91.79999999999998 L 23.89745690992403 90.21937499999999 L 23.58033015411256 88.63874999999999 L 23.32347204344733 87.05812499999999 L 23.127787912345134 85.47749999999999 L 22.993711683555176 83.896875 L 22.921202524315056 82.31625 L 22.909745161011376 80.735625 L 22.95835384992013 79.155 L 23.065579973428125 77.57437499999999 L 23.229523203198262 75.99374999999999 L 23.44784614425442 74.41312500000001 L 23.71779234713747 72.8325 L 24.036207549329248 71.251875 L 24.399563982256375 69.67125000000001 L 24.803987556562102 68.090625 L 25.245287716154348 66.51 Q 25.550429402864754 65.48250000000002 25.93911000886401 64.23375000000001 Q 26.343728196740194 62.985000000000014 26.838139375158256 61.515000000000015 Q 27.091055290773536 60.780000000000015 27.366674636141386 59.98968750000002 Q 27.645223789200575 59.199375000000025 27.945960211856253 58.35375000000002 Q 28.248463962085356 57.50812500000001 28.571960024535493 56.60718750000001 Q 28.895521230730346 55.706250000000004 29.238078184429448 54.75 Q 29.58003043694777 53.79 29.92197584254957 52.822031249999995 Q 30.25916679580569 51.8540625 30.593761128085895 50.878125000000004 Q 30.921070498451762 49.9021875 31.24312267736343 48.91828124999999 Q 31.555345334767868 47.934375 31.85961268774703 46.9425 Q 32.151525913760736 45.950625 32.432784248952366 44.950781250000006 Q 32.699219906097014 43.95093750000001 32.95233812843536 42.94312500000001 Q 33.18825895298774 41.935312500000016 33.408277358874756 40.91953125000002 Q 33.60885644425242 39.90375000000002 33.79106768622946 38.880000000000024 Q 33.95386583437624 37.85250000000002 34.08893291947001 36.87234375000001 Q 34.20293918044442 35.89218750000001 34.292086990984615 34.959375000000016 Q 34.36121913331286 34.02656250000001 34.4087402631403 33.14109375000001 Q 34.43760908797981 32.25562500000001 34.448340558808454 31.41750000000001 Q 34.44199434993102 30.579375000000013 34.421083259770704 29.78859375000001 Q 34.384788878412955 28.997812500000016 34.337495082013056 28.254375000000017 Q 34.20198490513789 26.76750000000002 34.04310624408453 25.470000000000027 L 34.04310624408453 25.470000000000027 Q 34.0394849051379 26.76750000000002 33.974971456069596 28.226250000000014 Q 33.923020343486584 28.955625000000012 33.85152223256881 29.72531250000001 Q 33.76544621637043 30.495000000000008 33.65687334209882 31.305000000000007 Q 33.53233224422004 32.11500000000001 33.38236399198779 32.9653125 Q 33.21514915114025 33.815625000000004 33.01967618308401 34.706250000000004 Q 32.80585858227746 35.596875000000004 32.56114513831436 36.5278125 Q 32.29724769630267 37.45875000000001 32.00011758837467 38.43000000000001 Q 31.6820601612593 39.401250000000005 31.346089800623677 40.369218750000016 Q 30.992018042913287 41.33718750000001 30.621826197217246 42.30187500000001 Q 30.235291483362104 43.266562500000006 29.83458839535938 44.22796875000001 Q 29.41945883698649 45.18937500000001 28.992244985648277 46.14750000000001 Q 28.552653065794082 47.10562500000001 28.103166014521175 48.06046875000001 Q 27.643454659767873 49.01531250000001 27.17611469890058 49.966875 Q 26.70078249152409 50.91843750000001 26.220137767831474 51.86671875000001 Q 25.73378398145818 52.81500000000001 25.244455784759914 53.760000000000005 Q 24.751725900737643 54.705 24.275991457490214 55.61296875000001 Q 23.799199557176582 56.52093750000001 23.341628277930393 57.391875000000006 Q 22.884933872689746 58.2628125 22.449123816989243 59.09671875 Q 22.015735827100848 59.930625 21.60437978329621 60.7275 Q 21.19663059420775 61.524375 20.811596942461 62.28421875 Q 20.431028661322525 63.0440625 20.073451534628457 63.766875000000006 Q 19.373874693412795 65.2125 18.765287716154347 66.51 L 18.765287716154347 66.51 L 18.045237556562103 68.090625 L 17.362063982256373 69.67125000000001 L 16.719957549329244 71.251875 L 16.122792347137466 72.8325 L 15.574096144254419 74.41312500000001 L 15.077023203198264 75.99374999999999 L 14.634329973428127 77.57437499999999 L 14.248353849920129 79.155 L 13.920995161011373 80.735625 L 13.653702524315054 82.31625 L 13.447461683555176 83.896875 L 13.302787912345135 85.47749999999999 L 13.219722043447334 87.05812499999999 L 13.197830154112559 88.63874999999999 L 13.23620690992403 90.21937499999999 L 13.333482541378135 91.79999999999998 L 14.017232541378135 91.79999999999998 L 14.700982541378139 91.79999999999998 L 15.384732541378138 91.79999999999998 L 16.06848254137814 91.79999999999998 L 16.752232541378138 91.79999999999998 L 17.435982541378138 91.79999999999998 L 18.119732541378138 91.79999999999998 L 18.803482541378138 91.79999999999998 L 19.487232541378138 91.79999999999998 L 20.170982541378137 91.79999999999998 L 20.854732541378137 91.79999999999998 L 21.538482541378137 91.79999999999998 L 22.222232541378137 91.79999999999998 L 22.905982541378137 91.79999999999998 L 23.589732541378137 91.79999999999998 L 24.273482541378137 91.79999999999998 L 24.273482541378137 91.79999999999998 Z" fill="black" stroke="black" />
				</svg>