<svg
					xmlns="http://www.w3.org/2000/svg" xmlns:xlink="http://www.w3.org/1999/xlink"
					style="
						overflow: visible;
						height: 100;
					"
					viewBox="-7.997173821717014 0 60.06205749057801 154.23"
				>
					<path d="M 44.07 0 L 45.13784499041951 2.40984375 L 46.18657859463936 4.8196875 L 47.19743146588111 7.229531249999999 L 48.15231221467657 9.639375 L 49.034131193250474 12.049218749999998 L 49.827106351577854 14.459062499999998 L 50.51704569116315 16.868906250000002 L 51.091601261422284 19.27875 L 51.54049015285536 21.688593749999995 L 51.855678531861194 24.098437499999996 L 52.031525423494095 26.50828125 L 52.064883668861 28.918124999999996 L 51.955156250308725 31.327968749999997 L 51.70430697634081 33.737812500000004 L 51.31682533503437 36.14765625 L 50.79964614498081 38.5575 L 50.16202544176976 40.96734375 L 49.41537482129508 43.37718749999999 L 48.57305720466625 45.78703124999999 L 47.65014767995184 48.19687499999999 L 46.663163701007434 50.60671875 L 45.62976947206089 53.0165625 L 44.56845980872975 55.42640624999999 L 43.49822913345856 57.83624999999999 L 42.438231529416086 60.24609375 L 41.407437936919806 62.65593749999999 L 40.424296627596284 65.06578125 L 39.50640303282357 67.47562500000001 L 38.670184835586824 69.88546875 L 37.93060796170669 72.2953125 L 37.30090873236075 74.70515625 L 36.792356971605514 77.115 L 36.41405430860019 79.52484374999999 L 36.1727712843483 81.9346875 L 36.07282617828299 84.34453124999999 L 36.11600772335511 86.75437499999998 L 36.30154309280425 89.16421874999997 L 36.62611173155824 91.57406249999998 L 37.083904784718484 93.98390624999999 L 37.66672905953047 96.39374999999998 L 38.36415366021585 98.80359374999998 L 39.16369667132023 101.2134375 L 40.0510485484757 103.62328125 L 41.01032821851952 106.033125 L 42.02436730550558 108.44296874999999 L 43.07501739577196 110.85281249999998 L 44.1434748428944 113.26265624999998 L 45.21061729944133 115.67249999999999 L 46.25734595256996 118.08234375 L 47.26492733842022 120.4921875 L 48.21532861780164 122.90203125 L 49.09154031269273 125.31187499999999 L 49.8778807274879 127.72171874999998 L 50.56027660671806 130.1315625 L 51.12651500627051 132.54140625000002 L 51.566461870330016 134.95125000000002 L 51.87224340213601 137.36109375 L 52.03838698253542 139.7709375 L 52.06191911429027 142.18078125 L 51.94241863921551 144.590625 L 51.68202427571194 147.00046875 L 51.28539634179366 149.4103125 L 50.759633348659115 151.82015625 L 50.11414495754324 154.23 L 49.241019957543244 154.23 L 48.36789495754324 154.23 L 47.49476995754324 154.23 L 46.62164495754324 154.23 L 45.74851995754324 154.23 L 44.875394957543236 154.23 L 44.002269957543234 154.23 L 43.12914495754324 154.23 L 42.256019957543245 154.23 L 41.38289495754324 154.23 L 40.50976995754324 154.23 L 39.63664495754324 154.23 L 38.76351995754324 154.23 L 37.890394957543236 154.23 L 37.01726995754324 154.23 L 36.14414495754324 154.23 L 36.67893769526779 152.26593749999998 L 37.135479335796376 150.301875 L 37.508339688733244 148.33781249999998 L 37.79308388433656 146.37375 L 37.98632512267627 144.4096875 L 38.08576495685654 142.445625 L 38.09022063116666 140.4815625 L 37.99963914899534 138.51749999999998 L 37.815097903182284 136.5534375 L 37.53879186130912 134.589375 L 37.174007458350616 132.6253125 L 36.72508350721146 130.66125 L 36.19735959208615 128.69718749999998 L 35.59711255846069 126.73312500000002 L 34.931481855155724 124.76906250000002 L 34.20838461640686 122.805 L 33.43642149401113 120.8409375 L 32.624774359589814 118.876875 L 31.78309709371548 116.91281250000002 L 30.92140076087759 114.94875000000002 L 30.04993453603684 112.9846875 L 29.179063799049644 111.02062500000002 L 28.31914684693012 109.05656250000001 L 27.480411690356842 107.09250000000002 L 26.672834399829135 105.12843750000002 L 25.90602044844637 103.164375 L 25.189090462641012 101.20031250000002 L 24.530571739767183 99.23625000000001 L 23.938296822854756 97.27218750000002 L 23.419310338899272 95.30812500000002 L 22.979785208770405 93.34406250000004 L 22.624949225353696 91.38000000000002 L 22.120886725353696 91.38000000000002 L 21.616824225353696 91.38000000000002 L 21.112761725353696 91.38000000000002 L 20.608699225353696 91.38000000000002 L 20.104636725353696 91.38000000000002 L 19.600574225353697 91.38000000000002 L 19.096511725353697 91.38000000000002 L 18.592449225353697 91.38000000000002 L 18.088386725353697 91.38000000000002 L 17.584324225353697 91.38000000000002 L 17.080261725353697 91.38000000000002 L 16.576199225353697 91.38000000000002 L 16.072136725353698 91.38000000000002 L 15.568074225353698 91.38000000000002 L 15.064011725353698 91.38000000000002 L 14.559949225353698 91.38000000000002 L 14.055886725353698 91.38000000000002 L 13.551824225353698 91.38000000000002 L 13.047761725353698 91.38000000000002 L 12.543699225353699 91.38000000000002 L 12.039636725353699 91.38000000000002 L 11.535574225353699 91.38000000000002 L 11.031511725353699 91.38000000000002 L 10.527449225353699 91.38000000000002 L 10.0233867253537 91.38000000000002 L 9.5193242253537 91.38000000000002 L 9.0152617253537 91.38000000000002 L 8.511199225353698 91.38000000000002 L 8.007136725353696 91.38000000000002 L 7.503074225353696 91.38000000000002 L 6.9990117253536965 91.38000000000002 L 6.494949225353697 91.38000000000002 L 6.849785208770405 93.34406250000004 L 7.289310338899273 95.30812500000002 L 7.808296822854758 97.27218750000002 L 8.400571739767184 99.23625000000001 L 9.059090462641015 101.20031250000002 L 9.776020448446372 103.164375 L 10.542834399829134 105.12843750000002 L 11.350411690356841 107.09250000000002 L 12.189146846930122 109.05656250000001 L 13.049063799049643 111.02062500000002 L 13.919934536036841 112.9846875 L 14.791400760877588 114.94875000000002 L 15.65309709371548 116.91281250000002 L 16.494774359589815 118.876875 L 17.306421494011133 120.8409375 L 18.07838461640686 122.805 L 18.80148185515573 124.76906250000002 L 19.46711255846069 126.73312500000002 L 20.067359592086152 128.69718749999998 L 20.59508350721146 130.66125 L 21.044007458350613 132.6253125 L 21.40879186130912 134.589375 L 21.68509790318228 136.5534375 L 21.869639148995343 138.51749999999998 L 21.960220631166656 140.4815625 L 21.955764956856548 142.445625 L 21.856325122676274 144.4096875 L 21.663083884336558 146.37375 L 21.37833968873324 148.33781249999998 L 21.005479335796373 150.301875 L 20.548937695267792 152.26593749999998 L 20.014144957543238 154.23 L 19.14101995754324 154.23 L 18.26789495754324 154.23 L 17.39476995754324 154.23 L 16.521644957543238 154.23 L 15.64851995754324 154.23 L 14.77539495754324 154.23 L 13.90226995754324 154.23 L 13.029144957543238 154.23 L 12.156019957543238 154.23 L 11.282894957543238 154.23 L 10.409769957543238 154.23 L 9.536644957543238 154.23 L 8.663519957543237 154.23 L 7.790394957543237 154.23 L 6.917269957543237 154.23 L 6.044144957543237 154.23 L 6.689633348659115 151.82015625 L 7.21539634179366 149.4103125 L 7.612024275711937 147.00046875 L 7.872418639215512 144.590625 L 7.991919114290268 142.18078125 L 7.968386982535421 139.7709375 L 7.80224340213601 137.36109375 L 7.49646187033002 134.95125000000002 L 7.056515006270511 132.54140625000002 L 6.4902766067180595 130.1315625 L 5.807880727487896 127.72171874999998 L 5.021540312692729 125.31187499999999 L 4.145328617801636 122.90203125 L 3.1949273384202193 120.4921875 L 2.187345952569965 118.08234375 L 1.14061729944133 115.67249999999999 L 0.07347484289440007 113.26265624999998 L -0.9949826042280393 110.85281249999998 L -2.045632694494423 108.44296874999999 L -3.0596717814804855 106.033125 L -4.018951451524302 103.62328125 L -4.906303328679772 101.2134375 L -5.705846339784155 98.80359374999998 L -6.403270940469536 96.39374999999998 L -6.986095215281514 93.98390624999999 L -7.443888268441761 91.57406249999998 L -7.768456907195749 89.16421874999997 L -7.953992276644891 86.75437499999998 L -7.997173821717014 84.34453124999999 L -7.897228715651699 81.9346875 L -7.65594569139981 79.52484374999999 L -7.277643028394484 77.115 L -6.769091267639249 74.70515625 L -6.139392038293308 72.2953125 L -5.399815164413173 69.88546875 L -4.5635969671764265 67.47562500000001 L -3.6457033724037173 65.06578125 L -2.6625620630801943 62.65593749999999 L -1.6317684705839168 60.24609375 L -0.5717708665414396 57.83624999999999 L 0.4984598087297503 55.42640624999999 L 1.5597694720608952 53.0165625 L 2.5931637010074344 50.60671875 L 3.5801476799518426 48.19687499999999 L 4.503057204666249 45.78703124999999 L 5.3453748212950805 43.37718749999999 L 6.092025441769753 40.96734375 L 6.7296461449808085 38.5575 L 7.246825335034373 36.14765625 L 7.6343069763408105 33.737812500000004 L 7.885156250308727 31.327968749999997 L 7.994883668860999 28.918124999999996 L 7.961525423494092 26.50828125 L 7.785678531861195 24.098437499999996 L 7.470490152855364 21.688593749999995 L 7.02160126142228 19.27875 L 6.447045691163148 16.868906250000002 L 5.757106351577854 14.459062499999998 L 4.964131193250472 12.049218749999998 L 4.082312214676566 9.639375 L 3.1274314658811067 7.229531249999999 L 2.1165785946393574 4.8196875 L 1.067844990419508 2.40984375 L 0 0 L 0.8731250000000002 0 L 1.7462500000000003 0 L 2.6193750000000007 0 L 3.4925000000000006 0 L 4.365625000000001 0 L 5.238750000000001 0 L 6.111875000000001 0 L 6.985000000000001 0 L 7.858125000000002 0 L 8.731250000000003 0 L 9.604375000000003 0 L 10.477500000000003 0 L 11.350625000000003 0 L 12.223750000000003 0 L 13.096875000000002 0 L 13.970000000000002 0 L 14.763692156682424 1.7887499999999998 L 15.54955274145118 3.5774999999999997 L 16.319827458598656 5.366249999999999 L 17.066915802324427 7.154999999999999 L 17.783446052950413 8.94375 L 18.462348015642455 10.732499999999998 L 19.096922783905903 12.52125 L 19.680908839480296 14.309999999999999 L 20.20854383640782 16.098749999999995 L 20.6746214596357 17.8875 L 21.07454279711355 19.67625 L 21.404361718483543 21.464999999999996 L 21.660823812599666 23.25375 L 21.84139849966939 25.0425 L 21.944304001158464 26.831249999999997 L 21.96852492107433 28.619999999999997 L 21.913822265148816 30.408749999999998 L 21.78073579905826 32.19749999999999 L 21.57057872241178 33.98625 L 21.285424711060994 35.775 L 20.92808745558802 37.56375 L 20.502092897871087 39.3525 L 20.01164443967686 41.14125 L 19.46158146657563 42.92999999999999 L 18.857331596434868 44.71875 L 18.204857123668077 46.5075 L 17.510596187687725 48.29625 L 16.781399246068833 50.085 L 16.024461479259433 51.873749999999994 L 15.247251793818593 53.662499999999994 L 14.457439124726056 55.45125 L 13.662816763958123 57.239999999999995 L 14.166879263958123 57.239999999999995 L 14.670941763958123 57.239999999999995 L 15.175004263958122 57.239999999999995 L 15.679066763958124 57.239999999999995 L 16.183129263958126 57.239999999999995 L 16.687191763958126 57.239999999999995 L 17.191254263958125 57.239999999999995 L 17.695316763958125 57.239999999999995 L 18.199379263958125 57.239999999999995 L 18.703441763958125 57.239999999999995 L 19.207504263958125 57.239999999999995 L 19.711566763958125 57.239999999999995 L 20.215629263958125 57.239999999999995 L 20.719691763958124 57.239999999999995 L 21.223754263958124 57.239999999999995 L 21.727816763958124 57.239999999999995 L 22.231879263958124 57.239999999999995 L 22.735941763958124 57.239999999999995 L 23.240004263958124 57.239999999999995 L 23.744066763958124 57.239999999999995 L 24.248129263958123 57.239999999999995 L 24.752191763958123 57.239999999999995 L 25.256254263958123 57.239999999999995 L 25.760316763958123 57.239999999999995 L 26.264379263958123 57.239999999999995 L 26.768441763958123 57.239999999999995 L 27.272504263958123 57.239999999999995 L 27.776566763958122 57.239999999999995 L 28.280629263958122 57.239999999999995 L 28.784691763958122 57.239999999999995 L 29.288754263958122 57.239999999999995 L 29.792816763958122 57.239999999999995 L 30.587439124726053 55.45125 L 31.37725179381859 53.662499999999994 L 32.15446147925943 51.873749999999994 L 32.91139924606883 50.085 L 33.64059618768773 48.29625 L 34.33485712366807 46.5075 L 34.98733159643486 44.71875 L 35.59158146657563 42.92999999999999 L 36.14164443967686 41.14125 L 36.63209289787108 39.3525 L 37.058087455588016 37.56375 L 37.41542471106099 35.775 L 37.700578722411784 33.98625 L 37.91073579905826 32.19749999999999 L 38.04382226514882 30.408749999999998 L 38.09852492107433 28.619999999999997 L 38.07430400115847 26.831249999999997 L 37.97139849966939 25.0425 L 37.79082381259967 23.25375 L 37.53436171848354 21.464999999999996 L 37.204542797113554 19.67625 L 36.8046214596357 17.8875 L 36.338543836407815 16.098749999999995 L 35.8109088394803 14.309999999999999 L 35.226922783905906 12.52125 L 34.59234801564246 10.732499999999998 L 33.91344605295041 8.94375 L 33.196915802324426 7.154999999999999 L 32.449827458598655 5.366249999999999 L 31.67955274145118 3.5774999999999997 L 30.893692156682423 1.7887499999999998 L 30.1 0 L 30.973125000000003 0 L 31.84625 0 L 32.719375 0 L 33.5925 0 L 34.465625 0 L 35.338750000000005 0 L 36.211875000000006 0 L 37.085 0 L 37.958124999999995 0 L 38.83125 0 L 39.704375 0 L 40.5775 0 L 41.450625 0 L 42.323750000000004 0 L 43.196875000000006 0 L 44.07 0 L 44.07 0 Z" fill="black" stroke="black" />
				</svg>