<svg
					xmlns="http://www.w3.org/2000/svg" xmlns:xlink="http://www.w3.org/1999/xlink"
					style="
						overflow: visible;
						height: 100;
					"
					viewBox="-7.999765108562261 0 59.98280933133661 156.39"
				>
					<path d="M 43.99 0 L 45.27441692743816 2.9025000000000007 L 46.525509309354945 5.8050000000000015 L 47.710817214600276 8.707500000000003 L 48.79958750811233 11.610000000000003 L 49.7635717493471 14.512500000000003 L 50.57775910572937 17.415000000000006 L 51.22102526548696 20.317500000000006 L 51.676680513648584 23.220000000000006 L 51.932902751225186 26.12250000000001 L 51.98304422277435 29.025000000000006 L 51.82580399421816 31.927500000000006 L 51.465261705930686 34.83000000000001 L 50.910771725362046 37.732500000000016 L 50.176720445437994 40.63500000000001 L 49.2821530256938 43.53750000000001 L 48.25027926044497 46.44000000000001 L 47.10787139437916 49.342500000000015 L 45.88456950940704 52.24500000000002 L 44.61211250469854 55.14750000000002 L 43.32351462233624 58.05000000000001 L 42.05220888385092 60.95250000000001 L 40.83117966141077 63.85500000000001 L 39.692106889339996 66.75750000000002 L 38.664544119631046 69.66000000000003 L 37.77515174702314 72.56250000000003 L 37.04700529783035 75.46500000000003 L 36.49899672915321 78.36750000000004 L 36.14534427192816 81.27000000000002 L 35.99522353506985 84.17250000000001 L 36.05252944180941 87.07500000000002 L 36.315775174854906 89.97750000000002 L 36.77813075226916 92.88000000000002 Q 36.96258485325238 93.79125000000002 37.15695570733291 94.69081054687504 Q 37.36837550612723 95.59037109375004 37.58778684690225 96.47824218750003 Q 37.822719712799376 97.36611328125005 38.06367008731155 98.24229492187504 Q 38.31854497073449 99.11847656250005 38.57744400776014 99.98296875000003 Q 38.848626838289256 100.84746093750002 39.121848341413546 101.700263671875 Q 39.405693286363864 102.55306640625003 39.68962398736896 103.39417968750001 Q 39.98252018246904 104.23529296875003 40.27360383207442 105.06471679687503 Q 40.572017318203095 105.89414062500003 40.86679390822289 106.71187500000002 Q 41.16730462056924 107.529609375 41.46244463807063 108.33565429687502 Q 41.76177839553997 109.14169921875 42.05411210484082 109.93605468750002 Q 42.34916763745139 110.73041015625 42.635709469375456 111.51307617187501 Q 42.923580599517365 112.2957421875 43.20154879912475 113.06671875 Q 43.47954195891254 113.83769531250002 43.74637370309949 114.59698242187501 Q 44.012021024910794 115.35626953125 44.26538327020343 116.10386718750001 Q 44.51645153133084 116.85146484375001 44.754247890438656 117.58737304687502 Q 44.98874362621889 118.32328125000002 45.20911760016466 119.04750000000001 Q 45.42528872374584 119.77171875 45.6266236354501 120.484248046875 Q 45.822957917355495 121.19677734375 46.0038739033016 121.8976171875 Q 46.17909467104793 122.59845703125 46.33844309100394 123.28760742187501 Q 46.49150250916504 123.97675781250003 46.62835813082497 124.65421875000001 Q 46.88137671484915 126.00914062500003 47.06848059391742 127.31730468750001 Q 47.22558235661534 128.62546875 47.31672305792881 129.886875 Q 47.376318467022294 131.14828125 47.371336487069144 132.36292968749999 Q 47.334405741556346 133.577578125 47.23544402350209 134.74546875 Q 47.10507137504601 135.91335937499997 46.9161121249773 137.03449218749998 Q 46.697023686404975 138.155625 46.423440254974984 139.23 Q 46.12151651633573 140.3025 45.76912959157352 141.30796875 Q 45.3917871549276 142.3134375 44.97061430729161 143.25187499999998 Q 44.751912015070396 143.72109375000002 44.5234605811619 144.1735546875 Q 44.29001568927125 144.62601562499998 44.04760059976438 145.06171874999998 Q 43.80059654660182 145.497421875 43.54537430464457 145.9163671875 Q 43.28595594396562 146.3353125 43.019041029502475 146.73749999999998 Q 42.748308478506026 147.13968749999998 42.47076796604688 147.52511718749997 Q 42.189771792953685 147.91054687499997 41.90262123683041 148.27921874999998 Q 41.612358862574865 148.647890625 41.316559323684814 148.9998046875 Q 41.01797251121624 149.35171874999997 40.71442859940177 149.686875 Q 40.40840190524002 150.02203125 40.097960713648824 150.34042968749998 Q 39.78532077934928 150.65882812499999 39.46877159096749 150.96046875 Q 39.15028715664518 151.262109375 38.82836180833647 151.5469921875 Q 38.504744336036076 151.831875 38.178118131535875 152.1 Q 37.85002293271216 152.36812499999996 37.5193160028332 152.6194921875 Q 37.1873437712581 152.870859375 36.85312278681742 153.10546874999997 Q 36.51782144562888 153.34007812499996 36.18060159609734 153.55792968749995 Q 35.84246837525549 153.77578124999997 35.50271553368563 153.97687499999995 Q 35.162199201646914 154.17796874999996 34.82033220390872 154.36230468749994 Q 34.477835384737176 154.54664062499995 34.134228358373306 154.71421874999996 Q 33.7901098726816 154.88179687499996 33.44509455769663 155.03261718749997 Q 33.09967173267201 155.18343749999997 32.75353974323317 155.3175 Q 32.40709064350529 155.4515625 32.06009562581538 155.5688671875 Q 31.712861163032006 155.68617187499999 31.365220810517684 155.78671874999998 Q 31.01740669519875 155.887265625 30.669304587635864 155.9710546875 Q 30.321083092178835 156.05484374999997 29.972670330460844 156.121875 Q 29.62418183708743 156.18890625 29.27557845005644 156.23917968749998 Q 28.926932762049766 156.28945312499997 28.578228866185356 156.32296874999997 Q 28.2295062650053 156.35648437499998 27.880762961845452 156.37324218749998 Q 27.532014996673084 156.39 27.18326499667309 156.39 L 27.18326499667309 156.39 Q 26.850452496673086 156.39 26.527836828696266 156.37406249999998 Q 26.20521694416811 156.35812499999997 25.892777009024783 156.32625 Q 25.580320158410064 156.294375 25.278009344287405 156.24656249999998 Q 24.975660286203407 156.19875 24.68340602782797 156.135 Q 24.39108332409772 156.07124999999996 24.10878642296351 155.9915625 Q 23.826381665751086 155.911875 23.553915379347306 155.81625 Q 23.281292191622853 155.72062499999998 23.018501102640045 155.6090625 Q 22.755493924315914 155.4975 22.502192604029457 155.36999999999998 Q 22.248605279420147 155.24249999999995 22.004576762885115 155.09906249999997 Q 21.760180948685747 154.95562499999997 21.525175043064095 154.79625 Q 21.289708459850345 154.63687499999997 21.063439911158405 154.46156249999996 Q 20.836604465509836 154.28625 20.618751013346206 154.09499999999997 Q 20.400210822106395 153.90375 20.190411176510676 153.69656249999997 Q 19.97979052942984 153.489375 19.777642308936752 153.26624999999999 Q 19.574523610997602 153.043125 19.379581286182542 152.8040625 Q 19.18350302627337 152.565 18.99527591861406 152.31 Q 18.80573071686026 152.05499999999998 18.623681108530686 151.78406249999998 Q 18.44011390048326 151.513125 18.26365531669817 151.22625 Q 18.085461738645815 150.93937499999998 17.913957470316895 150.6365625 Q 17.74048251615725 150.33375 17.573244456813292 150.015 Q 17.40378148308666 149.69624999999996 17.240069360135895 149.3615625 Q 17.07385952186628 149.026875 16.912880608200645 148.67624999999998 Q 16.7491128139537 148.325625 16.590022211446335 147.9590625 Q 16.427833691323656 147.59249999999997 16.26973528276074 147.20999999999998 Q 15.943242757180238 146.445 15.629345482410347 145.61624999999998 Q 15.298961764271723 144.7875 14.975740023788365 143.89499999999998 Q 14.63304715789134 143.0025 14.29168733303277 142.04625 Q 13.927770542735008 141.09 13.55909129615566 140.07 Q 13.164904300191417 139.051875 12.76270552093679 137.98007812499998 Q 12.332652826351406 136.90828125000002 11.889654302460453 135.78281249999998 Q 11.416884948264308 134.65734375 10.926700317538401 133.478203125 Q 10.40544498426587 132.2990625 9.86304314002333 131.06625 Q 9.289111154775469 129.8334375 8.69134369299637 128.546953125 Q 8.062665025072707 127.26046874999997 7.408828166914125 125.9203125 Q 7.070887438005757 125.250234375 6.726675387170258 124.56673828125 Q 6.375601554784652 123.88324218749999 6.018422160235997 123.18632812499999 Q 5.6548683285863 122.4894140625 5.285504977430152 121.77908203124998 Q 4.910363659796232 121.06875 4.5298477420111265 120.34499999999998 Q 4.144264367087948 119.62124999999997 3.753887800017465 118.88408203124997 Q 3.359272146787683 118.14691406249999 2.960597575855976 117.39632812499997 Q 2.5586326675645594 116.64574218749996 2.153500860942102 115.88173828124997 Q 1.74614882884039 115.11773437499997 1.3366827674492292 114.34031249999998 Q 0.9261871823651495 113.56289062500001 0.514792338387287 112.77205078125 Q 0.10367650440018883 111.9812109375 -0.306963197096922 111.17695312500001 Q -0.715902485966682 110.37269531250001 -1.1228335149530573 109.55501953125 Q -1.526537235495814 108.73734375000001 -1.9265505815383595 107.90625 Q -2.3217142078067936 107.07515624999999 -2.711365208390252 106.23064453125 Q -3.0944613048684113 105.38613281250001 -3.4700955488312935 104.528203125 Q -3.837402567710011 103.67027343749999 -4.195188172320719 102.79892578124999 Q -4.542825711112562 101.927578125 -4.878792180414769 101.0428125 Q -5.202762856593434 100.158046875 -5.512846618989776 99.25986328124999 Q -5.809084599882251 98.36167968749999 -6.089181194199368 97.450078125 Q -6.353607282912854 96.53847656250001 -6.599630014571437 95.61345703125001 Q -6.828213036732285 94.68843749999999 -7.0361577598655165 93.75 L -7.0361577598655165 93.75 L -7.560046541536026 90.8203125 L -7.8841042118135976 87.890625 L -7.999765108562261 84.9609375 L -7.903972022356784 82.03125 L -7.599257006244067 79.1015625 L -7.093674447190296 76.171875 L -6.400588168304437 73.2421875 L -5.538318189263613 70.3125 L -4.529656481953957 67.3828125 L -3.401264521127473 64.453125 L -2.1829685543317137 61.5234375 L -0.9069712189066392 58.59375 L 0.39299965499862644 55.6640625 L 1.6825825561045225 52.734375 L 2.927690553471476 49.8046875 L 4.095412300118876 46.875 L 5.154881962992885 43.9453125 L 6.078095084838378 41.015625 L 6.840648812686486 38.0859375 L 7.422386926850525 35.15625 L 7.807932620685944 32.2265625 L 7.987094948400462 29.296875 L 7.95513819747297 26.3671875 L 7.712907065488232 23.4375 L 7.266804332647737 20.5078125 L 6.628621620128573 17.578125 L 5.815227707774065 14.6484375 L 4.848122649666291 11.71875 L 3.752869473431288 8.7890625 L 2.558418484898685 5.859375 L 1.2963420384490367 2.9296875 L 0 0 L 0.8724999999999999 0 L 1.7449999999999999 0 L 2.6174999999999997 0 L 3.4899999999999998 0 L 4.3625 0 L 5.234999999999999 0 L 6.1075 0 L 6.9799999999999995 0 L 7.852499999999999 0 L 8.725 0 L 9.5975 0 L 10.469999999999999 0 L 11.3425 0 L 12.215 0 L 13.087499999999999 0 L 13.959999999999999 0 L 15.211916495924225 2.828437499999999 L 16.43298479920412 5.656874999999998 L 17.593116840568218 8.485312499999996 L 18.663726067461795 11.313749999999995 L 19.618431838855248 14.142187499999995 L 20.43370946468301 16.97062499999999 L 21.08946987243742 19.79906249999999 L 21.569554617483565 22.62749999999999 L 21.862134039657207 25.455937499999987 L 21.95999875525874 28.28437499999999 L 21.86073730185454 31.11281249999999 L 21.56679555858011 33.94124999999998 L 21.085416477782715 36.76968749999998 L 20.428461613062563 39.59812499999998 L 19.612118841399862 42.42656249999999 L 18.656503481321085 45.25499999999998 L 17.58516263586191 48.083437499999974 L 16.424494973700366 50.911874999999974 L 15.203100245502698 53.74031249999998 L 13.951074563903333 56.56874999999998 L 12.699268811966238 59.39718749999997 L 11.478528453518084 62.22562499999998 L 10.318933477015543 65.05406249999997 L 9.249057201318944 67.88249999999996 L 8.295262206972382 70.71093749999997 L 7.481050741789182 73.53937499999996 L 6.826485607252478 76.36781249999997 L 6.3476957955388285 79.19624999999996 L 6.056479058651627 82.02468749999997 L 5.960011202668996 84.85312499999998 L 6.060669270321042 87.68156249999997 L 6.3559729688148785 90.50999999999996 Q 6.509870615833724 91.53562499999997 6.689454795182221 92.52585937499997 Q 6.891061586870004 93.51609374999997 7.114106074599118 94.47093749999996 Q 7.3565007454226485 95.42578124999996 7.6162484724122095 96.34523437499995 Q 7.892733901548983 97.26468749999995 8.182724518051227 98.14874999999996 Q 8.486959035365278 99.03281249999998 8.801141197387755 99.88148437499997 Q 9.127236367351026 100.73015624999996 9.460048241266481 101.54343749999997 Q 9.802636210582184 102.35671874999997 10.149057554620269 103.13460937499995 Q 10.503331529624395 103.91249999999997 10.85891105246613 104.65499999999997 Q 11.58802058573158 106.13999999999999 12.309875086225661 107.48343749999998 Q 13.045397638760445 108.82687499999997 13.761530576308655 110.02874999999999 Q 14.483712217413018 111.230625 15.1789082501768 112.2909375 Q 15.87534713324628 113.35125 16.540815613449546 114.27000000000001 Q 17.203677532425335 115.18875 17.843611177554802 115.99265625000001 Q 18.480989572691012 116.7965625 19.095463213673018 117.48562499999998 Q 19.70710727908823 118.17468749999998 20.29683644789609 118.74890624999998 Q 20.884051413254348 119.32312499999998 21.4508479693512 119.78249999999998 Q 22.01575363999683 120.241875 22.561867793662888 120.58640624999998 Q 23.106797429816087 120.93093749999998 23.634400539679874 121.16062499999997 Q 24.161439453211635 121.39031249999996 24.672242665370643 121.50515624999998 Q 25.182899234964154 121.61999999999998 25.677899234964155 121.61999999999998 L 25.677899234964155 121.61999999999998 Q 25.943524234964155 121.61999999999998 26.18842275037947 121.59082031249997 Q 26.433311709662867 121.56164062499998 26.65743608133675 121.50328124999999 Q 27.10557148903017 121.38656249999997 27.47014579788373 121.15312499999997 Q 27.83413784289437 120.91968749999998 28.113443709044375 120.56953124999998 Q 28.391528661555462 120.21937499999997 28.583419664185275 119.75249999999997 Q 28.773365898351226 119.28562499999997 28.87545073644587 118.70203124999998 Q 28.97495944762509 118.11843749999997 28.985086828670784 117.41812499999996 Q 28.99233558029619 116.71781249999995 28.909225933504796 115.90078124999997 Q 28.823559996355485 115.08374999999995 28.647584241084864 114.14999999999995 Q 28.473267120598134 113.21999999999994 28.206743233366105 112.14984374999995 Q 27.941706698274448 111.07968749999995 27.588653158074653 109.86937499999996 Q 27.242048757773873 108.65906249999998 26.81525132734043 107.30859374999997 Q 26.402680784755827 105.95812499999998 25.922274221777094 104.46749999999997 Q 25.691305249848522 103.72218749999996 25.44653198123389 102.94183593749997 Q 25.209797608175112 102.16148437499996 24.96180453526293 101.34609374999997 Q 24.723781867972534 100.53070312499997 24.477395270486927 99.68027343749998 Q 24.243118482840373 98.82984374999998 24.003712287303102 97.94437499999998 Q 23.778742646781026 97.05890624999998 23.552195380063736 96.1383984375 Q 23.342566682123586 95.217890625 23.135191763295097 94.26234374999999 Q 22.947327620334676 93.30679687499997 22.765773584153013 92.31621093749999 Q 22.606373378581264 91.32562499999999 22.45749112319933 90.29999999999998 L 22.45749112319933 90.29999999999998 L 22.17687539361474 87.47812499999998 L 22.090343282875182 84.65624999999997 L 22.200017146691454 81.834375 L 22.503207036220218 79.01249999999999 L 22.99247667389932 76.19062499999998 L 23.6558258415349 73.36874999999999 L 24.476984707244295 70.54687499999999 L 25.435812872356795 67.725 L 26.508793350929146 64.90312499999999 L 27.66960936613929 62.08124999999998 L 28.889789816588987 59.25937499999999 L 30.13940758129292 56.437499999999986 L 31.387813536167908 53.61562499999999 L 32.60438827894719 50.793749999999996 L 33.75929312511373 47.971875 L 34.82420195532588 45.14999999999999 L 35.772995964460726 42.328124999999986 L 36.58240427230455 39.506249999999994 L 37.23257468376077 36.684374999999996 L 37.70756059965418 33.8625 L 37.99571213576805 31.04062499999999 L 38.08996185721584 28.218749999999993 L 37.98799811999803 25.396874999999998 L 37.69232176823053 22.574999999999996 L 37.21018479644296 19.753124999999997 L 36.553412481364596 16.93125 L 35.73811334573557 14.109374999999996 L 34.78428406780313 11.287499999999998 L 33.715319026808054 8.465625 L 32.55743651374097 5.643749999999999 L 31.339035680581866 2.8218749999999995 L 30.090000000000003 0 L 30.958750000000002 0 L 31.827500000000004 0 L 32.696250000000006 0 L 33.565000000000005 0 L 34.43375 0 L 35.30250000000001 0 L 36.17125000000001 0 L 37.040000000000006 0 L 37.908750000000005 0 L 38.7775 0 L 39.64625 0 L 40.515 0 L 41.38375 0 L 42.2525 0 L 43.12125 0 L 43.99 0 L 43.99 0 Z" fill="black" stroke="black" />
				</svg>