<svg
					xmlns="http://www.w3.org/2000/svg" xmlns:xlink="http://www.w3.org/1999/xlink"
					style="
						overflow: visible;
						height: 100;
					"
					viewBox="0 0 46.946458902070425 154.23"
				>
					<path d="M 33.998979682908036 34.139999999999986 L 33.69134198939108 36.01640624999999 L 33.30475832356483 37.892812499999984 L 32.84342587811011 39.76921874999998 L 32.31235340361482 41.64562499999999 L 31.717306827871518 43.52203124999999 L 31.06474665439658 45.398437499999986 L 30.361757819844144 47.27484374999999 L 29.61597277186241 49.15124999999999 L 28.835488602546988 51.027656249999986 L 28.028779137184653 52.904062499999995 L 27.204602932752532 54.78046875 L 26.37190818504556 56.65687499999999 L 25.539735576868978 58.53328124999999 L 24.717120122086474 60.40968749999999 L 23.912993071216743 62.28609374999999 L 23.136084943603223 64.1625 L 22.39483073895009 66.03890624999998 L 21.69727835735612 67.91531249999998 L 21.05100122214288 69.79171874999999 L 20.46301605414336 71.66812499999997 L 19.93970669018697 73.54453124999998 L 19.486754772894344 75.42093749999998 L 19.10907806429237 77.29734374999998 L 18.81077705298724 79.17374999999998 L 18.595090434588744 81.05015624999999 L 18.464359948741148 82.92656249999999 L 18.420004954529848 84.80296874999999 L 18.462507020302187 86.679375 L 18.59140469521286 88.55578125 L 18.805298519259967 90.4321875 L 19.101866217417115 92.30859374999999 L 19.477887912896676 94.18499999999999 L 19.929281085800348 96.06140624999998 L 20.451144897606092 97.93781249999998 L 21.037813400254212 99.81421875 L 21.68291705213432 101.69062499999998 L 22.379451873085372 103.56703124999997 L 23.119855487583358 105.44343749999999 L 23.896089230505236 107.31984374999999 L 24.699725424035304 109.19624999999998 L 25.522038878136616 111.07265624999997 L 26.354101621153912 112.94906249999997 L 27.18687983204484 114.82546874999998 L 28.01133192183274 116.70187499999997 L 28.818506699396966 118.57828124999997 L 29.599640555801038 120.45468749999999 L 30.34625261201499 122.33109374999998 L 31.050236796999723 124.20749999999998 L 31.70394985644881 126.08390625 L 32.30029433666457 127.96031249999999 L 32.832795642601084 129.83671875 L 33.29567233344392 131.713125 L 33.68389889251798 133.58953125 L 33.99326029002176 135.4659375 L 34.220397746192646 137.34234375 L 34.36284519804647 139.21875 L 34.419056073766654 141.09515625 L 34.388420084049706 142.9715625 L 34.271269848101184 144.84796875 L 34.068877282342676 146.724375 L 33.7834397910381 148.60078124999998 L 33.418056408769715 150.47718749999999 L 32.97669415378821 152.35359375000002 L 32.46414495754323 154.23 L 31.596019957543234 154.23 L 30.727894957543235 154.23 L 29.859769957543236 154.23 L 28.991644957543237 154.23 L 28.123519957543238 154.23 L 27.25539495754324 154.23 L 26.38726995754324 154.23 L 25.519144957543233 154.23 L 24.651019957543234 154.23 L 23.782894957543235 154.23 L 22.914769957543236 154.23 L 22.046644957543236 154.23 L 21.178519957543237 154.23 L 20.310394957543238 154.23 L 19.44226995754324 154.23 L 18.574144957543236 154.23 L 19.086694153788212 152.35359375000002 L 19.52805640876972 150.47718749999999 L 19.8934397910381 148.60078124999998 L 20.178877282342675 146.724375 L 20.381269848101184 144.84796875 L 20.498420084049705 142.9715625 L 20.529056073766654 141.09515625 L 20.472845198046475 139.21875 L 20.330397746192645 137.34234375 L 20.10326029002176 135.4659375 L 19.79389889251798 133.58953125 L 19.405672333443917 131.713125 L 18.942795642601087 129.83671875 L 18.410294336664574 127.96031249999999 L 17.813949856448808 126.08390625 L 17.160236796999726 124.20749999999998 L 16.45625261201499 122.33109374999998 L 15.70964055580104 120.45468749999999 L 14.92850669939697 118.57828124999997 L 14.12133192183274 116.70187499999997 L 13.29687983204484 114.82546874999998 L 12.464101621153914 112.94906249999997 L 11.632038878136619 111.07265624999997 L 10.809725424035307 109.19624999999998 L 10.006089230505237 107.31984374999999 L 9.229855487583357 105.44343749999999 L 8.489451873085372 103.56703124999997 L 7.792917052134324 101.69062499999998 L 7.147813400254214 99.81421875 L 6.561144897606093 97.93781249999998 L 6.039281085800351 96.06140624999998 L 5.587887912896677 94.18499999999999 L 5.211866217417117 92.30859374999999 L 4.915298519259967 90.4321875 L 4.701404695212859 88.55578125 L 4.572507020302189 86.679375 L 4.530004954529848 84.80296874999999 L 4.574359948741148 82.92656249999999 L 4.7050904345887465 81.05015624999999 L 4.920777052987244 79.17374999999998 L 5.21907806429237 77.29734374999998 L 5.596754772894344 75.42093749999998 L 6.04970669018697 73.54453124999998 L 6.573016054143361 71.66812499999997 L 7.161001222142882 69.79171874999999 L 7.807278357356119 67.91531249999998 L 8.50483073895009 66.03890624999998 L 9.246084943603226 64.1625 L 10.022993071216746 62.28609374999999 L 10.827120122086473 60.40968749999999 L 11.64973557686898 58.53328124999999 L 12.48190818504556 56.65687499999999 L 13.314602932752532 54.78046875 L 14.138779137184654 52.904062499999995 L 14.94548860254699 51.027656249999986 L 15.725972771862413 49.15124999999999 L 16.471757819844143 47.27484374999999 L 17.174746654396582 45.398437499999986 L 17.827306827871517 43.52203124999999 L 18.422353403614828 41.64562499999999 L 18.953425878110114 39.76921874999998 L 19.414758323564833 37.892812499999984 L 19.801341989391076 36.01640624999999 L 20.108979682908036 34.139999999999986 L 19.325854682908037 34.139999999999986 L 18.542729682908035 34.139999999999986 L 17.759604682908037 34.139999999999986 L 16.976479682908035 34.139999999999986 L 16.193354682908037 34.139999999999986 L 15.410229682908035 34.139999999999986 L 14.627104682908037 34.139999999999986 L 13.843979682908037 34.139999999999986 L 13.060854682908037 34.139999999999986 L 12.277729682908037 34.139999999999986 L 11.494604682908037 34.139999999999986 L 10.711479682908037 34.139999999999986 L 9.928354682908036 34.139999999999986 L 9.145229682908036 34.139999999999986 L 8.362104682908036 34.139999999999986 L 7.578979682908037 34.139999999999986 L 7.828674311777416 32.00624999999999 L 7.968488179030174 29.872499999999988 L 7.996458902070423 27.73874999999999 L 7.912193892801096 25.60499999999999 L 7.716875867864553 23.47124999999999 L 7.413246248411136 21.33749999999999 L 7.00556668239122 19.203749999999992 L 6.499559229431478 17.069999999999993 L 5.9023260478413 14.936249999999994 L 5.222249710996758 12.802499999999995 L 4.468875552229385 10.668749999999996 L 3.6527776895891684 8.534999999999997 L 2.7854106109152186 6.401249999999997 L 1.8789484023184482 4.267499999999998 L 0.9461138766137243 2.133749999999999 L 0 0 L 0.60859375 0 L 1.2171875 0 L 1.8257812500000001 0 L 2.434375 0 L 3.04296875 0 L 3.6515625000000003 0 L 4.2601562500000005 0 L 4.86875 0 L 5.47734375 0 L 6.0859375 0 L 6.694531250000001 0 L 7.3031250000000005 0 L 7.91171875 0 L 8.520312500000001 0 L 9.12890625 0 L 9.7375 0 L 10.346093750000001 0 L 10.9546875 0 L 11.56328125 0 L 12.171875 0 L 12.78046875 0 L 13.389062500000001 0 L 13.997656250000002 0 L 14.606250000000001 0 L 15.21484375 0 L 15.8234375 0 L 16.43203125 0 L 17.040625000000002 0 L 17.649218750000003 0 L 18.2578125 0 L 18.86640625 0 L 19.475 0 L 20.083593750000002 0 L 20.692187500000003 0 L 21.30078125 0 L 21.909375 0 L 22.51796875 0 L 23.1265625 0 L 23.73515625 0 L 24.34375 0 L 24.95234375 0 L 25.5609375 0 L 26.169531250000002 0 L 26.778125000000003 0 L 27.386718750000004 0 L 27.995312500000004 0 L 28.60390625 0 L 29.212500000000002 0 L 29.821093750000003 0 L 30.4296875 0 L 31.03828125 0 L 31.646875 0 L 32.255468750000006 0 L 32.8640625 0 L 33.47265625 0 L 34.081250000000004 0 L 34.68984375000001 0 L 35.298437500000006 0 L 35.90703125 0 L 36.515625 0 L 37.12421875 0 L 37.7328125 0 L 38.341406250000006 0 L 38.95 0 L 39.896113876613725 2.133749999999999 L 40.82894840231845 4.267499999999998 L 41.735410610915224 6.401249999999997 L 42.602777689589175 8.534999999999997 L 43.41887555222939 10.668749999999996 L 44.17224971099676 12.802499999999995 L 44.8523260478413 14.936249999999994 L 45.44955922943148 17.069999999999993 L 45.95556668239122 19.203749999999992 L 46.36324624841114 21.33749999999999 L 46.666875867864555 23.47124999999999 L 46.8621938928011 25.60499999999999 L 46.946458902070425 27.73874999999999 L 46.91848817903018 29.872499999999988 L 46.77867431177742 32.00624999999999 L 46.52897968290804 34.139999999999986 L 45.74585468290804 34.139999999999986 L 44.96272968290804 34.139999999999986 L 44.17960468290804 34.139999999999986 L 43.39647968290804 34.139999999999986 L 42.61335468290803 34.139999999999986 L 41.83022968290803 34.139999999999986 L 41.047104682908035 34.139999999999986 L 40.26397968290804 34.139999999999986 L 39.48085468290804 34.139999999999986 L 38.69772968290804 34.139999999999986 L 37.914604682908035 34.139999999999986 L 37.13147968290804 34.139999999999986 L 36.34835468290804 34.139999999999986 L 35.56522968290803 34.139999999999986 L 34.782104682908034 34.139999999999986 L 33.998979682908036 34.139999999999986 L 33.998979682908036 34.139999999999986 Z" fill="black" stroke="black" />
				</svg>