<svg
					xmlns="http://www.w3.org/2000/svg" xmlns:xlink="http://www.w3.org/1999/xlink"
					style="
						overflow: visible;
						height: 100;
					"
					viewBox="-3.16645768973933 1.3216094885137863e-12 45.242070887985165 158.55"
				>
					<path d="M 34.42487612104876 109.5300000000013 L 34.42487612104876 109.5300000000013 Q 34.76695260024172 110.31187500000131 35.100861006016906 111.0888281250013 Q 35.436428870732875 111.86578125000129 35.76250847600486 112.6378125000013 Q 36.08896369007723 113.40984375000131 36.40465958762282 114.1769531250013 Q 36.71948466024391 114.9440625000013 37.02233704110009 115.7062500000013 Q 37.32311799594738 116.46843750000131 37.610778181469755 117.22570312500133 Q 37.89521975206609 117.98296875000133 38.165464435635265 118.73531250000133 Q 38.4314034509794 119.48765625000131 38.68214712398781 120.23507812500131 Q 38.92756406887976 120.98250000000132 39.15686962531152 121.72500000000133 Q 39.37989837884698 122.46750000000134 39.5859859110502 123.20507812500134 Q 39.78492168436308 123.94265625000135 39.966175499414426 124.67531250000133 Q 40.13948100982674 125.40796875000132 40.29445491113685 126.13570312500133 Q 40.4407648443759 126.86343750000133 40.568185736837094 127.58625000000133 Q 40.68630956186915 128.30906250000135 40.7850794508835 129.02695312500134 Q 40.87400266318063 129.74484375000134 40.94319912832734 130.45781250000135 Q 41.002083007038486 131.17078125000134 41.04095823996135 131.87882812500135 Q 41.069138212527314 132.58687500000133 41.07711671588277 133.29000000000133 Q 41.07439227771811 133.99125000000134 41.048863115334115 134.67609375000131 Q 41.012546718845975 135.36093750000134 40.95413806140196 136.02937500000132 Q 40.88518064696876 136.69781250000133 40.794926086859185 137.34984375000133 Q 40.69443618783383 138.00187500000132 40.573509944508636 138.63750000000132 Q 40.44272380953736 139.2731250000013 40.29241192765791 139.89234375000132 Q 40.13266547810349 140.51156250000133 39.95433897485145 141.1143750000013 Q 39.76704180915063 141.7171875000013 39.56213194531053 142.3035937500013 Q 39.34874353465973 142.8900000000013 39.11871932076641 143.4600000000013 Q 38.88072748056747 144.03000000000128 38.62707547360292 144.58359375000128 Q 38.36597714269263 145.1371875000013 38.09018354050678 145.6743750000013 Q 37.80746785522917 146.2115625000013 37.51100285485142 146.7323437500013 Q 37.20813646724545 147.25312500000132 36.89244081921611 147.7575000000013 Q 36.570855377597866 148.26187500000128 36.23732904094706 148.74984375000128 Q 35.89841072649186 149.2378125000013 35.54840350751897 149.70937500000127 Q 35.19348450155866 150.18093750000128 34.828288543562095 150.6360937500013 Q 34.458640286633575 151.09125000000128 34.07948426662532 151.53000000000128 Q 33.69631236124952 151.9687500000013 33.305958525189 152.38007812500132 Q 32.91218449768121 152.7914062500013 32.51225040791969 153.17531250000133 Q 32.10943211884395 153.55921875000132 31.701372731090995 153.9157031250013 Q 31.29090722271547 154.2721875000013 30.876021026492587 154.6012500000013 Q 30.459151460689267 154.93031250000132 30.03858820209075 155.23195312500133 Q 29.616412151912098 155.5335937500013 29.191181628804365 155.80781250000132 Q 28.76466023967251 156.0820312500013 28.335641718717497 156.32882812500128 Q 27.90560931391432 156.5756250000013 27.473561176304194 156.7950000000013 Q 27.040734937822574 157.01437500000128 26.60630421512562 157.2063281250013 Q 26.171293623889778 157.39828125000133 25.73502513610385 157.56281250000131 Q 25.298340904432045 157.7273437500013 24.860685758745543 157.86445312500132 Q 24.42274803237511 158.0015625000013 23.984071283068257 158.1112500000013 Q 23.545216930034346 158.2209375000013 23.105804237484598 158.3032031250013 Q 22.66629307680533 158.38546875000128 22.226356236963056 158.4403125000013 Q 21.78637609178761 158.4951562500013 21.346057337194907 158.5225781250013 Q 20.905727825312944 158.55000000000132 20.465102825312947 158.55000000000132 L 20.465102825312947 158.55000000000132 Q 20.023852825312947 158.55000000000132 19.602103312776958 158.53500000000133 Q 19.180350584587828 158.52000000000132 18.77808546615573 158.49000000000132 Q 18.375807439850327 158.4600000000013 17.99299113222917 158.4150000000013 Q 17.610145612569294 158.3700000000013 17.24672263691666 158.3100000000013 Q 16.88324730883876 158.2500000000013 16.539141663849385 158.17500000000132 Q 16.194953378716303 158.10000000000133 15.87006769779966 158.01000000000133 Q 15.545061546691553 157.92000000000132 15.239276046723145 157.81500000000133 Q 14.933324229195968 157.71000000000132 14.646495460564406 157.59000000000134 Q 14.360745523246246 157.4662500000013 14.086212168061916 157.3242187500013 Q 13.81136385889088 157.1821875000013 13.547563792808358 157.0218750000013 Q 13.28335427779323 156.8615625000013 13.0299975007828 156.6829687500013 Q 12.776121330598109 156.5043750000013 12.532873375528627 156.3075000000013 Q 12.288979386139305 156.1106250000013 12.05545809497888 155.8954687500013 Q 11.821146123415573 155.6803125000013 11.596918270389054 155.44687500000128 Q 11.371735743625408 155.2134375000013 11.156313568289404 154.9617187500013 Q 10.939752032208663 154.7100000000013 10.732589754838742 154.4400000000013 Q 10.524081420012841 154.17000000000127 10.317605444761226 153.87984375000127 Q 10.109532753272585 153.58968750000128 9.903005696045492 153.27937500000127 Q 9.694602625328205 152.9690625000013 9.487207279272468 152.6385937500013 Q 9.277626690037408 152.3081250000013 9.068462574292571 151.9575000000013 Q 8.856773013715225 151.60687500000128 8.644853519908061 151.23609375000126 Q 8.430036701715085 150.86531250000127 8.214287025544458 150.47437500000126 Q 7.995236181558524 150.08343750000125 7.774492243430351 149.67234375000126 Q 7.550011557344408 149.26125000000127 7.323020131662819 148.8300000000013 L 7.323020131662819 148.8300000000013 L 7.676407844988584 146.50875000000127 L 7.9023117843644926 144.18750000000128 L 7.996980313957311 141.8662500000013 L 7.958841252914943 139.54500000000127 L 7.7885279849156355 137.22375000000127 L 7.488868939427536 134.90250000000128 L 7.064840619365607 132.5812500000013 L 6.523484955225817 130.2600000000013 L 5.8737923582144616 127.93875000000128 L 5.126552414534722 125.61750000000129 L 4.2941747003829125 123.2962500000013 L 3.390482693418718 120.97500000000129 L 2.430484203266444 118.65375000000128 L 1.4301221335578553 116.33250000000129 L 0.40600971466554026 114.0112500000013 L -0.62484539582564 111.69000000000129 Q -0.19128344161470773 112.08000000000129 0.2378062413178001 112.45875000000132 Q 0.6670215531911524 112.83750000000131 1.09160059057363 113.20500000000129 Q 1.516159682595491 113.57250000000128 1.9359486630560938 113.9287500000013 Q 2.355592955960157 114.2850000000013 2.770361388823771 114.6300000000013 Q 3.184879891023004 114.9750000000013 3.5944427675656856 115.30875000000133 Q 4.003668605496287 115.64250000000132 4.407882922484178 115.96500000000133 Q 4.81168984988861 116.28750000000133 5.21045113086879 116.59875000000133 Q 5.608750050484382 116.91000000000132 6.001988895851191 117.21000000000132 Q 6.394724422620202 117.51000000000133 6.782403115262568 117.79875000000132 Q 7.169550206066873 118.08750000000131 7.551659395435854 118.36500000000132 Q 7.933220066508859 118.64250000000132 8.309775550247169 118.90875000000133 Q 8.68577569984063 119.17500000000132 9.056815318701236 119.43000000000133 Q 9.427301669296273 119.68500000000134 9.79288232795027 119.92875000000134 Q 10.157919499303103 120.17250000000134 10.51811432280017 120.40500000000134 Q 10.877782044404572 120.63750000000134 11.23267767750082 120.85875000000135 Q 11.587068146626049 121.08000000000135 11.936762200926433 121.29000000000134 Q 12.285977590245473 121.50000000000134 12.626437799012361 121.69687500000136 Q 12.966457984301911 121.89375000000135 13.297821647396518 122.07750000000132 Q 13.628786432678194 122.26125000000131 13.951193631757741 122.43187500000133 Q 14.273244540508724 122.60250000000133 14.586835579168126 122.76000000000133 Q 14.900113386516036 122.91750000000131 15.205026454678835 123.06187500000131 Q 15.509668941298713 123.2062500000013 15.806037997327701 123.33750000000131 Q 16.398086096857398 123.60000000000129 16.95755068795607 123.81000000000128 Q 17.51640482074644 124.02000000000129 18.043263500981038 124.17750000000127 Q 18.56976851393258 124.33500000000126 19.064739885531786 124.44000000000128 Q 19.559550846732108 124.54500000000128 20.023145773143547 124.59750000000128 Q 20.486700117294408 124.65000000000127 20.91920011729441 124.65000000000127 L 20.91920011729441 124.65000000000127 Q 21.30545011729441 124.65000000000127 21.647877208397855 124.59937500000127 Q 21.990266558917284 124.54875000000128 22.288682610544598 124.44750000000128 Q 22.58694941982462 124.34625000000129 22.84094732643591 124.19437500000129 Q 23.094615940676338 124.04250000000127 23.303585327206413 123.84000000000128 Q 23.511985683938793 123.6375000000013 23.675137845972447 123.38437500000128 Q 23.837434307516016 123.13125000000129 23.95383701270788 122.82750000000131 Q 24.18315852537883 122.2200000000013 24.22458748097848 121.41000000000132 Q 24.258799364933317 120.6000000000013 24.15137031881832 119.68125000000131 Q 24.03648830099564 118.7625000000013 23.778455351820792 117.73500000000129 Q 23.513781885200927 116.70750000000129 23.106059223402685 115.5712500000013 Q 22.693970472597076 114.43500000000128 22.14118402731895 113.19000000000129 L 22.14118402731895 113.19000000000129 Q 21.468508521333437 111.6750000000013 20.73033589086683 110.30250000000132 Q 19.999352725507347 108.93000000000133 19.206969690895313 107.70000000000132 Q 18.81476235446177 107.0850000000013 18.40726924739461 106.50562500000132 Q 18.00274371637323 105.92625000000132 17.58270289943979 105.38250000000131 Q 17.16569587345002 104.8387500000013 16.732781719733772 104.33062500000129 Q 16.302850982848135 103.82250000000128 15.856496404509244 103.35000000000129 Q 15.41173301471463 102.87750000000129 14.90773275784554 102.35953125000128 Q 14.407453795566866 101.84156250000129 13.849561763801987 101.2781250000013 Q 13.296454356331353 100.7146875000013 12.687668568103152 100.10578125000129 Q 12.084930751900663 99.4968750000013 11.428787214585103 98.84250000000131 Q 11.103520196975978 98.51531250000131 10.765385891635527 98.17675781250132 Q 10.429337886385657 97.83820312500133 10.080774738064548 97.48828125000132 Q 9.734516817269256 97.13835937500131 9.376119353164233 96.77707031250131 Q 9.020259762565857 96.41578125000132 8.652659764437677 96.04312500000133 Q 8.28784374918131 95.67046875000133 7.911709871574691 95.28644531250133 Q 7.538619116255992 94.90242187500134 7.154656093915256 94.50703125000133 Q 6.774007732488726 94.11164062500134 6.382955131967933 93.70488281250134 Q 5.995500282312057 93.29812500000135 5.59813075226942 92.88000000000135 L 5.59813075226942 92.88000000000135 Q 5.296355258805561 92.54250000000134 5.0006699989959875 92.20289062500134 Q 4.707596414314107 91.86328125000134 4.420720767414475 91.52156250000134 Q 4.136530934730367 91.17984375000133 3.858645146074294 90.83601562500132 Q 3.5835168715228916 90.49218750000132 3.314796856432629 90.14625000000133 Q 2.7858524079608555 89.45437500000133 2.283148661382519 88.75406250000133 Q 1.79226535584628 88.05375000000132 1.3283960153010401 87.34500000000132 Q 0.8768066686200298 86.63625000000131 0.4529518917990867 85.91906250000132 Q 0.04177209528476222 85.20187500000131 -0.3410156421436996 84.47625000000131 Q -0.7108067707548678 83.75062500000132 -1.0516221053312043 83.01656250000131 Q -1.3792013366784204 82.2825000000013 -1.6773055003785906 81.5400000000013 Q -1.9620248501495432 80.79750000000129 -2.2082300844249234 80.01281250000129 Q -2.439773957440746 79.22812500000128 -2.630005101988618 78.4012500000013 Q -2.804420026572096 77.5743750000013 -2.9348412101394503 76.70531250000128 Q -3.0484815260392017 75.83625000000129 -3.1156603627253894 74.92500000000129 Q -3.1653623259995904 74.0137500000013 -3.16645768973933 73.06031250000129 Q -3.149736131364156 72.1068750000013 -3.0827071179690675 71.11125000000129 Q -2.9979714636693275 70.1156250000013 -2.86180331058668 69.0778125000013 Q -2.708587790462576 68.0400000000013 -2.5035283765547796 66.9600000000013 Q -2.2827289833352626 65.8800000000013 -1.9958319732880074 64.72921875000131 Q -1.694585424684412 63.57843750000131 -1.3274862200714876 62.35687500000131 Q -0.9487077267293484 61.13531250000131 -0.5061301429449266 59.84296875000132 Q -0.0560505411048986 58.55062500000132 0.4536341631595834 57.18750000000131 Q 0.9649460336488891 55.824375000001304 1.5292467218108132 54.390468750001304 Q 2.0874781641381936 52.95656250000131 2.689467363927015 51.451875000001316 Q 2.984887852782511 50.699531250001314 3.2890856446383343 49.92949218750132 Q 3.588020803247276 49.15945312500132 3.8940810294384556 48.371718750001314 Q 4.19341903636761 47.58398437500131 4.498073704158628 46.77855468750131 Q 4.794456257650719 45.97312500000131 5.094201955325406 45.15000000000131 L 5.094201955325406 45.15000000000131 Q 5.4215709019438005 44.218125000001315 5.73869508612983 43.30523437500131 Q 6.042012156964775 42.39234375000132 6.334684309102735 41.498437500001316 Q 6.612718753935164 40.604531250001315 6.880036546207491 39.72960937500132 Q 7.132156473191998 38.85468750000132 7.373785139946688 37.998750000001316 Q 7.599903400684029 37.14281250000131 7.816019832104892 36.30585937500132 Q 8.016536378502773 35.46890625000131 8.207770617773372 34.65093750000131 Q 8.383513035776604 33.832968750001314 8.550888768552952 33.03398437500131 Q 8.703052481915352 32.23500000000131 8.847927892755065 31.45500000000131 Q 8.97801731405807 30.67500000000131 9.10202746985212 29.91398437500131 Q 9.211799162590864 29.152968750001307 9.316800873965366 28.410937500001307 Q 9.408209584094756 27.668906250001307 9.49622949691769 26.9458593750013 Q 9.571377718951164 26.222812500001304 9.644564203065894 25.518750000001305 Q 9.705655767716495 24.814687500001305 9.766235001359556 24.129609375001305 Q 9.815533010883811 23.444531250001297 9.865769508533026 22.778437500001296 Q 9.905558803593584 22.112343750001294 9.947720503040077 21.465234375001295 Q 9.980274721514055 20.81812500000129 10.016602632892873 20.19000000000129 Q 10.043918566407191 19.563750000001292 10.074394270055155 18.956718750001293 Q 10.09696429635494 18.349687500001295 10.123998494702242 17.761875000001297 Q 10.14391596889435 17.1740625000013 10.16953525637324 16.6054687500013 Q 10.188791837830102 16.036875000001302 10.214914768380662 15.487500000001305 Q 10.235388540386115 14.938125000001307 10.263815667664534 14.407968750001306 Q 10.287262640727809 13.877812500001308 10.319669746056793 13.36687500000131 Q 10.347718400671688 12.85593750000131 10.385652562229822 12.36421875000131 Q 10.419801082650217 11.872500000001313 10.464679239670494 11.400000000001313 Q 10.50629509411117 10.927500000001313 10.559404767331268 10.474218750001315 Q 10.609726300352376 10.020937500001315 10.672228143162922 9.586875000001315 Q 10.732367861444377 9.152812500001316 10.805299733775698 8.737968750001317 Q 10.876248985755934 8.323125000001315 10.960531263527372 7.9275000000013165 Q 11.043166035332538 7.531875000001317 11.139607891204104 7.155468750001317 Q 11.234695464937595 6.7790625000013165 11.344001880237865 6.421875000001316 Q 11.452208125187141 6.064687500001316 11.574987417470314 5.726718750001316 Q 11.69688450940632 5.388750000001315 11.833656184474235 5.070000000001315 Q 11.97053503172573 4.753125000001315 12.12077047353247 4.456054687501315 Q 12.270471982589426 4.158984375001316 12.4337424830535 3.8817187500013164 Q 12.59660681280527 3.6044531250013168 12.773213577898543 3.346992187501317 Q 12.94951776528059 3.0895312500013175 13.139703761052102 2.8518750000013178 Q 13.32966972949249 2.614218750001318 13.533627456599383 2.396367187501318 Q 13.73742963792792 2.1785156250013187 13.955308480587238 1.980468750001319 Q 14.173080983535304 1.7824218750013192 14.404994074116123 1.6041796875013195 Q 14.636837346619101 1.4259375000013197 14.882867900034055 1.26750000000132 Q 15.128854844599454 1.1090625000013201 15.389061927615812 0.9704296875013203 Q 15.649243439140598 0.8317968750013205 15.923667148832198 0.7129687500013207 Q 16.198077052573325 0.5941406250013208 16.48674308551831 0.49511718750132094 Q 16.775402459592176 0.3960937500013211 17.07832605924808 0.3168750000013212 Q 17.38124693122482 0.2376562500013213 17.698436205355872 0.17824218750132137 Q 18.01562461640111 0.11882812500132145 18.34708321967468 0.0792187500013215 Q 18.678541652459838 0.039609375001321556 19.02427083155799 0.019804687501321583 Q 19.370000000000584 1.3216094885137863e-12 19.730000000000583 1.3216094885137863e-12 L 19.730000000000583 1.3216094885137863e-12 Q 20.045000000000584 1.3216094885137863e-12 20.361888020317004 0.013125000001321496 Q 20.678776037531932 0.026250000001321383 20.99755205025137 0.052500000001321157 Q 21.316328013347047 0.07875000000132093 21.63699181067034 0.11812500000132059 Q 21.95765535677484 0.15750000000132025 22.28020621606438 0.2100000000013198 Q 22.602756281391013 0.26250000000131934 22.92719244417082 0.3281250000013188 Q 23.251626668628777 0.3937500000013182 23.577944633643984 0.47250000000131753 Q 23.904258579595954 0.5512500000013169 24.2324522101795 0.643125000001316 Q 24.5606383956856 0.7350000000013153 24.890697841915426 0.8400000000013144 Q 25.220744589088035 0.9450000000013135 25.55265502557233 1.0631250000013124 Q 25.884545125081367 1.1812500000013113 26.218285305707244 1.3125000000013103 Q 26.551994499045033 1.4437500000013093 26.8875351306919 1.588125000001308 Q 27.223030412554934 1.7325000000013067 27.560332350631633 1.8900000000013053 Q 27.897570094726998 2.047500000001304 28.236582364464645 2.2181250000013026 Q 28.575506277224953 2.388750000001301 28.91616392596849 2.572500000001299 Q 29.256702834082283 2.7562500000012977 29.598924621393472 2.9531250000012963 Q 29.94099010074933 3.1500000000012944 30.284676034982553 3.3600000000012926 Q 30.62734288510935 3.5681250000012925 30.96812076284415 3.780117187501293 Q 31.308667319366783 3.9921093750012924 31.647282454954667 4.207968750001292 Q 31.985631077428682 4.423828125001293 32.32200233082208 4.643554687501293 Q 32.65806945727307 4.863281250001293 32.99210965755863 5.086875000001294 Q 33.65914268806146 5.534062500001295 34.31774196867296 5.996718750001296 Q 34.97461296381039 6.459375000001298 35.622562161195106 6.9375000000013 Q 36.268389448520956 7.415625000001302 36.90474234117651 7.909218750001305 Q 37.538536341698766 8.402812500001307 38.162236496807296 8.911875000001311 Q 38.782896714928306 9.420937500001315 39.3927750720162 9.945468750001318 Q 39.99908823535089 10.470000000001322 40.59386195079019 11.010000000001327 L 40.59386195079019 11.010000000001327 L 41.03009582640899 13.021875000001325 L 41.400240594586116 15.033750000001323 L 41.696362027310975 17.045625000001323 L 41.91144968699362 19.05750000000132 L 42.03950441475545 21.069375000001315 L 42.07561319824583 23.081250000001315 L 42.016010484655325 25.093125000001315 L 41.85812517375636 27.10500000000131 L 41.60061270451144 29.116875000001308 L 41.243371834816934 31.128750000001308 L 40.78754590497608 33.14062500000131 L 40.235508569133394 35.152500000001304 L 39.590834172738084 37.1643750000013 L 38.85825314571748 39.1762500000013 L 38.04359296804114 41.1881250000013 L 37.153705444408786 43.200000000001296 Q 36.92282865041464 42.6337500000013 36.679166133478134 42.0960937500013 Q 36.43036926920307 41.558437500001304 36.16958138521256 41.049375000001305 Q 35.903940196679685 40.540312500001306 35.62716137433989 40.059843750001306 Q 35.34586157694146 39.57937500000131 35.05431398242119 39.12750000000131 Q 34.75861389390827 38.67562500000131 34.4535725667842 38.25234375000131 Q 34.14477000604412 37.829062500001314 33.827532200228276 37.43437500000131 Q 33.50693554558491 37.039687500001314 33.17879411702229 36.67359375000131 Q 32.84769732725533 36.30750000000131 32.509917933221296 35.970000000001306 Q 32.17082926801882 35.6325000000013 31.829197927722987 35.3371875000013 Q 31.485576961280373 35.0418750000013 31.140522501921417 34.7887500000013 Q 30.793988517206607 34.5356250000013 30.446991084456293 34.3246875000013 Q 30.098956512509194 34.113750000001296 29.75127930422266 33.94500000000129 Q 29.40293358019053 33.77625000000129 29.055609360515056 33.64968750000129 Q 28.7079071396682 33.52312500000129 28.361728591596705 33.43875000000129 Q 28.01538144811292 33.35437500000128 27.670894580657645 33.312187500001286 Q 27.32636547789228 33.27000000000129 26.98386547789228 33.27000000000129 L 26.98386547789228 33.27000000000129 Q 26.651365477892277 33.27000000000129 26.335351838071634 33.31406250000129 Q 26.01929212664494 33.35812500000129 25.71953461951481 33.446250000001285 Q 25.419593220342335 33.53437500000129 25.135586912000747 33.6665625000013 Q 24.85116837505249 33.7987500000013 24.582137386438315 33.9750000000013 Q 24.041891196194772 34.3275000000013 23.55859802979176 34.85625000000131 Q 23.068858586496383 35.38500000000131 22.627642680947794 36.090000000001325 Q 22.176813783628333 36.787500000001316 21.77313334844867 37.58062500000131 Q 21.355953135200465 38.37375000000131 20.980104311103275 39.26250000000131 Q 20.588278105981466 40.151250000001305 20.23203286474607 41.1356250000013 Q 19.85771834455261 42.1200000000013 19.513705444408785 43.200000000001296 L 19.513705444408785 43.200000000001296 Q 19.20441132051205 44.122500000001295 18.960531935535442 44.9887500000013 Q 18.705556850457107 45.855000000001304 18.52030783050982 46.665000000001314 Q 18.326605238890412 47.475000000001316 18.206223181674332 48.22875000000131 Q 18.079586418549596 48.98250000000132 18.029192315399893 49.68000000000133 Q 17.968685752268197 50.38500000000133 17.969910077049462 51.121875000001324 Q 17.967153848661052 51.85875000000133 18.026490144152444 52.62750000000132 Q 18.05493777117062 53.011875000001325 18.099029361165098 53.40421875000132 Q 18.14246037612709 53.796562500001315 18.201644920689063 54.19687500000131 Q 18.260313980767908 54.59718750000131 18.334870079021087 55.00546875000131 Q 18.40907375568506 55.413750000001315 18.499323041622343 55.83000000000132 Q 18.586485137834195 56.25000000000132 18.68633574917839 56.69859375000132 Q 18.786227744127615 57.147187500001316 18.899067423991323 57.62437500000131 Q 19.01224288840019 58.1015625000013 19.138745076204394 58.6073437500013 Q 19.265968056278062 59.1131250000013 19.407034388181685 59.6475000000013 Q 19.54930848803106 60.181875000001305 19.70609785238068 60.74484375000131 Q 19.864694884196147 61.307812500001305 20.038651597196395 61.8993750000013 Q 20.215138953105185 62.490937500001294 20.408019121120784 63.111093750001295 Q 20.505709723802457 63.42117187500129 20.607724812095924 63.7383984375013 Q 20.710706179799566 64.0556250000013 20.818179836363374 64.3800000000013 L 20.818179836363374 64.3800000000013 Q 20.927743656239294 64.68937500000129 21.032471540859934 65.0026171875013 Q 21.13829589400928 65.31585937500131 21.239413646751576 65.63296875000131 Q 21.445288863265336 66.26718750000131 21.633158069502116 66.91687500000131 Q 21.826703387823436 67.56656250000131 22.003413965510056 68.2317187500013 Q 22.186726818291557 68.8968750000013 22.354461929646895 69.57750000000131 Q 22.529771194676908 70.25812500000131 22.690838947384186 70.9542187500013 Q 22.860490728503855 71.65031250000129 23.017307925750153 72.3618750000013 Q 23.18374759337086 73.0734375000013 23.33881960871525 73.8004687500013 Q 23.504569882767438 74.5275000000013 23.66046646559954 75.27000000000129 Q 23.828101371362145 76.0125000000013 23.98204217375468 76.7887500000013 Q 24.14940140973448 77.56500000000129 24.305952379002683 78.37500000000131 Q 24.47767243778535 79.1850000000013 24.641621241245986 80.0287500000013 Q 24.822525238135945 80.8725000000013 24.998801543355526 81.75000000000131 Q 25.19381024035594 82.6275000000013 25.387384370640902 83.5387500000013 Q 25.60140509567864 84.45000000000131 25.817163945480154 85.39500000000132 Q 26.054956601350824 86.34000000000131 26.29755640390721 87.3187500000013 Q 26.56357656360645 88.29750000000132 26.83727302232016 89.31000000000131 Q 27.136743126518 90.3225000000013 27.44824214118792 91.39781250000131 Q 27.78640024144424 92.47312500000132 28.141581717840886 93.6112500000013 Q 28.525000315290743 94.74937500000131 28.929760263314932 95.9503125000013 Q 29.363530110496157 97.1512500000013 29.821936334317435 98.4150000000013 Q 30.309046191793314 99.6787500000013 30.822683012886017 101.00531250000131 Q 31.36335064576366 102.3318750000013 31.9306313382822 103.72125000000129 Q 32.52162014843718 105.1106250000013 33.13710876725424 106.56281250000131 Q 33.771077925066734 108.01500000000131 34.42487612104876 109.5300000000013 L 34.42487612104876 109.5300000000013 Z" fill="black" stroke="black" />
				</svg>