<svg
					xmlns="http://www.w3.org/2000/svg" xmlns:xlink="http://www.w3.org/1999/xlink"
					style="
						overflow: visible;
						height: 100;
					"
					viewBox="-1.1291037156516994 0 79.58509474751288 154.23"
				>
					<path d="M 59.260000000000005 0 L 60.096875000000004 0 L 60.93375 0 L 61.77062500000001 0 L 62.60750000000001 0 L 63.44437500000001 0 L 64.28125000000001 0 L 65.11812500000002 0 L 65.95500000000001 0 L 66.791875 0 L 67.62875000000001 0 L 68.46562500000002 0 L 69.30250000000001 0 L 70.139375 0 L 70.97625000000001 0 L 71.81312500000001 0 L 72.65 0 L 73.5198762404195 2.40984375 L 74.37064109463937 4.8196875 L 75.1835252158811 7.229531249999999 L 75.94043721467656 9.639375 L 76.62428744325047 12.049218749999998 L 77.21929385157786 14.459062499999998 L 77.71126444116315 16.868906250000002 L 78.08785126142227 19.27875 L 78.33877140285536 21.688593749999995 L 78.45599103186119 24.098437499999996 L 78.43386917349409 26.50828125 L 78.26925866886099 28.918124999999996 L 77.96156250030872 31.327968749999997 L 77.5127444763408 33.737812500000004 L 76.92729408503436 36.14765625 L 76.2121461449808 38.5575 L 75.37655669176976 40.96734375 L 74.4319373212951 43.37718749999999 L 73.39165095466626 45.78703124999999 L 72.27077267995185 48.19687499999999 L 71.08581995100745 50.60671875 L 69.8544569720609 53.0165625 L 68.59517855872976 55.42640624999999 L 67.32697913345856 57.83624999999999 L 66.06901277941608 60.24609375 L 64.84025043691982 62.65593749999999 L 63.65914037759629 65.06578125 L 62.54327803282358 67.47562500000001 L 61.50909108558683 69.88546875 L 60.57154546170669 72.2953125 L 59.74387748236075 74.70515625 L 59.03735697160551 77.115 L 58.46108555860019 79.52484374999999 L 58.021833784348296 81.9346875 L 57.72391992828298 84.34453124999999 L 57.569132723355104 86.75437499999998 L 57.556699342804244 89.16421874999997 L 57.68329923155823 91.57406249999998 L 57.943123534718474 93.98390624999999 L 58.32797905953046 96.39374999999998 L 58.82743491021585 98.80359374999998 L 59.42900917132023 101.2134375 L 60.1183922984757 103.62328125 L 60.87970321851951 106.033125 L 61.695773555505575 108.44296874999999 L 62.548454895771954 110.85281249999998 L 63.418943592894394 113.26265624999998 L 64.28811729944132 115.67249999999999 L 65.13687720256998 118.08234375 L 65.94648983842022 120.4921875 L 66.69892236780164 122.90203125 L 67.37716531269274 125.31187499999999 L 67.9655369774879 127.72171874999998 L 68.44996410671806 130.1315625 L 68.81823375627052 132.54140625000002 L 69.06021187033002 134.95125000000002 L 69.16802465213601 137.36109375 L 69.13619948253542 139.7709375 L 68.96176286429026 142.18078125 L 68.64429363921552 144.590625 L 68.18593052571194 147.00046875 L 67.59133384179367 149.4103125 L 66.86760209865912 151.82015625 L 66.02414495754324 154.23 L 65.51101995754324 154.23 L 64.99789495754324 154.23 L 64.48476995754324 154.23 L 63.97164495754324 154.23 L 63.458519957543245 154.23 L 62.94539495754324 154.23 L 62.43226995754324 154.23 L 61.91914495754324 154.23 L 61.406019957543236 154.23 L 60.89289495754324 154.23 L 60.379769957543246 154.23 L 59.866644957543244 154.23 L 59.35351995754324 154.23 L 58.84039495754324 154.23 L 58.32726995754324 154.23 L 57.81414495754324 154.23 L 57.30101995754325 154.23 L 56.787894957543244 154.23 L 56.27476995754324 154.23 L 55.76164495754324 154.23 L 55.24851995754324 154.23 L 54.73539495754324 154.23 L 54.22226995754325 154.23 L 53.709144957543245 154.23 L 53.19601995754324 154.23 L 52.68289495754324 154.23 L 52.16976995754324 154.23 L 51.65664495754324 154.23 L 51.14351995754325 154.23 L 50.630394957543245 154.23 L 50.11726995754324 154.23 L 49.60414495754324 154.23 L 50.019764768796776 152.13093750000002 L 50.345558014599746 150.03187499999999 L 50.57501928163722 147.93281249999998 L 50.702951687523715 145.83375 L 50.7255374729516 143.7346875 L 50.64038986044243 141.635625 L 50.446585475275 139.5365625 L 50.144676888198575 137.4375 L 49.736685109556525 135.3384375 L 49.226072136777105 133.239375 L 48.61769392813384 131.1403125 L 47.917734441559276 129.04125 L 47.13362163449958 126.94218749999999 L 46.273926565830855 124.84312499999999 L 45.34824697039182 122.7440625 L 44.3670768876051 120.64499999999998 L 43.34166411509406 118.54593749999998 L 42.28385742358206 116.44687499999999 L 41.20594560843929 114.34781249999997 L 40.12049056412983 112.24874999999997 L 39.040156649001524 110.14968749999998 L 37.97753865825179 108.05062499999997 L 36.94499074180851 105.95156249999997 L 35.954458591029734 103.85249999999998 L 35.01731717372347 101.75343749999999 L 34.14421622162363 99.65437499999999 L 33.34493556915136 97.55531249999997 L 32.628252308476235 95.45624999999998 L 32.00182156538407 93.35718749999998 L 31.472072515439002 91.25812499999998 L 31.04412105291048 89.15906249999999 L 30.72170029873157 87.05999999999999 Q 30.60965416737836 86.08499999999998 30.484082234004713 84.46499999999997 Q 30.445586410270153 83.65499999999999 30.422057264982342 82.68374999999997 Q 30.421650220126217 81.71249999999999 30.4512327842697 80.58 Q 30.51159749616696 79.44749999999999 30.60901722320331 78.23249999999999 Q 30.740457999893376 77.01749999999998 30.91640171679943 75.71999999999998 Q 31.128694455748914 74.42249999999999 31.39179589880181 73.04249999999998 Q 31.692185058182567 71.66249999999998 32.047870726528224 70.19999999999997 Q 32.434761645847345 68.74499999999998 32.85645546059397 67.30312499999998 Q 33.30701157792432 65.86124999999998 33.78453463513253 64.43249999999999 Q 34.28342347824871 63.00375 34.80126164666378 61.588125000000005 Q 35.33276578202794 60.1725 35.875245209957974 58.77000000000001 Q 36.42952998347472 57.36 36.94500632004108 56.060625 Q 37.45935297112105 54.76124999999999 37.929222569054474 53.57249999999999 Q 38.3933513662148 52.38375 38.81055451838935 51.305625 Q 39.219518080981295 50.2275 39.5816058695621 49.260000000000005 L 39.5816058695621 49.260000000000005 Q 39.14701808098129 50.2275 38.645554518389346 51.305625 Q 38.13585136621481 52.38375 37.55922256905448 53.57249999999999 Q 36.976852971121055 54.76124999999999 36.330006320041086 56.060625 Q 35.68202998347473 57.36 34.975245209957976 58.77000000000001 Q 34.28026578202794 60.1725 33.586886646663785 61.588125000000005 Q 32.90717347824871 63.00375 32.23703463513253 64.43249999999999 Q 31.588261577924325 65.86124999999998 30.95708046059397 67.30312499999998 Q 30.354761645847347 68.74499999999998 29.77787072652822 70.19999999999997 Q 29.234685058182556 71.66249999999998 28.7555458988018 73.04249999999998 Q 28.31369445574891 74.42249999999999 27.93140171679943 75.71999999999998 Q 27.585457999893375 77.01749999999998 27.292767223203306 78.23249999999999 Q 27.03409749616696 79.44749999999999 26.821232784269696 80.58 Q 26.636650220126214 81.71249999999999 26.50330726498234 82.68374999999997 Q 26.39308641027015 83.65499999999999 26.319082234004714 84.46499999999997 Q 26.21965416737836 86.08499999999998 26.19170029873157 87.05999999999999 L 26.19170029873157 87.05999999999999 L 26.205683552910482 89.15906249999999 L 26.325197515439008 91.25812499999998 L 26.54650906538407 93.35718749999998 L 26.864502308476236 95.45624999999998 L 27.272748069151355 97.55531249999997 L 27.76359122162363 99.65437499999999 L 28.328254673723475 101.75343749999999 L 28.95695859102973 103.85249999999998 L 29.639053241808508 105.95156249999997 L 30.363163658251782 108.05062499999997 L 31.117344149001525 110.14968749999998 L 31.889240564129828 112.24874999999997 L 32.66625810843929 114.34781249999997 L 33.43573242358206 116.44687499999999 L 34.18510161509406 118.54593749999998 L 34.902076887605105 120.64499999999998 L 35.57480947039182 122.7440625 L 36.19205156583086 124.84312499999999 L 36.74330913449959 126.94218749999999 L 37.21898444155928 129.04125 L 37.61050642813384 131.1403125 L 37.9104471367771 133.239375 L 38.11262260955652 135.3384375 L 38.21217688819857 137.4375 L 38.205647975275 139.5365625 L 38.09101486044243 141.635625 L 37.86772497295159 143.7346875 L 37.5367016875237 145.83375 L 37.10033178163721 147.93281249999998 L 36.56243301459974 150.03187499999999 L 35.92820226879677 152.13093750000002 L 35.204144957543235 154.23 L 34.69101995754323 154.23 L 34.17789495754324 154.23 L 33.664769957543236 154.23 L 33.15164495754323 154.23 L 32.63851995754324 154.23 L 32.125394957543236 154.23 L 31.612269957543234 154.23 L 31.09914495754324 154.23 L 30.586019957543236 154.23 L 30.072894957543234 154.23 L 29.55976995754324 154.23 L 29.046644957543236 154.23 L 28.533519957543234 154.23 L 28.02039495754324 154.23 L 27.507269957543237 154.23 L 26.994144957543234 154.23 L 26.48101995754324 154.23 L 25.967894957543237 154.23 L 25.454769957543235 154.23 L 24.94164495754324 154.23 L 24.428519957543237 154.23 L 23.915394957543235 154.23 L 23.40226995754324 154.23 L 22.889144957543238 154.23 L 22.376019957543235 154.23 L 21.862894957543237 154.23 L 21.349769957543238 154.23 L 20.836644957543236 154.23 L 20.323519957543237 154.23 L 19.810394957543238 154.23 L 19.297269957543236 154.23 L 18.784144957543237 154.23 L 19.230570848659116 151.82015625 L 19.557271341793662 149.4103125 L 19.754836775711937 147.00046875 L 19.816168639215512 144.590625 L 19.73660661429027 142.18078125 L 19.514011982535422 139.7709375 L 19.14880590213601 137.36109375 L 18.64396187033002 134.95125000000002 L 18.004952506270513 132.54140625000002 L 17.23965160671806 130.1315625 L 16.358193227487895 127.72171874999998 L 15.372790312692729 125.31187499999999 L 14.297516117801635 122.90203125 L 13.14805233842022 120.4921875 L 11.941408452569965 118.08234375 L 10.695617299441329 115.67249999999999 L 9.4294123428944 113.26265624999998 L 8.161892395771961 110.85281249999998 L 6.912179805505576 108.44296874999999 L 5.699078218519514 106.033125 L 4.540736048475697 103.62328125 L 3.454321671320227 101.2134375 L 2.455716160215844 98.80359374999998 L 1.5592290595304643 96.39374999999998 L 0.7773422847184861 93.98390624999999 L 0.12048673155823941 91.57406249999998 L -0.4031444071957493 89.16421874999997 L -0.7877422766448916 86.75437499999998 L -1.029986321717014 84.34453124999999 L -1.1291037156516994 81.9346875 L -1.086883191399811 79.52484374999999 L -0.9076430283944843 77.115 L -0.5981537676392481 74.70515625 L -0.16751703829330733 72.2953125 L 0.37299733558682746 69.88546875 L 1.010153032823574 67.47562500000001 L 1.728984127596283 65.06578125 L 2.513062936919806 62.65593749999999 L 3.344794029416083 60.24609375 L 4.2057291334585605 57.83624999999999 L 5.07689730872975 55.42640624999999 L 5.939144472060895 53.0165625 L 6.773476201007433 50.60671875 L 7.561397679951843 48.19687499999999 L 8.28524470466625 45.78703124999999 L 8.92849982129508 43.37718749999999 L 9.476087941769752 40.96734375 L 9.914646144980809 38.5575 L 10.232762835034373 36.14765625 L 10.421181976340812 33.737812500000004 L 10.472968750308727 31.327968749999997 L 10.383633668860998 28.918124999999996 L 10.151212923494093 26.50828125 L 9.776303531861195 24.098437499999996 L 9.262052652855363 21.688593749999995 L 8.61410126142228 19.27875 L 7.840483191163148 16.868906250000002 L 6.951481351577854 14.459062499999998 L 5.9594436932504715 12.049218749999998 L 4.878562214676566 9.639375 L 3.7246189658811066 7.229531249999999 L 2.514703594639357 4.8196875 L 1.266907490419508 2.40984375 L 0 0 L 0.836875 0 L 1.67375 0 L 2.510625 0 L 3.3475 0 L 4.184375 0 L 5.02125 0 L 5.858125 0 L 6.695 0 L 7.531875 0 L 8.36875 0 L 9.205625000000001 0 L 10.0425 0 L 10.879375 0 L 11.71625 0 L 12.553125000000001 0 L 13.39 0 L 14.636566944567576 2.416875 L 15.863855234636103 4.83375 L 17.052933262081154 7.250625 L 18.18555726414207 9.6675 L 19.244499740103002 12.084375000000001 L 20.213859573644434 14.50125 L 21.07934827817068 16.918125 L 21.82854721224328 19.335 L 22.451131134834238 21.751875000000002 L 22.93905407604985 24.168750000000003 L 23.286694177357077 26.585625000000004 L 23.49095489395856 29.0025 L 23.55132073751294 31.419375 L 23.46986655574305 33.83625 L 23.251220181884275 36.253125000000004 L 22.90247912634233 38.67 L 22.43308281024281 41.086875 L 21.854642640871294 43.503750000000004 L 21.180732987915924 45.920625 L 20.426646823271554 48.337500000000006 L 19.60912042327697 50.75437500000001 L 18.74603208918172 53.17125000000001 L 17.856080309352194 55.588125000000005 L 16.958447156808074 58.005 L 16.072452981467624 60.421875 L 15.21720861318934 62.83875 L 14.411271336507173 65.255625 L 13.672310830060049 67.6725 L 13.01679108433604 70.08937500000002 L 12.459674023716573 72.50625000000001 L 12.014150168094206 74.923125 L 11.691401182582325 77.34 Q 11.62423273439737 78.0375 11.554669361062135 78.8925 Q 11.502181925080553 79.74749999999999 11.460438399968861 80.75999999999999 Q 11.443358760873991 81.77249999999998 11.452993163267578 82.94249999999998 Q 11.496231445055697 84.11249999999997 11.584699378948578 85.43999999999997 Q 11.716275843605827 86.75999999999999 11.897034463169708 88.12875 Q 12.12325192875357 89.4975 12.403821497760449 90.91499999999999 Q 12.73116498427348 92.3325 13.116678385741903 93.79875 Q 13.327039367015159 94.53187499999999 13.552381072693567 95.27718749999998 Q 13.789187984150871 96.02249999999998 14.041101679326093 96.77999999999997 Q 14.303087469993624 97.53374999999997 14.573703324676854 98.28281249999999 Q 14.854475728533101 99.03187499999999 15.14284043713656 99.77625 Q 15.440429600318225 100.520625 15.744543694171872 101.26031250000001 Q 16.056914066045533 102 16.37472186045092 102.73500000000001 Q 17.031657143805383 104.20500000000001 17.70374475967254 105.65625000000003 Q 18.396711725970118 107.10750000000002 19.096088138983408 108.54000000000002 Q 19.80814964447036 109.97250000000003 20.464615164823314 111.290625 Q 21.12537754000236 112.60875000000001 21.722767256941847 113.8125 Q 22.318736363865213 115.01624999999999 22.847052078678807 116.10562499999997 Q 23.370494857519333 117.19499999999996 23.824793703809366 118.16999999999996 L 23.824793703809366 118.16999999999996 Q 23.513109327584633 117.35999999999997 23.187141962832015 116.51953124999996 Q 22.85787909266684 115.67906249999994 22.515456642106027 114.80812499999995 Q 22.17125712275802 113.93718749999995 21.81545509588397 113.03578124999996 Q 21.4597216620802 112.13437499999995 21.0944053917122 111.20249999999996 Q 20.731341595978087 110.27062499999998 20.361197794601328 109.30828124999996 Q 19.99583091559265 108.34593749999996 19.626379782360356 107.35312499999998 Q 19.26456227065465 106.36031249999998 18.90214558431215 105.33703124999998 Q 18.550530448881535 104.31374999999997 18.202271014822692 103.25999999999996 Q 17.86700657594958 102.20624999999995 17.54871545475405 101.15109374999997 Q 17.247354020755843 100.09593749999996 16.965592611073667 99.03937499999996 Q 16.703230060147455 97.98281249999997 16.462866764190718 96.92484374999998 Q 16.244119758419476 95.86687499999996 16.04950832612509 94.80749999999996 Q 15.878445726275146 93.74812499999996 15.733359915036164 92.68734374999997 Q 15.613441020401275 91.62656249999998 15.521016579382483 90.56437499999998 Q 15.455037160013973 89.50218749999999 15.417722062087886 88.43859374999998 Q 15.407769057293219 87.37499999999997 15.42728280081219 86.30999999999999 Q 15.474659553263457 85.24125 15.549301779946973 84.19125 Q 15.651141750479852 83.14124999999999 15.778196969655383 82.10999999999999 Q 15.9312060712655 81.07874999999999 16.107094921476637 80.06625 Q 16.30741110667843 79.05375000000001 16.52805747581713 78.06 Q 16.77138082785254 77.06625 17.032338388393196 76.09125 Q 17.314055094532815 75.11625000000001 17.610626611109033 74.16 Q 17.92592474239655 73.20374999999999 18.25327235106591 72.26624999999999 Q 18.59724788074463 71.32874999999999 18.95049302801445 70.41 Q 19.316991035060198 69.495 19.68040723730909 68.61984375 Q 20.05557383708854 67.7446875 20.424078920264712 66.90937500000001 Q 20.801960279104758 66.0740625 21.170049726165214 65.27859375 Q 21.545421953516605 64.483125 21.90832065918506 63.7275 Q 22.64998994224251 62.21625 23.328982253883176 60.864375 Q 24.018685427487657 59.512499999999996 24.634011250039137 58.31999999999999 L 24.634011250039137 58.31999999999999 L 25.584303698090935 56.49749999999999 L 26.534363212425763 54.675 L 27.475908513668994 52.8525 L 28.400745531892696 51.029999999999994 L 29.300851336897452 49.20749999999999 L 30.168456315542915 47.38499999999999 L 30.99612375440047 45.56249999999999 L 31.776826012578123 43.739999999999995 L 32.50401650449416 41.9175 L 33.17169675529379 40.095 L 33.77447784207306 38.272499999999994 L 34.307635591579434 36.449999999999996 L 34.7671589690095 34.6275 L 35.149791162266844 32.80499999999999 L 35.45306294086178 30.982499999999995 L 35.67531794776419 29.159999999999997 L 35.815729665149966 27.3375 L 35.87430988026402 25.514999999999997 L 35.85190856468585 23.692499999999995 L 35.75020516823413 21.869999999999997 L 35.57169141668537 20.0475 L 35.3196457895061 18.224999999999998 L 34.998099939018466 16.402499999999996 L 34.611797394961144 14.579999999999998 L 34.166144977426754 12.757499999999999 L 33.66715741584389 10.934999999999999 L 33.121395741260734 9.112499999999999 L 32.53590008296624 7.289999999999999 L 31.918117557800297 5.467499999999999 L 31.27582599076859 3.6449999999999996 L 30.61705424827748 1.8224999999999998 L 29.950000000000003 0 L 30.755625000000002 0 L 31.56125 0 L 32.366875 0 L 33.1725 0 L 33.978125 0 L 34.78375 0 L 35.589375000000004 0 L 36.395 0 L 37.200625 0 L 38.00625000000001 0 L 38.81187500000001 0 L 39.61750000000001 0 L 40.423125000000006 0 L 41.228750000000005 0 L 42.034375000000004 0 L 42.84 0 L 43.78580424827747 1.8224999999999998 L 44.723325990768586 3.6449999999999996 L 45.644367557800294 5.467499999999999 L 46.540900082966246 7.289999999999999 L 47.40514574126073 9.112499999999999 L 48.22965741584389 10.934999999999999 L 49.007394977426756 12.757499999999999 L 49.73179739496114 14.579999999999998 L 50.39684993901846 16.402499999999996 L 50.99714578950609 18.224999999999998 L 51.527941416685366 20.0475 L 51.98520516823413 21.869999999999997 L 52.36565856468585 23.692499999999995 L 52.666809880264026 25.514999999999997 L 52.886979665149966 27.3375 L 53.025317947764194 29.159999999999997 L 53.08181294086178 30.982499999999995 L 53.05729116226684 32.80499999999999 L 52.9534089690095 34.6275 L 52.772635591579444 36.449999999999996 L 52.51822784207307 38.272499999999994 L 52.194196755293795 40.095 L 51.80526650449417 41.9175 L 51.356826012578125 43.739999999999995 L 50.85487375440047 45.56249999999999 L 50.30595631554292 47.38499999999999 L 49.71710133689746 49.20749999999999 L 49.0957455318927 51.029999999999994 L 48.449658513669 52.8525 L 47.786863212425764 54.675 L 47.11555369809094 56.49749999999999 L 46.44401125003914 58.31999999999999 Q 46.03499865262278 59.4525 45.56279313991281 60.768750000000004 Q 45.10052086219882 62.085 44.586780228616284 63.585 Q 44.33757713140266 64.33500000000001 44.07885647969406 65.1309375 Q 43.827313448407565 65.926875 43.56914057125421 66.76875000000001 Q 43.32037688974303 67.610625 43.068417903258705 68.4984375 Q 42.82844847108633 69.38624999999999 42.589276892844865 70.32 Q 42.36615301820598 71.25 42.153836759773895 72.19875 Q 41.95849614766894 73.14750000000001 41.77681423038278 74.115 Q 41.61426972529312 75.0825 41.468256860595524 76.06875000000001 Q 41.343470830109084 77.055 41.238057475817136 78.06 Q 41.15583731767132 79.065 41.09573896648477 80.08875 Q 41.06062207590967 81.1125 41.05021864341583 82.155 Q 41.06634827697706 83.19749999999999 41.10955529445021 84.25874999999999 Q 41.18054927988652 85.32 41.280683129313275 86.39999999999999 Q 41.40824791364504 87.47999999999999 41.56305299477387 88.55671874999999 Q 41.7458613701072 89.63343749999999 41.95486474721113 90.706875 Q 42.19080466695629 91.78031250000001 42.45152228820956 92.85046875 Q 42.737744047985665 93.92062500000002 43.04698232611653 94.98750000000001 Q 43.379954784992236 96.05437500000002 43.73387103299985 97.11796875000002 Q 44.109446129630925 98.18156250000004 44.50361668339859 99.24187500000004 Q 44.91710103994146 100.30218750000003 45.34659583028801 101.35921875000004 Q 45.79282817834099 102.41625000000002 46.25229046730379 103.47000000000003 Q 46.72447359295872 104.52375 47.19114468584917 105.54374999999999 Q 47.66827953172042 106.56374999999998 48.13586046236507 107.54999999999998 Q 48.61072465006597 108.53624999999998 49.07253080557187 109.48874999999997 Q 49.53879686054757 110.44124999999997 49.989049188236905 111.35999999999997 Q 50.44130960084635 112.27874999999997 50.87514247558885 113.16374999999995 Q 51.30890401030671 114.04874999999996 51.72234561753658 114.89999999999995 Q 52.13399870202768 115.75124999999994 52.523929622769536 116.56874999999994 Q 52.91069838012684 117.38624999999995 53.274793703809365 118.16999999999996 L 53.274793703809365 118.16999999999996 Q 52.74524814947643 116.81999999999996 52.153303210043376 115.30687499999996 Q 51.85444148137826 114.55031249999996 51.541015614472045 113.75296874999998 Q 51.22701819318154 112.95562499999997 50.89973258116395 112.11749999999998 Q 50.57339048732889 111.279375 50.23555936412732 110.40046875 Q 49.90057469865217 109.5215625 49.556473210934776 108.60187499999998 Q 49.21753242238914 107.68218749999997 48.872459410323756 106.72171874999998 Q 48.535284793309884 105.76124999999996 48.19559958075654 104.75999999999996 Q 47.86716864993057 103.76249999999997 47.55281798869473 102.76968749999996 Q 47.251674291944234 101.77687499999995 46.966615054235426 100.78874999999995 Q 46.69678251647353 99.80062499999995 46.44479631793361 98.81718749999996 Q 46.20982535577432 97.83374999999995 45.994205983423534 96.85499999999996 Q 45.7971446970759 95.87624999999997 45.620673162777365 94.90218749999997 Q 45.46404608239159 93.92812499999997 45.32897318373279 92.95874999999998 Q 45.21476748344848 91.98937499999997 45.12280373591793 91.02468749999997 Q 45.05246273244976 90.05999999999997 45.00477544478543 89.09999999999997 Q 44.978254674382924 88.14374999999995 44.974095468139474 87.24609374999997 Q 44.98964814445644 86.34843749999997 45.02269044812897 85.50937499999998 Q 45.0731003251332 84.67031249999997 45.136216758040334 83.88984374999997 Q 45.21435091447282 83.10937499999997 45.30061881769258 82.38749999999997 Q 45.51131712982684 80.94374999999998 45.72943209625853 79.73437499999997 Q 45.982213796472614 78.52499999999998 46.21420735952182 77.54999999999998 L 46.21420735952182 77.54999999999998 L 46.880765158696974 75.12656249999998 L 47.67161191751036 72.70312499999997 L 48.57565212628168 70.2796875 L 49.5797415496653 67.85624999999999 L 50.66892512851043 65.43281249999998 L 51.8267076564199 63.00937499999999 L 53.03535233194296 60.585937499999986 L 54.27620178280744 58.16249999999999 L 55.5300157518674 55.73906249999999 L 56.77731933287686 53.31562499999998 L 57.99875545325506 50.89218749999999 L 59.17543522414135 48.468749999999986 L 60.28927981663814 46.04531249999999 L 61.32334767651081 43.62187499999999 L 62.262141154977584 41.1984375 L 63.091887005777416 38.77499999999999 L 63.800785671706585 36.351562499999986 L 64.37922484870471 33.928124999999994 L 64.81995346212317 31.504687499999996 L 65.11821290632189 29.081249999999994 L 65.27182317224575 26.65781249999999 L 65.281222304129 24.234374999999993 L 65.14945847118793 21.810937499999994 L 64.88213479779861 19.387499999999996 L 64.48730795069687 16.964062499999997 L 63.97534231870395 14.540624999999997 L 63.358722424227444 12.117187499999996 L 62.65182696176369 9.693749999999998 L 61.87066855315335 7.270312499999998 L 61.03260392984602 4.846874999999999 L 60.15601978768062 2.4234374999999995 L 59.260000000000005 0 L 59.260000000000005 0 Z" fill="black" stroke="black" />
				</svg>