<svg
					xmlns="http://www.w3.org/2000/svg" xmlns:xlink="http://www.w3.org/1999/xlink"
					style="
						overflow: visible;
						height: 100;
					"
					viewBox="0.5 0 47.529377335969905 154.23"
				>
					<path d="M 43.24439786615474 120.54000000000002 L 44.077445062436496 122.64562500000002 L 44.85516964278568 124.75125000000003 L 45.56694125704405 126.85687500000003 L 46.20303103501326 128.9625 L 46.75474456578907 131.068125 L 47.214540737559695 133.17374999999998 L 47.576134813503316 135.27937500000002 L 47.83458433488897 137.385 L 47.98635667721183 139.49062500000002 L 48.029377335969905 141.59625 L 47.963058282086855 143.70187500000003 L 47.78830599940382 145.8075 L 47.50750909437969 147.91312499999998 L 47.12450564735703 150.01874999999998 L 46.64453075165364 152.124375 L 46.07414495754324 154.23 L 45.448676207543244 154.23 L 44.82320745754324 154.23 L 44.19773870754324 154.23 L 43.57226995754324 154.23 L 42.946801207543245 154.23 L 42.32133245754324 154.23 L 41.69586370754324 154.23 L 41.07039495754324 154.23 L 40.44492620754325 154.23 L 39.819457457543244 154.23 L 39.19398870754324 154.23 L 38.568519957543245 154.23 L 37.94305120754324 154.23 L 37.31758245754324 154.23 L 36.69211370754324 154.23 L 36.06664495754324 154.23 L 35.441176207543236 154.23 L 34.81570745754324 154.23 L 34.19023870754324 154.23 L 33.56476995754324 154.23 L 32.93930120754324 154.23 L 32.31383245754324 154.23 L 31.68836370754324 154.23 L 31.062894957543236 154.23 L 30.43742620754324 154.23 L 29.811957457543237 154.23 L 29.186488707543234 154.23 L 28.561019957543238 154.23 L 27.935551207543234 154.23 L 27.31008245754324 154.23 L 26.684613707543235 154.23 L 26.05914495754324 154.23 L 25.433676207543236 154.23 L 24.80820745754324 154.23 L 24.182738707543237 154.23 L 23.55726995754324 154.23 L 22.931801207543238 154.23 L 22.306332457543242 154.23 L 21.68086370754324 154.23 L 21.055394957543236 154.23 L 20.42992620754324 154.23 L 19.804457457543236 154.23 L 19.17898870754324 154.23 L 18.553519957543237 154.23 L 17.928051207543234 154.23 L 17.302582457543238 154.23 L 16.677113707543235 154.23 L 16.05164495754324 154.23 L 15.426176207543238 154.23 L 14.800707457543238 154.23 L 14.175238707543238 154.23 L 13.549769957543237 154.23 L 12.924301207543238 154.23 L 12.298832457543238 154.23 L 11.673363707543237 154.23 L 11.047894957543237 154.23 L 10.422426207543237 154.23 L 9.796957457543236 154.23 L 9.171488707543237 154.23 L 8.546019957543237 154.23 L 7.920551207543237 154.23 L 7.295082457543237 154.23 L 6.6696137075432365 154.23 L 6.044144957543237 154.23 L 6.48732641890156 152.62312500000002 L 6.878842873410213 151.01624999999999 L 7.215576287691838 149.40937499999998 L 7.4948449199884255 147.8025 L 7.714424677527579 146.195625 L 7.8725668291765105 144.58875 L 7.968011932320404 142.981875 L 7.999999863051611 141.375 L 7.968275869789346 139.768125 L 7.873092602118866 138.16125 L 7.715208098692557 136.554375 L 7.495879750217202 134.9475 L 7.216854285606163 133.34062500000002 L 6.8803538610466655 131.73375000000001 L 6.489058362768753 130.12687499999998 L 6.046084064456434 128.52 L 5.942509225809452 127.03828125000001 L 5.801043919247684 125.5565625 L 5.62500066160141 124.07484375000001 L 5.417926144709944 122.59312500000001 L 5.183577215878316 121.11140625 L 4.92589543508142 119.62968750000002 L 4.648980381223751 118.14796875000002 L 4.357061888235119 116.66625 L 4.0544713990297785 115.18453124999999 L 3.7456126313309666 113.7028125 L 3.4349317540230793 112.22109375000001 L 3.1268872760083286 110.739375 L 2.8259198514922943 109.25765625 L 2.536422206188121 107.77593750000001 L 2.2627093881106606 106.29421875 L 2.0089895444335992 104.8125 L 1.7793354223194884 103.33078125 L 1.5776567867301745 101.84906249999999 L 1.4076739420144868 100.36734375 L 1.27289253659508 98.885625 L 1.1765798213868024 97.40390624999999 L 1.121742522733328 95.92218749999999 L 1.1111064797151675 94.44046875000001 L 1.1470981837327914 92.95875 L 1.231828345385889 91.47703124999998 L 1.3670775999400444 89.9953125 L 1.554284448188862 88.51359375 L 1.794535514380608 87.03187499999999 L 2.0885581871863623 85.55015624999999 L 2.4367156935478587 84.06843749999999 L 2.8390046387667587 82.58671874999999 L 3.2950550294948506 81.10499999999999 L 3.8041327794694233 79.62328124999999 L 4.365144681024078 78.14156249999999 L 4.9766458087059675 76.65984375 L 5.636849304859408 75.178125 L 6.343638480904116 73.69640624999998 L 7.0945811523536895 72.21468749999998 L 7.886946110492106 70.73296875 L 8.717721619155796 69.25124999999998 L 9.583635811354046 67.76953124999997 L 10.481178847594132 66.28781249999999 L 11.406626685846557 64.80609374999999 L 12.35606630217115 63.32437499999998 L 13.32542219120039 61.842656249999976 L 14.310483967008649 60.36093749999998 L 15.30693487744377 58.879218749999986 L 16.310381038811084 57.39749999999998 L 17.316381192921508 55.915781249999974 L 18.32047678497772 54.43406249999998 L 19.31822215859952 52.95234374999998 L 20.305214663496226 51.47062499999998 L 21.277124471885458 49.98890624999997 L 22.229723901730324 48.50718749999997 L 23.158916048206834 47.02546874999997 L 24.060762529498334 45.543749999999974 L 24.931510159012035 44.062031249999976 L 25.76761636338316 42.58031249999998 L 26.565773174126363 41.09859374999997 L 27.3229296304539 39.61687499999997 L 28.036312441540062 38.13515624999997 L 28.7034447682993 36.65343749999997 L 29.32216299748059 35.17171874999997 L 29.890631394477587 33.68999999999997 L 29.210943894477587 33.68999999999997 L 28.531256394477587 33.68999999999997 L 27.851568894477587 33.68999999999997 L 27.171881394477587 33.68999999999997 L 26.492193894477587 33.68999999999997 L 25.812506394477587 33.68999999999997 L 25.132818894477587 33.68999999999997 L 24.453131394477587 33.68999999999997 L 23.773443894477587 33.68999999999997 L 23.093756394477587 33.68999999999997 L 22.414068894477587 33.68999999999997 L 21.734381394477587 33.68999999999997 L 21.054693894477587 33.68999999999997 L 20.375006394477587 33.68999999999997 L 19.695318894477587 33.68999999999997 L 19.015631394477587 33.68999999999997 L 18.335943894477587 33.68999999999997 L 17.656256394477587 33.68999999999997 L 16.976568894477587 33.68999999999997 L 16.296881394477587 33.68999999999997 L 15.617193894477587 33.68999999999997 L 14.937506394477587 33.68999999999997 L 14.257818894477587 33.68999999999997 L 13.578131394477587 33.68999999999997 L 12.898443894477587 33.68999999999997 L 12.218756394477587 33.68999999999997 L 11.539068894477587 33.68999999999997 L 10.859381394477587 33.68999999999997 L 10.179693894477587 33.68999999999997 L 9.500006394477587 33.68999999999997 L 8.820318894477587 33.68999999999997 L 8.140631394477587 33.68999999999997 L 8.365116889401477 31.584374999999973 L 8.482097814349768 29.478749999999973 L 8.48997521228103 27.373124999999973 L 8.388641410761528 25.267499999999977 L 8.179481493688872 23.16187499999998 L 7.865354369234072 21.05624999999998 L 7.450553692775302 18.95062499999998 L 6.940749178949406 16.844999999999985 L 6.342909104998938 14.739374999999987 L 5.6652050646799745 12.633749999999988 L 4.916900274604514 10.52812499999999 L 4.1082229597053805 8.422499999999992 L 3.2502265484579222 6.316874999999994 L 2.3546385887840353 4.211249999999996 L 1.4337004497356924 2.105624999999998 L 0.5 0 L 1.10875 0 L 1.7174999999999998 0 L 2.32625 0 L 2.9349999999999996 0 L 3.5437499999999997 0 L 4.1525 0 L 4.7612499999999995 0 L 5.369999999999999 0 L 5.978749999999999 0 L 6.587499999999999 0 L 7.196249999999999 0 L 7.804999999999999 0 L 8.413749999999999 0 L 9.022499999999999 0 L 9.631249999999998 0 L 10.239999999999998 0 L 10.848749999999999 0 L 11.457499999999998 0 L 12.066249999999997 0 L 12.674999999999997 0 L 13.283749999999998 0 L 13.892499999999998 0 L 14.501249999999999 0 L 15.109999999999998 0 L 15.718749999999996 0 L 16.327499999999997 0 L 16.936249999999998 0 L 17.544999999999998 0 L 18.153749999999995 0 L 18.762499999999996 0 L 19.371249999999996 0 L 19.979999999999997 0 L 20.588749999999997 0 L 21.197499999999998 0 L 21.80625 0 L 22.414999999999996 0 L 23.023749999999993 0 L 23.632499999999993 0 L 24.241249999999994 0 L 24.849999999999994 0 L 25.458749999999995 0 L 26.067499999999995 0 L 26.676249999999996 0 L 27.284999999999997 0 L 27.893749999999997 0 L 28.502499999999998 0 L 29.11125 0 L 29.719999999999995 0 L 30.328749999999992 0 L 30.937499999999993 0 L 31.546249999999993 0 L 32.154999999999994 0 L 32.763749999999995 0 L 33.372499999999995 0 L 33.981249999999996 0 L 34.589999999999996 0 L 35.19874999999999 0 L 35.80749999999999 0 L 36.41624999999999 0 L 37.02499999999999 0 L 37.63374999999999 0 L 38.24249999999999 0 L 38.85124999999999 0 L 39.459999999999994 0 L 40.173218478675054 1.6068749999999987 L 40.880756892064866 3.2137499999999974 L 41.57698041087093 4.820624999999996 L 42.256344317509246 6.427499999999995 L 42.913438164189245 8.034374999999994 L 43.5430288616693 9.641249999999992 L 44.14010235553047 11.248124999999991 L 44.69990355805895 12.85499999999999 L 45.217974217720034 14.461874999999988 L 45.69018842463165 16.068749999999987 L 46.112785469272 17.675624999999986 L 46.48239979273497 19.282499999999985 L 46.79608779000974 20.889374999999983 L 47.05135125282355 22.496249999999982 L 47.246157265348955 24.10312499999998 L 47.37895439432647 25.70999999999998 L 47.097878290175764 27.19171874999998 L 46.76272111515774 28.67343749999998 L 46.37339822079252 30.155156249999983 L 45.93019178941058 31.636874999999982 L 45.433748923106926 33.11859374999998 L 44.8850772613201 34.60031249999999 L 44.28553815671541 36.082031249999986 L 43.636837455588015 37.563749999999985 L 42.941013945224306 39.04546874999998 L 42.20042554646061 40.52718749999998 L 41.41773334494828 42.00890624999999 L 40.59588356927168 43.49062499999999 L 39.73808763796989 44.972343749999986 L 38.84780041059152 46.45406249999999 L 37.928696790074454 47.93578124999999 L 36.98464683490838 49.41749999999999 L 36.019689549629774 50.899218749999996 L 35.03800553115015 52.38093749999999 L 34.04388865616697 53.862656249999986 L 33.04171700140093 55.34437499999999 L 32.03592319359867 56.82609375 L 31.03096439010199 58.3078125 L 30.031292093286595 59.78953124999999 L 29.04132200329842 61.271249999999995 L 28.06540411325624 62.75296875 L 27.107793249447194 64.23468749999999 L 26.172620256028203 65.71640624999999 L 25.26386401938148 67.198125 L 24.385324521585723 68.67984375 L 23.540597105495177 70.1615625 L 22.73304812571318 71.64328125 L 21.96579215036107 73.125 L 21.24167086804072 74.60671875 L 20.563233842840745 76.0884375 L 19.93272124772077 77.57015625 L 19.352048693209912 79.051875 L 18.822794254165153 80.53359375000001 L 18.346187782449483 82.01531250000001 L 17.92310257790824 83.49703124999999 L 17.554049474051126 84.97875 L 17.23917337849378 86.46046875000002 L 16.978252291588397 87.9421875 L 16.770698809889605 89.42390625 L 16.61556410427356 90.90562500000001 L 16.511544345768897 92.38734375000001 L 16.456989535581396 93.86906250000001 L 16.449914679512112 95.35078125000001 L 16.48801323109147 96.83250000000001 L 16.568672712387453 98.31421875000001 L 16.68899240669772 99.79593750000002 L 16.84580300330409 101.27765625 L 17.035688061247722 102.759375 L 17.25500714676392 104.24109375000002 L 17.499920487681422 105.7228125 L 17.76641497781692 107.20453125 L 18.050331355253334 108.68625000000002 L 18.347392370440193 110.16796875000003 L 18.653231753351037 111.64968750000003 L 18.963423783521304 113.13140625000001 L 19.27351326270712 114.61312500000003 L 19.5790456871788 116.09484375000002 L 19.87559741531082 117.57656250000001 L 20.158805626161996 119.05828125000002 L 20.42439786615474 120.54000000000002 L 21.13752286615474 120.54000000000002 L 21.85064786615474 120.54000000000002 L 22.563772866154743 120.54000000000002 L 23.27689786615474 120.54000000000002 L 23.99002286615474 120.54000000000002 L 24.70314786615474 120.54000000000002 L 25.416272866154742 120.54000000000002 L 26.12939786615474 120.54000000000002 L 26.842522866154738 120.54000000000002 L 27.55564786615474 120.54000000000002 L 28.26877286615474 120.54000000000002 L 28.98189786615474 120.54000000000002 L 29.69502286615474 120.54000000000002 L 30.408147866154742 120.54000000000002 L 31.12127286615474 120.54000000000002 L 31.83439786615474 120.54000000000002 L 32.54752286615474 120.54000000000002 L 33.26064786615474 120.54000000000002 L 33.97377286615475 120.54000000000002 L 34.686897866154744 120.54000000000002 L 35.40002286615474 120.54000000000002 L 36.11314786615475 120.54000000000002 L 36.826272866154746 120.54000000000002 L 37.539397866154744 120.54000000000002 L 38.25252286615474 120.54000000000002 L 38.96564786615474 120.54000000000002 L 39.678772866154745 120.54000000000002 L 40.39189786615474 120.54000000000002 L 41.10502286615474 120.54000000000002 L 41.818147866154746 120.54000000000002 L 42.531272866154744 120.54000000000002 L 43.24439786615474 120.54000000000002 L 43.24439786615474 120.54000000000002 Z" fill="black" stroke="black" />
				</svg>