<svg
					xmlns="http://www.w3.org/2000/svg" xmlns:xlink="http://www.w3.org/1999/xlink"
					style="
						overflow: visible;
						height: 100;
					"
					viewBox="1.0099999999999998 0 56.82119558831842 154.23"
				>
					<path d="M 26.668844720306105 78.62999999999998 L 26.927337390164013 80.99249999999998 L 27.320340550831254 83.35499999999998 L 27.850501082169913 85.71749999999997 L 28.518106503915234 88.07999999999998 L 29.321080029805053 90.44249999999998 L 30.25501629213966 92.80499999999998 L 31.313257122243666 95.16749999999996 L 32.48700608326588 97.52999999999997 L 33.76547978514157 99.89249999999998 L 35.13609337882021 102.25499999999998 L 36.58467703891532 104.61749999999998 L 38.09571971087506 106.97999999999999 L 39.65263592977185 109.3425 L 41.23805112093511 111.705 L 42.834100474729176 114.06749999999998 L 44.42273625427819 116.42999999999998 L 45.98603824987731 118.79249999999999 L 47.506522039701146 121.15499999999997 L 48.96743975415562 123.51749999999998 L 50.353068170170964 125.87999999999998 L 51.648979179681774 128.24249999999998 L 52.84228797973671 130.605 L 53.9218747149096 132.9675 L 54.8785757593528 135.32999999999998 L 55.70534134808849 137.6925 L 56.397356845988334 140.055 L 56.952125568391054 142.4175 L 57.369511728690355 144.78 L 57.65174277411543 147.14249999999998 L 57.803371069524104 149.505 L 57.831195588318415 151.86749999999998 L 57.74414495754324 154.23 L 57.24226995754324 154.23 L 56.740394957543245 154.23 L 56.23851995754325 154.23 L 55.73664495754324 154.23 L 55.234769957543236 154.23 L 54.73289495754324 154.23 L 54.23101995754324 154.23 L 53.72914495754324 154.23 L 53.22726995754324 154.23 L 52.725394957543244 154.23 L 52.223519957543246 154.23 L 51.72164495754324 154.23 L 51.219769957543235 154.23 L 50.71789495754324 154.23 L 50.21601995754324 154.23 L 49.71414495754324 154.23 L 49.21226995754324 154.23 L 48.710394957543244 154.23 L 48.208519957543245 154.23 L 47.70664495754324 154.23 L 47.204769957543235 154.23 L 46.702894957543236 154.23 L 46.20101995754324 154.23 L 45.69914495754324 154.23 L 45.19726995754324 154.23 L 44.69539495754324 154.23 L 44.193519957543245 154.23 L 43.69164495754324 154.23 L 43.189769957543234 154.23 L 42.687894957543236 154.23 L 42.18601995754324 154.23 L 41.68414495754324 154.23 L 41.78839159823498 152.724375 L 41.84746015084155 151.21875 L 41.85875240479958 149.713125 L 41.820004227558925 148.20749999999998 L 41.72930139663586 146.70187499999997 L 41.58509298490382 145.19624999999996 L 41.38620220552414 143.69062499999998 L 41.13183464068338 142.185 L 40.821583796597146 140.679375 L 40.45543394593703 139.17374999999998 L 40.03376023780467 137.668125 L 39.55732607448405 136.1625 L 39.02727777331512 134.65687499999996 L 38.44513655101597 133.15124999999998 L 37.81278788650344 131.645625 L 37.132468336593185 130.14 L 36.40674989677106 128.63437499999998 L 35.63852201639385 127.12875 L 34.830971394078844 125.623125 L 33.987559694564 124.11749999999998 L 33.11199934285469 122.61187499999997 L 32.208227564917344 121.10624999999997 L 31.28037885644186 119.60062499999998 L 30.332756072186275 118.09499999999998 L 29.369800338062664 116.58937499999999 L 28.396059996355508 115.08375 L 27.416158801224565 113.578125 L 26.434763586886657 112.07249999999999 L 25.456551634558092 110.56687499999997 L 24.48617796634604 109.06124999999997 L 23.528242794787634 107.55562499999998 L 22.58725935564773 106.04999999999998 L 22.905117794787632 107.55562499999998 L 23.23992796634604 109.06124999999997 L 23.587176634558094 110.56687499999997 L 23.942263586886657 112.07249999999999 L 24.300533801224564 113.578125 L 24.657309996355508 115.08375 L 25.007925338062666 116.58937499999999 L 25.347756072186275 118.09499999999998 L 25.67225385644186 119.60062499999998 L 25.97697756491734 121.10624999999997 L 26.257624342854694 122.61187499999997 L 26.510059694564003 124.11749999999998 L 26.73034639407884 125.623125 L 26.914772016393854 127.12875 L 27.059874896771067 128.63437499999998 L 27.162468336593186 130.14 L 27.21966288650344 131.645625 L 27.22888655101597 133.15124999999998 L 27.187902773315123 134.65687499999996 L 27.09482607448405 136.1625 L 26.948135237804674 137.668125 L 26.74668394593703 139.17374999999998 L 26.48970879659715 140.679375 L 26.17683464068338 142.185 L 25.808077205524143 143.69062499999998 L 25.38384298490382 145.19624999999996 L 24.904926396635865 146.70187499999997 L 24.372504227558924 148.20749999999998 L 23.788127404799578 149.713125 L 23.153710150841547 151.21875 L 22.471516598234974 152.724375 L 21.744144957543234 154.23 L 20.76289495754324 154.23 L 19.781644957543236 154.23 L 18.800394957543233 154.23 L 17.819144957543237 154.23 L 16.837894957543234 154.23 L 15.856644957543237 154.23 L 14.875394957543238 154.23 L 13.894144957543237 154.23 L 12.912894957543237 154.23 L 11.931644957543236 154.23 L 10.950394957543237 154.23 L 9.969144957543236 154.23 L 8.987894957543237 154.23 L 8.006644957543237 154.23 L 7.025394957543237 154.23 L 6.044144957543237 154.23 L 7.2361800176169 151.76624999999999 L 8.302836695626313 149.3025 L 9.234140841788943 146.83875 L 10.022650147789633 144.375 L 10.663593359136287 141.91125 L 11.154959524025834 139.4475 L 11.49753560927276 136.98375 L 11.69489177967414 134.51999999999998 L 11.753314616168499 132.05624999999998 L 11.681689521978555 129.59249999999997 L 11.491334516393847 127.12874999999997 L 11.195788525169304 124.66499999999998 L 10.810558127681132 122.20124999999999 L 10.352827498069797 119.73749999999998 L 9.841136966076101 117.27374999999998 L 9.295036210261763 114.80999999999999 L 8.734718570820702 112.34625 L 8.180643322355383 109.8825 L 7.653152972207912 107.41874999999999 L 7.172092742985118 104.955 L 6.756439357060495 102.49125000000001 L 6.423946066837279 100.0275 L 6.190810570671388 97.56374999999998 L 6.071372026264454 95.1 L 6.077842829053277 92.63624999999999 L 6.220080172824495 90.17249999999999 L 6.505401665635157 87.70875 L 6.93844845004204 85.24499999999999 L 7.521098388048984 82.78124999999997 L 8.252430934694203 80.31749999999998 L 9.128744357335915 77.85374999999999 L 10.143624978540348 75.38999999999999 L 10.223454373557988 73.03406249999999 L 10.411819196093287 70.678125 L 10.696911823869316 68.32218749999998 L 11.06526995553866 65.96624999999999 L 11.502006904219243 63.61031249999999 L 11.991066257352994 61.25437499999999 L 12.51549654653569 58.898437499999986 L 13.057741228664709 56.54249999999999 L 13.599939017827557 54.186562499999994 L 14.12422943028863 51.83062499999999 L 14.61305831575348 49.47468749999999 L 15.049478148324676 47.11874999999999 L 15.417437940206833 44.762812499999995 L 15.7020578187375 42.40687499999999 L 15.889883569678034 40.05093749999999 L 15.969116792406876 37.69499999999999 L 15.929816729853826 35.3390625 L 15.764070320561366 32.983124999999994 L 15.466127563868888 30.627187499999994 L 15.032499882588517 28.271249999999995 L 14.462019800526402 25.915312499999995 L 13.755860913973024 23.559374999999996 L 12.917517815519151 21.203437499999996 L 11.952746313631742 18.847499999999997 L 10.869464970626613 16.491562499999997 L 9.677619643383476 14.135624999999997 L 8.389013344044486 11.779687499999998 L 7.017104331192742 9.423749999999998 L 5.576775885474248 7.067812499999999 L 4.084081708008174 4.711874999999999 L 2.5559712969403803 2.3559374999999996 L 1.0099999999999998 0 L 1.9731249999999998 0 L 2.93625 0 L 3.899375 0 L 4.8625 0 L 5.8256250000000005 0 L 6.78875 0 L 7.751875 0 L 8.715 0 L 9.678125 0 L 10.64125 0 L 11.604375 0 L 12.567499999999999 0 L 13.530624999999999 0 L 14.493749999999999 0 L 15.456874999999998 0 L 16.419999999999998 0 L 17.37247076988176 1.4915624999999997 L 18.32039740516546 2.9831249999999994 L 19.2592669558809 4.474687499999999 L 20.184628627305703 5.966249999999999 L 21.092124324037897 7.457812499999998 L 21.977518557909203 8.949374999999998 L 22.836727514492523 10.440937499999997 L 23.665847078731584 11.932499999999997 L 24.461179627363713 13.424062499999998 L 25.219259404269728 14.915624999999997 L 25.93687630460987 16.407187499999996 L 26.611097904524463 17.898749999999996 L 27.239289585217982 19.390312499999997 L 27.819132613322903 20.881874999999994 L 28.348640053464713 22.373437499999994 L 28.826170403826364 23.864999999999995 L 29.25043886113665 25.356562499999992 L 29.620526137775197 26.848124999999996 L 29.93588477048576 28.339687499999997 L 30.196342877403573 29.831249999999994 L 30.402105337613712 31.32281249999999 L 30.55375238514564 32.81437499999999 L 30.652235627052804 34.3059375 L 30.698871512903647 35.79749999999999 L 30.695332300500354 37.289062499999986 L 30.64363457982415 38.78062499999999 L 30.546125433962807 40.272187499999994 L 30.40546633199253 41.76374999999999 L 30.22461486435109 43.25531249999999 L 30.006804446045308 44.74687499999999 L 29.755522126981774 46.23843749999999 L 29.474484661699975 47.72999999999999 L 30.324897126981774 46.23843749999999 L 31.14555444604531 44.74687499999999 L 31.932739864351092 43.25531249999999 L 32.68296633199253 41.76374999999999 L 33.39300043396281 40.272187499999994 L 34.05988457982415 38.78062499999999 L 34.68095730050035 37.289062499999986 L 35.25387151290365 35.79749999999999 L 35.77661062705281 34.3059375 L 36.247502385145644 32.81437499999999 L 36.665230337613714 31.32281249999999 L 37.02884287740358 29.831249999999994 L 37.33775977048576 28.339687499999997 L 37.5917761377752 26.848124999999996 L 37.79106386113666 25.356562499999992 L 37.93617040382637 23.864999999999995 L 38.02801505346471 22.373437499999994 L 38.06788261332291 20.881874999999994 L 38.05741458521798 19.390312499999997 L 37.99859790452446 17.898749999999996 L 37.89375130460988 16.407187499999996 L 37.745509404269725 14.915624999999997 L 37.55680462736371 13.424062499999998 L 37.33084707873158 11.932499999999997 L 37.07110251449252 10.440937499999997 L 36.78126855790921 8.949374999999998 L 36.4652493240379 7.457812499999998 L 36.1271286273057 5.966249999999999 L 35.77114195588091 4.474687499999999 L 35.401647405165455 2.9831249999999994 L 35.02309576988176 1.4915624999999997 L 34.64 0 L 35.63 0 L 36.620000000000005 0 L 37.61 0 L 38.6 0 L 39.59 0 L 40.58 0 L 41.57 0 L 42.56 0 L 43.55 0 L 44.54 0 L 45.53 0 L 46.519999999999996 0 L 47.51 0 L 48.5 0 L 49.489999999999995 0 L 50.48 0 L 51.0599446463968 2.4571874999999994 L 51.619632851929445 4.914374999999999 L 52.139185070575536 7.371562499999998 L 52.59946853342561 9.828749999999998 L 52.982453236290155 12.285937499999996 L 53.271547409075644 14.743124999999996 L 53.45190622512811 17.200312499999995 L 53.51070800664513 19.657499999999995 L 53.437392787030284 22.114687499999995 L 53.22385879145785 24.57187499999999 L 52.864613179896295 27.029062499999995 L 52.356874247839826 29.48624999999999 L 51.70062318318342 31.94343749999999 L 50.898604416244154 34.40062499999999 L 49.95627455641612 36.857812499999994 L 48.881700865552354 39.31499999999999 L 47.685411157095736 41.77218749999999 L 46.38019791376142 44.22937499999999 L 44.98088026839118 46.68656249999999 L 43.504028276605 49.14374999999998 L 41.96765461148067 51.600937499999986 L 40.390879416643486 54.05812499999999 L 38.79357455356742 56.51531249999999 L 37.195993862284006 58.97249999999998 L 35.61839631493208 61.42968749999998 L 34.080669073818704 63.88687499999998 L 32.60195746743813 66.34406249999998 L 31.20030876917888 68.80124999999998 L 29.89233640663411 71.25843749999999 L 28.692910849294776 73.71562499999999 L 27.614882926022634 76.17281249999998 L 26.668844720306105 78.62999999999998 L 26.668844720306105 78.62999999999998 Z" fill="black" stroke="black" />
				</svg>