<svg
					xmlns="http://www.w3.org/2000/svg" xmlns:xlink="http://www.w3.org/1999/xlink"
					style="
						overflow: visible;
						height: 100;
					"
					viewBox="0 0 44.21166678553349 25.91999999999996"
				>
					<path d="M 36.28 0 L 36.99902839358409 1.6199999999999974 L 37.71223658740659 3.239999999999995 L 38.41385149351065 4.859999999999992 L 39.09819386620072 6.47999999999999 L 39.75972427288984 8.099999999999987 L 40.3930879332249 9.719999999999985 L 40.993158063538154 11.339999999999982 L 41.55507737577178 12.95999999999998 L 42.074297394961135 14.579999999999977 L 42.54661527701986 16.199999999999974 L 42.96820782880416 17.819999999999972 L 43.33566245507957 19.43999999999997 L 43.64600478188908 21.059999999999967 L 43.89672273272412 22.679999999999964 L 44.08578686261327 24.29999999999996 L 44.21166678553349 25.91999999999996 L 43.64479178553349 25.91999999999996 L 43.07791678553349 25.91999999999996 L 42.511041785533486 25.91999999999996 L 41.94416678553349 25.91999999999996 L 41.377291785533494 25.91999999999996 L 40.81041678553349 25.91999999999996 L 40.24354178553349 25.91999999999996 L 39.67666678553349 25.91999999999996 L 39.10979178553349 25.91999999999996 L 38.542916785533485 25.91999999999996 L 37.97604178553349 25.91999999999996 L 37.409166785533486 25.91999999999996 L 36.84229178553349 25.91999999999996 L 36.27541678553349 25.91999999999996 L 35.70854178553349 25.91999999999996 L 35.14166678553349 25.91999999999996 L 34.57479178553349 25.91999999999996 L 34.00791678553349 25.91999999999996 L 33.44104178553349 25.91999999999996 L 32.87416678553349 25.91999999999996 L 32.307291785533494 25.91999999999996 L 31.740416785533494 25.91999999999996 L 31.17354178553349 25.91999999999996 L 30.60666678553349 25.91999999999996 L 30.03979178553349 25.91999999999996 L 29.47291678553349 25.91999999999996 L 28.90604178553349 25.91999999999996 L 28.33916678553349 25.91999999999996 L 27.77229178553349 25.91999999999996 L 27.20541678553349 25.91999999999996 L 26.63854178553349 25.91999999999996 L 26.07166678553349 25.91999999999996 L 25.50479178553349 25.91999999999996 L 24.937916785533492 25.91999999999996 L 24.371041785533492 25.91999999999996 L 23.80416678553349 25.91999999999996 L 23.23729178553349 25.91999999999996 L 22.67041678553349 25.91999999999996 L 22.10354178553349 25.91999999999996 L 21.53666678553349 25.91999999999996 L 20.96979178553349 25.91999999999996 L 20.402916785533492 25.91999999999996 L 19.836041785533492 25.91999999999996 L 19.26916678553349 25.91999999999996 L 18.70229178553349 25.91999999999996 L 18.13541678553349 25.91999999999996 L 17.56854178553349 25.91999999999996 L 17.00166678553349 25.91999999999996 L 16.43479178553349 25.91999999999996 L 15.86791678553349 25.91999999999996 L 15.301041785533489 25.91999999999996 L 14.734166785533489 25.91999999999996 L 14.16729178553349 25.91999999999996 L 13.60041678553349 25.91999999999996 L 13.03354178553349 25.91999999999996 L 12.46666678553349 25.91999999999996 L 11.89979178553349 25.91999999999996 L 11.33291678553349 25.91999999999996 L 10.76604178553349 25.91999999999996 L 10.199166785533489 25.91999999999996 L 9.63229178553349 25.91999999999996 L 9.06541678553349 25.91999999999996 L 8.49854178553349 25.91999999999996 L 7.93166678553349 25.91999999999996 L 7.805786862613269 24.29999999999996 L 7.616722732724122 22.679999999999964 L 7.366004781889079 21.059999999999967 L 7.055662455079573 19.43999999999997 L 6.688207828804157 17.819999999999972 L 6.26661527701986 16.199999999999974 L 5.794297394961133 14.579999999999977 L 5.275077375771779 12.95999999999998 L 4.71315806353815 11.339999999999982 L 4.113087933224899 9.719999999999985 L 3.4797242728898365 8.099999999999987 L 2.8181938662007155 6.47999999999999 L 2.1338514935106456 4.859999999999992 L 1.4322365874065912 3.239999999999995 L 0.7190283935840873 1.6199999999999974 L 0 0 L 0.566875 0 L 1.13375 0 L 1.700625 0 L 2.2675 0 L 2.834375 0 L 3.40125 0 L 3.968125 0 L 4.535 0 L 5.101875 0 L 5.66875 0 L 6.235625000000001 0 L 6.8025 0 L 7.369375 0 L 7.93625 0 L 8.503125 0 L 9.07 0 L 9.636875 0 L 10.20375 0 L 10.770624999999999 0 L 11.3375 0 L 11.904375000000002 0 L 12.471250000000001 0 L 13.038125 0 L 13.605 0 L 14.171875 0 L 14.73875 0 L 15.305625 0 L 15.8725 0 L 16.439375000000002 0 L 17.00625 0 L 17.573125 0 L 18.14 0 L 18.706875 0 L 19.27375 0 L 19.840625 0 L 20.4075 0 L 20.974375 0 L 21.541249999999998 0 L 22.108125 0 L 22.675 0 L 23.241875 0 L 23.808750000000003 0 L 24.375625000000003 0 L 24.942500000000003 0 L 25.509375000000002 0 L 26.07625 0 L 26.643125 0 L 27.21 0 L 27.776875 0 L 28.34375 0 L 28.910625 0 L 29.4775 0 L 30.044375 0 L 30.61125 0 L 31.178125 0 L 31.745 0 L 32.311875 0 L 32.878750000000004 0 L 33.44562500000001 0 L 34.0125 0 L 34.579375 0 L 35.14625 0 L 35.713125000000005 0 L 36.28 0 L 36.28 0 Z" fill="black" stroke="black" />
				</svg>