<svg
					xmlns="http://www.w3.org/2000/svg" xmlns:xlink="http://www.w3.org/1999/xlink"
					style="
						overflow: visible;
						height: 100;
					"
					viewBox="0 0 55.12286603186119 154.23"
				>
					<path d="M 34.42 0 L 35.391875 0 L 36.36375 0 L 37.33562500000001 0 L 38.307500000000005 0 L 39.279375 0 L 40.25125 0 L 41.223124999999996 0 L 42.195 0 L 43.166875000000005 0 L 44.13875 0 L 45.110625 0 L 46.082499999999996 0 L 47.05437499999999 0 L 48.02625 0 L 48.998125 0 L 49.97 0 L 50.77456374041951 2.40984375 L 51.56001609463936 4.8196875 L 52.307587715881105 7.229531249999999 L 52.99918721467657 9.639375 L 53.61772494325047 12.049218749999998 L 54.14741885157785 14.459062499999998 L 54.57407694116314 16.868906250000002 L 54.88535126142227 19.27875 L 55.07095890285536 21.688593749999995 L 55.12286603186119 24.098437499999996 L 55.035431673494095 26.50828125 L 54.805508668861 28.918124999999996 L 54.43250000030873 31.327968749999997 L 53.918369476340814 33.737812500000004 L 53.26760658503437 36.14765625 L 52.48714614498081 38.5575 L 51.58624419176975 40.96734375 L 50.57631232129508 43.37718749999999 L 49.470713454666246 45.78703124999999 L 48.28452267995184 48.19687499999999 L 47.034257451007434 50.60671875 L 45.737581972060894 53.0165625 L 44.41299105872975 55.42640624999999 L 43.07947913345856 57.83624999999999 L 41.75620027941609 60.24609375 L 40.46212543691981 62.65593749999999 L 39.215702877596286 65.06578125 L 38.03452803282357 67.47562500000001 L 36.935028585586835 69.88546875 L 35.93217046170669 72.2953125 L 35.03918998236075 74.70515625 L 34.267356971605516 77.115 L 33.625773058600195 79.52484374999999 L 33.121208784348305 81.9346875 L 32.757982428282986 84.34453124999999 L 32.53788272335511 86.75437499999998 L 32.46013684280425 89.16421874999997 L 32.521424231558235 91.57406249999998 L 32.71593603471848 93.98390624999999 L 33.03547905953046 96.39374999999998 L 33.46962241021585 98.80359374999998 L 34.00588417132023 101.2134375 L 34.629954798475694 103.62328125 L 35.325953218519516 106.033125 L 36.07671105550558 108.44296874999999 L 36.86407989577195 110.85281249999998 L 37.66925609289439 113.26265624999998 L 38.47311729944133 115.67249999999999 L 39.25656470256996 118.08234375 L 40.00086483842022 120.4921875 L 40.68798486780163 122.90203125 L 41.30091531269272 125.31187499999999 L 41.823974477487894 127.72171874999998 L 42.24308910671805 130.1315625 L 42.5460462562705 132.54140625000002 L 42.722711870330016 134.95125000000002 L 42.765212152136 137.36109375 L 42.66807448253542 139.7709375 L 42.42832536429027 142.18078125 L 42.04554363921551 144.590625 L 41.52186802571194 147.00046875 L 40.861958841793665 149.4103125 L 40.07291459865911 151.82015625 L 39.164144957543236 154.23 L 38.65351995754324 154.23 L 38.142894957543234 154.23 L 37.63226995754324 154.23 L 37.12164495754323 154.23 L 36.611019957543235 154.23 L 36.10039495754324 154.23 L 35.58976995754323 154.23 L 35.079144957543235 154.23 L 34.56851995754324 154.23 L 34.05789495754323 154.23 L 33.547269957543236 154.23 L 33.03664495754324 154.23 L 32.526019957543234 154.23 L 32.015394957543236 154.23 L 31.50476995754324 154.23 L 30.994144957543234 154.23 L 30.483519957543237 154.23 L 29.97289495754324 154.23 L 29.462269957543235 154.23 L 28.951644957543238 154.23 L 28.44101995754324 154.23 L 27.930394957543236 154.23 L 27.419769957543238 154.23 L 26.90914495754324 154.23 L 26.398519957543236 154.23 L 25.88789495754324 154.23 L 25.37726995754324 154.23 L 24.866644957543237 154.23 L 24.35601995754324 154.23 L 23.845394957543242 154.23 L 23.334769957543237 154.23 L 22.82414495754324 154.23 L 23.207445848659116 151.82015625 L 23.471021341793662 149.4103125 L 23.605461775711937 147.00046875 L 23.603668639215513 144.590625 L 23.46098161429027 142.18078125 L 23.17526198253542 139.7709375 L 22.74693090213601 137.36109375 L 22.17896187033002 134.95125000000002 L 21.476827506270514 132.54140625000002 L 20.64840160671806 130.1315625 L 19.703818227487897 127.72171874999998 L 18.65529031269273 125.31187499999999 L 17.516891117801634 122.90203125 L 16.304302338420218 120.4921875 L 15.034533452569965 118.08234375 L 13.72561729944133 115.67249999999999 L 12.396287342894402 113.26265624999998 L 11.065642395771963 110.85281249999998 L 9.75280480550558 108.44296874999999 L 8.476578218519515 106.033125 L 7.2551110484756975 103.62328125 L 6.105571671320228 101.2134375 L 5.0438411602158455 98.80359374999998 L 4.084229059530465 96.39374999999998 L 3.239217284718487 93.98390624999999 L 2.519236731558241 91.57406249999998 L 1.9324805928042528 89.16421874999997 L 1.4847577233551092 86.75437499999998 L 1.1793886782829857 84.34453124999999 L 1.0171462843483008 81.9346875 L 0.9962418086001898 79.52484374999999 L 1.1123569716055162 77.115 L 1.358721232360752 74.70515625 L 1.7262329617066925 72.2953125 L 2.203622335586827 69.88546875 L 2.777653032823574 67.47562500000001 L 3.4333591275962836 65.06578125 L 4.154312936919807 62.65593749999999 L 4.922919029416083 60.24609375 L 5.720729133458561 57.83624999999999 L 6.528772308729751 55.42640624999999 L 7.327894472060896 53.0165625 L 8.099101201007434 50.60671875 L 8.823897679951843 48.19687499999999 L 9.484619704666251 45.78703124999999 L 10.06474982129508 43.37718749999999 L 10.549212941769753 40.96734375 L 10.924646144980809 38.5575 L 11.179637835034374 36.14765625 L 11.30493197634081 33.737812500000004 L 11.293593750308727 31.327968749999997 L 11.141133668860999 28.918124999999996 L 10.845587923494092 26.50828125 L 10.407553531861195 24.098437499999996 L 9.830177652855363 21.688593749999995 L 9.11910126142228 19.27875 L 8.282358191163148 16.868906250000002 L 7.330231351577854 14.459062499999998 L 6.275068693250471 12.049218749999998 L 5.131062214676566 9.639375 L 3.9139939658811067 7.229531249999999 L 2.6409535946393574 4.8196875 L 1.330032490419508 2.40984375 L 0 0 L 0.97625 0 L 1.9525 0 L 2.92875 0 L 3.905 0 L 4.88125 0 L 5.8575 0 L 6.83375 0 L 7.81 0 L 8.786249999999999 0 L 9.7625 0 L 10.73875 0 L 11.715 0 L 12.69125 0 L 13.6675 0 L 14.64375 0 L 15.62 0 L 16.921352792159205 2.4440624999999994 L 18.202771020014573 4.888124999999999 L 19.444687079500852 7.332187499999998 L 20.62826053193793 9.776249999999997 L 21.73572492334265 12.220312499999997 L 22.750714833572857 14.664374999999996 L 23.658567134904636 17.108437499999994 L 24.446590914402623 19.552499999999995 L 25.104301091287695 21.996562499999996 L 25.62361142881752 24.440624999999994 L 25.998983387671025 26.88468749999999 L 26.227528080707962 29.328749999999992 L 26.309059452295916 31.772812499999993 L 26.24609770326702 34.21687499999999 L 26.043822898456835 36.66093749999999 L 25.709979610829087 39.10499999999999 L 25.254734357519933 41.54906249999999 L 24.690488452153314 43.99312499999999 L 24.031649718486822 46.437187499999986 L 23.294367267737996 48.88124999999999 L 22.49623422187363 51.32531249999998 L 21.655963855203034 53.76937499999998 L 20.79304511593844 56.21343749999999 L 19.927383868964267 58.657499999999985 L 19.07893646390428 61.10156249999998 L 18.267342373853655 63.54562499999999 L 17.511562667250086 65.98968749999999 L 16.82953096798047 68.43374999999997 L 16.237823328933178 70.87781249999998 L 15.751353096042756 73.32187499999998 L 15.383096379842804 75.76593749999998 L 15.143853188112518 78.20999999999998 Q 15.074985305315959 79.28999999999998 15.02507145697682 80.53124999999997 Q 15.012108760873993 81.77249999999998 15.038506330824102 83.17499999999998 Q 15.069813358744227 83.87624999999998 15.115207279383881 84.61781249999999 Q 15.174176544273383 85.35937499999999 15.250194470894407 86.14124999999999 Q 15.341264100112687 86.923125 15.452387000038694 87.74531250000001 Q 15.579978716018148 88.5675 15.73060275562945 89.43 Q 15.900243105371743 90.2925 16.086697224155785 91.15546875 Q 16.290409845960284 92.01843749999999 16.510366469015793 92.88187499999998 Q 16.746913598646564 93.74531249999998 16.998976626065573 94.60921874999997 Q 17.26680752115551 95.47312499999997 17.549273988470027 96.33749999999998 Q 17.84653804382122 97.20187499999997 18.15741267368105 98.06671874999996 Q 18.481975371725476 98.93156249999996 18.81898789942338 99.79687499999996 Q 19.168449465097442 100.66218749999996 19.529074594005046 101.52796874999997 Q 19.90079119727494 102.39374999999995 20.282271014822694 103.25999999999996 Q 20.67316450306229 104.12249999999997 21.050470968138487 104.94468749999999 Q 21.435080174546744 105.76687499999998 21.803298225603378 106.54874999999998 Q 22.176886635785166 107.33062499999997 22.531749371023267 108.07218749999998 Q 22.890353206196863 108.81374999999998 23.22834049880455 109.51499999999999 Q 23.911050531739956 110.91749999999999 24.503039885444 112.15875 Q 25.097011203874796 113.39999999999999 25.593913394340145 114.47999999999999 L 25.593913394340145 114.47999999999999 Q 25.152011203874796 113.39999999999999 24.65553650783369 112.16437499999998 Q 24.16101410074323 110.92874999999998 23.618144342642193 109.5375 Q 23.08466017910794 108.14625 22.514336781402605 106.599375 Q 22.236700317124182 105.8259375 21.953033664674585 105.01359374999998 Q 21.67643983536537 104.20124999999996 21.396496404508742 103.34999999999997 Q 21.12840957766204 102.50249999999997 20.871093341592378 101.65453124999996 Q 20.624316799751348 100.80656249999998 20.389679388838207 99.95812499999998 Q 20.166892130337956 99.10968749999998 19.957518103334554 98.26078124999998 Q 19.76120290081903 97.411875 19.57946887682923 96.56249999999997 Q 19.411889400673857 95.71312499999999 19.259942071526076 94.86328124999997 Q 19.123121854816375 94.01343749999998 19.002857941187287 93.16312499999998 Q 18.898561385555638 92.31281249999998 18.8116097279983 91.46203124999997 Q 18.741325332761733 90.61124999999997 18.689031291021003 89.75999999999996 Q 18.65395726942497 88.90874999999997 18.638796970553294 88.09640624999997 Q 18.63965914738838 87.28406249999998 18.657635640708932 86.51062499999998 Q 18.69031550797305 85.73718749999998 18.737273463067577 85.00265624999997 Q 18.797550786575613 84.26812499999997 18.86929784602247 83.57249999999998 Q 19.04850412234652 82.18124999999998 19.25738896427022 80.94562499999998 Q 19.503086107425553 79.70999999999998 19.7588447203061 78.62999999999998 L 19.7588447203061 78.62999999999998 L 20.41894542602263 76.17281249999998 L 21.211035849294774 73.71562499999999 L 22.12452390663411 71.25843749999999 L 23.146558769178878 68.80124999999998 L 24.26226996743813 66.34406249999998 L 25.455044073818705 63.88687499999998 L 26.706833814932075 61.42968749999998 L 27.998493862284 58.97249999999998 L 29.310137053567413 56.51531249999999 L 30.621504416643475 54.05812499999999 L 31.912342111480655 51.600937499999986 L 33.16277827660499 49.14374999999998 L 34.35369276839117 46.68656249999999 L 35.46707291376141 44.22937499999999 L 36.48634865709573 41.77218749999999 L 37.39670086555235 39.31499999999999 L 38.18533705641612 36.857812499999994 L 38.841729416244156 34.40062499999999 L 39.357810683183416 31.94343749999999 L 39.72812424783983 29.48624999999999 L 39.9499256798963 27.029062499999995 L 40.023233791457855 24.57187499999999 L 39.950830287030286 22.114687499999995 L 39.73820800664514 19.657499999999995 L 39.39346872512812 17.200312499999995 L 38.92717240907565 14.743124999999996 L 38.35214073629017 12.285937499999996 L 37.68321853342562 9.828749999999998 L 36.93699757057555 7.371562499999998 L 36.131507851929456 4.914374999999999 L 35.2858821463968 2.4571874999999994 L 34.42 0 L 34.42 0 Z" fill="black" stroke="black" />
				</svg>