<svg
					xmlns="http://www.w3.org/2000/svg" xmlns:xlink="http://www.w3.org/1999/xlink"
					style="
						overflow: visible;
						height: 100;
					"
					viewBox="-7.997173821717016 2.1316282072803006e-13 52.35097510781236 154.22999999999996"
				>
					<path d="M 9.473903143468003e-14 2.1316282072803006e-13 L 0.5559375000000947 2.1316282072803006e-13 L 1.1118750000000948 2.1316282072803006e-13 L 1.6678125000000947 2.1316282072803006e-13 L 2.2237500000000945 2.1316282072803006e-13 L 2.7796875000000942 2.1316282072803006e-13 L 3.3356250000000944 2.1316282072803006e-13 L 3.8915625000000946 2.1316282072803006e-13 L 4.447500000000095 2.1316282072803006e-13 L 5.003437500000095 2.1316282072803006e-13 L 5.559375000000094 2.1316282072803006e-13 L 6.115312500000095 2.1316282072803006e-13 L 6.671250000000095 2.1316282072803006e-13 L 7.2271875000000945 2.1316282072803006e-13 L 7.783125000000095 2.1316282072803006e-13 L 8.339062500000095 2.1316282072803006e-13 L 8.895000000000094 2.1316282072803006e-13 L 9.450937500000093 2.1316282072803006e-13 L 10.006875000000093 2.1316282072803006e-13 L 10.562812500000094 2.1316282072803006e-13 L 11.118750000000093 2.1316282072803006e-13 L 11.674687500000093 2.1316282072803006e-13 L 12.230625000000094 2.1316282072803006e-13 L 12.786562500000093 2.1316282072803006e-13 L 13.342500000000094 2.1316282072803006e-13 L 13.898437500000094 2.1316282072803006e-13 L 14.454375000000093 2.1316282072803006e-13 L 15.010312500000094 2.1316282072803006e-13 L 15.566250000000094 2.1316282072803006e-13 L 16.1221875000001 2.1316282072803006e-13 L 16.678125000000097 2.1316282072803006e-13 L 17.234062500000096 2.1316282072803006e-13 L 17.790000000000095 2.1316282072803006e-13 Q 18.095937500000094 2.1316282072803006e-13 18.40259440060044 0.012451171875213163 Q 18.70925129855288 0.024902343750213163 19.0166275759224 0.04980468750021316 Q 19.32400381092543 0.07470703125021316 19.632099287654697 0.11206054687521316 Q 19.940194549904753 0.14941406250021316 20.249008609038203 0.19921875000021316 Q 20.557821990321063 0.24902343750021316 20.86735313054692 0.31127929687521316 Q 21.176882615913406 0.37353515625021316 21.487127847993367 0.44824218750021316 Q 21.797369648742066 0.5229492187502132 22.108323733371172 0.6101074218752132 Q 22.419271461598992 0.6972656250002132 22.730925989066996 0.7968750000002132 Q 23.04256967426736 0.8964843750002132 23.354911986565146 1.0085449218752132 Q 23.6672369350727 1.1206054687502132 23.980248891469923 1.2451171875002132 Q 24.293234389988243 1.3696289062502132 24.60689097762003 1.5065917968752132 Q 24.92050884264383 1.6435546875002132 25.23477663430382 1.7929687500002132 Q 25.863143218726357 2.091796875000213 26.493932735100437 2.440429687500213 Q 27.124316621183137 2.789062500000213 27.756774175148795 3.187500000000213 Q 28.388541245839658 3.585937500000213 29.021863374993778 4.034179687500213 Q 29.654082978173683 4.482421875000213 30.287123968431928 4.980468750000213 Q 30.918491944222037 5.478515625000213 31.549683163789553 6.026367187500213 Q 32.17843950942028 6.574218750000213 32.80570467781629 7.171875000000213 Q 33.42954835126545 7.769531250000213 34.05021768854567 8.416992187500213 Q 34.66622187589261 9.064453125000213 35.276948970173564 9.761718750000213 Q 35.881481083223335 10.458984375000213 36.47816731353157 11.206054687500213 Q 37.06681901745248 11.953125000000213 37.644551438577956 12.750000000000213 Q 38.21208509043451 13.546875000000213 38.76300818434822 14.385937500000212 Q 39.301472944407095 15.225000000000215 39.81969248255679 16.106250000000216 Q 40.32295672743254 16.98750000000021 40.801939221458326 17.910937500000212 Q 41.26326472854921 18.83437500000021 41.69590888049153 19.80000000000021 Q 42.1080396825688 20.765625000000213 42.48678850007764 21.773437500000213 Q 42.84208267241338 22.781250000000213 43.1590814569316 23.83125000000021 Q 43.449690612775996 24.88125000000021 43.696995016312 25.97343750000021 Q 43.91509502148731 27.065625000000207 44.08493178372586 28.20000000000021 Q 44.22300632781233 29.33437500000021 44.30808707130084 30.510937500000207 Q 44.35926318227117 31.687500000000203 44.3531487033074 32.9062500000002 Q 44.3115800240245 34.1250000000002 44.209088850504386 35.3859375000002 Q 44.07037851132744 36.6468750000002 43.86802913676601 37.9500000000002 Q 43.62967941879216 39.25312500000021 43.326150661283485 40.5984375000002 Q 42.98802148377401 41.9437500000002 42.584610039614155 43.3312500000002 Q 42.1493628464348 44.7187500000002 41.650411586813206 46.1484375000002 Q 41.12390977531251 47.5781250000002 40.53717505366154 49.050000000000196 L 40.53717505366154 49.050000000000196 Q 39.99246443788353 50.37000000000019 39.42372336983081 51.67546875000019 Q 38.843733382409006 52.9809375000002 38.24608674382766 54.2718750000002 Q 37.64325136943991 55.5628125000002 37.02884058639049 56.8392187500002 Q 36.415078843868606 58.1156250000002 35.795410227891914 59.3775000000002 Q 35.181892605271614 60.639375000000186 34.56762422576654 61.88671875000019 Q 33.96457781686436 63.1340625000002 33.36534562555778 64.36687500000019 Q 32.781899055678515 65.59968750000019 32.206182710539125 66.8179687500002 Q 31.650250722762102 68.03625000000021 31.105278424200407 69.24000000000021 Q 30.584679312609712 70.4400000000002 30.078259202138177 71.61000000000021 Q 29.596925530123308 72.7800000000002 29.130146532374283 73.92000000000021 Q 28.68973870667994 75.06000000000022 28.263429614111754 76.17000000000021 Q 27.864086176849604 77.2800000000002 27.477667379824894 78.36000000000021 Q 27.1182038921842 79.44000000000023 26.769890545139504 80.49000000000024 Q 26.4480069996215 81.54000000000022 26.13501616692971 82.56000000000023 Q 25.84750465065295 83.58000000000023 25.566258981846076 84.57000000000022 Q 25.309204823388825 85.56000000000023 25.055526802470517 86.52000000000022 Q 24.823002959447344 87.47625000000022 24.585272391858766 88.38234375000022 Q 24.3674143384712 89.28843750000021 24.13955402795445 90.14437500000021 Q 23.928995303120995 91.0003125000002 23.70388165551065 91.8060937500002 Q 23.493605850973466 92.6118750000002 23.26454028616062 93.3675000000002 Q 23.04801210198751 94.12312500000019 22.808825652390563 94.82859375000021 Q 22.58007629520547 95.5340625000002 22.325192524169847 96.18937500000021 Q 22.078866420306838 96.84468750000022 21.803329705540516 97.44984375000023 Q 21.534699595977933 98.05500000000022 21.234175707904818 98.61000000000023 Q 21.086604377725713 98.88750000000023 20.928115421021285 99.14765625000024 Q 20.7707957480153 99.40781250000023 20.60221201422111 99.65062500000022 Q 20.434617403875972 99.8934375000002 20.25544719422014 100.11890625000021 Q 20.07710560819089 100.34437500000021 19.886909726457873 100.55250000000021 Q 19.697400337805085 100.7606250000002 19.495788743728188 100.95140625000022 Q 19.29473858301493 101.1421875000002 19.081367074530537 101.31562500000021 Q 18.868447732106457 101.48906250000023 18.643014717101245 101.64515625000023 Q 18.417939158692516 101.80125000000022 18.180182569004543 101.9400000000002 Q 17.942702114128224 102.07875000000018 17.692396507312594 102.20015625000019 Q 17.442298013058114 102.3215625000002 17.17925190080042 102.4256250000002 Q 16.9163551871651 102.52968750000018 16.64040862320749 102.6164062500002 Q 16.36456417041461 102.7031250000002 16.075586625417976 102.77250000000019 Q 15.786673568446815 102.84187500000019 15.484562114305392 102.8939062500002 Q 15.182486555175029 102.94593750000018 14.86716437687025 102.9806250000002 Q 14.551858030981592 103.0153125000002 14.22327328004736 103.0326562500002 Q 13.894692469034688 103.0500000000002 13.552817469034686 103.0500000000002 L 13.552817469034686 103.0500000000002 L 12.580317469034686 103.0500000000002 L 11.60781746903469 103.0500000000002 L 10.635317469034689 103.0500000000002 L 9.662817469034689 103.0500000000002 L 10.281681198311711 104.64937500000019 L 10.929092992429329 106.24875000000019 L 11.599944856517542 107.84812500000018 L 12.288943856602302 109.44750000000019 L 12.990653880166278 111.04687500000021 L 13.699538526369748 112.64625000000021 L 14.410004787533348 114.2456250000002 L 15.116447177241307 115.8450000000002 L 15.813291956900407 117.44437500000019 L 16.495041111812714 119.04375000000019 L 17.156315729796585 120.64312500000018 L 17.79189844010436 122.2425000000002 L 18.39677457779912 123.84187500000021 L 18.96617174880894 125.44125000000021 L 19.49559748349561 127.0406250000002 L 19.98087468165583 128.6400000000002 L 20.41817456929868 130.2393750000002 L 20.804046907174556 131.83875000000018 L 21.13544721271416 133.43812500000018 L 21.409760780600116 135.0375000000002 L 21.62482331245192 136.6368750000002 L 21.778937992858708 138.2362500000002 L 21.870888877032236 139.83562500000022 L 21.89995048445312 141.4350000000002 L 21.865893522817817 143.03437500000018 L 21.768986697125058 144.6337500000002 L 21.609994589628368 146.2331250000002 L 21.390171627381505 147.8325000000002 L 21.11125218497212 149.43187500000022 L 20.775436900531794 151.03125000000023 L 20.385375312987343 152.6306250000002 L 19.94414495754318 154.2300000000002 L 19.075394957543182 154.2300000000002 L 18.206644957543183 154.2300000000002 L 17.33789495754318 154.2300000000002 L 16.46914495754318 154.2300000000002 L 15.60039495754318 154.2300000000002 L 14.73164495754318 154.2300000000002 L 13.86289495754318 154.2300000000002 L 12.994144957543181 154.2300000000002 L 12.12539495754318 154.2300000000002 L 11.25664495754318 154.2300000000002 L 10.38789495754318 154.2300000000002 L 9.51914495754318 154.2300000000002 L 8.650394957543181 154.2300000000002 L 7.781644957543181 154.2300000000002 L 6.91289495754318 154.2300000000002 L 6.04414495754318 154.2300000000002 L 6.68963334865906 151.8201562500002 L 7.2153963417936176 149.4103125000002 L 7.61202427571191 147.0004687500002 L 7.872418639215497 144.59062500000022 L 7.991919114290264 142.1807812500002 L 7.968386982535429 139.7709375000002 L 7.80224340213603 137.3610937500002 L 7.496461870330054 134.95125000000021 L 7.056515006270555 132.54140625000022 L 6.490276606718113 130.1315625000002 L 5.80788072748796 127.72171875000019 L 5.021540312692801 125.3118750000002 L 4.145328617801721 122.9020312500002 L 3.194927338420304 120.49218750000021 L 2.1873459525700536 118.08234375000022 L 1.1406172994414214 115.67250000000021 L 0.07347484289449244 113.26265625000019 L -0.9949826042279406 110.8528125000002 L -2.045632694494334 108.4429687500002 L -3.0596717814804 106.03312500000021 L -4.018951451524216 103.62328125000022 L -4.906303328679693 101.2134375000002 L -5.705846339784085 98.80359375000019 L -6.403270940469481 96.3937500000002 L -6.986095215281469 93.9839062500002 L -7.443888268441727 91.5740625000002 L -7.768456907195725 89.1642187500002 L -7.953992276644882 86.75437500000021 L -7.997173821717016 84.34453125000022 L -7.897228715651713 81.93468750000021 L -7.65594569139984 79.5248437500002 L -7.277643028394523 77.11500000000021 L -6.769091267639299 74.70515625000021 L -6.1393920382933675 72.29531250000021 L -5.3998151644132415 69.8854687500002 L -4.5635969671765055 67.4756250000002 L -3.6457033724037995 65.06578125000021 L -2.662562063080285 62.655937500000206 L -1.6317684705840072 60.24609375000021 L -0.5717708665415353 57.836250000000206 L 0.49845980872965456 55.426406250000205 L 1.559769472060801 53.01656250000021 L 2.5931637010073434 50.60671875000021 L 3.58014767995176 48.196875000000205 L 4.503057204666173 45.787031250000204 L 5.345374821295011 43.377187500000204 L 6.092025441769692 40.96734375000021 L 6.729646144980758 38.55750000000021 L 7.246825335034334 36.14765625000021 L 7.634306976340781 33.73781250000022 L 7.885156250308711 31.32796875000021 L 7.994883668860996 28.91812500000021 L 7.961525423494102 26.508281250000213 L 7.785678531861216 24.09843750000021 L 7.4704901528553975 21.68859375000021 L 7.021601261422324 19.278750000000212 L 6.447045691163204 16.868906250000215 L 5.75710635157792 14.459062500000211 L 4.964131193250545 12.049218750000211 L 4.082312214676647 9.639375000000213 L 3.1274314658811937 7.229531250000212 L 2.1165785946394484 4.819687500000213 L 1.0678449904196017 2.409843750000213 L 9.473903143468003e-14 2.1316282072803006e-13 L 9.473903143468003e-14 2.1316282072803006e-13 Z M 25.14063139447756 33.69000000000018 L 25.14063139447756 33.69000000000018 L 24.24063139447756 33.69000000000018 L 23.340631394477562 33.69000000000018 L 22.44063139447756 33.69000000000018 L 21.54063139447756 33.69000000000018 L 21.19196292105328 35.904375000000186 L 20.73307607625869 38.11875000000018 L 20.170906956892985 40.33312500000018 L 19.513952776318604 42.547500000000184 L 18.77214342867128 44.76187500000019 L 17.956691398031122 46.976250000000185 L 17.07992228118472 49.19062500000018 L 16.15508848563509 51.405000000000186 L 15.196168918822822 53.61937500000019 L 14.21765769626571 55.83375000000019 L 13.234345062303369 58.048125000000184 L 12.261093834840462 60.26250000000019 L 11.31261475313698 62.47687500000019 L 10.40324412427456 64.6912500000002 L 9.546727129183267 66.90562500000019 L 8.756010063568667 69.12000000000019 L 9.441010063568665 69.12000000000019 L 10.126010063568666 69.12000000000019 L 10.811010063568666 69.12000000000019 L 11.496010063568665 69.12000000000019 Q 11.837260063568667 69.12000000000019 12.189788245540242 69.05437500000019 Q 12.542384504498642 68.9887500000002 12.906530059376891 68.85750000000019 Q 13.270944331220017 68.72625000000019 13.64743930476431 68.52937500000019 Q 14.024525265166766 68.33250000000021 14.414461557586918 68.07000000000019 Q 14.805413994687523 67.80750000000019 15.210190494213082 67.47937500000019 Q 15.616483901344235 67.1512500000002 16.037731889339923 66.7575000000002 Q 16.46103640433499 66.36375000000021 16.90052096848451 65.9043750000002 Q 17.342593309400808 65.4450000000002 17.802088362387078 64.92000000000021 Q 18.264896300967944 64.39125000000021 18.739637975329114 63.7635937500002 Q 19.218174650614692 63.135937500000196 19.71039551228771 62.409375000000196 Q 20.206785152123093 61.682812500000196 20.718111756984783 60.85734375000019 Q 21.233426646234452 60.0318750000002 21.76406778251817 59.10750000000019 Q 22.29769740654021 58.18312500000019 22.84576216964767 57.159843750000185 Q 23.39470439485645 56.13656250000019 23.955457450348312 55.014375000000186 Q 24.513564170584175 53.89218750000018 25.078661751207868 52.67109375000018 Q 25.63589250072623 51.45000000000019 26.192666158492308 50.130000000000194 L 26.192666158492308 50.130000000000194 Q 26.571508803671836 49.2112500000002 26.9020208783269 48.3365625000002 Q 27.22421195425125 47.46187500000019 27.49809546004869 46.63125000000019 Q 27.763062258968482 45.80062500000019 27.98026854463021 45.01406250000019 Q 28.18834354903152 44.22750000000019 28.34962881768554 43.4850000000002 Q 28.50188070206912 42.7425000000002 28.60864238874316 42.0440625000002 Q 28.706716123924686 41.3456250000002 28.760840476421492 40.691250000000196 Q 28.806810187369823 40.0368750000002 28.810533911454236 39.42656250000021 Q 28.80677074899078 38.81625000000021 28.762558318547566 38.25000000000021 Q 28.71244640045008 37.680000000000206 28.615713160570273 37.181250000000205 Q 28.513574986677618 36.6825000000002 28.36773773245714 36.2550000000002 Q 28.21782447909867 35.8275000000002 28.026834086248996 35.4712500000002 Q 27.832957267664046 35.115000000000194 27.600261705930652 34.83000000000019 Q 27.36569217676674 34.545000000000186 27.094153558379887 34.33125000000018 Q 26.821550095427497 34.11750000000019 26.513387386438467 33.975000000000186 Q 26.204748226535685 33.83250000000018 25.861499594685093 33.76125000000018 Q 25.518131394477557 33.69000000000018 25.14063139447756 33.69000000000018 L 25.14063139447756 33.69000000000018 Z" fill="black" stroke="black" />
				</svg>