<svg
					xmlns="http://www.w3.org/2000/svg" xmlns:xlink="http://www.w3.org/1999/xlink"
					style="
						overflow: visible;
						height: 100;
					"
					viewBox="-7.95871248561 4.263256414560601e-13 62.44113915624399 193.32000000000002"
				>
					<path d="M 42.34903017424766 79.26000000000043 L 42.34903017424766 79.26000000000043 Q 42.25351747735238 80.01656250000042 42.16967247206346 80.76741210937543 Q 42.099394032600436 81.51826171875044 42.040630172362285 82.26339843750043 Q 41.96387833988528 83.75367187500042 41.93148768040742 85.22109375000042 Q 41.952223152132866 86.68851562500043 42.013831931762525 88.13308593750043 Q 42.12607028144635 89.57765625000042 42.27448011039427 90.99937500000043 Q 42.46986439166554 92.42109375000044 42.69576200921877 93.81996093750041 Q 42.964044160340535 95.21882812500041 43.25648503155343 96.59484375000041 Q 43.58601239874867 97.9708593750004 43.932900013549315 99.3240234375004 Q 44.31108930152739 100.67718750000041 44.699634121869536 102.00750000000042 Q 45.11341816265548 103.33781250000042 45.53056329824012 104.64527343750042 Q 45.966799201477066 105.95273437500042 46.399603038321715 107.23734375000043 Q 46.84543339771 108.52195312500044 47.281402422209716 109.78371093750042 Q 47.72456418371739 111.04546875000042 48.15193203381581 112.28437500000041 Q 48.581010291862775 113.52328125000042 48.98896155180605 114.73933593750043 Q 49.39358786833543 115.95539062500043 49.77242725655516 117.14859375000043 Q 50.143424059052684 118.34179687500043 50.48469341633096 119.51214843750041 Q 50.814167611070786 120.68250000000043 51.110714474964226 121.83000000000042 Q 51.39210461626067 122.97750000000042 51.63128843582418 124.09125000000041 Q 51.85291260154584 125.20500000000042 52.031349287571224 126.28500000000042 Q 52.19052914425017 127.36500000000042 52.30635416880964 128.41125000000042 Q 52.401865429577725 129.45750000000044 52.454565567946354 130.47000000000043 Q 52.48646094628944 131.4825000000004 52.476692378442394 132.46125000000043 Q 52.44611519024247 133.44000000000045 52.37551674752229 134.38500000000045 Q 52.28451325935285 135.33000000000044 52.15552205998415 136.24125000000043 Q 52.00685913402975 137.15250000000043 51.82253433137604 138.03000000000043 Q 51.61952742484741 138.90750000000045 51.3833863581105 139.75125000000045 Q 51.12974155193853 140.59500000000045 50.84561128484185 141.40500000000043 Q 50.54528377907916 142.21500000000046 50.217169865755615 142.99125000000043 Q 49.87424030837105 143.76750000000047 49.50621365101656 144.51000000000045 Q 49.12478277080388 145.25250000000045 48.72088463324508 145.96125000000043 Q 48.30498592456069 146.67000000000044 47.869150533706495 147.34500000000045 Q 47.42268018144269 148.02000000000046 46.95867387244804 148.66125000000045 Q 46.48533669562622 149.30250000000046 45.99671222023078 149.91000000000048 L 45.99671222023078 149.91000000000048 L 46.09294476526981 151.26656250000048 L 46.150451418901426 152.62312500000047 L 46.17112866045013 153.97968750000047 L 46.157082054695145 155.33625000000046 L 46.11061429830005 156.69281250000049 L 46.034212147098586 158.04937500000048 L 45.930532298452135 159.40593750000045 L 45.80238630882653 160.76250000000047 L 45.65272463221335 162.11906250000047 L 45.48461987001152 163.47562500000043 L 45.301249327461704 164.83218750000046 L 45.10587697566341 166.18875000000045 L 44.90183492157823 167.54531250000045 L 44.69250449121699 168.90187500000047 L 44.48129703340369 170.25843750000047 L 44.271634553095986 171.61500000000046 L 44.06693028420944 172.97156250000046 L 43.8705693122361 174.32812500000045 L 43.68588935666535 175.68468750000048 L 43.51616182230798 177.04125000000047 L 43.36457322709736 178.39781250000047 L 43.23420711180467 179.7543750000005 L 43.12802653436926 181.11093750000046 L 43.048857248225815 182.46750000000046 L 42.99937166012759 183.82406250000048 L 42.98207365853898 185.18062500000045 L 42.99928439872872 186.53718750000044 L 43.05312912526381 187.89375000000047 L 43.14552510671432 189.25031250000046 L 43.27817075106552 190.60687500000046 L 43.452535963630666 191.96343750000045 L 43.66985380220365 193.32000000000045 L 43.12985380220364 193.32000000000045 L 42.58985380220365 193.32000000000045 L 42.04985380220364 193.32000000000045 L 41.50985380220365 193.32000000000045 L 40.969853802203644 193.32000000000045 L 40.42985380220365 193.32000000000045 L 39.889853802203646 193.32000000000045 L 39.34985380220364 193.32000000000045 L 38.80985380220365 193.32000000000045 L 38.26985380220364 193.32000000000045 L 37.729853802203635 193.32000000000045 L 37.18985380220364 193.32000000000045 L 36.64985380220364 193.32000000000045 L 36.109853802203645 193.32000000000045 L 35.56985380220364 193.32000000000045 L 35.02985380220365 193.32000000000045 L 34.48985380220364 193.32000000000045 L 33.94985380220365 193.32000000000045 L 33.40985380220364 193.32000000000045 L 32.86985380220365 193.32000000000045 L 32.329853802203644 193.32000000000045 L 31.78985380220365 193.32000000000045 L 31.249853802203642 193.32000000000045 L 30.709853802203643 193.32000000000045 L 30.169853802203644 193.32000000000045 L 29.629853802203638 193.32000000000045 L 29.08985380220364 193.32000000000045 L 28.54985380220364 193.32000000000045 L 28.00985380220364 193.32000000000045 L 27.46985380220364 193.32000000000045 L 26.929853802203642 193.32000000000045 L 26.389853802203643 193.32000000000045 L 26.14762301822635 191.16000000000048 L 26.012433920226535 189.00000000000045 L 25.978464222990986 186.8400000000005 L 26.038435830167384 184.68000000000046 L 26.18371951314663 182.52000000000044 L 26.404459022913308 180.36000000000044 L 26.689712849797253 178.20000000000044 L 27.02761159223425 176.04000000000045 L 27.40552867114369 173.88000000000045 L 27.810261934584787 171.72000000000045 L 28.228223540720826 169.56000000000046 L 28.64563538805631 167.40000000000043 L 29.04872728212721 165.2400000000004 L 29.423934988466456 163.08000000000044 L 29.758095323302793 160.9200000000004 L 30.038635476056406 158.76000000000045 L 29.538635476056406 158.76000000000045 Q 29.268635476056406 158.76000000000045 29.005197836479596 158.75030273437545 Q 28.741758875689253 158.74060546875046 28.48487698635456 158.72121093750044 Q 28.227989799829388 158.70181640625043 27.97764906983687 158.67272460937542 Q 27.72729637497363 158.6436328125004 27.48347412197365 158.60484375000044 Q 27.23963048338488 158.56605468750044 27.002295762021873 158.51756835937545 Q 26.76492739593584 158.46908203125042 26.534040766382354 158.4108984375004 Q 26.072120734693588 158.29453125000043 25.635920373607654 158.13937500000043 Q 25.199365392162967 157.98421875000045 24.788166738917244 157.79027343750045 Q 24.37639964251259 157.59632812500044 23.989517690659913 157.36359375000043 Q 23.601792345772704 157.13085937500043 23.2383623534959 156.85933593750042 Q 22.873745293946516 156.58781250000044 22.532702870820042 156.27750000000043 Q 22.190052557729544 155.96718750000042 21.870111747747487 155.61808593750044 Q 21.548056144245017 155.26898437500043 21.24768629019513 154.88109375000045 Q 20.944599613790317 154.49320312500043 20.662001972614785 154.06652343750042 Q 20.37598168197312 153.63984375000044 20.10906696605239 153.17437500000045 Q 19.837912252390485 152.70890625000044 19.584280494871102 152.20464843750045 Q 19.3254737774161 151.70039062500044 19.08239815549055 151.15734375000042 Q 18.833091318874942 150.61429687500043 18.597507809132612 150.03246093750045 Q 18.354515158572532 149.4506250000004 18.12302013166297 148.83000000000044 Q 17.883445266124735 148.20937500000042 17.651102765279227 147.55746093750042 Q 17.408881284339056 146.90554687500043 17.171740418142306 146.22234375000042 Q 16.923491739383074 145.5391406250004 16.67805721431064 144.82464843750043 Q 16.420250615571863 144.11015625000044 16.162901892579953 143.36437500000042 Q 15.891906112604781 142.6185937500004 15.618954375512837 141.84152343750043 Q 15.3311004453012 141.06445312500043 15.038859357987732 140.25609375000045 Q 14.7305175123958 139.44773437500044 14.415388448174749 138.60808593750045 Q 14.083059626702497 137.76843750000046 13.74163165367102 136.89750000000043 Q 13.382053648001083 136.0265625000004 13.011218038217294 135.1243359375004 Q 12.62148577285571 134.2221093750004 12.218564163686 133.28859375000042 Q 11.796262899804898 132.35507812500043 11.359147470082302 131.3902734375004 Q 10.902496901541348 130.42546875000042 10.429800036953218 129.42937500000042 Q 9.937806308685083 128.43328125000042 9.429016231691865 127.40589843750041 Q 8.901627870178874 126.37851562500042 8.357265621136566 125.31984375000044 Q 7.7955282511250665 124.26117187500046 7.217300261967745 123.17121093750046 Q 6.623503831558839 122.08125000000045 6.014443177144155 120.96000000000045 Q 5.392254277114133 119.83875000000045 4.759021735333022 118.69394531250043 Q 4.1158924164713175 117.54914062500043 3.464823390778174 116.38078125000042 Q 2.8076422497512303 115.21242187500042 2.1463298792634973 114.02050781250043 Q 1.4832198965623895 112.82859375000044 0.8204731158869485 111.61312500000042 Q 0.16072963236512416 110.39765625000041 -0.4935125097663158 109.15863281250041 Q -1.1395295373823529 107.91960937500042 -1.7743316770009154 106.6570312500004 Q -2.395355020902442 105.39445312500041 -2.9989706888487473 104.10832031250042 Q -3.583035422974265 102.82218750000042 -4.143145511920736 101.51250000000041 Q -4.677851818390696 100.20281250000042 -5.181856329146864 98.86957031250041 Q -5.65468454837788 97.53632812500044 -6.090045445257922 96.17953125000042 Q -6.488720027413568 94.82273437500042 -6.843350498713354 93.44238281250043 Q -7.156246844097709 92.06203125000044 -7.41893944141715 90.65812500000044 Q -7.635524695324569 89.25421875000043 -7.796407795084186 87.82675781250043 Q -7.907703583038919 86.39929687500045 -7.95871248561 84.94828125000045 Q -7.957764462917093 83.49726562500045 -7.893110360675199 82.02269531250045 Q -7.775446461313349 80.54812500000045 -7.592063637876658 79.05000000000045 L -7.592063637876658 79.05000000000045 Q -7.356120226093061 77.55187500000045 -7.063812031400878 76.07777343750045 Q -6.7240854296723045 74.60367187500046 -6.335170847522575 73.15359375000044 Q -5.904893287256108 71.70351562500043 -5.433202793531414 70.27746093750044 Q -4.926839002527631 68.85140625000045 -4.387134904193653 67.44937500000044 Q -3.8198158237120774 66.04734375000044 -3.2272511658459706 64.66933593750043 Q -2.614253990575201 63.29132812500045 -1.983884327154736 61.937343750000444 Q -1.3401711427082612 60.583359375000434 -0.6865292432112482 59.25339843750044 Q -0.02635241078080297 57.92343750000044 0.6369079699432112 56.61750000000043 Q 1.3003293105180684 55.31156250000043 1.9607180127853239 54.029648437500434 Q 2.6154492782665293 52.74773437500044 3.2618531377066025 51.48984375000044 Q 3.897425245992168 50.23195312500044 4.520253308063252 48.998085937500434 Q 5.127777275505517 47.76421875000043 5.719042802856853 46.554375000000434 Q 6.291263770495844 45.34453125000043 6.844609478223553 44.15871093750043 Q 7.3759071613045215 42.97289062500043 7.886581079784438 41.811093750000424 Q 8.372924382028698 40.64929687500043 8.837714269710844 39.51152343750043 Q 9.276578135200674 38.37375000000043 9.693712503992534 37.26000000000043 Q 10.083340057813405 36.146250000000435 10.451312725670647 35.064140625000434 Q 10.792413569381337 33.98203125000043 11.113715450991148 32.93156250000044 Q 11.408685190558757 31.88109375000043 11.686208495550428 30.862265625000433 Q 11.938373118081108 29.84343750000043 12.17581979165054 28.856250000000433 Q 12.389222370925133 27.869062500000435 12.590898833507008 26.913515625000436 Q 12.770100038164367 25.957968750000436 12.940727947873187 25.034062500000438 Q 13.090624375509442 24.110156250000436 13.235170660048619 23.21789062500044 Q 13.360833616847383 22.325625000000443 13.484361718483612 21.46500000000044 Q 13.59089784525813 20.604375000000438 13.698441011074994 19.77539062500044 Q 13.790875134152454 18.946406250000443 13.88733166911929 18.149062500000447 Q 13.970511428199348 17.351718750000444 14.06056110559593 16.586015625000446 Q 14.139082271686114 15.820312500000448 14.227122551704952 15.086250000000447 Q 14.305273481350103 14.352187500000445 14.395373806817691 13.649765625000448 Q 14.477097164935078 12.94734375000045 14.572969362601054 12.276562500000448 Q 14.661839063963921 11.605781250000451 14.766821758906424 10.966640625000451 Q 14.8660330056635 10.327500000000452 14.983087933225077 9.720000000000454 Q 15.096083241260908 9.112500000000452 15.231748571110192 8.542968750000451 Q 15.363754149946942 7.973437500000449 15.51985780633267 7.441875000000447 Q 15.673158687202214 6.910312500000446 15.851737218873295 6.416718750000444 Q 16.02821652140834 5.923125000000443 16.230930057800478 5.467500000000442 Q 16.432110551637315 5.01187500000044 16.660285394813002 4.594218750000439 Q 16.8873728688019 4.176562500000438 17.14204494668814 3.796875000000437 Q 17.395971761080045 3.417187500000436 17.677929499692823 3.075468750000435 Q 17.959397015794533 2.733750000000434 18.26922248805898 2.430000000000433 Q 18.578741354047175 2.1262500000004323 18.91684882568396 1.8604687500004315 Q 19.254776343077523 1.5946875000004308 19.621447559797698 1.3668750000004302 Q 19.98802156155801 1.1390625000004295 20.38343730664924 0.949218750000429 Q 20.77880614599375 0.7593750000004285 21.203073745106906 0.607500000000428 Q 21.627322126303298 0.4556250000004276 22.080498689875206 0.3417187500004273 Q 22.307084564424258 0.2847656250004271 22.540905147948042 0.237304687500427 Q 22.774724998244597 0.18984375000042686 23.015780449099726 0.15187500000042675 Q 23.25683559961978 0.11390625000042665 23.505126810581768 0.08542968750042657 Q 23.75341792651508 0.056953125000426486 24.00894529998608 0.03796875000042643 Q 24.264472654685928 0.01898437500042638 24.52723632792966 0.009492187500426352 Q 24.79000000000019 4.263256414560601e-13 25.06000000000019 4.263256414560601e-13 L 25.06000000000019 4.263256414560601e-13 Q 25.33437500000019 4.263256414560601e-13 25.609827473755658 0.009609375000426329 Q 25.885279946293938 0.019218750000426332 26.161809882850182 0.03843750000042634 Q 26.438339799931423 0.057656250000426346 26.715947117736942 0.08648437500042636 Q 26.993554336950577 0.11531250000042637 27.272238752402433 0.15375000000042638 Q 27.550922856257895 0.1921875000004264 27.830683679224624 0.2402343750004264 Q 28.110443741471475 0.2882812500004264 28.391279597815974 0.34593750000042645 Q 28.672113876782433 0.40359375000042647 28.954022357937017 0.4708593750004265 Q 29.235927916958317 0.5381250000004265 29.51890515665349 0.6150000000004265 Q 30.084844059373577 0.7687500000004266 30.655044559963397 0.9609375000004267 Q 31.225196396592498 1.1531250000004267 31.799550677990755 1.3837500000004268 Q 32.37380410168346 1.6143750000004269 32.95215825416319 1.883437500000427 Q 33.530325713154305 2.152500000000427 34.11243300424414 2.460000000000427 Q 34.69422221671905 2.7675000000004273 35.27971199453221 3.113437500000427 Q 35.86469323034536 3.4593750000004277 36.453035807579745 3.8437500000004277 Q 37.04060532037718 4.228125000000428 37.63107326513193 4.650937500000428 Q 38.22041337539081 5.0737500000004285 38.81203981352835 5.535000000000428 Q 39.4020763393323 5.996250000000428 39.9936110923231 6.495937500000428 Q 40.58296906219136 6.995625000000429 41.1728337051541 7.533750000000429 Q 41.75979256598108 8.071875000000428 42.34603579181004 8.64843750000043 Q 42.928485642609346 9.22500000000043 43.50874065576847 9.84000000000043 Q 44.08344469385837 10.45312500000043 44.65284723901112 11.097539062500429 Q 45.216321728069666 11.741953125000428 45.7727440333446 12.417656250000427 Q 46.32199234339402 13.093359375000428 46.86220675506325 13.800351562500428 Q 47.393860198690206 14.507343750000427 47.91426624966982 15.245625000000427 Q 48.42458967107067 15.983906250000427 48.92122600580465 16.753476562500428 Q 49.40613535873645 17.52304687500043 49.87470481426142 18.323906250000427 Q 50.32979878390385 19.12476562500043 50.76570868077286 19.95691406250043 Q 51.1863163661193 20.78906250000043 51.58473597482487 21.65250000000043 Q 51.965982512079336 22.51593750000043 52.32191946343868 23.41066406250043 Q 52.65881121608482 24.30539062500043 52.96720829673291 25.231406250000436 Q 53.2547388437864 26.157421875000438 53.510592140353936 27.114726562500437 Q 53.743869741676086 28.072031250000435 53.942368451656066 29.06062500000044 Q 54.11676494213786 30.049218750000442 54.25345234229453 31.069101562500443 Q 54.36477249439992 32.08898437500044 54.43572654158382 33.140156250000445 Q 54.48039583476648 34.191328125000446 54.48242667063399 35.27378906250045 Q 54.457694123031516 36.35625000000046 54.388554376229415 37.470000000000454 Q 54.29333064790221 38.58375000000045 54.156038876703626 39.72152343750045 Q 53.99304074319334 40.85929687500045 53.78820722579958 42.021093750000446 Q 53.559310267180294 43.182890625000454 53.28956605154137 44.36871093750045 Q 52.99808802965966 45.55453125000045 52.66757029389525 46.764375000000456 Q 52.31836745755865 47.97421875000045 51.93279977828222 49.20808593750046 Q 51.53232941740709 50.44195312500046 51.0990639316489 51.699843750000454 Q 50.65540516410125 52.95773437500044 50.1834186095337 54.23964843750045 Q 49.70624354618334 55.52156250000045 49.206079518207304 56.82750000000044 Q 48.70656749737916 58.13343750000044 48.1902180322254 59.46339843750044 Q 47.6809066029387 60.79335937500045 47.161627437774186 62.147343750000445 Q 46.65619525086821 63.501328125000434 46.14825086707471 64.87933593750043 Q 45.66122963849698 66.25734375000044 45.17956648694191 67.65937500000044 Q 44.72598174133871 69.06140625000043 44.28583087882465 70.48746093750043 Q 43.88077425062167 71.91351562500043 43.4971879551421 73.36359375000043 Q 43.15532737245265 74.81367187500044 42.842658086232035 76.28777343750043 Q 42.57769610622099 77.76187500000043 42.34903017424766 79.26000000000043 L 42.34903017424766 79.26000000000043 Z M 6.9990301742476575 79.26000000000043 L 6.9990301742476575 79.26000000000043 Q 6.842206945059956 80.57062500000043 6.738597809551364 81.84574218750043 Q 6.674570469874002 83.12085937500044 6.660297298261217 84.36046875000044 Q 6.683938129007351 85.60007812500044 6.753135272894916 86.80417968750044 Q 6.857901553252151 88.00828125000044 7.00351352964579 89.17687500000044 Q 7.181851217762935 90.34546875000044 7.396018318988401 91.47855468750043 Q 7.639734045623122 92.61164062500043 7.914141549271964 93.70921875000043 Q 8.214734367717968 94.80679687500043 8.540918659444802 95.86886718750043 Q 8.889866390028054 96.93093750000043 9.259474445823056 97.95750000000044 Q 9.648472364327299 98.98406250000045 10.053473667590954 99.97511718750046 Q 10.47462567883978 100.96617187500046 10.907477755775549 101.92171875000045 Q 11.353442066850738 102.87726562500043 11.807212427019959 103.79730468750043 Q 12.27130511677889 104.71734375000044 12.739753522261557 105.60187500000043 Q 13.216014341198195 106.48640625000043 13.69364005057919 107.33542968750044 Q 14.176865335436556 108.18445312500043 14.65892433889648 108.99796875000042 Q 15.144672153082771 109.8114843750004 15.627169496192101 110.5894921875004 Q 16.111742074033696 111.36750000000039 16.591404223162453 112.1100000000004 Q 17.071812564600986 112.8525000000004 17.544053826315047 113.5485937500004 Q 18.01599521773282 114.2446875000004 18.47892060508126 114.8943750000004 Q 18.9408073399171 115.54406250000041 19.393222433501123 116.1473437500004 Q 19.844122249226412 116.7506250000004 20.285419271872655 117.3075000000004 Q 20.724941757056907 117.86437500000041 21.15498866458248 118.37484375000042 Q 21.583176182287108 118.88531250000042 22.00221177363651 119.34937500000042 Q 22.41943746184576 119.81343750000042 22.82797456492084 120.23109375000044 Q 23.23484909718958 120.64875000000043 23.63358709846237 121.02000000000041 Q 24.030875170138945 121.3912500000004 24.420622525439725 121.71609375000041 Q 24.809169467703143 122.04093750000041 25.190776349821554 122.3193750000004 Q 25.571444854229693 122.5978125000004 25.945745746779817 122.82984375000042 Q 26.3193623921785 123.06187500000041 26.687128212487767 123.24750000000041 Q 27.05443930720067 123.43312500000042 27.41633851660572 123.57234375000043 Q 27.777974684496503 123.71156250000041 28.1345428051933 123.80437500000042 Q 28.490991737542053 123.89718750000043 28.84260872460224 123.94359375000043 Q 29.194195574793216 123.99000000000042 29.541070574793217 123.99000000000042 L 29.541070574793217 123.99000000000042 Q 29.901070574793216 123.99000000000042 30.230577474602242 123.94359375000043 Q 30.560054237542055 123.89718750000043 30.8589178051933 123.80437500000042 Q 31.157662184496505 123.71156250000041 31.425557266605722 123.57234375000043 Q 31.693189307200672 123.43312500000042 31.929628212487767 123.24750000000041 Q 32.165612392178495 123.06187500000041 32.369964496779815 122.82984375000042 Q 32.573632354229694 122.5978125000004 32.745151349821555 122.3193750000004 Q 32.91573196770314 122.04093750000041 33.05359127543972 121.71609375000041 Q 33.19025017013894 121.3912500000004 33.293587098462375 121.02000000000041 Q 33.395474097189584 120.64875000000043 33.46344331492084 120.23109375000044 Q 33.52974996184576 119.81343750000042 33.561586773636506 119.34937500000042 Q 33.591613682287104 118.88531250000042 33.586707414582484 118.37484375000042 Q 33.57994175705691 117.86437500000041 33.53791927187265 117.3075000000004 Q 33.494122249226415 116.7506250000004 33.41494118350112 116.1473437500004 Q 33.3342448399171 115.54406250000041 33.21829560508125 114.8943750000004 Q 33.10130771773282 114.2446875000004 32.94952257631505 113.5485937500004 Q 32.79743756460099 112.8525000000004 32.611404223162445 112.1100000000004 Q 32.426117074033684 111.36750000000039 32.21752105869209 110.5894921875004 Q 32.01100027808277 109.8114843750004 31.782830588896477 108.99796875000042 Q 31.558349710436556 108.18445312500043 31.314304113079196 107.33542968750044 Q 31.0758580911982 106.48640625000043 30.820378522261564 105.60187500000043 Q 30.572711366778897 104.71734375000044 30.31100148951997 103.79730468750043 Q 30.059613941850746 102.87726562500043 29.797634005775556 101.92171875000045 Q 29.54876630383979 100.96617187500046 29.293200230090964 99.97511718750046 Q 29.053784864327305 98.98406250000045 28.81197444582306 97.95750000000044 Q 28.589553890028057 96.93093750000043 28.369395221944806 95.86886718750043 Q 28.171999992717968 94.80679687500043 27.98179779927196 93.70921875000043 Q 27.817780920623115 92.61164062500043 27.666057381488393 91.47855468750043 Q 27.543882467762927 90.34546875000044 27.43913852964579 89.17687500000044 Q 27.36712030325215 88.00828125000044 27.317549335394922 86.80417968750044 Q 27.303547504007355 85.60007812500044 27.316703548261223 84.36046875000044 Q 27.367773594874002 83.12085937500044 27.45019937205136 81.84574218750043 Q 27.572206945059957 80.57062500000043 27.72903017424766 79.26000000000043 L 27.72903017424766 79.26000000000043 Q 27.925928842759944 77.95125000000043 28.14634160355127 76.67707031250043 Q 28.402791155082923 75.40289062500042 28.676374968939975 74.16328125000044 Q 28.98142683396604 72.92367187500044 29.29719649625411 71.71863281250043 Q 29.639721516553223 70.51359375000044 29.98670870716069 69.34312500000044 Q 30.35575835789839 68.17265625000043 30.723336785863303 67.03675781250044 Q 31.108439696847118 65.90085937500044 31.48658577951147 64.79953125000043 Q 31.877979955131725 63.698203125000425 32.25747086569682 62.63144531250043 Q 32.64627459874247 61.56468750000043 33.01882774073132 60.532500000000425 Q 33.39715413162999 59.50031250000041 33.755513673959385 58.50269531250041 Q 34.116534961558266 57.50507812500041 34.45451206198468 56.54203125000042 Q 34.79248072121928 55.578984375000424 35.10495456121534 54.65050781250042 Q 35.41518841341629 53.72203125000041 35.69807525250633 52.82812500000041 Q 35.97691375504413 51.93421875000042 36.22711097550786 51.07488281250042 Q 36.47184949567996 50.21554687500041 36.68716113266125 49.39078125000041 Q 36.895969446279324 48.56601562500042 37.075019058966205 47.775820312500414 Q 37.246849617916126 46.98562500000042 37.388985619834365 46.230000000000416 Q 37.52347636529779 45.47437500000042 37.61995525657561 44.76597656250043 Q 37.70889112755329 44.057578125000425 37.76104796607832 43.396406250000425 Q 37.80600209040736 42.735234375000424 37.815640142491745 42.12128906250042 Q 37.81859263709198 41.50734375000043 37.78784064138628 40.94062500000043 Q 37.75104270520644 40.37390625000043 37.68222916796366 39.85441406250044 Q 37.608084540309115 39.33492187500043 37.503629362351795 38.86265625000044 Q 37.39459304481759 38.39039062500044 37.25691596772036 37.965351562500445 Q 37.11540940281485 37.54031250000044 36.94685418087709 37.16250000000045 Q 36.77519559382422 36.784687500000445 36.577968418481596 36.45410156250045 Q 36.378316728704526 36.12351562500045 36.154437220911255 35.84015625000045 Q 35.92874778427498 35.55679687500045 35.68001079688925 35.32066406250045 Q 35.430001218691984 35.08453125000045 35.15794772638936 34.89562500000045 Q 34.8850720611899 34.70671875000045 34.590967534773114 34.565039062500446 Q 34.296397339008934 34.42335937500045 33.98121618292388 34.32890625000046 Q 33.66582709044017 34.23445312500046 33.33024194949681 34.187226562500456 Q 32.994604682907976 34.140000000000455 32.63897968290797 34.140000000000455 L 32.63897968290797 34.140000000000455 Q 32.28335468290797 34.140000000000455 31.933913824496802 34.187226562500456 Q 31.584420840440167 34.23445312500046 31.24090368292388 34.32890625000046 Q 30.897178589008927 34.42335937500045 30.559014409773116 34.565039062500446 Q 30.220384561189906 34.70671875000045 29.886697726389365 34.89562500000045 Q 29.55218871869199 35.08453125000045 29.221807671889252 35.32066406250045 Q 28.89015403427499 35.55679687500045 28.561624720911254 35.84015625000045 Q 28.23128547870452 36.12351562500045 27.902890293481597 36.45410156250045 Q 27.572070593824222 36.784687500000445 27.241854180877095 37.16250000000045 Q 26.90853440281485 37.54031250000044 26.57433784272036 37.965351562500445 Q 26.236311794817595 38.39039062500044 25.8958168623518 38.86265625000044 Q 25.55074079030912 39.33492187500043 25.201526042963668 39.85441406250044 Q 24.846980205206442 40.37390625000043 24.486590641386286 40.94062500000043 Q 24.120155137091984 41.50734375000043 23.74618701749175 42.12128906250042 Q 23.365533340407367 42.735234375000424 22.975735466078326 43.396406250000425 Q 22.57873487755329 44.057578125000425 22.17112713157561 44.76597656250043 Q 21.755976365297794 45.47437500000042 21.328985619834373 46.230000000000416 Q 20.89497461791613 46.98562500000042 20.449511246466216 47.775820312500414 Q 19.996828821279326 48.56601562500042 19.532629882661254 49.39078125000041 Q 19.06192762067996 50.21554687500041 18.580040663007853 51.07488281250042 Q 18.092695005044124 51.93421875000042 17.594950252506322 52.82812500000041 Q 17.093157163416283 53.72203125000041 16.582259248715324 54.65050781250042 Q 16.06912134621927 55.578984375000424 15.548730811984669 56.54203125000042 Q 15.028331836558257 57.50507812500041 14.503130861459375 58.50269531250041 Q 13.98059163162998 59.50031250000041 13.45632774073131 60.532500000000425 Q 12.937837098742465 61.56468750000043 12.421338053196807 62.63144531250043 Q 11.914151830131722 63.698203125000425 11.413304529511468 64.79953125000043 Q 10.925705321847124 65.90085937500044 10.449391473363306 67.03675781250044 Q 9.990602107898393 68.17265625000043 9.548583707160692 69.34312500000044 Q 9.128627766553219 70.51359375000044 8.731376183754099 71.71863281250043 Q 8.360879958966034 72.92367187500044 8.019343718939968 74.16328125000044 Q 7.709275530082923 75.40289062500042 7.434583791051275 76.67707031250043 Q 7.195928842759942 77.95125000000043 6.9990301742476575 79.26000000000043 L 6.9990301742476575 79.26000000000043 Z" fill="black" stroke="black" />
				</svg>