<svg
					xmlns="http://www.w3.org/2000/svg" xmlns:xlink="http://www.w3.org/1999/xlink"
					style="
						overflow: visible;
						height: 100;
					"
					viewBox="-7.9971738217170145 4.263256414560601e-14 58.22273183631675 154.22999999999996"
				>
					<path d="M 1.8947806286936004e-14 4.263256414560601e-14 L 0.526562500000019 4.263256414560601e-14 L 1.053125000000019 4.263256414560601e-14 L 1.579687500000019 4.263256414560601e-14 L 2.1062500000000193 4.263256414560601e-14 L 2.632812500000019 4.263256414560601e-14 L 3.1593750000000194 4.263256414560601e-14 L 3.6859375000000196 4.263256414560601e-14 L 4.212500000000019 4.263256414560601e-14 L 4.739062500000019 4.263256414560601e-14 L 5.265625000000019 4.263256414560601e-14 L 5.792187500000019 4.263256414560601e-14 L 6.318750000000019 4.263256414560601e-14 L 6.845312500000019 4.263256414560601e-14 L 7.37187500000002 4.263256414560601e-14 L 7.8984375000000195 4.263256414560601e-14 L 8.42500000000002 4.263256414560601e-14 L 8.951562500000021 4.263256414560601e-14 L 9.47812500000002 4.263256414560601e-14 L 10.004687500000019 4.263256414560601e-14 L 10.53125000000002 4.263256414560601e-14 L 11.05781250000002 4.263256414560601e-14 L 11.584375000000021 4.263256414560601e-14 L 12.110937500000022 4.263256414560601e-14 L 12.63750000000002 4.263256414560601e-14 L 13.16406250000002 4.263256414560601e-14 L 13.69062500000002 4.263256414560601e-14 L 14.217187500000021 4.263256414560601e-14 L 14.743750000000022 4.263256414560601e-14 L 15.270312500000022 4.263256414560601e-14 L 15.796875000000021 4.263256414560601e-14 L 16.32343750000002 4.263256414560601e-14 L 16.85000000000002 4.263256414560601e-14 Q 17.17734375000002 4.263256414560601e-14 17.504517415049772 0.011125488281292631 Q 17.831691078210532 0.02225097656254263 18.15869464130913 0.044501953125042626 Q 18.485698174183916 0.06675292968754262 18.81253150876931 0.10012939453129262 Q 19.13936469034733 0.1335058593750426 19.46602735628899 0.1780078125000426 Q 19.792689538657278 0.2225097656250426 20.11918046492792 0.2781372070312926 Q 20.44567021062758 0.3337646484375426 20.77198726470055 0.4005175781250426 Q 21.09830187084699 0.46727050781254253 21.424441314927872 0.5451489257812926 Q 21.75057622424359 0.6230273437500425 22.076532058547453 0.7120312500000425 Q 22.402480157580765 0.8010351562500425 22.728243351021657 0.9011645507812925 Q 23.05399415600629 1.0012939453125425 23.37955176488356 1.1125488281250424 Q 23.705090495943644 1.2238037109375424 24.030424671501216 1.3461840820312925 Q 24.35573121623374 1.4685644531250424 24.680818102344404 1.6020703125000424 Q 25.005865870227954 1.7355761718750422 25.330674392925122 1.8802075195312924 Q 25.6554290625195 2.0248388671875426 25.97991961367423 2.1805957031250425 Q 26.304337775200477 2.3363525390625424 26.628460793331538 2.503234863281292 Q 26.95248848996566 2.6701171875000425 27.276182941983773 2.848125000000042 Q 27.923194371787385 3.204140625000042 28.568580902828845 3.6046582031250423 Q 29.213179562857523 4.005175781250042 29.85562840735375 4.450195312500042 Q 30.496880637519265 4.895214843750042 31.135267831267658 5.384736328125042 Q 31.77191138597237 5.8742578125000415 32.40474611414865 6.408281250000042 Q 33.03512675801823 6.942304687500041 33.660486721745414 7.520830078125042 Q 34.28249367383294 8.099355468750042 34.89796061090929 8.722382812500042 Q 35.508963313849286 9.345410156250042 36.11156149218859 10.01293945312504 Q 36.70835080704575 10.680468750000042 37.294491964727825 11.392500000000041 Q 37.87322956470885 12.10453125000004 38.43866846037491 12.861064453125042 Q 38.99484888899336 13.617597656250041 39.53465431637559 14.418632812500041 Q 40.063084848249126 15.219667968750041 40.57163161210793 16.06520507812504 Q 41.06643565438283 16.91074218750004 41.53742354152047 17.80078125000004 Q 41.99207377395983 18.69082031250004 42.4185799074875 19.625361328125038 Q 42.82596759836528 20.55990234375004 43.200538647413296 21.53894531250004 Q 43.55308550627315 22.51798828125004 43.86787593630575 23.54153320312504 Q 44.15769436872202 24.565078125000042 44.40465615078206 25.63312500000004 Q 44.62376275417537 26.701171875000036 44.79489059373029 27.813720703125036 Q 44.935476068213546 28.926269531250036 45.02311016116614 30.08332031250004 Q 45.077866407948974 31.240371093750042 45.07505189607774 32.44192382812504 Q 45.03755386510543 33.64347656250004 44.93845249135479 34.88953125000004 Q 44.80358828671283 36.13558593750004 44.603933237613916 37.42614257812504 Q 44.36837111930218 38.71669921875004 44.06595075152471 40.051757812500036 Q 43.72862608926717 41.386816406250034 43.32377632317196 42.76637695312503 Q 42.886375464009355 44.14593750000004 42.38245435087773 45.570000000000036 L 42.38245435087773 45.570000000000036 Q 42.05745753057331 46.44750000000003 41.71892225165961 47.310234375000036 Q 41.37136493824062 48.17296875000004 41.01242027222061 49.02093750000003 Q 40.64626649419449 49.86890625000002 40.27075508424759 50.70210937500002 Q 39.88977435144981 51.535312500000025 39.50132681039312 52.353750000000026 Q 39.10906023371349 53.17218750000003 38.71106521547516 53.97585937500003 Q 38.31079883960072 54.779531250000026 37.906380096814765 55.56843750000002 Q 37.50112504425269 56.35734375000002 37.09312502826622 57.131484375000014 Q 36.685603974524035 57.905625000000015 36.27657346715182 58.66500000000002 Q 35.86921290969161 59.424375000000026 35.46140612921523 60.16898437500002 Q 35.056333874789416 60.91359375000002 34.65170847001015 61.64343750000002 Q 34.25075574418147 62.37328125000002 33.850977077702034 63.08835937500001 Q 33.45568465461754 63.803437500000015 33.06213377780085 64.50375000000003 Q 32.67376153547287 65.20406250000002 32.287546270573294 65.88960937500002 Q 31.907085594906874 66.57515625000002 31.529054162619264 67.24593750000003 Q 31.15724265018539 67.91671875000002 30.78799931134695 68.57273437500001 Q 30.425337254526962 69.22875000000002 30.06525947110841 69.87000000000002 Q 29.712027647969933 70.51125000000002 29.36328501371654 71.13949218750003 Q 29.02160416215784 71.76773437500003 28.684296865019025 72.38296875000003 Q 28.35419031304803 72.99820312500003 28.028256039805978 73.60042968750003 Q 27.70959122526082 74.20265625000002 27.394820954892527 74.79187500000002 Q 27.087325308936155 75.38109375000002 26.783379103948366 75.95730468750003 Q 26.486655829697664 76.53351562500004 26.193078415543468 77.09671875000002 Q 25.90662196568278 77.65992187500002 25.62285791848548 78.21011718750003 Q 25.34606900538904 78.76031250000003 25.071477397112822 79.29750000000003 Q 24.80367739729854 79.83468750000002 24.537545774879597 80.35886718750001 Q 24.277990416238783 80.88304687500002 24.01954801676812 81.39421875000002 Q 23.76744026174285 81.90539062500002 23.515870389392376 82.40355468750002 Q 23.270372449953122 82.90171875000003 23.024823961841296 83.38687500000003 Q 22.78506840266389 83.87203125000002 22.544666270208086 84.34417968750002 Q 22.30976617482586 84.81632812500001 22.073621104315038 85.27546875000002 Q 21.842679295239506 85.73460937500002 21.609896406413576 86.18074218750002 Q 21.382013724323645 86.62687500000003 21.151700298731573 87.06000000000003 L 21.151700298731573 87.06000000000003 L 21.789121052910488 89.15906250000003 L 22.53207251543901 91.25812500000004 L 23.376821565384077 93.35718750000002 L 24.318252308476247 95.45625000000003 L 25.349935569151363 97.55531250000001 L 26.46421622162364 99.65437500000002 L 27.65231717372349 101.75343750000003 L 28.90445859102974 103.85250000000002 L 30.209990741808518 105.95156250000001 L 31.557538658251797 108.05062500000003 L 32.93515664900154 110.14968750000003 L 34.330490564129846 112.24875000000002 L 35.730945608439306 114.34781250000003 L 37.12385742358208 116.44687500000003 L 38.49666411509408 118.54593750000002 L 39.837076887605114 120.64500000000004 L 41.13324697039183 122.74406250000004 L 42.37392656583087 124.84312500000003 L 43.548621634499604 126.94218750000005 L 44.647734441559294 129.04125000000005 L 45.662693928133855 131.14031250000005 L 46.58607213677712 133.23937500000005 L 47.41168510955653 135.33843750000005 L 48.13467688819858 137.43750000000006 L 48.751585475275014 139.53656250000003 L 49.26038986044244 141.63562500000003 L 49.6605374729516 143.73468750000006 L 49.95295168752371 145.83375000000004 L 50.14001928163721 147.9328125 L 50.225558014599734 150.03187500000004 L 50.21476476879676 152.13093750000004 L 50.114144957543225 154.23000000000002 L 49.12851995754322 154.23000000000002 L 48.14289495754322 154.23000000000002 L 47.15726995754322 154.23000000000002 L 46.17164495754322 154.23000000000002 L 45.18601995754322 154.23000000000002 L 44.200394957543224 154.23000000000002 L 43.214769957543226 154.23000000000002 L 42.22914495754323 154.23000000000002 L 41.24351995754323 154.23000000000002 L 40.25789495754323 154.23000000000002 L 39.27226995754323 154.23000000000002 L 38.28664495754323 154.23000000000002 L 37.30101995754323 154.23000000000002 L 36.31539495754323 154.23000000000002 L 35.32976995754323 154.23000000000002 L 34.34414495754323 154.23000000000002 L 34.48594204810741 152.47500000000002 L 34.56575399998043 150.72000000000003 L 34.579596104635165 148.96500000000003 L 34.524110282760745 147.21000000000004 L 34.39659698172319 145.455 L 34.195040817864516 143.70000000000002 L 33.91812972007109 141.94500000000005 L 33.56526739277196 140.19000000000003 L 33.136578979984456 138.43500000000003 L 32.63290987660606 136.68000000000006 L 32.055817698243544 134.92500000000004 L 31.407557485855918 133.17000000000004 L 30.691060285748 131.41500000000005 L 29.909905308377454 129.66000000000003 L 29.068285930430875 127.90500000000003 L 28.17096986310589 126.15000000000003 L 27.223253864949534 124.39500000000004 L 26.230913429423186 122.64000000000003 L 25.200147925097728 120.88500000000002 L 24.137521709577083 119.13000000000002 L 23.049901776492508 117.37500000000003 L 21.944392527841472 115.62000000000002 L 20.828268291250602 113.86500000000004 L 19.70890422316229 112.11000000000004 L 18.593706254276547 110.35500000000003 L 17.49004074267668 108.60000000000005 L 16.40516450284424 106.84500000000006 L 15.346155875198207 105.09000000000005 L 14.319847490909549 103.33500000000004 L 13.332761370639588 101.58000000000004 L 12.39104697368111 99.82500000000005 L 11.500422785956232 98.07000000000004 L 10.617922785956232 98.07000000000004 L 9.735422785956235 98.07000000000004 L 8.852922785956235 98.07000000000004 L 7.970422785956235 98.07000000000004 L 8.521359473681112 99.82500000000005 L 9.12338637063959 101.58000000000004 L 9.77078499090955 103.33500000000004 L 10.457405875198209 105.09000000000005 L 11.176727002844244 106.84500000000006 L 11.921915742676681 108.60000000000005 L 12.685893754276547 110.35500000000003 L 13.46140422316229 112.11000000000004 L 14.241080791250605 113.86500000000004 L 15.017517527841475 115.62000000000002 L 15.783339276492509 117.37500000000003 L 16.531271709577084 119.13000000000002 L 17.254210425097728 120.88500000000002 L 17.945288429423186 122.64000000000003 L 18.597941364949534 124.39500000000004 L 19.20596986310589 126.15000000000003 L 19.763598430430875 127.90500000000003 L 20.265530308377453 129.66000000000003 L 20.706997785748 131.41500000000005 L 21.083807485855917 133.17000000000004 L 21.392380198243547 134.92500000000004 L 21.62978487660606 136.68000000000006 L 21.793766479984455 138.43500000000003 L 21.88276739277196 140.19000000000003 L 21.895942220071095 141.94500000000005 L 21.83316581786452 143.70000000000002 L 21.695034481723187 145.455 L 21.48286028276074 147.21000000000004 L 21.198658604635163 148.96500000000003 L 20.845128999980428 150.72000000000003 L 20.42562954810741 152.47500000000002 L 19.94414495754323 154.23000000000002 L 19.075394957543228 154.23000000000002 L 18.20664495754323 154.23000000000002 L 17.337894957543227 154.23000000000002 L 16.46914495754323 154.23000000000002 L 15.600394957543227 154.23000000000002 L 14.731644957543228 154.23000000000002 L 13.862894957543228 154.23000000000002 L 12.994144957543227 154.23000000000002 L 12.125394957543229 154.23000000000002 L 11.256644957543227 154.23000000000002 L 10.387894957543228 154.23000000000002 L 9.519144957543228 154.23000000000002 L 8.650394957543227 154.23000000000002 L 7.781644957543227 154.23000000000002 L 6.9128949575432275 154.23000000000002 L 6.044144957543227 154.23000000000002 L 6.689633348659099 151.82015625000003 L 7.215396341793654 149.41031250000003 L 7.612024275711932 147.00046875000004 L 7.8724186392155096 144.59062500000005 L 7.991919114290267 142.18078125000002 L 7.968386982535422 139.77093750000003 L 7.802243402136015 137.36109375000004 L 7.496461870330027 134.95125000000004 L 7.056515006270518 132.54140625000005 L 6.4902766067180675 130.13156250000003 L 5.807880727487905 127.72171875000002 L 5.021540312692746 125.31187500000003 L 4.145328617801654 122.90203125000004 L 3.194927338420232 120.49218750000004 L 2.187345952569985 118.08234375000005 L 1.140617299441351 115.67250000000004 L 0.07347484289442138 113.26265625000002 L -0.9949826042280181 110.85281250000003 L -2.0456326944944094 108.44296875000003 L -3.059671781480466 106.03312500000004 L -4.018951451524283 103.62328125000005 L -4.906303328679755 101.21343750000003 L -5.70584633978414 98.80359375000002 L -6.403270940469528 96.39375000000003 L -6.9860952152815035 93.98390625000003 L -7.443888268441755 91.57406250000003 L -7.768456907195744 89.16421875000003 L -7.9539922766448905 86.75437500000004 L -7.9971738217170145 84.34453125000005 L -7.897228715651701 81.93468750000004 L -7.6559456913998165 79.52484375000003 L -7.277643028394491 77.11500000000004 L -6.7690912676392605 74.70515625000004 L -6.139392038293318 72.29531250000004 L -5.399815164413186 69.88546875000003 L -4.563596967176444 67.47562500000004 L -3.645703372403733 65.06578125000004 L -2.662562063080211 62.655937500000036 L -1.6317684705839341 60.24609375000004 L -0.5717708665414574 57.836250000000035 L 0.49845980872972906 55.426406250000035 L 1.559769472060878 53.01656250000004 L 2.593163701007414 50.60671875000004 L 3.5801476799518266 48.196875000000034 L 4.503057204666234 45.787031250000034 L 5.345374821295067 43.37718750000003 L 6.092025441769741 40.96734375000004 L 6.729646144980799 38.55750000000004 L 7.246825335034366 36.14765625000004 L 7.634306976340804 33.73781250000005 L 7.885156250308723 31.32796875000004 L 7.994883668860998 28.91812500000004 L 7.961525423494094 26.508281250000042 L 7.7856785318611985 24.09843750000004 L 7.470490152855371 21.688593750000038 L 7.021601261422288 19.27875000000004 L 6.44704569116316 16.868906250000045 L 5.7571063515778675 14.45906250000004 L 4.964131193250486 12.04921875000004 L 4.082312214676582 9.639375000000042 L 3.127431465881124 7.229531250000042 L 2.116578594639375 4.819687500000042 L 1.0678449904195266 2.4098437500000425 L 1.8947806286936004e-14 4.263256414560601e-14 L 1.8947806286936004e-14 4.263256414560601e-14 Z M 24.509500028841796 31.530000000000015 L 24.509500028841796 31.530000000000015 L 23.824500028841797 31.530000000000015 L 23.139500028841795 31.530000000000015 L 22.454500028841796 31.530000000000015 L 21.769500028841797 31.530000000000015 L 21.53517822398078 33.73125000000002 L 21.186812642521243 35.93250000000002 L 20.729606689725138 38.13375000000002 L 20.170389478418723 40.33500000000002 L 19.517513825110722 42.536250000000024 L 18.780731487123397 44.737500000000026 L 17.97104750427248 46.93875000000003 L 17.100555820739345 49.14000000000003 L 16.182258642389463 51.34125000000003 L 15.22987222772873 53.54250000000003 L 14.257622013324944 55.743750000000034 L 13.280030133828625 57.945000000000036 L 12.31169851032651 60.14625000000004 L 11.367090746955192 62.34750000000004 L 10.460316093502815 64.54875000000004 L 9.604918700868007 66.75000000000004 L 10.252418700868008 66.75000000000004 L 10.899918700868007 66.75000000000004 L 11.547418700868006 66.75000000000004 L 12.194918700868007 66.75000000000004 Q 12.591168700868009 66.75000000000004 12.994553805555896 66.68437500000005 Q 13.39799567338173 66.61875000000005 13.808798384871398 66.48750000000004 Q 14.219824200710168 66.35625000000005 14.638650452719503 66.15937500000004 Q 15.057963750966712 65.96250000000003 15.485706810754392 65.70000000000005 Q 15.914278069259197 65.43750000000004 16.35206112945592 65.10937500000004 Q 16.791061359753975 64.78125000000004 17.24015733297762 64.38750000000005 Q 17.69086815675355 63.993750000000034 18.152594940753367 63.534375000000026 Q 18.616293405806207 63.07500000000003 19.09188291943181 62.550000000000026 Q 19.57128966931783 62.02125000000002 20.064681549617 61.389843750000026 Q 20.56068888940557 60.758437500000035 21.071697896357726 60.024375000000035 Q 21.585259718411905 59.29031250000003 22.114164452187435 58.45359375000003 Q 22.64489484807923 57.616875000000036 23.190241717588727 56.67750000000004 Q 23.735744496653105 55.73812500000004 24.29363213832736 54.69609375000004 Q 24.848766050739183 53.65406250000004 25.412086759347446 52.50937500000005 Q 25.968210423789834 51.36468750000005 26.525905358594375 50.117343750000046 Q 27.070169818427214 48.87000000000005 27.60658091990917 47.52000000000005 L 27.60658091990917 47.52000000000005 Q 27.969375434282647 46.575000000000045 28.275599346169123 45.68250000000005 Q 28.570660529574162 44.79000000000004 28.81016361719717 43.95000000000004 Q 29.038446023954712 43.110000000000035 29.212723996681113 42.32250000000003 Q 29.376122728029912 41.53500000000004 29.48746846387243 40.80000000000004 Q 29.58857807746943 40.06500000000003 29.639854858937348 39.382500000000036 Q 29.681752826387978 38.70000000000004 29.67619379855748 38.070000000000036 Q 29.662251336060123 37.44000000000004 29.603286832773325 36.86250000000004 Q 29.537007880175892 36.285000000000046 29.428120493361842 35.76000000000005 Q 29.31238646521183 35.231250000000045 29.14634587507292 34.76859375000004 Q 28.975360627052805 34.30593750000004 28.756795388308245 33.90937500000004 Q 28.534536019727458 33.51281250000004 28.267104562053706 33.18234375000003 Q 27.997076264737867 32.85187500000003 27.68392520843427 32.58750000000002 Q 27.369097709779403 32.32312500000002 27.012810896953447 32.12484375000002 Q 26.655575468280283 31.926562500000017 26.258140409698825 31.79437500000002 Q 25.860282131302128 31.662187500000016 25.423069094952957 31.59609375000002 Q 24.985750028841796 31.530000000000015 24.509500028841796 31.530000000000015 L 24.509500028841796 31.530000000000015 Z" fill="black" stroke="black" />
				</svg>