<svg
					xmlns="http://www.w3.org/2000/svg" xmlns:xlink="http://www.w3.org/1999/xlink"
					style="
						overflow: visible;
						height: 100;
					"
					viewBox="0 0 51.38406910516138 154.23"
				>
					<path d="M 15.12 0 L 16.188067156682422 1.7887499999999998 L 17.248302741451177 3.5774999999999997 L 18.292952458598652 5.366249999999999 L 19.314415802324422 7.154999999999999 L 20.30532105295041 8.94375 L 21.258598015642452 10.732499999999998 L 22.167547783905903 12.52125 L 23.02590883948029 14.309999999999999 L 23.82791883640781 16.098749999999995 L 24.568371459635692 17.8875 L 25.242667797113548 19.67625 L 25.846861718483538 21.464999999999996 L 26.377698812599665 23.25375 L 26.83264849966939 25.0425 L 27.20992900115846 26.831249999999997 L 27.508524921074326 28.619999999999997 L 27.728197265148815 30.408749999999998 L 27.869485799058253 32.19749999999999 L 27.933703722411774 33.98625 L 27.92292471106099 35.775 L 27.83996245558802 37.56375 L 27.68834289787108 39.3525 L 27.472269439676857 41.14125 L 27.196581466575626 42.92999999999999 L 26.86670659643486 44.71875 L 26.48860712366807 46.5075 L 26.06872118768772 48.29625 L 25.61389924606883 50.085 L 25.13133647925943 51.873749999999994 L 24.62850179381859 53.662499999999994 L 24.11306412472605 55.45125 L 23.59281676395812 57.239999999999995 L 24.664314124726054 55.45125 L 25.73100179381859 53.662499999999994 L 26.78508647925943 51.873749999999994 L 27.81889924606883 50.085 L 28.824971187687723 48.29625 L 29.796107123668076 46.5075 L 30.72545659643486 44.71875 L 31.606581466575626 42.92999999999999 L 32.43351943967686 41.14125 L 33.20084289787108 39.3525 L 33.903712455588014 37.56375 L 34.53792471106099 35.775 L 35.099953722411776 33.98625 L 35.586985799058255 32.19749999999999 L 35.99694726514881 30.408749999999998 L 36.328524921074326 28.619999999999997 L 36.58117900115846 26.831249999999997 L 36.75514849966939 25.0425 L 36.85144881259966 23.25375 L 36.87186171848354 21.464999999999996 L 36.81891779711355 19.67625 L 36.6958714596357 17.8875 L 36.50666883640781 16.098749999999995 L 36.25590883948029 14.309999999999999 L 35.9487977839059 12.52125 L 35.59109801564245 10.732499999999998 L 35.18907105295041 8.94375 L 34.74941580232442 7.154999999999999 L 34.279202458598654 5.366249999999999 L 33.78580274145118 3.5774999999999997 L 33.27681715668242 1.7887499999999998 L 32.76 0 L 33.700625 0 L 34.64125 0 L 35.581875 0 L 36.522499999999994 0 L 37.46312499999999 0 L 38.403749999999995 0 L 39.344375 0 L 40.285 0 L 41.225624999999994 0 L 42.16625 0 L 43.106875 0 L 44.0475 0 L 44.988125 0 L 45.92875 0 L 46.869375000000005 0 L 47.81 0 L 48.197401787595396 1.4681249999999997 L 48.58047007146561 2.9362499999999994 L 48.95490016028705 4.404374999999999 L 49.31644479597266 5.872499999999999 L 49.66094239264744 7.340624999999998 L 49.9843447060105 8.808749999999998 L 50.28274374911674 10.276874999999997 L 50.55239777562196 11.744999999999997 L 50.78975615773492 13.213124999999998 L 50.99148299346922 14.681249999999997 L 51.15447928623598 16.149374999999996 L 51.27590354931079 17.617499999999996 L 51.353190698180796 19.085624999999997 L 51.38406910516138 20.553749999999994 L 51.366575702890586 22.021874999999994 L 51.299069036281644 23.489999999999995 L 51.18024017615456 24.958124999999992 L 51.00912142198467 26.426249999999996 L 50.78509273590566 27.894374999999997 L 50.50788586518898 29.362499999999994 L 50.17758612579035 30.83062499999999 L 49.79463183510492 32.29874999999999 L 49.35981139770263 33.766875 L 48.8742580634199 35.23499999999999 L 48.33944239265989 36.703124999999986 L 47.75716247899771 38.17124999999999 L 47.12953199409798 39.639374999999994 L 46.45896613443129 41.10749999999999 L 45.74816556322621 42.57562499999999 L 45.00009845442303 44.04374999999999 L 44.217980758014505 45.51187499999999 L 43.405254817984435 46.97999999999999 L 42.56556648500831 48.44812499999999 L 41.7027408760879 49.916249999999984 L 40.82075694228813 51.38437499999999 L 39.923721013669 52.85249999999999 L 39.01583949730596 54.320624999999986 L 38.10139090992267 55.78874999999999 L 37.18469743108457 57.256874999999994 L 36.27009616608881 58.72499999999999 L 35.36191030961675 60.19312499999998 L 34.46442040187468 61.66124999999998 L 33.58183586833368 63.12937499999999 L 32.71826703229388 64.59749999999998 L 31.877697786354716 66.06562499999998 L 31.0639591044918 67.53375 L 30.28070357085227 69.00187499999998 L 29.53138109462012 70.46999999999998 L 28.819215972417695 71.93812499999999 L 28.147185450749614 73.40624999999997 L 27.517999931022246 74.87437499999999 L 26.934084948750677 76.34249999999999 L 26.397565046769003 77.81062499999999 L 25.910249649667 79.27874999999999 L 25.47362103337061 80.74687499999999 L 25.088824469853463 82.21499999999997 L 24.756660612504902 83.68312499999998 L 24.477580172782346 85.15124999999998 L 24.251680923541524 86.61937499999999 L 24.078707048968777 88.08749999999998 L 23.958050845437548 89.55562499999998 L 23.888756761980495 91.02374999999998 L 23.86952775351312 92.49187499999998 L 23.89873390456782 93.95999999999998 L 24.343127675883224 95.84343749999998 L 24.85913496528887 97.72687499999998 L 25.441111383292313 99.61031249999998 L 26.082690931493808 101.49374999999999 L 26.776855637599574 103.37718749999999 L 27.516012322106914 105.26062499999998 L 28.292075656942078 107.14406249999999 L 29.096556607507 109.02749999999997 L 29.9206552907042 110.91093749999997 L 30.75535723320419 112.79437499999999 L 31.591531977026435 114.67781249999999 L 32.42003295382826 116.56124999999997 L 33.231797535418295 118.44468749999999 L 34.0179461660834 120.32812499999997 L 34.76987949236186 122.21156249999997 L 35.47937242780047 124.09499999999998 L 36.13866412376012 125.9784375 L 36.740542862116804 127.861875 L 37.278424941251885 129.74531249999998 L 37.74642669243049 131.62875 L 38.13942883881093 133.51218749999998 L 38.45313249308856 135.395625 L 38.684106181239095 137.2790625 L 38.82982337798818 139.1625 L 38.88869014342241 141.04593749999998 L 38.8600625584362 142.929375 L 38.744253768295515 144.81281249999998 L 38.54253055727189 146.69624999999996 L 38.25709949181515 148.57968749999998 L 37.89108278383928 150.463125 L 37.448484138142575 152.34656249999998 L 36.93414495754324 154.23 L 36.06101995754324 154.23 L 35.187894957543236 154.23 L 34.31476995754324 154.23 L 33.44164495754324 154.23 L 32.56851995754324 154.23 L 31.695394957543236 154.23 L 30.82226995754324 154.23 L 29.94914495754324 154.23 L 29.076019957543238 154.23 L 28.202894957543236 154.23 L 27.329769957543242 154.23 L 26.45664495754324 154.23 L 25.58351995754324 154.23 L 24.710394957543237 154.23 L 23.837269957543242 154.23 L 22.96414495754324 154.23 L 23.468207990498918 152.386875 L 23.903673641590057 150.54375 L 24.26598008205371 148.700625 L 24.551331880638358 146.85750000000002 L 24.756739763588264 145.014375 L 24.880051929524306 143.17125 L 24.919976591174674 141.328125 L 24.87609550781381 139.48499999999999 L 24.74886836664718 137.64187499999997 L 24.539627967243586 135.79874999999998 L 24.2505662594617 133.955625 L 23.884711381134032 132.11249999999998 L 23.445895936055702 130.269375 L 22.938716844589923 128.42624999999998 L 22.368487187485126 126.58312499999998 L 21.74118054737578 124.74 L 21.063368431031392 122.89687500000001 L 20.342151427902493 121.05375000000001 L 19.585084826129393 119.210625 L 18.800099465241647 117.3675 L 17.995418654675504 115.52437499999999 L 17.179472028450164 113.68124999999999 L 16.360807238439474 111.838125 L 15.548000411318208 109.995 L 14.749566307213591 108.15187499999999 L 13.973869121217229 106.30875 L 13.229034862178588 104.46562499999999 L 12.522866226677747 102.62249999999999 L 11.862760859936206 100.779375 L 11.255633859943952 98.93625 L 10.707845336630172 97.09312499999999 L 10.225133784949415 95.25 L 9.62194718132585 93.76171875 L 9.06681795343409 92.2734375 L 8.561732670112747 90.78515625 L 8.1083359765711 89.296875 L 7.707919357403999 87.80859375 L 7.361412312565244 86.3203125 L 7.06937600658926 84.83203125 L 6.8319994344526185 83.34375 L 6.6490981302719705 81.85546875 L 6.520115427661223 80.3671875 L 6.444126263136589 78.87890625 L 6.419843496582834 77.390625 L 6.445626705596426 75.90234375 L 6.519493393618423 74.4140625 L 6.639132535277956 72.92578125 L 6.801920366398194 71.4375 L 7.004938310780019 69.94921875 L 7.24499292127934 68.4609375 L 7.518637698931176 66.97265625 L 7.822196641042156 65.484375 L 8.15178935735978 63.99609375 L 8.503357582713026 62.5078125 L 8.872692904977633 61.01953125 L 9.25546551891554 59.53125 L 9.64725380942882 58.04296875 L 10.04357456210155 56.5546875 L 10.439913594617016 55.06640625 L 10.831756599762048 53.578125 L 11.214619989284783 52.08984375 L 11.584081527866063 50.6015625 L 11.93581054789892 49.11328125 L 12.265597538634655 47.625 L 12.569382907528595 46.13671875 L 12.843284717274573 44.6484375 L 13.083625209015764 43.16015625 L 13.286955930512878 41.671875 L 13.450081297582312 40.18359375 L 13.57008042782152 38.6953125 L 13.644327097443359 37.20703125 L 13.670507684865004 35.71875 L 13.646636978452417 34.23046875 L 13.5710717404145 32.7421875 L 13.442521934172047 31.25390625 L 13.260059538490859 29.765625 L 13.023124888156747 28.27734375 L 12.731530497869972 26.7890625 L 12.385462343232476 25.30078125 L 11.985478590075612 23.8125 L 11.532505780810194 22.32421875 L 11.027832503855494 20.8359375 L 10.473100589400644 19.34765625 L 9.870293891653077 17.859375 L 9.221724734218942 16.37109375 L 8.530018111227028 14.8828125 L 7.798093752141437 13.39453125 L 7.029146172804663 11.90625 L 6.226622849011625 10.41796875 L 5.394200661743042 8.9296875 L 4.535760774995289 7.44140625 L 3.6553621178531928 5.953125 L 2.7572136519886055 4.46484375 L 1.8456456140661979 2.9765625 L 0.9250799295417917 1.48828125 L 0 0 L 0.945 0 L 1.89 0 L 2.835 0 L 3.78 0 L 4.725 0 L 5.67 0 L 6.615 0 L 7.56 0 L 8.504999999999999 0 L 9.45 0 L 10.395 0 L 11.34 0 L 12.285 0 L 13.23 0 L 14.175 0 L 15.12 0 L 15.12 0 Z" fill="black" stroke="black" />
				</svg>