<svg
					xmlns="http://www.w3.org/2000/svg" xmlns:xlink="http://www.w3.org/1999/xlink"
					style="
						overflow: visible;
						height: 100;
					"
					viewBox="-8.379487133299847 0 55.3598715618369 147.25"
				>
					<path d="M 9.179853339346046 147.25 L 8.333426934846814 145.45000000000002 L 7.636384985232416 143.65 L 7.103156393353956 141.85 L 6.744779093949665 140.04999999999998 L 6.568671566266026 138.25 L 6.5784792701059995 136.45 L 6.7739991841077085 134.64999999999998 L 7.151184008325783 132.84999999999997 Q 6.869762847018901 132.82656249999997 6.594629447772769 132.797265625 Q 6.319542109219682 132.76796875 6.0507792936058635 132.7328125 Q 5.782082671140149 132.69765624999997 5.519754548679206 132.656640625 Q 5.257516303407417 132.615625 5.00169767369497 132.56875 Q 4.745996099073375 132.52187499999997 4.496772300488628 132.469140625 Q 4.247696159633964 132.41640625 4.005162889453828 132.3578125 Q 3.7628112227991775 132.29921875 3.5270743261531745 132.234765625 Q 3.2915562267558176 132.17031250000002 3.0627314515590953 132.10000000000002 Q 2.6058586189954482 131.95937500000002 2.17627857666632 131.7953125 Q 1.7480932418754733 131.63125000000002 1.3479794570653478 131.44375000000002 Q 0.949661733825848 131.25625000000002 0.5802849791277085 131.04531250000002 Q 0.21314247703647737 130.83437500000002 -0.12410911410263914 130.60000000000002 Q -0.45620190134109695 130.3625 -0.7716802207815325 130.10390625000002 Q -1.0839522196798272 129.8453125 -1.378652721588879 129.565625 Q -1.6697134538105072 129.28593750000002 -1.9422244838792935 128.98515625 Q -2.210673161923162 128.684375 -2.4595907608494016 128.3625 Q -2.704048124617408 128.040625 -2.928010679693142 127.69765625 Q -3.147155715695622 127.35468749999998 -3.3448836419417147 126.990625 Q -3.537495396344951 126.6265625 -3.707835995305696 126.24140625000001 Q -3.872840567348183 125.85625 -4.014818067169712 125.45000000000002 L -4.014818067169712 125.45000000000002 L -2.9548131922820127 123.72968750000001 L -1.8171831645168965 122.00937500000002 L -0.6234414366641865 120.28906250000003 L 0.6038374233774161 118.56875000000001 L 1.8414446349225582 116.84843749999999 L 3.0659761002697685 115.12812499999998 L 4.254274994065961 113.40781249999999 L 5.3838696765618685 111.6875 L 6.43339864948441 109.9671875 L 7.383014518285744 108.24687499999999 L 8.214759321534368 106.5265625 L 8.912904129682754 104.80624999999998 L 9.464246491139447 103.08593749999997 L 9.858360100713163 101.36562499999997 L 10.087791969008013 99.64531249999996 L 10.14820336414581 97.92499999999997 Q 10.572329320637579 98.39687499999997 10.991756432283665 98.84492187499998 Q 11.399638423860454 99.29296874999999 11.805320239155112 99.7171875 Q 12.200716070838219 100.14140624999999 12.59630804846384 100.54179687499999 Q 12.982831855143914 100.94218749999999 13.371820896857562 101.31875000000001 Q 13.752899885642188 101.69531250000003 14.138568111769501 102.04804687500001 Q 14.517411418837801 102.40078125000002 14.90281114155631 102.72968750000003 Q 15.282389206398092 103.05859375000003 15.670327496216256 103.36367187500002 Q 16.053360346721508 103.66875000000005 16.44639160869537 103.95000000000003 Q 16.83534449447819 104.23125000000002 17.22014453722664 104.48867187500002 Q 17.60160443163488 104.74609375000001 17.980224610982212 104.97968750000001 Q 18.356156212209566 105.21328125 18.73040635113849 105.423046875 Q 19.102536339459036 105.6328125 19.473995257817105 105.81875 Q 19.84382370089818 106.00468750000002 20.213851324678416 106.16679687500002 Q 20.582664259728794 106.32890625000002 20.95241441521064 106.46718750000002 Q 21.32129677059741 106.60546875000001 21.69172989923213 106.71992187500003 Q 22.061578045851704 106.83437500000002 22.433473198933097 106.92500000000003 L 22.433473198933097 106.92500000000003 L 23.032127583645078 105.54062500000002 L 23.539103229951692 104.15625000000003 L 23.948188149733763 102.77187500000002 L 24.254369812941924 101.38750000000002 L 24.45389656628077 100.00312500000001 L 24.544323602331595 98.61875 L 24.524542915852546 97.23437500000001 L 24.394796880200794 95.85000000000001 L 24.156675277524343 94.465625 L 23.813095819112725 93.08125000000001 L 23.368268394591187 91.696875 L 22.827643488014203 90.3125 L 22.197845392917475 88.928125 L 21.486591044646325 87.54374999999999 L 20.70259546451065 86.159375 L 19.85546497436193 84.77499999999999 Q 19.448719215645646 84.5734375 19.041317096138542 84.36689453125 Q 18.63281056941872 84.16035156250001 18.223613750461197 83.948828125 Q 17.813336249320642 83.7373046875 17.40234591057409 83.52080078125 Q 16.990307976496783 83.304296875 16.577547064952398 83.0828125 Q 16.16378170800765 82.861328125 15.749296674260776 82.63486328124999 Q 15.333861113002158 82.40839843749998 14.917723661637362 82.176953125 Q 14.500701072454332 81.94550781250001 14.083009916128056 81.70908203125 Q 13.664511181101265 81.47265625 13.245393786697514 81.23125 Q 12.825559227781097 80.98984375 12.40517354176624 80.74345703125002 Q 11.984174627858359 80.4970703125 11.562710766683447 80.245703125 Q 11.140751778860578 79.9943359375 10.718433668961348 79.73798828125 Q 10.29575330784982 79.481640625 9.872840258487777 79.2203125 Q 9.449713176442234 78.958984375 9.026501367327054 78.69267578124999 Q 8.603239606790543 78.42636718749999 8.180063471138396 78.15507812499999 Q 7.757017789289395 77.8837890625 7.334251271719695 77.60751953124998 Q 6.911812330283136 77.33124999999998 6.489869997755107 77.04999999999998 Q 5.647712162436021 76.48749999999998 4.801480873155474 75.88124999999998 Q 3.9597174399076707 75.27499999999998 3.11718497185859 74.62499999999999 Q 2.28214850631798 73.975 1.4507750670107393 73.28124999999999 Q 0.6307201036070538 72.58749999999999 -0.18000400164758545 71.85 Q -0.9747549373293491 71.11249999999998 -1.7532041628066852 70.33124999999998 Q -2.5101976623606683 69.54999999999998 -3.2426062778451117 68.725 Q -3.947309439653762 67.89999999999999 -4.617899454731079 67.03124999999999 Q -5.253898763747845 66.1625 -5.845174357361206 65.24999999999999 Q -6.395805046611272 64.33749999999998 -6.887990389017663 63.359374999999986 Q -7.328556783827581 62.38124999999998 -7.69385670038924 61.33749999999999 Q -7.997626668157645 60.29374999999999 -8.208687525362073 59.184374999999996 Q -8.348923548465738 58.07499999999999 -8.379487133299847 56.899999999999984 Q -8.331605177418831 55.72499999999998 -8.159005777881925 54.48437499999998 Q -8.041346575263944 53.86406249999999 -7.890239324345156 53.22734374999999 Q -7.718152536070076 52.59062499999999 -7.511502430756075 51.937499999999986 Q -7.284005527349193 51.28437499999998 -7.02121211797791 50.61484374999999 Q -6.738076386880719 49.9453125 -6.419356284871389 49.259375 Q -6.0812156269803745 48.5734375 -5.70770954725547 47.87109375 Q -5.316163863568933 47.16875 -4.890036103869653 46.449999999999996 L -4.890036103869653 46.449999999999996 Q -4.254737429222419 45.425 -3.595288055831821 44.43212890624999 Q -2.9130619919948777 43.439257812499996 -2.217880119039364 42.47851562499999 Q -1.50920708739733 41.51777343749999 -0.7972787252860427 40.58916015624999 Q -0.08012033874180341 39.660546874999994 0.6322344838221545 38.764062499999994 Q 1.342717283069187 37.867578124999994 2.042029509228639 37.00322265624999 Q 2.7335840397613484 36.13886718749999 3.4092633297931423 35.30664062499999 Q 4.072509286271349 34.474414062499996 4.716745799096023 33.67431640624999 Q 5.345027433654333 32.87421874999999 5.952598548013854 32.106249999999996 Q 6.541755199645868 31.338281249999994 7.109766018266234 30.602441406249994 Q 7.657848595961715 29.866601562499998 8.185431887377543 29.162890624999996 Q 8.692389343168312 28.459179687499997 9.180386739279307 27.78759765625 Q 9.64774254626941 27.116015625 10.098384722989156 26.4765625 Q 10.528919253366723 25.837109374999997 10.945518781144823 25.229785156249996 Q 11.342969523962473 24.622460937499998 11.729636303569283 24.047265624999994 Q 12.098424254092087 23.4720703125 12.459810094027775 22.92900390625 Q 12.804797497379234 22.385937499999997 13.145873521865433 21.875 Q 13.471685571541613 21.3625 13.791143686907908 20.877148437499997 Q 14.097101832135937 20.391796874999997 14.39961907546532 19.93359375 Q 14.690047997621756 19.475390624999996 14.979877445772786 19.044335937499998 Q 15.259017348778814 18.61328125 15.540283870574477 18.209374999999998 Q 15.812215370077901 17.805468749999996 16.088851162122133 17.4287109375 Q 16.35743846916812 17.051953124999997 16.633135639757022 16.702343749999997 Q 16.901985863343675 16.352734374999997 17.180163820594444 16.030273437499996 Q 17.452600101335698 15.707812499999998 17.73638545171317 15.412499999999998 Q 18.015431635340445 15.117187499999998 18.30764834254518 14.849023437499998 Q 18.596022980444882 14.580859374999998 18.899190647176102 14.339843749999996 Q 19.19930824814926 14.098828124999997 19.515646543100075 13.884960937499997 Q 19.82962417621957 13.671093749999997 20.161061617983393 13.484374999999996 Q 20.49072916464179 13.29765625 20.838914678781578 13.138085937499998 Q 21.185827240110655 12.978515624999996 21.55214311461407 12.846093749999996 Q 21.917594288997247 12.713671874999996 22.30316935891579 12.608398437499996 Q 22.688204306782893 12.503124999999997 23.093926395921237 12.424999999999997 L 23.093926395921237 12.424999999999997 L 22.427509358545855 10.871874999999998 L 21.65505342680605 9.318749999999998 L 20.788468489685847 7.765624999999998 L 19.841115737089112 6.212499999999999 L 18.82760165418676 4.659374999999999 L 17.763552815538112 3.1062499999999993 L 16.665374951258222 1.5531249999999996 L 15.55 0 L 16.378750000000004 0 L 17.207500000000003 0 L 18.036250000000003 0 L 18.865000000000002 0 L 19.69375 0 L 20.5225 0 L 21.35125 0 L 22.18 0 L 23.279744669733965 1.5312500000000018 L 24.36300692309715 3.0625000000000036 L 25.413551373831215 4.593750000000005 L 26.415632993540427 6.125000000000007 L 27.354233090206442 7.656250000000009 L 28.21528440074114 9.18750000000001 L 28.985881924004325 10.718750000000012 L 29.65447633442774 12.250000000000014 Q 29.941985225090093 12.282812500000013 30.229192037348806 12.322753906250012 Q 30.51632223848721 12.362695312500012 30.803095331492543 12.409765625000011 Q 31.08976153716329 12.45683593750001 31.37600534474644 12.51103515625001 Q 31.662106692329196 12.565234375000006 31.947709885329267 12.626562500000007 Q 32.23312960528884 12.687890625000007 32.51796471707808 12.756347656250004 Q 32.80256974426628 12.824804687500004 33.086492760860644 12.900390625000004 Q 33.370133312866066 12.975976562500001 33.65298323358195 13.058691406250002 Q 33.93549236243866 13.141406250000003 34.21709073787707 13.231250000000001 Q 34.77907010805957 13.4109375 35.33659649330566 13.619140625 Q 35.891909673818155 13.827343749999997 36.4415183570313 14.064062499999997 Q 36.98821474017984 14.300781249999996 37.527750178003394 14.566015624999995 Q 38.063562266881576 14.831249999999994 38.59054401398047 15.124999999999993 Q 39.11213085606161 15.415624999999995 39.620482046445396 15.717968749999995 Q 40.12382456677811 16.0203125 40.61307654040222 16.334374999999998 Q 41.09684431846679 16.6484375 41.56562871309301 16.97421875 Q 42.02843813171253 17.3 42.47533740573841 17.6375 Q 42.915759662288664 17.974999999999998 43.33931613922101 18.324218749999996 Q 43.75588711868696 18.673437499999995 44.154613975365265 19.034374999999994 Q 44.545846121686594 19.395312499999992 44.91824044925595 19.767968749999987 Q 45.282636755703386 20.140624999999986 45.6271948037177 20.524999999999984 L 45.6271948037177 20.524999999999984 L 45.291165089583174 22.032812499999984 L 44.82673970701256 23.540624999999984 L 44.23785231539273 25.048437499999988 L 43.53024535016383 26.556249999999988 L 42.711386569404134 28.064062499999988 L 41.790360526721365 29.57187499999999 L 40.77773654764846 31.07968749999999 L 39.68541512821079 32.58749999999999 L 38.52645498791685 34.09531249999999 L 37.31488329056932 35.60312499999999 L 36.06549179091112 37.11093749999999 L 34.79362186965765 38.61874999999999 L 33.51494158094865 40.12656249999999 L 32.2452179523348 41.634375 L 31.00008784640784 43.142187500000006 L 29.794830714086316 44.65 Q 29.701072126932004 44.2875 29.593637206649376 43.94375 Q 29.488688150546434 43.6 29.369171180674883 43.275000000000006 Q 29.251570278143102 42.95 29.118658251603073 42.643750000000004 Q 28.987186620504954 42.337500000000006 28.83979519489369 42.05 Q 28.69345389633 41.762499999999996 28.53070444998936 41.49375 Q 28.368691216140913 41.22500000000001 28.189887531772253 40.975 Q 28.011573376072928 40.724999999999994 27.816178495202056 40.49374999999999 Q 27.621084703263122 40.26249999999999 27.40869839599212 40.04999999999999 Q 27.19772430097801 39.83749999999999 26.976372885082032 39.64023437499999 Q 26.755087862935497 39.44296875 26.52333388175372 39.2609375 Q 26.291578530884312 39.078906249999996 26.049298705206883 38.912109375 Q 25.80697301663999 38.7453125 25.554096503151875 38.59375 Q 25.301148453251137 38.4421875 25.037645976294495 38.305859375 Q 24.77406101956011 38.16953125 24.499934929711543 38.0484375 Q 24.22572643664097 37.92734375 23.941001731613277 37.821484375 Q 23.65620240029068 37.715624999999996 23.360918729351663 37.62499999999999 L 23.360918729351663 37.62499999999999 L 22.384441296170376 38.98593749999999 L 21.40554285670173 40.346875 L 20.435815585917407 41.70781249999999 L 19.486743053250667 43.068749999999994 L 18.569564233467357 44.4296875 L 17.695140414041816 45.790625 L 16.87382657512878 47.1515625 L 16.115348765257366 48.5125 L 15.428688924871716 49.87343750000001 L 14.821978521644933 51.23437500000001 L 14.302402257143374 52.595312500000006 L 13.876112985152874 53.95625000000001 L 13.548158849209296 55.31718750000002 L 13.322423502175152 56.67812500000001 L 13.20158011578574 58.03906250000001 L 13.187059724786561 59.40000000000001 Q 13.51038837798094 59.63593750000001 13.83111730805185 59.87363281250001 Q 14.155090717571564 60.111328125000014 14.476550776273827 60.35078125000001 Q 14.801291321132537 60.59023437500001 15.123600218691266 60.8314453125 Q 15.449220611294352 61.07265625 15.772486009898621 61.315625000000004 Q 16.099088608259315 61.55859375 16.423407431055114 61.8033203125 Q 16.751083547854 62.048046875 17.076541285865943 62.29453124999999 Q 17.40537049647292 62.541015624999986 17.732040515645018 62.78925781249999 Q 18.062089967353252 63.037499999999994 18.390032818029177 63.287499999999994 Q 18.721356542879832 63.537499999999994 19.050619274172046 63.7892578125 Q 19.38325750787673 64.041015625 19.713872989500942 64.29453124999998 Q 20.047851499094506 64.54804687499998 20.379837753370712 64.80332031249999 Q 20.715167176350214 65.05859374999999 21.04852672319289 65.31562499999998 Q 21.385201921017988 65.57265625 21.719921138855533 65.8314453125 Q 22.057920567800462 66.090234375 22.393969073476683 66.35078124999998 Q 23.075729448851607 66.87187499999999 23.749644767356255 67.39999999999998 Q 24.43629127078528 67.93124999999998 25.127448774760676 68.49843749999998 Q 25.831939273586343 69.06562499999998 26.5431442105941 69.66874999999999 Q 27.26799908593442 70.27187499999998 28.001279023378096 70.91093749999999 Q 28.748038078454325 71.55 29.504273526831234 72.225 Q 30.273207187488378 72.89999999999999 31.051831380903334 73.61093749999999 Q 31.84163690299525 74.32187499999999 32.64032674111554 75.06875 Q 33.44782192186541 75.81562500000001 34.262194889674426 76.5984375 Q 35.08202605138662 77.38125 35.905362370852046 78.2 Q 36.73074620960882 79.021875 37.57071437933078 79.90703124999999 Q 38.40575828459734 80.79218749999998 39.24760476670806 81.740625 Q 40.07633454275357 82.6890625 40.90074892110177 83.70078124999999 Q 41.701519561283426 84.71249999999999 42.48332032364143 85.7875 Q 43.228675210003196 86.8625 43.936922348849606 88.00078124999999 Q 44.59395889192109 89.1390625 45.19266356852769 90.34062499999999 Q 45.72406464267503 91.54218749999998 46.173650931622355 92.80703125 Q 46.36728778058664 93.43945312499999 46.53588549559966 94.08769531249999 Q 46.68156612424635 94.73593749999999 46.799167740395376 95.39999999999999 L 46.799167740395376 95.39999999999999 Q 46.92013767668442 96.3109375 46.977989171651714 97.2046875 Q 46.989988441118236 98.0984375 46.941876217471915 98.97500000000001 Q 46.849615110259286 99.85156250000001 46.70109200386847 100.71093750000001 Q 46.510918819998786 101.57031250000001 46.268984161624445 102.41250000000001 Q 45.9885349350659 103.2546875 45.66128944237232 104.07968750000002 Q 45.299146171333376 104.90468750000002 44.89546054196421 105.7125 Q 44.46082757173769 106.5203125 43.99003324247279 107.31093750000001 Q 43.49243925957166 108.10156250000003 42.96404766193281 108.87500000000001 Q 42.413078672684776 109.6484375 41.83653331812941 110.40468750000001 Q 41.24160006598436 111.16093750000002 40.626063988012255 111.9 Q 39.996205556394436 112.63906250000002 39.35038505772464 113.36093750000002 Q 38.694108936394336 114.08281250000002 38.026113255618434 114.78750000000002 Q 37.351270929976735 115.49218750000001 36.668506358648706 116.17968750000001 Q 35.98220251236608 116.8671875 35.29129865402884 117.5375 Q 34.59983134498806 118.20781249999999 33.906596597253156 118.8609375 Q 33.21542525683785 119.51406250000002 32.524828195258635 120.15 Q 31.839190988177023 120.78593749999999 31.16350169521962 121.39052734375 Q 30.49376044042403 121.9951171875 29.83469296847782 122.568359375 Q 29.18265709113772 123.1416015625 28.54137450724427 123.68349609375001 Q 27.907749461005213 124.225390625 27.284419071396975 124.73593749999999 Q 26.668987536141977 125.246484375 26.06295901836457 125.72568359375 Q 25.464757018579483 126.20488281250002 24.874732524158702 126.652734375 Q 24.292215344463166 127.10058593749999 23.7164073856862 127.51708984375 Q 23.14760181036781 127.93359375 22.583876258489205 128.31875 Q 22.026517064885507 128.70390625000002 21.47251984886428 129.05771484375003 Q 20.924169633940405 129.41152343750002 20.377436741011778 129.733984375 Q 19.835589065199436 130.0564453125 19.29364022179215 130.34755859375 Q 18.75580673293672 130.638671875 18.216223709157386 130.8984375 Q 17.68000638721831 131.158203125 17.14049724710708 131.38662109375002 Q 16.603647214908612 131.61503906250002 16.06209805618611 131.812109375 Q 15.522562561299319 132.00917968750002 14.977078380060048 132.17490234375003 Q 14.704877028525342 132.25776367187504 14.430982852462499 132.33278808593752 Q 14.157386151511202 132.4078125 13.881973898246617 132.47500000000002 L 13.881973898246617 132.47500000000002 L 13.459397091653273 134.321875 L 13.226845525366835 136.16875000000002 L 13.189386586095754 138.01562500000003 L 13.347836518314342 139.8625 L 13.698742637986536 141.70937500000002 L 14.234458567858763 143.55625 L 14.943310854916358 145.40312500000002 L 15.809853339346045 147.25 L 14.981103339346046 147.25 L 14.152353339346046 147.25 L 13.323603339346047 147.25 L 12.494853339346047 147.25 L 11.666103339346048 147.25 L 10.837353339346048 147.25 L 10.008603339346049 147.25 L 9.179853339346046 147.25 L 9.179853339346046 147.25 Z M 7.090684821826036 54.54999999999998 L 7.721309278185474 52.45624999999998 L 8.57106438707126 50.36249999999999 L 9.616164895225289 48.26875 L 10.827357691949334 46.175 L 12.170740624595862 44.08125 L 13.608711444068046 41.987500000000004 L 15.101020318665842 39.89375000000001 L 16.60589645566266 37.80000000000001 Q 16.030414168340453 37.91250000000001 15.454298686748654 38.11210937500001 Q 14.877970940814523 38.31171875000001 14.300726405463786 38.59843750000001 Q 13.723227641879571 38.88515625000001 13.144740131307024 39.25898437500001 Q 12.566245586812816 39.63281250000001 11.98726321940306 40.09375 Q 11.409086743767368 40.5546875 10.83196357026817 41.102734375 Q 10.25736761249468 41.65078125 9.686967798306677 42.2859375 Q 9.122119270487143 42.92109374999999 8.56684228144865 43.64335937499999 Q 8.021862342042123 44.365624999999994 7.494718437565785 45.17499999999998 L 7.494718437565785 45.17499999999998 Q 6.955773830790264 46.031249999999986 6.544746881440743 46.80312499999999 Q 6.153166102026207 47.57499999999999 5.884549037504904 48.26249999999999 Q 5.633867065323388 48.949999999999996 5.499644702366684 49.553124999999994 Q 5.380776669663893 50.15624999999999 5.371189457392127 50.67499999999999 Q 5.373860857059653 51.19374999999999 5.474664849502686 51.695312499999986 Q 5.5876133073849115 52.19687499999999 5.79766585818103 52.681249999999984 Q 6.0195902797582725 53.16562499999998 6.337435852160427 53.632812499999986 Q 6.500647607136157 53.86640624999998 6.687598523956218 54.09570312499998 Q 6.877356417978673 54.32499999999998 7.090684821826036 54.54999999999998 L 7.090684821826036 54.54999999999998 L 7.090684821826036 54.54999999999998 Z M 28.826328483346273 88.92499999999998 L 29.787403216944583 91.12812499999998 L 30.51277221523619 93.33124999999998 L 30.979960840261825 95.534375 L 31.17449384531137 97.7375 L 31.090343872074904 99.940625 L 30.73011820069153 102.14375000000001 L 30.104977966482778 104.34687500000001 L 29.23429234633753 106.55000000000001 Q 29.8353096558998 106.35000000000002 30.40429556076171 106.07070312500001 Q 30.969655434623355 105.79140625000001 31.498739071588524 105.4328125 Q 32.02163027301044 105.07421874999999 32.50252603516762 104.63632812499998 Q 32.973821147912275 104.19843749999998 33.395776742146076 103.68124999999999 Q 33.80379820497401 103.1640625 34.15338685852403 102.567578125 Q 34.48373795984848 101.97109375 34.744755334742365 101.2953125 Q 34.98028956488157 100.61953125 35.13383783025538 99.86445312499998 Q 35.254855328636 99.109375 35.27971067767841 98.275 L 35.27971067767841 98.275 Q 35.26354389110962 97.41875 35.159238189179156 96.6484375 Q 35.02101894305815 95.878125 34.810279971645144 95.19375 Q 34.57333302458886 94.509375 34.277715361715096 93.91093749999999 Q 33.962661760424396 93.3125 33.6007606520324 92.80000000000001 Q 33.22056668318058 92.28125 32.738881534934876 91.7796875 Q 32.24456327239443 91.27812499999999 31.651053583263607 90.79374999999999 Q 31.046319537035764 90.30937499999999 30.344569435883464 89.84218749999998 Q 29.989971306710594 89.60859374999998 29.611504379995072 89.379296875 Q 29.230728353248946 89.14999999999999 28.826328483346273 88.92499999999998 L 28.826328483346273 88.92499999999998 L 28.826328483346273 88.92499999999998 Z" fill="black" stroke="black" />
				</svg>