<svg
					xmlns="http://www.w3.org/2000/svg" xmlns:xlink="http://www.w3.org/1999/xlink"
					style="
						overflow: visible;
						height: 100;
					"
					viewBox="-8.474946006102098 0 34.6174235584001 160.575"
				>
					<path d="M 1.7599186359049062 81.00000000000001 L 1.7599186359049062 81.00000000000001 Q 1.1047886445219088 80.07812500000001 0.44802650561551544 79.15722656250001 Q -0.21114629748991498 78.23632812500001 -0.8647621399031276 77.31640625 Q -1.5136169972434526 76.39648437500001 -2.1498044761569295 75.47753906250001 Q -2.7741999443975605 74.55859375000001 -3.3790491665168108 73.64062500000001 Q -3.9653664403550026 72.72265625000001 -4.525636568529698 71.80566406250001 Q -5.061068668600766 70.88867187500001 -5.564467588719354 69.97265625 Q -6.037288352117272 69.056640625 -6.472729310142691 68.1416015625 Q -6.872536639579765 67.2265625 -7.23036660893992 66.3125 Q -7.5482950651413585 65.3984375 -7.82049028278878 64.4853515625 Q -8.049388828916957 63.57226562499999 -8.229713703616673 62.660156249999986 Q -8.364285213089188 61.748046874999986 -8.44841164391098 60.836914062499986 Q -8.485311645319715 59.925781249999986 -8.470896672803073 59.015624999999986 Q -8.408789708248694 58.105468749999986 -8.295510335486004 57.19628906249998 Q -8.135083231532665 56.28710937499997 -7.924628177435662 55.37890624999997 Q -7.668560451047746 54.47070312499997 -7.364579513463315 53.56347656249998 Q -7.017472039087828 52.65624999999997 -6.625484631951743 51.74999999999997 Q -6.195049753779074 50.84531249999998 -5.724255390855598 49.94541015624998 Q -5.218307990473495 49.04550781249998 -4.677153158005548 48.15039062499998 Q -4.105912976678557 47.25527343749998 -3.505111148012979 46.36494140624998 Q -2.879772856115853 45.474609374999986 -2.2308764034569375 44.58906249999998 Q -1.5633415071416343 43.70351562499998 -0.8784721949705432 42.822753906249986 Q -0.1810783155952298 41.94199218749999 0.5273417718593194 41.06601562499999 Q 1.2420882579126846 40.19003906249999 1.9615995973281681 39.31884765624999 Q 2.6812820257601735 38.447656249999994 3.3996390889547925 37.58124999999999 Q 4.112175097106014 36.71484374999999 4.817581670533958 35.85322265624999 Q 5.511449546205174 34.991601562499994 6.192773916319862 34.13476562499999 Q 6.8572170167945306 33.27792968749999 7.504183693518455 32.42587890624999 Q 8.12938995295367 31.573828124999995 8.732745318540635 30.726562499999996 Q 9.309999583398717 29.879296874999994 9.861649574269526 29.036816406249994 Q 10.383457224726284 28.194335937499993 10.876575862692432 27.356640624999997 Q 11.336756877062893 26.5189453125 11.765865148741774 25.68603515625 Q 12.15961843382907 24.853125 12.520633659940115 24.025 Q 12.844255771167226 23.198437499999997 13.134112089706196 22.381347656249993 Q 13.386450411119675 21.564257812499996 13.605663704649249 20.756640624999996 Q 13.787471830169276 19.949023437499996 13.93747092455082 19.150878906249993 Q 14.050816787203924 18.352734374999994 14.13427079475936 17.56406249999999 Q 14.182399685071296 16.775390624999993 14.203074865535243 15.996191406249993 Q 14.190260293331953 15.216992187499992 14.152867174208655 14.447265624999993 Q 14.084254147690054 13.67753906249999 13.99428929651448 12.917285156249992 Q 13.875734251822662 12.157031249999992 13.739320717407274 11.406249999999991 Q 13.577231925719015 10.65546874999999 13.400961934973758 9.914160156249991 Q 13.202143762204162 9.172851562499991 12.992926792556704 8.441015624999991 Q 12.764430707343848 7.709179687499992 12.529349569475183 6.986816406249993 Q 12.278334304659607 6.264453124999994 12.024511381563379 5.551562499999994 Q 11.75811416726173 4.838671874999994 11.492589476773015 4.135253906249995 Q 11.217809791584404 3.4318359374999954 10.947432081557158 2.7378906249999964 Q 10.67102892244965 2.043945312499997 10.402360579568171 1.3594726562499981 Q 10.130763838434987 0.6749999999999989 9.870000000000001 0 L 9.870000000000001 0 L 10.585 0 L 11.3 0 L 12.015 0 L 12.73 0 L 13.445 0 L 14.16 0 L 14.875 0 L 15.59 0 L 16.305 0 L 17.02 0 L 17.735 0 L 18.45 0 L 19.165 0 L 19.88 0 L 20.595 0 L 21.31 0 Q 21.540073879043717 0.5289062499999997 21.775054959863013 1.0620361328124994 Q 22.00864695399768 1.5951660156249992 22.245711258303498 2.132519531249999 Q 22.47995230787605 2.669873046874999 22.71616836609993 3.2114501953124988 Q 22.948092241933804 3.7530273437499986 23.180442064976276 4.298828124999997 Q 23.407007371393142 4.844628906249997 23.632409643430403 5.3946533203124964 Q 23.850523995266894 5.944677734374997 24.065859395184532 6.498925781249996 Q 24.27240566045135 7.053173828124995 24.474544185959378 7.611645507812495 Q 24.666408651620966 8.170117187499995 24.85223878517158 8.732812499999996 Q 25.02634106810672 9.295507812499995 25.19280058773998 9.862426757812495 Q 25.346125076657067 10.429345703124994 25.49023327824755 11.000488281249993 Q 25.61986185560637 11.571630859374995 25.738752916138164 12.146997070312494 Q 25.841898672459706 12.722363281249995 25.932855847431313 13.301953124999994 Q 26.006897464295477 13.881542968749994 26.067387776713943 14.465356445312494 Q 26.109904219837098 15.049169921874995 26.137613264110676 15.637207031249993 Q 26.146418394789908 16.225244140624994 26.139284846821585 16.817504882812493 Q 26.112461529395855 17.40976562499999 26.068710924999426 18.006249999999994 Q 26.00464418050776 18.60273437499999 25.92282149862703 19.20344238281249 Q 25.820230231259927 19.80415039062499 25.699230797097506 20.40908203124999 Q 25.557197601072957 21.01401367187499 25.396295807866572 21.623168945312493 Q 25.214294348751295 22.232324218749994 25.013169686304096 22.845703124999993 Q 24.791089143268124 23.45908203124999 24.54984901716059 24.076684570312494 Q 24.288015071898823 24.694287109374997 24.00721390026723 25.316113281249994 Q 23.706405765006668 25.93793945312499 23.38705985050276 26.563989257812494 Q 23.048522842243777 27.19003906249999 22.692120535864966 27.820312499999993 Q 22.317573727314624 28.450585937499994 21.92608042870654 29.085083007812493 Q 21.517718938695534 29.71958007812499 21.09357651467229 30.35830078124999 Q 20.65406804254443 30.997021484374994 20.20018829222505 31.63996582031249 Q 19.732663551962357 32.28291015624999 19.25241540322906 32.930078124999994 Q 18.760452173999056 33.57724609374999 18.25764236193741 34.228637695312486 Q 17.745242942235855 34.880029296874994 17.224089995645212 35.53564453124999 Q 16.695651927995915 36.19125976562499 16.160753374605477 36.85109863281249 Q 15.621033396420412 37.51093749999999 15.077326190560594 38.17499999999999 Q 14.53227212890469 38.838281249999994 13.988341500529714 39.50175781249999 Q 13.444881029480854 40.16523437499999 12.905233840678076 40.82890624999999 Q 12.368741920643705 41.492578124999994 11.838738213934397 42.1564453125 Q 11.314543264609018 42.82031249999999 10.799466339259716 43.48437499999999 Q 10.292790035035342 44.14843749999999 9.797786671785175 44.8126953125 Q 9.31368478279439 45.476953124999994 8.843706851949541 46.14140624999999 Q 8.387011802515039 46.80585937499999 7.946759919803825 47.470507812499996 Q 7.522025719218565 48.135156249999994 7.115895593179919 48.79999999999999 Q 6.727345769405354 49.464843749999986 6.359377856083312 50.12988281249999 Q 6.010856991368488 50.794921874999986 5.684690036986619 51.46015624999998 Q 5.379619465899275 52.12539062499999 5.098448476353658 52.79082031249999 Q 4.8397866616787955 53.45624999999998 4.606325789557827 54.12187499999998 Q 4.396533840437051 54.78749999999998 4.212984626365232 55.45332031249998 Q 4.0539973664723306 56.11914062499998 3.92202271246717 56.78515624999997 Q 3.8152256445562927 57.45117187499997 3.7359298334281075 58.117382812499976 Q 3.682142280925582 58.783593749999966 3.656057288240632 59.449999999999974 Q 3.655521925405271 60.11640624999998 3.6826001999220104 60.78300781249999 Q 3.734979110241756 61.44960937499998 3.8145929258065596 62.116406249999976 Q 3.918970254535921 62.78320312499997 4.049917662007704 63.45019531249997 Q 4.204808853911851 64.11718749999997 4.385326186614943 64.78437499999997 Q 4.588693724920393 65.45156249999998 4.816474536255184 66.11894531249999 Q 5.065750024368858 66.78632812499997 5.337970262395075 67.45390624999997 Q 5.630082616996155 68.12148437499997 5.943431768892436 68.78925781249997 Q 6.27484122236514 69.45703124999996 6.625559092491815 70.12499999999997 Q 6.992296635171243 70.79296874999997 7.376215354825291 71.46113281249997 Q 7.773927183959761 72.12929687499997 8.186517989580185 72.79765624999996 Q 8.61051447301942 73.46601562499997 9.04693873330092 74.13457031249996 Q 9.492247342396588 74.80312499999997 9.947411264169697 75.47187499999995 Q 10.408832882864404 76.14062499999996 10.877445281308411 76.80957031249996 Q 11.34961325746401 77.47851562499996 11.826245738775114 78.14765624999995 Q 12.303687009954594 78.81679687499997 12.782835884458558 79.48613281249996 Q 13.26003348405067 80.15546874999997 13.736182705309846 80.82499999999996 L 13.736182705309846 80.82499999999996 Q 14.344635433161331 81.69062499999995 14.94696167522212 82.55771484374996 Q 15.535611853607099 83.42480468749997 16.112349868983053 84.29335937499997 Q 16.669793867387455 85.16191406249996 17.209792306972002 86.03193359374998 Q 17.725205299602155 86.90195312499998 18.218002411659388 87.77343749999999 Q 18.681356181906892 88.64492187499998 19.11739218190366 89.51787109374999 Q 19.51966061521171 90.39082031250001 19.890475562609907 91.26523437499999 Q 20.223823540058657 92.13964843749999 20.52223653822083 93.01552734375 Q 20.780188179735397 93.89140624999999 21.000453996008375 94.76875 Q 21.178036525995946 95.64609375 21.31597609552744 96.52490234375 Q 21.409836010894058 97.4037109375 21.46293773480126 98.283984375 Q 21.471426439773047 99.16425781250001 21.43891570910788 100.04599609375 Q 21.362142335402034 100.927734375 21.245017298397578 101.81093750000001 Q 21.08486704369229 102.69414062500002 20.885899274868393 103.57880859375001 Q 20.64601625630472 104.46347656249999 20.369715670535363 105.349609375 Q 20.05544999087632 106.23574218750001 19.707994060588693 107.12333984375 Q 19.326313509233792 108.0109375 18.91544157458739 108.9 Q 18.475434119547636 109.78906250000001 18.01489092270807 110.67421875000001 Q 17.52997256170375 111.559375 17.03031894657394 112.44062500000001 Q 16.51204467208475 113.32187500000002 15.985091643266554 114.19921875 Q 15.445514930048407 115.0765625 14.903442337287618 115.95 Q 14.354858789707773 116.82343750000001 13.80996136207811 117.69296875 Q 13.264657322885764 118.5625 12.729098180831995 119.42812500000001 Q 12.199109234602508 120.29375000000002 11.684685575430557 121.15546875000001 Q 11.1815694074925 122.0171875 10.699494552991494 122.875 Q 10.234122085697514 123.73281249999998 9.794827515445618 124.58671874999999 Q 9.37719565445861 125.44062499999998 8.990156041250387 126.29062499999998 Q 8.629224741277673 127.14062499999997 8.302808372002056 127.98671874999997 Q 8.006364089873285 128.8328125 7.747710411438866 129.67499999999998 Q 7.522257369571433 130.51718749999998 7.337182759580331 131.35546874999997 Q 7.1878628086423255 132.19374999999997 7.080795047750726 133.028125 Q 7.011336306382173 133.86249999999998 6.985277635580426 134.69296874999998 Q 6.9979715085711085 135.5234375 7.054489600371625 136.34999999999997 Q 7.1501952443429655 137.1765625 7.2893278371604815 137.99443359375 Q 7.4669388385540305 138.8123046875 7.686123788994708 139.62148437499997 Q 7.942440191655301 140.4306640625 8.237893874768105 141.23115234374998 Q 8.568564071117022 142.03164062499997 8.935436846900116 142.82343749999998 Q 9.335118580190514 143.61523437499997 9.767658993576818 144.39833984374997 Q 10.230186914268433 145.1814453125 10.721910215707346 145.955859375 Q 11.240465738398186 146.73027343749996 11.784322685486385 147.49599609374997 Q 12.351602297215006 148.26171874999997 12.940144626979919 149.01874999999995 Q 13.548523248935535 149.77578124999997 14.174062677046233 150.52412109374998 Q 14.815749162114635 151.27246093749997 15.470507252633977 152.01210937499997 Q 16.137689594680413 152.75175781249996 16.81393633685464 153.48271484375 Q 17.498914659951833 154.21367187499996 18.189094073745725 154.93593749999997 Q 18.884399948422057 155.65820312499997 19.581241506847707 156.37177734374998 Q 20.27974259562377 157.08535156249997 20.976357690215455 157.79023437499998 Q 21.671347148013737 158.49511718749997 22.361310226905662 159.19130859375 Q 23.04658066711879 159.8875 23.723995037827063 160.575 L 23.723995037827063 160.575 L 23.013370037827066 160.575 L 22.302745037827066 160.575 L 21.592120037827065 160.575 L 20.881495037827065 160.575 L 20.170870037827065 160.575 L 19.460245037827065 160.575 L 18.749620037827064 160.575 L 18.038995037827064 160.575 L 17.328370037827064 160.575 L 16.617745037827063 160.575 L 15.907120037827061 160.575 L 15.196495037827063 160.575 L 14.485870037827064 160.575 L 13.775245037827064 160.575 L 13.064620037827064 160.575 L 12.353995037827064 160.575 Q 11.66615317834426 159.9109375 10.971566477751725 159.23769531249997 Q 10.272495891043667 158.56445312499997 9.569205289053627 157.88203124999998 Q 8.864194394442569 157.19960937499997 8.157792278789664 156.50800781249998 Q 7.452649301177566 155.81640624999997 6.749225521675474 155.11562499999997 Q 6.050226795181112 154.41484374999996 5.356309391340334 153.7048828125 Q 4.670133350668966 152.99492187499996 3.99261472457997 152.27578124999997 Q 3.326261295970756 151.55664062499997 2.672309694867211 150.82832031249998 Q 2.0330051071232607 150.09999999999997 1.4099616127879964 149.36249999999998 Q 0.805049001696033 148.62499999999997 0.2203105995060488 147.87832031249997 Q -0.3428728272286943 147.13164062499996 -0.8819831123340558 146.37578125 Q -1.3962411525845413 145.619921875 -1.8826156184877307 144.85488281249997 Q -2.3410387393921743 144.08984374999997 -2.7679359603305524 143.31562499999995 Q -3.164055412382342 142.54140624999997 -3.525258388919653 141.75800781249995 Q -3.8532061457888407 140.97460937499997 -4.143184766126092 140.18203124999997 Q -4.397856180456266 139.389453125 -4.611930628949425 138.5876953125 Q -4.789146228265271 137.7859375 -4.923647525548885 136.97499999999997 Q -5.020424926317866 136.16562499999998 -5.074086601874049 135.35097656249997 Q -5.090070223824142 134.53632812499995 -5.062794752923584 133.71640624999998 Q -4.998519354416171 132.896484375 -4.891526618763544 132.0712890625 Q -4.748892755571756 131.24609375 -4.564788746750862 130.41562499999998 Q -4.34708862562792 129.58515624999995 -4.0898784941367605 128.74941406249997 Q -3.8017958579008106 127.91367187499998 -3.4768699781584953 127.07265624999998 Q -3.1244522652296265 126.23164062499997 -2.7385437852907013 125.38535156249995 Q -2.3291452800392545 124.53906249999996 -1.890258136152049 123.68749999999997 Q -1.4324533711526657 122.83593749999997 -0.9497603271892912 121.97910156249996 Q -0.45322760803919526 121.12226562499997 0.06306147947874563 120.26015624999997 Q 0.5876858905661242 119.39804687499998 1.1264846896895988 118.53066406249997 Q 1.6677804849849789 117.66328124999998 2.2173140659248145 116.79062499999998 Q 2.7632769099285786 115.91796874999997 3.31129450785662 115.04003906249997 Q 3.8495594167252327 114.16210937499997 4.383568944728859 113.27890624999996 Q 4.9016535279542826 112.39570312499995 5.409173957360828 111.50722656249997 Q 5.8947372898877175 110.61874999999998 6.363564300081659 109.72499999999997 Q 6.804898515124678 108.82968749999996 7.21967690619387 107.93408203124997 Q 7.601648286325789 107.03847656249997 7.952367433873369 106.14257812499997 Q 8.265949235579077 105.24667968749996 8.544291506383885 104.35048828124998 Q 8.781921447388601 103.45429687499998 8.981117186855053 102.55781249999998 Q 9.136856138843886 101.66132812499998 9.25182631718989 100.76455078125 Q 9.321484097050014 99.86777343749999 9.348948608382207 98.97070312499999 Q 9.33017416168908 98.07363281249998 9.268723423670272 97.17626953124999 Q 9.161057415834083 96.27890624999999 9.01118566357226 95.38125 Q 8.816074260192371 94.48359374999998 8.58017371067655 93.58564453125 Q 8.300943123664936 92.68769531250001 7.983258990595543 91.78945312500002 Q 7.625051174276001 90.89121093750002 7.231598321011697 89.99267578125001 Q 6.801269006069783 89.09414062500002 6.339711819972304 88.1953125 Q 5.845692856189856 87.296484375 5.325190694377887 86.39736328125 Q 4.777319419227736 85.49824218750001 4.208340697629055 84.59882812500001 Q 3.6176597413844753 83.69941406250001 3.01176840081067 82.79970703125002 Q 2.3902999651874643 81.9 1.7599186359049062 81.00000000000001 L 1.7599186359049062 81.00000000000001 Z" fill="black" stroke="black" />
				</svg>