<svg
					xmlns="http://www.w3.org/2000/svg" xmlns:xlink="http://www.w3.org/1999/xlink"
					style="
						overflow: visible;
						height: 100;
					"
					viewBox="-7.729235959958212 0 31.496789907198853 130.675"
				>
					<path d="M 15.190000000000001 0 L 16.09590888542813 1.2996093750000004 L 16.991730422173223 2.599218750000001 L 17.86748620257145 3.8988281250000014 L 18.713414524459733 5.198437500000002 L 19.520075815288294 6.498046875000002 L 20.278454577308302 7.797656250000003 L 20.980056752850345 9.097265625000002 L 21.61700145817131 10.396875000000003 L 22.182106095165544 11.696484375000002 L 22.668963921753523 12.996093750000004 L 23.07201324320596 14.295703125000006 L 23.38659747715306 15.595312500000006 L 23.609015443590923 16.894921875000005 L 23.736561336764563 18.194531250000004 L 23.76755394724064 19.494140625000007 L 23.701354818578242 20.793750000000006 L 23.53837514250993 22.093359375000006 L 23.280071318166684 23.392968750000005 L 22.928929223306067 24.692578125000004 L 22.48843736741074 25.992187500000007 L 21.963049216597554 27.29179687500001 L 21.358135097219474 28.591406250000013 L 20.67992419759024 29.89101562500001 L 19.93543729419965 31.19062500000001 L 19.13241092896067 32.49023437500001 L 18.279213856356485 33.78984375000001 L 17.384756662838868 35.089453125000006 L 16.458395534567327 36.38906250000001 L 15.509831212775062 37.68867187500001 L 14.549004228020271 38.988281250000014 L 13.585987544768555 40.28789062500002 L 12.630877775719897 41.58750000000001 L 11.693686140740237 42.88710937500001 L 10.784230348015774 44.18671875000001 L 9.912028565088397 45.486328125000014 L 9.086196624860403 46.78593750000001 L 8.315349576719713 48.085546875000006 L 7.607508646010567 49.38515625000001 L 6.970014606665739 50.68476562500001 L 6.409448502555707 51.984375000000014 L 5.9315605737457755 53.283984375000024 L 5.541208155241016 54.58359375000002 L 5.242303218898138 55.88320312500002 L 5.037770125039481 57.182812500000026 L 4.92951404004179 58.48242187500002 L 4.918400360982549 59.78203125000002 L 5.004245369552857 61.08164062500002 L 5.185818216172425 62.38125000000002 L 5.46085421287871 63.68085937500002 L 5.826079291430096 64.98046875000001 L 6.2772453624812705 66.28007812500002 L 6.809176193959948 67.57968750000002 L 7.415823313169116 68.87929687500002 L 8.09033132888515 70.17890625000001 L 8.825111967988288 71.47851562500001 L 9.611926027047108 72.77812500000002 L 10.44197235379892 74.07773437500003 L 11.305982897546883 75.37734375000002 L 12.1943228019515 76.67695312500003 L 13.097094459237805 77.97656250000003 L 14.0042444020569 79.27617187500003 L 14.905671878594621 80.57578125000003 L 15.791337938341464 81.87539062500002 L 16.651373850422765 83.17500000000003 L 15.926998850422766 83.17500000000003 L 15.202623850422766 83.17500000000003 L 14.478248850422766 83.17500000000003 L 13.753873850422766 83.17500000000003 L 13.029498850422765 83.17500000000003 L 12.305123850422765 83.17500000000003 L 11.580748850422767 83.17500000000003 L 10.856373850422766 83.17500000000003 L 10.131998850422766 83.17500000000003 L 9.407623850422766 83.17500000000003 L 8.683248850422766 83.17500000000003 L 7.958873850422766 83.17500000000003 L 7.234498850422765 83.17500000000003 L 6.510123850422765 83.17500000000003 L 5.785748850422766 83.17500000000003 L 5.061373850422766 83.17500000000003 L 4.145087938341463 81.87539062500002 L 3.203171878594619 80.57578125000003 L 2.245494402056897 79.27617187500003 L 1.282094459237804 77.97656250000003 L 0.3230728019514988 76.67695312500003 L -0.621517102453117 75.37734375000002 L -1.541777646201078 74.07773437500003 L -2.4280739729528933 72.77812500000002 L -3.271138032011714 71.47851562500001 L -4.0621686711148515 70.17890625000001 L -4.792926686830884 68.87929687500002 L -5.455823806040051 67.57968750000002 L -6.044004637518728 66.28007812500002 L -6.551420708569903 64.98046875000001 L -6.972895787121291 63.68085937500002 L -7.304181783827575 62.38125000000002 L -7.542004630447142 61.08164062500002 L -7.684099639017452 59.78203125000002 L -7.729235959958212 58.48242187500002 L -7.67722987496052 57.182812500000026 L -7.528946781101862 55.88320312500002 L -7.286291844758985 54.58359375000002 L -6.952189426254226 53.283984375000024 L -6.530551497444295 51.984375000000014 L -6.026235393334262 50.68476562500001 L -5.444991353989435 49.38515625000001 L -4.793400423280289 48.085546875000006 L -4.078803375139599 46.78593750000001 L -3.3092214349116045 45.486328125000014 L -2.4932696519842277 44.18671875000001 L -1.6400638592597636 42.88710937500001 L -0.7591222242801039 41.58750000000001 L 0.1397375447685536 40.28789062500002 L 1.0465042280202703 38.988281250000014 L 1.9510812127750607 37.68867187500001 L 2.8433955345673274 36.38906250000001 L 3.71350666283887 35.089453125000006 L 4.551713856356485 33.78984375000001 L 5.34866092896067 32.49023437500001 L 6.095437294199651 31.19062500000001 L 6.78367419759024 29.89101562500001 L 7.405635097219472 28.591406250000013 L 7.954299216597552 27.29179687500001 L 8.423437367410738 25.992187500000007 L 8.807679223306067 24.692578125000004 L 9.102571318166682 23.392968750000005 L 9.304625142509929 22.093359375000006 L 9.41135481857824 20.793750000000006 L 9.421303947240638 19.494140625000007 L 9.334061336764561 18.194531250000004 L 9.15026544359092 16.894921875000005 L 8.871597477153058 15.595312500000006 L 8.500763243205954 14.295703125000006 L 8.041463921753524 12.996093750000004 L 7.498356095165542 11.696484375000002 L 6.877001458171308 10.396875000000003 L 6.183806752850343 9.097265625000002 L 5.425954577308302 7.797656250000003 L 4.611325815288294 6.498046875000002 L 3.7484145244597324 5.198437500000002 L 2.8462362025714483 3.8988281250000014 L 1.9142304221732205 2.599218750000001 L 0.9621588854281283 1.2996093750000004 L 0 0 L 0.9493750000000001 0 L 1.8987500000000002 0 L 2.8481250000000005 0 L 3.7975000000000003 0 L 4.746875000000001 0 L 5.696250000000001 0 L 6.645625000000001 0 L 7.595000000000001 0 L 8.544375000000002 0 L 9.493750000000002 0 L 10.443125000000002 0 L 11.392500000000002 0 L 12.341875000000002 0 L 13.291250000000002 0 L 14.240625000000001 0 L 15.190000000000001 0 L 15.190000000000001 0 Z M 2.8750515796929794 113.94999999999996 L 2.8750515796929794 113.94999999999996 Q 3.6657095142447282 112.77812499999996 4.40427317948944 111.69374999999995 Q 5.111024439645171 110.60937499999996 5.765484171944234 109.61249999999995 Q 6.3850584772499 108.61562499999997 6.957263819288568 107.70624999999995 Q 7.495040941485941 106.79687499999997 7.99383372045307 105.97499999999997 Q 8.461062943150907 105.15312499999996 8.899695309498883 104.41874999999996 Q 9.311067068856039 103.68437499999997 9.705036380349059 103.03749999999997 Q 10.076709005604137 102.39062499999997 10.442061347117932 101.83124999999997 Q 10.79015911285176 101.27187499999998 11.14224377381423 100.79999999999998 Q 11.481786176823363 100.32812499999999 11.81571196933427 99.915234375 Q 12.139914106905874 99.50234375 12.463960607986252 99.1484375 Q 12.780815085718068 98.79453124999999 13.102273685125773 98.499609375 Q 13.41872422310811 98.2046875 13.743777628508116 97.96875 Q 14.0656251739519 97.7328125 14.39928288800003 97.55585937500001 Q 14.731139247732207 97.37890625 15.0772101001025 97.26093750000001 Q 15.42248150189774 97.14296875000001 15.783567589847962 97.08398437500001 Q 16.144454041272326 97.025 16.521954041272327 97.025 L 16.521954041272327 97.025 Q 16.89070404127233 97.025 17.250911339847963 97.08398437500001 Q 17.61091900189774 97.14296875000001 17.961585100102496 97.26093750000001 Q 18.311451747732207 97.37890625 18.65037663800003 97.55585937500001 Q 18.9875001739519 97.7328125 19.311277628508115 97.96875 Q 19.631849223108112 98.2046875 19.935867435125775 98.499609375 Q 20.234877585718067 98.79453124999999 20.513335607986253 99.1484375 Q 20.784601606905877 99.50234375 21.030555719334274 99.915234375 Q 21.266786176823366 100.32812499999999 21.47224377381423 100.79999999999998 Q 21.66515911285176 101.27187499999998 21.793936347117935 101.83124999999997 Q 21.905459005604136 102.39062499999997 21.94253638034906 103.03749999999997 Q 21.957317068856042 103.68437499999997 21.886570309498886 104.41874999999996 Q 21.78856294315091 105.15312499999996 21.593833720453073 105.97499999999997 Q 21.36754094148594 106.79687499999997 21.034138819288568 107.70624999999995 Q 20.6663084772499 108.61562499999997 20.182984171944234 109.61249999999995 Q 19.664774439645175 110.60937499999996 19.026148179489443 111.69374999999995 Q 18.35570951424473 112.77812499999996 17.56505157969298 113.94999999999996 L 17.56505157969298 113.94999999999996 Q 16.798703453891605 115.05312499999995 16.0376251509431 116.08007812499994 Q 15.268172712730852 117.10703124999995 14.516388373464466 118.05781249999995 Q 13.765636894348983 119.00859374999996 13.040182346685805 119.88320312499997 Q 12.322000062845794 120.75781249999997 11.63270815735342 121.55624999999998 Q 10.954254358377032 122.35468749999997 10.305082905939086 123.07695312499999 Q 9.668198247104064 123.79921874999997 9.058624079193132 124.44531249999997 Q 8.461220004685169 125.09140624999998 7.887568002454621 125.66132812499998 Q 7.324908155283866 126.23124999999999 6.781535305054538 126.725 Q 6.247348737364215 127.21875 5.741701726949208 127.65078125000001 Q 5.243670459444044 128.0828125 4.770364992924296 128.45312500000003 Q 4.303000947073489 128.8234375 3.8567206469538595 129.13203125 Q 3.414756526082998 129.440625 2.9905982291757605 129.68750000000003 Q 2.5692958387443596 129.93437500000002 2.1630296930433603 130.11953125000002 Q 1.7584087372330668 130.3046875 1.3666666748977532 130.42812500000002 Q 0.9756675740078018 130.55156250000005 0.5960730672642862 130.61328125000003 Q 0.21666601157799903 130.675 -0.15208398842200044 130.675 L -0.15208398842200044 130.675 Q -0.5295839884220008 130.675 -0.8712706827357142 130.61328125000003 Q -1.2127699259921974 130.55156250000005 -1.5177083251022454 130.42812500000002 Q -1.8219037627669312 130.3046875 -2.0880640569566387 130.11953125000002 Q -2.3525791612556395 129.93437500000002 -2.5769017708242394 129.68750000000003 Q -2.7983684739170025 129.440625 -2.9768731030461426 129.13203125 Q -3.151061552926513 128.8234375 -3.279010007075706 128.45312500000003 Q -3.401017040555958 128.0828125 -3.4731420230507952 127.65078125000001 Q -3.5376512626357877 127.21875 -3.548464694945464 126.725 Q -3.550091844716135 126.23124999999999 -3.46430699754538 125.66132812499998 Q -3.3675299953148325 125.09140624999998 -3.17887592080687 124.44531249999997 Q -2.9780517528959387 123.79921874999997 -2.6817920940609152 123.07695312499999 Q -2.373245641622972 122.35468749999997 -1.9672918426465817 121.55624999999998 Q -1.5504999371542092 120.75781249999997 -1.0366926533141956 119.88320312499997 Q -0.5156131056510175 119.00859374999996 0.09888837346446419 118.05781249999995 Q 0.7144227127308496 117.10703124999995 1.4157501509430965 116.08007812499994 Q 2.108703453891602 115.05312499999995 2.8750515796929794 113.94999999999996 L 2.8750515796929794 113.94999999999996 Z" fill="black" stroke="black" />
				</svg>