<svg
					xmlns="http://www.w3.org/2000/svg" xmlns:xlink="http://www.w3.org/1999/xlink"
					style="
						overflow: visible;
						height: 100;
					"
					viewBox="0 0 28.850893905619227 27.375000000000007"
				>
					<path d="M 27.19906803183216 27.375000000000007 L 26.57813053183216 27.375000000000007 L 25.95719303183216 27.375000000000007 L 25.33625553183216 27.375000000000007 L 24.715318031832158 27.375000000000007 L 24.094380531832158 27.375000000000007 L 23.473443031832158 27.375000000000007 L 22.852505531832158 27.375000000000007 L 22.23156803183216 27.375000000000007 L 21.61063053183216 27.375000000000007 L 20.98969303183216 27.375000000000007 L 20.36875553183216 27.375000000000007 L 19.74781803183216 27.375000000000007 L 19.12688053183216 27.375000000000007 L 18.50594303183216 27.375000000000007 L 17.88500553183216 27.375000000000007 L 17.26406803183216 27.375000000000007 L 16.64313053183216 27.375000000000007 L 16.02219303183216 27.375000000000007 L 15.40125553183216 27.375000000000007 L 14.78031803183216 27.375000000000007 L 14.159380531832161 27.375000000000007 L 13.538443031832161 27.375000000000007 L 12.91750553183216 27.375000000000007 L 12.29656803183216 27.375000000000007 L 11.67563053183216 27.375000000000007 L 11.05469303183216 27.375000000000007 L 10.433755531832162 27.375000000000007 L 9.812818031832162 27.375000000000007 L 9.191880531832162 27.375000000000007 L 8.570943031832162 27.375000000000007 L 7.950005531832161 27.375000000000007 L 7.329068031832161 27.375000000000007 L 7.973254673976773 25.664062500000007 L 8.468297324959263 23.953125000000007 L 8.804935947344228 22.242187500000004 L 8.97687353573365 20.531250000000007 L 8.98089390561923 18.820312500000004 L 8.816921853832971 17.109375000000004 L 8.488024565262657 15.398437500000004 L 8.000354239518805 13.687500000000004 L 7.363033010751992 11.976562500000004 L 6.5879823132569095 10.265625000000004 L 5.689699884670695 8.554687500000002 L 4.684988578039974 6.843750000000002 L 3.5926420554718543 5.132812500000002 L 2.433093242637151 3.421875000000001 L 1.2280321199723272 1.7109375000000004 L 0 0 L 0.6209374999999999 0 L 1.2418749999999998 0 L 1.8628124999999998 0 L 2.4837499999999997 0 L 3.1046875 0 L 3.7256249999999995 0 L 4.346562499999999 0 L 4.967499999999999 0 L 5.5884374999999995 0 L 6.209375 0 L 6.8303125 0 L 7.451249999999999 0 L 8.072187499999998 0 L 8.693124999999998 0 L 9.314062499999999 0 L 9.934999999999999 0 L 10.555937499999999 0 L 11.176874999999999 0 L 11.7978125 0 L 12.41875 0 L 13.0396875 0 L 13.660625 0 L 14.2815625 0 L 14.902499999999998 0 L 15.523437499999996 0 L 16.144374999999997 0 L 16.765312499999997 0 L 17.386249999999997 0 L 18.007187499999997 0 L 18.628124999999997 0 L 19.249062499999997 0 L 19.869999999999997 0 L 21.098032119972324 1.7109375000000004 L 22.30309324263715 3.421875000000001 L 23.462642055471854 5.132812500000002 L 24.55498857803997 6.843750000000002 L 25.559699884670692 8.554687500000002 L 26.457982313256906 10.265625000000004 L 27.23303301075199 11.976562500000004 L 27.870354239518804 13.687500000000004 L 28.358024565262653 15.398437500000004 L 28.68692185383297 17.109375000000004 L 28.850893905619227 18.820312500000004 L 28.84687353573365 20.531250000000007 L 28.674935947344224 22.242187500000004 L 28.33829732495926 23.953125000000007 L 27.84325467397677 25.664062500000007 L 27.19906803183216 27.375000000000007 L 27.19906803183216 27.375000000000007 Z" fill="black" stroke="black" />
				</svg>