<svg
					xmlns="http://www.w3.org/2000/svg" xmlns:xlink="http://www.w3.org/1999/xlink"
					style="
						overflow: visible;
						height: 100;
					"
					viewBox="-8.987191326077994 0 76.52570494198892 128.52499999999998"
				>
					<path d="M 28.835755241609707 128.52499999999998 L 28.008255241609707 128.52499999999998 L 27.180755241609706 128.52499999999998 L 26.353255241609705 128.52499999999998 L 25.525755241609705 128.52499999999998 L 24.698255241609704 128.52499999999998 L 23.870755241609707 128.52499999999998 L 23.04325524160971 128.52499999999998 L 22.21575524160971 128.52499999999998 L 21.38825524160971 128.52499999999998 L 20.56075524160971 128.52499999999998 L 19.733255241609708 128.52499999999998 L 18.905755241609707 128.52499999999998 L 18.078255241609707 128.52499999999998 L 17.250755241609706 128.52499999999998 L 16.423255241609706 128.52499999999998 L 15.595755241609709 128.52499999999998 L 16.15663466371991 127.07929687499998 L 16.798738297633307 125.63359374999999 L 17.511290407947783 124.187890625 L 18.28257396446526 122.7421875 L 19.10008719887126 121.29648437499998 L 19.950710646664817 119.85078125 L 20.820882442413872 118.405078125 L 21.69677952613482 116.959375 L 22.564502339613703 115.51367187499999 L 23.41026054485584 114.06796874999999 L 24.22055728319341 112.62226562500001 L 24.982369513079373 111.17656249999999 L 25.683322016991056 109.730859375 L 26.311852752456137 108.28515625 L 26.857367337869345 106.839453125 L 27.310380608943063 105.39375 L 27.662643354390465 103.94804687499999 L 27.90725253746689 102.50234375 L 28.038743530648247 101.056640625 L 28.053163131056078 99.6109375 L 27.94812238103632 98.16523437499998 L 27.722828488131512 96.71953125 L 27.378095417948835 95.27382812500001 L 26.916333018387782 93.828125 L 26.341514820543708 92.38242187499999 L 25.659124946514318 90.93671875 L 24.876084833498517 89.49101562500002 L 24.00066075326102 88.0453125 L 23.042353362638057 86.599609375 L 22.011770760851057 85.15390624999998 L 20.920486749768596 83.70820312499998 L 19.780886190966974 82.26249999999999 L 18.605999525845522 80.816796875 L 17.409328669850208 79.37109374999999 L 16.20466660711371 77.92539062499999 L 15.005913095991543 76.47968749999998 L 13.826888947938317 75.03398437499999 L 12.681151361230118 73.58828125 L 11.581812776944998 72.14257812499999 L 10.541365677550814 70.69687499999999 L 9.571515669047852 69.25117187499998 L 8.683025076933232 67.80546874999999 L 7.885569145773945 66.359765625 L 7.187606763772881 64.91406249999999 L 6.596267439636858 63.46835937499999 L 6.117256041901205 62.02265624999999 L 5.754776573533025 60.57695312499998 L 5.511476000295998 59.13124999999998 L 5.388408883412083 57.685546874999986 L 5.385023289079488 56.23984374999998 L 5.499168163116405 54.794140624999976 L 5.727122072194483 53.348437499999974 L 6.0636429276370425 51.90273437499997 L 6.502038027399298 50.45703124999997 L 7.03425348036721 49.01132812499998 L 7.650981818135327 47.565624999999976 L 8.341786356412776 46.119921874999974 L 9.095240644406852 44.67421874999998 L 9.899081138936335 43.22851562499998 L 10.740371063324762 41.78281249999998 L 11.605673261678982 40.337109374999976 L 12.481229738966682 38.891406249999974 L 13.35314548797458 37.44570312499998 L 14.207574146950016 35.99999999999998 L 13.927574146950015 35.99999999999998 Q 13.331129770769197 36.899999999999984 12.612975004587096 37.95781249999999 Q 11.888071255165578 39.01562499999999 11.048516010975506 40.231249999999996 Q 10.630673822953785 40.8390625 10.187526635670148 41.486328125 Q 9.748634986316485 42.133593749999996 9.28794170210902 42.82031249999999 Q 8.834858400672381 43.50703124999999 8.364591455372569 44.23320312499999 Q 7.9060671813793935 44.95937499999998 7.436167522134488 45.72499999999998 Q 6.984183966864782 46.49062499999998 6.54167454790965 47.27148437499998 Q 6.12013602234827 48.05234374999998 5.713221581196128 48.84843749999998 Q 5.331613312371093 49.644531249999986 4.969909609606889 50.45585937499999 Q 4.637774518070576 51.267187499999984 4.33083643921236 52.093749999999986 Q 4.057539881180677 52.920312499999994 3.81460972112078 53.76210937499999 Q 3.609076057399122 54.60390624999999 3.4388054936052583 55.460937499999986 Q 3.309230731329192 56.31796874999999 3.2193815966366035 57.19023437499999 Q 3.1729280035275114 58.06249999999999 3.1700586775182202 58.949999999999996 Q 3.2139569998301774 59.840624999999996 3.300276962430086 60.72382812499999 Q 3.431034312634395 61.60703124999999 3.6018043679394083 62.48281249999999 Q 3.81493839021973 63.35859374999998 4.06490731749172 64.22695312499998 Q 4.354415883138105 65.09531249999998 4.676921832931008 65.95625 Q 5.035492602687786 66.8171875 5.422679667397405 67.67070312499999 Q 5.84191350945706 68.52421875 6.284958926337504 69.37031250000001 Q 6.755600981972973 70.21640625 7.244946963241963 71.055078125 Q 7.757119542103265 71.89375 8.282704172309696 72.72500000000001 L 8.282704172309696 72.72500000000001 L 9.440376715954825 74.46875 L 10.653996631111438 76.2125 L 11.89998484594636 77.95625000000001 L 13.154133414253366 79.7 L 14.392075844668682 81.44375 L 15.589760510214568 83.18750000000001 L 16.72391794043348 84.93125 L 17.772512917228482 86.67500000000001 L 18.715172590769924 88.41875 L 19.533582297727804 90.1625 L 20.21184139159137 91.90625 L 20.736772171751056 93.65 L 21.098175909248766 95.39375 L 21.289030994945755 97.13750000000002 L 21.305629360344476 98.88125000000001 L 21.147648520583594 100.625 L 20.8181578399035 102.36874999999999 L 20.32355889785235 104.11249999999998 L 19.673461114840592 105.85625 L 18.880495053479144 107.6 L 17.960067023015757 109.34375 L 16.930059754589294 111.0875 L 15.810484962796444 112.83125 L 14.623094543851668 114.57499999999999 L 13.390957964259837 116.31875 L 12.138014050794975 118.06249999999999 L 10.88860588992887 119.80625 L 9.667007873014319 121.55 L 8.49695407612602 123.29374999999999 L 7.401177137531455 125.0375 L 6.400966591808653 126.78125 L 5.515755241609708 128.52499999999998 L 4.745755241609708 128.52499999999998 L 3.9757552416097086 128.52499999999998 L 3.205755241609709 128.52499999999998 L 2.4357552416097077 128.52499999999998 L 1.6657552416097081 128.52499999999998 L 0.8957552416097077 128.52499999999998 L 0.1257552416097072 128.52499999999998 L -0.6442447583902924 128.52499999999998 L -1.414244758390292 128.52499999999998 L -2.1842447583902924 128.52499999999998 L -2.9542447583902924 128.52499999999998 L -3.7242447583902925 128.52499999999998 L -4.494244758390293 128.52499999999998 L -5.2642447583902925 128.52499999999998 L -6.034244758390292 128.52499999999998 L -6.8042447583902925 128.52499999999998 L -5.7742853781557 126.516796875 L -4.5956094885185985 124.50859375 L -3.2985738440458325 122.50039062500001 L -1.9165835504750606 120.4921875 L -0.48523171743427673 118.48398437499998 L 0.958617240799023 116.47578124999998 L 2.377777046943662 114.46757812499999 L 3.735697291930357 112.459375 L 4.997404789354912 110.451171875 L 6.130404308618939 108.44296874999999 L 7.105515488409313 106.43476562499998 L 7.897624375839944 104.42656249999999 L 8.486330235392815 102.418359375 L 8.856470969117451 100.41015625 L 8.998513615910925 98.401953125 L 8.908799872583483 96.39375 L 8.58964031332385 94.38554687499999 L 8.049254880945227 92.37734375 L 7.301561182557812 90.369140625 L 6.365816042105069 88.3609375 L 5.26611954156509 86.35273437500001 L 4.030794324217873 84.34453124999999 L 2.691656146000231 82.33632812499998 L 1.2831944618714886 80.32812499999999 L -0.1583158488416105 78.31992187499999 L -1.5957487406394806 76.31171874999998 L -2.9920831817980567 74.30351562499999 L -4.311356629691147 72.2953125 L -5.519591244764737 70.287109375 L -6.585668988555971 68.27890624999999 L -7.482133067639261 66.27070312499998 L -8.185895082340005 64.26249999999999 L -8.678829667626502 62.254296875 L -8.948241311225503 60.24609375 L -8.987191326077994 58.23789062499999 L -8.794676555971446 56.2296875 L -8.375655211791479 54.221484374999996 L -7.740919172981279 52.213281249999994 L -6.906816043079972 50.205078125 L -5.894828117789437 48.196875 L -4.731019109231718 46.188671875 L -3.445362875993486 44.18046875 L -2.070971447490883 42.172265624999994 L -0.6432422248591155 40.16406249999999 L 0.8010536778233512 38.15585937499999 L 2.2247184722373228 36.14765625 L 3.5910857235049 34.139453124999996 L 4.864964692883048 32.131249999999994 L 6.013546673956966 30.123046875 L 7.0072499796776935 28.11484375 L 7.820481817633628 26.106640624999997 L 8.432297431486028 24.0984375 L 8.826939532404953 22.090234375 L 8.994244127468624 20.082031249999996 L 8.929902292930558 18.073828125 L 8.635571150393591 16.065624999999997 L 8.118831187703394 14.057421875 L 7.3929910237603735 12.04921875 L 6.476744645525085 10.041015624999998 L 5.393689945065583 8.032812499999999 L 4.171720956707508 6.024609375 L 2.842309447196964 4.016406249999999 L 1.4396943614953244 2.0082031249999996 L 0 0 L 0.5784375 0 L 1.156875 0 L 1.7353125 0 L 2.31375 0 L 2.8921875000000004 0 L 3.470625 0 L 4.0490625 0 L 4.6275 0 L 5.205937500000001 0 L 5.784375000000001 0 L 6.3628125 0 L 6.94125 0 L 7.5196875 0 L 8.098125 0 L 8.6765625 0 L 9.255 0 L 9.833437500000002 0 L 10.411875000000002 0 L 10.990312500000002 0 L 11.568750000000001 0 L 12.147187500000001 0 L 12.725625 0 L 13.3040625 0 L 13.8825 0 L 14.4609375 0 L 15.039375 0 L 15.6178125 0 L 16.19625 0 L 16.7746875 0 L 17.353125 0 L 17.9315625 0 L 18.51 0 L 19.702273646361604 1.4261718749999996 L 20.88122391720737 2.8523437499999993 L 22.033700684455837 4.278515624999999 L 23.14689806211132 5.704687499999999 L 24.208520924642897 7.130859374999998 L 25.206944783807778 8.557031249999998 L 26.131366944997595 9.983203124999998 L 26.971946977581208 11.409374999999997 L 27.719934672670167 12.835546874999997 L 28.367783824437765 14.261718749999996 L 28.90925035546251 15.687890624999996 L 29.33947351014582 17.114062499999996 L 29.655039060424073 18.540234374999997 L 29.854023701894192 19.966406249999995 L 29.936020063057953 21.392578124999993 L 29.902142002483117 22.818749999999994 L 29.75501012500095 24.244921874999996 L 29.498717705276977 25.671093749999994 L 29.138777461859824 27.09726562499999 L 28.682049873819626 28.523437499999993 L 28.136653972093953 29.949609374999994 L 27.51186176554538 31.375781249999992 L 26.817977674537094 32.80195312499999 L 26.066204539784135 34.22812499999999 L 25.268497948803226 35.65429687499999 L 24.437410774193545 37.080468749999994 L 23.585929945258947 38.50664062499999 L 22.72730757547415 39.93281249999999 L 21.87488864168986 41.35898437499999 L 21.041937455810405 42.785156249999986 L 20.2414651853794 44.21132812499999 L 19.486060665869577 45.63749999999999 L 18.787726704670096 47.06367187499999 L 18.157724005354634 48.48984374999999 L 17.606424741724876 49.916015624999986 L 17.143177685645604 51.34218749999999 L 16.776186642450334 52.76835937499999 L 16.512403774654608 54.19453124999998 L 16.357439201117458 55.620703124999984 L 16.315488047157345 57.046874999999986 L 16.389275894209618 58.47304687499999 L 16.58002333835823 59.89921874999999 L 16.88743011859664 61.32539062499998 L 17.309679021202413 62.751562499999984 L 17.84345950945592 64.17773437499999 L 18.48401077143943 65.60390624999998 L 19.225183626154656 67.03007812499999 L 20.05952048297673 68.45624999999998 L 20.97835231471036 69.88242187499998 L 21.971911383281522 71.30859374999999 L 23.029458252262046 72.73476562499998 L 24.13942143464926 74.16093749999999 L 25.289547860022996 75.58710937499998 L 26.46706220451493 77.01328124999998 L 27.658833011780104 78.43945312499999 L 28.851543444854652 79.86562499999998 L 30.03186444856766 81.29179687499999 L 31.186628070829606 82.71796874999998 L 32.30299868905416 84.14414062499998 L 33.36863991521003 85.57031249999997 L 34.3718750091917 86.996484375 L 35.30183871461078 88.42265624999997 L 36.14861854264645 89.84882812499997 L 36.90338366680294 91.27499999999998 L 37.18338366680294 91.27499999999998 L 36.760649792646454 89.84882812499997 L 36.24590121461078 88.42265624999997 L 35.6479687591917 86.996484375 L 34.97676491521003 85.57031249999997 L 34.24315493905416 84.14414062499998 L 33.45881557082961 82.71796874999998 L 32.63608319856766 81.29179687499999 L 31.787793444854657 79.86562499999998 L 30.927114261780112 78.43945312499999 L 30.06737470451494 77.01328124999998 L 29.221891610023004 75.58710937499998 L 28.40379643464927 74.16093749999999 L 27.625864502262054 72.73476562499998 L 26.90034888328153 71.30859374999999 L 26.23882106471037 69.88242187499998 L 25.652020482976734 68.45624999999998 L 25.149714876154658 67.03007812499999 L 24.74057327143943 65.60390624999998 L 24.43205325945592 64.17773437499999 L 24.230304021202414 62.751562499999984 L 24.14008636859664 61.32539062499998 L 24.164710838358232 59.89921874999999 L 24.30599464420962 58.47304687499999 L 24.564238047157346 57.046874999999986 L 24.93822045111746 55.620703124999984 L 25.42521627465461 54.19453124999998 L 26.021030392450335 52.76835937499999 L 26.720052685645605 51.34218749999999 L 27.515330991724877 49.916015624999986 L 28.398661505354635 48.48984374999999 L 29.360695454670097 47.06367187499999 L 30.391060665869578 45.63749999999999 L 31.4784964353794 44.21132812499999 L 32.61099995581041 42.785156249999986 L 33.77598239168986 41.35898437499999 L 34.96043257547415 39.93281249999999 L 36.15108619525895 38.50664062499999 L 37.334598274193546 37.080468749999994 L 38.497716698803224 35.65429687499999 L 39.62745453978413 34.22812499999999 L 40.71125892453709 32.80195312499999 L 41.73717426554538 31.375781249999992 L 42.69399772209395 29.949609374999994 L 43.57142487381962 28.523437499999993 L 44.36018371185982 27.09726562499999 L 45.052155205276975 25.671093749999994 L 45.640478875000944 24.244921874999996 L 46.11964200248311 22.818749999999994 L 46.48555131305795 21.392578124999993 L 46.735586201894186 19.966406249999995 L 46.86863281042407 18.540234374999997 L 46.88509851014581 17.114062499999996 L 46.786906605462505 15.687890624999996 L 46.57747132443776 14.261718749999996 L 46.261653422670165 12.835546874999997 L 45.845696977581206 11.409374999999997 L 45.33714819499759 9.983203124999998 L 44.74475728380777 8.557031249999998 L 44.07836467464289 7.130859374999998 L 43.34877306211131 5.704687499999999 L 42.56760693445583 4.278515624999999 L 41.747161417207366 2.8523437499999993 L 40.900242396361605 1.4261718749999996 L 40.04 0 L 40.618125 0 L 41.19625 0 L 41.774375 0 L 42.3525 0 L 42.930625 0 L 43.50875 0 L 44.086875 0 L 44.665 0 L 45.243125 0 L 45.82125 0 L 46.399375 0 L 46.9775 0 L 47.555625 0 L 48.13375 0 L 48.711875 0 L 49.29 0 L 49.868125 0 L 50.44625 0 L 51.024375 0 L 51.6025 0 L 52.180625 0 L 52.75875 0 L 53.336875 0 L 53.915 0 L 54.493125 0 L 55.07125 0 L 55.649375 0 L 56.2275 0 L 56.805625 0 L 57.38375 0 L 57.961875 0 L 58.54 0 L 59.979694361495326 2.0082031249999996 L 61.38230944719696 4.016406249999999 L 62.71172095670751 6.024609375 L 63.93368994506558 8.032812499999999 L 65.01674464552508 10.041015624999998 L 65.93299102376037 12.04921875 L 66.6588311877034 14.057421875 L 67.1755711503936 16.065624999999997 L 67.46990229293056 18.073828125 L 67.53424412746863 20.082031249999996 L 67.36693953240496 22.090234375 L 66.97229743148603 24.0984375 L 66.36048181763363 26.106640624999997 L 65.54724997967769 28.11484375 L 64.55354667395696 30.123046875 L 63.40496469288305 32.131249999999994 L 62.131085723504896 34.139453124999996 L 60.76471847223732 36.14765625 L 59.34105367782335 38.15585937499999 L 57.896757775140884 40.16406249999999 L 56.469028552509116 42.172265624999994 L 55.09463712400651 44.18046875 L 53.80898089076828 46.188671875 L 52.64517188221056 48.196875 L 51.63318395692003 50.205078125 L 50.79908082701872 52.213281249999994 L 50.164344788208524 54.221484374999996 L 49.74532344402856 56.2296875 L 49.552808673922 58.23789062499999 L 49.5917586887745 60.24609375 L 49.8611703323735 62.254296875 L 50.354104917659996 64.26249999999999 L 51.05786693236074 66.27070312499998 L 51.954331011444026 68.27890624999999 L 53.020408755235266 70.287109375 L 54.22864337030885 72.2953125 L 55.54791681820194 74.30351562499999 L 56.94425125936052 76.31171874999998 L 58.38168415115839 78.31992187499999 L 59.82319446187149 80.32812499999999 L 61.23165614600023 82.33632812499998 L 62.57079432421787 84.34453124999999 L 63.80611954156509 86.35273437500001 L 64.90581604210507 88.3609375 L 65.84156118255781 90.369140625 L 66.58925488094522 92.37734375 L 67.12964031332385 94.38554687499999 L 67.44879987258348 96.39375 L 67.53851361591093 98.401953125 L 67.39647096911744 100.41015625 L 67.02633023539282 102.418359375 L 66.43762437583995 104.42656249999999 L 65.64551548840932 106.43476562499998 L 64.67040430861894 108.44296874999999 L 63.53740478935491 110.451171875 L 62.275697291930356 112.459375 L 60.91777704694366 114.46757812499999 L 59.49861724079902 116.47578124999998 L 58.054768282565725 118.48398437499998 L 56.62341644952494 120.4921875 L 55.241426155954166 122.50039062500001 L 53.9443905114814 124.50859375 L 52.765714621844296 126.516796875 L 51.73575524160971 128.52499999999998 L 50.939505241609716 128.52499999999998 L 50.143255241609715 128.52499999999998 L 49.347005241609715 128.52499999999998 L 48.550755241609714 128.52499999999998 L 47.75450524160971 128.52499999999998 L 46.95825524160971 128.52499999999998 L 46.16200524160971 128.52499999999998 L 45.36575524160971 128.52499999999998 L 44.56950524160971 128.52499999999998 L 43.77325524160971 128.52499999999998 L 42.97700524160971 128.52499999999998 L 42.18075524160971 128.52499999999998 L 41.38450524160971 128.52499999999998 L 40.58825524160971 128.52499999999998 L 39.79200524160971 128.52499999999998 L 38.995755241609714 128.52499999999998 L 39.890294343848616 126.7640625 L 40.90192224408086 125.003125 L 42.01059559298474 123.2421875 L 43.19434828305113 121.48124999999999 L 44.42972666232749 119.72031249999998 L 45.6922542208296 117.95937499999997 L 46.956916542804876 116.19843749999998 L 48.19865691650435 114.43749999999997 L 49.392872781963774 112.67656249999999 L 50.515903180690984 110.91562499999998 L 51.54549754943498 109.1546875 L 52.46125656984199 107.39374999999998 L 53.24503633945904 105.6328125 L 53.88130785625867 103.87187499999999 L 54.35746469423017 102.1109375 L 54.66407277407105 100.34999999999998 L 54.79505728028078 98.58906249999997 L 54.7478230212745 96.82812499999997 L 54.52330584782598 95.06718749999997 L 54.125954111087985 93.30624999999998 L 53.56364052756151 91.54531249999998 L 52.84750619723043 89.78437499999998 L 51.99173986532488 88.02343749999999 L 51.01329680119261 86.26249999999999 L 49.93156286412172 84.50156249999999 L 48.767970411967184 82.740625 L 47.54557366257065 80.9796875 L 46.2885919213232 79.21874999999999 L 45.02192972488804 77.45781249999999 L 43.77068340845907 75.69687499999998 L 42.55964387292184 73.93593749999997 L 41.41280540357393 72.17499999999998 Q 40.94190755213182 71.41249999999998 40.48245772727513 70.63671874999997 Q 40.04348740472848 69.86093749999998 39.62083320274314 69.07187499999998 Q 39.222810784598586 68.28281249999998 38.846046486902395 67.48046874999999 Q 38.49796342941246 66.67812499999998 38.17604620438131 65.86249999999998 Q 37.886651405164045 65.04687499999997 37.62817521387632 64.21796874999997 Q 37.405740407021646 63.38906249999997 37.218690786208676 62.54687499999997 Q 37.07075901753672 61.70468749999998 36.96225343530805 60.84921874999998 Q 36.89537589575352 59.99374999999998 36.87139562998196 59.12499999999998 Q 36.89074696306334 58.259374999999984 36.95329742219372 57.40507812499998 Q 37.057567229886864 56.55078124999997 37.20214227509777 55.707812499999974 Q 37.38630121104718 54.86484374999998 37.60724799330279 54.033203124999986 Q 37.86503144872686 53.20156249999998 38.15558868404757 52.38124999999998 Q 38.479733890721256 51.56093749999998 38.83226837408978 50.751953124999986 Q 39.214751082754795 49.94296874999998 39.62099064976242 49.145312499999974 Q 40.05325546950126 48.34765624999997 40.50451298040956 47.56132812499998 Q 40.977692383641674 46.774999999999984 41.4650762337985 45.99999999999998 Q 41.973443756426434 45.221874999999976 42.46952394894636 44.48476562499998 Q 42.978281276938986 43.747656249999984 43.468553504930625 43.051562499999974 Q 43.967139011672884 42.35546874999998 44.44230833304459 41.70039062499999 Q 44.92225241702242 41.045312499999994 45.375036296209956 40.43124999999999 Q 46.28558365355783 39.20312499999999 47.0730987020131 38.139062499999994 Q 47.85472537830863 37.074999999999996 48.50563663097899 36.175 L 48.50563663097899 36.175 L 48.215636630978985 36.175 L 47.03390602276758 37.61796875 L 45.8363893740328 39.060937499999994 L 44.63687005666213 40.50390624999999 L 43.44915810011508 41.946875 L 42.28690636577766 43.38984374999999 L 41.16342881338504 44.83281249999999 L 40.09152327857251 46.275781249999994 L 39.0833011205671 47.71875 L 38.15002600758386 49.16171875 L 37.30196398585815 50.6046875 L 36.54824682804895 52.04765625 L 35.89675047998603 53.490624999999994 L 35.3539902237591 54.933593749999986 L 34.925033952636 56.37656249999999 L 34.613434712209354 57.81953125 L 34.421183405718416 59.262499999999996 L 34.348682293086476 60.705468749999994 L 34.394739636429065 62.1484375 L 34.55658556330656 63.591406250000006 L 34.8299089365651 65.034375 L 35.208914739990384 66.47734374999999 L 35.68640121591268 67.9203125 L 36.25385572798209 69.36328125 L 36.90156807308274 70.80624999999999 L 37.61875973408785 72.24921875 L 38.3937273529692 73.6921875 L 39.21399851448682 75.13515625 L 40.066497766818294 76.578125 L 40.93772066922317 78.02109374999999 L 41.81391354998933 79.46406249999998 L 42.68125658189911 80.90703124999999 L 43.526047738293 82.35 L 44.3348851810872 83.79296875 L 45.094845652973525 85.2359375 L 45.793656499218756 86.67890625 L 46.41985902927694 88.121875 L 46.96296104370412 89.56484375000001 L 47.413576496086016 91.0078125 L 47.76355043093517 92.45078124999999 L 48.00606753450624 93.89375 L 48.1357428536067 95.33671874999999 L 48.14869347484263 96.77968749999998 L 48.0425902101755 98.22265624999999 L 47.81668860080201 99.66562499999998 L 47.471838826663785 101.10859374999998 L 47.01047438968098 102.55156249999999 L 46.43657972134775 103.99453125 L 45.75563714586556 105.4375 L 44.974553904789424 106.88046874999999 L 44.101570214563836 108.3234375 L 43.14614958079684 109.76640625 L 42.11885282930151 111.209375 L 41.03119753068111 112.65234375 L 39.89550468966029 114.0953125 L 38.72473473988499 115.53828124999998 L 37.53231502726782 116.98124999999999 L 36.33196107825292 118.42421875 L 35.13749403210236 119.86718749999997 L 33.96265666736781 121.31015624999998 L 32.82093047142358 122.75312499999998 L 31.725356188052952 124.19609374999999 L 30.688360231783527 125.6390625 L 29.721589279574417 127.08203124999999 L 28.835755241609707 128.52499999999998 L 28.835755241609707 128.52499999999998 Z" fill="black" stroke="black" />
				</svg>