<svg
					xmlns="http://www.w3.org/2000/svg" xmlns:xlink="http://www.w3.org/1999/xlink"
					style="
						overflow: visible;
						height: 100;
					"
					viewBox="-8.987191326077994 0 57.374873968273064 128.52499999999998"
				>
					<path d="M 0 0 L 0.5603125 0 L 1.120625 0 L 1.6809375 0 L 2.24125 0 L 2.8015625 0 L 3.361875 0 L 3.9221874999999997 0 L 4.4825 0 L 5.0428125 0 L 5.603125 0 L 6.163437500000001 0 L 6.72375 0 L 7.284062499999999 0 L 7.844374999999999 0 L 8.4046875 0 L 8.965 0 L 9.5253125 0 L 10.085625 0 L 10.6459375 0 L 11.20625 0 L 11.766562500000001 0 L 12.326875000000001 0 L 12.8871875 0 L 13.4475 0 L 14.0078125 0 L 14.568124999999998 0 L 15.128437499999999 0 L 15.688749999999999 0 L 16.2490625 0 L 16.809375 0 L 17.369687499999998 0 L 17.93 0 Q 18.27875 0 18.627058593344714 0.008081054687500006 Q 18.975367184257685 0.01616210937500001 19.32323434906148 0.03232421875000002 Q 19.67110147495753 0.04848632812500003 20.018527048294448 0.07272949218750005 Q 20.365952424661845 0.09697265625000007 20.71293583994307 0.1292968750000001 Q 21.059918632711064 0.1616210937500001 21.406458511184198 0.20202636718750014 Q 21.752996869889177 0.24243164062500017 22.099090466324974 0.2909179687500002 Q 22.44518091151803 0.33940429687500023 22.790823414237398 0.39597167968750024 Q 23.136460079342555 0.4525390625000003 23.48164376488164 0.5171875000000004 Q 23.82681749288966 0.5818359375000004 24.171530735819307 0.6545654296875004 Q 24.51622803145788 0.7272949218750004 24.86045417018066 0.8081054687500006 Q 25.204656008553005 0.8889160156250007 25.548372068311615 0.9778076171875006 Q 25.892052561456893 1.0666992187500006 26.23522783631693 1.1636718750000008 Q 26.578352759732464 1.260644531250001 26.920947255964876 1.3656982421875008 Q 27.263472437856183 1.470751953125001 27.605435181954327 1.583886718750001 Q 27.94730475885845 1.697021484375001 28.288571974395303 1.818237304687501 Q 28.629716517869088 1.9394531250000013 28.97020967654457 2.0687500000000014 Q 29.65071026319205 2.3273437500000016 30.328229785642886 2.6182617187500017 Q 31.00473570795467 2.9091796875000018 31.677585560159432 3.232421875000002 Q 32.34889647380764 3.5556640625000027 33.01563211219209 3.9112304687500026 Q 33.68012630532732 4.2667968750000025 34.338833187149746 4.654687500000003 Q 34.994387220205994 5.042578125000004 35.642599227982465 5.462792968750003 Q 36.286506805080485 5.883007812500004 36.92112573014663 6.335546875000004 Q 37.5500192654557 6.788085937500004 38.16723928675503 7.272949218750004 Q 38.77701848950559 7.757812500000005 39.3722604823483 8.275000000000006 Q 39.959516152386044 8.793750000000005 40.532971037859404 9.340527343750004 Q 41.094724482868315 9.887304687500002 41.63917309781829 10.462109375 Q 42.16949142117425 11.036914062500001 42.67857801183597 11.639746093749999 Q 43.17087342784595 12.242578124999998 43.63761167121951 12.873437499999998 Q 44.08470296509174 13.504296874999998 44.50155777134866 14.163183593749995 Q 44.89576961707118 14.822070312499996 45.25477982215929 15.508984374999994 Q 45.58808506104333 16.195898437499995 45.88103176648012 16.91083984374999 Q 46.14524095044847 17.625781249999992 46.36386521292698 18.36874999999999 Q 46.55086642499592 19.11171874999999 46.68713840854237 19.882714843749987 Q 46.78918851447938 20.653710937499987 46.835628025710925 21.452734374999988 Q 46.84569402795662 22.25175781249999 46.795739515336045 23.078808593749986 Q 46.707885542155395 23.905859374999988 46.55630514094476 24.760937499999986 Q 46.366116818558474 25.616015624999985 46.10945089829833 26.499121093749984 Q 45.814484481811306 27.382226562499987 45.45150449604158 28.293359374999984 Q 45.051743302561334 29.20449218749998 44.58390671756839 30.143652343749984 Q 44.08220231681431 31.08281249999998 43.5140782585452 32.04999999999998 L 43.5140782585452 32.04999999999998 Q 42.86017144748197 33.10624999999999 42.1834685266208 34.12187499999999 Q 41.48299532160393 35.13749999999999 40.77236161282322 36.11249999999999 Q 40.0480504850515 37.08749999999999 39.32412294570286 38.021874999999994 Q 38.59518518399904 38.95625 37.87498378336722 39.849999999999994 Q 37.156915920849805 40.74375 36.453775179605906 41.596875 Q 35.75839062281364 42.44999999999999 35.08208956135648 43.26249999999999 Q 34.41772429634469 44.07499999999999 33.77476122506671 44.84687499999999 Q 33.146601553609464 45.61874999999999 32.540564772873914 46.34999999999998 Q 31.952300813935743 47.08124999999998 31.393543703360326 47.77460937499998 Q 30.852202156377587 48.46796874999998 30.338960635793647 49.12343749999998 Q 29.843264420525927 49.77890624999999 29.373452528487206 50.396484374999986 Q 28.92071023940546 51.01406249999998 28.491039528591884 51.593749999999986 Q 28.0775042479129 52.17343749999999 27.6838220096076 52.715234374999994 Q 27.305014696627172 53.25703124999998 26.94260343265529 53.76093749999999 Q 26.593595209635538 54.26484375 26.25742971419205 54.730859374999994 Q 25.933080935363577 55.196875 25.61804245441425 55.625 Q 25.31444918621965 56.053125 25.024011103096456 56.447265625 Q 24.742347886580042 56.84140624999999 24.47092621836299 57.20156249999999 Q 24.20690622236068 57.56171874999999 23.95039443536062 57.887890625 Q 23.699989986392097 58.21406249999999 23.45457569404054 58.50624999999998 Q 23.214076193408534 58.79843749999998 22.97628844805002 59.05664062499998 Q 22.74234040905733 59.31484374999997 22.50908116197113 59.53906249999997 Q 22.27871389621364 59.76328124999998 22.04727703783068 59.95351562499998 Q 21.817917301581453 60.143749999999976 21.58599842130335 60.299999999999976 L 21.58599842130335 60.299999999999976 L 21.68128279548076 61.199999999999974 Q 21.964202631517765 61.35937499999997 22.252724381991783 61.54648437499998 Q 22.54321780396836 61.73359374999998 22.84046905343849 61.94843749999998 Q 23.140300508541124 62.16328124999998 23.448199485776026 62.40585937499999 Q 23.75935570931985 62.648437499999986 24.0800319158445 62.91874999999998 Q 24.40470160275173 63.18906249999998 24.740471716950864 63.48710937499998 Q 25.08101836305221 63.785156249999986 25.434354540512228 64.11093749999998 Q 25.7932810996001 64.43671874999998 26.166770289735073 64.79023437499998 Q 26.54667426532997 65.14374999999998 26.94296716989443 65.52499999999998 Q 27.34648479665656 65.90624999999999 27.76516039535032 66.33437499999998 Q 28.19258214799673 66.76249999999997 28.638579969853005 67.23749999999998 Q 29.09479040072679 67.71249999999998 29.57298834985805 68.23437499999999 Q 30.062701877450742 68.75624999999998 30.577639869176718 69.32499999999999 Q 31.105100423212 69.89374999999998 31.660645587184824 70.50937499999999 Q 32.22926752447775 71.12499999999999 32.82822069838685 71.7875 Q 33.44017271898841 72.44999999999999 34.08382076987028 73.15937499999998 Q 34.73956006908517 73.86874999999998 35.427184971858594 74.62499999999999 Q 36.12277749554628 75.37812499999998 36.85134368820533 76.19726562499999 Q 37.587107981368014 77.01640624999997 38.35315689255546 77.90156249999998 Q 39.1215081761582 78.78671874999998 39.914418366701405 79.73789062499998 Q 40.70234385168254 80.68906249999998 41.505528171569445 81.70624999999998 Q 42.29378487075331 82.72343749999997 43.08402643965443 83.80664062499997 Q 43.846644287265434 84.88984374999998 44.593834288346144 86.03906249999997 Q 45.29810453590193 87.18828124999999 45.965574992205596 88.40351562499997 Q 46.57272209304473 89.61874999999995 47.118375228898024 90.89999999999996 L 47.118375228898024 90.89999999999996 Q 47.521399527560305 91.99218749999997 47.835214147186775 93.05546874999997 Q 48.08932943623668 94.11874999999996 48.25629289327733 95.15312499999996 Q 48.363454266164155 96.18749999999997 48.38768264219507 97.19296874999998 Q 48.35389011824774 98.19843749999997 48.24307714577276 99.17499999999997 Q 48.07753614543741 100.15156249999997 47.84211706141662 101.09921874999998 Q 47.556403481529884 102.04687499999997 47.208745114024865 102.96562499999996 Q 46.81601431986991 103.88437499999996 46.36966499304972 104.77421874999997 Q 45.883933535568616 105.66406249999997 45.35295623719272 106.52499999999998 Q 44.78847531797964 107.3859375 44.18687839370038 108.21796875000001 Q 43.55760946001839 109.05 42.89888120469826 109.85312499999999 Q 42.21807680428787 110.65624999999999 41.514823872154835 111.43046874999999 Q 40.79471112610051 112.20468749999998 40.05839570729179 112.94999999999999 Q 39.309955445388994 113.69531249999997 38.55072258567475 114.41171874999998 Q 37.78355422526977 115.12812499999998 37.010138359870844 115.81562499999998 Q 36.232398833989684 116.50312499999998 35.452097385826676 117.16171874999999 Q 34.67050164783601 117.8203125 33.889203207170226 118.44999999999999 Q 33.10844885590703 119.07968749999998 32.343143620729066 119.67001953124999 Q 31.580814173127568 120.26035156249998 30.835023619950324 120.81132812499999 Q 30.09339102390258 121.36230468749999 29.36861484927206 121.87392578125 Q 28.648654214576425 122.38554687499999 27.945245712606493 122.8578125 Q 27.24688487562666 123.330078125 26.564293541285593 123.76298828125 Q 25.88665073079597 124.1958984375 25.2236490149339 124.58945312499999 Q 24.56525191340763 124.98300781249998 23.920140963580824 125.33720703124999 Q 23.27912313460046 125.69140625 22.649914734147984 126.00625 Q 22.024187529473448 126.32109374999999 21.40876130123952 126.59658203125 Q 20.796160991330193 126.8720703125 20.192397297206334 127.10820312500002 Q 19.59080833183592 127.3443359375 18.996698228294477 127.54111328125 Q 18.700228928423886 127.639501953125 18.405400154069792 127.72805175781251 Q 18.11089330616609 127.8166015625 17.817888452962503 127.89531249999999 Q 17.52514128784937 127.9740234375 17.233770433888022 128.0428955078125 Q 16.942599090243007 128.11176757812498 16.65269215279336 128.17080078125 Q 16.362933190030283 128.22983398437498 16.07434130164568 128.27902832031248 Q 15.785852985171855 128.32822265625 15.498449650023485 128.367578125 Q 15.211113022246003 128.40693359374998 14.924795065148146 128.4364501953125 Q 14.638514813985081 128.46596679687502 14.353203132855864 128.48564453125 Q 14.067908267716117 128.505322265625 13.78354839834513 128.5151611328125 Q 13.499192741609708 128.52499999999998 13.215755241609706 128.52499999999998 L 13.215755241609706 128.52499999999998 L 12.590130241609703 128.52499999999998 L 11.964505241609704 128.52499999999998 L 11.338880241609704 128.52499999999998 L 10.713255241609705 128.52499999999998 L 10.087630241609705 128.52499999999998 L 9.462005241609706 128.52499999999998 L 8.836380241609707 128.52499999999998 L 8.210755241609707 128.52499999999998 L 7.585130241609709 128.52499999999998 L 6.959505241609707 128.52499999999998 L 6.333880241609706 128.52499999999998 L 5.708255241609707 128.52499999999998 L 5.082630241609707 128.52499999999998 L 4.457005241609708 128.52499999999998 L 3.8313802416097085 128.52499999999998 L 3.2057552416097073 128.52499999999998 L 2.580130241609706 128.52499999999998 L 1.9545052416097066 128.52499999999998 L 1.3288802416097072 128.52499999999998 L 0.7032552416097078 128.52499999999998 L 0.07763024160970744 128.52499999999998 L -0.5479947583902929 128.52499999999998 L -1.1736197583902923 128.52499999999998 L -1.7992447583902926 128.52499999999998 L -2.424869758390293 128.52499999999998 L -3.0504947583902924 128.52499999999998 L -3.6761197583902927 128.52499999999998 L -4.301744758390292 128.52499999999998 L -4.9273697583902925 128.52499999999998 L -5.552994758390293 128.52499999999998 L -6.178619758390292 128.52499999999998 L -6.8042447583902925 128.52499999999998 L -5.7742853781557 126.516796875 L -4.5956094885185985 124.50859375 L -3.2985738440458325 122.50039062500001 L -1.9165835504750606 120.4921875 L -0.48523171743427673 118.48398437499998 L 0.958617240799023 116.47578124999998 L 2.377777046943662 114.46757812499999 L 3.735697291930357 112.459375 L 4.997404789354912 110.451171875 L 6.130404308618939 108.44296874999999 L 7.105515488409313 106.43476562499998 L 7.897624375839944 104.42656249999999 L 8.486330235392815 102.418359375 L 8.856470969117451 100.41015625 L 8.998513615910925 98.401953125 L 8.908799872583483 96.39375 L 8.58964031332385 94.38554687499999 L 8.049254880945227 92.37734375 L 7.301561182557812 90.369140625 L 6.365816042105069 88.3609375 L 5.26611954156509 86.35273437500001 L 4.030794324217873 84.34453124999999 L 2.691656146000231 82.33632812499998 L 1.2831944618714886 80.32812499999999 L -0.1583158488416105 78.31992187499999 L -1.5957487406394806 76.31171874999998 L -2.9920831817980567 74.30351562499999 L -4.311356629691147 72.2953125 L -5.519591244764737 70.287109375 L -6.585668988555971 68.27890624999999 L -7.482133067639261 66.27070312499998 L -8.185895082340005 64.26249999999999 L -8.678829667626502 62.254296875 L -8.948241311225503 60.24609375 L -8.987191326077994 58.23789062499999 L -8.794676555971446 56.2296875 L -8.375655211791479 54.221484374999996 L -7.740919172981279 52.213281249999994 L -6.906816043079972 50.205078125 L -5.894828117789437 48.196875 L -4.731019109231718 46.188671875 L -3.445362875993486 44.18046875 L -2.070971447490883 42.172265624999994 L -0.6432422248591155 40.16406249999999 L 0.8010536778233512 38.15585937499999 L 2.2247184722373228 36.14765625 L 3.5910857235049 34.139453124999996 L 4.864964692883048 32.131249999999994 L 6.013546673956966 30.123046875 L 7.0072499796776935 28.11484375 L 7.820481817633628 26.106640624999997 L 8.432297431486028 24.0984375 L 8.826939532404953 22.090234375 L 8.994244127468624 20.082031249999996 L 8.929902292930558 18.073828125 L 8.635571150393591 16.065624999999997 L 8.118831187703394 14.057421875 L 7.3929910237603735 12.04921875 L 6.476744645525085 10.041015624999998 L 5.393689945065583 8.032812499999999 L 4.171720956707508 6.024609375 L 2.842309447196964 4.016406249999999 L 1.4396943614953244 2.0082031249999996 L 0 0 L 0 0 Z M 7.416222325870642 49.324999999999974 L 7.938722325870643 49.324999999999974 L 8.461222325870642 49.324999999999974 L 8.983722325870641 49.324999999999974 L 9.506222325870642 49.324999999999974 L 10.028722325870643 49.324999999999974 L 10.551222325870643 49.324999999999974 L 11.073722325870644 49.324999999999974 L 11.596222325870642 49.324999999999974 Q 12.027472325870644 49.324999999999974 12.45500118101462 49.26874999999997 Q 12.882660762320327 49.21249999999997 13.307119809734122 49.09999999999997 Q 13.732094854460335 48.98749999999998 14.154889721383965 48.81874999999997 Q 14.578819211329874 48.64999999999998 15.002045655493841 48.424999999999976 Q 15.427221864220932 48.199999999999974 15.853561488828902 47.918749999999974 Q 16.282807910455794 47.63749999999998 16.715378317641274 47.299999999999976 Q 17.151879342739445 46.96249999999998 17.59403215062636 46.56874999999998 Q 18.04110769194935 46.17499999999998 18.496167522134485 45.72499999999998 Q 19.42069417643905 44.82499999999998 20.3386335602966 43.83437499999999 Q 21.276747271035347 42.843749999999986 22.207203896330007 41.76249999999999 Q 23.15099153249773 40.681249999999984 24.080094428346506 39.50937499999999 Q 25.010711498038326 38.33749999999999 25.91222537830863 37.074999999999996 L 25.91222537830863 37.074999999999996 Q 26.38822796609019 36.4 26.80349743514422 35.76718749999999 Q 27.212389018084274 35.13437499999999 27.55999284566446 34.54374999999999 Q 28.232079095562174 33.36249999999999 28.662345069836952 32.34999999999999 Q 29.061583198774613 31.337499999999984 29.231257677161125 30.49374999999998 Q 29.3744596829148 29.64999999999998 29.304828813787132 28.97499999999998 Q 29.26285523102915 28.63749999999998 29.170915134723888 28.34218749999998 Q 29.075122162991928 28.046874999999982 28.931408231839875 27.79374999999998 Q 28.784762453188925 27.54062499999998 28.59205652005818 27.329687499999977 Q 28.3972581915957 27.118749999999977 28.158021403396745 26.949999999999974 Q 27.917417324219183 26.78124999999998 27.633715938083363 26.65468749999998 Q 27.349233621305856 26.528124999999978 27.022684119647515 26.443749999999973 Q 26.695783900707248 26.359374999999975 26.327514325932523 26.317187499999974 Q 25.959156538251804 26.274999999999977 25.549781538251807 26.274999999999977 L 25.549781538251807 26.274999999999977 L 24.577281538251803 26.274999999999977 L 23.604781538251807 26.274999999999977 L 22.63228153825181 26.274999999999977 L 21.659781538251806 26.274999999999977 L 21.084024791872643 27.715624999999978 L 20.41295136145019 29.15624999999998 L 19.655464959873896 30.596874999999976 L 18.82161581582445 32.03749999999998 L 17.92246732867835 33.47812499999998 L 16.969949280798573 34.918749999999974 L 15.976699554771223 36.35937499999998 L 14.955896455662682 37.799999999999976 L 13.92108386302335 39.24062499999997 L 12.885991532497743 40.68124999999998 L 11.864352931255404 42.121874999999974 L 10.869723024177738 43.56249999999997 L 9.915298428389486 45.00312499999998 L 9.013742322300445 46.44374999999997 L 8.17701643224104 47.88437499999997 L 7.416222325870642 49.324999999999974 L 7.416222325870642 49.324999999999974 Z M 15.788607854019084 74.69999999999999 L 15.212357854019086 74.69999999999999 L 14.636107854019084 74.69999999999999 L 14.059857854019082 74.69999999999999 L 13.483607854019084 74.69999999999999 L 12.907357854019084 74.69999999999999 L 12.331107854019084 74.69999999999999 L 11.754857854019084 74.69999999999999 L 11.178607854019084 74.69999999999999 L 12.357978260356827 76.38749999999999 L 13.565409356863379 78.07499999999999 L 14.778929112257837 79.76249999999999 L 15.976454697878072 81.44999999999999 L 17.13619433636879 83.13749999999999 L 18.237043854010842 84.825 L 19.258970720494915 86.51250000000002 L 20.183378587638348 88.2 L 20.993445693411076 89.88749999999999 L 21.674430973218062 91.575 L 22.21394230802822 93.26250000000002 L 22.60216202794788 94.95000000000002 L 22.83202556767423 96.6375 L 22.899350022775025 98.32500000000002 L 22.80291026741267 100.01250000000002 L 22.544461248372684 101.70000000000002 L 23.15696124837268 101.70000000000002 L 23.769461248372682 101.70000000000002 L 24.381961248372683 101.70000000000002 L 24.99446124837268 101.70000000000002 L 25.606961248372684 101.70000000000002 L 26.21946124837268 101.70000000000002 L 26.83196124837268 101.70000000000002 L 27.444461248372683 101.70000000000002 Q 27.89446124837268 101.70000000000002 28.32274170926998 101.63945312500002 Q 28.750819072699798 101.57890625000002 29.15636340196039 101.45781250000002 Q 29.56109207351509 101.33671875000002 29.941651180300568 101.155078125 Q 30.320363664921942 100.9734375 30.672430242370986 100.73125000000002 Q 31.021188819608206 100.48906250000002 31.33996597908844 100.18632812500002 Q 31.65353266873721 99.88359375000002 31.932908404218434 99.52031250000002 Q 32.20472700954766 99.15703125 32.43727029771253 98.73320312499999 Q 32.65947819536143 98.30937499999999 32.83647685660637 97.82499999999999 Q 33.000118189981606 97.34375 33.12544391515392 96.8296875 Q 33.23563842312408 96.31562500000001 33.303792797986915 95.76875000000001 Q 33.355041438133185 95.22187500000001 33.360486345265834 94.6421875 Q 33.347346625938954 94.0625 33.284702570703395 93.45 Q 33.20197888267781 92.8375 33.06623740054276 92.19218750000002 Q 32.909209538048884 91.54687500000001 32.69598393736451 90.86875 Q 32.46067317412677 90.19062500000001 32.1664857283502 89.47968750000001 Q 31.84995535685421 88.76875000000001 31.47255627229763 88.02500000000002 L 31.47255627229763 88.02500000000002 Q 31.123022515079025 87.37187500000002 30.745523276231246 86.73710937500002 Q 30.353874918712307 86.10234375000002 29.937764105552304 85.48593750000002 Q 29.071844079918833 84.25312500000001 28.12678144088285 83.09375000000001 Q 27.64349160025931 82.51406250000002 27.144383740197824 81.95273437500003 Q 26.64038271843099 81.39140625000002 26.122773612510215 80.84843750000002 Q 25.602046516524027 80.30546875 25.069583723295963 79.780859375 Q 24.535549865851824 79.25625 23.99132510435915 78.75 Q 23.446852165789544 78.24375 22.90992342742855 77.80078125 Q 22.373662456471255 77.3578125 21.84538009447008 76.97812499999999 Q 21.318132389674414 76.59843749999999 20.798688197780987 76.28203124999999 Q 20.28027985850792 75.96562499999999 19.76914527970846 75.71249999999999 Q 19.258838324209474 75.459375 18.755132454412784 75.26953124999999 Q 18.25196351337898 75.07968749999999 17.754747526727403 74.95312499999999 Q 17.257792658209976 74.8265625 16.766290940007423 74.76328124999998 Q 16.274857854019086 74.69999999999999 15.788607854019084 74.69999999999999 L 15.788607854019084 74.69999999999999 L 15.788607854019084 74.69999999999999 Z" fill="black" stroke="black" />
				</svg>