<svg
					xmlns="http://www.w3.org/2000/svg" xmlns:xlink="http://www.w3.org/1999/xlink"
					style="
						overflow: visible;
						height: 100;
					"
					viewBox="-8.987191326077994 0 66.94570494198892 128.52499999999998"
				>
					<path d="M 48.96 0 L 50.39969436149533 2.0082031249999996 L 51.80230944719696 4.016406249999999 L 53.13172095670751 6.024609375 L 54.35368994506558 8.032812499999999 L 55.43674464552509 10.041015624999998 L 56.352991023760374 12.04921875 L 57.07883118770339 14.057421875 L 57.595571150393596 16.065624999999997 L 57.88990229293056 18.073828125 L 57.95424412746863 20.082031249999996 L 57.78693953240496 22.090234375 L 57.39229743148603 24.0984375 L 56.78048181763363 26.106640624999997 L 55.967249979677696 28.11484375 L 54.97354667395697 30.123046875 L 53.82496469288305 32.131249999999994 L 52.5510857235049 34.139453124999996 L 51.18471847223732 36.14765625 L 49.761053677823355 38.15585937499999 L 48.316757775140886 40.16406249999999 L 46.88902855250912 42.172265624999994 L 45.51463712400651 44.18046875 L 44.228980890768284 46.188671875 L 43.065171882210564 48.196875 L 42.05318395692003 50.205078125 L 41.21908082701872 52.213281249999994 L 40.584344788208526 54.221484374999996 L 40.16532344402856 56.2296875 L 39.972808673922 58.23789062499999 L 40.0117586887745 60.24609375 L 40.2811703323735 62.254296875 L 40.77410491766 64.26249999999999 L 41.47786693236074 66.27070312499998 L 42.37433101144403 68.27890624999999 L 43.44040875523527 70.287109375 L 44.648643370308854 72.2953125 L 45.96791681820194 74.30351562499999 L 47.36425125936052 76.31171874999998 L 48.80168415115839 78.31992187499999 L 50.24319446187149 80.32812499999999 L 51.651656146000235 82.33632812499998 L 52.99079432421787 84.34453124999999 L 54.22611954156509 86.35273437500001 L 55.32581604210507 88.3609375 L 56.26156118255781 90.369140625 L 57.00925488094523 92.37734375 L 57.54964031332385 94.38554687499999 L 57.86879987258348 96.39375 L 57.958513615910924 98.401953125 L 57.816470969117454 100.41015625 L 57.446330235392814 102.418359375 L 56.85762437583995 104.42656249999999 L 56.06551548840931 106.43476562499998 L 55.09040430861894 108.44296874999999 L 53.95740478935491 110.451171875 L 52.69569729193036 112.459375 L 51.337777046943664 114.46757812499999 L 49.91861724079902 116.47578124999998 L 48.47476828256573 118.48398437499998 L 47.04341644952494 120.4921875 L 45.66142615595417 122.50039062500001 L 44.3643905114814 124.50859375 L 43.1857146218443 126.516796875 L 42.15575524160971 128.52499999999998 L 41.58669274160972 128.52499999999998 L 41.017630241609716 128.52499999999998 L 40.448567741609715 128.52499999999998 L 39.87950524160971 128.52499999999998 L 39.31044274160971 128.52499999999998 L 38.74138024160971 128.52499999999998 L 38.17231774160971 128.52499999999998 L 37.60325524160971 128.52499999999998 L 37.03419274160971 128.52499999999998 L 36.46513024160971 128.52499999999998 L 35.896067741609706 128.52499999999998 L 35.32700524160971 128.52499999999998 L 34.75794274160972 128.52499999999998 L 34.188880241609716 128.52499999999998 L 33.619817741609715 128.52499999999998 L 33.050755241609714 128.52499999999998 L 32.48169274160971 128.52499999999998 L 31.91263024160971 128.52499999999998 L 31.343567741609707 128.52499999999998 L 30.774505241609706 128.52499999999998 L 30.205442741609705 128.52499999999998 L 29.636380241609704 128.52499999999998 L 29.067317741609703 128.52499999999998 L 28.49825524160971 128.52499999999998 L 27.929192741609715 128.52499999999998 L 27.360130241609713 128.52499999999998 L 26.791067741609712 128.52499999999998 L 26.22200524160971 128.52499999999998 L 25.65294274160971 128.52499999999998 L 25.08388024160971 128.52499999999998 L 24.514817741609708 128.52499999999998 L 23.945755241609707 128.52499999999998 L 24.361050085455325 127.11015624999999 L 24.854351702401488 125.69531249999999 L 25.415589611464632 124.28046875 L 26.033823900772923 122.865625 L 26.697385233695464 121.45078124999998 L 27.39402418995884 120.03593749999999 L 28.111068030522247 118.62109375 L 28.835582879975306 117.20624999999998 L 29.55453925089098 115.79140624999997 L 30.25497879179593 114.37656249999998 L 30.924180124761687 112.96171874999999 L 31.549821650270204 111.54687499999997 L 32.12013923582011 110.13203124999998 L 32.624076770215964 108.7171875 L 33.05142765678595 107.30234374999998 L 33.39296543473517 105.88749999999999 L 33.640561856976475 104.47265625 L 33.787290913309526 103.05781249999998 L 33.8275174676869 101.64296875 L 33.756969375210616 100.228125 L 33.57279215592445 98.81328124999999 L 33.273585525701556 97.3984375 L 32.85942131671418 95.98359375000001 L 32.33184255814437 94.56875 L 31.693843728900287 93.15390624999999 L 30.94983243505876 91.7390625 L 30.105573002476135 90.32421875 L 29.168112706454448 88.909375 L 28.14569158255629 87.49453125 L 27.04763697278606 86.07968749999999 L 25.88424415670778 84.66484375 L 24.666644595151453 83.25 L 23.406663472690397 81.83515624999998 L 22.116668362023535 80.4203125 L 20.809410947016474 79.00546874999999 L 19.497863829988418 77.59062499999999 L 18.195054511742452 76.17578124999999 L 16.913898669019453 74.76093749999998 L 15.667034863047038 73.34609375 L 14.46666279454037 71.93124999999999 L 13.324387175124969 70.51640624999999 L 12.251069213274107 69.1015625 L 11.256687615405088 67.68671875 L 10.350210881005825 66.271875 L 9.539482526125354 64.85703124999999 L 8.831120704108034 63.442187499999996 L 8.230433508198914 62.02734374999999 L 7.741351039955477 60.6125 L 7.366375112836378 59.197656249999994 L 7.106547234647488 57.78281249999999 L 6.961435278597561 56.36796874999999 L 6.929139013543805 54.953124999999986 L 7.006314422652807 53.53828124999999 L 7.1882164992528335 52.12343749999999 L 7.468759972187525 50.70859374999999 L 7.840597183523691 49.293749999999996 L 8.295212121954725 47.87890624999999 L 8.823029408484748 46.4640625 L 9.413536839623259 45.04921875 L 10.055419919814396 43.634375 L 10.73670666139024 42.219531249999996 L 11.444920798936 40.8046875 L 12.167241457269892 39.38984375 L 12.890667229648624 37.974999999999994 L 12.600667229648625 37.974999999999994 Q 11.890320783885722 39.01249999999999 11.102993515328922 40.15624999999999 Q 10.32100093346687 41.29999999999999 9.477843838573033 42.54999999999999 Q 9.064471876329 43.17499999999999 8.640294567827924 43.826562499999994 Q 8.224833133703171 44.47812499999999 7.802369458845457 45.15624999999999 Q 7.391920113238362 45.83437499999999 6.978910859168499 46.539062499999986 Q 6.581609362381932 47.24374999999999 6.186808496481741 47.974999999999994 Q 5.810509301310873 48.70625 5.454067468105779 49.43906249999999 Q 5.120098056178473 50.17187499999999 4.808666519856627 50.90624999999999 Q 4.5221462292316295 51.640625 4.260552982665278 52.3765625 Q 4.025989590134621 53.1125 3.8184131910604826 53.849999999999994 Q 3.639630534129598 54.587500000000006 3.489531672161828 55.326562499999994 Q 3.369605583901139 56.06562499999999 3.279667539613726 56.80624999999999 Q 3.220871210321331 57.54687499999999 3.192950270349993 58.28906249999999 Q 3.1967100433101656 59.03124999999999 3.2317968193740416 59.77499999999999 Q 3.298369888626855 60.51562499999999 3.3923467834045518 61.23984374999999 Q 3.5160006084665287 61.96406249999999 3.6637244393164554 62.67187499999999 Q 3.838997913128278 63.3796875 4.034822112527866 64.07109374999999 Q 4.255856696886996 64.76249999999999 4.493830267004967 65.4375 Q 4.754539232557668 66.1125 5.028566003317274 66.77109374999999 Q 5.322785982684813 67.4296875 5.626765478422049 68.07187499999999 Q 5.948389007492376 68.71406249999998 6.2763380183204145 69.33984374999997 Q 6.619426510629209 69.96562499999997 6.965581170186402 70.57499999999997 L 6.965581170186402 70.57499999999997 L 8.066032187219069 72.38593749999998 L 9.255612680772817 74.19687499999998 L 10.509398464455924 76.00781249999997 L 11.801120117462368 77.81874999999998 L 13.103713383594066 79.62968749999997 L 14.38988622373843 81.44062499999997 L 15.632690640871767 83.25156249999998 L 16.80608729666518 85.06249999999997 L 17.88549108980028 86.87343749999998 L 18.84828626499373 88.68437499999999 L 19.674300260125005 90.49531249999998 L 20.34622636338404 92.30624999999998 L 20.84998632489213 94.11718749999999 L 21.1750253253282 95.92812499999997 L 21.314533121354085 97.73906249999997 L 21.26558673438188 99.54999999999998 L 21.029211693056936 101.36093749999999 L 20.61036054629903 103.171875 L 20.017809097098176 104.98281249999998 L 19.263972531182947 106.79374999999999 L 18.364645293048326 108.60468749999998 L 17.338670159481527 110.41562499999998 L 16.207543444183738 112.22656249999999 L 14.994964605272786 114.0375 L 13.726339692326185 115.84843749999999 L 12.428249036782478 117.659375 L 11.127890338694268 119.47031249999998 L 9.852508818324374 121.28124999999999 L 8.628826372094718 123.0921875 L 7.482481693258416 124.90312499999999 L 6.437493087932011 126.71406249999998 L 5.515755241609708 128.52499999999998 L 4.745755241609708 128.52499999999998 L 3.9757552416097086 128.52499999999998 L 3.205755241609709 128.52499999999998 L 2.4357552416097077 128.52499999999998 L 1.6657552416097081 128.52499999999998 L 0.8957552416097077 128.52499999999998 L 0.1257552416097072 128.52499999999998 L -0.6442447583902924 128.52499999999998 L -1.414244758390292 128.52499999999998 L -2.1842447583902924 128.52499999999998 L -2.9542447583902924 128.52499999999998 L -3.7242447583902925 128.52499999999998 L -4.494244758390293 128.52499999999998 L -5.2642447583902925 128.52499999999998 L -6.034244758390292 128.52499999999998 L -6.8042447583902925 128.52499999999998 L -5.7742853781557 126.516796875 L -4.5956094885185985 124.50859375 L -3.2985738440458325 122.50039062500001 L -1.9165835504750606 120.4921875 L -0.48523171743427673 118.48398437499998 L 0.958617240799023 116.47578124999998 L 2.377777046943662 114.46757812499999 L 3.735697291930357 112.459375 L 4.997404789354912 110.451171875 L 6.130404308618939 108.44296874999999 L 7.105515488409313 106.43476562499998 L 7.897624375839944 104.42656249999999 L 8.486330235392815 102.418359375 L 8.856470969117451 100.41015625 L 8.998513615910925 98.401953125 L 8.908799872583483 96.39375 L 8.58964031332385 94.38554687499999 L 8.049254880945227 92.37734375 L 7.301561182557812 90.369140625 L 6.365816042105069 88.3609375 L 5.26611954156509 86.35273437500001 L 4.030794324217873 84.34453124999999 L 2.691656146000231 82.33632812499998 L 1.2831944618714886 80.32812499999999 L -0.1583158488416105 78.31992187499999 L -1.5957487406394806 76.31171874999998 L -2.9920831817980567 74.30351562499999 L -4.311356629691147 72.2953125 L -5.519591244764737 70.287109375 L -6.585668988555971 68.27890624999999 L -7.482133067639261 66.27070312499998 L -8.185895082340005 64.26249999999999 L -8.678829667626502 62.254296875 L -8.948241311225503 60.24609375 L -8.987191326077994 58.23789062499999 L -8.794676555971446 56.2296875 L -8.375655211791479 54.221484374999996 L -7.740919172981279 52.213281249999994 L -6.906816043079972 50.205078125 L -5.894828117789437 48.196875 L -4.731019109231718 46.188671875 L -3.445362875993486 44.18046875 L -2.070971447490883 42.172265624999994 L -0.6432422248591155 40.16406249999999 L 0.8010536778233512 38.15585937499999 L 2.2247184722373228 36.14765625 L 3.5910857235049 34.139453124999996 L 4.864964692883048 32.131249999999994 L 6.013546673956966 30.123046875 L 7.0072499796776935 28.11484375 L 7.820481817633628 26.106640624999997 L 8.432297431486028 24.0984375 L 8.826939532404953 22.090234375 L 8.994244127468624 20.082031249999996 L 8.929902292930558 18.073828125 L 8.635571150393591 16.065624999999997 L 8.118831187703394 14.057421875 L 7.3929910237603735 12.04921875 L 6.476744645525085 10.041015624999998 L 5.393689945065583 8.032812499999999 L 4.171720956707508 6.024609375 L 2.842309447196964 4.016406249999999 L 1.4396943614953244 2.0082031249999996 L 0 0 L 0.5671875000000001 0 L 1.1343750000000001 0 L 1.7015625 0 L 2.2687500000000003 0 L 2.8359375 0 L 3.403125 0 L 3.9703125000000004 0 L 4.5375000000000005 0 L 5.104687500000001 0 L 5.671875 0 L 6.2390625 0 L 6.80625 0 L 7.3734375000000005 0 L 7.940625000000001 0 L 8.5078125 0 L 9.075000000000001 0 L 9.642187500000002 0 L 10.209375000000001 0 L 10.7765625 0 L 11.34375 0 L 11.9109375 0 L 12.478125 0 L 13.045312500000001 0 L 13.6125 0 L 14.1796875 0 L 14.746875000000001 0 L 15.314062500000002 0 L 15.881250000000001 0 L 16.4484375 0 L 17.015625 0 L 17.582812500000003 0 L 18.150000000000002 0 L 19.444760504494052 1.3949218750000003 L 20.72705264079477 2.7898437500000006 L 21.984563150288334 4.184765625000001 L 23.205287063918448 5.579687500000001 L 24.37767704696614 6.974609375000002 L 25.490787050745404 8.369531250000001 L 26.53440848415205 9.764453125000003 L 27.499197211058178 11.159375000000002 L 28.376789793673208 12.554296875000004 L 29.159907535775428 13.949218750000004 L 29.842447031490536 15.344140625000001 L 30.41955609316801 16.739062500000003 L 30.887694113793756 18.133984375000004 L 31.244676113015775 19.528906250000006 L 31.489699918839325 20.923828125000004 L 31.623356146844642 22.318750000000005 L 31.647620852783263 23.713671875000006 L 31.565830949956478 25.108593750000008 L 31.382642697189784 26.50351562500001 L 31.103973773823164 27.898437500000007 L 30.736929662318712 29.293359375 L 30.289715254304006 30.688281250000003 L 29.771532779694002 32.083203125000004 L 29.192467328678326 33.478125000000006 L 28.563361390708696 34.87304687500001 L 27.895679971252484 36.26796875000001 L 27.201367964293347 37.66289062500001 L 26.492701554900123 39.05781250000001 L 25.782135500452895 40.452734375000006 L 25.08214819038534 41.84765625000001 L 24.40508641193855 43.24257812500001 L 23.763011753078576 44.63750000000001 L 23.16755055336341 46.03242187500001 L 22.629749269407682 47.42734375000001 L 22.15993705423431 48.822265625000014 L 21.76759726006005 50.217187500000016 L 21.461249463051896 51.61210937500002 L 21.248343477695585 53.00703125000002 L 21.13516667926358 54.40195312500002 L 21.126765787314007 55.796875000000014 L 21.226884083252937 57.19179687500001 L 21.437914842989315 58.58671875 L 21.7608715639916 59.98164062500001 L 22.19537535712896 61.376562500000006 L 22.73965966014562 62.771484375000014 L 23.390592214131615 64.16640625000001 L 24.143714029597163 65.56132812500002 L 24.993294857403068 66.95625000000001 L 25.932404474475224 68.35117187500002 L 26.952998897491064 69.74609375000001 L 28.04602045201868 71.14101562500002 L 29.201510452223626 72.53593750000002 L 30.408733089380036 73.93085937500003 L 31.65630898798254 75.32578125000002 L 32.93235676798778 76.72070312500003 L 34.224640852116345 78.11562500000002 L 35.52072367945581 79.51054687500002 L 36.808120431790115 80.90546875000001 L 38.07445434782133 82.300390625 L 39.30761069313683 83.69531250000001 L 40.49588747049714 85.09023437500002 L 41.628140995571634 86.48515625000002 L 42.69392452712355 87.88007812500001 L 43.68361822705091 89.27500000000002 L 43.89361822705091 89.27500000000002 Q 43.36839243121726 88.24375000000002 42.74558068022932 87.12187500000002 Q 42.07684599310669 86.00000000000001 41.305866172218686 84.7875 Q 40.904715722889385 84.18125 40.47822729574918 83.55234374999998 Q 40.042847940191045 82.92343749999998 39.58296331267967 82.27187499999998 Q 39.11588745405324 81.62031249999998 38.625745436256956 80.94609374999997 Q 38.13059536540024 80.27187499999997 37.61448057878009 79.57499999999996 Q 37.092553315661 78.87499999999997 36.569432746348 78.17265624999997 Q 36.047146416385615 77.47031249999998 35.52686698173645 76.76562499999997 Q 35.010632671352255 76.06093749999998 34.49964905906543 75.35390624999998 Q 33.99592308338049 74.64687499999998 33.50069345239696 73.93749999999999 Q 33.01589341106041 73.22812499999999 32.542794183140636 72.51640624999999 Q 32.0832130363119 71.8046875 31.638452257894528 71.09062499999999 Q 31.21017153927798 70.37656249999999 30.79970196377485 69.66015624999999 Q 30.408505306944328 68.94374999999998 30.0379383999954 68.22499999999998 Q 29.689226599178873 67.50624999999998 29.37405151038172 66.80976562499998 Q 29.08140841444075 66.11328124999999 28.821266865306853 65.43906249999998 Q 28.583806493149986 64.76484374999998 28.37726728852691 64.11289062499998 Q 28.193111075647558 63.46093749999998 28.03785718451314 62.83124999999998 Q 27.79282721313581 61.571874999999984 27.648813173578 60.40156249999998 Q 27.58306785974632 59.23124999999998 27.596405743629248 58.14999999999998 L 27.596405743629248 58.14999999999998 L 27.769853402543244 56.332812499999974 L 28.129166052319697 54.51562499999998 L 28.666763382957104 52.69843749999998 L 29.37130386661126 50.88124999999998 L 30.22792402636857 49.06406249999998 L 31.218552006510784 47.24687499999998 L 32.32228882897432 45.429687499999986 L 33.51584929275231 43.61249999999998 L 34.77405321471841 41.79531249999998 L 36.07035664831366 39.978124999999984 L 37.377411873136964 38.16093749999999 L 38.66764434150841 36.343749999999986 L 39.91383441033901 34.52656249999998 L 41.08969158568592 32.70937499999999 L 42.17040916532985 30.892187499999988 L 43.13318757824852 29.07499999999999 L 43.957715380251955 27.25781249999999 L 44.6265977583606 25.44062499999999 L 45.12572350389932 23.62343749999999 L 45.44456271238725 21.80624999999999 L 45.57638892973912 19.989062499999992 L 45.51842105822715 18.171874999999993 L 45.271882028456375 16.354687499999994 L 44.84197299956857 14.537499999999994 L 44.237763631965166 12.720312499999995 L 43.47200074743244 10.903124999999996 L 42.56083941330803 9.085937499999996 L 41.5235021239248 7.268749999999997 L 40.381873269477595 5.451562499999998 L 39.1600374476803 3.6343749999999986 L 37.88377135831217 1.8171874999999993 L 36.58 0 L 37.35375 0 L 38.1275 0 L 38.90125 0 L 39.675 0 L 40.44875 0 L 41.2225 0 L 41.996249999999996 0 L 42.769999999999996 0 L 43.543749999999996 0 L 44.317499999999995 0 L 45.091249999999995 0 L 45.864999999999995 0 L 46.638749999999995 0 L 47.412499999999994 0 L 48.18625 0 L 48.96 0 L 48.96 0 Z" fill="black" stroke="black" />
				</svg>