<svg
					xmlns="http://www.w3.org/2000/svg" xmlns:xlink="http://www.w3.org/1999/xlink"
					style="
						overflow: visible;
						height: 100;
					"
					viewBox="-8.893935756386803 1.2434497875801753e-12 62.602632476322626 132.12499999999997"
				>
					<path d="M 24.9302999651883 81.90000000000123 L 23.74854538661642 80.22343750000121 L 22.545082235114506 78.54687500000122 L 21.34152779364296 76.87031250000123 L 20.15950098496407 75.19375000000123 L 19.020234040374756 73.51718750000123 L 17.944191114409307 71.84062500000122 L 16.950700696169452 70.16406250000124 L 16.057608420116676 68.48750000000123 L 15.280956512734694 66.81093750000123 L 14.63469563302181 65.13437500000124 L 14.130434282896486 63.45781250000124 L 13.777230288747553 61.781250000001236 L 13.581428099654936 60.10468750000123 L 13.546544824821858 58.428125000001245 L 13.673207057278365 56.75156250000125 L 13.959139618664416 55.075000000001246 L 14.651952118664415 55.075000000001246 L 15.344764618664417 55.075000000001246 L 16.037577118664416 55.075000000001246 L 16.730389618664415 55.075000000001246 L 17.423202118664417 55.075000000001246 L 18.116014618664416 55.075000000001246 L 18.808827118664414 55.075000000001246 L 19.501639618664417 55.075000000001246 L 20.194452118664415 55.075000000001246 L 20.887264618664414 55.075000000001246 L 21.580077118664416 55.075000000001246 L 22.272889618664415 55.075000000001246 L 22.965702118664414 55.075000000001246 L 23.658514618664416 55.075000000001246 L 24.35132711866441 55.075000000001246 L 25.044139618664413 55.075000000001246 L 25.736952118664416 55.075000000001246 L 26.429764618664418 55.075000000001246 L 27.12257711866442 55.075000000001246 L 27.815389618664415 55.075000000001246 L 28.50820211866441 55.075000000001246 L 29.201014618664413 55.075000000001246 L 29.893827118664415 55.075000000001246 L 30.586639618664417 55.075000000001246 L 31.27945211866442 55.075000000001246 L 31.972264618664415 55.075000000001246 L 32.66507711866441 55.075000000001246 L 33.357889618664416 55.075000000001246 L 34.05070211866442 55.075000000001246 L 34.74351461866442 55.075000000001246 L 35.43632711866442 55.075000000001246 L 36.12913961866441 55.075000000001246 L 35.7896491870442 57.240625000001245 L 35.71723905187537 59.40625000000125 L 35.914077213136004 61.571875000001256 L 36.37427022609902 63.73750000000125 L 37.08403965436609 65.90312500000124 L 38.02213460396583 68.06875000000124 L 39.16046798701435 70.23437500000125 L 40.464957464848055 72.40000000000124 L 41.89654589232066 74.56562500000125 L 43.41237071059081 76.73125000000124 L 44.967047276125875 78.89687500000123 L 46.51402770233312 81.06250000000124 L 48.00699452933909 83.22812500000124 L 49.40124749466425 85.39375000000123 L 50.655041884102225 87.55937500000124 L 51.730838391829565 89.72500000000124 L 52.59642706823443 91.89062500000125 L 53.22589170383733 94.05625000000126 L 53.60038577510933 96.22187500000125 L 53.70869671993582 98.38750000000125 L 53.5475816480023 100.55312500000126 L 53.12186443474563 102.71875000000125 L 52.44429129182331 104.88437500000124 L 51.535149138401835 107.05000000000125 L 50.42165819944137 109.21562500000124 L 49.137157016924085 111.38125000000123 L 47.72010427524619 113.54687500000124 L 46.21292732668006 115.71250000000123 L 44.66075189269882 117.87812500000123 L 43.110050974616485 120.04375000000124 L 41.60725342591577 122.20937500000124 L 40.19735384638645 124.37500000000125 Q 39.817171153183764 124.58906250000125 39.43672134808486 124.79824218750124 Q 39.05760832682396 125.00742187500124 38.67817494130701 125.21171875000124 Q 38.30008336398329 125.41601562500125 37.92160839843588 125.61542968750125 Q 37.544472571437964 125.81484375000124 37.16688153791265 126.00937500000126 Q 36.79061995542247 126.20390625000125 36.413823500098694 126.39355468750125 Q 36.03834044638227 126.58320312500125 35.66223591846532 126.76796875000124 Q 35.28742301454042 126.95273437500126 34.911895977561215 127.13261718750125 Q 34.53763366858655 127.31250000000125 34.16255935089014 127.48750000000126 Q 33.7887183314169 127.66250000000126 33.41396301338907 127.83261718750126 Q 33.04040558834937 128.00273437500127 32.66582792463017 128.16796875000125 Q 32.292409304609194 128.33320312500126 31.917861580180723 128.49355468750127 Q 31.544431110130912 128.65390625000126 31.16976042974605 128.80937500000127 Q 30.79616275085514 128.96484375000125 30.42121216179484 129.11542968750126 Q 30.047288306715032 129.26601562500127 29.67189785532804 129.41171875000126 Q 29.297486277415786 129.55742187500127 28.92149400030632 129.69824218750125 Q 28.5464315379107 129.83906250000126 28.169674389001965 129.97500000000127 Q 27.793795041945973 130.10937500000128 27.420241466395325 130.23535156250125 Q 27.047454135434375 130.36132812500128 26.676798347843935 130.47890625000127 Q 26.306818378380243 130.59648437500127 25.938784834190812 130.70566406250126 Q 25.57134050226981 130.81484375000127 25.205667501498027 130.91562500000126 Q 24.840501525685667 131.01640625000127 24.476942618159416 131.10878906250124 Q 24.113813491700498 131.20117187500125 23.752138711002242 131.28515625000125 Q 23.390821868793424 131.36914062500125 23.03081880911367 131.44472656250124 Q 22.671107643435093 131.52031250000124 22.312582392859778 131.58750000000123 Q 21.954289131064307 131.65468750000122 21.59706707399924 131.71347656250123 Q 21.24002353048028 131.77226562500124 20.883950030972393 131.82265625000124 Q 20.528008244739702 131.87304687500125 20.172949221408782 131.91503906250122 Q 19.81798198951485 131.95703125000122 19.463824391676596 131.99062500000122 Q 19.109725707569776 132.02421875000124 18.7563779009268 132.04941406250123 Q 18.40306330557539 132.07460937500122 18.05045537459002 132.09140625000123 Q 17.69786222693681 132.1082031250012 17.345946199690637 132.11660156250122 Q 16.994033871671217 132.12500000000122 16.642783871671217 132.12500000000122 L 16.642783871671217 132.12500000000122 Q 16.17965887167122 132.12500000000122 15.732063140528679 132.0968750000012 Q 15.284508865347341 132.06875000000122 14.852649512107375 132.01250000000124 Q 14.420955468334265 131.95625000000123 14.005286098026378 131.8718750000012 Q 13.589986707475155 131.78750000000122 13.191202630944451 131.67500000000123 Q 12.793071261969848 131.56250000000125 12.41210167407963 131.42187500000122 Q 12.032141456950395 131.28125000000122 11.670138106233878 131.11250000000123 Q 11.309568987588328 130.94375000000124 10.96789070454811 130.74687500000124 Q 10.62813204640747 130.55000000000123 10.308324357540595 130.32500000000124 Q 9.990972255279964 130.10000000000122 9.694741191966713 129.84687500000123 Q 9.401539580101996 129.59375000000122 9.130718703618143 129.31250000000122 Q 8.863523246862751 129.03125000000125 8.620032862469353 128.72187500000123 Q 8.38076660252307 128.41250000000122 8.166564138064 128.07500000000124 Q 7.957163895977628 127.73750000000123 7.774184486516726 127.37187500000124 Q 7.596537119738624 127.00625000000123 7.4466235837421495 126.61250000000123 Q 7.302491380825447 126.21875000000124 7.187313010445002 125.79687500000122 Q 7.078247790269698 125.37500000000124 6.9992077238619315 124.92500000000123 Q 6.926453605317677 124.47500000000124 6.887834089493713 123.99550781250124 Q 6.855503034245053 123.51601562500124 6.857955242043825 123.00703125000125 Q 6.866433788934247 122.49804687500124 6.909976035889871 121.95957031250124 Q 6.958960848497469 121.42109375000125 7.042836605965546 120.85312500000126 Q 7.131191006972184 120.28515625000125 7.253723136083227 119.68769531250125 Q 7.379332089206966 119.09023437500124 7.537778510874528 118.46328125000126 Q 7.697407911383999 117.83632812500127 7.887825404910443 117.17988281250126 Q 8.076993049911112 116.52343750000125 8.294117416175094 115.83750000000124 Q 8.506984567735245 115.15156250000125 8.744136922406309 114.43613281250124 Q 8.973430857521123 113.72070312500125 9.222461227492207 112.97578125000123 Q 9.459440467917624 112.23085937500123 9.710721013415315 111.45644531250124 Q 9.94519589554713 110.68203125000124 10.187676805734917 109.87812500000125 Q 10.408098508466495 109.07421875000125 10.629439728768746 108.24082031250126 Q 10.82307062529892 107.40742187500125 11.009861860147728 106.54453125000124 Q 11.163038883438702 105.68164062500124 11.301118560702852 104.78925781250123 Q 11.399618956138955 103.89687500000123 11.474499829193016 102.97500000000124 Q 11.504983425490781 102.05156250000124 11.506000796017663 101.09794921875124 Q 11.456088449341685 100.14433593750125 11.368434201519023 99.16054687500124 Q 11.225234261248342 98.17675781250125 11.036811135109232 97.16279296875126 Q 10.789394349531339 96.14882812500126 10.490535032100855 95.10468750000126 Q 10.130798441502638 94.06054687500125 9.71515902262207 92.98623046875124 Q 9.238722914073081 91.91191406250125 8.70418597815511 90.80742187500124 Q 8.111275896294924 89.70292968750124 7.4608086737913615 88.56826171875124 Q 6.757062668100861 87.43359375000125 5.9994643075151 86.26875000000125 Q 5.196595072507801 85.10390625000124 4.347057690254839 83.90888671875125 Q 3.4632913499759588 82.71386718750125 2.5436935168484602 81.48867187500124 Q 2.075806149905543 80.87607421875123 1.6015793760094543 80.25593261718875 Q 1.124321596867544 79.63579101562624 0.642753372443087 79.00810546875124 Q 0.1603353456207301 78.38041992187624 -0.32415749777385994 77.74519042968873 Q -0.8071741232089243 77.10996093750124 -1.2898392096902784 76.46718750000124 Q -1.7685772834344324 75.82441406250125 -2.2443671110543253 75.17409667968874 Q -2.71367831524725 74.52377929687626 -3.177299127515532 73.86591796875125 Q -3.631816766092991 73.20805664062624 -4.07778590580976 72.54265136718874 Q -4.511986101537929 71.87724609375124 -4.934697712347171 71.20429687500123 Q -5.34296879135848 70.53134765625124 -5.736767550487982 69.85085449218874 Q -6.113487204438236 69.17036132812625 -6.472749571537577 68.48232421875124 Q -6.812369182315916 67.79428710937624 -7.131591436528846 67.09870605468875 Q -7.428726730499664 66.40312500000124 -7.702618844012706 65.70000000000124 L -7.702618844012706 65.70000000000124 Q -8.13176406745451 64.44062500000125 -8.461244314096788 63.20224609375124 Q -8.70762721393567 61.96386718750125 -8.854061780053177 60.746484375001245 Q -8.916123450424413 59.52910156250125 -8.881589514251617 58.33271484375125 Q -8.764759526846314 57.13632812500124 -8.5578008253795 55.960937500001236 Q -8.273518995567798 54.785546875001245 -7.9080903747586415 53.63115234375124 Q -7.472682938273275 52.47675781250125 -6.966989684527912 51.34335937500125 Q -6.400475773605848 50.20996093750124 -5.775778987638256 49.097558593751245 Q -5.1006743940843124 47.985156250001246 -4.380123628794564 46.89375000000125 Q -3.6202978799748955 45.80234375000124 -2.827840714871704 44.731933593751236 Q -2.0074714964009246 43.66152343750124 -1.1668776152380227 42.61210937500124 Q -0.30953443176024775 41.56269531250125 0.5564401018378042 40.534277343751256 Q 1.4285627206558795 39.50585937500125 2.2988563192810094 38.498437500001245 Q 3.1655462578862537 37.49101562500124 4.021312868329214 36.50458984375125 Q 4.864787754835613 35.51816406250125 5.689761373116404 34.55273437500124 Q 6.494962458191502 33.587304687501245 7.275674860071324 32.642871093751246 Q 8.03041981194583 31.698437500001248 8.756286073630012 30.77500000000125 Q 9.449851568271454 29.85312500000125 10.10852323393004 28.957617187501246 Q 10.7332801332076 28.06210937500125 11.322636435745608 27.19296875000125 Q 11.876210101446787 26.32382812500125 12.39527441428336 25.481054687501246 Q 12.877834527832242 24.638281250001242 13.327954854969652 23.821875000001242 Q 13.74183015233934 23.005468750001242 14.126287908519693 22.215429687501242 Q 14.475569016167622 21.425390625001242 14.799186042276531 20.661718750001242 Q 15.089334725484196 19.89804687500124 15.358094633810602 19.16074218750124 Q 15.595573734402636 18.42343750000124 15.816269743695763 17.712500000001235 Q 16.00820424666044 17.001562500001235 16.188122015762218 16.316992187501235 Q 16.341998197481978 15.632421875001237 16.48863892103201 14.974218750001235 Q 16.61204549221023 14.316015625001235 16.73289175245136 13.684179687501235 Q 16.833304364710038 13.052343750001235 16.93562896657647 12.446875000001231 Q 17.02023741273825 11.84140625000123 17.1109536583951 11.26230468750123 Q 17.186529543003097 10.683203125001231 17.272080095476127 10.13046875000123 Q 17.344881643872 9.57773437500123 17.431162239550826 9.05136718750123 Q 17.50687219750289 8.525000000001228 17.59918593676465 8.025000000001228 Q 17.68132585807922 7.523437500001229 17.785169742018986 7.05322265625123 Q 17.882203639254136 6.58300781250123 18.00356892279746 6.144140625001231 Q 18.119698631345138 5.705273437501233 18.262344599236567 5.297753906251233 Q 18.40105703863784 4.890234375001234 18.568067046505917 4.514062500001234 Q 18.732197408744618 4.137890625001235 18.926046723144086 3.7930664062512367 Q 19.11784966162822 3.4482421875012372 19.34047886854847 3.1347656250012372 Q 19.561703506285376 2.8212890625012377 19.814593753602132 2.5391601562512385 Q 20.06655911435805 2.257031250001239 20.350806202886204 2.0062500000012395 Q 20.634474386967312 1.75546875000124 20.950859395770276 1.5360351562512404 Q 21.266904454478734 1.3166015625012408 21.615959166112294 1.1285156250012411 Q 21.964830167077473 0.9404296875012417 22.346896042739218 0.7836914062512419 Q 22.53789462697106 0.705322265626242 22.73721373180849 0.6347900390637422 Q 22.936518291103425 0.5642578125012423 23.14415310498592 0.5015625000012425 Q 23.35177883668605 0.4388671875012426 23.567741668773117 0.3840087890637427 Q 23.783699176457752 0.3291503906262428 24.007998378820933 0.2821289062512429 Q 24.232294706995003 0.235107421876243 24.464935630463952 0.19592285156374306 Q 24.697575167784905 0.15673828125124314 24.938560985902026 0.1253906250012432 Q 25.17954623623903 0.09404296875124327 25.4288786367729 0.0705322265637433 Q 25.678210857655493 0.04702148437624336 25.93589060134299 0.03134765625124339 Q 26.19357030954366 0.01567382812624342 26.459597655881243 0.007836914063743435 Q 26.725625000000896 1.2434497875801753e-12 27.0000000000009 1.2434497875801753e-12 L 27.0000000000009 1.2434497875801753e-12 Q 27.301875000000898 1.2434497875801753e-12 27.608085936979478 0.008789062501243367 Q 27.91429687082953 0.017578125001243283 28.22484371662994 0.03515625000124312 Q 28.535390512373965 0.05273437500124295 28.850273057385433 0.0791015625012427 Q 29.165155348987867 0.10546875000124245 29.484372864272224 0.14062500000124212 Q 29.803589578670685 0.17578125000124178 30.127140290416886 0.21972656250124137 Q 30.45068904693542 0.26367187500124095 30.77856942334189 0.31640625000124045 Q 31.10644574561427 0.36914062500123995 31.438649596431542 0.43066406250123934 Q 31.7708459371528 0.4921875000012388 32.107363326339836 0.5625000000012381 Q 32.44386790543196 0.6328125000012375 32.784683877711565 0.7119140625012367 Q 33.12547933487842 0.7910156250012359 33.470572457444625 0.8789062500012351 Q 33.81563432062556 0.9667968750012343 34.16497504188001 1.0634765625012335 Q 34.5142700138134 1.1601562500012323 34.86781884181304 1.2656250000012315 Q 35.221302907813026 1.3710937500012306 35.57900841211794 1.4853515625012292 Q 35.93662477327128 1.5996093750012284 36.2984214151122 1.722656250001227 Q 36.66009825243799 1.845703125001226 37.025904049596754 1.9775390625012246 Q 37.39155212630031 2.1093750000012235 37.76126616083328 2.250000000001222 Q 38.13077627164354 2.390625000001223 38.49925774628287 2.5365234375012236 Q 38.86749212641687 2.6824218750012245 39.234634078675896 2.833593750001225 Q 39.601480188247336 2.984765625001226 39.967161532321626 3.1412109375012265 Q 40.33249232766929 3.2976562500012276 40.696576879476254 3.459375000001228 Q 41.060249839425765 3.6210937500012284 41.42258534170882 3.788085937501229 Q 41.784441496720454 3.9550781250012297 42.14485865073539 4.12734375000123 Q 42.864008179543845 4.471875000001231 43.57670783133266 4.837500000001231 Q 44.286501594467175 5.203125000001232 44.98875678687853 5.589843750001232 Q 45.687287243833836 5.976562500001233 46.37698501112266 6.384375000001232 Q 47.06200042315418 6.792187500001232 47.73666837985189 7.2210937500012315 Q 48.405550483779656 7.650000000001231 49.062337259452505 8.10000000000123 L 49.062337259452505 8.10000000000123 L 49.70988529964453 9.798437500001231 L 50.24030126122663 11.496875000001232 L 50.63874992597805 13.195312500001233 L 50.89282871190279 14.893750000001234 L 50.992796297828015 16.592187500001234 L 50.93175219130709 18.290625000001235 L 50.705763929739085 19.989062500001236 L 50.31393956992647 21.687500000001236 L 49.75844412982529 23.385937500001237 L 49.044459679406884 25.084375000001238 L 48.18008981630118 26.78281250000124 L 47.17621028708225 28.48125000000124 L 46.046268507788064 30.17968750000124 L 44.80603567923863 31.87812500000124 L 43.473316066567065 33.576562500001245 L 42.06761880199679 35.27500000000124 Q 42.01518385225535 34.850000000001245 41.93700575748662 34.45117187500124 Q 41.855382816493076 34.05234375000124 41.74837648154663 33.67968750000124 Q 41.63791113856143 33.307031250001245 41.50260154714917 32.96054687500125 Q 41.36394817950518 32.614062500001246 41.20112301317931 32.293750000001246 Q 41.035168388109 31.973437500001243 40.84580577909564 31.679296875001242 Q 40.65359967735982 31.385156250001245 40.438803188102035 31.11718750000125 Q 40.22149638904669 30.84921875000125 39.98243737988614 30.60742187500125 Q 39.741227039353404 30.36562500000125 39.47909432010336 30.15000000000125 Q 39.214775214448395 29.937500000001247 38.92907934837945 29.75156250000125 Q 38.64200947895931 29.565625000001244 38.33430413718177 29.406250000001243 Q 38.02556045302153 29.24687500000124 37.69684644649396 29.11406250000124 Q 37.36739483336868 28.98125000000124 37.01854750253464 28.875000000001236 Q 36.669219636411775 28.768750000001234 36.30096865471514 28.689062500001235 Q 35.93244373581732 28.609375000001233 35.54535750850338 28.556250000001235 Q 35.15814839347159 28.503125000001234 34.752622611983526 28.476562500001236 Q 34.34706593955058 28.450000000001232 33.923315939550584 28.450000000001232 L 33.923315939550584 28.450000000001232 Q 33.63581593955058 28.450000000001232 33.345773656579354 28.470410156251234 Q 33.05571312756615 28.490820312501235 32.76303743333541 28.531640625001234 Q 32.470289061187046 28.572460937501234 32.17478068074476 28.63369140625123 Q 31.87910993213567 28.69492187500123 31.58046423731575 28.776562500001234 Q 31.281532800272835 28.858203125001232 30.979344240559293 28.960253906251232 Q 30.67671514481423 29.062304687501232 30.370483425130562 29.18476562500123 Q 29.756154654883822 29.429687500001233 29.124917255358987 29.756250000001234 Q 28.489443437526504 30.082812500001236 27.83307316372447 30.491015625001232 Q 27.17050336827529 30.899218750001232 26.482578134233485 31.389062500001238 Q 25.786506185916313 31.87890625000124 25.06055147282638 32.45039062500124 Q 24.324837033837163 33.02187500000124 23.555169289520848 33.67500000000124 Q 22.77694624581319 34.32500000000124 21.976994055112016 35.02890625000124 Q 21.167546063651525 35.73281250000124 20.336511906451776 36.49062500000124 Q 19.49818566722002 37.24843750000124 18.640131046775988 38.060156250001235 Q 17.77841045425548 38.87187500000123 16.900912393500455 39.73750000000123 Q 16.025027814698365 40.60312500000123 15.139755977584038 41.522656250001226 Q 14.26321001083718 42.442187500001225 13.38638047732908 43.41562500000123 Q 12.527313993895412 44.38906250000123 11.679934734424045 45.41640625000123 Q 10.861242322299686 46.44375000000123 10.069052585630352 47.52500000000122 Q 9.318146207085418 48.606250000001225 8.619238204895499 49.71523437500123 Q 7.972838320349566 50.82421875000122 7.392084594499257 51.96093750000123 Q 6.874522388375841 53.097656250001236 6.435872045503679 54.26210937500123 Q 6.069946261702704 55.426562500001225 5.7950986258760135 56.618750000001235 Q 5.600692145183411 57.810937500001245 5.507644704028669 59.03085937500124 Q 5.50024575597268 60.250781250001246 5.60178301117131 61.498437500001245 Q 5.685548705367081 62.12226562500125 5.797420421830594 62.75302734375124 Q 5.931126858351314 63.38378906250124 6.0931975079859555 64.02148437500125 Q 6.276751788849296 64.65917968750125 6.488652555779899 65.30380859375126 Q 6.7214158291938455 65.94843750000125 6.9822131466868385 66.60000000000124 L 6.9822131466868385 66.60000000000124 Q 7.479060965898609 67.72500000000124 8.026006846997378 68.81660156250123 Q 8.621087612755822 69.90820312500125 9.25186979262024 70.96640625000124 Q 9.919361556115089 72.02460937500123 10.608969978838712 73.04941406250124 Q 11.324288295379805 74.07421875000125 12.049413010019496 75.06562500000125 Q 12.790062880532666 76.05703125000124 13.52980278932304 77.01503906250124 Q 14.27597204463594 77.97304687500124 15.012297046155481 78.89765625000125 Q 15.747213211524636 79.82226562500124 16.4652067098284 80.71347656250124 Q 17.175288136580377 81.60468750000123 17.863203412707016 82.46250000000124 Q 18.538040177587845 83.32031250000125 19.18720698889157 84.14472656250125 Q 19.819408452702373 84.96914062500124 20.424026181951554 85.76015625000124 Q 21.00897092674394 86.55117187500124 21.5658223974596 87.30878906250125 Q 22.101343261152095 88.06640625000125 22.60945966709897 88.79062500000124 Q 23.09549242864849 89.51484375000123 23.555795303640355 90.20566406250124 Q 23.9940148029898 90.89648437500124 24.408956083831438 91.55390625000125 Q 24.80241863808787 92.21132812500127 25.17563503658299 92.83535156250126 Q 25.52844127387526 93.45937500000126 25.86443465276253 94.05000000000126 Q 26.182047560438612 94.64062500000125 26.484207745516738 95.19433593750125 Q 26.76921043766508 95.74804687500125 27.042959517036905 96.26484375000125 Q 27.301506236871536 96.78164062500124 27.552944029637022 97.26152343750127 Q 27.791154271906283 97.74140625000126 28.02624734326156 98.18437500000127 Q 28.250039253053238 98.62734375000127 28.474478900789585 99.03339843750126 Q 28.689444666631132 99.43945312500126 28.908543781276613 99.80859375000125 Q 29.119861558507736 100.17773437500125 29.338484641749353 100.50996093750126 Q 29.550861139285573 100.84218750000126 29.773381585293944 101.13750000000125 Q 29.99101943124102 101.43281250000126 30.22129832095468 101.69121093750127 Q 30.44788258395036 101.94960937500127 30.689263615591013 102.17109375000128 Q 30.927962308914076 102.39257812500128 31.18327800800192 102.57714843750128 Q 31.436751969175077 102.76171875000128 31.708336924213018 102.90937500000126 Q 31.978755087712877 103.05703125000124 32.26846259594798 103.16777343750125 Q 32.55751932008806 103.27851562500126 32.86673846851915 103.35234375000127 Q 33.175670212830134 103.42617187500126 33.50534104282785 103.46308593750126 Q 33.834940304311196 103.50000000000125 34.1855653043112 103.50000000000125 L 34.1855653043112 103.50000000000125 Q 34.4930653043112 103.50000000000125 34.842037831092696 103.47187500000125 Q 35.190968825583 103.44375000000126 35.58120604970421 103.38750000000125 Q 35.9712766428091 103.33125000000125 36.402319377285096 103.24687500000124 Q 36.832985348022795 103.16250000000124 37.30411869436036 103.05000000000123 Q 37.77707779163488 102.93750000000124 38.1980863837149 102.82031250000124 Q 38.618357966764705 102.70312500000124 38.98655573469304 102.58125000000122 Q 39.35395055827772 102.45937500000122 39.669142275136785 102.33281250000121 Q 39.983461935696354 102.2062500000012 40.24544319457098 102.07500000000121 L 40.24544319457098 102.07500000000121 L 40.480127365733686 100.81406250000121 L 40.62533941258413 99.5531250000012 L 40.679602943955736 98.2921875000012 L 40.64236625494439 97.03125000000121 L 40.51400793616927 95.77031250000121 L 40.29583302458912 94.50937500000121 L 39.99005973500918 93.2484375000012 L 39.5997969071814 91.9875000000012 L 39.12901239779633 90.72656250000122 L 38.58249273872984 89.46562500000121 L 37.96579447170492 88.2046875000012 L 37.28518765415564 86.94375000000122 L 36.54759211067736 85.68281250000123 L 35.76050707820329 84.42187500000122 L 34.931934960215 83.16093750000121 L 34.0702999651883 81.90000000000123 L 33.4990499651883 81.90000000000123 L 32.9277999651883 81.90000000000123 L 32.3565499651883 81.90000000000123 L 31.7852999651883 81.90000000000123 L 31.214049965188302 81.90000000000123 L 30.642799965188303 81.90000000000123 L 30.071549965188304 81.90000000000123 L 29.5002999651883 81.90000000000123 L 28.929049965188298 81.90000000000123 L 28.3577999651883 81.90000000000123 L 27.7865499651883 81.90000000000123 L 27.2152999651883 81.90000000000123 L 26.6440499651883 81.90000000000123 L 26.072799965188302 81.90000000000123 L 25.501549965188303 81.90000000000123 L 24.9302999651883 81.90000000000123 L 24.9302999651883 81.90000000000123 Z" fill="black" stroke="black" />
				</svg>