<svg
					xmlns="http://www.w3.org/2000/svg" xmlns:xlink="http://www.w3.org/1999/xlink"
					style="
						overflow: visible;
						height: 100;
					"
					viewBox="-8.342157871158415 0 72.52734152221095 143.65000000000003"
				>
					<path d="M 50.48088092887604 63.72500000000002 L 50.48088092887604 63.72500000000002 Q 50.79735743661496 64.78437500000001 51.15620687984655 65.83906250000001 Q 51.569487976854916 66.89375000000001 52.01849337915165 67.94375000000001 Q 52.51508296279255 68.99375 53.03950325516674 70.03906250000001 Q 53.60347858199348 71.08437500000001 54.186407475336594 72.125 Q 54.79994201800981 73.165625 55.42284873670694 74.2015625 Q 56.06676865351505 75.2375 56.71006342488732 76.26875 Q 57.36442015229751 77.30000000000001 58.00802718348338 78.32656250000001 Q 58.65266915413381 79.353125 59.27659056066111 80.37500000000001 Q 59.89390942899256 81.4 60.466973584680915 82.39960937500001 Q 61.02255610148702 83.39921875000002 61.52689200024668 84.3734375 Q 62.00664331202998 85.34765625 62.430098119194625 86.29648437500002 Q 62.82341483192945 87.24531250000001 63.15725012938634 88.16875000000002 Q 63.456897364070606 89.09218750000001 63.69560612502343 89.99023437500001 Q 63.89748399703932 90.88828125000003 64.0385133950674 91.76093750000001 Q 64.1413428970227 92.63359375 64.18475179802581 93.48085937500001 Q 64.18970793448129 94.328125 64.13778525560046 95.15 Q 64.04895744251209 95.96875 63.90653223012705 96.74726562500001 Q 63.72943504046833 97.52578125000001 63.505395376424644 98.26406250000002 Q 63.24997022853529 99.00234375000002 62.95445692949132 99.70039062500004 Q 62.63109293269673 100.39843750000003 62.27443279554765 101.05625000000002 Q 61.89351304332891 101.71406250000001 61.48582400809765 102.33164062500002 Q 61.05737400129647 102.94921875000001 60.60826843173971 103.52656250000003 Q 60.14169938886389 104.10390625000002 59.66007627998698 104.64101562500002 Q 59.16401275358928 105.17812500000002 58.65792720079165 105.67500000000003 Q 58.14019965009994 106.16875000000002 57.627310120692634 106.60078125000001 Q 57.10602179923801 107.03281250000002 56.594840637496524 107.40312500000002 Q 56.077817698949666 107.7734375 55.57511807255918 108.08203125 Q 55.06856794058131 108.390625 54.579620979738024 108.63749999999999 Q 54.08832314143483 108.88437499999998 53.617088213055716 109.06953125 Q 53.14458236208627 109.2546875 52.69388350531431 109.378125 Q 52.24263654121784 109.50156249999999 51.81430964037467 109.56328124999999 Q 51.38584826506568 109.62499999999999 50.98084826506568 109.62499999999999 L 50.98084826506568 109.62499999999999 Q 50.65709826506568 109.62499999999999 50.36194119287397 109.58281249999999 Q 50.066721416376964 109.54062499999999 49.79984265773222 109.45625 Q 49.53270981085393 109.371875 49.29340438863079 109.2453125 Q 49.05351513228736 109.11874999999998 48.84065882913968 108.94999999999999 Q 48.62673489276022 108.78125 48.43874067173558 108.5703125 Q 48.249019969252664 108.359375 48.08378155193047 108.10625000000002 Q 47.915957509675934 107.85312500000002 47.7707828182854 107.55781250000001 Q 47.621935033877904 107.26250000000002 47.493473198933096 106.92500000000003 Q 47.358743616865524 106.5875 47.24944376615762 106.213671875 Q 47.133702954027164 105.83984375 47.04059810086349 105.4296875 Q 46.93939079016529 105.01953125 46.85759932147818 104.573046875 Q 46.76579811693132 104.1265625 46.689753118217936 103.64375000000001 Q 46.60154736149438 103.1609375 46.5249991747261 102.64179687500001 Q 46.43391021300198 102.12265625 46.349959757589914 101.56718750000002 Q 46.24889039029538 101.01171875000003 46.15006130329545 100.41992187500001 Q 46.03138756725048 99.82812500000001 45.90974541031129 99.20000000000002 L 45.90974541031129 99.20000000000002 L 45.3997454103113 99.20000000000002 Q 45.15999606431972 99.7625 44.89373349324605 100.30078125000001 Q 44.611024863807984 100.83906250000001 44.305003291942214 101.353125 Q 43.984251810065565 101.8671875 43.6432759750327 102.35703125 Q 43.28924726761714 102.84687500000001 42.917929754177045 103.31249999999999 Q 42.53516557747305 103.77812499999997 42.13786478150304 104.21953124999999 Q 41.73062911362282 104.66093749999999 41.31140515419397 105.07812499999999 Q 40.88364732340196 105.49531249999998 40.44623370458331 105.88828124999999 Q 40.00156630247231 106.28124999999999 39.54935505956447 106.64999999999999 Q 39.09083176701838 107.021875 38.63856037741771 107.34726562499999 Q 38.18176018355527 107.67265624999999 37.73401568880863 107.95156249999998 Q 37.28309274752752 108.23046875 36.84348866891947 108.46289062499999 Q 36.40176883505907 108.69531249999997 35.973148350114265 108.88125 Q 35.543223384905815 109.06718749999999 35.127749634959734 109.20664062499998 Q 34.711564386459756 109.34609374999997 34.31080039501592 109.43906249999998 Q 33.90972738401994 109.53203124999999 33.52470090539965 109.57851562499998 Q 33.139598265065686 109.62499999999999 32.77084826506568 109.62499999999999 L 32.77084826506568 109.62499999999999 Q 32.352098265065685 109.62499999999999 31.96842682723838 109.58671874999999 Q 31.584703780288045 109.54843749999998 31.235852042235813 109.47187499999998 Q 30.886791422214962 109.39531249999999 30.57218029502407 109.28046874999998 Q 30.25709010130994 109.16562499999998 29.975798640230085 109.01249999999999 Q 29.693633237537885 108.859375 29.44436590116969 108.66796875 Q 29.193689221468038 108.4765625 28.974733268285746 108.24687499999999 Q 28.753672855399444 108.01718749999999 28.562847686035486 107.74921874999998 Q 28.36904166230061 107.48124999999999 28.2036425686455 107.175 Q 28.03418230106297 106.86875 27.890921841123408 106.52421875 Q 27.742293889926238 106.1796875 27.61724497279898 105.79687499999999 Q 27.48527681486264 105.41406249999997 27.373822542165435 104.99296874999999 Q 27.25363755705461 104.571875 27.150433897852352 104.11249999999998 Q 27.036422148635005 103.653125 26.935380575619227 103.15546874999998 Q 26.821192950376947 102.6578125 26.715491162364273 102.121875 Q 26.59406537969116 101.58593750000001 26.47619507779538 101.01171875000003 Q 26.339822785247172 100.43750000000001 26.20168402527713 99.82500000000002 Q 26.04222180594406 99.2109375 25.874618416307335 98.57275390625 Q 25.683572778626257 97.9345703125 25.480770909076774 97.272265625 Q 25.252774664669257 96.6099609375 25.009551151659974 95.92353515625 Q 24.73963332177958 95.237109375 24.451276840631067 94.52656250000001 Q 24.135076744159583 93.816015625 23.797615871093242 93.08134765624999 Q 23.431619765344475 92.3466796875 23.042071397273972 91.587890625 Q 22.62386685316122 90.82910156250001 22.180499080003344 90.04619140625002 Q 21.70904021711834 89.26328125 21.211641570936894 88.45625000000001 Q 20.68751603899156 87.64921875000002 20.137660729338016 86.81806640625001 Q 19.563346982503592 85.9869140625 18.964643366907467 85.13164062499999 Q 18.344744451239297 84.2763671875 17.703051716521315 83.39697265624999 Q 17.044489626515585 82.517578125 16.368085637779348 81.6140625 Q 15.680238479185103 80.71054687500002 14.979920189871997 79.78291015625003 Q 14.27468312698862 78.85527343750002 13.5637800653994 77.90351562500001 Q 12.855530572793786 76.95175781250002 12.149811979235022 75.97587890625002 Q 11.455260516209684 75.00000000000001 10.772717960107634 74.00000000000003 L 10.772717960107634 74.00000000000003 Q 10.27810186178632 73.25625000000002 9.810666166682175 72.52207031250002 Q 9.357602529413853 71.78789062500002 8.934201761795936 71.06328125000002 Q 8.527826038296581 70.33867187500002 8.15311120198014 69.62363281250002 Q 7.797660949013881 68.90859375000002 7.47538840198334 68.20312500000001 Q 7.174204940028003 67.49765625000002 6.907246639693264 66.80175781250001 Q 6.662793001604819 66.10585937500002 6.453161897010614 65.41953125 Q 6.26705494602642 64.73320312500002 6.115943369860851 64.05644531250002 Q 5.98899791312828 63.37968750000002 5.896826802974985 62.71250000000001 Q 5.829109530349239 62.04531250000001 5.79558633863064 61.3876953125 Q 5.786477469645419 60.73007812500001 5.810660696933995 60.082031250000014 Q 5.858921313384652 59.43398437500001 5.9392897120521955 58.795507812500006 Q 6.04313288144855 58.15703125 6.177657518058243 57.52812500000001 Q 6.3348214665438185 56.89921875000002 6.521038994467483 56.27988281250001 Q 6.72886075940194 55.66054687500001 6.963946430928587 55.05078125000001 Q 7.219434606545816 54.441015625000006 7.50027373996382 53.8408203125 Q 7.800179118405447 53.240625 8.12343592464299 52.650000000000006 Q 8.464319024031173 52.05937500000001 8.823828351774198 51.48427734375001 Q 9.199125946866529 50.9091796875 9.590366006445333 50.349609375000014 Q 9.995577497196425 49.79003906250001 10.414161349415174 49.24599609375001 Q 10.84495045213784 48.70195312500001 11.286683753393913 48.173437500000006 Q 11.738930882163643 47.64492187500001 12.199857754823693 47.13193359375001 Q 12.669700821291057 46.6189453125 13.146138629474798 46.12148437500001 Q 13.630003119849249 45.624023437500014 14.118567075915607 45.142089843750014 Q 14.613186384565244 44.66015625000001 15.110805005891416 44.19375000000001 Q 15.613232077839163 43.72734375 16.11715456363882 43.276464843750006 Q 16.624765930032584 42.8255859375 17.132562540773545 42.390234375000006 Q 17.64305582893504 41.9548828125 18.152612333029133 41.53505859375001 Q 18.663998302455525 41.11523437500001 19.173505512593103 40.710937500000014 Q 19.684095616385374 40.306640625000014 20.192034976975346 39.91787109375001 Q 20.700425380148562 39.5291015625 21.205551493025407 39.155859375000006 Q 21.71060439996084 38.78261718750001 22.211925292426887 38.424902343750006 Q 22.71274834965491 38.06718750000001 23.20950420098711 37.72500000000001 Q 23.707165845879416 37.38125000000001 24.195570208264776 37.05898437500001 Q 24.68292206763085 36.73671875000001 25.16099226708026 36.43593750000001 Q 25.637891184527227 36.13515625000001 26.105597406530865 35.855859375 Q 26.572091682443737 35.5765625 27.029571594384205 35.31875 Q 27.485861434609838 35.0609375 27.93338237451662 34.824609375 Q 28.379783262071484 34.58828125 28.817707491808697 34.3734375 Q 29.254616720561987 34.15859375 29.683369913476117 33.965234375 Q 30.11123640330812 33.771875 30.531279431265087 33.6 Q 30.95057685017067 33.428125 31.362380854095058 33.277734375 Q 31.773584001985405 33.12734375000001 32.17760867121412 32.9984375 Q 32.5811730303988 32.86953125 32.97784797693056 32.762109375 Q 33.37419230294581 32.6546875 33.76390139450105 32.56875 Q 34.15339320558643 32.482812499999994 34.53646171381477 32.418359375 Q 34.919405535487655 32.35390625 35.29608996028674 32.3109375 Q 35.67271819078897 32.26796875 36.043198636267135 32.246484375 Q 36.41366491696044 32.225 36.77803991696044 32.225 L 36.77803991696044 32.225 Q 37.21928991696044 32.225 37.64178009819144 32.251953125 Q 38.06424800118778 32.27890625 38.46786727829426 32.3328125 Q 38.87139836094568 32.38671875 39.25590596455963 32.467578125 Q 39.64021859336199 32.5484375 40.005252414853295 32.65625 Q 40.36994830024819 32.7640625 40.715038050045884 32.898828125 Q 41.05961740003895 33.03359375 41.384202799437425 33.1953125 Q 41.70808461839528 33.35703125 42.01153890069977 33.545703125 Q 42.31408672603912 33.734375 42.59574575708332 33.949999999999996 Q 42.87836404268728 34.162499999999994 43.13927666509964 34.379296875 Q 43.39915692153043 34.59609375 43.63733652295654 34.8171875 Q 43.874534250543476 35.03828125 44.09004838564994 35.263671875 Q 44.30464069625573 35.4890625 44.49757931111532 35.71875 Q 44.68966622468417 35.948437500000004 44.86014294908119 36.182421875 Q 45.02984867488225 36.41640625 45.178002094380176 36.6546875 Q 45.32547628766495 36.89296875 45.45147118572023 37.135546874999996 Q 45.57689016973108 37.378125 45.68091872935166 37.62499999999999 L 45.68091872935166 37.62499999999999 L 43.97119220000732 39.94218749999999 L 42.278043633696164 42.25937499999999 L 40.65794782475984 44.576562499999994 L 39.16487637120618 46.89374999999999 L 37.8484483056898 49.210937499999986 L 36.75222986974255 51.528124999999996 L 35.91224169050434 53.84531249999999 L 35.3557245124349 56.162499999999994 L 35.10020577694586 58.47968749999999 L 35.152899034159375 60.796874999999986 L 35.510456766307634 63.11406249999999 L 36.15908509242722 65.43124999999999 L 37.07501642392336 67.7484375 L 38.22532387517907 70.065625 L 39.569049522943644 72.38281249999999 L 41.05860785401907 74.69999999999999 Q 41.36913747749455 75.15 41.94507487366257 75.98750000000001 Q 42.52920129465731 76.82500000000002 43.38742248132584 78.05 Q 44.24004241205245 79.26249999999999 45.115555033888896 80.49999999999999 Q 45.5486873325095 81.11874999999998 45.984156332364286 81.74374999999998 Q 46.41392237965179 82.36874999999998 46.8436219909406 82.99999999999997 L 46.8436219909406 82.99999999999997 Q 47.527873990552564 84.03124999999997 48.124014614110294 84.91249999999997 Q 48.69833424597949 85.79374999999999 49.19369862987857 86.52499999999998 Q 49.67070377723735 87.25624999999997 50.08077526488954 87.83749999999998 Q 50.47767259076991 88.41874999999999 50.81979825342274 88.84999999999998 Q 51.46956241675295 89.69999999999999 51.962404332865376 90.125 Q 52.44692685105068 90.55 52.806926851050676 90.55 L 52.806926851050676 90.55 Q 53.13192685105067 90.55 53.3352900253302 90.31875 Q 53.53616159141254 90.08749999999999 53.605566443059 89.625 Q 53.665422833639745 89.16250000000002 53.57545174446805 88.46875 Q 53.46570913469437 87.77500000000002 53.182219707239426 86.85000000000002 Q 52.87207676178059 85.93125000000002 52.409776511349584 84.85312500000003 Q 51.91510088394888 83.775 51.25951589570313 82.53750000000002 Q 50.920812437322176 81.91875000000003 50.541970549960176 81.26015625000002 Q 50.15773558324633 80.60156250000003 49.73463738812997 79.90312500000002 Q 49.3084815454072 79.2046875 48.84589503921168 78.46640625 Q 48.38349285755431 77.728125 47.88841578415868 76.95 Q 47.4012207946908 76.175 46.901665846081784 75.38437499999999 Q 46.411100625915616 74.59375 45.91329203858867 73.7875 Q 45.42937317494402 72.98125 44.94376723688701 72.15937499999998 Q 44.47716301827376 71.33749999999999 44.0147740408536 70.5 Q 43.5766063924345 69.66250000000001 43.14878547304983 68.809375 Q 42.75038973527406 67.95625 42.36856162813473 67.0875 Q 42.021205517923626 66.21875 41.696565867560714 65.334375 Q 41.41113077138862 64.45 41.15430790212668 63.550000000000004 L 41.15430790212668 63.550000000000004 Q 40.86813209667519 62.290625000000006 40.6559731427342 61.0634765625 Q 40.52919489506593 59.836328124999994 40.47043640711679 58.64140625 Q 40.493840541610915 57.446484375000004 40.57611719783146 56.2837890625 Q 40.73450054167479 55.12109375 40.94035008931411 53.990625 Q 41.21414811654482 52.86015625000001 41.52260690917779 51.76191406250001 Q 41.88946397744632 50.663671875000006 42.27756276273544 49.597656250000014 Q 42.71376710392078 48.53164062500001 43.15786196602593 47.4978515625 Q 43.63959190848474 46.4640625 44.11648942449659 45.462500000000006 Q 44.62084035292757 44.460937500000014 45.108697279029535 43.49160156250001 Q 45.61447850500169 42.522265625 46.09347388321546 41.585156250000004 Q 46.58178036436268 40.648046875000006 47.03457153114221 39.74316406250001 Q 47.48914712890468 38.83828125000001 47.90113078104443 37.96562500000001 Q 48.308547695874566 37.09296875000001 48.6679532606212 36.25253906250001 Q 49.01763685692988 35.412109375000014 49.31548242189491 34.603906250000016 Q 49.599612404713184 33.79570312500002 49.82955397231589 33.01972656250002 Q 50.04287240492559 32.24375000000002 50.20097584571673 31.50000000000002 Q 50.34028135492685 30.75781250000002 50.417342351030214 30.06201171875002 Q 50.475674198103064 29.36621093750002 50.47443887550289 28.71679687500002 Q 50.45504992954826 28.06738281250002 50.379588234416275 27.46435546875002 Q 50.28716016285429 26.86132812500002 50.14268169735314 26.30468750000002 Q 49.98283938974262 25.74804687500002 49.77524836816687 25.23779296875002 Q 49.55414396164898 24.72753906250002 49.28966526394756 24.26367187500002 Q 49.01363400578576 23.79980468750002 48.6985096554274 23.38232421875002 Q 48.37379485346798 22.96484375000002 48.014046176261814 22.59375000000002 Q 47.64658711403288 22.22265625000002 47.24783523586592 21.89794921875002 Q 46.84310990880134 21.57324218750002 46.410445855738104 21.29492187500002 Q 45.97335944755471 21.01660156250002 45.5112546554221 20.78466796875002 Q 45.04606456099289 20.55273437500002 44.55831284079646 20.36718750000002 Q 44.31369473705799 20.27441406250002 44.06381807237106 20.19323730468752 Q 43.8135622227607 20.11206054687502 43.55826425934083 20.04248046875002 Q 43.30268758092252 19.97290039062502 43.04225449130179 19.91491699218752 Q 42.78162779510674 19.85693359375002 42.51629952915793 19.81054687500002 Q 42.250847336065476 19.76416015625002 41.980817485620804 19.72937011718752 Q 41.71071792123312 19.69458007812502 41.43613364772704 19.67138671875002 Q 41.161518389482914 19.64819335937502 40.882480391044226 19.63659667968752 Q 40.60343464638652 19.62500000000002 40.31999714638651 19.62500000000002 L 40.31999714638651 19.62500000000002 Q 39.87437214638651 19.62500000000002 39.43760694931787 19.65380859375002 Q 39.00079394806451 19.68261718750002 38.57264953443013 19.74023437500002 Q 38.144313910875425 19.79785156250002 37.72426447873548 19.884277343750018 Q 37.30378489554643 19.97070312500002 36.89101811738129 20.08593750000002 Q 36.477486974214656 20.20117187500002 36.07090485010009 20.34521484375002 Q 35.663129561430104 20.48925781250002 35.26135046166226 20.66210937500002 Q 34.85785624278977 20.834960937500018 34.459218943554056 21.036621093750014 Q 34.058253997222074 21.238281250000014 33.660824718804236 21.468750000000014 Q 33.26036891739935 21.699218750000014 32.861952571557666 21.95849609375001 Q 32.45973092105804 22.217773437500014 32.057887956191024 22.505859375000014 Q 31.6513903004331 22.793945312500014 31.24346069130061 23.11083984375001 Q 30.82996925876366 23.427734375000007 30.413105310183777 23.773437500000007 Q 29.989731807431056 24.119140625 29.560941514018722 24.49365234375 Q 29.12467551424051 24.8681640625 28.680878223254247 25.271484375 Q 28.228648566064074 25.6748046875 27.766744607235132 26.106933593749993 Q 27.295495395239787 26.539062499999993 26.812451147008154 26.999999999999993 Q 26.318574396628133 27.462499999999995 25.81468269706341 27.9462890625 Q 25.300182816822083 28.430078124999998 24.774447230201453 28.93515625 Q 24.237901947789236 29.440234375000003 23.68910548154166 29.966601562500003 Q 23.12949963027746 30.492968750000003 22.55688547757228 31.040625000000006 Q 21.973703554897014 31.58828125 21.37707061994733 32.15722656250001 Q 20.77039342729042 32.726171875000006 20.1501947805681 33.31640625 Q 19.520797827468297 33.906640625 18.878239432120754 34.518164062500006 Q 18.227690157658444 35.1296875 17.564826556576428 35.76250000000001 Q 16.895576759229794 36.39531250000001 16.215399739716748 37.04941406250001 Q 15.530868936255416 37.70351562500001 14.837384523546103 38.378906250000014 Q 14.14202930946099 39.05429687500002 13.44031781654284 39.750976562500014 Q 12.739681713524467 40.44765625000002 12.03593503586333 41.16562500000001 Q 11.336672832600831 41.88359375000001 10.63820277324385 42.62285156250002 Q 9.948073048389867 43.36210937500002 9.263284249297815 44.12265625000002 Q 8.591103670282505 44.883203125000016 7.929424772973076 45.66503906250002 Q 7.284977956460781 46.44687500000002 6.656744985730115 47.250000000000014 Q 6.050410778640209 48.054687500000014 5.469865275751477 48.87451171875001 Q 4.916214670799657 49.69433593750001 4.393982801203892 50.52929687500001 Q 3.903213561058511 51.36425781250001 3.449467558217316 52.21435546875001 Q 3.031511817964347 53.064453125000014 2.656006874472716 53.92968750000001 Q 2.3202365135253977 54.794921875 2.032001381716878 55.67529296875 Q 1.7869097258727784 56.5556640625 1.5939170508062919 57.451171875 Q 1.4467841610543637 58.3466796875 1.3556088207136607 59.25732421875 Q 1.312159530539736 60.16796875 1.3276351692383344 61.09375 Q 1.3917009123955477 62.01953125 1.5165866935821235 62.96044921875 Q 1.6897839268331776 63.9013671875 1.924455199893826 64.857421875 Q 2.205894762760691 65.8134765625 2.5480727206332014 66.78466796875 Q 2.9341156672212607 67.755859375 3.3786520428531697 68.7421875 Q 3.8627282014648 69.728515625 4.401461480589565 70.72998046875 Q 4.973967113999287 71.7314453125 5.595666498601345 72.748046875 Q 6.243956823849535 73.7646484375 6.9343691416818345 74.79638671875 Q 7.642860006879227 75.828125 8.38487282032735 76.875 L 8.38487282032735 76.875 Q 8.85966603004838 77.53828125 9.335233319636249 78.1933349609375 Q 9.811485452485922 78.848388671875 10.285889240141687 79.49521484375 Q 10.758453305139199 80.142041015625 11.226776976465025 80.7806396484375 Q 11.690913165376042 81.41923828125002 12.148663960931977 82.04960937500002 Q 13.044041605089488 83.31035156250002 13.903016688488949 84.53818359375003 Q 14.721934944654402 85.76601562500002 15.493614331873797 86.96093750000001 Q 16.214023223189976 88.155859375 16.88054161185793 89.31787109375001 Q 17.48804709949043 90.47988281250001 18.038916857715993 91.60898437500002 Q 18.526296552544625 92.73808593750002 18.957763355725447 93.83427734375002 Q 19.32418864804754 94.93046875000002 19.638349925100826 95.99375000000002 Q 19.888417951463474 97.05703125000002 20.092202040265867 98.08740234375003 Q 20.23487035913599 99.11777343750003 20.338961573036315 100.11523437500003 Q 20.386464085790692 101.11269531250002 20.404243486799047 102.07724609375003 Q 20.37104998990553 103.04179687500003 20.317605322974146 103.97343750000003 Q 20.21947070456857 104.90507812500002 20.110713049028217 105.80380859375003 Q 19.963846738543385 106.70253906250004 19.81575695828451 107.56835937500003 Q 19.63612960538341 108.43417968750003 19.46414524568472 109.26708984375004 Q 19.266938206677715 110.10000000000004 19.085481398814892 110.90000000000003 Q 18.88629386266308 111.69843750000004 18.721280494592545 112.44697265625004 Q 18.542845983515 113.19550781250004 18.40568452354774 113.89414062500003 Q 18.259862062089688 114.59277343750003 18.160785274729108 115.24150390625003 Q 18.05676405856258 115.89023437500003 18.003483599620782 116.48906250000003 Q 17.94802534465398 117.08789062500003 17.946013301809234 117.63681640625002 Q 17.943761225700342 118.18574218750001 17.996578593387948 118.68476562500001 Q 18.05039912145528 119.18378906250001 18.16004161866686 119.63291015625002 Q 18.271372544157686 120.08203125000001 18.438611547733736 120.48125 Q 18.60779745949142 120.88046875 18.8325004120868 121.22978515625 Q 19.059102359922406 121.5791015625 19.34052255978744 121.878515625 Q 19.48184455055771 122.02822265625001 19.636712763104203 122.1654541015625 Q 19.79195135907062 122.302685546875 19.960624072192246 122.42744140625 Q 20.12962047940882 122.552197265625 20.31193838765618 122.66447753906249 Q 20.494531281585218 122.7767578125 20.690335688965245 122.87656249999999 Q 20.886366347265845 122.97636718749999 21.095503948859832 123.0636962890625 Q 21.30482079777711 123.15102539062501 21.527147883815616 123.22587890625 Q 21.74961047360128 123.30073242187498 21.98499657206171 123.3631103515625 Q 22.22047899785724 123.42548828125001 22.468809972064854 123.47539062499999 Q 22.717203756655426 123.52529296874998 22.978384373838956 123.56271972656248 Q 23.239600827784173 123.60014648437499 23.513556813211565 123.62509765624999 Q 23.787528886223356 123.650048828125 24.07420847555697 123.66252441406249 Q 24.360892110758893 123.675 24.660267110758895 123.675 L 24.660267110758895 123.675 Q 24.912142110758897 123.675 25.172904487241066 123.6662109375 Q 25.433668872946214 123.65742187500001 25.703328660856844 123.63984375 Q 25.972996452143768 123.62226562499998 26.2515755964817 123.5958984375 Q 26.530172622555128 123.56953125000001 26.817704675972287 123.534375 Q 27.105268205227695 123.49921875 27.401797855883483 123.4552734375 Q 27.698376055157688 123.411328125 28.003958482589432 123.35859375 Q 28.309609703247627 123.30585937500001 28.624309759302577 123.2443359375 Q 28.939101646926794 123.18281249999998 29.26299285816532 123.1125 Q 29.587001282016086 123.04218750000001 29.920164669462906 122.9630859375 Q 30.253472467406347 122.883984375 30.595995179118255 122.79609375 Q 30.938690713366007 122.708203125 31.290664465027664 122.61152343749998 Q 31.642839983854117 122.51484374999997 32.0043593025281 122.40937499999998 Q 32.36610910312998 122.30390624999998 32.73726936940316 122.18964843749998 Q 33.10868775727905 122.07539062499998 33.48958304138681 121.95234374999998 Q 33.87076208206256 121.82929687499998 34.26148277016462 121.69746093749998 Q 34.65250982980341 121.56562499999998 35.053140037455336 121.42499999999998 Q 35.45409510989495 121.28437499999998 35.85793372566894 121.13701171875 Q 36.26210137151421 120.9896484375 36.66918422401498 120.83554687499999 Q 37.07659495646504 120.68144531249999 37.4869454343345 120.52060546874999 Q 37.897616535083046 120.359765625 38.31124359298732 120.1921875 Q 38.72517708290764 120.02460937500001 39.14207315903288 119.85029296875 Q 39.55925368289833 119.6759765625 39.97939253374607 119.494921875 Q 40.39978516543094 119.31386718750002 40.82311962520487 119.12607421875002 Q 41.24666760137841 118.93828125000002 41.67312727490463 118.74375000000002 Q 42.09974966694681 118.54921875000002 42.529238566870816 118.34794921875003 Q 42.95882790260447 118.14667968750004 43.391222043555544 117.93867187500004 Q 43.82364189240135 117.73066406250003 44.25878685690687 117.51591796875003 Q 44.69386939421978 117.30117187500002 45.13157788738222 117.07968750000003 Q 45.569121456014706 116.85820312500002 46.00917086832084 116.62998046875003 Q 46.44893755786662 116.40175781250002 46.89106755797245 116.16679687500003 Q 47.332780824661235 115.93183593750004 47.77669100656792 115.69013671875004 Q 48.22003335938996 115.44843750000004 48.665380971079195 115.20000000000003 L 48.665380971079195 115.20000000000003 L 47.769243264494534 116.46093750000003 L 46.863251126235674 117.72187500000003 L 45.956615904940136 118.98281250000004 L 45.05855548756053 120.24375000000003 L 44.1782005798201 121.50468750000002 L 43.324501873052085 122.76562500000003 L 42.50613904127064 124.02656250000004 L 41.73143249371244 125.28750000000002 L 41.00825878007359 126.5484375 L 40.34397050852863 127.80937500000002 L 39.74532159073596 129.07031250000003 L 39.21839857387452 130.33125 L 38.76855875786829 131.59218750000002 L 38.4003757269696 132.853125 L 38.11759284948906 134.11406250000002 L 37.923085218447014 135.375 Q 37.66177180228236 135.621875 37.401591920262625 135.86181640625 Q 37.14470152595891 136.1017578125 36.8885806117153 136.334765625 Q 36.63557454351569 136.56777343750002 36.38297762456101 136.79384765625 Q 36.13332054623889 137.019921875 35.88371757832153 137.2390625 Q 35.636880267891684 137.45820312499998 35.38974870657279 137.67041015625 Q 35.14521049311111 137.8826171875 34.90003755655151 138.087890625 Q 34.65728845477242 138.29316406249998 34.41357309402808 138.49150390625 Q 34.17211565344738 138.68984375 33.92937024757407 138.88125 Q 33.68872113394661 139.07265625 33.446472927918535 139.25712890625 Q 33.20616425521757 139.4416015625 32.96395655910094 139.61914062499997 Q 32.72353699063022 139.79667968749996 32.48093015865277 139.96728515624997 Q 32.23996579598359 140.13789062499998 31.99653800413379 140.3015625 Q 31.754613082466268 140.46523437499997 31.509960923069425 140.62197265625 Q 31.26667833135612 140.77871093749997 31.020417242734183 140.928515625 Q 30.77539888650228 141.07832031249998 30.527163435354865 141.22119140625 Q 30.280050459640584 141.3640625 30.029494493208304 141.5 Q 29.779577264001603 141.63437499999998 29.527304759694275 141.76035156249998 Q 29.275892423080187 141.886328125 29.02188918363142 142.00390625 Q 28.768629853826265 142.12148437499997 28.512561715853387 142.23066406249998 Q 28.25713046265163 142.33984375 27.99868993813707 142.440625 Q 27.740788337617666 142.54140625000002 27.479694135013105 142.6337890625 Q 27.219049768720794 142.726171875 26.95504627397427 142.81015625000003 Q 26.691412196277597 142.894140625 26.424268932467733 142.9697265625 Q 26.157423124013786 143.0453125 25.886934206512656 143.1125 Q 25.616679029951165 143.17968750000003 25.342662632311995 143.2384765625 Q 25.06882430475521 143.29726562500002 24.791122148841588 143.34765625000003 Q 24.513550243867208 143.39804687500003 24.232027126108022 143.44003906250003 Q 23.950594116501875 143.48203125 23.665137480573527 143.51562500000003 Q 23.379738331447193 143.54921875000002 23.090257896149595 143.5744140625 Q 22.800809716553474 143.59960937500003 22.507237166155804 143.61640625 Q 22.213678925836135 143.63320312500002 21.91596766871842 143.6416015625 Q 21.618259985232413 143.65000000000003 21.316384985232418 143.65000000000003 L 21.316384985232418 143.65000000000003 Q 21.028572485232417 143.65000000000003 20.740636864360777 143.64208984375003 Q 20.45270441359493 143.63417968750002 20.16466152671677 143.618359375 Q 19.876631333257592 143.6025390625 19.588516112122317 143.57880859375 Q 19.300429499685215 143.55507812500002 19.012296068909563 143.52343750000003 Q 18.72421361791079 143.49179687500003 18.436135473119062 143.45224609375003 Q 18.14813722273974 143.41269531250003 17.860207467863916 143.36523437500003 Q 17.57239317565217 143.31777343750002 17.284724815292453 143.26240234375 Q 16.9972142697244 143.20703125 16.709940551345404 143.14375 Q 16.422873931628278 143.08046875000002 16.136148731212927 143.00927734375 Q 15.849687007446661 142.93808593750003 15.5636852510441 142.85898437500003 Q 15.278010616656937 142.7798828125 14.992928729040315 142.69287109375003 Q 14.708245056176926 142.60585937500002 14.424301426568867 142.5109375 Q 14.140834733835382 142.416015625 13.858270187363614 142.31318359375 Q 13.576269108022153 142.21035156250002 13.295347370236176 142.09960937500003 Q 13.015083607595024 141.9888671875 12.736091748009365 141.87021484375003 Q 12.457860503376889 141.7515625 12.181109342613318 141.625 Q 11.630224596337314 141.37187500000002 11.086628813431547 141.087109375 Q 10.54750680098913 140.80234375 10.01772337657475 140.48593750000003 Q 9.493536322733497 140.16953125 8.980996585809757 139.821484375 Q 8.475308120618188 139.47343750000002 7.983831244743509 139.09375 Q 7.500585345353329 138.7140625 7.034360017487703 138.302734375 Q 6.577856252518565 137.89140625000002 6.141406656925858 137.4484375 Q 5.716258225721809 137.00546875 5.3143907416515805 136.530859375 Q 4.92546168138926 136.05625 4.563188652524019 135.55 Q 4.2161316239005515 135.04375 3.9002477122432726 134.51005859375 Q 3.600317334079996 133.9763671875 3.334511192221676 133.41523437499998 Q 3.085904496704636 132.85410156249998 2.8742657129815523 132.26552734374997 Q 2.6808889443442343 131.67695312499998 2.5271237379253897 131.0609375 Q 2.392423458728336 130.444921875 2.299672569673273 129.80146484374998 Q 2.2264448402530483 129.1580078125 2.197080649526937 128.487109375 Q 2.1872610220533772 127.81621093750002 2.2226675541088037 127.11787109375001 Q 2.2771063631296204 126.41953125 2.377447713084978 125.69375 Q 2.4956771431346727 124.96796874999998 2.659661998635454 124.21474609374998 Q 2.8396636207733263 123.46152343749999 3.0643158540049646 122.68085937499998 Q 3.302299670716876 121.90019531249999 3.5827473639725484 121.09208984374999 Q 3.8729557737955624 120.283984375 4.202253379776678 119.44843750000001 Q 4.536805717923872 118.612890625 4.905806170007265 117.74990234375 Q 5.2746014065559175 116.88691406250001 5.6718966697687545 115.99648437500001 Q 6.06259321984443 115.1060546875 6.474542757181694 114.18818359375001 Q 6.872634910141931 113.27031250000002 7.283501547430824 112.32500000000002 Q 7.671886461475628 111.37968750000002 8.061494973229651 110.41259765625001 Q 8.421067480264053 109.44550781250001 8.77225615702219 108.456640625 Q 9.085144073509648 107.4677734375 9.379762439855906 106.45712890625 Q 9.62802216469328 105.44648437500001 9.84818638845156 104.4140625 Q 10.014476391856904 103.38164062499999 10.143294916377078 102.32744140625 Q 10.211636401468052 101.27324218750002 10.234013259763822 100.197265625 Q 10.190616727163368 99.12128906250001 10.094106916370468 98.02353515625 Q 9.928235116406814 96.92578125 9.703918010923788 95.80624999999999 Q 9.408747423777513 94.68671874999998 9.052075971933625 93.54541015625 Q 8.62551105662656 92.40410156249999 8.137087044993612 91.24101562499999 Q 7.582474700771564 90.07792968749999 6.968694394574786 88.89306640625 Q 6.295381134669458 87.708203125 5.5688919035066995 86.50156249999998 Q 4.792563963396974 85.29492187499999 3.9724719070023844 84.06650390625 Q 3.115219719699714 82.83808593749998 2.226991626111691 81.58789062499999 Q 1.7741858690163188 80.96279296874998 1.3165449016656792 80.33225097656249 Q 0.8556320165295066 79.70170898437499 0.3920564742286499 79.06572265624999 Q -0.07249877143004836 78.42973632812499 -0.5373828773640695 77.78830566406248 Q -1.0008433763409998 77.14687499999998 -1.4621581369363954 76.49999999999999 L -1.4621581369363954 76.49999999999999 Q -2.17589292420537 75.48749999999998 -2.860768543726605 74.48378906249998 Q -3.5271536351145807 73.48007812499999 -4.15650565410969 72.48515624999999 Q -4.759321766053171 71.490234375 -5.318018859169813 70.50410156249998 Q -5.8431540803977065 69.51796875 -6.318299157287601 68.54062499999999 Q -6.75399819456883 67.56328124999999 -7.135134983240701 66.5947265625 Q -7.472165834747011 65.626171875 -7.751404086141993 64.66640625 Q -7.983144481737767 63.706640625000006 -8.155207260223005 62.7556640625 Q -8.277655365399172 61.804687500000014 -8.339853854412524 60.862500000000004 Q -8.351569518924714 59.9203125 -8.303712354720828 58.986914062500006 Q -8.205696584478469 58.053515625 -8.049941927801473 57.12890625000001 Q -7.845463270207617 56.20429687500001 -7.586122643496863 55.28847656250001 Q -7.280499816054041 54.37265625000001 -6.923803191853369 53.46562500000001 Q -6.524153575780729 52.55859375000001 -6.077985329119564 51.660351562500004 Q -5.592948926597488 50.76210937500001 -5.0665640960986 49.872656250000006 Q -4.5060122502242015 48.98320312500001 -3.9097421303330524 48.10253906250001 Q -3.284479773477333 47.22187500000001 -2.629435227126101 46.350000000000016 Q -1.9515297006019594 45.47812500000002 -1.2546394518487358 44.620312500000026 Q -0.5401630794631362 43.762500000000024 0.18686033816988212 42.91875000000002 Q 0.9256800301873964 42.07500000000002 1.6709653466795322 41.24531250000001 Q 2.4224884267890867 40.41562500000001 3.1748615040081174 39.600000000000016 Q 3.9282459830576357 38.78437500000002 4.677415953429094 37.982812500000016 Q 5.4227833157457255 37.18125000000002 6.159484626189324 36.39375000000002 Q 6.888041823226729 35.60625000000002 7.604134070003925 34.83281250000002 Q 8.308254385832022 34.05937500000002 8.996782819347636 33.30000000000002 Q 9.670048892077167 32.54062500000002 10.325269215105845 31.79531250000002 Q 10.962482130208903 31.050000000000022 11.579853724549448 30.318750000000023 Q 12.177012504128516 29.58750000000002 12.753164521100299 28.87031250000002 Q 13.307420541391544 28.153125000000017 13.840095406437975 27.450000000000017 Q 14.349686311072889 26.746875000000017 14.837665149678188 26.05781250000002 Q 15.301832716694985 25.36875000000002 15.744847036147164 24.693750000000023 Q 16.16374323070088 24.018750000000022 16.56237691769843 23.35781250000002 Q 16.936962047098298 22.696875000000016 17.292547391077235 22.05000000000002 Q 17.624483899570397 21.40312500000002 17.938022813960213 20.77382812500002 Q 18.228850696685598 20.14453125000002 18.503605784054713 19.53281250000002 Q 18.756811981943887 18.92109375000002 18.996436050277616 18.326953125000017 Q 19.215842164798616 17.73281250000002 19.4242576067355 17.156250000000018 Q 19.613903960413687 16.579687500000016 19.795193825769275 16.020703125000015 Q 19.959235769593256 15.461718750000015 20.11754743501117 14.920312500000016 Q 20.26016455713652 14.378906250000014 20.39962638469852 13.855078125000016 Q 20.524944800507278 13.331250000000017 20.649595748256168 12.825000000000015 Q 20.761623260311367 12.318750000000014 20.875355059908646 11.830078125000014 Q 20.977928664365724 11.341406250000015 21.08443991000673 10.870312500000015 Q 21.18118488813373 10.399218750000014 21.283946180058642 9.945703125000014 Q 21.378245842705304 9.492187500000014 21.480474990684293 9.056250000000013 Q 21.57545003194943 8.620312500000011 21.680096240857093 8.201953125000012 Q 21.778592596542943 7.78359375000001 21.888328519252372 7.382812500000011 Q 21.99291260765602 6.98203125000001 22.11013315180935 6.59882812500001 Q 22.22309339096742 6.215625000000009 22.349920197972505 5.8500000000000085 Q 22.473273737146947 5.484375000000008 22.613794806962503 5.141601562500008 Q 22.751610163727293 4.798828125000007 22.907655909011694 4.478906250000007 Q 23.061634297250002 4.158984375000006 23.234717519799513 3.8619140625000057 Q 23.406255196207038 3.564843750000005 23.5976046047791 3.290625000000005 Q 23.787826971718527 3.0164062500000046 23.998421385744393 2.765039062500004 Q 24.208217311110985 2.5136718750000036 24.438819548794964 2.2851562500000036 Q 24.668874989222413 2.056640625000003 24.920064631709433 1.8509765625000028 Q 25.170894829472754 1.6453125000000024 25.443099224300195 1.4625000000000021 Q 25.715078909808238 1.2796875000000019 26.00860192537709 1.1197265625000017 Q 26.301993095407926 0.9597656250000014 26.617041263532276 0.8226562500000012 Q 26.932018220626905 0.685546875000001 27.26872400709351 0.5712890625000009 Q 27.60539543887557 0.45703125000000067 27.96383746380108 0.36562500000000053 Q 28.32226541411971 0.2742187500000004 28.70248550666767 0.2056640625000003 Q 29.082701145479238 0.1371093750000002 29.48471816347337 0.09140625000000013 Q 29.886734301684022 0.04570312500000007 30.3105546783355 0.022851562500000033 Q 30.734375 0 31.180000000000003 0 L 31.180000000000003 0 Q 31.440937500000004 0 31.705214843417064 0.007568359375000021 Q 31.96949218483648 0.015136718750000042 32.23710935369183 0.030273437500000083 Q 32.50472649058493 0.045410156250000125 32.77568335103683 0.0681152343750002 Q 33.04664004968056 0.09082031250000025 33.32093613628265 0.12109375000000033 Q 33.59523171149657 0.15136718750000042 33.872865891616314 0.18920898437500053 Q 34.15049882325831 0.2270507812500006 34.43146884170311 0.2724609375000008 Q 34.993400681013576 0.363281250000001 35.56866272823215 0.48437500000000133 Q 36.14389205452675 0.6054687500000017 36.73240149565154 0.7568359375000021 Q 37.320831080875806 0.9082031250000024 37.92244372317559 1.089843750000003 Q 38.523890885794195 1.2714843750000036 39.13835425313349 1.4833984375000042 Q 39.75251138210676 1.6953125000000047 40.37942089362029 1.9375000000000053 Q 41.00580884587219 2.179687500000006 41.644557101993186 2.452148437500007 Q 42.28247194290557 2.724609375000008 42.932191720475956 3.0273437500000084 Q 43.580645530573484 3.330078125000009 44.24014738326918 3.66308593750001 Q 44.8978041827379 3.996093750000011 45.565509915831704 4.359375000000012 Q 46.23061816718254 4.722656250000013 46.90449191033246 5.116210937500014 Q 47.57481555020127 5.509765625000016 48.25229468789295 5.933593750000017 Q 48.92504520865946 6.357421875000018 49.60297403892617 6.811523437500019 Q 50.27474678019504 7.2656250000000195 50.94931644483576 7.750000000000021 Q 51.6160349464937 8.234375000000021 52.277710208703326 8.743945312500019 Q 52.92975708815043 9.253515625000018 53.573923364626296 9.788281250000017 Q 54.20647110335864 10.323046875000017 54.82795028697271 10.883007812500017 Q 55.43561989953143 11.442968750000016 56.02869422242779 12.028125000000014 Q 56.60558942809704 12.613281250000012 57.16404938775475 13.223632812500012 Q 57.70381651296761 13.833984375000012 58.22103671475791 14.469531250000012 Q 58.716954074834774 15.105078125000011 59.18600059381675 15.76582031250001 Q 59.63110073884611 16.42656250000001 60.044873095811816 17.112500000000004 Q 60.432100662392244 17.798437500000006 60.783510695488374 18.509570312500003 Q 61.105917636198065 19.220703125000004 61.38810638471303 19.95703125 Q 61.63908500897743 20.693359375 61.8456771733947 21.454882812499996 Q 62.01922969617078 22.216406249999995 62.14462327553793 23.003124999999997 Q 62.23566441997342 23.789843749999996 62.2753507514516 24.601757812499994 Q 62.28003739790758 25.41367187499999 62.23094405873262 26.25078124999999 Q 62.147023015431394 27.087890624999993 62.00786895372462 27.95019531249999 Q 61.8350307218979 28.812499999999986 61.606679660834374 29.69999999999999 Q 61.34541330361268 30.58906249999999 61.0288064437469 31.499902343749994 Q 60.68438396426428 32.4107421875 60.287626240433255 33.343359375 Q 59.868005953913254 34.2759765625 59.400567371289696 35.230371093749994 Q 58.91647537512391 36.184765625 58.39064014300546 37.1609375 Q 57.855592941351986 38.13710937500001 57.286425749060406 39.13505859375001 Q 56.716640056588986 40.13300781250001 56.12182922750654 41.15273437500001 Q 55.53600107641793 42.172460937500006 54.93556205576264 43.213964843750006 Q 54.35450045765893 44.25546875000001 53.770327057271736 45.31875000000001 Q 53.216432222818554 46.38203125000001 52.671688709936745 47.46708984375001 Q 52.1682713093812 48.552148437500016 51.68662584586434 49.65898437500002 Q 51.257072012139304 50.76582031250002 50.861781075477865 51.894433593750016 Q 50.52857769509332 53.02304687500002 50.24144175407059 54.17343750000002 Q 50.02508779509699 55.32382812500003 49.86531031911821 56.49599609375002 Q 49.783152073302034 57.668164062500026 49.76614639084016 58.862109375000024 Q 49.83118693398425 60.056054687500016 49.96738779687284 61.27177734375002 Q 50.18713288394696 62.48750000000002 50.48088092887604 63.72500000000002 L 50.48088092887604 63.72500000000002 Z M 20.498526070080768 73.79999999999998 L 20.498526070080768 73.79999999999998 Q 21.24836482952232 74.903125 21.98519701899125 75.93046875 Q 22.734620572768176 76.9578125 23.457524650874824 77.90937500000001 Q 24.18305680495617 78.86093750000002 24.873265985483112 79.73671875000002 Q 25.559253139100267 80.61250000000003 26.205173830236276 81.41250000000002 Q 26.842699875323085 82.21250000000003 27.438701681218024 82.93671875000003 Q 28.024297476597727 83.66093750000003 28.569396488669142 84.30937500000002 Q 29.103711934466475 84.95781250000005 29.6002846940107 85.53046875000004 Q 30.086837565442586 86.10312500000003 30.53945314341802 86.60000000000004 Q 31.412729977657502 87.58750000000003 32.174093602190844 88.32812500000003 Q 32.91317485659745 89.06875000000001 33.56704458526882 89.5625 Q 34.21007659686495 90.05625 34.78867027085177 90.30312500000001 Q 35.36442685105068 90.55 35.886926851050674 90.55 L 35.886926851050674 90.55 Q 36.24692685105068 90.55 36.543247856994476 90.45859374999999 Q 36.83917642730634 90.36718749999999 37.06986447178327 90.18437499999999 Q 37.29900761406468 90.0015625 37.45986282537014 89.72734375 Q 37.61733885824606 89.453125 37.70215475325396 89.08749999999999 Q 37.78121769601459 88.72187499999998 37.78218848649228 88.26484375 Q 37.77471592305659 87.80781250000001 37.68305337764897 87.259375 Q 37.58026375868781 86.7109375 37.38707142237904 86.07109375 Q 37.180518262888874 85.43125 36.877967649307344 84.69999999999999 Q 36.55959936116765 83.96874999999997 36.1372132474419 83.12343749999998 Q 35.70007640008562 82.27812499999999 35.15626645341003 81.31875 Q 34.60077306171515 80.359375 33.941107043229 79.28593749999999 Q 33.27748416619204 78.21249999999999 32.51949984489849 77.02499999999999 Q 32.14370934186973 76.43124999999999 31.74764623012674 75.80898437499998 Q 31.356416034139283 75.18671874999998 30.947968849713362 74.53593749999999 Q 30.547200820694698 73.88515624999998 30.13297347520993 73.20585937499999 Q 29.729744124149825 72.5265625 29.317531444178524 71.81875 Q 28.920094171561693 71.1109375 28.51885941038832 70.37460937499999 Q 28.136598710510896 69.63828124999999 27.75639742533361 68.8734375 Q 27.39972515613553 68.10859375 27.051565643318202 67.315234375 Q 26.731749885949817 66.521875 26.427381155986826 65.7 L 26.427381155986826 65.7 L 25.909692235932916 63.990625 L 25.54632849795455 62.28125 L 25.344914680296874 60.571875000000006 L 25.310051683296745 58.862500000000004 L 25.443230663957017 57.153125 L 25.742805193900917 55.44375000000001 L 26.204022000557487 53.73437500000001 L 26.819109717596067 52.025000000000006 Q 26.525759669232684 51.85000000000001 26.261893926104303 51.7375 Q 25.998640587934158 51.625 25.76350140982797 51.57499999999999 Q 25.528475756828968 51.53750000000001 25.248488188901597 51.51875000000001 Q 24.968517437497656 51.50000000000002 24.643517437497653 51.50000000000002 L 24.643517437497653 51.50000000000002 Q 24.373517437497654 51.50000000000002 24.10223140477778 51.52597656250002 Q 23.83097766185272 51.55195312500002 23.558567224803998 51.603906250000016 Q 23.014135793999767 51.70781250000002 22.46684057229036 51.91562500000002 Q 21.921653999252825 52.12343750000002 21.377875041560493 52.43515625000002 Q 20.838959663316096 52.746875000000024 20.30808767882343 53.16250000000002 Q 19.7861333484531 53.578125000000014 19.28144584410855 54.097656250000014 Q 18.791167646763228 54.617187500000014 18.330175980863835 55.24062500000001 Q 17.8906124912504 55.86406250000002 17.495262884915093 56.591406250000006 Q 17.129856498631355 57.318750000000016 16.826405743629252 58.15000000000001 Q 16.562668050000344 58.98125000000001 16.37160939082524 59.84921875000001 Q 16.223803667480983 60.71718750000001 16.155520412400158 61.62187500000001 Q 16.13325104887943 62.52656250000001 16.196479530795777 63.46796875000001 Q 16.307369514150977 64.40937500000001 16.50842350815728 65.3875 Q 16.757314472021427 66.365625 17.09925266842615 67.38046875 Q 17.487365905336347 68.3953125 17.96914329601204 69.44687499999999 Q 18.49324886990447 70.4984375 19.108906885887144 71.58671874999999 Q 19.7605619720774 72.675 20.498526070080768 73.79999999999998 L 20.498526070080768 73.79999999999998 Z" fill="black" stroke="black" />
				</svg>