<svg
					xmlns="http://www.w3.org/2000/svg" xmlns:xlink="http://www.w3.org/1999/xlink"
					style="
						overflow: visible;
						height: 100;
					"
					viewBox="-8.987191326077994 0 57.369403127711294 128.52499999999998"
				>
					<path d="M 19.058992252975102 57.59999999999998 L 19.259707561649712 58.708203124999976 L 19.531107175806312 59.81640624999998 L 19.873011960312496 60.92460937499999 L 20.284688977165743 62.03281249999998 L 20.764857242562943 63.14101562499998 L 21.311697788751246 64.24921874999998 L 21.922867951626504 65.35742187499999 L 22.59551977185332 66.46562499999999 L 23.326322364969915 67.57382812499998 L 24.111488084765487 68.68203124999998 L 24.94680227442224 69.79023437499998 L 25.827656371733564 70.89843749999999 L 26.7490841083638 72.00664062499997 L 27.70580051881231 73.11484374999998 L 28.69224345267488 74.223046875 L 29.70261726413267 75.33124999999998 L 30.730938335497097 76.43945312499997 L 31.77108207723315 77.54765624999999 L 32.816831035286064 78.65585937499999 L 33.86192372783871 79.76406249999998 L 34.900103827897624 80.872265625 L 35.92516930538887 81.98046875 L 36.93102114276346 83.08867187499999 L 37.91171124146162 84.19687499999998 L 38.86148914294095 85.30507812499998 L 39.774847197285126 86.41328124999998 L 40.646563824603234 87.52148437499997 L 41.47174452941093 88.62968749999999 L 42.24586034583424 89.737890625 L 42.964783411657436 90.84609375 L 43.62481939178827 91.95429687499998 L 44.22273649646143 93.06249999999999 L 44.75579086624843 94.17070312499999 L 45.22174812448023 95.27890624999998 L 45.61890092779289 96.38710937499997 L 45.94608237694061 97.49531249999998 L 46.20267518253694 98.603515625 L 46.38861651372954 99.71171874999999 L 46.50439849172291 100.81992187499999 L 46.55106432427274 101.928125 L 46.530200111514475 103.03632812499998 L 46.44392238748975 104.14453124999997 L 46.294861495228965 105.25273437499997 L 46.08614092597555 106.36093749999999 L 45.82135278483751 107.469140625 L 45.50452957557836 108.57734375 L 45.14011252617195 109.685546875 L 44.73291670391682 110.79374999999999 L 44.28809319412365 111.90195312499998 L 43.81108863945373 113.01015624999998 L 43.30760245771845 114.11835937499998 L 42.78354207418456 115.22656249999999 L 42.24497652002586 116.334765625 L 41.698088761395475 117.44296875 L 41.14912713356338 118.551171875 L 40.60435626159377 119.65937499999998 L 40.07000785306959 120.76757812499999 L 39.55223174937671 121.87578124999999 L 39.057047620029415 122.98398437499998 L 38.590297679467824 124.0921875 L 38.157600797726516 125.20039062500001 L 37.764308365425194 126.30859375 L 37.41546225975228 127.41679687499999 L 37.11575524160971 128.52499999999998 L 36.13513024160971 128.52499999999998 L 35.15450524160971 128.52499999999998 L 34.173880241609716 128.52499999999998 L 33.19325524160971 128.52499999999998 L 32.21263024160971 128.52499999999998 L 31.23200524160971 128.52499999999998 L 30.251380241609713 128.52499999999998 L 29.27075524160971 128.52499999999998 L 28.290130241609706 128.52499999999998 L 27.30950524160971 128.52499999999998 L 26.328880241609713 128.52499999999998 L 25.34825524160971 128.52499999999998 L 24.36763024160971 128.52499999999998 L 23.38700524160971 128.52499999999998 L 22.40638024160971 128.52499999999998 L 21.42575524160971 128.52499999999998 L 21.881888862959656 126.9890625 L 22.428964462736225 125.453125 L 23.053949576775544 123.91718749999998 L 23.74263692163367 122.38125 L 24.479858630173478 120.84531249999999 L 25.249714972060616 119.30937499999999 L 26.03581411022877 117.7734375 L 26.821519277959446 116.2375 L 27.590199649324134 114.7015625 L 28.32548112004378 113.165625 L 29.011493217170944 111.62968749999999 L 29.633108414374625 110.09374999999999 L 30.17617024412609 108.5578125 L 30.62770676701838 107.021875 L 30.976126179256045 105.48593749999998 L 31.211391608695386 103.94999999999999 L 31.325172463636946 102.4140625 L 31.310970052139595 100.878125 L 31.16421557760756 99.3421875 L 30.882339032947726 97.80625 L 30.464807954422856 96.2703125 L 29.91313545082069 94.734375 L 29.230857386864848 93.19843750000001 L 28.423479064925107 91.6625 L 27.49839220902862 90.12656249999999 L 26.464763502993094 88.590625 L 25.333396363446624 87.0546875 L 24.11656803209732 85.51874999999998 L 22.827844443783732 83.9828125 L 21.481875661962356 82.44687499999999 L 20.094174966317674 80.91093749999999 L 18.680884923694002 79.375 L 18.71568431779096 80.140625 L 18.746172885152564 80.90625 L 18.770309519009814 81.67187499999999 L 18.786076934820272 82.43749999999999 L 18.79148923587147 83.20312499999999 L 18.784599361167658 83.96874999999997 L 18.763506387667473 84.73437499999997 L 18.726362659486366 85.49999999999997 L 19.519120240949903 86.84453124999997 L 20.247738089182604 88.18906249999998 L 20.90379444498956 89.53359374999998 L 21.479706254153403 90.87812499999998 L 21.968816816476558 92.22265624999999 L 22.36547272752272 93.56718749999999 L 22.665089223723214 94.91171874999999 L 22.864203175554177 96.25624999999998 L 22.960513116260806 97.60078124999995 L 22.952905843454943 98.94531249999997 L 22.841469286110407 100.28984374999996 L 22.62749148823235 101.63437499999998 L 22.31344572094796 102.97890624999997 L 21.902961895100983 104.32343749999998 L 21.400784604778806 105.66796874999997 L 20.812718286727666 107.01249999999999 L 20.145560129533145 108.35703124999998 L 19.40702150803796 109.7015625 L 18.60563885110047 111.04609374999998 L 17.750674972932643 112.390625 L 16.852012008483186 113.73515624999999 L 15.920037190376632 115.0796875 L 14.965522787660257 116.42421875 L 13.9995015940918 117.76874999999998 L 13.03313940514158 119.11328124999997 L 12.077605957689022 120.45781249999997 L 11.143945824162108 121.80234374999998 L 10.242950753395323 123.14687499999998 L 9.385034933759435 124.49140624999998 L 8.580114620339323 125.83593749999999 L 7.837493517494084 127.18046874999999 L 7.16575524160971 128.52499999999998 L 6.29263024160971 128.52499999999998 L 5.41950524160971 128.52499999999998 L 4.54638024160971 128.52499999999998 L 3.67325524160971 128.52499999999998 L 2.8001302416097102 128.52499999999998 L 1.9270052416097103 128.52499999999998 L 1.0538802416097095 128.52499999999998 L 0.18075524160970868 128.52499999999998 L -0.6923697583902912 128.52499999999998 L -1.5654947583902912 128.52499999999998 L -2.438619758390291 128.52499999999998 L -3.311744758390292 128.52499999999998 L -4.184869758390292 128.52499999999998 L -5.057994758390292 128.52499999999998 L -5.931119758390293 128.52499999999998 L -6.8042447583902925 128.52499999999998 L -5.7742853781557 126.516796875 L -4.5956094885185985 124.50859375 L -3.2985738440458325 122.50039062500001 L -1.9165835504750606 120.4921875 L -0.48523171743427673 118.48398437499998 L 0.958617240799023 116.47578124999998 L 2.377777046943662 114.46757812499999 L 3.735697291930357 112.459375 L 4.997404789354912 110.451171875 L 6.130404308618939 108.44296874999999 L 7.105515488409313 106.43476562499998 L 7.897624375839944 104.42656249999999 L 8.486330235392815 102.418359375 L 8.856470969117451 100.41015625 L 8.998513615910925 98.401953125 L 8.908799872583483 96.39375 L 8.58964031332385 94.38554687499999 L 8.049254880945227 92.37734375 L 7.301561182557812 90.369140625 L 6.365816042105069 88.3609375 L 5.26611954156509 86.35273437500001 L 4.030794324217873 84.34453124999999 L 2.691656146000231 82.33632812499998 L 1.2831944618714886 80.32812499999999 L -0.1583158488416105 78.31992187499999 L -1.5957487406394806 76.31171874999998 L -2.9920831817980567 74.30351562499999 L -4.311356629691147 72.2953125 L -5.519591244764737 70.287109375 L -6.585668988555971 68.27890624999999 L -7.482133067639261 66.27070312499998 L -8.185895082340005 64.26249999999999 L -8.678829667626502 62.254296875 L -8.948241311225503 60.24609375 L -8.987191326077994 58.23789062499999 L -8.794676555971446 56.2296875 L -8.375655211791479 54.221484374999996 L -7.740919172981279 52.213281249999994 L -6.906816043079972 50.205078125 L -5.894828117789437 48.196875 L -4.731019109231718 46.188671875 L -3.445362875993486 44.18046875 L -2.070971447490883 42.172265624999994 L -0.6432422248591155 40.16406249999999 L 0.8010536778233512 38.15585937499999 L 2.2247184722373228 36.14765625 L 3.5910857235049 34.139453124999996 L 4.864964692883048 32.131249999999994 L 6.013546673956966 30.123046875 L 7.0072499796776935 28.11484375 L 7.820481817633628 26.106640624999997 L 8.432297431486028 24.0984375 L 8.826939532404953 22.090234375 L 8.994244127468624 20.082031249999996 L 8.929902292930558 18.073828125 L 8.635571150393591 16.065624999999997 L 8.118831187703394 14.057421875 L 7.3929910237603735 12.04921875 L 6.476744645525085 10.041015624999998 L 5.393689945065583 8.032812499999999 L 4.171720956707508 6.024609375 L 2.842309447196964 4.016406249999999 L 1.4396943614953244 2.0082031249999996 L 0 0 L 0.8731250000000002 0 L 1.7462500000000003 0 L 2.6193750000000007 0 L 3.4925000000000006 0 L 4.365625000000001 0 L 5.238750000000001 0 L 6.111875000000001 0 L 6.985000000000001 0 L 7.858125000000002 0 L 8.731250000000003 0 L 9.604375000000003 0 L 10.477500000000003 0 L 11.350625000000003 0 L 12.223750000000003 0 L 13.096875000000002 0 L 13.970000000000002 0 L 15.221431903014839 1.7437499999999995 L 16.448550095973495 3.487499999999999 L 17.627513252890616 5.231249999999998 L 18.735415638108392 6.974999999999998 L 19.750732135238287 8.718749999999996 L 20.653736452448513 10.462499999999997 L 21.426884378907275 12.206249999999997 L 22.055154646202638 13.949999999999996 L 22.52634077224066 15.693749999999994 L 22.83128821747077 17.437499999999993 L 22.964072245798405 19.181249999999995 L 22.92211303457634 20.924999999999994 L 22.706225797235994 22.668749999999992 L 22.32060494474042 24.412499999999994 L 21.772742593581615 26.156249999999993 L 21.07328300360679 27.89999999999999 L 20.235815773759107 29.64374999999999 L 19.27661181367338 31.38749999999999 L 18.214307220858448 33.13124999999999 L 17.06954120532552 34.874999999999986 L 15.86455509632054 36.61874999999999 L 14.622760221943334 38.36249999999999 L 13.36828305719595 40.10624999999999 L 12.1254964776478 41.84999999999999 L 10.918546225855103 43.593749999999986 L 9.770881790682266 45.337499999999984 L 8.704800813935737 47.08124999999999 L 7.741015875902615 48.82499999999999 L 6.898252076593042 50.56874999999998 L 6.192883231164595 52.312499999999986 L 5.638613747782905 54.05624999999999 L 5.246212368622009 55.79999999999998 Q 5.67571488336578 54.76874999999999 6.182879141192476 53.72968749999999 Q 6.746944472246246 52.690625 7.386223767658654 51.64375 Q 8.078244461364374 50.596875 8.841254399603901 49.5421875 Q 9.240578009166132 49.01484375 9.656576510737981 48.485546875 Q 10.083421535351182 47.95625 10.526090102366805 47.425 Q 10.976782204864751 46.896874999999994 11.431317632715684 46.37578125 Q 11.894271867141608 45.854687500000004 12.359516830748746 45.340625 Q 13.310759954191823 44.3125 14.26230808026097 43.3125 Q 15.232151673910515 42.31249999999999 16.191518573805933 41.34062499999999 Q 17.159852471266955 40.36874999999999 18.10833674730824 39.42499999999999 L 18.10833674730824 39.42499999999999 L 19.331937481116153 38.19296874999999 L 20.548020979100556 36.96093749999999 L 21.748059090821897 35.728906249999994 L 22.923679413664495 34.49687499999999 L 24.066746561275153 33.26484374999999 L 25.16944113135488 32.03281249999999 L 26.224335606286807 30.800781249999993 L 27.22446644985523 29.568749999999994 L 28.16340170023432 28.336718749999996 L 29.03530340314125 27.104687499999997 L 29.834984279133586 25.87265625 L 30.557958074998297 24.640624999999993 L 31.200483110486232 23.40859374999999 L 31.759598597696822 22.176562499999992 L 32.23315338057147 20.944531249999994 L 32.61982681552987 19.712499999999995 L 32.91914159056706 18.480468749999996 L 33.13146835838001 17.248437499999994 L 33.258022138551446 16.016406249999996 L 33.30085052371368 14.784374999999997 L 33.26281380417192 13.552343749999999 L 33.14755720391135 12.320312499999996 L 32.959475497484846 11.088281249999996 L 32.70367035123485 9.856249999999998 L 32.385900802925434 8.624218749999997 L 32.01252736046422 7.392187499999999 L 31.590450262331345 6.160156249999998 L 31.127042499003156 4.928124999999999 L 30.630078245512017 3.6960937499999993 L 30.107657399826113 2.4640624999999994 L 29.56812695953298 1.2320312499999997 L 29.020000000000003 0 L 29.969375000000003 0 L 30.918750000000003 0 L 31.868125000000003 0 L 32.8175 0 L 33.766875 0 L 34.71625 0 L 35.665625000000006 0 L 36.615 0 L 37.564375 0 L 38.51375 0 L 39.463125000000005 0 L 40.4125 0 L 41.361875 0 L 42.31125 0 L 43.260625000000005 0 L 44.21 0 L 44.99527566551026 1.7999999999999994 L 45.753816500544886 3.5999999999999988 L 46.45944109077752 5.399999999999999 L 47.087063398359426 7.1999999999999975 L 47.61321204774326 8.999999999999996 L 48.016516187685674 10.799999999999997 L 48.2781478719916 12.599999999999996 L 48.382211801633304 14.399999999999995 L 48.316074360507265 16.199999999999996 L 48.07062513372517 17.999999999999993 L 47.64046549495997 19.799999999999994 L 47.02402035905247 21.599999999999994 L 46.22357078657809 23.39999999999999 L 45.24520676545279 25.199999999999992 L 44.09870114700816 26.999999999999993 L 42.79730734608317 28.79999999999999 L 41.3574849927798 30.599999999999987 L 39.798559214944014 32.39999999999999 L 38.14232060429056 34.19999999999999 L 36.41257414695001 35.999999999999986 L 34.634646455662676 37.79999999999998 L 32.834861504008146 39.59999999999999 L 31.039995715072934 41.39999999999999 L 29.276723684326143 43.19999999999999 L 27.57106601034634 44.999999999999986 L 25.947850663410357 46.79999999999998 L 24.430199041717984 48.59999999999998 L 23.039047353987968 50.399999999999984 L 21.7927132358979 52.19999999999999 L 20.706516571491314 53.999999999999986 L 19.792462368622004 55.79999999999998 L 19.058992252975102 57.59999999999998 L 19.058992252975102 57.59999999999998 Z" fill="black" stroke="black" />
				</svg>