<svg
					xmlns="http://www.w3.org/2000/svg" xmlns:xlink="http://www.w3.org/1999/xlink"
					style="
						overflow: visible;
						height: 100;
					"
					viewBox="-8.894471034990346 0 57.27200116036713 132.125"
				>
					<path d="M 31.623315939551166 28.44999999999999 L 31.623315939551166 28.44999999999999 Q 31.317065939551167 28.44999999999999 31.000618086455138 28.489355468749984 Q 30.68410248123588 28.528710937499987 30.357118747393734 28.607421874999986 Q 30.029866210643796 28.686132812499988 29.691611647635618 28.804199218749986 Q 29.35276066865716 28.922265624999987 29.00212376771128 29.079687499999988 Q 28.650447895284824 29.237109374999992 28.28597342042611 29.43388671874999 Q 27.919919545877843 29.63066406249999 27.539855293794893 29.866796874999988 Q 27.15759660749351 30.10292968749999 26.75995594545155 30.378417968749993 Q 26.35946154807128 30.65390624999999 25.94210385430455 30.96874999999999 Q 25.521227207559065 31.283593749999987 25.081958441976443 31.637792968749988 Q 24.63854685450722 31.99199218749999 24.175242368726902 32.38554687499999 Q 23.707269475876835 32.77910156249999 23.21802077160902 33.21201171874999 Q 22.72374342166418 33.64492187499999 22.207029821824136 34.11718749999999 Q 21.685169861681768 34.58945312499999 21.140054905056832 35.10107421874999 Q 20.590005002480034 35.61269531249999 20.01635575095637 36.16367187499999 Q 19.438406544338044 36.71464843749999 18.837131855402824 37.30498046874999 Q 18.232715348812714 37.89531249999999 17.60601649298221 38.52499999999999 Q 16.977332707544328 39.154687499999994 16.337145983523346 39.815332031249994 Q 15.698055594754708 40.475976562499994 15.050326193334921 41.16757812499999 Q 14.406762269335461 41.85917968749999 13.758321135768846 42.58173828124999 Q 13.117752504366251 43.30429687499999 12.477011866216206 44.0578125 Q 11.848490322510626 44.811328125 11.225460572798347 45.595800781250006 Q 10.619607879681343 46.3802734375 10.025845808624686 47.195703125 Q 9.454765337948267 48.0111328125 8.903238438157075 48.857519531250006 Q 8.380336451781412 49.70390625 7.88518871288276 50.58125 Q 7.424891517023221 51.45859374999999 7.001098046929793 52.36689453124999 Q 6.618453839137922 53.27519531249999 6.281355064299291 54.21445312499999 Q 5.991513480360327 55.153710937499994 5.7562248162558145 56.123925781249994 Q 5.573793175334622 57.09414062499999 5.454493082833707 58.09531249999999 Q 5.392776237554525 59.096484374999996 5.401884542896692 60.12861328125 Q 5.472025050437592 61.160742187500006 5.619294203395851 62.223828125000004 Q 5.829341050184118 63.2869140625 6.120895320166303 64.38095703125 Q 6.474842237807252 65.47500000000001 6.912213146686321 66.6 L 6.912213146686321 66.6 Q 7.414170518032846 67.7359375 7.966065559409403 68.83779296875 Q 8.5669189728486 69.9396484375 9.202890936090762 71.007421875 Q 9.876061853290224 72.0751953125 10.570386079457183 73.10888671875 Q 11.290602594702492 74.142578125 12.019343519627354 75.14218749999999 Q 12.763528334039185 76.141796875 13.505275806376034 77.10732421875 Q 14.253160431158266 78.07285156249999 14.989505280923849 79.004296875 Q 15.72399449036338 79.9357421875 16.4397726101783 80.83310546874999 Q 17.14709244511384 81.73046874999999 17.830433511722234 82.59374999999999 Q 18.50010103585854 83.45703124999999 19.142320908181055 84.28623046874998 Q 19.766975234848573 85.11542968749998 20.362350840395777 85.91054687499998 Q 20.937483514854517 86.70566406249998 21.482946505313365 87.46669921874998 Q 22.00656595488686 88.22773437499998 22.501347339287648 88.95468749999999 Q 22.973607514112913 89.681640625 23.418860527781895 90.37451171874999 Q 23.84167865837196 91.0673828125 24.240101839624394 91.726171875 Q 24.61678491709308 92.38496093750001 24.97226215656372 93.00966796875001 Q 25.307156655551108 93.634375 25.62442615043453 94.225 Q 25.921975907198426 94.81562499999998 26.20556960438157 95.3693359375 Q 26.47194910813987 95.92304687499998 26.728608168770677 96.43984375 Q 26.97003358564864 96.95664062499999 27.20590987633223 97.4365234375 Q 27.428546359494014 97.91640625 27.64964354698069 98.359375 Q 27.859440801963572 98.80234375 28.07147454936024 99.20839843750001 Q 28.27404446803073 99.61445312500001 28.48234151880869 99.98359375 Q 28.682872314837375 100.35273437499998 28.892302661567825 100.6849609375 Q 29.09550356436143 101.0171875 29.310439743975735 101.3125 Q 29.52051031356683 101.6078125 29.744808037368024 101.8662109375 Q 29.965426443396737 102.124609375 30.202421160228987 102.34609375000002 Q 30.436746233524026 102.56757812500001 30.689260757568203 102.75214843750001 Q 30.939943199941098 102.93671875000001 31.21030214696878 103.084375 Q 31.47950091771213 103.23203124999999 31.76954833814449 103.3427734375 Q 32.05894888418125 103.453515625 32.37006612561001 103.52734375 Q 32.68089775998995 103.601171875 33.014019216319895 103.63808593750001 Q 33.3470695622706 103.675 33.702694562270594 103.675 L 33.702694562270594 103.675 Q 34.12644456227059 103.675 34.558332822596476 103.63867187499999 Q 34.99015221360578 103.60234374999999 35.42983401533212 103.5296875 Q 35.86923922859391 103.45703125 36.315951851871205 103.348046875 Q 36.762038089351044 103.2390625 37.214591263475874 103.09375 Q 37.66602114904254 102.94843749999998 38.12278325257755 102.76679687499998 Q 38.577771771774266 102.58515624999998 39.03665318952106 102.36718749999997 Q 39.49295055582079 102.14921874999999 39.951386144861694 101.89492187499997 Q 40.406260788155365 101.64062499999999 40.86119397880233 101.34999999999998 Q 41.311932795547655 101.05624999999998 41.76093588865649 100.74570312499998 Q 42.20450143260355 100.43515624999998 42.645098726169664 100.10781249999997 Q 43.07959795603763 99.78046874999997 43.509827891531636 99.43632812499997 Q 43.933271240993506 99.09218749999997 44.35108299074201 98.73124999999999 Q 44.7613988054041 98.37031249999998 45.164669028743184 97.992578125 Q 45.55972219471323 97.61484374999998 45.94627623484402 97.22031249999998 Q 46.32389141831269 96.82578124999998 46.691529340506705 96.41445312499997 Q 47.04951921641565 96.00312499999998 47.396047036001384 95.57499999999997 L 47.396047036001384 95.57499999999997 L 47.573133362350376 97.40937499999998 L 47.55710979306915 99.24374999999998 L 47.34832078589498 101.07812499999997 L 46.95125466597652 102.91249999999998 L 46.3744471406091 104.74687499999999 L 45.630297807631166 106.58124999999998 L 44.7348036019905 108.41562499999998 L 43.707214910563636 110.24999999999999 L 42.56962174770835 112.084375 L 41.34647888750931 113.91874999999999 L 40.06408016092128 115.75312499999998 L 38.749993218813806 117.58749999999999 L 37.43246691178317 119.421875 L 36.13982402625341 121.25625 L 34.899852431183284 123.09062499999999 L 33.739207723862684 124.925 Q 33.034053218958206 125.396875 32.35185165743698 125.83671875 Q 31.676323506379614 126.2765625 31.022436902533062 126.68437499999999 Q 30.374793793528198 127.09218749999998 29.747308725695746 127.46796874999998 Q 29.12550095462854 127.84374999999997 28.522269183685438 128.18749999999997 Q 27.924060661340903 128.53125 27.342811383677727 128.84296874999998 Q 26.765885107091258 129.1546875 26.204320977949145 129.434375 Q 25.646368534378173 129.71406249999998 25.102246321108332 129.96171875 Q 24.561042488170084 130.20937499999997 24.03223960539549 130.42499999999995 Q 23.505618807173317 130.63749999999996 22.983681035024933 130.82343749999995 Q 22.463461719755152 131.00937499999998 21.946974126219164 131.16874999999996 Q 21.43176901571863 131.32812499999997 20.91945917225609 131.46093749999997 Q 20.40805113050964 131.59374999999997 19.898827305018603 131.7 Q 19.390186256995953 131.80624999999998 18.88315188240903 131.88593749999998 Q 18.376447697989253 131.965625 17.870912173279173 132.01874999999998 Q 17.365524134761593 132.07187499999998 16.861010513315158 132.0984375 Q 16.60876756778051 132.11171874999997 16.356712063268716 132.11835937499998 Q 16.104658871671578 132.125 15.85278387167158 132.125 L 15.85278387167158 132.125 Q 15.59184637167158 132.125 15.336261877480265 132.11691894531248 Q 15.080680808245484 132.108837890625 14.83046644061977 132.09267578125 Q 14.58026576072866 132.07651367187498 14.335459137694196 132.0522705078125 Q 14.090683266462085 132.02802734374998 13.851342393389164 131.99570312499998 Q 13.372824247597537 131.93105468749997 12.916392535886114 131.83408203124998 Q 12.460448822657783 131.737109375 12.027238132696839 131.6078125 Q 11.594887286902114 131.478515625 11.186119726094162 131.31689453125 Q 10.778679539453613 131.1552734375 10.395865381837867 130.961328125 Q 10.014932845802242 130.7673828125 9.659846323152687 130.54111328124998 Q 9.307270296969602 130.31484374999997 8.981917428042475 130.05624999999998 Q 8.659762720051154 129.79765625 8.36633966367865 129.50673828124997 Q 8.076840953025348 129.2158203125 7.817681247205507 128.892578125 Q 7.563185184566143 128.56933593749997 7.34069419417239 128.21376953125 Q 7.123588025955364 127.85820312499999 6.940162990396853 127.47031249999999 Q 6.762788177018033 127.08242187499998 6.620722453600163 126.66220703124999 Q 6.485272027451556 126.24199218749999 6.386642496225669 125.78945312499998 Q 6.295041359428903 125.33691406249999 6.241578521908575 124.85205078124999 Q 6.195346548497861 124.36718749999997 6.188287645564356 123.84999999999998 Q 6.188386355631887 123.33281249999999 6.223085305862657 122.78994140625 Q 6.264368937433574 122.24707031249999 6.34013616958627 121.67851562499997 Q 6.421573641384953 121.10996093749998 6.536902293173823 120.51572265624998 Q 6.6565989387797995 119.92148437499999 6.809049749482608 119.30156249999997 Q 6.9641356022698675 118.68164062499997 7.150229298544609 118.03603515624997 Q 7.336757536646754 117.39042968749997 7.551880844558013 116.71914062499997 Q 7.764742972155358 116.04785156249997 8.003075386371284 115.35087890624996 Q 8.235940684296981 114.65390624999998 8.490410024243715 113.93124999999998 Q 8.735697623066207 113.20859374999998 8.997973121200811 112.46025390624996 Q 9.24686564219445 111.71191406249997 9.507397741974719 110.93789062499997 Q 9.749905710017003 110.16386718749997 9.998021787964653 109.36416015624997 Q 10.223107828171004 108.56445312499997 10.447172573717234 107.73906249999997 Q 10.642943636635836 106.91367187499999 10.830591699981081 106.06259765624998 Q 10.984566094927667 105.21152343749998 11.12301272682865 104.33476562499997 Q 11.222466465976193 103.45800781249999 11.298899120196136 102.55556640625 Q 11.331292896114165 101.65312499999999 11.333343070921906 100.72499999999998 Q 11.286827053068825 99.79687499999997 11.201685627161151 98.85078124999998 Q 11.06508677188571 97.9046875 10.885544911803697 96.94062499999998 Q 10.652755776033743 95.97656249999999 10.373880628988347 94.99453125 Q 10.041272658318897 94.01249999999997 9.660854167190749 93.01249999999997 Q 9.227706340706197 92.01249999999999 8.746666253840814 90.99453124999997 Q 8.215544796154875 89.97656249999997 7.638283875351201 88.94062499999997 Q 7.015348292069923 87.90468749999997 6.350006151398302 86.85078124999997 Q 5.645215744590054 85.79687499999999 4.903817207365279 84.72499999999998 Q 4.131012276609724 83.65312499999999 3.329474879144896 82.56328124999999 Q 2.506308265121434 81.47343749999999 1.6642878070412925 80.365625 Q 0.8119855145290436 79.25781249999999 -0.0474594392735779 78.13203125 Q -0.9045249176529634 77.00625 -1.7554627973953283 75.86249999999998 Q -2.5903960452646775 74.71874999999999 -3.4047517034202843 73.55703124999998 Q -4.18895572521249 72.39531249999997 -4.9374352582588426 71.21562499999997 Q -5.64162102124618 70.03593749999999 -6.294816370617977 68.83828124999998 Q -6.890178980963728 67.64062499999997 -7.419824047544476 66.42499999999998 L -7.419824047544476 66.42499999999998 Q -7.879350952839743 65.209375 -8.248119669774551 64.01142578124998 Q -8.541088026187047 62.813476562499986 -8.74146705520876 61.63320312499998 Q -8.86356860363839 60.45292968749998 -8.894471034990346 59.29033203124998 Q -8.847612482553979 58.12773437499999 -8.713814335578906 56.98281249999998 Q -8.505454438191377 55.83789062499997 -8.21685138145187 54.71064453124997 Q -7.859185391522134 53.58339843749998 -7.429926412506735 52.47382812499998 Q -6.938973938941482 51.36425781249998 -6.386526055744595 50.27236328124998 Q -5.781174543360677 49.18046874999998 -5.12536776255432 48.10624999999998 Q -4.42641801826519 47.03203124999998 -3.6885132529792033 45.97548828124998 Q -2.9177663657997313 44.91894531249998 -2.1195815509643183 43.88007812499998 Q -1.2989987622440509 42.84121093749998 -0.46212049320678195 41.82001953124997 Q 0.38692040991870646 40.79882812499997 1.2418202614325264 39.79531249999998 Q 2.0991562024551493 38.79179687499998 2.9528868939113893 37.80595703124998 Q 3.8000797587514477 36.82011718749998 4.63537584937534 35.85195312499998 Q 5.456099435120683 34.88378906249998 6.257943315281086 33.93330078124998 Q 7.0382500621243915 32.98281249999998 7.794078258545192 32.04999999999998 Q 8.52344722764105 31.11562499999998 9.219389993777249 30.206249999999983 Q 9.883756215077222 29.296874999999982 10.512973674671825 28.41249999999998 Q 11.10781332825606 27.528124999999978 11.667264634992268 26.668749999999978 Q 12.190749897563443 25.809374999999978 12.679901112147004 24.97499999999998 Q 13.132569689910751 24.14062499999998 13.553047751513121 23.331249999999983 Q 13.937443075904596 22.52187499999998 14.292671250562995 21.73749999999998 Q 14.61297295982709 20.95312499999998 14.907805489737648 20.19374999999998 Q 15.16946634414542 19.43437499999998 15.409836527423941 18.69999999999998 Q 15.619238410456866 17.965624999999985 15.81183092747132 17.256249999999987 Q 15.97596925149601 16.546874999999986 16.12792437489683 15.862499999999988 Q 16.254127167503857 15.178124999999989 16.37278165294149 14.51874999999999 Q 16.468466932479238 13.85937499999999 16.5611339471044 13.22499999999999 Q 16.633606746571623 12.590624999999992 16.707395178487374 11.981249999999994 Q 16.76368375723966 11.371874999999996 16.825355658673438 10.787499999999996 Q 16.872085037993013 10.203124999999996 16.927948764683567 9.64375 Q 16.971248705015896 9.084375000000001 17.027084486356966 8.550000000000004 Q 17.072528348157938 8.015625000000004 17.137397543243907 7.514648437500004 Q 17.194091212589328 7.0136718750000036 17.27334777055933 6.546093750000004 Q 17.346307571276657 6.078515625000003 17.44444759292724 5.644335937500003 Q 17.537849989838325 5.2101562500000025 17.658571828649713 4.809375000000003 Q 17.775821422398224 4.408593750000002 17.922100765553743 4.041210937500002 Q 18.065910441762288 3.6738281250000018 18.240084267060404 3.3398437500000018 Q 18.412561859742446 3.0058593750000018 18.616416216801692 2.7052734375000016 Q 18.819153081813372 2.4046875000000014 19.054010641706267 2.137500000000001 Q 19.288168495386255 1.870312500000001 19.554972714233788 1.636523437500001 Q 19.821365945181547 1.4027343750000008 20.12075947219146 1.2023437500000007 Q 20.419930864336646 1.0019531250000004 20.75232648352243 0.8349609375000004 Q 21.08461489118377 0.6679687500000003 21.450257818263044 0.5343750000000003 Q 21.81585681197832 0.4007812500000002 22.21487758036558 0.3005859375000002 Q 22.613884445009052 0.2003906250000001 23.046341918878497 0.13359375000000007 Q 23.478796646108826 0.06679687500000003 23.944710908888567 0.03339843750000002 Q 24.410624999999996 0 24.909999999999997 0 L 24.909999999999997 0 Q 25.378749999999997 0 25.87743746985613 0.03398437499999962 Q 26.376124758849354 0.06796874999999925 26.904748070803397 0.1359374999999985 Q 27.433368489009595 0.20390624999999774 27.991915525772857 0.3058593749999966 Q 28.550447914155843 0.40781249999999547 29.138876542368706 0.543749999999994 Q 29.727258884646346 0.6796874999999925 30.345466610733926 0.8496093749999906 Q 30.654529526788668 0.9345703124999896 30.971025255365646 1.0280273437499885 Q 31.28747965546699 1.1214843749999877 31.611344280836683 1.2234374999999864 Q 31.935150400352125 1.3253906249999852 32.266337456735165 1.4358398437499842 Q 32.597443977967835 1.5462890624999828 32.93589424884323 1.6652343749999816 Q 33.27423627820031 1.7841796874999802 33.619875683008004 1.911621093749979 Q 33.9653725803988 2.0390624999999774 34.31810991748274 2.174999999999976 Q 34.67018214347651 2.3093749999999758 35.028443110960865 2.4536132812499756 Q 35.38647036569745 2.5978515624999754 35.75059518953491 2.7519531249999756 Q 36.114421304505704 2.906054687499976 36.484235474400855 3.070019531249976 Q 36.853673136535924 3.233984374999976 37.22896872072361 3.407812499999976 Q 37.60379567707254 3.581640624999976 37.984327438333345 3.765332031249976 Q 38.36428256879365 3.9490234374999766 38.7497639663834 4.142578124999977 Q 39.13454325776872 4.336132812499977 39.524642371673195 4.539550781249977 Q 39.913894832120164 4.742968749999977 40.308230252038236 4.956249999999978 Q 40.70155381095847 5.169531249999978 41.099690538896176 5.392675781249978 Q 41.49662798435982 5.615820312499978 41.89807340664839 5.8488281249999785 Q 42.298108419192516 6.08183593749998 42.70230841107103 6.32470703124998 Q 43.10486176039994 6.567578124999979 43.51119699395635 6.8203124999999805 Q 43.915622972758996 7.0730468749999815 44.32340550690987 7.335644531249982 Q 44.728988683960736 7.598242187499982 45.13745892315498 7.870703124999983 Q 45.54341130586249 8.143164062499984 45.95173542217763 8.425488281249985 Q 46.357194126646995 8.707812499999985 46.76446204774325 8.999999999999986 L 46.76446204774325 8.999999999999986 L 47.366574988530424 10.710937499999986 L 47.84144914209015 12.421874999999986 L 48.175233075885785 14.132812499999988 L 48.35671452536791 15.843749999999988 L 48.377530125376786 17.55468749999999 L 48.2323218513587 19.26562499999999 L 47.91883724407961 20.976562499999993 L 47.43797154307934 22.68749999999999 L 46.793750940737326 24.398437499999986 L 45.99325727019178 26.10937499999999 L 45.04649553586496 27.820312499999993 L 43.96620676450673 29.531249999999993 L 42.76762967747789 31.24218749999999 L 41.46821564232058 32.95312499999999 L 40.08730223559888 34.66406249999999 L 38.645751523191386 36.37499999999999 Q 38.59325172354594 35.94687499999999 38.524253879425856 35.53710937499999 Q 38.45241088563312 35.127343749999994 38.36397235359885 34.73593749999999 Q 38.27240308761492 34.34453124999999 38.1643076777467 33.97148437499999 Q 38.05291563889258 33.59843749999999 37.92520902566422 33.24374999999999 Q 37.79414302029066 32.889062499999994 37.64709241143265 32.55273437499999 Q 37.49670682943903 32.21640624999999 37.33076248859488 31.898437499999996 Q 37.1615796660549 31.580468749999998 36.977338741459114 31.280859375 Q 36.79001379480643 30.98125 36.58818676347466 30.700000000000003 Q 36.38347514679042 30.418750000000003 36.15129938511306 30.17265625 Q 35.9168031805272 29.926562499999996 35.656063857833615 29.715624999999996 Q 35.39355089635008 29.504687499999996 35.105912877884535 29.328906249999996 Q 34.817004007393194 29.153124999999992 34.50395019932807 29.012499999999992 Q 34.19006311885431 28.871874999999992 33.852845745677755 28.766406249999996 Q 33.51515114582328 28.660937499999992 33.154754512315705 28.59062499999999 Q 32.79414312639956 28.52031249999999 32.411256573358294 28.48515624999999 Q 32.02831593955116 28.44999999999999 31.623315939551166 28.44999999999999 L 31.623315939551166 28.44999999999999 Z" fill="black" stroke="black" />
				</svg>