<svg
					xmlns="http://www.w3.org/2000/svg" xmlns:xlink="http://www.w3.org/1999/xlink"
					style="
						overflow: visible;
						height: 100;
					"
					viewBox="-3.2209265559714453 0 83.019110098902 128.52499999999998"
				>
					<path d="M 59.260000000000005 0 L 60.096875000000004 0 L 60.93375 0 L 61.77062500000001 0 L 62.60750000000001 0 L 63.44437500000001 0 L 64.28125000000001 0 L 65.11812500000002 0 L 65.95500000000001 0 L 66.791875 0 L 67.62875000000001 0 L 68.46562500000002 0 L 69.30250000000001 0 L 70.139375 0 L 70.97625000000001 0 L 71.81312500000001 0 L 72.65 0 L 73.89172561149533 2.0082031249999996 L 75.09637194719697 4.016406249999999 L 76.2278147067075 6.024609375 L 77.25181494506559 8.032812499999999 L 78.13690089552509 10.041015624999998 L 78.85517852376037 12.04921875 L 79.38304993770339 14.057421875 L 79.70182115039358 16.065624999999997 L 79.79818354293056 18.073828125 L 79.66455662746861 20.082031249999996 L 79.29928328240494 22.090234375 L 78.70667243148603 24.0984375 L 77.89688806763363 26.106640624999997 L 76.88568747967769 28.11484375 L 75.69401542395696 30.123046875 L 74.34746469288305 32.131249999999994 L 72.87561697350492 34.139453124999996 L 71.31128097223734 36.14765625 L 69.68964742782336 38.15585937499999 L 68.04738277514089 40.16406249999999 L 66.42168480250913 42.172265624999994 L 64.84932462400653 44.18046875 L 63.36569964076829 46.188671875 L 62.00392188221057 48.196875 L 60.793965206920035 50.205078125 L 59.761893327018726 52.213281249999994 L 58.92918853820852 54.221484374999996 L 58.31219844402855 56.2296875 L 57.92171492392201 58.23789062499999 L 57.7626961887745 60.24609375 L 57.8341390823735 62.254296875 L 58.129104917659994 64.26249999999999 L 58.634898182360736 66.27070312499998 L 59.33339351144402 68.27890624999999 L 60.201502505235254 70.287109375 L 61.211768370308846 72.2953125 L 62.333073068201934 74.30351562499999 L 63.53143875936051 76.31171874999998 L 64.77090290115838 78.31992187499999 L 66.01444446187149 80.32812499999999 L 67.22493739600023 82.33632812499998 L 68.36610682421788 84.34453124999999 L 69.40346329156509 86.35273437500001 L 70.30519104210506 88.3609375 L 71.04296743255782 90.369140625 L 71.59269238094522 92.37734375 L 71.93510906332385 94.38554687499999 L 72.05629987258348 96.39375 L 71.94804486591093 98.401953125 L 71.60803346911746 100.41015625 L 71.03992398539282 102.418359375 L 70.25324937583994 104.42656249999999 L 69.26317173840931 106.43476562499998 L 68.09009180861894 108.44296874999999 L 66.75912353935492 110.451171875 L 65.29944729193035 112.459375 L 63.74355829694366 114.46757812499999 L 62.12642974079902 116.47578124999998 L 60.48461203256572 118.48398437499998 L 58.85529144952494 120.4921875 L 57.275332405954174 122.50039062500001 L 55.78032801148141 124.50859375 L 54.4036833718443 126.516796875 L 53.175755241609714 128.52499999999998 L 52.66263024160971 128.52499999999998 L 52.14950524160971 128.52499999999998 L 51.63638024160971 128.52499999999998 L 51.12325524160971 128.52499999999998 L 50.61013024160972 128.52499999999998 L 50.097005241609715 128.52499999999998 L 49.58388024160971 128.52499999999998 L 49.07075524160971 128.52499999999998 L 48.55763024160971 128.52499999999998 L 48.04450524160971 128.52499999999998 L 47.53138024160972 128.52499999999998 L 47.018255241609715 128.52499999999998 L 46.50513024160971 128.52499999999998 L 45.99200524160971 128.52499999999998 L 45.47888024160971 128.52499999999998 L 44.96575524160971 128.52499999999998 L 44.45263024160972 128.52499999999998 L 43.939505241609716 128.52499999999998 L 43.42638024160971 128.52499999999998 L 42.91325524160971 128.52499999999998 L 42.40013024160971 128.52499999999998 L 41.887005241609714 128.52499999999998 L 41.37388024160972 128.52499999999998 L 40.860755241609716 128.52499999999998 L 40.347630241609714 128.52499999999998 L 39.83450524160971 128.52499999999998 L 39.32138024160971 128.52499999999998 L 38.808255241609714 128.52499999999998 L 38.29513024160972 128.52499999999998 L 37.78200524160972 128.52499999999998 L 37.268880241609715 128.52499999999998 L 36.75575524160971 128.52499999999998 L 37.49080829988829 126.77578125 L 38.34152382575413 125.0265625 L 39.288276166189554 123.27734374999999 L 40.30956209385 121.52812499999999 L 41.382421207384326 119.77890625 L 42.482884820335485 118.0296875 L 43.586444562588156 116.28046874999998 L 44.66853153293887 114.53125 L 45.70499663508324 112.78203125000002 L 46.67258270617882 111.0328125 L 47.549379207601575 109.28359375 L 48.31525058843323 107.53437500000001 L 48.95222994693002 105.78515625 L 49.44487029366677 104.03593749999999 L 49.78054654896267 102.28671875 L 49.949702370367035 100.5375 L 49.94603698458755 98.78828124999998 L 49.76662837119044 97.0390625 L 49.41199038976125 95.28984374999999 L 48.88606273365781 93.54062499999998 L 48.196133906765176 91.79140625 L 47.35269872910077 90.04218749999998 L 46.36925315711615 88.29296874999997 L 45.262030430075235 86.54374999999999 L 44.04968370099721 84.79453124999999 L 42.7529213569097 83.04531249999998 L 41.39410215810857 81.29609374999998 L 39.996798111681976 79.54687499999999 L 38.58533362536981 77.79765624999999 L 37.184309951562724 76.04843749999999 L 35.81812421883072 74.29921875 L 34.51049245418858 72.54999999999998 Q 33.930508727735 71.73749999999998 33.020178177556055 70.38749999999999 Q 32.58832494037543 69.71249999999999 32.09436739060686 68.90312499999999 Q 31.6266932954751 68.09375 31.117924040603988 67.15 Q 30.649676142744347 66.20625 30.19396866294261 65.19375 Q 29.78996495517987 64.18124999999999 29.417116759557764 63.09999999999999 Q 29.107812215194038 62.01874999999998 28.84959912900894 60.868749999999984 Q 28.66657076305661 59.71874999999998 28.55472029455445 58.49999999999998 Q 28.525231741451535 57.28749999999998 28.584761245805282 56.08593749999998 Q 28.72528282548582 54.88437499999998 28.948322366420065 53.69374999999999 Q 29.245965206571864 52.503125 29.617114453781685 51.323437500000004 Q 30.05407730574611 50.143750000000004 30.553512620402508 48.97500000000001 Q 31.114032216306 47.800000000000004 31.677716662866732 46.7171875 Q 32.27927512877076 45.63437499999999 32.861420764697556 44.64375 Q 33.4671129605297 43.653125 34.036458097621974 42.7546875 Q 34.618592227529376 41.85625 35.15266149174252 41.050000000000004 L 35.15266149174252 41.050000000000004 Q 34.54609222752937 41.85625 33.87145809762197 42.7546875 Q 33.2096129605297 43.653125 32.49142076469756 44.64375 Q 31.79677512877077 45.63437499999999 31.062716662866737 46.7171875 Q 30.366532216306005 47.800000000000004 29.65351262040251 48.97500000000001 Q 29.001577305746107 50.143750000000004 28.402739453781688 51.323437500000004 Q 27.869715206571865 52.503125 27.400822366420066 53.69374999999999 Q 27.00653282548582 54.88437499999998 26.685386245805283 56.08593749999998 Q 26.445231741451536 57.28749999999998 26.284720294554447 58.49999999999998 Q 26.209070763056598 59.71874999999998 26.21334912900893 60.868749999999984 Q 26.292812215194033 62.01874999999998 26.432116759557765 63.09999999999999 Q 26.634964955179868 64.18124999999999 26.877718662942605 65.19375 Q 27.17217614274435 66.20625 27.487924040603986 67.15 Q 27.841693295475096 68.09375 28.17561739060686 68.90312499999999 Q 28.535824940375427 69.71249999999999 28.85517817755606 70.38749999999999 Q 29.540508727735006 71.73749999999998 29.980492454188578 72.54999999999998 L 29.980492454188578 72.54999999999998 L 30.979686718830724 74.29921875 L 32.03743495156273 76.04843749999999 L 33.130021125369815 77.79765624999999 L 34.233048111681974 79.54687499999999 L 35.32191465810857 81.29609374999998 L 36.3722963569097 83.04531249999998 L 37.36062120099721 84.79453124999999 L 38.26453043007523 86.54374999999999 L 39.06331565711614 88.29296874999997 L 39.73832372910077 90.04218749999998 L 40.27332140676518 91.79140625 L 40.654812733657806 93.54062499999998 L 40.872302889761244 95.28984374999999 L 40.91850337119044 97.0390625 L 40.78947448458755 98.78828124999998 L 40.48470237036703 100.5375 L 40.00710904896267 102.28671875 L 39.36299529366677 104.03593749999999 L 38.561917446930025 105.78515625 L 37.61650058843323 107.53437500000001 L 36.542191707601575 109.28359375 L 35.35695770617882 111.0328125 L 34.08093413508323 112.78203125000002 L 32.73603153293887 114.53125 L 31.345507062588155 116.28046874999998 L 29.93350982033548 118.0296875 L 28.524608707384317 119.77890625 L 27.14331209384999 121.52812499999999 L 25.813588666189546 123.27734374999999 L 24.558398825754125 125.0265625 L 23.39924579988829 126.77578125 L 22.355755241609703 128.52499999999998 L 21.842630241609704 128.52499999999998 L 21.329505241609706 128.52499999999998 L 20.816380241609703 128.52499999999998 L 20.303255241609705 128.52499999999998 L 19.790130241609706 128.52499999999998 L 19.277005241609704 128.52499999999998 L 18.763880241609705 128.52499999999998 L 18.250755241609706 128.52499999999998 L 17.737630241609704 128.52499999999998 L 17.224505241609705 128.52499999999998 L 16.711380241609707 128.52499999999998 L 16.198255241609704 128.52499999999998 L 15.685130241609706 128.52499999999998 L 15.172005241609707 128.52499999999998 L 14.658880241609705 128.52499999999998 L 14.145755241609706 128.52499999999998 L 13.632630241609707 128.52499999999998 L 13.119505241609705 128.52499999999998 L 12.606380241609706 128.52499999999998 L 12.093255241609707 128.52499999999998 L 11.580130241609705 128.52499999999998 L 11.067005241609706 128.52499999999998 L 10.553880241609708 128.52499999999998 L 10.040755241609705 128.52499999999998 L 9.527630241609707 128.52499999999998 L 9.014505241609708 128.52499999999998 L 8.501380241609706 128.52499999999998 L 7.988255241609708 128.52499999999998 L 7.475130241609707 128.52499999999998 L 6.962005241609707 128.52499999999998 L 6.448880241609708 128.52499999999998 L 5.935755241609708 128.52499999999998 L 6.766652121844301 126.516796875 L 7.746265511481403 124.50859375 L 8.844238655954168 122.50039062500001 L 10.027166449524941 120.4921875 L 11.259455782565725 118.48398437499998 L 12.504242240799025 116.47578124999998 L 13.724339546943662 114.46757812499999 L 14.883197291930358 112.459375 L 15.945842289354912 110.451171875 L 16.87977930861894 108.44296874999999 L 17.655827988409314 106.43476562499998 L 18.248874375839943 104.42656249999999 L 18.638517735392817 102.418359375 L 18.809595969117453 100.41015625 L 18.752576115910927 98.401953125 L 18.463799872583483 96.39375 L 17.94557781332385 94.38554687499999 L 17.206129880945227 92.37734375 L 16.25937368255781 90.369140625 L 15.12456604210507 88.3609375 L 13.825807041565088 86.35273437500001 L 12.391419324217871 84.34453124999999 L 10.85321864600023 82.33632812499998 L 9.245694461871489 80.32812499999999 L 7.60512165115839 78.31992187499999 L 5.968626259360519 76.31171874999998 L 4.373229318201943 74.30351562499999 L 2.8548933703088526 72.2953125 L 1.447596255235263 70.287109375 L 0.18245601144402812 68.27890624999999 L -0.9130705676392612 66.27070312499998 L -1.8158950823400053 64.26249999999999 L -2.507892167626501 62.254296875 L -2.9763663112255028 60.24609375 L -3.2143788260779935 58.23789062499999 L -3.2209265559714453 56.2296875 L -3.0009677117914784 54.221484374999996 L -2.565294172981279 52.213281249999994 L -1.9302535430799717 50.205078125 L -1.1173281177894374 48.196875 L -0.15258160923171804 46.188671875 L 0.9340121240065136 44.18046875 L 2.1093410525091163 42.172265624999994 L 3.3380077751408845 40.16406249999999 L 4.583241177823352 38.15585937499999 L 5.807843472237323 36.14765625 L 6.9751482235049 34.139453124999996 L 8.049964692883048 32.131249999999994 L 8.999484173956965 30.123046875 L 9.794124979677694 28.11484375 L 10.40829431763363 26.106640624999997 L 10.821047431486027 24.0984375 L 11.016627032404953 22.090234375 L 10.984869127468624 20.082031249999996 L 10.721464792930558 18.073828125 L 10.22807115039359 16.065624999999997 L 9.512268687703394 14.057421875 L 8.587366023760374 12.04921875 L 7.472057145525085 10.041015624999998 L 6.189939945065583 8.032812499999999 L 4.768908456707509 6.024609375 L 3.240434447196964 4.016406249999999 L 1.6387568614953243 2.0082031249999996 L 0 0 L 0.836875 0 L 1.67375 0 L 2.510625 0 L 3.3475 0 L 4.184375 0 L 5.02125 0 L 5.858125 0 L 6.695 0 L 7.531875 0 L 8.36875 0 L 9.205625000000001 0 L 10.0425 0 L 10.879375 0 L 11.71625 0 L 12.553125000000001 0 L 13.39 0 L 15.009483626297053 2.0140625 L 16.59156388032622 4.028125 L 18.09980632973627 6.042187500000001 L 19.49968932147673 8.05625 L 20.759498270349987 10.0703125 L 21.851147230053556 12.084375000000001 L 22.750906463792518 14.098437500000001 L 23.440017166637396 16.1125 L 23.905177415153346 18.126562500000002 L 24.13888675570338 20.140625 L 24.139640504814352 22.1546875 L 23.911968728225972 24.168750000000003 L 23.46631888886461 26.182812499999997 L 22.81878520376376 28.196875000000002 L 21.99069172098021 30.210937500000004 L 21.008039916960435 32.225 L 19.900835124429513 34.2390625 L 18.702309239788132 36.253125000000004 L 17.448059845898204 38.267187500000006 L 16.175128051409086 40.28125 L 14.921038935333794 42.29531250000001 L 13.722829454301099 44.309375 L 12.616088994690392 46.323437500000004 L 11.634037424289078 48.337500000000006 L 10.806664526681145 50.3515625 L 10.159953111447024 52.365624999999994 L 9.715205925620413 54.379687499999996 L 9.488493802860857 56.393750000000004 L 9.490239346119694 58.407812500000006 L 9.724946928561847 60.42187500000001 L 10.191086007109629 62.43593750000001 L 10.881130771388621 64.45 Q 11.121974559791273 65.03125 11.438096041041515 65.74375 Q 11.779183481997592 66.45624999999998 12.212117943061848 67.29999999999998 Q 12.677140739807015 68.14374999999998 13.250399390013298 69.11874999999998 Q 13.861110253780833 70.09374999999997 14.593820185805598 71.19999999999997 Q 15.361606225691617 72.29999999999998 16.192065837677948 73.440625 Q 17.052234269921428 74.58125 17.966744375990363 75.7625 Q 18.898952274237026 76.94375 19.873122472139492 78.165625 Q 20.361697044724878 78.7765625 20.85778503016864 79.39765624999998 Q 21.35234965496919 80.01874999999998 21.852126088142533 80.64999999999998 Q 22.34585087482525 81.27812499999997 22.831301818923727 81.90234375 Q 23.310789125648903 82.5265625 23.77999195427587 83.146875 Q 24.241211329056576 83.7671875 24.690296183125447 84.38359375000002 Q 25.129520160247477 85 25.554933466678005 85.61250000000001 Q 26.370133652256413 86.83750000000002 27.121475804451944 88.04687500000001 Q 27.814790538680207 89.25625000000002 28.43544585734411 90.45000000000002 Q 28.98925090670224 91.64375000000001 29.42957166599996 92.74218750000001 Q 29.806895681984017 93.840625 30.08733049244207 94.84375 Q 30.3118805533164 95.846875 30.458233336695294 96.75468749999999 Q 30.557443333249246 97.66249999999998 30.597404156215468 98.47499999999997 L 30.597404156215468 98.47499999999997 Q 30.63220526030677 97.79999999999998 30.64204104709695 97.09960937499997 Q 30.623733145107778 96.39921874999996 30.576658486319722 95.67343749999995 Q 30.499856343949986 94.94765624999997 30.390836318055314 94.19648437499995 Q 30.250956454600654 93.44531249999996 30.075917702350196 92.66874999999997 Q 29.869469055223803 91.89218749999998 29.625603213054006 91.09023437499998 Q 29.350495977005764 90.28828124999997 29.036576467123616 89.46093749999997 Q 28.692439143376973 88.63359374999999 28.309139752560203 87.78085937499998 Q 27.897631477919525 86.92812499999997 27.44783212843363 86.04999999999997 Q 26.97168433381814 85.17187499999997 26.474189652447112 84.29257812499998 Q 25.95692344105154 83.41328124999997 25.42381183061322 82.53281249999998 Q 24.876683436357084 81.65234374999997 24.319600103167218 80.77070312499998 Q 23.75457192963764 79.88906249999998 23.185754306108656 79.00624999999997 Q 22.615262672812307 78.12343749999997 22.047301282520216 77.23945312499997 Q 21.484011880133274 76.35546874999997 20.929601245654617 75.47031249999998 Q 20.38615704924323 74.58515624999998 19.85784152424269 73.69882812499998 Q 19.346608148446915 72.81249999999999 18.856527742894862 71.92499999999998 Q 18.387484750357547 71.034375 17.952430817504272 70.159375 Q 17.544766224424208 69.284375 17.17397315818824 68.425 Q 16.833954559346726 67.565625 16.532608484379843 66.721875 Q 16.26449568071694 65.878125 16.03583826235827 65.05 Q 15.841991640726388 64.221875 15.687448736958533 63.409375 Q 15.568475945362303 62.596875 15.487819301552424 61.8 Q 15.44275049253282 61.003125 15.434283055528146 60.221875 Q 15.460765536032893 59.440625 15.521521652817935 58.675 Q 15.615846852972686 57.912499999999994 15.737419005716536 57.18320312499999 Q 15.889328362373021 56.45390625 16.062479511167062 55.7578125 Q 16.262653681443275 55.06171875 16.478147549532807 54.398828124999994 Q 16.717319877866977 53.73593749999999 16.96612701656382 53.10625 Q 17.524463431078424 51.846875 18.09002488412085 50.720312500000006 Q 18.713531505814018 49.59375 19.30894904171798 48.599999999999994 L 19.30894904171798 48.599999999999994 L 20.296363313935736 47.08124999999999 L 21.361408202093404 45.56249999999999 L 22.49046779080604 44.04375 L 23.668982325631973 42.52499999999999 L 24.881662883527834 41.006249999999994 L 26.112716794237393 39.4875 L 27.346080488978984 37.96874999999999 L 28.5656563432874 36.449999999999996 L 29.755550021976248 34.93125 L 30.9003048267831 33.412499999999994 L 31.985129591452644 31.893749999999997 L 32.996116764150386 30.374999999999996 L 33.92044746177813 28.856249999999996 L 34.7465804728503 27.3375 L 35.46442242225403 25.818749999999998 L 36.065476588967066 24.299999999999997 L 36.5429681825502 22.781249999999996 L 36.89194423132555 21.262499999999996 L 37.10934660947932 19.74375 L 37.1940571263703 18.224999999999998 L 37.14691401324299 16.706249999999997 L 36.9706995642634 15.187499999999998 L 36.67009911409962 13.66875 L 36.251631956885454 12.149999999999999 L 35.72355522510493 10.631249999999998 L 35.09574214561683 9.112499999999999 L 34.37953646782438 7.593749999999999 L 33.58758521031558 6.074999999999999 L 32.733652191974166 4.5562499999999995 L 31.8324150968769 3.0374999999999996 L 30.89924906507234 1.5187499999999998 L 29.950000000000003 0 L 30.755625000000002 0 L 31.56125 0 L 32.366875 0 L 33.1725 0 L 33.978125 0 L 34.78375 0 L 35.589375000000004 0 L 36.395 0 L 37.200625 0 L 38.00625000000001 0 L 38.81187500000001 0 L 39.61750000000001 0 L 40.423125000000006 0 L 41.228750000000005 0 L 42.034375000000004 0 L 42.84 0 L 44.067999065072335 1.5187499999999998 L 45.2799150968769 3.0374999999999996 L 46.459902191974166 4.5562499999999995 L 47.592585210315576 6.074999999999999 L 48.66328646782438 7.593749999999999 L 49.65824214561683 9.112499999999999 L 50.564805225104934 10.631249999999998 L 51.37163195688545 12.149999999999999 L 52.06884911409961 13.66875 L 52.64819956426339 15.187499999999998 L 53.10316401324299 16.706249999999997 L 53.429057126370296 18.224999999999998 L 53.62309660947932 19.74375 L 53.68444423132556 21.262499999999996 L 53.614218182550196 22.781249999999996 L 53.41547658896707 24.299999999999997 L 53.093172422254035 25.818749999999998 L 52.654080472850296 27.3375 L 52.10669746177813 28.856249999999996 L 51.4611167641504 30.374999999999996 L 50.728879591452646 31.893749999999997 L 49.92280482678311 33.412499999999994 L 49.05680002197626 34.93125 L 48.145656343287406 36.449999999999996 L 47.204830488978985 37.96874999999999 L 46.250216794237396 39.4875 L 45.29791288352784 41.006249999999994 L 44.36398232563197 42.52499999999999 L 43.464217790806046 44.04375 L 42.61390820209341 45.56249999999999 L 41.82761331393574 47.08124999999999 L 41.11894904171798 48.599999999999994 Q 40.72798841950966 49.543749999999996 40.31760947954757 50.640625 Q 39.96189392610432 51.7375 39.62474486362768 52.9875 Q 39.48593373442261 53.6125 39.360429379827984 54.27578125 Q 39.25854228043415 54.939062500000006 39.17638112510875 55.640625 Q 39.12160175371042 56.34218750000001 39.09333717001327 57.08203125 Q 39.09625728416037 57.82187499999999 39.13267656796144 58.599999999999994 Q 39.2038648992216 59.375 39.31136445860186 60.165625 Q 39.454674156139546 60.95625 39.63666099217043 61.762499999999996 Q 39.85510326865868 62.56875 40.11394795022871 63.39062500000001 Q 40.40920856148767 64.2125 40.745838262358276 65.05 Q 41.11807109374154 65.88749999999999 41.53176945539048 66.740625 Q 41.9794065845758 67.59375 42.46763482453047 68.46249999999999 Q 42.98722226121982 69.33125 43.54547115525668 70.215625 Q 44.131540139368084 71.1 44.75322305194788 72 Q 45.39695718748837 72.89999999999999 46.05825974697983 73.797265625 Q 46.736729935091496 74.69453125 47.42638383466492 75.5890625 Q 48.126812557250304 76.48359375 48.83188800081064 77.37539062500001 Q 49.54122279741474 78.2671875 50.24865236177542 79.15625000000001 Q 50.95383853878906 80.04531250000001 51.65068650556277 80.93164062500001 Q 52.33893255156872 81.81796875000003 53.01265428306965 82.70156250000002 Q 53.671684752023864 83.58515625000003 54.310371100306654 84.46601562500004 Q 54.928662185141086 85.34687500000003 55.52126442556796 86.22500000000002 Q 56.087007985902936 87.103125 56.60552661341954 87.953125 Q 57.0955959408743 88.803125 57.538066443058995 89.62499999999999 Q 57.95039199775958 90.44687499999998 58.31600141008007 91.24062499999997 Q 58.650772956375924 92.03437499999998 58.94076065203239 92.79999999999998 Q 59.20006730642501 93.56562499999997 59.4173636266837 94.30312499999997 Q 59.60483037934957 95.04062499999996 59.75370037457925 95.74999999999996 Q 59.87413656935084 96.45937499999995 59.95984220913399 97.14062499999996 Q 60.01891362500618 97.82187499999995 60.04740415621547 98.47499999999997 L 60.04740415621547 98.47499999999997 Q 60.08291601447896 97.34999999999998 60.04875529034884 96.08906249999997 Q 59.9977343850399 95.45859374999998 59.92254350351278 94.79414062499998 Q 59.82285248330898 94.12968749999997 59.69471105032794 93.43124999999999 Q 59.54047725828316 92.7328125 59.35388893265417 92.000390625 Q 59.140102803131555 91.26796875 58.89064328886324 90.50156249999999 Q 58.61353623739602 89.73515624999997 58.29825494608048 88.93476562499998 Q 57.955713587509 88.13437499999998 57.57356526334405 87.29999999999997 Q 57.16613088324263 86.46874999999997 56.737645715995555 85.64140624999996 Q 56.28795438610945 84.81406249999995 55.82200630322265 83.99062499999997 Q 55.33956803135409 83.16718749999995 54.84584423021481 82.34765624999996 Q 54.34052120886159 81.52812499999996 53.82896730911188 80.71249999999998 Q 53.310789003333376 79.89687499999997 52.7914264416915 79.08515624999997 Q 52.27040925150297 78.27343749999997 51.753158816463085 77.46562499999997 Q 51.23913337931158 76.65781249999998 50.73364779026936 75.85390624999997 Q 50.236096672241835 75.04999999999997 49.75160477387344 74.24999999999997 Q 49.280329098376995 73.45312499999997 48.85160849422637 72.70507812499997 Q 48.437388118092564 71.95703124999997 48.065401343732184 71.25781249999997 Q 47.70890371035346 70.55859374999997 47.39296261275511 69.90820312499997 Q 47.09253734708351 69.25781249999999 46.8299808976134 68.65624999999997 Q 46.34999767908363 67.45312499999999 46.00033807661173 66.44531249999999 Q 45.698830267004965 65.43749999999999 45.49600529435322 64.62499999999999 L 45.49600529435322 64.62499999999999 L 45.139341570088725 62.605468749999986 L 45.00689160614285 60.585937499999986 L 45.10673640950199 58.566406249999986 L 45.44090670438996 56.546874999999986 L 46.00533004060828 54.527343749999986 L 46.789936863403945 52.50781249999999 L 47.77892278219917 50.48828124999999 L 48.95116020720715 48.468749999999986 L 50.28074863256503 46.449218749999986 L 51.73768923346738 44.429687499999986 L 53.288666206937386 42.41015624999999 L 54.89791450565837 40.39062499999999 L 56.52815136411959 38.371093749999986 L 58.14154735481409 36.35156249999999 L 59.700711682637746 34.33203124999999 L 61.16966605479492 32.31249999999999 L 62.51478176107466 30.292968749999993 L 63.705655557574225 28.273437499999993 L 64.71590154085375 26.253906249999996 L 65.52383838759567 24.234374999999993 L 66.11305406012205 22.214843749999993 L 66.47283326961211 20.195312499999996 L 66.59843656343604 18.175781249999996 L 66.49122376757632 16.156249999999996 L 66.1586185689909 14.136718749999996 L 65.61391516039593 12.117187499999996 L 64.87593198354195 10.097656249999998 L 63.9685215894874 8.078124999999998 L 62.919949381907465 6.058593749999998 L 61.76215742451154 4.039062499999999 L 60.52993248722999 2.0195312499999996 L 59.260000000000005 0 L 59.260000000000005 0 Z" fill="black" stroke="black" />
				</svg>