<svg
					xmlns="http://www.w3.org/2000/svg" xmlns:xlink="http://www.w3.org/1999/xlink"
					style="
						overflow: visible;
						height: 100;
					"
					viewBox="-6.8042447583902925 0 61.92564714171341 128.52499999999998"
				>
					<path d="M 26.432967169894432 65.52499999999998 L 27.7891393635334 67.49374999999999 L 29.31755039478403 69.46249999999998 L 30.99390232622389 71.43124999999998 L 32.79023494149168 73.39999999999998 L 34.675617900812675 75.36874999999998 L 36.61691642196846 77.33749999999998 L 38.57961153226866 79.30624999999998 L 40.52865458617588 81.27499999999998 L 42.429334894989154 83.24374999999998 L 44.24813899040127 85.21249999999998 L 45.953580250849626 87.18124999999999 L 47.516978353248945 89.14999999999999 L 48.91316925476825 91.11874999999999 L 50.12112812904363 93.0875 L 51.12448983603264 95.05624999999998 L 51.911954041272324 97.02499999999999 L 52.477564955808134 98.99374999999999 L 52.82085877182817 100.96249999999998 L 52.946875144231726 102.93124999999998 L 52.86603243390565 104.89999999999998 L 52.59386980106298 106.86874999999999 L 52.150662533126464 108.83749999999999 L 51.560920129720586 110.80624999999999 L 50.852779569684536 112.775 L 50.057308779789224 114.74375 L 49.207737547799624 116.7125 L 48.338634918639535 118.68124999999999 L 47.48505343722778 120.64999999999999 L 46.681661422265634 122.61875 L 45.96188475154924 124.58749999999998 L 45.357079403923144 126.55624999999999 L 44.89575524160971 128.52499999999998 L 44.393880241609715 128.52499999999998 L 43.892005241609716 128.52499999999998 L 43.39013024160972 128.52499999999998 L 42.88825524160971 128.52499999999998 L 42.38638024160971 128.52499999999998 L 41.88450524160971 128.52499999999998 L 41.38263024160971 128.52499999999998 L 40.88075524160971 128.52499999999998 L 40.378880241609714 128.52499999999998 L 39.877005241609716 128.52499999999998 L 39.37513024160972 128.52499999999998 L 38.87325524160971 128.52499999999998 L 38.37138024160971 128.52499999999998 L 37.86950524160971 128.52499999999998 L 37.36763024160971 128.52499999999998 L 36.86575524160971 128.52499999999998 L 36.36388024160971 128.52499999999998 L 35.862005241609715 128.52499999999998 L 35.36013024160972 128.52499999999998 L 34.85825524160971 128.52499999999998 L 34.356380241609706 128.52499999999998 L 33.85450524160971 128.52499999999998 L 33.35263024160971 128.52499999999998 L 32.85075524160971 128.52499999999998 L 32.34888024160971 128.52499999999998 L 31.84700524160971 128.52499999999998 L 31.345130241609713 128.52499999999998 L 30.843255241609707 128.52499999999998 L 30.341380241609702 128.52499999999998 L 29.839505241609704 128.52499999999998 L 29.337630241609705 128.52499999999998 L 28.835755241609707 128.52499999999998 L 29.14780619451284 127.27031249999999 L 29.52206617481215 126.015625 L 29.951621786508774 124.76093750000001 L 30.429002989932396 123.50625 L 30.946258300273204 122.25156249999998 L 31.495034832670243 120.99687499999999 L 32.066662388067385 119.74218749999999 L 32.65224073337111 118.48749999999998 L 33.2427291972884 117.2328125 L 33.82903767991165 115.978125 L 34.402118159885866 114.7234375 L 34.953055777984325 113.46874999999999 L 35.473158580183096 112.21406249999998 L 35.95404501681927 110.95937499999998 L 36.38772831700649 109.70468749999998 L 36.766696888936956 108.44999999999999 L 37.08398993670577 107.1953125 L 37.33326753244664 105.940625 L 37.50887443838499 104.6859375 L 37.60589703633205 103.43124999999999 L 37.62021279152851 102.17656249999997 L 37.54853175290096 100.92187499999997 L 37.38842967196123 99.66718749999998 L 37.13837240695075 98.4125 L 36.79773136656165 97.15781249999999 L 36.36678983776695 95.90312499999999 L 35.84674013406011 94.6484375 L 35.239671592811284 93.39374999999998 L 34.54854954256738 92.13906249999997 L 33.77718545202538 90.88437499999998 L 32.93019856117971 89.62968749999999 L 32.012969380890944 88.37499999999999 L 32.307073561179706 89.62968749999999 L 32.53093545202538 90.88437499999998 L 32.67917454256738 92.13906249999997 L 32.747171592811284 93.39374999999998 L 32.731115134060104 94.6484375 L 32.62803983776695 95.90312499999999 L 32.43585636656165 97.15781249999999 L 32.15337240695075 98.4125 L 31.780304671961225 99.66718749999998 L 31.317281752900968 100.92187499999997 L 30.76583779152851 102.17656249999997 L 30.128397036332053 103.43124999999999 L 29.408249438384992 104.6859375 L 28.609517532446638 105.940625 L 27.737114936705773 107.1953125 L 26.796696888936957 108.44999999999999 L 25.794603317006487 109.70468749999998 L 24.737795016819273 110.95937499999998 L 23.6337835801831 112.21406249999998 L 22.490555777984326 113.46874999999999 L 21.31649315988587 114.7234375 L 20.120287679911655 115.978125 L 18.9108541972884 117.2328125 L 17.69724073337111 118.48749999999998 L 16.488537388067382 119.74218749999999 L 15.293784832670243 120.99687499999999 L 14.121883300273208 122.25156249999998 L 12.981502989932396 123.50625 L 11.880996786508774 124.76093750000001 L 10.828316174812148 126.015625 L 9.830931194512837 127.27031249999999 L 8.895755241609706 128.52499999999998 L 7.9145052416097075 128.52499999999998 L 6.933255241609706 128.52499999999998 L 5.952005241609705 128.52499999999998 L 4.970755241609706 128.52499999999998 L 3.9895052416097068 128.52499999999998 L 3.0082552416097075 128.52499999999998 L 2.027005241609708 128.52499999999998 L 1.0457552416097071 128.52499999999998 L 0.06450524160970694 128.52499999999998 L -0.9167447583902932 128.52499999999998 L -1.8979947583902925 128.52499999999998 L -2.8792447583902927 128.52499999999998 L -3.860494758390293 128.52499999999998 L -4.841744758390293 128.52499999999998 L -5.822994758390292 128.52499999999998 L -6.8042447583902925 128.52499999999998 L -5.216001368915989 126.471875 L -3.4729976559266595 124.41874999999999 L -1.6077920764653049 122.365625 L 0.34376754787649766 120.3125 L 2.3435089634665816 118.259375 L 4.3519629849597745 116.20625000000001 L 6.329425905740364 114.15312499999999 L 8.2370282210829 112.1 L 10.03778089671223 110.046875 L 11.697571019864576 107.99374999999998 L 13.186080032446636 105.94062499999998 L 14.477599829782982 103.88749999999999 L 15.55172475764165 101.83437499999998 L 16.393900880731977 99.78124999999999 L 16.995817737758436 97.72812499999999 L 17.355632037977518 95.67499999999998 L 17.47801727791304 93.62187499999999 L 17.374037942673816 91.56875 L 17.060851678055318 89.515625 L 16.561247450197566 87.4625 L 15.903032124370867 85.409375 L 15.11828197463383 83.35625 L 14.242479271826777 81.303125 L 13.313557190763694 79.24999999999999 L 12.370878745300448 77.19687499999999 L 11.454177235759738 75.14375 L 10.602486729182703 73.09062499999999 L 9.85309136116848 71.0375 L 9.240521741433266 68.98437499999999 L 8.795625477307858 66.93124999999998 L 8.544736834325594 64.87812499999998 L 8.508967884533268 62.82499999999999 L 7.678183428923154 60.86171874999999 L 7.066251188791236 58.898437499999986 L 6.675880548742551 56.93515624999999 L 6.504326499035953 54.97187499999999 L 6.543457212120877 53.00859374999999 L 6.779954231633086 51.045312499999994 L 7.195640345604947 49.08203124999999 L 7.767927072321041 47.11874999999999 L 8.47037074263077 45.15546874999999 L 9.273323489106465 43.19218749999999 L 10.144663116022704 41.228906249999994 L 11.050583882247796 39.26562499999999 L 11.956428729586719 37.30234374999999 L 12.827542468812457 35.3390625 L 13.630124919687182 33.375781249999996 L 14.332063002407331 31.412499999999994 L 14.903721296079688 29.449218749999993 L 15.318671602292447 27.485937499999995 L 15.554343553415302 25.522656249999997 L 15.592580248980248 23.559374999999996 L 15.420085241509533 21.596093749999994 L 15.028749867912081 19.632812499999996 L 14.41585286821752 17.66953125 L 13.584127377442059 15.706249999999997 L 12.541693641383226 13.742968749999998 L 11.30185911274323 11.779687499999998 L 9.882790848806412 9.816406249999998 L 8.307068275571167 7.853124999999999 L 6.601127328370645 5.889843749999999 L 4.794609653105423 3.9265624999999993 L 2.919632889425478 1.9632812499999996 L 1.0099999999999998 0 L 1.9731249999999998 0 L 2.93625 0 L 3.899375 0 L 4.8625 0 L 5.8256250000000005 0 L 6.78875 0 L 7.751875 0 L 8.715 0 L 9.678125 0 L 10.64125 0 L 11.604375 0 L 12.567499999999999 0 L 13.530624999999999 0 L 14.493749999999999 0 L 15.456874999999998 0 L 16.419999999999998 0 L 17.603775899354744 1.2429687499999997 L 18.77872467366427 2.4859374999999995 L 19.93610640698071 3.728906249999999 L 21.06735473995361 4.971874999999999 L 22.16416150264785 6.214843749999998 L 23.218558796534857 7.457812499999998 L 24.222997714714076 8.700781249999999 L 25.17042292263467 9.943749999999998 L 26.054342362484547 11.186718749999997 L 26.86889139259002 12.429687499999996 L 27.608890728150108 13.672656249999998 L 28.269897610869915 14.915624999999997 L 28.848249701953925 16.158593749999998 L 29.341101264810895 17.401562499999997 L 29.746451279997096 18.644531249999996 L 30.06316321463141 19.887499999999996 L 30.29097625096707 21.13046874999999 L 30.430507863185362 22.373437499999994 L 30.483247716953436 23.616406249999997 L 30.451542952016606 24.859374999999993 L 30.33857499322828 26.102343749999992 L 30.148328119116925 27.345312499999995 L 29.88555009852231 28.588281249999994 L 29.555705284198158 29.831249999999994 L 29.16492062680097 31.074218749999993 L 28.719925142629158 32.317187499999996 L 28.22798343315124 33.56015624999999 L 27.696823913128483 34.803124999999994 L 27.134562456414372 36.04609374999999 L 26.5496222137856 37.28906249999999 L 25.950650394977817 38.532031249999996 L 25.346432837092497 39.77499999999999 L 26.520025394977818 38.532031249999996 L 27.688372213785602 37.28906249999999 L 28.842687456414374 36.04609374999999 L 29.974323913128487 34.803124999999994 L 31.074858433151245 33.56015624999999 L 32.136175142629156 32.317187499999996 L 33.15054562680097 31.074218749999993 L 34.11070528419816 29.831249999999994 L 35.00992509852232 28.588281249999994 L 35.842078119116934 27.345312499999995 L 36.60169999322829 26.102343749999992 L 37.284042952016605 24.859374999999993 L 37.88512271695343 23.616406249999997 L 38.40175786318536 22.373437499999994 L 38.831601250967076 21.13046874999999 L 39.173163214631415 19.887499999999996 L 39.425826279997096 18.644531249999996 L 39.589851264810896 17.401562499999997 L 39.66637470195392 16.158593749999998 L 39.657397610869914 14.915624999999997 L 39.56576572815011 13.672656249999998 L 39.39514139259002 12.429687499999996 L 39.149967362484546 11.186718749999997 L 38.83542292263467 9.943749999999998 L 38.457372714714076 8.700781249999999 L 38.022308796534865 7.457812499999998 L 37.53728650264785 6.214843749999998 L 37.00985473995361 4.971874999999999 L 36.447981406980716 3.728906249999999 L 35.85997467366427 2.4859374999999995 L 35.25440089935474 1.2429687499999997 L 34.64 0 L 35.63 0 L 36.620000000000005 0 L 37.61 0 L 38.6 0 L 39.59 0 L 40.58 0 L 41.57 0 L 42.56 0 L 43.55 0 L 44.54 0 L 45.53 0 L 46.519999999999996 0 L 47.51 0 L 48.5 0 L 49.489999999999995 0 L 50.48 0 L 51.43897759292288 2.0476562499999993 L 52.35865739435178 4.095312499999999 L 53.20079379469879 6.142968749999999 L 53.92921737645833 8.190624999999997 L 54.5108033352101 10.238281249999996 L 54.916358382382015 12.285937499999998 L 55.12140238332312 14.333593749999999 L 55.1068238026546 16.381249999999994 L 54.85939140762399 18.428906249999994 L 54.3721085288198 20.476562499999993 L 53.64440039306423 22.524218749999996 L 52.682129512724245 24.571874999999995 L 51.49743871939863 26.619531249999994 L 50.10842604468839 28.667187499999997 L 48.5386601529816 30.714843749999993 L 46.81654930033688 32.76249999999999 L 44.97458071532725 34.81015624999999 L 43.048450767103375 36.85781249999999 L 41.07610921006221 38.90546874999999 L 39.09674309506951 40.953124999999986 L 37.14972755258773 43.00078124999999 L 35.27357154005142 45.04843749999999 L 33.504886780662765 47.096093749999994 L 31.877407499838814 49.14374999999999 L 30.42108720545663 51.191406249999986 L 29.161296695226945 53.23906249999999 L 28.118144764212886 55.28671874999999 L 27.305939800265303 57.334374999999994 L 26.732806682931695 59.38203125 L 26.400469243209656 61.429687499999986 L 26.304204108694012 63.47734374999998 L 26.432967169894432 65.52499999999998 L 26.432967169894432 65.52499999999998 Z" fill="black" stroke="black" />
				</svg>