<svg
					xmlns="http://www.w3.org/2000/svg" xmlns:xlink="http://www.w3.org/1999/xlink"
					style="
						overflow: visible;
						height: 100;
					"
					viewBox="-6.8042447583902925 0 55.685567834893284 128.52499999999998"
				>
					<path d="M 48.881323076502994 100.45000000000002 L 48.56631844460164 102.20468750000002 L 48.08338049171462 103.95937500000002 L 47.44200996160925 105.71406250000003 L 46.6548244111166 107.46875000000001 L 45.73730998740704 109.22343749999999 L 44.70751677204975 110.978125 L 43.585703685293076 112.7328125 L 42.39393993629396 114.48750000000001 L 41.155670859888325 116.2421875 L 39.89525668111045 117.99687500000002 L 38.637493281256596 119.7515625 L 37.40712439336843 121.50625 L 36.22835482361869 123.26093749999998 L 35.12437427489972 125.01562499999999 L 34.11690114034006 126.77031249999999 L 33.22575524160971 128.52499999999998 L 32.600286491609715 128.52499999999998 L 31.97481774160971 128.52499999999998 L 31.349348991609705 128.52499999999998 L 30.72388024160971 128.52499999999998 L 30.098411491609713 128.52499999999998 L 29.47294274160971 128.52499999999998 L 28.847473991609707 128.52499999999998 L 28.22200524160971 128.52499999999998 L 27.596536491609715 128.52499999999998 L 26.971067741609712 128.52499999999998 L 26.34559899160971 128.52499999999998 L 25.720130241609713 128.52499999999998 L 25.09466149160971 128.52499999999998 L 24.46919274160971 128.52499999999998 L 23.84372399160971 128.52499999999998 L 23.218255241609707 128.52499999999998 L 22.592786491609708 128.52499999999998 L 21.96731774160971 128.52499999999998 L 21.34184899160971 128.52499999999998 L 20.71638024160971 128.52499999999998 L 20.09091149160971 128.52499999999998 L 19.46544274160971 128.52499999999998 L 18.839973991609707 128.52499999999998 L 18.214505241609707 128.52499999999998 L 17.589036491609708 128.52499999999998 L 16.963567741609705 128.52499999999998 L 16.338098991609705 128.52499999999998 L 15.712630241609705 128.52499999999998 L 15.087161491609706 128.52499999999998 L 14.461692741609706 128.52499999999998 L 13.836223991609707 128.52499999999998 L 13.210755241609707 128.52499999999998 L 12.585286491609708 128.52499999999998 L 11.959817741609708 128.52499999999998 L 11.334348991609708 128.52499999999998 L 10.708880241609709 128.52499999999998 L 10.08341149160971 128.52499999999998 L 9.45794274160971 128.52499999999998 L 8.83247399160971 128.52499999999998 L 8.207005241609707 128.52499999999998 L 7.581536491609708 128.52499999999998 L 6.956067741609709 128.52499999999998 L 6.330598991609709 128.52499999999998 L 5.705130241609708 128.52499999999998 L 5.0796614916097065 128.52499999999998 L 4.454192741609707 128.52499999999998 L 3.8287239916097073 128.52499999999998 L 3.2032552416097078 128.52499999999998 L 2.577786491609708 128.52499999999998 L 1.9523177416097086 128.52499999999998 L 1.326848991609709 128.52499999999998 L 0.7013802416097077 128.52499999999998 L 0.07591149160970811 128.52499999999998 L -0.5495572583902923 128.52499999999998 L -1.1750260083902928 128.52499999999998 L -1.8004947583902924 128.52499999999998 L -2.425963508390292 128.52499999999998 L -3.0514322583902924 128.52499999999998 L -3.6769010083902924 128.52499999999998 L -4.3023697583902925 128.52499999999998 L -4.927838508390293 128.52499999999998 L -5.5533072583902925 128.52499999999998 L -6.178776008390292 128.52499999999998 L -6.8042447583902925 128.52499999999998 L -6.13538783404873 127.1859375 L -5.396189943557125 125.846875 L -4.595125839481992 124.50781249999999 L -3.741379557870132 123.16874999999999 L -2.8447391251543763 121.8296875 L -1.9154843404334043 120.490625 L -0.9642689196783534 119.15156249999998 L -0.0019983530591686826 117.8125 L 0.9602951242689705 116.47343750000002 L 1.9115790144842308 115.134375 L 2.8409470424283785 113.7953125 L 3.737744193819831 112.45625000000001 L 4.591688872812419 111.11718750000001 L 5.392990778387878 109.778125 L 6.132463148153917 108.4390625 L 6.80162808269525 107.10000000000001 L 7.697385810463463 105.865234375 L 8.521485119371873 104.63046875 L 9.269280783225797 103.39570312500001 L 9.936871521374805 102.1609375 L 10.521138035432351 100.926171875 L 11.019773421822054 99.69140625000001 L 11.431305663634257 98.456640625 L 11.755111982501575 97.22187500000001 L 11.991424910565607 95.987109375 L 12.141330023334252 94.75234375 L 12.206755355533854 93.517578125 L 12.19045260314947 92.2828125 L 12.09597029492984 91.048046875 L 11.927619194929385 89.81328125000002 L 11.690430273405827 88.57851562500001 L 11.39010565584887 87.34375 L 11.032963028377255 86.10898437499999 L 10.625874041540595 84.87421874999998 L 10.17619731307699 83.639453125 L 9.691706682836077 82.4046875 L 9.18051541936833 81.169921875 L 8.650997117150984 79.93515624999999 L 8.111704055687515 78.700390625 L 7.571283816463089 77.46562499999999 L 7.038394970724589 76.230859375 L 6.521622660112424 74.99609375 L 6.0293948932167325 73.761328125 L 5.569900374149833 72.5265625 L 5.151008664290432 71.29179687499999 L 4.780193455606621 70.05703125 L 4.4644597036279405 68.822265625 L 4.21027533050554 67.58749999999999 L 4.023508164042315 66.35273437499998 L 3.9093687275249183 65.11796874999999 L 3.8723594381456934 63.883203124999994 L 3.916230709319846 62.648437499999986 L 4.0439443848917005 61.413671874999984 L 4.257644861739232 60.17890624999999 L 4.558638182325948 58.94414062499999 L 4.9473793010435205 57.70937499999999 L 5.423467648495873 56.474609374999986 L 5.985651036972069 55.239843749999984 L 6.631837869030427 54.00507812499999 L 7.359117530162543 52.77031249999999 L 8.163788766712733 51.53554687499998 L 9.041395772373841 50.300781249999986 L 9.986771631423075 49.06601562499999 L 10.994088695134916 47.83124999999998 L 12.056915400210947 46.596484374999974 L 13.168278975258097 45.36171874999998 L 14.320733423939455 44.126953124999986 L 15.506432121975275 42.89218749999998 L 16.717204320187694 41.657421874999976 L 17.944634807699526 40.42265624999998 L 19.18014595858658 39.18789062499998 L 20.415081362044738 37.95312499999998 L 21.640790220694182 36.71835937499998 L 22.84871169415379 35.483593749999976 L 24.03045836555249 34.248828124999974 L 25.177898017195506 33.01406249999998 L 26.283232918088704 31.779296874999975 L 27.339075850283432 30.544531249999977 L 28.338522132799774 29.309765624999976 L 29.27521694090922 28.074999999999974 L 28.59552944090922 28.074999999999974 L 27.91584194090922 28.074999999999974 L 27.23615444090922 28.074999999999974 L 26.55646694090922 28.074999999999974 L 25.87677944090922 28.074999999999974 L 25.19709194090922 28.074999999999974 L 24.51740444090922 28.074999999999974 L 23.83771694090922 28.074999999999974 L 23.15802944090922 28.074999999999974 L 22.47834194090922 28.074999999999974 L 21.79865444090922 28.074999999999974 L 21.11896694090922 28.074999999999974 L 20.43927944090922 28.074999999999974 L 19.75959194090922 28.074999999999974 L 19.07990444090922 28.074999999999974 L 18.40021694090922 28.074999999999974 L 17.72052944090922 28.074999999999974 L 17.04084194090922 28.074999999999974 L 16.36115444090922 28.074999999999974 L 15.681466940909221 28.074999999999974 L 15.001779440909221 28.074999999999974 L 14.322091940909221 28.074999999999974 L 13.642404440909221 28.074999999999974 L 12.962716940909221 28.074999999999974 L 12.283029440909221 28.074999999999974 L 11.603341940909221 28.074999999999974 L 10.923654440909221 28.074999999999974 L 10.243966940909221 28.074999999999974 L 9.564279440909221 28.074999999999974 L 8.884591940909221 28.074999999999974 L 8.204904440909221 28.074999999999974 L 7.525216940909222 28.074999999999974 L 8.243203694718602 26.320312499999975 L 8.808859918691091 24.565624999999976 L 9.211057568712077 22.81093749999998 L 9.44188428918014 21.05624999999998 L 9.49679907122922 19.30156249999998 L 9.374721587106718 17.546874999999986 L 9.078053443249807 15.792187499999986 L 8.612630933952314 14.037499999999987 L 7.987610225090084 12.282812499999988 L 7.215287226662871 10.52812499999999 L 6.310855697764971 8.773437499999993 L 5.292108342738153 7.018749999999994 L 4.179086778783708 5.264062499999995 L 2.9936872611522483 3.509374999999997 L 1.759229922402391 1.7546874999999984 L 0.5 0 L 1.10875 0 L 1.7174999999999998 0 L 2.32625 0 L 2.9349999999999996 0 L 3.5437499999999997 0 L 4.1525 0 L 4.7612499999999995 0 L 5.369999999999999 0 L 5.978749999999999 0 L 6.587499999999999 0 L 7.196249999999999 0 L 7.804999999999999 0 L 8.413749999999999 0 L 9.022499999999999 0 L 9.631249999999998 0 L 10.239999999999998 0 L 10.848749999999999 0 L 11.457499999999998 0 L 12.066249999999997 0 L 12.674999999999997 0 L 13.283749999999998 0 L 13.892499999999998 0 L 14.501249999999999 0 L 15.109999999999998 0 L 15.718749999999996 0 L 16.327499999999997 0 L 16.936249999999998 0 L 17.544999999999998 0 L 18.153749999999995 0 L 18.762499999999996 0 L 19.371249999999996 0 L 19.979999999999997 0 L 20.588749999999997 0 L 21.197499999999998 0 L 21.80625 0 L 22.414999999999996 0 L 23.023749999999993 0 L 23.632499999999993 0 L 24.241249999999994 0 L 24.849999999999994 0 L 25.458749999999995 0 L 26.067499999999995 0 L 26.676249999999996 0 L 27.284999999999997 0 L 27.893749999999997 0 L 28.502499999999998 0 L 29.11125 0 L 29.719999999999995 0 L 30.328749999999992 0 L 30.937499999999993 0 L 31.546249999999993 0 L 32.154999999999994 0 L 32.763749999999995 0 L 33.372499999999995 0 L 33.981249999999996 0 L 34.589999999999996 0 L 35.19874999999999 0 L 35.80749999999999 0 L 36.41624999999999 0 L 37.02499999999999 0 L 37.63374999999999 0 L 38.24249999999999 0 L 38.85124999999999 0 L 39.459999999999994 0 L 40.4222820456946 1.339062499999999 L 41.37353172462873 2.678124999999998 L 42.30284315386947 4.017187499999997 L 43.19956196802783 5.356249999999996 L 44.05340746937796 6.695312499999995 L 44.85459049395298 8.034374999999994 L 45.59392564230693 9.373437499999993 L 46.26293658823998 10.712499999999991 L 46.853953258143946 12.05156249999999 L 47.36019976682684 13.39062499999999 L 47.77587210165018 14.729687499999988 L 48.0962046643463 16.068749999999987 L 48.317524907627444 17.407812499999984 L 48.437295440188926 18.746874999999985 L 48.454143117381285 20.085937499999986 L 48.36787478403273 21.424999999999983 L 47.85012191185716 22.659765624999984 L 47.247177419734854 23.894531249999986 L 46.56153031785774 25.129296874999984 L 45.796475950610315 26.364062499999985 L 44.956083867609465 27.598828124999986 L 44.04515814639545 28.833593749999984 L 43.06919055361997 30.068359374999986 L 42.03430700140055 31.303124999999987 L 40.94720782088124 32.53789062499999 L 39.8151024353207 33.77265624999999 L 38.64563906963222 35.00742187499999 L 37.446830181693784 36.242187499999986 L 36.22697434245843 37.47695312499999 L 34.994575326518216 38.71171874999999 L 33.75825920197311 39.94648437499999 L 32.52669022796219 41.18124999999999 L 31.308486379839735 42.416015625 L 30.11213532560911 43.650781249999994 L 28.94591167282768 44.88554687499999 L 27.81779629280927 46.1203125 L 26.73539850869723 47.355078125 L 25.705881906059176 48.58984374999999 L 24.735894489335433 49.824609374999994 L 23.831503865102224 51.059374999999996 L 22.998138084099967 52.294140625 L 22.240532718805223 53.52890625 L 21.562684692529707 54.76367187499999 L 20.96781331020345 55.998437499999994 L 20.458328870784392 57.233203125 L 20.035809167317208 58.46796875 L 19.700984103761172 59.70273437499999 L 19.45372857857003 60.9375 L 19.293063704407437 62.17226562500001 L 19.21716635210617 63.40703125 L 19.2233869258192 64.641796875 L 19.308275196058524 65.8765625 L 19.467613938754624 67.111328125 L 19.696460052362394 68.34609375000001 L 19.98919275212979 69.580859375 L 20.339568371644592 70.81562500000001 L 20.74078123735491 72.050390625 L 21.185530022548885 73.28515625 L 21.666088933855292 74.519921875 L 22.174383036210646 75.7546875 L 22.702066981889196 76.98945312500001 L 23.240606376003253 78.22421875 L 23.781360985176168 79.458984375 L 24.3156689781198 80.69375000000001 L 24.834931376787363 81.92851562500002 L 25.330695894719543 83.16328125000001 L 25.79473934517641 84.398046875 L 26.219147815592194 85.63281250000001 L 26.59639382666751 86.86757812500002 L 26.91940972381326 88.10234375 L 27.181656585394002 89.33710937500001 L 27.377187975928788 90.571875 L 27.5007079226686 91.80664062500001 L 27.54762255028987 93.04140625000002 L 27.51408487027609 94.27617187500002 L 27.397032288299883 95.51093750000001 L 27.1942164639158 96.74570312500002 L 26.904225231437852 97.98046875 L 26.526496368277417 99.21523437500001 L 26.061323076502994 100.45000000000002 L 26.774448076502992 100.45000000000002 L 27.487573076502994 100.45000000000002 L 28.200698076502995 100.45000000000002 L 28.913823076502993 100.45000000000002 L 29.62694807650299 100.45000000000002 L 30.340073076502993 100.45000000000002 L 31.053198076502994 100.45000000000002 L 31.766323076502992 100.45000000000002 L 32.47944807650299 100.45000000000002 L 33.192573076502995 100.45000000000002 L 33.90569807650299 100.45000000000002 L 34.61882307650299 100.45000000000002 L 35.331948076503 100.45000000000002 L 36.045073076502995 100.45000000000002 L 36.75819807650299 100.45000000000002 L 37.471323076503 100.45000000000002 L 38.184448076502996 100.45000000000002 L 38.897573076502994 100.45000000000002 L 39.610698076503 100.45000000000002 L 40.323823076503 100.45000000000002 L 41.036948076502995 100.45000000000002 L 41.750073076503 100.45000000000002 L 42.463198076503 100.45000000000002 L 43.176323076502996 100.45000000000002 L 43.889448076502994 100.45000000000002 L 44.60257307650299 100.45000000000002 L 45.315698076503 100.45000000000002 L 46.028823076502995 100.45000000000002 L 46.74194807650299 100.45000000000002 L 47.455073076503 100.45000000000002 L 48.168198076502996 100.45000000000002 L 48.881323076502994 100.45000000000002 L 48.881323076502994 100.45000000000002 Z" fill="black" stroke="black" />
				</svg>