<svg
					xmlns="http://www.w3.org/2000/svg" xmlns:xlink="http://www.w3.org/1999/xlink"
					style="
						overflow: visible;
						height: 100;
					"
					viewBox="-8.987191326078001 1.7763568394002505e-13 53.65814294310243 128.525"
				>
					<path d="M 1.2789769243681803e-13 1.7763568394002505e-13 L 0.5559375000001279 1.7763568394002505e-13 L 1.1118750000001278 1.7763568394002505e-13 L 1.6678125000001278 1.7763568394002505e-13 L 2.223750000000128 1.7763568394002505e-13 L 2.7796875000001275 1.7763568394002505e-13 L 3.3356250000001277 1.7763568394002505e-13 L 3.891562500000128 1.7763568394002505e-13 L 4.447500000000128 1.7763568394002505e-13 L 5.003437500000127 1.7763568394002505e-13 L 5.559375000000127 1.7763568394002505e-13 L 6.115312500000128 1.7763568394002505e-13 L 6.671250000000128 1.7763568394002505e-13 L 7.227187500000127 1.7763568394002505e-13 L 7.783125000000128 1.7763568394002505e-13 L 8.339062500000129 1.7763568394002505e-13 L 8.895000000000127 1.7763568394002505e-13 L 9.450937500000126 1.7763568394002505e-13 L 10.006875000000127 1.7763568394002505e-13 L 10.562812500000128 1.7763568394002505e-13 L 11.118750000000126 1.7763568394002505e-13 L 11.674687500000127 1.7763568394002505e-13 L 12.230625000000128 1.7763568394002505e-13 L 12.786562500000127 1.7763568394002505e-13 L 13.342500000000127 1.7763568394002505e-13 L 13.898437500000128 1.7763568394002505e-13 L 14.454375000000127 1.7763568394002505e-13 L 15.010312500000127 1.7763568394002505e-13 L 15.566250000000128 1.7763568394002505e-13 L 16.12218750000013 1.7763568394002505e-13 L 16.67812500000013 1.7763568394002505e-13 L 17.234062500000128 1.7763568394002505e-13 L 17.790000000000127 1.7763568394002505e-13 Q 18.095937500000126 1.7763568394002505e-13 18.404531249142202 0.010375976562677636 Q 18.71312499313674 0.020751953125177636 19.0243749450931 0.041503906250177636 Q 19.33562481468905 0.062255859375177636 19.64953062457621 0.09338378906267764 Q 19.96343601751703 0.12451171875017764 20.279996485979684 0.16601562500017764 Q 20.596555636712992 0.20751953125017764 20.915767845246354 0.25939941406267764 Q 21.23497683680506 0.31127929687517764 21.556834974545115 0.37353515625017764 Q 21.878686442084767 0.43579101562517764 22.203180324599433 0.5084228515626776 Q 22.52766185132173 0.5810546875001776 22.854775132442278 0.6640625000001776 Q 23.181867339247834 0.7470703125001776 23.511575417741753 0.8404541015626776 Q 23.841249748847705 0.9338378906251776 24.17351737280455 1.0375976562501776 Q 24.505733580786828 1.1413574218751776 24.840512154019486 1.2554931640626776 Q 25.175215489347096 1.3696289062501776 25.512440085953493 1.4941406250001776 Q 26.186560999884193 1.7431640625001776 26.870423784068482 2.0336914062501776 Q 27.55349909762946 2.3242187500001776 28.245638908342087 2.6562500000001776 Q 28.936439534749667 2.9882812500001776 29.635300490177332 3.3618164062501776 Q 30.332026096466205 3.7353515625001776 31.035394813782887 4.150390625000178 Q 31.73552960434784 4.565429687500178 32.44038581883677 5.021972656250178 Q 33.14054790298772 5.478515625000178 33.84291224383317 5.976562500000178 Q 34.53870345660696 6.474609375000178 35.23349043012996 7.014160156250178 Q 35.91935565032967 7.553710937500178 36.60024220306958 8.134765625000178 Q 37.26934962029534 8.715820312500178 37.92867215024408 9.338378906250178 Q 38.57282844937615 9.960937500000178 39.201523646262714 10.625000000000178 Q 39.811140515032186 11.289062500000178 40.396397425569006 11.988281250000178 Q 40.95860621591625 12.687500000000178 41.490015682944 13.421875000000178 Q 41.994127853508495 14.156250000000178 42.46048115932403 14.925781250000176 Q 42.89512706587294 15.695312500000176 43.28468590106442 16.500000000000178 Q 43.63812678759165 17.304687500000178 43.93899120757459 18.144531250000178 Q 44.19953181079373 18.984375000000178 44.400112034244884 19.859375000000178 Q 44.5566173666356 20.734375000000178 44.64620997956345 21.644531250000174 Q 44.6887237438625 22.55468750000017 44.658185748444325 23.500000000000174 Q 44.578639861725655 24.445312500000178 44.421145007825714 25.42578125000017 Q 44.21413990591904 26.40625000000017 43.92599098866088 27.42187500000017 Q 43.58961496234475 28.43750000000017 43.17107360474913 29.488281250000167 Q 42.70771685359586 30.539062500000167 42.16379933519106 31.62500000000017 Q 41.58090547231203 32.71093750000017 40.92208034406072 33.83203125000017 Q 40.23276583242536 34.95312500000017 39.475477644911514 36.10937500000017 Q 38.6989395180458 37.26562500000017 37.86587458346196 38.45703125000017 Q 37.027500534697026 39.64843750000016 36.14750712160247 40.87500000000016 L 36.14750712160247 40.87500000000016 Q 35.367500552910805 41.97500000000016 34.594987522663054 43.062890625000165 Q 33.842831054900785 44.150781250000165 33.10856947201558 45.22656250000017 Q 32.40486636364706 46.30234375000016 31.72786627184404 47.366015625000166 Q 31.09016154054282 48.42968750000017 30.48620783567448 49.48125000000016 Q 29.92866111970402 50.532812500000155 29.410059760495 51.572265625000156 Q 28.943259008719714 52.611718750000165 28.51871971145175 53.639062500000165 Q 28.149627292089868 54.666406250000165 27.82427228570187 55.68164062500017 Q 27.556291290631258 56.69687500000017 27.331776400091908 57.70000000000017 Q 27.164958666996988 58.70000000000017 27.03504497713302 59.67500000000017 Q 26.959755692502988 60.650000000000176 26.91526232860882 61.60000000000018 Q 26.921524881932633 62.550000000000175 26.951569395958003 63.47500000000018 Q 27.02761950820873 64.40000000000018 27.119887789191505 65.30000000000018 Q 27.252820520278355 66.20000000000019 27.394179292375007 67.07500000000019 Q 27.570534464115717 67.95000000000019 27.747574912544522 68.80000000000018 Q 27.9538476577946 69.65000000000019 28.153350185965003 70.4750000000002 Q 28.376419346049428 71.30000000000018 28.585734991384037 72.1000000000002 Q 28.80993246561388 72.89687500000018 28.99911501834396 73.65195312500018 Q 29.200810492732376 74.40703125000017 29.361050465689495 75.12031250000018 Q 29.529205403730774 75.83359375000016 29.650824659603177 76.50507812500017 Q 29.77665184812513 77.17656250000017 29.852135348424046 77.80625000000016 Q 29.92895809626062 78.43593750000016 29.95277640978454 79.02382812500016 Q 29.97582422286554 79.61171875000018 29.944206887466088 80.15781250000018 Q 29.91037267365169 80.70390625000017 29.82105494037443 81.20820312500018 Q 29.728634281092308 81.71250000000018 29.580595240746135 82.17500000000018 Q 29.505903314442715 82.4062500000002 29.41366192255361 82.6230468750002 Q 29.320551849826508 82.83984375000018 29.210034588597193 83.04218750000018 Q 29.098686152750204 83.24453125000018 28.9700961596289 83.43242187500017 Q 28.840730440226174 83.62031250000017 28.69430497858359 83.79375000000017 Q 28.547172528130716 83.96718750000018 28.383171773323113 84.12617187500018 Q 28.218541816860203 84.28515625000017 28.03723866317708 84.42968750000018 Q 27.855389316676657 84.5742187500002 27.65706019346859 84.70429687500018 Q 27.45826968381213 84.8343750000002 27.243186357943234 84.95000000000017 Q 27.027725217604242 85.06562500000015 26.79614755150072 85.16679687500016 Q 26.56427175453659 85.26796875000016 26.316441384155475 85.35468750000015 Q 26.068386386354682 85.44140625000014 25.804521281027213 85.51367187500017 Q 25.540496925727844 85.58593750000016 25.26078679170122 85.64375000000015 Q 24.98097304355863 85.70156250000016 24.685575534846127 85.74492187500016 Q 24.390119006366625 85.78828125000015 24.07915670990874 85.81718750000016 Q 23.768167949580555 85.84609375000016 23.441726116430786 85.86054687500017 Q 23.115277632490017 85.87500000000017 22.773402632490015 85.87500000000017 L 22.773402632490015 85.87500000000017 L 21.800902632490015 85.87500000000017 L 20.828402632490018 85.87500000000017 L 19.855902632490018 85.87500000000017 L 18.883402632490018 85.87500000000017 L 19.652676347060115 87.20781250000016 L 20.35661045188363 88.54062500000015 L 20.987209576298 89.87343750000015 L 21.537311297422125 91.20625000000017 L 22.00066749184166 92.53906250000017 L 22.372015302567863 93.87187500000017 L 22.647136915218496 95.20468750000018 L 22.8229074644754 96.53750000000016 L 22.89733052669148 97.87031250000015 L 22.86956079551749 99.20312500000016 L 22.739913682996132 100.53593750000016 L 22.509861737073074 101.86875000000016 L 22.182017916215152 103.20156250000018 L 21.760105911104823 104.53437500000018 L 21.248917850500625 105.86718750000017 L 20.65425987164579 107.20000000000016 L 19.982886173443063 108.53281250000016 L 19.242422301427784 109.86562500000016 L 18.441278535878237 111.19843750000015 L 17.588554366811543 112.53125000000017 L 16.693935140850204 113.86406250000019 L 15.767582053856755 115.19687500000018 L 14.820016738813816 116.52968750000016 L 13.862001759814875 117.86250000000017 L 12.904418369529582 119.19531250000017 L 11.958142918589624 120.52812500000016 L 11.033923320652391 121.86093750000015 L 10.142256976267824 123.19375000000016 L 9.293271542104133 124.52656250000018 L 8.496609899770188 125.85937500000017 L 7.761320630773052 127.19218750000017 L 7.095755241609626 128.52500000000018 L 6.227005241609626 128.52500000000018 L 5.358255241609625 128.52500000000018 L 4.489505241609625 128.52500000000018 L 3.6207552416096247 128.52500000000018 L 2.7520052416096243 128.52500000000018 L 1.883255241609624 128.52500000000018 L 1.0145052416096245 128.52500000000018 L 0.14575524160962505 128.52500000000018 L -0.7229947583903753 128.52500000000018 L -1.5917447583903757 128.52500000000018 L -2.460494758390376 128.52500000000018 L -3.3292447583903755 128.52500000000018 L -4.197994758390376 128.52500000000018 L -5.066744758390376 128.52500000000018 L -5.935494758390376 128.52500000000018 L -6.804244758390376 128.52500000000018 L -5.774285378155798 126.51679687500018 L -4.595609488518709 124.50859375000019 L -3.2985738440459516 122.5003906250002 L -1.9165835504751856 120.49218750000017 L -0.48523171743440446 118.48398437500016 L 0.9586172407988958 116.47578125000017 L 2.3777770469435384 114.46757812500017 L 3.7356972919302405 112.45937500000018 L 4.997404789354805 110.45117187500018 L 6.1304043086188456 108.44296875000018 L 7.105515488409235 106.43476562500015 L 7.897624375839881 104.42656250000016 L 8.48633023539277 102.41835937500016 L 8.856470969117428 100.41015625000017 L 8.998513615910923 98.40195312500018 L 8.908799872583502 96.39375000000017 L 8.589640313323887 94.38554687500016 L 8.049254880945284 92.37734375000016 L 7.3015611825578866 90.36914062500017 L 6.365816042105159 88.36093750000018 L 5.266119541565194 86.35273437500018 L 4.030794324217988 84.34453125000017 L 2.691656146000353 82.33632812500016 L 1.283194461871615 80.32812500000017 L -0.15831584884148264 78.31992187500018 L -1.5957487406393547 76.31171875000017 L -2.9920831817979354 74.30351562500016 L -4.311356629691035 72.29531250000016 L -5.519591244764635 70.28710937500017 L -6.585668988555884 68.27890625000018 L -7.4821330676391895 66.27070312500017 L -8.185895082339954 64.26250000000017 L -8.678829667626468 62.25429687500018 L -8.94824131122549 60.24609375000018 L -8.987191326078001 58.237890625000176 L -8.794676555971472 56.22968750000018 L -8.375655211791525 54.22148437500017 L -7.740919172981346 52.21328125000017 L -6.906816043080054 50.20507812500018 L -5.894828117789535 48.196875000000176 L -4.731019109231826 46.18867187500017 L -3.445362875993604 44.18046875000017 L -2.0709714474910075 42.17226562500017 L -0.6432422248592432 40.16406250000017 L 0.8010536778232239 38.15585937500017 L 2.224718472237199 36.147656250000175 L 3.5910857235047833 34.13945312500017 L 4.86496469288294 32.13125000000018 L 6.013546673956871 30.123046875000178 L 7.007249979677613 28.114843750000176 L 7.820481817633564 26.106640625000175 L 8.432297431485983 24.098437500000177 L 8.826939532404928 22.09023437500018 L 8.99424412746862 20.082031250000174 L 8.929902292930574 18.073828125000176 L 8.635571150393629 16.065625000000175 L 8.11883118770345 14.057421875000177 L 7.392991023760446 12.049218750000177 L 6.476744645525174 10.041015625000176 L 5.393689945065686 8.032812500000176 L 4.171720956707622 6.0246093750001775 L 2.8423094471970853 4.016406250000177 L 1.4396943614954507 2.0082031250001773 L 1.2789769243681803e-13 1.7763568394002505e-13 L 1.2789769243681803e-13 1.7763568394002505e-13 Z M 24.525216940909143 28.075000000000152 L 24.525216940909143 28.075000000000152 L 23.625216940909144 28.075000000000152 L 22.725216940909142 28.075000000000152 L 21.825216940909144 28.075000000000152 L 20.925216940909145 28.075000000000152 L 20.02135277263185 29.92031250000015 L 18.984327200076727 31.765625000000153 L 17.836699253354055 33.610937500000155 L 16.603433961379874 35.45625000000015 L 15.31135927284891 37.30156250000015 L 13.988582452012581 39.14687500000015 L 12.663878644749806 40.992187500000156 L 11.366064915813975 42.837500000000155 L 10.12337337419394 44.68281250000015 L 8.962837023363406 46.52812500000016 L 7.909701696381196 48.37343750000016 L 6.98687686836571 50.218750000000156 L 6.214437293144307 52.064062500000155 L 5.6091863052701125 53.90937500000015 L 5.1842902871555605 55.75468750000016 L 4.94899225297509 57.60000000000016 L 5.633992252975089 57.60000000000016 L 6.3189922529750895 57.60000000000016 L 7.00399225297509 57.60000000000016 L 7.688992252975089 57.60000000000016 Q 8.030242252975091 57.60000000000016 8.364587008800543 57.54531250000015 Q 8.699103012064882 57.49062500000016 9.027398423840976 57.381250000000165 Q 9.356377781413077 57.271875000000165 9.680502540965241 57.107812500000165 Q 10.006161674891212 56.943750000000165 10.329005352921966 56.725000000000165 Q 10.654563406914189 56.50625000000016 10.980002104851723 56.23281250000016 Q 11.309649253650523 55.959375000000165 11.642501292694972 55.63125000000017 Q 11.981343093338795 55.303125000000165 12.327294720046297 54.92031250000017 Q 12.681261507108564 54.53750000000017 13.046750397146296 54.10000000000018 Q 13.422125187055007 53.65937500000017 13.80255443305326 53.13632812500017 Q 14.197091312218982 52.61328125000016 14.604964324651991 52.00781250000016 Q 15.030815996018486 51.40234375000016 15.478688519152705 50.71445312500016 Q 15.948166995845227 50.02656250000016 16.44815036632876 49.256250000000165 Q 16.97261829888378 48.48593750000016 17.53507807680725 47.63320312500015 Q 18.12350651730809 46.78046875000015 18.755420536510723 45.845312500000155 Q 19.412614943540344 44.910156250000156 20.115619021324523 43.892578125000156 Q 20.840168587171732 42.875000000000156 21.608383131867868 41.77500000000016 L 21.608383131867868 41.77500000000016 Q 22.15162209476903 41.00937500000016 22.650688712771203 40.28046875000016 Q 23.152226041605083 39.55156250000016 23.60553074707918 38.859375000000156 Q 24.05792947138421 38.16718750000015 24.459226453931603 37.511718750000156 Q 24.8570548729908 36.85625000000016 25.201981508333745 36.23750000000016 Q 25.54161183005943 35.61875000000016 25.827470376489245 35.03671875000017 Q 26.106847639704764 34.45468750000017 26.332366817049696 33.90937500000017 Q 26.550764873553447 33.364062500000166 26.71585609843449 32.85546875000017 Q 26.873633864628424 32.346875000000175 26.979153456522646 31.875000000000178 Q 27.07934005771006 31.400000000000176 27.11355291402764 30.98437500000017 Q 27.141643463508068 30.568750000000165 27.10672440191617 30.212500000000166 Q 27.06696021170928 29.856250000000166 26.967094354680505 29.55937500000016 Q 26.86366983563594 29.26250000000016 26.702810818434127 29.02500000000016 Q 26.539577282961574 28.787500000000158 26.32119373581783 28.609375000000156 Q 26.101433776926086 28.431250000000155 25.82832072867611 28.312500000000153 Q 25.554583419487855 28.19375000000015 25.22872913093767 28.13437500000015 Q 24.90271694090914 28.075000000000152 24.525216940909143 28.075000000000152 L 24.525216940909143 28.075000000000152 Z" fill="black" stroke="black" />
				</svg>