<svg
					xmlns="http://www.w3.org/2000/svg" xmlns:xlink="http://www.w3.org/1999/xlink"
					style="
						overflow: visible;
						height: 100;
					"
					viewBox="-8.997212567846011 0 61.98487414279755 130.325"
				>
					<path d="M 43.99 0 L 45.72065271420364 2.4187500000000006 L 47.38670783133185 4.837500000000001 L 48.92597889636773 7.256250000000001 L 50.28101174116249 9.675000000000002 L 51.401228993945544 12.093750000000004 L 52.24481790849791 14.512500000000003 L 52.78029104869081 16.931250000000006 L 52.98766157495154 19.350000000000005 L 52.859189264420365 21.768750000000008 L 52.399669419172014 24.187500000000007 L 51.6262538788378 26.606250000000003 L 50.567810818434204 29.025000000000006 L 49.26384722730812 31.44375000000001 L 47.763034288285134 33.86250000000001 L 46.12139069808292 36.28125000000001 L 44.40019173758885 38.70000000000001 L 42.66368213714318 41.11875000000001 L 40.97667810543212 43.537500000000016 L 39.402148027626616 45.95625000000002 L 37.998862134584925 48.375000000000014 L 36.819198870553166 50.79375 L 35.907189837937295 53.212500000000006 L 35.296876292695 55.63125000000001 L 35.011038535092005 58.05000000000001 L 35.060345622035584 60.468750000000014 L 35.442957138456215 62.88750000000002 L 36.14459189184697 65.30625000000002 L 37.13906096589803 67.72500000000002 L 38.38924523669604 70.14375000000001 L 39.84848086514015 72.56250000000001 L 41.462301051282154 74.98125000000002 L 43.170469038619146 77.40000000000002 Q 43.71612452212444 78.15937500000003 44.25039905847556 78.90900878906253 Q 44.783718007724566 79.65864257812503 45.30182779558185 80.39853515625003 Q 45.815267387749216 81.13842773437504 46.31005413085451 81.86857910156255 Q 46.796761971656686 82.59873046875003 47.2617886179097 83.31914062500003 Q 47.71566500679622 84.03955078125001 48.145267262316146 84.7502197265625 Q 48.561007272810315 85.46088867187501 48.95032565446993 86.16181640625001 Q 49.323442351995446 86.86274414062503 49.66843623913016 87.55393066406253 Q 49.99526662055733 88.24511718750003 50.292711990062244 88.92656250000002 Q 50.570407419044194 89.6080078125 50.81788010227112 90.27971191406252 Q 51.04438313742937 90.95141601562501 51.240229527956345 91.61337890625 Q 51.41423910336947 92.27534179687501 51.55753627847514 92.92756347656251 Q 51.6784632046799 93.57978515625 51.76897040738315 94.222265625 Q 51.83688512356247 94.86474609375001 51.874988493806825 95.49748535156252 Q 51.89056292548285 96.130224609375 51.877215275873866 96.75322265625 Q 51.8416605446139 97.376220703125 51.77831785527134 97.9894775390625 Q 51.69331945472035 98.60273437500001 51.58187562012615 99.20625000000001 Q 51.449527522733995 99.80976562500001 51.29224872728173 100.4035400390625 Q 51.11498772447561 100.997314453125 50.914447658504784 101.58134765625 Q 50.694989069218224 102.165380859375 50.454006028739514 102.73967285156252 Q 50.19528174192847 103.31396484375003 49.916858487423994 103.87851562500002 Q 49.3109626462061 105.00761718750002 48.63750427145515 106.09775390625002 Q 47.90892517977528 107.18789062500001 47.1276959674732 108.2390625 Q 46.30238568048742 109.290234375 45.438648383540446 110.30244140625 Q 44.5415786518024 111.31464843749998 43.619078635693874 112.28789062499999 Q 42.67326549375901 113.2611328125 41.71342324107768 114.19541015624999 Q 40.739251873686136 115.12968749999999 39.7606401847901 116.02499999999999 Q 38.77658358827599 116.91874999999999 37.80739996954324 117.75664062499999 Q 36.83804468417163 118.59453125 35.889047233528736 119.3765625 Q 35.4160629753635 119.767578125 34.94881350539988 120.14462890624999 Q 34.4830846525273 120.52167968749998 34.02335140959475 120.88476562499999 Q 33.565467275344055 121.24785156249999 33.11372280836125 121.59697265624999 Q 32.66407291319407 121.94609374999999 32.220602536109475 122.28124999999999 Q 31.779397505084376 122.61640624999998 31.34432009852375 122.93759765624998 Q 30.91161244714061 123.25878906249997 30.484900968867347 123.56601562499998 Q 30.0606054589454 123.87324218749998 29.642106879184567 124.16650390624997 Q 29.226020187601435 124.45976562499999 28.81547462362238 124.73906249999999 Q 28.407294122803115 125.01835937499999 28.004353000164556 125.28369140625 Q 27.603694499769134 125.5490234375 27.20793761502278 125.80039062499999 Q 26.814351959149974 126.05175781249999 26.425303360490584 126.28916015624998 Q 26.03829181388634 126.5265625 25.65543445229013 126.74999999999999 Q 25.274462842644773 126.97343749999999 24.897251976642522 127.18291015624999 Q 24.521763588316436 127.39238281249999 24.14963895097933 127.58789062499999 Q 23.779066188722446 127.78339843749997 23.411462946038657 127.96494140624998 Q 23.04523780582862 128.14648437499997 22.681596351803233 128.31406249999998 Q 22.319159750220567 128.48164062499995 21.95893439614524 128.63525390624997 Q 21.599744420142144 128.78886718749996 21.242411043972364 128.92851562499996 Q 20.88595018989238 129.0681640625 20.531012916946906 129.19384765624997 Q 20.176794391619175 129.31953124999998 19.823791380276962 129.43124999999998 Q 19.471364538329638 129.54296875 19.119872944417335 129.64072265624998 Q 18.768827934994242 129.73847656249998 18.41846812648189 129.822265625 Q 18.068439819638712 129.9060546875 17.718878909412105 129.97587890625 Q 17.369550167922032 130.045703125 17.02050492706679 130.10156249999997 Q 16.671609283454245 130.15742187499998 16.322848490928642 130.19931640624998 Q 15.974172282521742 130.24121093749997 15.625518559544373 130.26914062499998 Q 15.276902566409746 130.29707031249998 14.928233735548078 130.31103515625 Q 14.579574357541077 130.325 14.230824357541078 130.325 L 14.230824357541078 130.325 Q 13.898011857541078 130.325 13.575311610259545 130.31171874999998 Q 13.252619913329585 130.29843749999998 12.940074647170619 130.271875 Q 12.627563512260242 130.24531249999998 12.325266953222933 130.20546875 Q 12.02304692467067 130.16562499999998 11.731143157522547 130.11249999999998 Q 11.439374779004776 130.059375 11.158057236440163 129.99296875 Q 10.876949884352939 129.9265625 10.606459941967215 129.846875 Q 10.336270252812605 129.7671875 10.076895400195792 129.67421875 Q 9.817925259184335 129.58124999999998 9.569996810321854 129.47499999999997 Q 9.322590861512692 129.36874999999998 9.086481161109937 129.24921874999998 Q 8.851023793128698 129.1296875 8.627142869598014 128.996875 Q 8.40405462545695 128.8640625 8.192846236287988 128.71796874999998 Q 7.98257959125883 128.57187499999998 7.784516602523663 128.4125 Q 7.587551050580022 128.25312499999998 7.403130089612983 128.08046875 Q 7.219966476884087 127.90781249999998 7.0497017959551735 127.721875 Q 6.880855839162045 127.5359375 6.725272328489046 127.33671874999999 Q 6.571267257730874 127.13749999999999 6.430892548724337 126.92499999999998 Q 6.292250817534747 126.71249999999999 6.167606422039994 126.48671874999998 Q 6.0448404336432 126.26093749999998 5.936431872444376 126.021875 Q 5.830033679926087 125.7828125 5.738339564232386 125.53046875 Q 5.6487695142228835 125.27812499999999 5.57422955758739 125.01249999999999 Q 5.501903862355971 124.74687499999999 5.444905817802007 124.46796874999998 Q 5.390183059690415 124.18906249999999 5.351048598033292 123.896875 Q 5.314215193194148 123.60468749999998 5.293184763913063 123.29921874999998 Q 5.274439439609566 122.99374999999998 5.271656185357008 122.67499999999998 Q 5.272612783981569 122.0375 5.3378457228141585 121.34687499999998 Q 5.4107474840667855 120.65624999999999 5.547350986185851 119.9125 Q 5.689287603247196 119.16874999999999 5.892692753494193 118.37187499999999 Q 6.097741715103397 117.575 6.36002180491015 116.725 Q 6.617584901160589 115.87656249999998 6.921956756923039 114.9833984375 Q 7.2160317332010475 114.090234375 7.548451860327126 113.15234375 Q 7.8624362911083745 112.21445312499998 8.20417308824659 111.2318359375 Q 8.517990129023996 110.24921875000001 8.846929808221832 109.221875 Q 9.137333658280578 108.19453124999998 9.428448412182462 107.12246093749998 Q 9.669640736666173 106.05039062499998 9.895797509306792 104.93359374999999 Q 9.985996674501937 104.37519531250001 10.069360554722437 103.805615234375 Q 10.135904784234784 103.23603515624998 10.193553206143353 102.6552734375 Q 10.233012048252842 102.07451171875 10.26154280256505 101.482568359375 Q 10.270596879509105 100.89062499999999 10.266753304505892 100.2875 Q 10.242259739997106 99.68437499999999 10.202999204113175 99.07006835937497 Q 10.142062097362189 98.45576171874998 10.064629159916288 97.83027343749998 Q 9.964674310118541 97.20478515624997 9.846677643077372 96.56811523437497 Q 9.705530499294072 95.93144531249997 9.545022416604398 95.28359375 Q 9.36098798748857 94.6357421875 9.156545183160997 93.976708984375 Q 8.928488394127076 93.31767578124999 8.67929224162212 92.6474609375 Q 8.406716980114119 91.97724609375001 8.112631500603115 91.295849609375 Q 7.79575635059167 90.614453125 7.457401724509354 89.921875 Q 7.097230167967975 89.229296875 6.716049452299313 88.525537109375 Q 6.314432118050234 87.82177734375 5.892748651459351 87.1068359375 Q 5.452435031344082 86.39189453124999 4.99349787195752 85.665771484375 Q 4.518174812518987 84.9396484375 4.026189471032633 84.20234375 Q 3.5205036981114954 83.4650390625 3.0006454144249997 82.716552734375 Q 2.470207370821975 81.96806640624999 1.9286142481610988 81.2083984375 Q 1.379980633153344 80.44873046875 0.8237241017190742 79.67788085937501 Q 0.26435670739116784 78.90703125 -0.2986129489280114 78.125 L -0.2986129489280114 78.125 L -2.038631689729276 75.68359375 L -3.701129705697541 73.2421875 L -5.222889078716173 70.80078125 L -6.54604359871292 68.359375 L -7.620279176108501 65.91796875 L -8.404747078382643 63.4765625 L -8.869617238290298 61.03515625 L -8.997212567846011 58.59375 L -8.782681144810814 56.15234375 L -8.23418071121184 53.7109375 L -7.372568468179639 51.26953125 L -6.230607962921565 48.828125 L -4.851723226636709 46.38671875 L -3.2883475383506484 43.9453125 L -1.5999296043465283 41.50390625 L 0.14932703006413114 39.0625 L 1.8929053756175878 36.62109375 L 3.564504364871701 34.1796875 L 5.100560007366626 31.73828125 L 6.4426624650772135 29.296875 L 7.539777136782438 26.85546875 L 8.35018529270684 24.4140625 L 8.843070465131243 21.97265625 L 8.99969027110424 19.53125 L 8.814089107687154 17.08984375 L 8.293324618882298 14.6484375 L 7.4571993226446445 12.20703125 L 6.3375076030908035 9.765625 L 4.976826701674747 7.32421875 L 3.4268976809315115 4.8828125 L 1.746657926036188 2.44140625 L 0 0 L 0.8724999999999999 0 L 1.7449999999999999 0 L 2.6174999999999997 0 L 3.4899999999999998 0 L 4.3625 0 L 5.234999999999999 0 L 6.1075 0 L 6.9799999999999995 0 L 7.852499999999999 0 L 8.725 0 L 9.5975 0 L 10.469999999999999 0 L 11.3425 0 L 12.215 0 L 13.087499999999999 0 L 13.959999999999999 0 L 15.647023623206076 2.357031249999999 L 17.27424126388074 4.714062499999998 L 18.783967096849793 7.0710937499999975 L 20.122680450824607 9.428124999999996 L 21.242923147768384 11.785156249999995 L 22.104981923300727 14.142187499999995 L 22.67829628534473 16.499218749999994 L 22.942541901597174 18.856249999999992 L 22.888351109096973 21.213281249999987 L 22.517645003402624 23.57031249999999 L 21.843565334621527 25.92734374999999 L 20.89000862461701 28.28437499999999 L 19.690779021212965 30.641406249999985 L 18.288389921214126 32.99843749999999 L 16.73255684541291 35.355468749999986 L 15.078434994052637 37.712499999999984 L 13.384663962445728 40.06953124999998 L 11.711288932731355 42.426562499999974 L 10.11763203675104 44.78359374999998 L 8.660189351483812 47.14062499999998 L 7.390628079793117 49.49765624999998 L 6.353954917609507 51.85468749999998 L 5.586920540012757 54.21171874999998 L 5.116716768122929 56.56874999999998 L 4.960012603002621 58.92578124999997 L 5.122363299737099 61.28281249999997 L 5.598013430364778 63.639843749999976 L 6.3701009171932705 65.99687499999997 L 7.411254803399677 68.35390624999997 L 8.684565569594671 70.71093749999997 L 10.144893598055887 73.06796874999998 L 11.740469398801729 75.42499999999997 Q 12.34155942845884 76.27968749999997 12.93716235607881 77.10488281249997 Q 13.537256311743562 77.93007812499997 14.1260772962654 78.72578124999997 Q 14.714355926689151 79.52148437499997 15.286797690649072 80.28769531249995 Q 15.854527855241702 81.05390624999997 16.403037628627075 81.79062499999998 Q 16.943510752373903 82.52734374999997 17.462483992825714 83.23457031249998 Q 17.970892273851955 83.94179687499998 18.45652406439273 84.61953124999997 Q 18.92979216090741 85.29726562499997 19.37989298057181 85.94550781249995 Q 19.816481017167963 86.59374999999997 20.230271492894154 87.21249999999998 Q 21.01473407847377 88.44999999999999 21.714949477727796 89.56953124999998 Q 22.35945101483432 90.68906249999998 22.934788366071484 91.69062499999998 Q 23.459973469006144 92.6921875 23.934887698560996 93.57578125 Q 24.367858418644563 94.459375 24.770567756017105 95.22500000000001 Q 25.139209053377968 95.99062500000001 25.496389720920796 96.66054687500001 Q 25.827915358818657 97.33046875 26.16227427188571 97.9046875 Q 26.47764867173045 98.47890624999998 26.808458265632197 98.95742187499998 Q 27.126106224044953 99.43593749999998 27.469775268496186 99.81875 Q 27.80507684863062 100.2015625 28.17483433988445 100.488671875 Q 28.539925082870745 100.77578125 28.945736691644463 100.96718749999997 Q 29.34949052378829 101.15859374999998 29.79809806716746 101.254296875 Q 30.24619397880234 101.34999999999998 30.74119397880234 101.34999999999998 L 30.74119397880234 101.34999999999998 Q 31.00681897880234 101.34999999999998 31.267647438581974 101.32568359374999 Q 31.52844291653013 101.30136718749998 31.784309861208595 101.25273437499999 Q 32.29564725262673 101.15546874999998 32.7854825242766 100.96093749999997 Q 33.273192038268384 100.76640624999997 33.735129815925006 100.47460937499999 Q 34.19224621230359 100.18281249999998 34.617117934214946 99.79374999999997 Q 35.033344491017424 99.40468749999997 35.408611719011645 98.91835937499998 Q 35.770281493070414 98.43203124999997 36.08005817067203 97.84843749999996 Q 36.37022759112485 97.26484374999997 36.595498274025786 96.58398437499997 Q 36.79428983776694 95.90312499999996 36.91345449700516 95.12499999999996 Q 37.00071543559439 94.34999999999995 36.99453669333896 93.45820312499995 Q 36.94578917036041 92.56640624999996 36.78381421412108 91.55781249999997 Q 36.57129210716426 90.54921874999998 36.22704884279473 89.42382812499999 Q 35.82705107472209 88.29843749999998 35.28083274627769 87.05624999999998 Q 34.98631664569868 86.43515624999998 34.6536461116294 85.78486328124997 Q 34.307637924923114 85.13457031249997 33.92320684497871 84.45507812499997 Q 33.52665816795488 83.77558593749997 33.09218373200301 83.06689453124997 Q 32.64746239339543 82.35820312499997 32.16619995405324 81.62031249999998 Q 31.67728884145991 80.88242187499999 31.154221732903398 80.11533203124999 Q 30.62689529850176 79.34824218749999 30.06889473401072 78.551953125 Q 29.51085871997194 77.75566406249999 28.92679813950552 76.93017578124999 Q 28.3477760959984 76.10468749999998 27.748582577125777 75.24999999999999 L 27.748582577125777 75.24999999999999 L 26.164694795884614 72.89843749999999 L 24.719318323909796 70.54687499999999 L 23.463455816308507 68.19531249999999 L 22.441422594091705 65.84374999999999 L 21.68928290000274 63.492187499999986 L 21.23357730817843 61.14062499999999 L 21.09038619323458 58.78906249999999 L 21.264762305919184 56.437499999999986 L 21.750552477900918 54.085937499999986 L 22.530614747153667 51.734374999999986 L 23.57742324228525 49.38281249999999 L 24.854039481401394 47.03124999999999 L 26.31541581151315 44.679687499999986 L 27.9099849943323 42.328125 L 29.58147984711941 39.97656249999999 L 31.270918729351667 37.62499999999999 L 32.9186868138156 35.27343749999999 L 34.46663970080768 32.92187499999999 L 35.86015514570984 30.570312499999996 L 37.050060501117756 28.218749999999993 L 37.99436786033113 25.867187499999993 L 38.65975567461095 23.515624999999996 L 39.022744562728676 21.1640625 L 39.070525822296126 18.812499999999996 L 38.80141340739408 16.460937499999996 L 38.22490342367282 14.109374999999996 L 37.36133904153517 11.757812499999998 L 36.241192651530575 9.406249999999998 L 34.90399059237198 7.054687499999998 L 33.396918394441464 4.703124999999999 L 31.7731557552248 2.3515624999999996 L 30.090000000000003 0 L 30.958750000000002 0 L 31.827500000000004 0 L 32.696250000000006 0 L 33.565000000000005 0 L 34.43375 0 L 35.30250000000001 0 L 36.17125000000001 0 L 37.040000000000006 0 L 37.908750000000005 0 L 38.7775 0 L 39.64625 0 L 40.515 0 L 41.38375 0 L 42.2525 0 L 43.12125 0 L 43.99 0 L 43.99 0 Z" fill="black" stroke="black" />
				</svg>