<svg
					xmlns="http://www.w3.org/2000/svg" xmlns:xlink="http://www.w3.org/1999/xlink"
					style="
						overflow: visible;
						height: 100;
					"
					viewBox="-1.4534265559714452 0 57.983797598902 128.52499999999998"
				>
					<path d="M 34.42 0 L 35.391875 0 L 36.36375 0 L 37.33562500000001 0 L 38.307500000000005 0 L 39.279375 0 L 40.25125 0 L 41.223124999999996 0 L 42.195 0 L 43.166875000000005 0 L 44.13875 0 L 45.110625 0 L 46.082499999999996 0 L 47.05437499999999 0 L 48.02625 0 L 48.998125 0 L 49.97 0 L 51.14641311149533 2.0082031249999996 L 52.28574694719697 4.016406249999999 L 53.351877206707506 6.024609375 L 54.31056494506558 8.032812499999999 L 55.13033839552509 10.041015624999998 L 55.78330352376037 12.04921875 L 56.24586243770339 14.057421875 L 56.499321150393584 16.065624999999997 L 56.530371042930554 18.073828125 L 56.331431627468625 20.082031249999996 L 55.90084578240496 22.090234375 L 55.24292243148603 24.0984375 L 54.36782556763363 26.106640624999997 L 53.2913124796777 28.11484375 L 52.034327923956965 30.123046875 L 50.62246469288305 32.131249999999994 L 49.085304473504905 34.139453124999996 L 47.45565597223732 36.14765625 L 45.76870992782335 38.15585937499999 L 44.061132775140884 40.16406249999999 L 42.37012230250912 42.172265624999994 L 40.73244962400651 44.18046875 L 39.183512140768286 46.188671875 L 37.75642188221057 48.196875 L 36.481152706920035 50.205078125 L 35.38376832701873 52.213281249999994 L 34.48575103820852 54.221484374999996 L 33.80344844402856 56.2296875 L 33.347652423922014 58.23789062499999 L 33.1233211887745 60.24609375 L 33.1294515823735 62.254296875 L 33.35910491766 64.26249999999999 L 33.79958568236074 66.27070312499998 L 34.43276851144403 68.27890624999999 L 35.23556500523526 70.287109375 L 36.18051837030885 72.2953125 L 37.23651056820194 74.30351562499999 L 38.36956375936052 76.31171874999998 L 39.54371540115839 78.31992187499999 L 40.72194446187149 80.32812499999999 L 41.867124896000234 82.33632812499998 L 42.942981824217874 84.34453124999999 L 43.915025791565085 86.35273437500001 L 44.751441042105064 88.3609375 L 45.42390493255781 90.369140625 L 45.90831738094522 92.37734375 L 46.18542156332384 94.38554687499999 L 46.24129987258348 96.39375 L 46.06773236591092 98.401953125 L 45.66240846911745 100.41015625 L 45.02898648539281 102.418359375 L 44.17699937583994 104.42656249999999 L 43.121609238409306 106.43476562499998 L 41.883216808618926 108.44296874999999 L 40.4869360393549 110.451171875 L 38.96194729193035 112.459375 L 37.34074579694366 114.46757812499999 L 35.65830474079902 116.47578124999998 L 33.95117453256572 118.48398437499998 L 32.25654144952494 120.4921875 L 30.611269905954167 122.50039062500001 L 29.050953011481404 124.50859375 L 27.608995871844296 126.516796875 L 26.315755241609704 128.52499999999998 L 25.805130241609707 128.52499999999998 L 25.294505241609702 128.52499999999998 L 24.783880241609705 128.52499999999998 L 24.273255241609704 128.52499999999998 L 23.762630241609703 128.52499999999998 L 23.252005241609705 128.52499999999998 L 22.741380241609704 128.52499999999998 L 22.230755241609703 128.52499999999998 L 21.720130241609706 128.52499999999998 L 21.209505241609705 128.52499999999998 L 20.698880241609704 128.52499999999998 L 20.188255241609706 128.52499999999998 L 19.677630241609705 128.52499999999998 L 19.167005241609704 128.52499999999998 L 18.656380241609707 128.52499999999998 L 18.145755241609706 128.52499999999998 L 17.635130241609705 128.52499999999998 L 17.124505241609707 128.52499999999998 L 16.613880241609706 128.52499999999998 L 16.103255241609705 128.52499999999998 L 15.592630241609708 128.52499999999998 L 15.082005241609707 128.52499999999998 L 14.571380241609706 128.52499999999998 L 14.060755241609709 128.52499999999998 L 13.550130241609708 128.52499999999998 L 13.039505241609707 128.52499999999998 L 12.52888024160971 128.52499999999998 L 12.018255241609708 128.52499999999998 L 11.507630241609707 128.52499999999998 L 10.99700524160971 128.52499999999998 L 10.486380241609709 128.52499999999998 L 9.975755241609708 128.52499999999998 L 10.743527121844302 126.516796875 L 11.660015511481404 124.50859375 L 12.694863655954169 122.50039062500001 L 13.81466644952494 120.4921875 L 14.983830782565724 118.48398437499998 L 16.165492240799022 116.47578124999998 L 17.322464546943664 114.46757812499999 L 18.41819729193036 112.459375 L 19.41771728935491 110.451171875 L 20.28852930861894 108.44296874999999 L 21.001452988409316 106.43476562499998 L 21.531374375839945 104.42656249999999 L 21.857892735392817 102.418359375 L 21.965845969117453 100.41015625 L 21.845701115910927 98.401953125 L 21.493799872583484 96.39375 L 20.912452813323853 94.38554687499999 L 20.10987988094523 92.37734375 L 19.099998682557814 90.369140625 L 17.90206604210507 88.3609375 L 16.54018204156509 86.35273437500001 L 15.042669324217872 84.34453124999999 L 13.441343646000231 82.33632812499998 L 11.77069446187149 80.32812499999999 L 10.06699665115839 78.31992187499999 L 8.36737625936052 76.31171874999998 L 6.708854318201945 74.30351562499999 L 5.1273933703088534 72.2953125 L 3.6569712552352627 70.287109375 L 2.3287060114440283 68.27890624999999 L 1.1700544323607396 66.27070312499998 L 0.20410491765999517 64.26249999999999 L -0.551017167626501 62.254296875 L -1.082616311225503 60.24609375 L -1.383753826077994 58.23789062499999 L -1.4534265559714452 56.2296875 L -1.2965927117914777 54.221484374999996 L -0.9240441729812785 52.213281249999994 L -0.35212854307997166 50.205078125 L 0.39767188221056315 48.196875 L 1.299293390768283 46.188671875 L 2.3227621240065144 44.18046875 L 3.434966052509117 42.172265624999994 L 4.600507775140885 40.16406249999999 L 5.782616177823352 38.15585937499999 L 6.9440934722373235 36.14765625 L 8.0482732235049 34.139453124999996 L 9.05996469288305 32.131249999999994 L 9.946359173956965 30.123046875 L 10.677874979677693 28.11484375 L 11.228919317633629 26.106640624999997 L 11.578547431486028 24.0984375 L 11.711002032404954 22.090234375 L 11.616119127468625 20.082031249999996 L 11.289589792930558 18.073828125 L 10.733071150393592 16.065624999999997 L 9.954143687703395 14.057421875 L 8.966116023760375 12.04921875 L 7.7876821455250855 10.041015624999998 L 6.442439945065583 8.032812499999999 L 4.958283456707509 6.024609375 L 3.366684447196964 4.016406249999999 L 1.7018818614953244 2.0082031249999996 L 0 0 L 0.97625 0 L 1.9525 0 L 2.92875 0 L 3.905 0 L 4.88125 0 L 5.8575 0 L 6.83375 0 L 7.81 0 L 8.786249999999999 0 L 9.7625 0 L 10.73875 0 L 11.715 0 L 12.69125 0 L 13.6675 0 L 14.64375 0 L 15.62 0 L 17.298394956963023 2.0367187499999995 L 18.938115721112762 4.073437499999999 L 20.501512576878486 6.110156249999998 L 21.95295762482871 8.146874999999998 L 23.259788562769465 10.183593749999996 L 24.39317390833469 12.220312499999997 L 25.32887674336986 14.257031249999997 L 26.047896748562152 16.293749999999996 L 26.536973520855007 18.330468749999994 L 26.788937840796457 20.367187499999993 L 26.802901584768478 22.403906249999995 L 26.584281251332847 24.440624999999994 L 26.144654478481836 26.477343749999992 L 25.501453352643992 28.514062499999994 L 24.677502633672486 30.550781249999993 L 23.70041512821078 32.58749999999999 L 22.60186022796191 34.62421874999999 L 21.41672498924245 36.66093749999999 L 20.182189976777632 38.69765624999999 L 18.936744352584796 40.734374999999986 L 17.719166300186444 42.771093749999984 L 16.567495792659493 44.80781249999999 L 15.518026915838714 46.84453124999999 L 14.604346439977249 48.88124999999999 L 13.8564441080481 50.917968749999986 L 13.299918209100685 52.954687499999984 L 12.955297480990472 54.99140624999999 L 12.837497305241211 57.02812499999999 L 12.955424599407927 59.06484374999998 L 13.311741873320315 61.101562499999986 L 13.902796699343646 63.13828124999999 L 14.718718464986122 65.17499999999998 Q 15.14047818330319 66.07499999999999 15.668786954489097 67.10937499999999 Q 16.245890739807017 68.14374999999998 16.94847962331827 69.31249999999999 Q 17.319958489944334 69.896875 17.725517369313167 70.51484375 Q 18.14424505590824 71.13281249999999 18.598166212916915 71.784375 Q 19.06466589003805 72.4359375 19.566758805351952 73.12109375 Q 20.08020683565202 73.80625 20.62877672560102 74.525 Q 21.187987822100144 75.24375 21.754446501930477 75.962890625 Q 22.32700113517941 76.68203125 22.903464371205963 77.40156249999998 Q 23.48263861420968 78.12109374999999 24.06231125031367 78.84101562499998 Q 24.64126480996203 79.56093749999997 25.217280318180908 80.28124999999997 Q 25.789146903383756 81.00156249999998 26.35465832076709 81.72226562499998 Q 26.91263679796373 82.44296874999996 27.460907847472658 83.16406249999997 Q 27.9983529741482 83.88515624999997 28.5228481564328 84.60664062499998 Q 29.033359680366804 85.32812499999997 29.527832128433634 86.04999999999997 Q 30.004811420867387 86.76874999999997 30.43906911350043 87.45390624999999 Q 30.855641811004162 88.1390625 31.23070966709835 88.79062499999998 Q 31.58790168016541 89.44218749999997 31.905527172781326 90.06015624999998 Q 32.205634044394316 90.678125 32.46866045555992 91.26249999999999 Q 32.94404254270336 92.43124999999999 33.28884779466176 93.46562499999999 Q 33.57637953148375 94.5 33.75916774039538 95.39999999999999 L 33.75916774039538 95.39999999999999 Q 33.63137953148375 94.5 33.440088812260456 93.47031249999999 Q 33.19203378776587 92.44062499999998 32.85574239895072 91.28124999999999 Q 32.453553243171136 90.12187499999999 31.941393180992307 88.83281249999999 Q 31.658585012466506 88.18828124999999 31.34527597479797 87.51132812499998 Q 31.014611271806643 86.83437499999997 30.6522835483392 86.12499999999997 Q 30.276599377521517 85.41874999999997 29.886740659814556 84.71210937499997 Q 29.483253493571258 84.00546874999998 29.068422870274272 83.29843749999998 Q 28.642896431826916 82.59140624999999 28.209024635223514 81.88398437499998 Q 27.76753470671941 81.17656249999999 27.320826745269358 80.46874999999999 Q 26.869684482943686 79.76093749999998 26.416541109423445 79.05273437499999 Q 25.962212954951042 78.34453124999997 25.509149229217936 77.63593749999998 Q 25.05817442673825 76.92734374999998 24.61173640355941 76.21835937499998 Q 24.170643169966578 75.50937499999998 23.73732377392979 74.79999999999997 Q 23.312545194915927 74.09062499999997 22.91863534221477 73.41367187499998 Q 22.535246863615317 72.73671874999998 22.183340974686182 72.09218749999998 Q 21.843234825038937 71.44765624999998 21.53439124063439 70.83554687499998 Q 21.238020399505338 70.22343749999997 20.972001743019383 69.64374999999998 Q 20.478547801620934 68.48437499999997 20.096958497956123 67.45468749999998 Q 19.76267595245552 66.42499999999998 19.52296716989443 65.52499999999998 L 19.52296716989443 65.52499999999998 L 19.10826660869401 63.47734374999998 L 18.918594243209654 61.429687499999986 L 18.964994182931697 59.38203125 L 19.252189800265302 57.334374999999994 L 19.778457264212882 55.28671874999999 L 20.535671695226945 53.23906249999999 L 21.509524705456624 51.191406249999986 L 22.67990749983881 49.14374999999999 L 24.02144928066276 47.096093749999994 L 25.50419654005141 45.04843749999999 L 27.094415052587713 43.00078124999999 L 28.755493095069504 40.953124999999986 L 30.4489217100622 38.90546874999999 L 32.13532576710337 36.85781249999999 L 33.775518215327246 34.81015624999999 L 35.331549300336874 32.76249999999999 L 36.7677226529816 30.714843749999993 L 38.051551044688395 28.667187499999997 L 39.15462621939864 26.619531249999994 L 40.05337951272425 24.571874999999995 L 40.72971289306424 22.524218749999996 L 41.171483528819806 20.476562499999993 L 41.37282890762399 18.428906249999994 L 41.33432380265461 16.381249999999994 L 41.06296488332313 14.333593749999999 L 40.571983382382015 12.285937499999998 L 39.880490835210104 10.238281249999996 L 39.01296737645834 8.190624999999997 L 37.9986062946988 6.142968749999999 L 36.87053239435179 4.095312499999999 L 35.66491509292288 2.0476562499999993 L 34.42 0 L 34.42 0 Z" fill="black" stroke="black" />
				</svg>