<svg
					xmlns="http://www.w3.org/2000/svg" xmlns:xlink="http://www.w3.org/1999/xlink"
					style="
						overflow: visible;
						height: 100;
					"
					viewBox="0 0 52.97534145483279 128.52499999999998"
				>
					<path d="M 15.12 0 L 16.465083104915013 1.4906249999999999 L 17.794958173362463 2.9812499999999997 L 19.09463317954301 4.471875 L 20.349545050838998 5.9624999999999995 L 21.545766517597762 7.453124999999999 L 22.670203932148553 8.94375 L 23.71078324728763 10.434375 L 24.656621512645273 11.924999999999999 L 25.49818145304881 13.415624999999999 L 26.227406933293977 14.906249999999998 L 26.837837385221153 16.396875 L 27.32469957180657 17.8875 L 27.6849753848771 19.378125 L 27.917444713469003 20.86875 L 28.022702773940537 22.359375 L 28.00315165568641 23.849999999999998 L 27.862966202536278 25.340624999999996 L 27.60803471444844 26.831249999999997 L 27.245875311755036 28.321875 L 26.785529149897577 29.812499999999996 L 26.23743200140055 31.303124999999994 L 25.61326602909663 32.79375 L 24.92579385597491 34.284375 L 24.188677288477233 35.775 L 23.41628326804591 37.265625 L 22.623479807132476 38.75625 L 21.82542480813485 40.246874999999996 L 21.03735076481935 41.7375 L 20.27434840426789 43.22812499999999 L 19.55115234243924 44.71875 L 18.881931797832493 46.209375 L 18.280089335896744 47.699999999999996 L 19.43318179783249 46.209375 L 20.65365234243924 44.71875 L 21.928098404267885 43.22812499999999 L 23.242350764819353 41.7375 L 24.581674808134856 40.246874999999996 L 25.93097980713248 38.75625 L 27.27503326804591 37.265625 L 28.598677288477234 35.775 L 29.88704385597491 34.284375 L 31.125766029096624 32.79375 L 32.30118200140055 31.303124999999994 L 33.40052914989758 29.812499999999996 L 34.41212531175504 28.321875 L 35.32553471444844 26.831249999999997 L 36.13171620253628 25.340624999999996 L 36.82315165568641 23.849999999999998 L 37.39395277394054 22.359375 L 37.839944713469 20.86875 L 38.1587253848771 19.378125 L 38.349699571806575 17.8875 L 38.41408738522116 16.396875 L 38.35490693329398 14.906249999999998 L 38.176931453048816 13.415624999999999 L 37.88662151264527 11.924999999999999 L 37.49203324728763 10.434375 L 37.00270393214855 8.94375 L 36.429516517597754 7.453124999999999 L 35.784545050839 5.9624999999999995 L 35.08088317954301 4.471875 L 34.33245817336246 2.9812499999999997 L 33.553833104915014 1.4906249999999999 L 32.76 0 L 33.700625 0 L 34.64125 0 L 35.581875 0 L 36.522499999999994 0 L 37.46312499999999 0 L 38.403749999999995 0 L 39.344375 0 L 40.285 0 L 41.225624999999994 0 L 42.16625 0 L 43.106875 0 L 44.0475 0 L 44.988125 0 L 45.92875 0 L 46.869375000000005 0 L 47.81 0 L 48.425094280836696 1.2234374999999997 L 49.03177039533892 2.4468749999999995 L 49.621690754772786 3.670312499999999 L 50.18667815432719 4.893749999999999 L 50.71879404426181 6.117187499999998 L 51.210414516679634 7.340624999999998 L 51.65430328058836 8.564062499999999 L 52.04368092674292 9.787499999999998 L 52.372289819274904 11.010937499999997 L 52.63445399297464 12.234374999999996 L 52.825133482896916 13.457812499999998 L 52.93997256625427 14.681249999999997 L 52.97534145483279 15.904687499999996 L 52.92837103885596 17.128124999999997 L 52.79698034973276 18.351562499999996 L 52.5798964788202 19.574999999999996 L 52.27666676154035 20.79843749999999 L 51.88766311022723 22.021874999999994 L 51.414078454230015 23.245312499999997 L 50.857915321347384 24.468749999999993 L 50.22196666989016 25.692187499999992 L 49.50978915484518 26.915624999999995 L 48.72566908403331 28.139062499999994 L 47.874581390124675 29.362499999999994 L 46.96214201122592 30.585937499999993 L 45.99455413584616 31.809374999999992 L 44.97854882677801 33.03281249999999 L 43.921320592234146 34.256249999999994 L 42.830458520944134 35.47968749999999 L 41.71387364037762 36.70312499999999 L 40.57972319341143 37.926562499999996 L 39.43633255825461 39.14999999999999 L 38.29211555900378 40.37343749999999 L 37.15549392960591 41.59687499999998 L 36.034816702109026 42.82031249999999 L 34.93828029080605 44.04374999999999 L 33.87385003721616 45.26718749999999 L 32.849183966864764 46.490624999999994 L 31.871559487652647 47.71406249999999 L 30.947803731447628 48.937499999999986 L 30.084228205660402 50.16093749999999 L 29.286568380311007 51.384374999999984 L 28.559928788850748 52.607812499999994 L 27.90873416822754 53.83124999999999 L 27.336687105875388 55.054687499999986 L 26.846732599025902 56.27812499999999 L 26.441029865575253 57.50156249999999 L 26.120931676329402 58.72499999999999 L 25.886971406456738 59.94843749999998 L 25.73885793008987 61.171874999999986 L 25.67547840694482 62.39531249999999 L 25.694908934284424 63.618749999999984 L 25.794432962266814 64.84218749999998 L 25.97056729640954 66.06562499999998 L 26.219095438277105 67.28906249999999 L 26.535107945259316 68.51249999999999 L 26.9130494231216 69.73593749999998 L 27.34677170152098 70.95937499999998 L 27.829592683498227 72.18281249999998 L 28.354360305646715 73.40624999999999 L 28.913520996739322 74.62968749999999 L 29.499191979536345 75.85312499999999 L 30.10323672371086 77.07656249999998 L 30.71734282766579 78.29999999999998 L 31.845590093193824 79.86953124999998 L 32.95879136475182 81.43906249999999 L 34.03941902276877 83.00859374999999 L 35.070458326989225 84.578125 L 36.03567531761736 86.14765624999998 L 36.919872422886584 87.71718749999998 L 37.70912774845226 89.28671874999999 L 38.39101428093923 90.85624999999999 L 38.95479555423182 92.42578124999997 L 39.391594697693975 93.99531249999998 L 39.69453420461494 95.56484374999998 L 39.85884422019309 97.13437499999998 L 39.88193764403755 98.70390624999999 L 39.76345086468105 100.27343749999999 L 39.50524948472914 101.84296874999998 L 39.11139894650223 103.4125 L 38.58810052067638 104.98203125 L 37.94359366579725 106.55156249999999 L 37.188026296039794 108.12109374999999 L 36.3332949998788 109.690625 L 35.392857725465554 111.26015625 L 34.381521882023726 112.82968749999998 L 33.31521119365896 114.39921874999999 L 32.2107149765243 115.96874999999999 L 31.085423787032294 117.53828124999998 L 29.957055603395776 119.1078125 L 28.84337685183447 120.67734374999999 L 27.761922669955894 122.24687499999999 L 26.729720811830866 123.81640625 L 25.76302354194378 125.38593749999998 L 24.87705173941126 126.95546874999998 L 24.085755241609707 128.52499999999998 L 23.212630241609705 128.52499999999998 L 22.339505241609707 128.52499999999998 L 21.46638024160971 128.52499999999998 L 20.593255241609707 128.52499999999998 L 19.720130241609706 128.52499999999998 L 18.847005241609708 128.52499999999998 L 17.97388024160971 128.52499999999998 L 17.100755241609708 128.52499999999998 L 16.227630241609706 128.52499999999998 L 15.354505241609708 128.52499999999998 L 14.48138024160971 128.52499999999998 L 13.608255241609708 128.52499999999998 L 12.735130241609706 128.52499999999998 L 11.862005241609708 128.52499999999998 L 10.98888024160971 128.52499999999998 L 10.115755241609708 128.52499999999998 L 10.889076362959651 126.9890625 L 11.753339462736221 125.453125 L 12.695512076775543 123.91718749999998 L 13.70138692163367 122.38125 L 14.755796130173476 120.84531249999999 L 15.842839972060617 119.30937499999999 L 16.94612661022877 117.7734375 L 18.049019277959445 116.2375 L 19.13488714932413 114.7015625 L 20.187356120043777 113.165625 L 21.190555717170945 111.62968749999999 L 22.12935841437463 110.09374999999999 L 22.98960774412609 108.5578125 L 23.758331767018383 107.021875 L 24.423938679256047 105.48593749999998 L 24.976391608695387 103.94999999999999 L 25.40735996363695 102.4140625 L 25.710345052139594 100.878125 L 25.880778077607562 99.3421875 L 25.91608903294773 97.80625 L 25.815745454422856 96.2703125 L 25.581260450820693 94.734375 L 25.216169886864854 93.19843750000001 L 24.72597906492511 91.6625 L 24.11807970902862 90.12656249999999 L 23.401638502993094 88.590625 L 22.587458863446624 87.0546875 L 21.68781803209732 85.51874999999998 L 20.716281943783727 83.9828125 L 19.687500661962353 82.44687499999999 L 18.616987466317674 80.91093749999999 L 17.520884923694002 79.375 L 16.364039520208454 78.134765625 L 15.210062235201342 76.89453125 L 14.067703452107114 75.654296875 L 12.945599271440315 74.4140625 L 11.85218656363196 73.173828125 L 10.795619981550194 71.93359375 L 9.783691748993862 70.693359375 L 8.823755014142524 69.453125 L 7.9226515218802085 68.212890625 L 7.086644316428844 66.97265625 L 6.321356136247497 65.732421875 L 5.631714107162855 64.4921875 L 5.02190127774532 63.251953125 L 4.4953154736424885 62.01171875 L 4.054535875590771 60.771484375 L 3.7012976498532986 59.53125 L 3.4364748806264895 58.291015625 L 3.2600719722969966 57.05078125 L 3.171223606118877 55.810546875 L 3.1682032517371805 54.5703125 L 3.248440149836112 53.330078125 L 3.408544598865607 52.08984375 L 3.6443412971187596 50.849609375 L 3.9509104121979686 49.609375 L 4.322635973898582 48.369140625 L 4.753261114503927 47.12890625 L 5.235949613132183 45.888671875 L 5.763353138767284 44.6484375 L 6.327683530552152 43.408203125 L 6.920789404374453 42.16796875 L 7.5342363322205665 40.927734375 L 8.159389805630626 39.6875 L 8.78750016720224 38.447265625 L 9.409788674732303 37.20703125 L 10.01753385144521 35.966796875 L 10.602157272941916 34.7265625 L 11.155307947044761 33.486328125 L 11.668944456553639 32.24609375 L 12.135414056933895 31.005859375 L 12.547527950908254 29.765625 L 12.898631999530377 28.525390625 L 13.182672174205607 27.28515625 L 13.394254105854017 26.044921875 L 13.52869614547313 24.8046875 L 13.582075414181372 23.564453125 L 13.551266389780807 22.32421875 L 13.43397165029064 21.083984375 L 13.228744472049318 19.84375 L 12.935003060103718 18.603515625 L 12.553036270911326 17.36328125 L 12.084000771065199 16.123046875 L 11.52990965998934 14.8828125 L 10.893612668514896 13.642578125 L 10.178768128109711 12.40234375 L 9.389806986479867 11.162109375 L 8.531889223496165 9.921875 L 7.610853096150949 8.681640625 L 6.633157711786453 7.44140625 L 5.605819494460922 6.201171875 L 4.536343169387509 4.9609375 L 3.4326479443028637 3.720703125 L 2.3029896138666315 2.48046875 L 1.1558793532953704 1.240234375 L 0 0 L 0.945 0 L 1.89 0 L 2.835 0 L 3.78 0 L 4.725 0 L 5.67 0 L 6.615 0 L 7.56 0 L 8.504999999999999 0 L 9.45 0 L 10.395 0 L 11.34 0 L 12.285 0 L 13.23 0 L 14.175 0 L 15.12 0 L 15.12 0 Z" fill="black" stroke="black" />
				</svg>