<svg
					xmlns="http://www.w3.org/2000/svg" xmlns:xlink="http://www.w3.org/1999/xlink"
					style="
						overflow: visible;
						height: 100;
					"
					viewBox="-5.544434034209398 0 55.973315625759035 77.115"
				>
					<path d="M 37.1555659657906 34.245 L 36.548065965790606 34.245 L 35.940565965790604 34.245 L 35.3330659657906 34.245 L 34.7255659657906 34.245 L 34.1180659657906 34.245 L 33.5105659657906 34.245 L 32.903065965790596 34.245 L 32.2955659657906 34.245 L 31.688065965790607 34.245 L 31.080565965790605 34.245 L 30.473065965790603 34.245 L 29.8655659657906 34.245 L 29.2580659657906 34.245 L 28.650565965790598 34.245 L 28.043065965790596 34.245 L 27.4355659657906 34.245 L 27.215004937457838 35.35124999999999 L 27.168178474378227 36.457499999999996 L 27.29317172648201 37.56375 L 27.58433846345655 38.66999999999999 L 28.032423692993127 39.77624999999999 L 28.62476464991913 40.882499999999986 L 29.34556579136802 41.98874999999999 L 30.1762418259627 43.094999999999985 L 30.7118668259627 43.094999999999985 L 31.247491825962697 43.094999999999985 L 31.7831168259627 43.094999999999985 L 32.318741825962704 43.094999999999985 L 32.8543668259627 43.094999999999985 L 33.3899918259627 43.094999999999985 L 33.925616825962706 43.094999999999985 L 34.4612418259627 43.094999999999985 L 34.9968668259627 43.094999999999985 L 35.5324918259627 43.094999999999985 L 36.068116825962704 43.094999999999985 L 36.6037418259627 43.094999999999985 L 37.139366825962696 43.094999999999985 L 37.6749918259627 43.094999999999985 L 38.2106168259627 43.094999999999985 L 38.7462418259627 43.094999999999985 L 39.537350571705375 43.93218749999998 L 40.36956808207107 44.76937499999998 L 41.23253557254706 45.60656249999999 L 42.11551150721998 46.44374999999999 L 43.007505300908335 47.280937499999986 L 43.89741412126311 48.11812499999999 L 44.7741610880322 48.955312499999984 L 45.6268331492937 49.79249999999999 L 46.44481691848385 50.629687499999996 L 47.217930781427974 51.46687499999999 L 47.93655162901063 52.304062499999986 L 48.59173463801705 53.14124999999999 L 49.17532460920885 53.9784375 L 49.68005747678584 54.815625 L 50.09965072572449 55.65281249999999 L 50.42888159154964 56.489999999999995 L 49.78950659154964 56.489999999999995 L 49.15013159154964 56.489999999999995 L 48.51075659154964 56.489999999999995 L 47.871381591549635 56.489999999999995 L 47.232006591549634 56.489999999999995 L 46.59263159154963 56.489999999999995 L 45.95325659154963 56.489999999999995 L 45.31388159154964 56.489999999999995 L 44.674506591549644 56.489999999999995 L 44.03513159154964 56.489999999999995 L 43.39575659154964 56.489999999999995 L 42.75638159154964 56.489999999999995 L 42.11700659154964 56.489999999999995 L 41.47763159154964 56.489999999999995 L 40.83825659154964 56.489999999999995 L 40.198881591549636 56.489999999999995 L 40.35816609706005 57.779062499999995 L 40.28435462780945 59.068124999999995 L 39.97485209556898 60.357187499999995 L 39.4340088422783 61.646249999999995 L 38.67299244258341 62.935312499999995 L 37.70945861367564 64.224375 L 36.56703093018087 65.5134375 L 35.27460467605009 66.8025 L 33.86549534779785 68.0915625 L 32.37645690130527 69.380625 L 30.84659867284905 70.6696875 L 29.316232890922194 71.95875 L 27.82568674078841 73.2478125 L 26.414113988284935 74.536875 L 25.11834118237682 75.8259375 L 23.971782436986405 77.115 L 23.382407436986405 77.115 L 22.793032436986408 77.115 L 22.203657436986408 77.115 L 21.614282436986407 77.115 L 21.024907436986407 77.115 L 20.435532436986406 77.115 L 19.846157436986406 77.115 L 19.256782436986406 77.115 L 18.667407436986405 77.115 L 18.078032436986405 77.115 L 17.488657436986404 77.115 L 16.899282436986404 77.115 L 16.309907436986403 77.115 L 15.720532436986403 77.115 L 15.131157436986406 77.115 L 14.541782436986406 77.115 L 15.68834118237682 75.8259375 L 16.984113988284935 74.536875 L 18.39568674078841 73.2478125 L 19.886232890922194 71.95875 L 21.41659867284905 70.6696875 L 22.946456901305268 69.380625 L 24.435495347797843 68.0915625 L 25.844604676050093 66.8025 L 27.13703093018087 65.5134375 L 28.279458613675644 64.224375 L 29.242992442583407 62.935312499999995 L 30.0040088422783 61.646249999999995 L 30.54485209556898 60.357187499999995 L 30.854354627809457 59.068124999999995 L 30.928166097060046 57.779062499999995 L 30.768881591549636 56.489999999999995 L 30.031381591549632 56.489999999999995 L 29.293881591549635 56.489999999999995 L 28.55638159154963 56.489999999999995 L 27.818881591549633 56.489999999999995 L 27.08138159154963 56.489999999999995 L 26.343881591549632 56.489999999999995 L 25.606381591549635 56.489999999999995 L 24.86888159154963 56.489999999999995 L 25.032541097060044 57.779062499999995 L 24.963104627809454 59.068124999999995 L 24.657977095568977 60.357187499999995 L 24.1215088422783 61.646249999999995 L 23.36486744258341 62.935312499999995 L 22.405708613675642 64.224375 L 21.267655930180865 65.5134375 L 19.97960467605009 66.8025 L 18.574870347797845 68.0915625 L 17.09020690130527 69.380625 L 15.56472367284905 70.6696875 L 14.038732890922194 71.95875 L 12.552561740788407 73.2478125 L 11.145363988284933 74.536875 L 9.85396618237682 75.8259375 L 8.711782436986404 77.115 L 8.126782436986403 77.115 L 7.541782436986405 77.115 L 6.956782436986406 77.115 L 6.371782436986405 77.115 L 5.786782436986404 77.115 L 5.201782436986405 77.115 L 4.616782436986406 77.115 L 4.031782436986405 77.115 L 3.446782436986404 77.115 L 2.861782436986405 77.115 L 2.276782436986406 77.115 L 1.691782436986406 77.115 L 1.106782436986406 77.115 L 0.521782436986407 77.115 L -0.06321756301359294 77.115 L -0.6482175630135929 77.115 L 0.49396618237682244 75.8259375 L 1.785363988284935 74.536875 L 3.19256174078841 73.2478125 L 4.6787328909221975 71.95875 L 6.204723672849054 70.6696875 L 7.730206901305271 69.380625 L 9.214870347797849 68.0915625 L 10.619604676050095 66.8025 L 11.907655930180871 65.5134375 L 13.045708613675647 64.224375 L 14.00486744258341 62.935312499999995 L 14.761508842278301 61.646249999999995 L 15.29797709556898 60.357187499999995 L 15.603104627809458 59.068124999999995 L 15.67254109706005 57.779062499999995 L 15.508881591549635 56.489999999999995 L 14.518881591549636 56.489999999999995 L 13.528881591549634 56.489999999999995 L 12.538881591549636 56.489999999999995 L 11.548881591549636 56.489999999999995 L 10.558881591549635 56.489999999999995 L 9.568881591549635 56.489999999999995 L 8.578881591549635 56.489999999999995 L 7.588881591549635 56.489999999999995 L 7.259650725724485 55.65281249999999 L 6.840057476785835 54.815625 L 6.335324609208848 53.9784375 L 5.751734638017046 53.14124999999999 L 5.096551629010625 52.304062499999986 L 4.37793078142797 51.46687499999999 L 3.6048169184838477 50.629687499999996 L 2.7868331492936957 49.79249999999999 L 1.9341610880321962 48.955312499999984 L 1.0574141212631099 48.11812499999999 L 0.1675053009083302 47.280937499999986 L -0.7244884927800269 46.44374999999999 L -1.6074644274529446 45.60656249999999 L -2.470431917928936 44.76937499999998 L -3.3026494282946306 43.93218749999998 L -4.093758174037303 43.094999999999985 L -3.491258174037303 43.094999999999985 L -2.888758174037303 43.094999999999985 L -2.2862581740373034 43.094999999999985 L -1.6837581740373033 43.094999999999985 L -1.0812581740373037 43.094999999999985 L -0.4787581740373037 43.094999999999985 L 0.12374182596269634 43.094999999999985 L 0.7262418259626964 43.094999999999985 L 1.3287418259626964 43.094999999999985 L 1.9312418259626956 43.094999999999985 L 2.5337418259626956 43.094999999999985 L 3.1362418259626956 43.094999999999985 L 3.7387418259626957 43.094999999999985 L 4.341241825962696 43.094999999999985 L 4.943741825962695 43.094999999999985 L 5.546241825962696 43.094999999999985 L 4.715565791368019 41.98874999999999 L 3.9947646499191247 40.882499999999986 L 3.402423692993122 39.77624999999999 L 2.9543384634565477 38.66999999999999 L 2.66317172648201 37.56375 L 2.5381784743782267 36.457499999999996 L 2.5850049374578337 35.35124999999999 L 2.805565965790601 34.245 L 2.2836909657906013 34.245 L 1.7618159657906016 34.245 L 1.239940965790602 34.245 L 0.7180659657906023 34.245 L 0.1961909657906027 34.245 L -0.32568403420939784 34.245 L -0.8475590342093984 34.245 L -1.369434034209398 34.245 L -1.8913090342093977 34.245 L -2.413184034209398 34.245 L -2.9350590342093987 34.245 L -3.4569340342093984 34.245 L -3.978809034209398 34.245 L -4.500684034209398 34.245 L -5.022559034209398 34.245 L -5.544434034209398 34.245 L -5.359546333041614 33.387187499999996 L -5.073653665830817 32.529374999999995 L -4.690491902432678 31.671562499999993 L -4.215067965534954 30.813749999999995 L -3.6535944032657452 29.955937499999997 L -3.013408207428645 29.098124999999996 L -2.302874938198297 28.24031249999999 L -1.5312794081159327 27.382499999999993 L -0.7087043538593529 26.524687499999995 L 0.15410131876984678 25.66687499999999 L 1.0458629949481395 24.80906249999999 L 1.9549276805747042 23.95124999999999 L 2.8694162764442 23.09343749999999 L 3.7773788070221324 22.23562499999999 L 4.66695057538867 21.37781249999999 L 5.526507203813834 20.51999999999999 L 6.156507203813835 20.51999999999999 L 6.786507203813834 20.51999999999999 L 7.416507203813834 20.51999999999999 L 8.046507203813833 20.51999999999999 L 8.676507203813834 20.51999999999999 L 9.306507203813833 20.51999999999999 L 9.936507203813834 20.51999999999999 L 10.566507203813833 20.51999999999999 L 11.196507203813834 20.51999999999999 L 11.826507203813835 20.51999999999999 L 12.456507203813835 20.51999999999999 L 13.086507203813834 20.51999999999999 L 13.716507203813833 20.51999999999999 L 14.346507203813834 20.51999999999999 L 14.976507203813835 20.51999999999999 L 15.606507203813834 20.51999999999999 L 16.968865144167193 19.23749999999999 L 18.204002863979987 17.95499999999999 L 19.280485868811688 16.672499999999992 L 20.17150759312992 15.389999999999992 L 20.85567134290556 14.107499999999991 L 21.317614433249265 12.824999999999992 L 21.548456315109238 11.542499999999993 L 21.546057619256658 10.259999999999994 L 21.315082561293313 8.977499999999996 L 20.866862887338804 7.694999999999996 L 20.219067329076687 6.412499999999996 L 19.395186210095076 5.129999999999997 L 18.42384623746026 3.847499999999998 L 17.337975465927222 2.5649999999999986 L 16.17384279262779 1.2824999999999993 L 14.969999999999999 0 L 15.559375 0 L 16.14875 0 L 16.738125 0 L 17.3275 0 L 17.916875 0 L 18.50625 0 L 19.095625 0 L 19.685 0 L 20.274375 0 L 20.863749999999996 0 L 21.453124999999996 0 L 22.042499999999997 0 L 22.631874999999997 0 L 23.221249999999998 0 L 23.810624999999998 0 L 24.4 0 L 25.599467792627788 1.2824999999999993 L 26.759225465927223 2.5649999999999986 L 27.84072123746026 3.847499999999998 L 28.807686210095074 5.129999999999997 L 29.627192329076685 6.412499999999996 L 30.270612887338803 7.694999999999996 L 30.71445756129331 8.977499999999996 L 30.941057619256654 10.259999999999994 L 30.939081315109235 11.542499999999993 L 30.70386443324926 12.824999999999992 L 30.23754634290556 14.107499999999991 L 29.549007593129918 15.389999999999992 L 28.653610868811683 16.672499999999992 L 27.572752863979986 17.95499999999999 L 26.333240144167192 19.23749999999999 L 24.966507203813833 20.51999999999999 L 25.695257203813835 20.51999999999999 L 26.424007203813833 20.51999999999999 L 27.152757203813835 20.51999999999999 L 27.881507203813836 20.51999999999999 L 28.610257203813834 20.51999999999999 L 29.339007203813836 20.51999999999999 L 30.067757203813837 20.51999999999999 L 30.796507203813835 20.51999999999999 L 32.158865144167194 19.23749999999999 L 33.394002863979985 17.95499999999999 L 34.470485868811686 16.672499999999992 L 35.36150759312992 15.389999999999992 L 36.045671342905564 14.107499999999991 L 36.507614433249266 12.824999999999992 L 36.73845631510924 11.542499999999993 L 36.736057619256655 10.259999999999994 L 36.50508256129331 8.977499999999996 L 36.05686288733881 7.694999999999996 L 35.40906732907669 6.412499999999996 L 34.585186210095074 5.129999999999997 L 33.61384623746026 3.847499999999998 L 32.52797546592722 2.5649999999999986 L 31.36384279262779 1.2824999999999993 L 30.16 0 L 30.75 0 L 31.340000000000003 0 L 31.930000000000003 0 L 32.52 0 L 33.11 0 L 33.7 0 L 34.290000000000006 0 L 34.88 0 L 35.47 0 L 36.06 0 L 36.650000000000006 0 L 37.24 0 L 37.83 0 L 38.42 0 L 39.010000000000005 0 L 39.6 0 L 40.79884279262779 1.2824999999999993 L 41.95797546592723 2.5649999999999986 L 43.03884623746026 3.847499999999998 L 44.005186210095076 5.129999999999997 L 44.82406732907669 6.412499999999996 L 45.466862887338806 7.694999999999996 L 45.91008256129331 8.977499999999996 L 46.136057619256654 10.259999999999994 L 46.133456315109235 11.542499999999993 L 45.89761443324926 12.824999999999992 L 45.43067134290556 14.107499999999991 L 44.741507593129924 15.389999999999992 L 43.845485868811686 16.672499999999992 L 42.76400286397999 17.95499999999999 L 41.523865144167196 19.23749999999999 L 40.15650720381383 20.51999999999999 L 40.66088220381383 20.51999999999999 L 41.16525720381383 20.51999999999999 L 41.66963220381383 20.51999999999999 L 42.17400720381383 20.51999999999999 L 42.678382203813825 20.51999999999999 L 43.18275720381383 20.51999999999999 L 43.68713220381383 20.51999999999999 L 44.19150720381383 20.51999999999999 L 44.695882203813824 20.51999999999999 L 45.20025720381383 20.51999999999999 L 45.70463220381383 20.51999999999999 L 46.209007203813826 20.51999999999999 L 46.71338220381383 20.51999999999999 L 47.21775720381383 20.51999999999999 L 47.72213220381383 20.51999999999999 L 48.22650720381383 20.51999999999999 L 47.36695057538867 21.37781249999999 L 46.477378807022134 22.23562499999999 L 45.5694162764442 23.09343749999999 L 44.6549276805747 23.95124999999999 L 43.74586299494814 24.80906249999999 L 42.85410131876985 25.66687499999999 L 41.99129564614065 26.524687499999995 L 41.16872059188407 27.382499999999993 L 40.3971250618017 28.24031249999999 L 39.686591792571356 29.098124999999996 L 39.04640559673425 29.955937499999997 L 38.48493203446505 30.813749999999995 L 38.00950809756732 31.671562499999993 L 37.626346334169185 32.529374999999995 L 37.34045366695839 33.387187499999996 L 37.1555659657906 34.245 L 37.1555659657906 34.245 Z M 12.1655659657906 34.245 L 11.945004937457835 35.35124999999999 L 11.898178474378227 36.457499999999996 L 12.023171726482008 37.56375 L 12.314338463456547 38.66999999999999 L 12.762423692993124 39.77624999999999 L 13.354764649919124 40.882499999999986 L 14.075565791368017 41.98874999999999 L 14.906241825962697 43.094999999999985 L 15.636241825962697 43.094999999999985 L 16.366241825962696 43.094999999999985 L 17.0962418259627 43.094999999999985 L 17.826241825962697 43.094999999999985 L 18.5562418259627 43.094999999999985 L 19.286241825962698 43.094999999999985 L 20.016241825962695 43.094999999999985 L 20.7462418259627 43.094999999999985 L 19.91556579136802 41.98874999999999 L 19.194764649919122 40.882499999999986 L 18.60242369299312 39.77624999999999 L 18.154338463456547 38.66999999999999 L 17.863171726482012 37.56375 L 17.738178474378227 36.457499999999996 L 17.78500493745783 35.35124999999999 L 18.005565965790602 34.245 L 17.275565965790598 34.245 L 16.5455659657906 34.245 L 15.815565965790602 34.245 L 15.085565965790602 34.245 L 14.355565965790602 34.245 L 13.625565965790601 34.245 L 12.8955659657906 34.245 L 12.1655659657906 34.245 L 12.1655659657906 34.245 Z" fill="black" stroke="black" />
				</svg>