<svg
					xmlns="http://www.w3.org/2000/svg" xmlns:xlink="http://www.w3.org/1999/xlink"
					style="
						overflow: visible;
						height: 100;
					"
					viewBox="0 0 27.85301680499487 16.425000000000004"
				>
					<path d="M 26.384727139406362 16.425000000000004 L 25.76378963940636 16.425000000000004 L 25.14285213940636 16.425000000000004 L 24.52191463940636 16.425000000000004 L 23.90097713940636 16.425000000000004 L 23.28003963940636 16.425000000000004 L 22.65910213940636 16.425000000000004 L 22.03816463940636 16.425000000000004 L 21.417227139406364 16.425000000000004 L 20.796289639406364 16.425000000000004 L 20.175352139406364 16.425000000000004 L 19.554414639406364 16.425000000000004 L 18.933477139406364 16.425000000000004 L 18.312539639406364 16.425000000000004 L 17.691602139406363 16.425000000000004 L 17.070664639406363 16.425000000000004 L 16.449727139406363 16.425000000000004 L 15.828789639406363 16.425000000000004 L 15.207852139406363 16.425000000000004 L 14.586914639406363 16.425000000000004 L 13.965977139406364 16.425000000000004 L 13.345039639406366 16.425000000000004 L 12.724102139406366 16.425000000000004 L 12.103164639406366 16.425000000000004 L 11.482227139406366 16.425000000000004 L 10.861289639406365 16.425000000000004 L 10.240352139406365 16.425000000000004 L 9.619414639406365 16.425000000000004 L 8.998477139406365 16.425000000000004 L 8.377539639406365 16.425000000000004 L 7.756602139406365 16.425000000000004 L 7.135664639406365 16.425000000000004 L 6.514727139406365 16.425000000000004 L 7.087337487979354 15.398437500000005 L 7.527375399963789 14.371875000000003 L 7.826609730972648 13.345312500000002 L 7.979443142874357 12.318750000000003 L 7.983016804994871 11.292187500000002 L 7.837263870073753 10.265625000000004 L 7.544910724677918 9.239062500000003 L 7.111425990683381 8.212500000000002 L 6.5449182317795485 7.185937500000001 L 5.8559842784505864 6.159375000000002 L 5.057511008596173 5.132812500000002 L 4.164434291591088 4.106250000000001 L 3.1934596048638704 3.079687500000001 L 2.162749549010801 2.0531250000000005 L 1.0915841066420686 1.0265625000000003 L 0 0 L 0.6209374999999999 0 L 1.2418749999999998 0 L 1.8628124999999998 0 L 2.4837499999999997 0 L 3.1046875 0 L 3.7256249999999995 0 L 4.346562499999999 0 L 4.967499999999999 0 L 5.5884374999999995 0 L 6.209375 0 L 6.8303125 0 L 7.451249999999999 0 L 8.072187499999998 0 L 8.693124999999998 0 L 9.314062499999999 0 L 9.934999999999999 0 L 10.555937499999999 0 L 11.176874999999999 0 L 11.7978125 0 L 12.41875 0 L 13.0396875 0 L 13.660625 0 L 14.2815625 0 L 14.902499999999998 0 L 15.523437499999996 0 L 16.144374999999997 0 L 16.765312499999997 0 L 17.386249999999997 0 L 18.007187499999997 0 L 18.628124999999997 0 L 19.249062499999997 0 L 19.869999999999997 0 L 20.961584106642064 1.0265625000000003 L 22.0327495490108 2.0531250000000005 L 23.06345960486387 3.079687500000001 L 24.034434291591086 4.106250000000001 L 24.92751100859617 5.132812500000002 L 25.725984278450582 6.159375000000002 L 26.414918231779545 7.185937500000001 L 26.981425990683377 8.212500000000002 L 27.414910724677917 9.239062500000003 L 27.70726387007375 10.265625000000004 L 27.85301680499487 11.292187500000002 L 27.849443142874353 12.318750000000003 L 27.696609730972646 13.345312500000002 L 27.397375399963785 14.371875000000003 L 26.957337487979352 15.398437500000005 L 26.384727139406362 16.425000000000004 L 26.384727139406362 16.425000000000004 Z" fill="black" stroke="black" />
				</svg>