<svg
					xmlns="http://www.w3.org/2000/svg" xmlns:xlink="http://www.w3.org/1999/xlink"
					style="
						overflow: visible;
						height: 100;
					"
					viewBox="-7.392321896266531 0 53.37479388683691 88.35000000000001"
				>
					<path d="M 9.887647412752042 88.35000000000001 L 9.135268386530502 87.27000000000001 L 8.515675542428815 86.19 L 8.041694571870183 85.10999999999999 L 7.723136972399702 84.03 L 7.566596947792024 82.94999999999999 L 7.575314906760889 81.86999999999999 L 7.749110385873518 80.78999999999998 L 8.084385785178474 79.70999999999998 Q 7.8022891973501345 79.69593749999999 7.5263069049646845 79.67835937499999 Q 7.2503655554174955 79.66078124999999 6.980571177649656 79.6396875 Q 6.710835638235689 79.61859374999999 6.447286161325961 79.59398437499999 Q 6.183816575251038 79.56937500000001 5.926578487728862 79.54124999999999 Q 5.669444449176333 79.51312499999999 5.41859360737878 79.481484375 Q 5.1678740168968575 79.44984374999999 4.923495485070069 79.41468749999999 Q 4.679278378599269 79.37953124999999 4.441466241302822 79.34085937500001 Q 4.203848590449616 79.3021875 3.972705734719196 79.26 Q 3.511110439107065 79.17562500000001 3.0758760959256186 79.07718750000001 Q 2.6418814927781993 78.97875 2.2349400729469755 78.86625000000001 Q 1.8295951522896425 78.75375000000003 1.4520762314468518 78.62718750000002 Q 1.076543312921313 78.50062500000001 0.7296807874643205 78.36000000000001 Q 0.3875427543634693 78.21750000000002 0.0607807759719714 78.06234375000001 Q -0.26313113971540236 77.90718749999999 -0.5708163080790039 77.739375 Q -0.8752661256093397 77.5715625 -1.1626196801149273 77.39109375 Q -1.4463622550428106 77.210625 -1.7121362318661344 77.0175 Q -1.973945555215474 76.824375 -2.2169296319494594 76.61859375 Q -2.4556314695072197 76.4128125 -2.6746882372815244 76.19437500000001 Q -2.889197296751067 75.97593750000001 -3.083302134716174 75.74484375 Q -3.27266383764283 75.51375 -3.4409493930397432 75.27000000000001 L -3.4409493930397432 75.27000000000001 L -2.4987228375840114 74.23781250000002 L -1.4874961462372416 73.20562500000001 L -0.4263923881459435 72.1734375 L 0.6645221541132588 71.14125 L 1.764617453264496 70.1090625 L 2.853089866906461 69.076875 L 3.9093555502808544 68.0446875 L 4.913439712499439 67.01249999999999 L 5.846354355097253 65.9803125 L 6.690457349587328 64.948125 L 7.429786063586105 63.9159375 L 8.05035922638467 62.88374999999999 L 8.540441325457286 61.85156249999998 L 8.890764533967255 60.81937499999998 L 9.094703972451565 59.78718749999998 L 9.14840299035183 58.75499999999998 Q 9.572487173900068 59.03812499999998 9.993193217585482 59.306953124999986 Q 10.403636932320403 59.57578124999999 10.812923545915655 59.83031249999999 Q 11.213067062967305 60.08484375 11.614183543078967 60.325078125 Q 12.007239426794591 60.5653125 12.403285241651165 60.791250000000005 Q 12.792299898348611 61.01718750000001 13.186192488239556 61.22882812500001 Q 13.574018483411379 61.44046875000001 13.96847101471672 61.63781250000001 Q 14.357748739020526 61.83515625000001 14.755256385525561 62.018203125000014 Q 15.148403641530228 62.20125000000002 15.551236985507 62.37000000000002 Q 15.950445106202835 62.538750000000014 16.345024310868126 62.69320312500002 Q 16.736634494786557 62.847656250000014 17.124782987539742 62.98781250000001 Q 17.51054163307517 63.12796875 17.893868145456437 63.253828125 Q 18.275310079519144 63.379687499999996 18.655218006948537 63.49125 Q 19.033676623020604 63.602812500000006 19.411374788603034 63.700078125000005 Q 19.787993230870036 63.79734375000001 20.164507257965013 63.88031250000001 Q 20.540249907197698 63.96328125000001 20.91643352153967 64.03195312500002 Q 21.292097151868184 64.10062500000001 21.668642843496087 64.15500000000002 L 21.668642843496087 64.15500000000002 L 22.200780074351183 63.32437500000002 L 22.651425093290396 62.49375000000001 L 23.015056133096678 61.66312500000001 L 23.287217611503934 60.83250000000001 L 23.464574725582906 60.00187500000001 L 23.54495431318364 59.17125000000001 L 23.527371480757818 58.340625 L 23.412041671289593 57.510000000000005 L 23.200378024466083 56.67937500000001 L 22.894974061433533 55.84875 L 22.499571906303277 55.018125 L 22.019016433790405 54.1875 L 21.459195904815534 53.356875 L 20.8269698174634 52.52625 L 20.1300848573428 51.69562499999999 L 19.377079977210606 50.864999999999995 Q 18.984555969462797 50.7440625 18.59185217573426 50.620136718750004 Q 18.198166686705527 50.4962109375 17.804271250409954 50.369296875 Q 17.40941520772946 50.242382812500004 17.014329177454748 50.11248046875001 Q 16.618311951330476 49.982578125 16.222055724402132 49.8496875 Q 15.824906657117912 49.716796875 15.427521522954024 49.58091796875 Q 15.029291475446364 49.445039062499994 14.630841171455433 49.306171875000004 Q 14.23160407829274 49.16730468750001 13.832176349058273 49.02544921875 Q 13.432030772090014 48.883593749999996 13.031738921508902 48.738749999999996 Q 12.630809591360975 48.59390625 12.229794016292214 48.446074218750006 Q 11.828233349762986 48.298242187499994 11.426663042607508 48.147421875 Q 11.024652622876069 47.996601562500004 10.622726629354531 47.842792968750004 Q 10.220478634755395 47.688984375000004 9.818427451989136 47.5321875 Q 9.416186017948654 47.375390624999994 9.014272916790715 47.21560546875 Q 8.612315414369371 47.05582031249999 8.210837668789686 46.893046874999996 Q 7.809475882146129 46.730273437499996 7.408765887361951 46.56451171874999 Q 7.008347071362788 46.39874999999999 6.608773331337873 46.22999999999999 Q 5.811160811054242 45.892499999999984 5.012566331693755 45.52874999999999 Q 4.21794327991793 45.16499999999999 3.425275530540969 44.77499999999999 Q 2.639270894504871 44.38499999999999 1.8591611706762126 43.96874999999999 Q 1.089112314317381 43.552499999999995 0.32999644297992425 43.10999999999999 Q -0.41492105540386603 42.66749999999999 -1.1427092558281644 42.19874999999999 Q -1.8514256998761498 41.72999999999999 -2.5356500247512104 41.23499999999999 Q -3.195247279692233 40.739999999999995 -3.821882848649848 40.21874999999999 Q -4.417771123331418 39.69749999999999 -4.971266095432183 39.14999999999999 Q -5.488771152543353 38.60249999999999 -5.950817845793479 38.015624999999986 Q -6.3669810300689615 37.428749999999994 -6.712733733679325 36.802499999999995 Q -7.003793149473462 36.176249999999996 -7.2089375225440655 35.510625 Q -7.3511264875251 34.845 -7.392321896266531 34.13999999999999 Q -7.363787935483406 33.43499999999999 -7.220887080339488 32.69062499999999 Q -7.121561539123506 32.31843749999999 -6.991627663306806 31.93640624999999 Q -6.843045309840067 31.554374999999993 -6.662863271783178 31.162499999999994 Q -6.464150746532616 30.770624999999992 -6.233186813202587 30.368906249999995 Q -5.984140816116195 29.967187499999998 -5.702587530996791 29.555625 Q -5.403771529538111 29.1440625 -5.072642861449307 28.72265625 Q -4.7254789898390515 28.30125 -4.346698758995247 27.869999999999997 L -4.346698758995247 27.869999999999997 Q -3.7819888259754832 27.254999999999995 -3.193949626017174 26.65927734375 Q -2.585664478995447 26.063554687499995 -1.9640010780349904 25.487109374999996 Q -1.3303455360198488 24.910664062499997 -0.6919343877542601 24.353496093749996 Q -0.04887432888160301 23.796328124999995 0.5917778745085818 23.2584375 Q 1.2307660571726107 22.720546874999997 1.8616868207032349 22.201933593749995 Q 2.485711854787865 21.683320312499994 3.0974875431494597 21.183984374999994 Q 3.6982113794634213 20.684648437499995 4.283899911696465 20.204589843749993 Q 4.855406329914962 19.724531249999995 5.410365376012314 19.263749999999995 Q 5.948956010796328 18.802968749999998 6.470612328736653 18.36146484375 Q 6.974554654743747 17.919960937499997 7.462137372113372 17.497734375 Q 7.931386013371833 17.0755078125 8.38564324741494 16.672558593749997 Q 8.821552402239476 16.269609374999998 9.24446697599036 15.885937499999999 Q 9.649508086325977 15.502265625 10.044024506850956 15.137871093749999 Q 10.421519785188865 14.773476562499997 10.79129129761714 14.428359374999998 Q 11.1451705175263 14.0832421875 11.49433206274691 13.757402343749998 Q 11.828917219892652 13.431562499999998 12.161887574991496 13.125 Q 12.48122050803699 12.817499999999999 12.796077374473697 12.526289062499998 Q 13.098934267454167 12.235078125 13.399904455969175 11.960156249999999 Q 13.690129470108229 11.685234374999999 13.980993493464698 11.4266015625 Q 14.2623556989145 11.16796875 14.546780107177312 10.925625 Q 14.822906717847022 10.683281249999999 15.104386796886338 10.457226562499999 Q 15.378712667038329 10.231171875 15.660530290895128 10.021406249999998 Q 15.936261739638825 9.811640624999999 16.22145638219506 9.618164062499998 Q 16.5015473122984 9.4246875 16.792898179300593 9.247499999999999 Q 17.08003645363595 9.070312499999998 17.38005373504016 8.909414062499998 Q 17.676655843728785 8.748515624999998 17.98757918637876 8.603906249999998 Q 18.29579135946601 8.459296875 18.619593802200065 8.330976562499998 Q 18.94129787886184 8.202656249999997 19.279693660429686 8.090625 Q 19.616516201903817 7.978593749999999 19.97097103391696 7.882851562499998 Q 20.324294352320578 7.787109374999997 20.696036935212508 7.707656249999998 Q 21.067010895775333 7.628203124999998 21.457044638480703 7.565039062499999 Q 21.846598272695907 7.501874999999998 22.255712351929986 7.454999999999998 L 22.255712351929986 7.454999999999998 L 21.66334165204076 6.5231249999999985 L 20.976714157160934 5.591249999999999 L 20.20641643527631 4.659374999999999 L 19.36432509963477 3.727499999999999 L 18.463423692610455 2.7956249999999994 L 17.517602502700544 1.8637499999999996 L 16.54144440111842 0.9318749999999998 L 15.55 0 L 16.378750000000004 0 L 17.207500000000003 0 L 18.036250000000003 0 L 18.865000000000002 0 L 19.69375 0 L 20.5225 0 L 21.35125 0 L 22.18 0 L 23.157550817541303 0.9187500000000011 L 24.12045059830858 1.8375000000000021 L 25.054267887849967 2.756250000000003 L 25.945007105369267 3.6750000000000043 L 26.779318302405727 4.593750000000005 L 27.544697245103237 5.512500000000006 L 28.22967282133718 6.4312500000000075 L 28.82397896393577 7.3500000000000085 Q 29.110028533413416 7.369687500000008 29.39546670681005 7.3936523437500075 Q 29.680836781433076 7.4176171875000065 29.965546544660036 7.445859375000007 Q 30.250161296922926 7.474101562500007 30.534057702274612 7.506621093750006 Q 30.81782747651484 7.539140625000004 31.100811564737125 7.575937500000004 Q 31.3836325658123 7.612734375000004 31.665591033236073 7.653808593750003 Q 31.947344981014474 7.694882812500003 32.22814981520946 7.740234375000003 Q 32.508703569769835 7.785585937500001 32.78821165901729 7.835214843750002 Q 33.067416822167694 7.884843750000002 33.34546954477962 7.938750000000001 Q 33.90049287383073 8.0465625 34.4501864662717 8.171484374999999 Q 34.997912765616135 8.296406249999997 35.539196872916705 8.438437499999997 Q 36.077892269048746 8.580468749999998 36.60885085266968 8.739609374999997 Q 37.136499792783624 8.898749999999996 37.654928012427085 9.074999999999996 Q 38.16856076094365 9.249374999999997 38.66917848572924 9.430781249999997 Q 39.16534405935832 9.6121875 39.647734702579754 9.800625 Q 40.12525050530382 9.9890625 40.588197744971566 10.18453125 Q 41.045833894855576 10.379999999999999 41.488077693989695 10.5825 Q 41.924564144256586 10.785 42.344808790418675 10.994531249999998 Q 42.75884410549951 11.204062499999997 43.15576797810246 11.420624999999998 Q 43.54602988594364 11.637187499999996 43.91829706600529 11.860781249999993 Q 44.28345489395856 12.084374999999993 44.629728714415734 12.31499999999999 L 44.629728714415734 12.31499999999999 L 44.30950785740726 13.219687499999992 L 43.8751575173445 14.124374999999992 L 43.3301742803491 15.029062499999991 L 42.67966253347896 15.933749999999993 L 41.93026028391479 16.838437499999994 L 41.09004269041899 17.743124999999992 L 40.168404709020855 18.647812499999993 L 39.17592455840959 19.552499999999995 L 38.12420998925942 20.457187499999996 L 37.02572959161717 21.361874999999998 L 35.89363159192099 22.266562499999996 L 34.74155277302902 23.171249999999997 L 33.583420294176584 24.075937499999995 L 32.43324929096427 24.980624999999996 L 31.30493919680697 25.8853125 L 30.212071745854505 26.79 Q 30.09178633505067 26.572499999999998 29.958892794799443 26.36625 Q 29.828208911596832 26.160000000000004 29.68412438282212 25.965000000000003 Q 29.54174302501609 25.77 29.38530039031384 25.58625 Q 29.230138107115515 25.402500000000003 29.06037350657217 25.23 Q 28.89154235229333 25.057499999999997 28.707674788879434 24.896250000000002 Q 28.5244616365697 24.735000000000003 28.325872250464226 24.585 Q 28.127718000953713 24.435 27.91392949573516 24.296249999999997 Q 27.700408625122776 24.157499999999995 27.471065240881885 24.029999999999994 Q 27.243116045313787 23.902499999999996 27.005994647850695 23.784140624999996 Q 26.768932267053778 23.66578125 26.52261622822553 23.5565625 Q 26.276298971897166 23.447343749999998 26.020678710183898 23.347265625 Q 25.76501768145777 23.2471875 25.500030225023888 23.15625 Q 25.23497918066768 23.0653125 24.96059850670622 22.983515625 Q 24.68614451738677 22.90171875 24.402372715299148 22.8290625 Q 24.118527665903084 22.756406249999998 23.825386955878468 22.692890624999997 Q 23.532179911369493 22.629374999999996 23.229705537201475 22.574999999999996 L 23.229705537201475 22.574999999999996 L 22.36172559659589 23.391562499999996 L 21.491593650401537 24.208124999999995 L 20.629613854148804 25.024687499999995 L 19.785993825111703 25.84125 L 18.970723763082095 26.657812500000002 L 18.19345814581495 27.474375000000002 L 17.463401400114474 28.2909375 L 16.78919890245099 29.1075 L 16.17883459988597 29.924062500000005 L 15.639536463684387 30.740625 L 15.177690895238555 31.5571875 L 14.798767097913665 32.37375 L 14.507252310408262 33.190312500000005 L 14.306598668600135 34.00687500000001 L 14.19918232514288 34.823437500000004 L 14.186275310921388 35.64000000000001 Q 14.508678558205279 35.78156250000001 14.828115558546088 35.92417968750001 Q 15.150436540619168 36.06679687500001 15.469868051132291 36.210468750000004 Q 15.792215549340032 36.354140625 16.11174620133668 36.498867187500004 Q 16.43422040448387 36.64359375 16.753945897687665 36.789375 Q 17.076637790674948 36.935156250000006 17.396644278993435 37.0819921875 Q 17.719635028648 37.22882812499999 18.03999850410306 37.376718749999995 Q 18.36335884408704 37.524609375 18.684144520851127 37.673554687499994 Q 19.007934137647332 37.82249999999999 19.329195838248157 37.9725 Q 19.65346276033763 38.1225 19.975242306208486 38.273554687499995 Q 20.300022298668207 38.424609374999996 20.62234890733417 38.57671874999999 Q 20.947664874195116 38.72882812499999 21.270554565496187 38.88199218749999 Q 21.5964159623113 39.035156249999986 21.91987097617146 39.18937499999999 Q 22.24627323534932 39.34359375 22.57028146370492 39.4988671875 Q 22.897205435267075 39.654140625 23.22173987086816 39.81046874999999 Q 23.879398398979205 40.12312499999999 24.52746201542778 40.43999999999999 Q 25.186703351809136 40.75874999999999 25.84710724423171 41.09906249999999 Q 26.519362687632306 41.439374999999984 27.19473929830587 41.80124999999999 Q 27.882249187497262 42.163124999999994 28.574400798558308 42.54656249999999 Q 29.278533847514957 42.92999999999999 29.988243134961095 43.334999999999994 Q 30.70923972221189 43.739999999999995 31.436002894136298 44.1665625 Q 32.17270502488467 44.593125 32.914457103213806 45.04125 Q 33.66403615276925 45.489375 34.416881568599486 45.9590625 Q 35.17457871234367 46.42875 35.93254432964626 46.92 Q 36.692191075207845 47.413125 37.461555142738476 47.94421875 Q 38.22654208630875 48.475312499999994 38.99432923707383 49.044375 Q 39.75045709355873 49.6134375 40.49950251320158 50.220468749999995 Q 41.22753127669638 50.8275 41.93545139879238 51.4725 Q 42.61097518666951 52.11749999999999 43.25026778231076 52.80046874999999 Q 43.84403984837431 53.4834375 44.382714838691285 54.204375 Q 44.861564404600024 54.92531249999999 45.264443189219875 55.68421874999999 Q 45.43818809663257 56.063671875 45.58886436414414 56.45261718749999 Q 45.71916988821898 56.841562499999995 45.82370465812922 57.239999999999995 L 45.82370465812922 57.239999999999995 Q 45.93123349038615 57.7865625 45.98099905535708 58.3228125 Q 45.99000708654955 58.85906250000001 45.94392469330837 59.385000000000005 Q 45.858598848008256 59.9109375 45.72160435066086 60.4265625 Q 45.54758756222114 60.9421875 45.32590258811062 61.447500000000005 Q 45.069982442280796 61.95281250000001 44.77080762933095 62.44781250000001 Q 44.440612568963 62.94281250000001 44.07183298174597 63.42750000000001 Q 43.67554464710017 63.9121875 43.245454896086926 64.38656250000001 Q 42.79154323073036 64.8609375 42.308597921718054 65.325 Q 41.805583820164244 65.7890625 41.27817718555947 66.2428125 Q 40.734425753097206 66.6965625 40.17070271156645 67.14000000000001 Q 39.59424868901728 67.5834375 39.00194817631078 68.0165625 Q 38.400353776794965 68.44968750000001 37.786684004994164 68.8725 Q 37.16692832664599 69.29531250000001 36.53847266602107 69.7078125 Q 35.90687098321429 70.12031250000001 35.26952241469231 70.52250000000001 Q 34.631673001100495 70.9246875 33.99059454478058 71.3165625 Q 33.351350228300305 71.7084375 32.710958395785454 72.09 Q 32.075044767268466 72.4715625 31.446064006861885 72.83431640625 Q 30.822370391488025 73.19707031249999 30.206254860869176 73.541015625 Q 29.59638963656686 73.88496093750001 28.99417317310602 74.21009765625 Q 28.39876340978241 74.535234375 27.810594730130646 74.8415625 Q 27.229447254348425 75.147890625 26.65474829410184 75.43541015625001 Q 26.08700623873732 75.7229296875 25.524623354807737 75.991640625 Q 24.968913639522818 76.26035156249999 24.417257953943288 76.51025390625 Q 23.87182660921583 76.76015625 23.32900111865707 76.99125000000001 Q 22.79183461323156 77.22234375000001 22.25574681010158 77.43462890625001 Q 21.724678563502582 77.6469140625 21.193138214232693 77.840390625 Q 20.665940280177278 78.0338671875 20.136742697148577 78.20853515625001 Q 19.611203207054864 78.383203125 19.082198852584344 78.5390625 Q 18.556186233082943 78.694921875 18.02533783076185 78.83197265625 Q 17.49685307991877 78.9690234375 16.962281605498763 79.08726562500001 Q 16.429500054488283 79.2055078125 15.889521060053376 79.30494140625001 Q 15.620012219800303 79.35465820312501 15.348521216077778 79.39967285156251 Q 15.077294634676626 79.44468750000001 14.803976798441438 79.48500000000001 L 14.803976798441438 79.48500000000001 L 14.428352970358464 80.59312500000001 L 14.221640466992742 81.70125000000002 L 14.188343632085115 82.80937500000002 L 14.329188016279415 83.91750000000002 L 14.641104567099141 85.025625 L 15.117296504763345 86.13375 L 15.747387426592319 87.24187500000002 L 16.51764741275204 88.35000000000001 L 15.688897412752041 88.35000000000001 L 14.860147412752042 88.35000000000001 L 14.031397412752042 88.35000000000001 L 13.202647412752043 88.35000000000001 L 12.373897412752044 88.35000000000001 L 11.545147412752044 88.35000000000001 L 10.716397412752045 88.35000000000001 L 9.887647412752042 88.35000000000001 L 9.887647412752042 88.35000000000001 Z M 8.030608730512032 32.72999999999999 L 8.591163802831533 31.473749999999992 L 9.346501677396676 30.217499999999994 L 10.275479906866924 28.961249999999996 L 11.352095726177186 27.705 L 12.546213888529655 26.44875 L 13.82441017250493 25.192500000000003 L 15.150906949925194 23.936250000000005 L 16.488574627255694 22.680000000000007 Q 15.922034816302624 22.747500000000006 15.361807165998805 22.86726562500001 Q 14.801390836279575 22.987031250000005 14.247034582634477 23.159062500000005 Q 13.692452348337396 23.331093750000008 13.143866227828466 23.555390625000005 Q 12.595273854944725 23.7796875 12.053122861691609 24.056250000000002 Q 11.511688216682105 24.332812500000003 10.978064840238375 24.661640625 Q 10.446687877773048 24.990468749999998 9.925915820717046 25.3715625 Q 9.410078240433016 25.752656249999994 8.909623694621022 26.186015624999996 Q 8.41832208181522 26.619374999999994 7.949749722280698 27.10499999999999 L 7.949749722280698 27.10499999999999 Q 7.470687849591346 27.61874999999999 7.11158056128066 28.08187499999999 Q 6.7697587573566285 28.54499999999999 6.543488033337693 28.957499999999996 Q 6.333159613620789 29.369999999999997 6.232600846548163 29.731875 Q 6.145690373034571 30.093749999999993 6.162168406570779 30.404999999999994 Q 6.189542984053025 30.716249999999995 6.312896532891276 31.01718749999999 Q 6.447045162119921 31.318124999999995 6.676258540605359 31.608749999999993 Q 6.916024693118465 31.89937499999999 7.249804090809269 32.179687499999986 Q 7.420506206343251 32.31984374999999 7.614497299072194 32.45742187499999 Q 7.81098348264771 32.59499999999999 8.030608730512032 32.72999999999999 L 8.030608730512032 32.72999999999999 L 8.030608730512032 32.72999999999999 Z M 28.087847540752243 53.35499999999999 L 28.942136192839627 54.676874999999995 L 29.586908635765504 55.998749999999994 L 30.002187413566066 57.32062499999999 L 30.175105640276776 58.6425 L 30.100305664066582 59.964375000000004 L 29.78010506728136 61.28625 L 29.2244248590958 62.608125 L 28.45048208563336 63.93000000000001 Q 29.041664138577598 63.81000000000001 29.597255776232632 63.64242187500001 Q 30.14962427522076 63.474843750000005 30.662629174745355 63.2596875 Q 31.17012968712039 63.04453124999999 31.633182864593437 62.78179687499999 Q 32.087702131477585 62.51906249999999 32.49124599301873 62.208749999999995 Q 32.88240395997689 61.8984375 33.2145035964658 61.540546875000004 Q 33.52950318653199 61.18265625 33.77575474199321 60.7771875 Q 33.999354613228064 60.37171874999999 34.14296001578256 59.918671874999994 Q 34.257649181009775 59.465624999999996 34.279742824603034 58.965 L 34.279742824603034 58.965 Q 34.265372347653 58.45125 34.16668394593703 57.989062499999996 Q 34.037850171607246 57.526875000000004 33.8385821970179 57.11625 Q 33.61601824407899 56.705625 33.33533032152452 56.3465625 Q 33.03736600926613 55.987500000000004 32.691787246251025 55.68000000000001 Q 32.3296703850494 55.368750000000006 31.866922475497667 55.0678125 Q 31.392945131017267 54.766875 30.820380962900984 54.47624999999999 Q 30.237839588476234 54.18562499999999 29.558645054118635 53.905312499999994 Q 29.21573838374275 53.76515624999999 28.8490108377734 53.62757812499999 Q 28.480230758443508 53.489999999999995 28.087847540752243 53.35499999999999 L 28.087847540752243 53.35499999999999 L 28.087847540752243 53.35499999999999 Z" fill="black" stroke="black" />
				</svg>