<svg
					xmlns="http://www.w3.org/2000/svg" xmlns:xlink="http://www.w3.org/1999/xlink"
					style="
						overflow: visible;
						height: 100;
					"
					viewBox="-6.729806964407299 0 29.497424361954533 78.40500000000002"
				>
					<path d="M 15.190000000000001 0 L 15.992127342602783 0.7797656250000002 L 16.785288153042863 1.5595312500000005 L 17.560612735619067 2.3392968750000005 L 18.309424021741986 3.119062500000001 L 19.02333128025626 3.8988281250000014 L 19.69432073538516 4.678593750000001 L 20.31484211364475 5.4583593750000015 L 20.877890185041164 6.238125000000002 L 21.377080417924926 7.0178906250000015 L 21.806717930447576 7.797656250000003 L 22.161858993960852 8.577421875000002 L 22.438364424136054 9.357187500000002 L 22.632944283191932 10.136953125000002 L 22.74319341045739 10.916718750000003 L 22.767617397547234 11.696484375000004 L 22.705648727625103 12.476250000000004 L 22.557652904453274 13.256015625000003 L 22.324924505037053 14.035781250000003 L 22.009673198494283 14.815546875000003 L 21.614999882142882 15.595312500000006 L 21.144863192531158 16.37507812500001 L 20.604036753083975 17.154843750000005 L 19.998057620080214 17.934609375000008 L 19.333166483733024 18.714375000000004 L 18.616240270187262 19.494140625000007 L 17.854717872316876 20.273906250000003 L 17.05651981141233 21.053671875000006 L 16.22996269739318 21.833437500000006 L 15.38366941135561 22.61320312500001 L 14.526475980462465 23.39296875000001 L 13.667336150905383 24.172734375000008 L 12.815224689528797 24.952500000000008 L 11.979040458435765 25.732265625000007 L 11.167510309347353 26.512031250000007 L 10.38909483563413 27.291796875000006 L 9.651896999875913 28.071562500000006 L 8.963574623750857 28.851328125000006 L 8.331257685342727 29.631093750000005 L 7.761471317036213 30.410859375000005 L 7.260065335605073 31.19062500000001 L 6.832151065551801 31.970390625000014 L 6.482046137992014 32.75015625000002 L 6.21322786124279 33.529921875000014 L 6.028295666701761 34.30968750000001 L 5.928943035592702 35.08945312500001 L 5.915939209762266 35.869218750000016 L 5.989120884046984 36.64898437500001 L 6.147393969931044 37.42875000000001 L 6.388745411447743 38.20851562500001 L 6.710264925715641 38.988281250000014 L 7.108176433316685 39.76804687500001 L 7.57787883907551 40.547812500000006 L 8.113995722816991 41.32757812500001 L 8.710433403453466 42.10734375000001 L 9.360446749322922 42.88710937500001 L 10.056712024041873 43.66687500000001 L 10.791405981154597 44.446640625000015 L 11.556290353375008 45.22640625000002 L 12.342800823956889 46.00617187500002 L 13.142139519322495 46.78593750000002 L 13.945370024050577 47.56570312500001 L 14.743513892084106 48.345468750000016 L 15.527647611859079 49.12523437500002 L 16.288998978153572 49.905000000000015 L 15.56462397815357 49.905000000000015 L 14.84024897815357 49.905000000000015 L 14.11587397815357 49.905000000000015 L 13.39149897815357 49.905000000000015 L 12.667123978153569 49.905000000000015 L 11.942748978153569 49.905000000000015 L 11.21837397815357 49.905000000000015 L 10.49399897815357 49.905000000000015 L 9.76962397815357 49.905000000000015 L 9.04524897815357 49.905000000000015 L 8.32087397815357 49.905000000000015 L 7.596498978153569 49.905000000000015 L 6.872123978153569 49.905000000000015 L 6.147748978153569 49.905000000000015 L 5.4233739781535695 49.905000000000015 L 4.698998978153569 49.905000000000015 L 3.8813976118590787 49.12523437500002 L 3.0410138920841057 48.345468750000016 L 2.186620024050575 47.56570312500001 L 1.3271395193224924 46.78593750000002 L 0.47155082395688774 46.00617187500002 L -0.371209646624993 45.22640625000002 L -1.1923440188454026 44.446640625000015 L -1.9832879759581274 43.66687500000001 L -2.735803250677079 42.88710937500001 L -3.4420665965465345 42.10734375000001 L -4.094754277183008 41.32757812500001 L -4.687121160924489 40.547812500000006 L -5.213073566683313 39.76804687500001 L -5.667235074284359 38.988281250000014 L -6.045004588552258 38.20851562500001 L -6.342606030068956 37.42875000000001 L -6.557129115953016 36.64898437500001 L -6.686560790237735 35.869218750000016 L -6.729806964407299 35.08945312500001 L -6.686704333298239 34.30968750000001 L -6.55802213875721 33.529921875000014 L -6.345453862007988 32.75015625000002 L -6.051598934448201 31.970390625000014 L -5.679934664394929 31.19062500000001 L -5.234778682963788 30.410859375000005 L -4.721242314657275 29.631093750000005 L -4.145175376249146 28.851328125000006 L -3.5131030001240884 28.071562500000006 L -2.8321551643658704 27.291796875000006 L -2.1099896906526467 26.512031250000007 L -1.3547095415642343 25.732265625000007 L -0.5747753104712034 24.952500000000008 L 0.22108615090538097 24.172734375000008 L 1.0239759804624626 23.39296875000001 L 1.8249194113556095 22.61320312500001 L 2.61496269739318 21.833437500000006 L 3.385269811412329 21.053671875000006 L 4.1272178723168755 20.273906250000003 L 4.832490270187262 19.494140625000007 L 5.493166483733023 18.714375000000004 L 6.101807620080213 17.934609375000008 L 6.651536753083976 17.154843750000005 L 7.136113192531157 16.37507812500001 L 7.549999882142879 15.595312500000006 L 7.888423198494281 14.815546875000003 L 8.147424505037051 14.035781250000003 L 8.32390290445327 13.256015625000003 L 8.415648727625102 12.476250000000004 L 8.421367397547233 11.696484375000004 L 8.340693410457387 10.916718750000003 L 8.174194283191929 10.136953125000002 L 7.923364424136051 9.357187500000002 L 7.590608993960849 8.577421875000002 L 7.179217930447576 7.797656250000003 L 6.693330417924926 7.0178906250000015 L 6.1378901850411625 6.238125000000002 L 5.518592113644749 5.4583593750000015 L 4.8418207353851574 4.678593750000001 L 4.11458128025626 3.8988281250000014 L 3.3444240217419843 3.119062500000001 L 2.5393627356190653 2.3392968750000005 L 1.7077881530428627 1.5595312500000005 L 0.8583773426027808 0.7797656250000002 L 0 0 L 0.9493750000000001 0 L 1.8987500000000002 0 L 2.8481250000000005 0 L 3.7975000000000003 0 L 4.746875000000001 0 L 5.696250000000001 0 L 6.645625000000001 0 L 7.595000000000001 0 L 8.544375000000002 0 L 9.493750000000002 0 L 10.443125000000002 0 L 11.392500000000002 0 L 12.341875000000002 0 L 13.291250000000002 0 L 14.240625000000001 0 L 15.190000000000001 0 L 15.190000000000001 0 Z M 2.5711569597270927 68.36999999999998 L 2.5711569597270927 68.36999999999998 Q 3.2739640126619807 67.66687499999998 3.934284492879502 67.01624999999997 Q 4.566327279684597 66.36562499999998 5.155708152839319 65.76749999999998 Q 5.714079757555466 65.16937499999997 6.234165061589838 64.62374999999997 Q 6.7236475035430585 64.07812499999997 7.182296640402729 63.58499999999998 Q 7.612889282800806 63.09187499999998 8.021881941776785 62.651249999999976 Q 8.406642950094255 62.21062499999998 8.779754560310275 61.822499999999984 Q 9.133046893870343 61.43437499999999 9.484540641882607 61.09874999999998 Q 9.820696989201565 60.76312499999999 10.16421668783487 60.47999999999999 Q 10.496587712731877 60.19687499999999 10.825389806074906 59.949140625 Q 11.145548650582999 59.70140624999999 11.466992762654446 59.489062499999996 Q 11.782043965082725 59.27671875 12.10261133122291 59.099765625 Q 12.418727087207209 58.9228125 12.74391344756277 58.78125 Q 13.066250154623912 58.6396875 13.40050840044447 58.53351562500001 Q 13.733165442428628 58.427343750000006 14.07988120009111 58.3565625 Q 14.425886335020213 58.28578125 14.787372579864854 58.25039062500001 Q 15.148681370019846 58.215 15.526181370019845 58.215 L 15.526181370019845 58.215 Q 15.894931370019846 58.215 16.254716329864856 58.25039062500001 Q 16.614323835020212 58.28578125 16.964256200091107 58.3565625 Q 17.313477942428626 58.427343750000006 17.651602150444468 58.53351562500001 Q 17.988125154623912 58.6396875 18.31141344756277 58.78125 Q 18.63185208720721 58.9228125 18.936205081222912 59.099765625 Q 19.236106465082727 59.27671875 19.516367762654447 59.489062499999996 Q 19.790236150583002 59.70140624999999 20.04023355607491 59.949140625 Q 20.28158771273188 60.19687499999999 20.49421668783487 60.47999999999999 Q 20.695696989201565 60.76312499999999 20.83641564188261 61.09874999999998 Q 20.961796893870346 61.43437499999999 21.017254560310278 61.822499999999984 Q 21.052892950094257 62.21062499999998 21.008756941776788 62.651249999999976 Q 20.94038928280081 63.09187499999998 20.78229664040273 63.58499999999998 Q 20.59614750354306 64.07812499999997 20.31104006158984 64.62374999999997 Q 19.995329757555467 65.16937499999997 19.57320815283932 65.76749999999998 Q 19.1200772796846 66.36562499999998 18.556159492879505 67.01624999999997 Q 17.963964012661982 67.66687499999998 17.261156959727096 68.36999999999998 L 17.261156959727096 68.36999999999998 Q 16.579958625681424 69.03187499999997 15.899694578616089 69.64804687499998 Q 15.211986855760758 70.26421874999997 14.536234109746193 70.83468749999997 Q 13.861399461643542 71.40515624999998 13.205300974831827 71.92992187499999 Q 12.555666722529594 72.45468749999998 11.927962806536375 72.93374999999997 Q 11.309892763001805 73.41281249999999 10.714101471945854 73.84617187499998 Q 10.129231775203612 74.27953124999999 9.564888070393895 74.66718749999998 Q 9.011362226386817 75.05484374999997 8.475199335515219 75.39679687499998 Q 7.948807249141215 75.73874999999998 7.435809160048478 76.035 Q 6.930976655434858 76.33125000000001 6.450141118399297 76.59046875 Q 5.976075130616929 76.8496875 5.522616104821597 77.071875 Q 5.074438341843101 77.29406250000001 4.643630158403431 77.47921875000002 Q 4.216658578740443 77.664375 3.8041428703784534 77.81250000000001 Q 3.3941657455505414 77.96062500000002 2.9961826438163204 78.07171875 Q 2.5996619330960593 78.18281250000001 2.2132175999091137 78.25687500000001 Q 1.827433676895824 78.33093750000002 1.4504156431238098 78.36796875000002 Q 1.0735642325137764 78.40500000000002 0.704814232513777 78.40500000000002 L 0.704814232513777 78.40500000000002 Q 0.32731423251377656 78.40500000000002 -0.01692810687619062 78.36796875000002 Q -0.3610038231041752 78.33093750000002 -0.6711574000908849 78.25687500000001 Q -0.9806505669039387 78.18281250000001 -1.2549111061836786 78.07171875 Q -1.5277092544494577 77.96062500000002 -1.7633571296215464 77.81250000000001 Q -1.9964664212595578 77.664375 -2.1899635915965714 77.47921875000002 Q -2.3796241581569006 77.29406250000001 -2.5267588951784052 77.071875 Q -2.668612369383074 76.8496875 -2.7647026316007066 76.59046875 Q -2.8540233445651446 76.33125000000001 -2.8941908399515235 76.035 Q -2.9261927508587866 75.73874999999998 -2.8766756644847824 75.39679687499998 Q -2.8173877736131843 75.05484374999997 -2.672611929606107 74.66718749999998 Q -2.5170182247963897 74.27953124999999 -2.272773528054147 73.84617187499998 Q -2.0176072369981974 73.41281249999999 -1.6720371934636282 72.93374999999997 Q -1.3168332774704083 72.45468749999998 -0.8715740251681738 71.92992187499999 Q -0.41985053835646 71.40515624999998 0.11873410974619039 70.83468749999997 Q 0.6582368557607552 70.26421874999997 1.2778195786160857 69.64804687499998 Q 1.8899586256814238 69.03187499999997 2.5711569597270927 68.36999999999998 L 2.5711569597270927 68.36999999999998 Z" fill="black" stroke="black" />
				</svg>