<svg
					xmlns="http://www.w3.org/2000/svg" xmlns:xlink="http://www.w3.org/1999/xlink"
					style="
						overflow: visible;
						height: 100;
					"
					viewBox="-7.477750466046299 0 32.666071631366904 96.34499999999998"
				>
					<path d="M 1.564372120804361 48.60000000000001 L 1.564372120804361 48.60000000000001 Q 0.9820343506861411 48.046875000000014 0.39865376888045817 47.49433593750001 Q -0.1868696255465911 46.94179687500001 -0.7670455132472245 46.389843750000004 Q -1.3429894142164023 45.83789062500001 -1.9072654371394933 45.28652343750001 Q -2.4610596727978313 44.73515625 -2.9970714813482764 44.184375 Q -3.5166104469822246 43.63359375 -4.01258840813751 43.08339843750001 Q -4.48648812208957 42.53320312500001 -4.931505912194981 41.983593750000004 Q -5.349343118548687 41.433984375 -5.733545845126836 40.884960937500004 Q -6.086074235182013 40.3359375 -6.400881430168818 39.787499999999994 Q -6.680220613458985 39.239062499999996 -6.91850004303447 38.691210937499996 Q -7.118293542370629 38.143359374999996 -7.2745024587703755 37.596093749999994 Q -7.390041717190391 37.048828124999986 -7.460332919587537 36.5021484375 Q -7.4886450736175245 35.955468749999994 -7.470935931380511 35.409375 Q -7.410833907332172 34.863281249999986 -7.3048373120986705 34.31777343749999 Q -7.156931622473479 33.77226562499999 -6.964148657720589 33.22734374999999 Q -6.7308210953757746 32.68242187499999 -6.4544960258562805 32.13808593749999 Q -6.139836256966958 31.593749999999986 -5.784875228401548 31.049999999999983 Q -5.395808114470288 30.507187499999986 -4.970314687704976 29.96724609374999 Q -4.513574116531995 29.427304687499984 -4.02498683489382 28.890234374999984 Q -3.5096570209364955 28.353164062499985 -2.9674989718448703 27.818964843749992 Q -2.4035307332140916 27.28476562499999 -1.8180706919617222 26.75343749999999 Q -1.2160431452370082 26.222109374999988 -0.5980560135849271 25.69365234374999 Q 0.031064066693129 25.165195312499993 0.6705364360971728 24.639609374999992 Q 1.3156322709223862 24.114023437499995 1.9655147462361493 23.591308593749993 Q 2.61554930067571 23.068593749999994 3.264956967959816 22.54874999999999 Q 3.9091903640942345 22.028906249999995 4.5476377001968515 21.511933593749994 Q 5.1758284160712655 20.994960937499997 5.793420564506544 20.480859374999994 Q 6.3960071399284715 19.966757812499992 6.983610331738627 19.455527343749992 Q 7.551870930403261 18.944296874999996 8.101259727591675 18.435937499999998 Q 8.627447546354414 17.927578124999997 9.131427225739579 17.422089843749998 Q 9.608880380312252 16.9166015625 10.061383405726605 16.413984375 Q 10.484608543500348 15.9113671875 10.880764680826022 15.41162109375 Q 11.24549416340362 14.911875 11.581674364391214 14.415 Q 11.884616241037534 13.919062499999997 12.15815171862773 13.428808593749997 Q 12.39833786543971 12.938554687499996 12.609687181910443 12.453984374999997 Q 12.787787460150469 11.969414062499997 12.938220682934062 11.490527343749996 Q 13.056073255292379 11.011640624999995 13.147962928674986 10.538437499999995 Q 13.20845249784115 10.065234374999996 13.245146408253548 9.597714843749996 Q 13.252071649628402 9.130195312499994 13.237756932629916 8.668359374999994 Q 13.195691186835603 8.206523437499994 13.135253680235094 7.750371093749995 Q 13.04940266828681 7.294218749999995 12.948285082139797 6.843749999999995 Q 12.824345045083568 6.393281249999994 12.688407136643338 5.948496093749995 Q 12.532426399737034 5.503710937499995 12.367809926717069 5.064609374999995 Q 12.186056462083421 4.625507812499995 11.999057256200164 4.192089843749995 Q 11.797894381919651 3.758671874999996 11.594843450278558 3.330937499999996 Q 11.380615370899315 2.9032031249999966 11.16777050713157 2.481152343749997 Q 10.94669898140836 2.059101562499997 10.73014796138414 1.6427343749999976 Q 10.508240986621912 1.2263671874999982 10.293817042949485 0.8156835937499989 Q 10.076790078608877 0.40499999999999936 9.870000000000001 0 L 9.870000000000001 0 L 10.585 0 L 11.3 0 L 12.015 0 L 12.73 0 L 13.445 0 L 14.16 0 L 14.875 0 L 15.59 0 L 16.305 0 L 17.02 0 L 17.735 0 L 18.45 0 L 19.165 0 L 19.88 0 L 20.595 0 L 21.31 0 Q 21.497774003594415 0.3173437499999998 21.690194252517124 0.6372216796874997 Q 21.88137975772016 0.9570996093749995 22.075936049047552 1.2795117187499994 Q 22.267982780612044 1.6019238281249992 22.462069363616603 1.9268701171874991 Q 22.652340673385602 2.251816406249999 22.843274891090022 2.5792968749999985 Q 23.029067316238347 2.906777343749998 23.21411022124369 3.236791992187498 Q 23.392674974959462 3.566806640624998 23.56905383738625 3.8993554687499974 Q 23.73762013567898 4.231904296874998 23.90255273126945 4.566987304687498 Q 24.058352829218634 4.902070312499998 24.209073364596957 5.239687499999997 Q 24.349369143872643 5.577304687499996 24.483155643963315 5.917456054687497 Q 24.605266561195172 6.257607421874997 24.719469511220048 6.600292968749996 Q 24.820801684150105 6.942978515624997 24.91287368587281 7.288198242187497 Q 24.990949861630853 7.633417968749997 25.058476031050056 7.981171874999997 Q 25.110966148818203 8.328925781249996 25.15169495082906 8.679213867187496 Q 25.176446980132972 9.029501953124996 25.188321165320602 9.382324218749996 Q 25.183391871757696 9.735146484374996 25.164579152035852 10.090502929687496 Q 25.12826441501854 10.445859374999996 25.077187488888377 10.803749999999996 Q 25.00805177156245 11.161640624999995 24.923417286974026 11.522065429687494 Q 24.820321837508825 11.882490234374995 24.701147861308893 12.245449218749993 Q 24.563277207898185 12.608408203124995 24.408918756298064 12.973901367187494 Q 24.23580504611226 13.339394531249996 24.045977221159195 13.707421874999994 Q 23.83752194679389 14.075449218749995 23.612320220114967 14.446010742187497 Q 23.368812876410065 14.816572265624998 23.10873006412643 15.189667968749998 Q 22.830863284172594 15.562763671874995 22.53680276641912 15.938393554687496 Q 22.225683498661134 16.314023437499998 21.89896825410219 16.692187499999996 Q 21.556124563168552 17.070351562499994 21.19850161371137 17.451049804687493 Q 20.825884716340475 17.831748046874992 20.439524610264257 18.214980468749996 Q 20.039505794761716 18.598212890624996 19.626996797950046 18.983979492187494 Q 19.20235892118876 19.369746093749995 18.76669563620361 19.758046874999994 Q 18.320618946332495 20.146347656249993 17.865185137694365 20.537182617187494 Q 17.401227233376314 20.928017578124994 16.929772704462412 21.321386718749995 Q 16.45184251238526 21.714755859374993 15.968453954510425 22.110659179687495 Q 15.480779685707033 22.506562499999994 14.989845502720527 22.904999999999994 Q 14.497748836804169 23.302968749999994 14.006888408456968 23.701054687499994 Q 13.51644589773298 24.099140624999997 13.029630601436066 24.497343749999995 Q 12.545619988488848 24.895546874999994 12.067614306483353 25.2938671875 Q 11.594771964374683 25.692187499999996 11.130272162675304 26.090624999999996 Q 10.673239579753638 26.489062499999996 10.226820574572933 26.8876171875 Q 9.790091768733902 27.286171874999994 9.36615522256626 27.684843749999995 Q 8.9540256820967 28.083515624999997 8.556749920033955 28.482304687499997 Q 8.17326765319428 28.881093749999994 7.806559971715483 29.279999999999994 Q 7.455479225582537 29.678906249999994 7.122931141171278 30.077929687499996 Q 6.807669322188656 30.476953124999994 6.51251527593255 30.876093749999992 Q 6.236113570382688 31.27523437499999 5.981193567522697 31.674492187499993 Q 5.746281720103373 32.07374999999999 5.534008340718068 32.47312499999999 Q 5.342774003999601 32.87249999999999 5.17510417308854 33.27199218749999 Q 5.029267190336515 33.671484374999984 4.907679043026373 34.07109374999999 Q 4.808470972244483 34.470703124999986 4.73394609325554 34.870429687499986 Q 4.682095221933851 35.270156249999985 4.655106478436117 35.66999999999999 Q 4.650828517026908 36.06984374999999 4.67133364125012 36.46980468749999 Q 4.71432821952045 36.869765624999985 4.781769232661386 37.269843749999986 Q 4.871222257504152 37.669921874999986 4.984530760326294 38.07011718749999 Q 5.119122627088312 38.47031249999998 5.276730915879949 38.87062499999998 Q 5.4546504985403494 39.27093749999999 5.654508398546275 39.67136718749999 Q 5.873472677911207 40.07179687499998 6.113069920740067 40.47234374999998 Q 6.370349044968805 40.87289062499998 6.646742952557165 41.27355468749998 Q 6.939190461546791 41.67421874999998 7.249038637770503 42.07499999999998 Q 7.573126522929994 42.47578124999998 7.912724195608592 42.87667968749999 Q 8.264582410047565 43.27757812499998 8.629904011571275 43.678593749999976 Q 9.005363993378372 44.079609374999976 9.392108518142484 44.48074218749998 Q 9.786750241852523 44.88187499999998 10.190389873706398 45.28312499999998 Q 10.599591902823915 45.684374999999974 11.015423366371365 46.085742187499974 Q 11.434415343440232 46.487109374999974 11.857613399744546 46.88859374999998 Q 12.281530380376305 47.29007812499998 12.707202860838162 47.69167968749998 Q 13.131140874711706 48.093281249999976 13.554384626942085 48.494999999999976 L 13.554384626942085 48.494999999999976 Q 14.095231496143406 49.01437499999997 14.631036246030774 49.53462890624998 Q 15.154684494872978 50.05488281249998 15.668147800207157 50.576015624999975 Q 16.16446086823329 51.09714843749998 16.645670418697335 51.61916015624999 Q 17.10502623853525 52.14117187499999 17.54468269925279 52.664062499999986 Q 17.958167300583902 53.18695312499999 18.347773085303253 53.71072265625 Q 18.707363255188184 54.2344921875 19.03939841676436 54.759140625 Q 19.33812960505214 55.28378906249999 19.60621112425185 55.80931640624999 Q 19.838326993098132 56.33484375 20.03734799645189 56.86125 Q 20.198428300885286 57.38765625 20.324674064079947 57.914941406249994 Q 20.411737912461383 58.4422265625 20.462975903156675 58.97039062500001 Q 20.474557877020487 59.49855468750001 20.450099553929228 60.02759765625001 Q 20.386296659246252 60.556640625 20.287029265242293 61.0865625 Q 20.14951723328204 61.616484375000006 19.977904390160795 62.14728515625001 Q 19.769922436159753 62.6780859375 19.529972957142544 63.209765624999996 Q 19.256276728001176 63.741445312500005 18.95348169968995 64.27400390625 Q 18.62026478598559 64.8065625 18.26150362185546 65.34 Q 17.87691366182012 65.87343750000001 17.474551479907174 66.40453125 Q 17.050522485403334 66.935625 16.613877258065724 67.46437500000002 Q 16.160680333519778 67.993125 15.700250731514714 68.51953125 Q 15.228600076709697 69.04593750000001 14.755212633144549 69.57000000000001 Q 14.276037674184687 70.0940625 13.800621037124985 70.61578125 Q 13.324842967565125 71.13749999999999 12.85820879962844 71.656875 Q 12.396525916868896 72.17625000000001 11.949160615660496 72.69328125000001 Q 11.51184641777111 73.21031250000001 11.093717380436884 73.725 Q 10.690434909508902 74.23968749999999 10.31081456234055 74.75203124999999 Q 9.950449956740988 75.264375 9.617760231111454 75.77437499999999 Q 9.308277895024599 76.28437499999998 9.029957268168495 76.79203124999998 Q 8.77827849655403 77.29968749999999 8.560673143501214 77.80499999999998 Q 8.372579467396829 78.31031249999998 8.220859501571406 78.81328124999999 Q 8.100921454904288 79.31624999999998 8.019022681333979 79.81687499999998 Q 7.970554147339709 80.3175 7.961145224682601 80.81578124999999 Q 7.986183007618763 81.31406249999999 8.050657422552556 81.80999999999999 Q 8.149965217193747 82.30593749999998 8.28836085525376 82.79666015624998 Q 8.460959523159136 83.28738281249998 8.670998923550851 83.77289062499999 Q 8.914044059249157 84.25839843749999 9.19236399979387 84.73869140624998 Q 9.501987507659575 85.21898437499999 9.844277197244548 85.69406249999999 Q 10.21573040461379 86.16914062499998 10.61687743873495 86.63900390624998 Q 11.044680034905273 87.10886718749998 11.498920191739863 87.57351562499998 Q 11.977011211909497 88.03816406249999 12.47807849821012 88.49759765624998 Q 12.999965930857783 88.95703124999997 13.541239668426595 89.41124999999998 Q 14.100145665720476 89.86546874999999 14.674791824041096 90.31447265624999 Q 15.263790921879675 90.76347656249999 15.864895335674648 91.20726562499999 Q 16.47704352860481 91.65105468749998 17.097735077204124 92.08962890624998 Q 17.726188031068297 92.52820312499998 18.359750287773977 92.96156249999999 Q 18.997869398597384 93.394921875 19.63783967275352 93.82306640624998 Q 20.279285084998907 94.25121093749999 20.919540169080403 94.67414062499998 Q 21.558350242678877 95.0970703125 22.193178535027254 95.51478515624999 Q 22.823835592994477 95.93249999999999 23.44799558917961 96.34499999999998 L 23.44799558917961 96.34499999999998 L 22.737370589179612 96.34499999999998 L 22.026745589179612 96.34499999999998 L 21.31612058917961 96.34499999999998 L 20.60549558917961 96.34499999999998 L 19.89487058917961 96.34499999999998 L 19.18424558917961 96.34499999999998 L 18.47362058917961 96.34499999999998 L 17.76299558917961 96.34499999999998 L 17.05237058917961 96.34499999999998 L 16.34174558917961 96.34499999999998 L 15.631120589179611 96.34499999999998 L 14.920495589179612 96.34499999999998 L 14.209870589179614 96.34499999999998 L 13.499245589179614 96.34499999999998 L 12.788620589179613 96.34499999999998 L 12.077995589179613 96.34499999999998 Q 11.441580602972676 95.94656249999998 10.799777841334867 95.54261718749999 Q 10.153989403149925 95.13867187499997 9.50505747915878 94.72921874999999 Q 8.854596406171172 94.31976562499999 8.203506331146368 93.90480468749999 Q 7.553535489935614 93.48984374999998 6.905700463711533 93.06937499999998 Q 6.261798817938767 92.64890624999998 5.623021542302519 92.22292968749998 Q 4.991125478372414 91.79695312499999 4.367532532959974 91.36546874999999 Q 3.7538642075295607 90.933984375 3.1518273676597435 90.49699218749998 Q 2.5628100952206765 90.05999999999999 1.988854766922663 89.61749999999998 Q 1.4310157792853628 89.17499999999998 0.8917170606720433 88.72699218749999 Q 0.3715783202411611 88.27898437499998 -0.12655443318582726 87.82546874999998 Q -0.6025963022973704 87.37195312499999 -1.053245133100205 86.91292968749998 Q -1.4790483239041547 86.45390624999999 -1.8762208536271583 85.98937499999998 Q -2.246035366562082 85.52484374999999 -2.584205373484136 85.05480468749998 Q -2.8928151851456363 84.58476562499999 -3.167067014334304 84.10921874999998 Q -3.409934660405569 83.63367187499999 -3.6161084757328226 83.15261718749998 Q -3.7895188695691298 82.6715625 -3.9243533560434534 82.18499999999999 Q -4.025655490060326 81.69937499999997 -4.088081319721377 81.21058593749999 Q -4.117015546177015 80.72179687499998 -4.10694603037652 80.22984374999999 Q -4.063987690036596 79.73789062499999 -3.9825071680675945 79.24277343749999 Q -3.869345643841561 78.74765624999999 -3.718770552667433 78.24937499999999 Q -3.538332250558152 77.75109374999998 -3.322222723954898 77.24964843749999 Q -3.078670970911832 76.74820312499997 -2.8018184528075514 76.24359374999999 Q -2.5005287496485566 75.73898437499999 -2.1689182605361785 75.23121093749998 Q -1.8164277489237817 74.72343749999997 -1.437173898801821 74.21249999999998 Q -1.041104385469036 73.7015625 -0.6223607422238144 73.18746093749998 Q -0.19131516547928462 72.67335937499998 0.25784284286999615 72.15609374999997 Q 0.7144100277254437 71.63882812499997 1.1841278838907545 71.11839843749999 Q 1.65606529220887 70.59796874999998 2.1358763919331687 70.07437499999997 Q 2.612513503269848 69.55078124999997 3.0915282778169955 69.02402343749998 Q 3.561873995422429 68.49726562499998 4.028988367536764 67.96734374999998 Q 4.481947233181584 67.43742187499998 4.926066955154069 66.90433593749998 Q 5.350669257677971 66.37124999999997 5.760946044517031 65.83499999999998 Q 6.1467153467774915 65.29781249999998 6.50928745828344 64.76044921874998 Q 6.84269778228959 64.22308593749997 7.148736330109661 63.68554687499998 Q 7.421763903848069 63.14800781249998 7.6638754362301205 62.61029296874999 Q 7.869798231012091 62.072578124999986 8.041965277204492 61.53468749999999 Q 8.175504067861233 60.996796874999994 8.273211934724346 60.45873046874999 Q 8.330642114044457 59.920664062499995 8.350975151895295 59.38242187499999 Q 8.330206893723627 58.84417968749999 8.271912140484687 58.30576171874999 Q 8.172537147408073 57.767343749999995 8.036053923175343 57.22874999999999 Q 7.859357675726553 56.690156249999994 7.646812395601378 56.151386718750004 Q 7.395751526591054 55.61261718750001 7.110917713862705 55.07367187500001 Q 6.790062849356445 54.53472656250001 6.43828704923262 53.995605468750014 Q 6.05373217206203 53.45648437500001 5.641827173308714 52.917187500000004 Q 5.201067261057649 52.377890625 4.73717471444701 51.83841796875 Q 4.248954067091321 51.2989453125 3.742379231225826 50.75929687500001 Q 3.2165135201195336 50.21964843750001 2.6775354534983733 49.679824218750014 Q 2.124711080166635 49.14000000000001 1.564372120804361 48.60000000000001 L 1.564372120804361 48.60000000000001 Z" fill="black" stroke="black" />
				</svg>