<svg
					xmlns="http://www.w3.org/2000/svg" xmlns:xlink="http://www.w3.org/1999/xlink"
					style="
						overflow: visible;
						height: 100;
					"
					viewBox="-3.1027531877061296 0 32.09982157819081 96.34499999999998"
				>
					<path d="M 22.88437212080436 48.60000000000001 L 22.88437212080436 48.60000000000001 Q 23.444711080166634 49.14000000000001 23.990191703498372 49.679824218750014 Q 24.521826020119533 50.21964843750001 25.033004231225824 50.75929687500001 Q 25.52489156709132 51.2989453125 25.991080964447008 51.83841796875 Q 26.432942261057647 52.377890625 26.844327173308713 52.917187500000004 Q 27.226857172062033 53.45648437500001 27.57469329923262 53.995605468750014 Q 27.889750349356447 54.53472656250001 28.166542713862704 55.07367187500001 Q 28.407314026591056 55.61261718750001 28.60696864560138 56.151386718750004 Q 28.768107675726554 56.690156249999994 28.886053923175343 57.22874999999999 Q 28.963787147408073 57.767343749999995 28.997068390484685 58.30576171874999 Q 28.989269393723625 58.84417968749999 28.936600151895295 59.38242187499999 Q 28.842829614044458 59.920664062499995 28.704618184724346 60.45873046874999 Q 28.526129067861234 60.996796874999994 28.304465277204493 61.53468749999999 Q 28.044173231012092 62.072578124999986 27.742781686230124 62.61029296874999 Q 27.405201403848068 63.14800781249998 27.029361330109662 63.68554687499998 Q 26.62051028228959 64.22308593749997 26.17694370828344 64.76044921874998 Q 25.70421534677749 65.29781249999998 25.200946044517032 65.83499999999998 Q 24.67379425767797 66.37124999999997 24.122590392654068 66.90433593749998 Q 23.55186910818158 67.43742187499998 22.96258211753676 67.96734374999998 Q 22.35913962042242 68.49726562499998 21.74273921531699 69.02402343749998 Q 21.117669753269844 69.55078124999997 20.485251391933165 70.07437499999997 Q 19.849659042208863 70.59796874999998 19.21221382139075 71.11839843749999 Q 18.576988152725438 71.63882812499997 17.945186592869995 72.15609374999997 Q 17.320794209520713 72.67335937499998 16.704787695276185 73.18746093749998 Q 16.10108311453096 73.7015625 15.510326101198178 74.21249999999998 Q 14.936384751076215 74.72343749999997 14.37948017696382 75.23121093749998 Q 13.84345562535144 75.73898437499999 13.328025297192447 76.24359374999999 Q 12.837032154088167 76.74820312499997 12.369613213545101 77.24964843749999 Q 11.929636499441846 77.75109374999998 11.515604447332564 78.24937499999999 Q 11.131435606158435 78.74765624999999 10.774953769432404 79.24277343749999 Q 10.450152934963402 79.73789062499999 10.154147719623477 80.22984374999999 Q 9.891031328822981 80.72179687499998 9.657192117778623 81.21058593749999 Q 9.456844509939673 81.69937499999997 9.285646643956543 82.18499999999999 Q 9.147981130430866 82.6715625 9.037524336767174 83.15261718749998 Q 8.959830964594428 83.63367187499999 8.907464235665694 84.10921874999998 Q 8.886481689854362 84.58476562499999 8.888489939015862 85.05480468749998 Q 8.920058383437915 85.52484374999999 8.971904146372841 85.98937499999998 Q 9.051107926095845 86.45390624999999 9.147575179399794 86.91292968749998 Q 9.26888807270263 87.37195312499999 9.404226816814173 87.82546874999998 Q 9.561656445241159 88.27898437499998 9.72972487317204 88.72699218749999 Q 9.916953279285362 89.17499999999998 10.111354766922663 89.61749999999998 Q 10.321872595220677 90.05999999999999 10.536085180159743 90.49699218749998 Q 10.763317332529562 90.933984375 10.990813782959973 91.36546874999999 Q 11.228234853372411 91.79695312499999 11.462591854802517 92.22292968749998 Q 11.703830067938766 92.64890624999998 11.938825463711533 93.06937499999998 Q 12.177754239935613 93.48984374999998 12.407451643646366 93.90480468749999 Q 12.638268281171172 94.31976562499999 12.857088729158779 94.72921874999999 Q 13.074380028149925 95.13867187499997 13.277160653834867 95.54261718749999 Q 13.475955602972675 95.94656249999998 13.657995589179613 96.34499999999998 L 13.657995589179613 96.34499999999998 L 12.947370589179615 96.34499999999998 L 12.236745589179614 96.34499999999998 L 11.526120589179614 96.34499999999998 L 10.815495589179614 96.34499999999998 L 10.104870589179614 96.34499999999998 L 9.394245589179613 96.34499999999998 L 8.683620589179613 96.34499999999998 L 7.972995589179613 96.34499999999998 L 7.262370589179612 96.34499999999998 L 6.551745589179612 96.34499999999998 L 5.841120589179612 96.34499999999998 L 5.130495589179612 96.34499999999998 L 4.419870589179611 96.34499999999998 L 3.709245589179612 96.34499999999998 L 2.9986205891796116 96.34499999999998 L 2.2879955891796118 96.34499999999998 Q 2.064460592994482 95.93249999999999 1.8252488475272541 95.51478515624999 Q 1.581865867678877 95.0970703125 1.3253214190804032 94.67414062499998 Q 1.0673319599989077 94.25121093749999 0.7989724852535178 93.82306640624998 Q 0.5320881485973853 93.394921875 0.2578752877739754 92.96156249999999 Q -0.01178071893170518 92.52820312499998 -0.28550711029587816 92.08962890624998 Q -0.5514720963951922 91.65105468749998 -0.8180734143253559 91.20726562499999 Q -1.073630953120328 90.76347656249999 -1.3262628634589069 90.31447265624999 Q -1.5645418342795256 89.86546874999999 -1.7962603315734063 89.41124999999998 Q -2.010346569142216 88.95703124999997 -2.214226189289879 88.49759765624998 Q -2.397285663090501 88.03816406249999 -2.566548558260137 87.57351562499998 Q -2.711960590094728 87.10886718749998 -2.8401147487650538 86.63900390624998 Q -2.9416133453862114 86.16914062499998 -3.0225978027554543 85.69406249999999 Q -3.0744187423404243 85.21898437499999 -3.1027531877061296 84.73869140624998 Q -3.0997840657508426 84.25839843749999 -3.070719826449146 83.77289062499999 Q -3.00864985184086 83.28738281249998 -2.9183188322462392 82.79666015624998 Q -2.7937847828062523 82.30593749999998 -2.6393425774474437 81.80999999999999 Q -2.449441992381236 81.31406249999999 -2.228698525317399 80.81578124999999 Q -1.9735083526602901 80.3175 -1.687852318666021 79.81687499999998 Q -1.3687660450957102 79.31624999999998 -1.0202342484285944 78.81328124999999 Q -0.6399205326031723 78.31031249999998 -0.23182685649878643 77.80499999999998 Q 0.20577849655403124 77.29968749999999 0.6688635181684948 76.79203124999998 Q 1.1585903950245982 76.28437499999998 1.6708852311114546 75.77437499999999 Q 2.2063874567409876 75.264375 2.76097081234055 74.75203124999999 Q 3.3348099095089037 74.23968749999999 3.923717380436885 73.725 Q 4.527471417771112 73.21031250000001 5.141816865660497 72.69328125000001 Q 5.766213416868897 72.17625000000001 6.39633379962844 71.656875 Q 7.031405467565125 71.13749999999999 7.667027287124987 70.61578125 Q 8.302287674184688 70.0940625 8.932712633144549 69.57000000000001 Q 9.557350076709696 69.04593750000001 10.171656981514715 68.51953125 Q 10.774742833519777 67.993125 11.362002258065722 67.46437500000002 Q 11.932709985403331 66.935625 12.48220772990717 66.40453125 Q 13.010038661820118 65.87343750000001 13.51150362185546 65.34 Q 13.987139785985592 64.8065625 14.42992701218995 64.27400390625 Q 14.842292353001174 63.741445312500005 15.218254207142543 63.209765624999996 Q 15.56046931115975 62.6780859375 15.863412202660793 62.14728515625001 Q 16.12998598328204 61.616484375000006 16.355154265242295 61.0865625 Q 16.542077909246252 60.556640625 16.68623236642923 60.02759765625001 Q 16.79104225202049 59.49855468750001 16.852507153156676 58.97039062500001 Q 16.874316037461384 58.4422265625 16.852994376579943 57.914941406249994 Q 16.792490800885286 57.38765625 16.68984799645189 56.86125 Q 16.549264493098132 56.33484375 16.368281436751847 55.80931640624999 Q 16.15133273005214 55.28378906249999 15.896429666764359 54.759140625 Q 15.608222630188186 54.2344921875 15.285155897803254 53.71072265625 Q 14.932073550583901 53.18695312499999 14.54780769925279 52.664062499999986 Q 14.137369988535252 52.14117187499999 13.699928231197337 51.61916015624999 Q 13.240632743233293 51.09714843749998 12.75892905020716 50.576015624999975 Q 12.26007511987298 50.05488281249998 11.743731558530776 49.53462890624998 Q 11.215231496143407 49.01437499999997 10.674384626942086 48.494999999999976 L 10.674384626942086 48.494999999999976 Q 10.251140874711707 48.093281249999976 9.822954813963161 47.69167968749998 Q 9.393034286626305 47.29007812499998 8.960621212244545 46.88859374999998 Q 8.528927062190231 46.487109374999974 8.097190944496367 46.085742187499974 Q 7.668615340323917 45.684374999999974 7.242421123706399 45.28312499999998 Q 6.821789304352526 44.88187499999998 6.405907346267487 44.48074218749998 Q 5.9979225871283735 44.079609374999976 5.596974324071276 43.678593749999976 Q 5.206164441297565 43.27757812499998 4.824569898733592 42.87667968749999 Q 4.455235897929993 42.47578124999998 4.097163637770502 42.07499999999998 Q 3.7533310865467895 41.67421874999998 3.422651155682164 41.27355468749998 Q 3.108024826218802 40.87289062499998 2.808265233240064 40.47234374999998 Q 2.526187521661206 40.07179687499998 2.260494726671274 39.67136718749999 Q 2.013908311040348 39.27093749999999 1.7850121658799472 38.87062499999998 Q 1.5764273145883108 38.47031249999998 1.3866108384512916 38.07011718749999 Q 1.2180777262541502 37.669921874999986 1.069152045161383 37.269843749999986 Q 0.9422383757704473 36.869765624999985 0.8355230943751177 36.46980468749999 Q 0.7512972670269074 36.06984374999999 0.6876064784361162 35.66999999999999 Q 0.6466264719338497 35.270156249999985 0.6262605463805393 34.870429687499986 Q 0.6285686284944818 34.470703124999986 0.6513118555263722 34.07109374999999 Q 0.6964351590865157 33.671484374999984 0.761559251213539 33.27199218749999 Q 0.8485161914995984 32.87249999999999 0.9547895907180655 32.47312499999999 Q 1.0821020326033706 32.07374999999999 1.2278048956476955 31.674492187499993 Q 1.3935159141326885 31.27523437499999 1.5764605884325498 30.876093749999992 Q 1.7781576034386548 30.476953124999994 1.9957143442962773 30.077929687499996 Q 2.2305573505825356 29.678906249999994 2.479684971715484 29.279999999999994 Q 2.744439528194281 28.881093749999994 3.0217206231589566 28.482304687499997 Q 3.3127952133467016 28.083515624999997 3.6144755350662594 27.684843749999995 Q 3.927962862483903 27.286171874999994 4.249994402697935 26.8876171875 Q 4.5817161422536365 26.489062499999996 4.919803412675304 26.090624999999996 Q 5.265357901874683 25.692187499999996 5.615006884608352 25.2938671875 Q 5.9698192072388485 24.895546874999994 6.326388413936067 24.497343749999995 Q 6.685762303982982 24.099140624999997 7.044515361581969 23.701054687499994 Q 7.403686336804171 23.302968749999994 7.7598455027205295 22.904999999999994 Q 8.114529685707033 22.506562499999994 8.460719579510428 22.110659179687495 Q 8.802623762385261 21.714755859374993 9.133835204462413 21.321386718749995 Q 9.458570983376315 20.928017578124994 9.770575762694367 20.537182617187494 Q 10.074056446332497 20.146347656249993 10.362945636203612 19.758046874999994 Q 10.641421421188763 19.369746093749995 10.903637422950046 18.983979492187494 Q 11.153724544761719 18.598212890624996 11.386087110264258 18.214980468749996 Q 11.604790966340476 17.831748046874992 11.804517238711373 17.451049804687493 Q 11.989249563168553 17.070351562499994 12.15396825410219 16.692187499999996 Q 12.302558498661137 16.314023437499998 12.430318391419123 15.938393554687496 Q 12.541019534172595 15.562763671874995 12.630292564126432 15.189667968749998 Q 12.701781626410067 14.816572265624998 12.751460845114968 14.446010742187497 Q 12.782834446793892 14.075449218749995 12.792227221159198 13.707421874999994 Q 12.782992546112267 13.339394531249996 12.751809381298063 12.973901367187494 Q 12.701870957898187 12.608408203124995 12.630210361308897 12.245449218749993 Q 12.53985308750883 11.882490234374995 12.42818291197403 11.522065429687494 Q 12.298051771562456 11.161640624999995 12.147187488888378 10.803749999999996 Q 11.978264415018536 10.445859374999996 11.78934477703585 10.090502929687496 Q 11.582923121757696 9.735146484374996 11.3573836653206 9.382324218749996 Q 11.115040730132971 9.029501953124996 10.854585575829056 8.679213867187496 Q 10.578153648818203 8.328925781249996 10.284726031050058 7.981171874999997 Q 9.976262361630853 7.633417968749997 9.652014310872811 7.288198242187497 Q 9.313770434150108 6.942978515624997 8.961032011220047 6.600292968749996 Q 8.595422811195172 6.257607421874997 8.216671268963315 5.917456054687497 Q 7.826244143872641 5.577304687499996 7.424073364596959 5.239687499999997 Q 7.011477829218638 4.902070312499998 6.588568356269449 4.566987304687498 Q 6.156526385678982 4.231904296874998 5.715616337386253 3.8993554687499974 Q 5.266893724959463 3.566806640624998 4.8107508462436925 3.236791992187498 Q 4.34812981623835 2.906777343749998 3.879524891090028 2.5792968749999985 Q 3.405778173385605 2.251816406249999 2.927459988616606 1.9268701171874991 Q 2.445326530612046 1.6019238281249992 1.9599985490475529 1.2795117187499994 Q 1.4721610077201606 0.9570996093749995 0.9824598775171255 0.6372216796874997 Q 0.49152400359441756 0.3173437499999998 0 0 L 0 0 L 0.7156250000000001 0 L 1.4312500000000001 0 L 2.146875 0 L 2.8625000000000003 0 L 3.578125 0 L 4.29375 0 L 5.009375 0 L 5.7250000000000005 0 L 6.440625000000001 0 L 7.15625 0 L 7.871875 0 L 8.5875 0 L 9.303125000000001 0 L 10.01875 0 L 10.734375 0 L 11.450000000000001 0 Q 12.111165078608876 0.40499999999999936 12.771199855449485 0.8156835937499989 Q 13.428631611621912 1.2263671874999982 14.08217921138414 1.6427343749999976 Q 14.73037085640836 2.059101562499997 15.371715819631568 2.481152343749997 Q 16.004834120899314 2.9032031249999966 16.62796845027856 3.330937499999996 Q 17.23992563191965 3.758671874999996 17.83862756870016 4.192089843749995 Q 18.423165837083417 4.625507812499995 18.99109117671707 5.064609374999995 Q 19.541879524737034 5.503710937499995 20.072664949143338 5.948496093749995 Q 20.58340754508357 6.393281249999994 21.0707850821398 6.843749999999995 Q 21.535340168286808 7.294218749999995 21.97326149273509 7.750371093749995 Q 22.385769311835602 8.206523437499994 22.768538182629914 8.668359374999994 Q 23.123556024628403 9.130195312499994 23.445966720753546 9.597714843749996 Q 23.738608747841152 10.065234374999996 23.996087928674985 10.538437499999995 Q 24.222167005292377 11.011640624999995 24.41091599543406 11.490527343749996 Q 24.567084335150465 11.969414062499997 24.68421843191044 12.453984374999997 Q 24.768103490439707 12.938554687499996 24.811784531127728 13.428808593749997 Q 24.82211624103753 13.919062499999997 24.791674364391213 14.415 Q 24.72799416340362 14.911875 24.626038118326022 15.41162109375 Q 24.492655418500345 15.9113671875 24.322477155726602 16.413984375 Q 24.12302100531225 16.9166015625 23.888888163239578 17.422089843749998 Q 23.62822879635441 17.927578124999997 23.335634727591675 18.435937499999998 Q 23.01983968040326 18.944296874999996 22.675446269238627 19.455527343749992 Q 22.31171026492847 19.966757812499992 21.923264314506543 20.480859374999994 Q 21.519812791071264 20.994960937499997 21.09603613769685 21.511933593749994 Q 20.662002864094234 22.028906249999995 20.212456967959813 22.54874999999999 Q 19.75773680067571 23.068593749999994 19.29266318373615 23.591308593749993 Q 18.827741645922384 24.114023437499995 18.35788018609717 24.639609374999992 Q 17.893642191693125 25.165195312499993 17.43002992391507 25.69365234374999 Q 16.977550604762985 26.222109374999988 16.531304308038273 26.75343749999999 Q 16.101625516785905 27.28476562499999 15.683711965655124 27.818964843749992 Q 15.287608604063498 28.353164062499985 14.908606915106176 28.890234374999984 Q 14.556347758468004 29.427304687499984 14.226208749795022 29.96724609374999 Q 13.927316885529711 30.507187499999986 13.655124771598452 31.049999999999983 Q 13.417663743033042 31.593749999999986 13.21316022414372 32.13808593749999 Q 13.046991404624226 32.68242187499999 12.916476342279413 33.22734374999999 Q 12.826505877526522 33.77226562499999 12.774068937901331 34.31777343749999 Q 12.76354109266783 34.863281249999986 12.79156406861949 35.409375 Q 12.861979926382476 35.955468749999994 12.971073330412464 36.5021484375 Q 13.12214578280961 37.048828124999986 13.311122541229626 37.596093749999994 Q 13.540768957629371 38.143359374999996 13.806656206965528 38.691210937499996 Q 14.111029386541013 39.239062499999996 14.449118569831182 39.787499999999994 Q 14.822675764817989 40.3359375 15.226610404873167 40.884960937500004 Q 15.662219381451315 41.433984375 16.12411908780502 41.983593750000004 Q 16.61319937791043 42.53320312500001 17.12381784186249 43.08339843750001 Q 17.65651455301778 43.63359375 18.205428518651726 44.184375 Q 18.770815327202165 44.73515625 19.346640812860503 45.28652343750001 Q 19.932948085783597 45.83789062500001 20.523579486752777 46.389843750000004 Q 21.118442874453407 46.94179687500001 21.711310018880457 47.49433593750001 Q 22.302034350686142 48.046875000000014 22.88437212080436 48.60000000000001 L 22.88437212080436 48.60000000000001 Z" fill="black" stroke="black" />
				</svg>