<svg
					xmlns="http://www.w3.org/2000/svg" xmlns:xlink="http://www.w3.org/1999/xlink"
					style="
						overflow: visible;
						height: 100;
					"
					viewBox="-7.988614512069328 0 64.94729328176793 77.115"
				>
					<path d="M 48.96 0 L 50.23972832132918 1.204921875 L 51.4864972863973 2.40984375 L 52.66819640596223 3.6147656249999995 L 53.75439106228052 4.8196875 L 54.717106351577854 6.024609374999999 L 55.53154757667589 7.229531249999999 L 56.17673883351413 8.434453125000001 L 56.63606324479431 9.639375 L 56.89769092704939 10.844296874999998 L 56.954883668861 12.049218749999998 L 56.806168473248846 13.254140625 L 56.45537549465425 14.459062499999998 L 55.91153939345212 15.663984374999998 L 55.18866664860239 16.868906250000002 L 54.30537482129508 18.073828125 L 53.28441306034049 19.27875 L 52.152076198671026 20.483671875 L 50.937527530877624 21.688593749999995 L 49.672047713620756 22.893515624999996 L 48.388229133458566 24.098437499999996 L 47.119136491119214 25.303359375 L 45.89745522133912 26.50828125 L 44.75464968068292 27.713203124999996 L 43.720152784187164 28.918124999999996 L 42.82060796170669 30.123046875 L 42.07918295734997 31.327968749999997 L 41.514973145074244 32.532890625 L 41.14250972802538 33.737812500000004 L 40.971385487930675 34.942734375 L 41.00600772335511 36.14765625 L 41.24548473988755 37.352578125 L 41.68364881569777 38.5575 L 42.309215050987326 39.762421874999994 L 43.10607201017247 40.96734375 L 44.05369667132024 42.172265624999994 L 45.12768299583009 43.37718749999999 L 46.30037050506839 44.58210937499999 L 47.54155667498713 45.78703124999999 L 48.81927480102968 46.991953124999995 L 50.100617299441325 48.19687499999999 L 51.352583240889096 49.40179687499999 L 52.542928288193664 50.60671875 L 53.64099514805786 51.811640625 L 54.61850314853784 53.0165625 L 55.450276606718056 54.221484374999996 L 56.11489322750687 55.42640624999999 L 56.59523583406565 56.63132812499999 L 56.87893322007421 57.83624999999999 L 56.9586787696986 59.041171875 L 56.83241863921551 60.24609375 L 56.5034046536825 61.451015625 L 55.98011055630217 62.65593749999999 L 55.27601376747494 63.86085937499999 L 54.40924827432795 65.06578125 L 53.4021375905377 66.27070312500001 L 52.28061981504921 67.47562500000001 L 51.073579597283256 68.680546875 L 49.81210421404358 69.88546875 L 48.5286829178362 71.090390625 L 47.2563701773555 72.2953125 L 46.02793436084815 73.500234375 L 44.87501378798347 74.70515625 L 43.82730188608382 75.910078125 L 42.91178243698641 77.115 L 42.34271993698641 77.115 L 41.77365743698641 77.115 L 41.20459493698641 77.115 L 40.63553243698641 77.115 L 40.06646993698641 77.115 L 39.49740743698641 77.115 L 38.928344936986406 77.115 L 38.359282436986405 77.115 L 37.790219936986404 77.115 L 37.2211574369864 77.115 L 36.6520949369864 77.115 L 36.08303243698641 77.115 L 35.51396993698641 77.115 L 34.94490743698641 77.115 L 34.37584493698641 77.115 L 33.80678243698641 77.115 L 33.23771993698641 77.115 L 32.66865743698641 77.115 L 32.099594936986406 77.115 L 31.530532436986405 77.115 L 30.961469936986404 77.115 L 30.392407436986403 77.115 L 29.823344936986402 77.115 L 29.254282436986408 77.115 L 28.685219936986414 77.115 L 28.116157436986413 77.115 L 27.54709493698641 77.115 L 26.97803243698641 77.115 L 26.40896993698641 77.115 L 25.839907436986408 77.115 L 25.270844936986407 77.115 L 24.701782436986406 77.115 L 25.038311881515842 76.26609374999998 L 25.444180679912435 75.4171875 L 25.91043729352412 74.56828125 L 26.4273573562426 73.71937499999999 L 26.984568124395967 72.87046874999999 L 27.57118122440786 72.02156249999999 L 28.17593199935311 71.17265624999999 L 28.787323671089162 70.32374999999999 L 29.3937744730142 69.47484374999999 L 29.98376587048527 68.62593749999999 L 30.54598997201039 67.77703125 L 31.069494244684623 66.928125 L 31.5438216818401 66.07921875 L 31.959144629080857 65.2303125 L 32.30639055603195 64.38140625 L 32.57735816420904 63.5325 L 32.764822345090195 62.68359375 L 32.86262664516402 61.834687499999994 L 32.865762054610585 60.98578125 L 32.77043111129832 60.136875 L 32.57409649971062 59.28796875 L 32.27551352284583 58.439062500000006 L 31.874746031523717 57.59015625000001 L 31.373165607239443 56.74125 L 30.773434009022477 55.892343749999995 L 30.07946910894112 55.043437499999996 L 29.29639475220101 54.194531250000004 L 28.430475183515064 53.345625 L 27.489034878938924 52.49671874999999 L 26.48036480914316 51.6478125 L 25.41361633374025 50.79890625 L 24.298684084579072 49.949999999999996 L 23.146079336835907 49.10109374999999 L 21.966795488465365 48.25218749999999 L 20.772167369570198 47.40328124999999 L 19.573726182211928 46.55437499999999 L 18.3830519271044 45.705468749999994 L 17.21162520579507 44.856562499999995 L 16.0706802949307 44.00765625 L 14.971061372924774 43.15875 L 13.92308373899997 42.30984375 L 12.936401800688095 41.4609375 L 12.019885519248966 40.61203125 L 11.1815068942274 39.763125 L 10.428237939889204 38.914218749999996 L 9.76596145920714 38.0653125 L 9.199395757287924 37.21640625 L 8.732034257738203 36.36749999999999 L 8.366100794743446 35.518593749999994 L 8.102521153019989 34.669687499999995 L 7.940911219864498 33.820781249999996 L 7.879581900927827 32.971875 L 7.915560736802495 32.12296874999999 L 8.044629943780297 31.274062499999992 L 8.261380391944467 30.425156249999997 L 8.559280829798837 29.576249999999995 L 8.93076146951531 28.727343749999996 L 9.367310863097554 27.8784375 L 9.859584829665119 27.029531249999998 L 10.397526039835018 26.180625 L 10.970492726791324 25.33171875 L 11.567394876832001 24.482812499999998 L 12.176836156462127 23.633906249999995 L 12.787259759687666 22.784999999999997 L 12.497259759687667 22.784999999999997 Q 11.869729585676197 23.407499999999995 11.173841458070154 24.093749999999993 Q 10.482695274192773 24.779999999999994 9.737250078731586 25.529999999999994 Q 9.371822223403555 25.904999999999994 8.996806976958155 26.295937499999994 Q 8.62953917440282 26.686874999999997 8.25606451897374 27.093749999999993 Q 7.893269267322989 27.500624999999992 7.528215902594221 27.92343749999999 Q 7.177124988783939 28.346249999999998 6.828274219094881 28.784999999999997 Q 6.495730490054109 29.223749999999995 6.180785666094026 29.663437499999997 Q 5.885816327714198 30.103125 5.6108285732058905 30.543749999999996 Q 5.357984148205893 30.984375 5.127245012369136 31.425937499999996 Q 4.920532413452996 31.867499999999996 4.737756169831541 32.31 Q 4.580574363670753 32.7525 4.448837180810514 33.1959375 Q 4.343920241245457 33.639374999999994 4.265607257434423 34.083749999999995 Q 4.214975798063405 34.528124999999996 4.19173704586666 34.973437499999996 Q 4.196658927386815 35.418749999999996 4.229374950554703 35.864999999999995 Q 4.290078789890537 36.309374999999996 4.374950613026268 36.743906249999995 Q 4.486201929748026 37.178437499999994 4.61865783494796 37.603125 Q 4.77560231166958 38.027812499999996 4.950623127802548 38.44265625 Q 5.148053175010663 38.857499999999995 5.360349126226637 39.262499999999996 Q 5.592854317829038 39.6675 5.837006586282022 40.06265624999999 Q 6.099108373497612 40.457812499999996 6.369694314152933 40.84312499999999 Q 6.655963839993223 41.228437499999984 6.947665044062591 41.60390624999999 Q 7.252823565003741 41.97937499999999 7.560516595721246 42.344999999999985 L 7.560516595721246 42.344999999999985 L 8.538695277528062 43.431562499999984 L 9.596100160686948 44.51812499999998 L 10.71057641284971 45.60468749999998 L 11.858773437744327 46.69124999999998 L 13.01663411875028 47.77781249999998 L 14.15989886554527 48.86437499999998 L 15.264613902997125 49.95093749999998 L 16.307633152591272 51.03749999999999 L 17.267103190933582 52.124062499999994 L 18.12292112443887 53.21062499999999 L 18.85715578677778 54.297187499999986 L 19.45442343411915 55.38374999999999 L 19.90221006657078 56.47031249999999 L 20.191133622513952 57.556874999999984 L 20.315140552314745 58.64343749999999 L 20.271632652783893 59.72999999999999 L 20.0615215049395 60.81656249999999 L 19.68920937448803 61.903124999999996 L 19.16249697519838 62.98968749999999 L 18.492420027718175 64.07624999999999 L 17.69301803826518 65.1628125 L 16.781040141761355 66.24937499999999 L 15.775594172607768 67.33593749999999 L 14.697746315798032 68.42249999999999 L 13.570079726512166 69.5090625 L 12.41622136602887 70.595625 L 11.260346967728237 71.6821875 L 10.126674505177222 72.76875 L 9.038956775195304 73.8553125 L 8.019983727340815 74.94187499999998 L 7.0911049670506765 76.0284375 L 6.271782436986407 77.115 L 5.5017824369864075 77.115 L 4.731782436986408 77.115 L 3.9617824369864083 77.115 L 3.191782436986407 77.115 L 2.4217824369864074 77.115 L 1.651782436986407 77.115 L 0.8817824369864065 77.115 L 0.11178243698640689 77.115 L -0.6582175630135927 77.115 L -1.4282175630135931 77.115 L -2.198217563013593 77.115 L -2.968217563013593 77.115 L -3.738217563013593 77.115 L -4.508217563013593 77.115 L -5.278217563013593 77.115 L -6.048217563013593 77.115 L -5.132698113916178 75.910078125 L -4.084986212016532 74.70515625 L -2.932065639151851 73.500234375 L -1.7036298226444984 72.2953125 L -0.43131708216380155 71.090390625 L 0.852104214043576 69.88546875 L 2.113579597283255 68.680546875 L 3.320619815049206 67.47562500000001 L 4.442137590537699 66.27070312500001 L 5.449248274327946 65.06578125 L 6.316013767474945 63.86085937499999 L 7.020110556302172 62.65593749999999 L 7.543404653682502 61.451015625 L 7.872418639215512 60.24609375 L 7.9986787696986 59.041171875 L 7.918933220074207 57.83624999999999 L 7.635235834065644 56.63132812499999 L 7.154893227506869 55.42640624999999 L 6.490276606718055 54.221484374999996 L 5.658503148537839 53.0165625 L 4.680995148057858 51.811640625 L 3.5829282881936653 50.60671875 L 2.392583240889094 49.40179687499999 L 1.140617299441323 48.19687499999999 L -0.14072519897032046 46.991953124999995 L -1.4184433250128716 45.78703124999999 L -2.6596294949316057 44.58210937499999 L -3.8323170041699086 43.37718749999999 L -4.9063033286797655 42.172265624999994 L -5.85392798982753 40.96734375 L -6.650784949012676 39.762421874999994 L -7.276351184302228 38.5575 L -7.714515260112447 37.352578125 L -7.953992276644891 36.14765625 L -7.988614512069328 34.942734375 L -7.817490271974618 33.737812500000004 L -7.445026854925758 32.532890625 L -6.880817042650026 31.327968749999997 L -6.139392038293308 30.123046875 L -5.2398472158128335 28.918124999999996 L -4.205350319317082 27.713203124999996 L -3.0625447786608766 26.50828125 L -1.840863508880785 25.303359375 L -0.571770866541436 24.098437499999996 L 0.7120477136207567 22.893515624999996 L 1.9775275308776203 21.688593749999995 L 3.1920761986710224 20.483671875 L 4.324413060340487 19.27875 L 5.3453748212950805 18.073828125 L 6.2286666486023945 16.868906250000002 L 6.951539393452114 15.663984374999998 L 7.495375494654247 14.459062499999998 L 7.846168473248848 13.254140625 L 7.994883668860999 12.049218749999998 L 7.937690927049386 10.844296874999998 L 7.676063244794304 9.639375 L 7.216738833514128 8.434453125000001 L 6.571547576675887 7.229531249999999 L 5.757106351577853 6.024609374999999 L 4.794391062280519 4.8196875 L 3.7081964059622297 3.6147656249999995 L 2.5264972863973014 2.40984375 L 1.2797283213291772 1.204921875 L 0 0 L 0.5671875000000001 0 L 1.1343750000000001 0 L 1.7015625 0 L 2.2687500000000003 0 L 2.8359375 0 L 3.403125 0 L 3.9703125000000004 0 L 4.5375000000000005 0 L 5.104687500000001 0 L 5.671875 0 L 6.2390625 0 L 6.80625 0 L 7.3734375000000005 0 L 7.940625000000001 0 L 8.5078125 0 L 9.075000000000001 0 L 9.642187500000002 0 L 10.209375000000001 0 L 10.7765625 0 L 11.34375 0 L 11.9109375 0 L 12.478125 0 L 13.045312500000001 0 L 13.6125 0 L 14.1796875 0 L 14.746875000000001 0 L 15.314062500000002 0 L 15.881250000000001 0 L 16.4484375 0 L 17.015625 0 L 17.582812500000003 0 L 18.150000000000002 0 L 19.333398226216936 0.8369531250000002 L 20.50571345848424 1.6739062500000004 L 21.656000578034075 2.510859375000001 L 22.773588501260843 3.3478125000000007 L 23.84821293063657 4.184765625000001 L 24.870144045107025 5.021718750000002 L 25.83030754146849 5.8586718750000015 L 26.7203975209406 6.6956250000000015 L 27.532979816598406 7.532578125000002 L 28.261584476244824 8.369531250000001 L 28.90078625021381 9.206484375000002 L 29.44627208281601 10.043437500000003 L 29.894894767816673 10.880390625000004 L 30.244712100458464 11.717343750000003 L 30.495011038968286 12.554296875000002 L 30.646316574973014 13.391250000000003 L 30.70038520247401 14.228203125000004 L 30.660183066627983 15.065156250000005 L 30.529849064168694 15.902109375000006 L 30.31464335450948 16.739062500000003 L 30.02088192206108 17.576015625000004 L 29.655858003825784 18.412968750000005 L 29.227751359728 19.249921875000005 L 28.74552651438073 20.086875000000006 L 28.218821236185505 20.923828125000007 L 27.657826641113317 21.760781250000008 L 27.073160412705196 22.59773437500001 L 26.475734715466775 23.434687500000006 L 25.87662044484702 24.271640625000003 L 25.286909502564747 25.108593750000004 L 24.717576810612044 25.945546875000005 L 24.179343780514287 26.782500000000006 L 23.68254493632303 27.619453125000007 L 23.236999350584604 28.456406250000008 L 22.85188849265272 29.29335937500001 L 22.535642008942265 30.13031250000001 L 22.29583285604613 30.96726562500001 L 22.139083091284963 31.80421875000001 L 22.07098149267874 32.64117187500001 L 22.096014033168007 33.478125000000006 L 22.21750807400261 34.315078125 L 22.437590971546054 35.15203125000001 L 22.757163612436976 35.988984375 L 23.17588920633685 36.82593750000001 L 23.692197475684996 37.662890625 L 24.303304190339215 38.49984375000001 L 25.005245804086364 39.336796875000005 L 25.79292876213606 40.17375000000001 L 26.660192866200198 41.010703125000006 L 27.599887908880945 41.847656250000014 L 28.603962624016603 42.68460937500001 L 29.663564846421 43.521562500000016 L 30.769151635004476 44.35851562500001 L 31.910607989317814 45.19546875000002 L 33.0773726826558 46.03242187500001 L 34.25856964632564 46.86937500000001 L 35.443143270627395 47.706328125000006 L 36.61999593936899 48.54328125000001 L 37.7781260869523 49.38023437500001 L 38.90676506056607 50.21718750000001 L 39.995511084886346 51.05414062500001 L 41.03445866273034 51.89109375000001 L 42.0143218018876 52.72804687500001 L 42.92654953515636 53.56500000000001 L 43.13654953515636 53.56500000000001 Q 42.66773771663757 52.946250000000006 42.11169671575939 52.273125000000014 Q 41.514835327205944 51.60000000000001 40.82660326419438 50.8725 Q 40.468566753679454 50.50875 40.087886068443716 50.13140624999999 Q 39.69930233572538 49.75406249999998 39.288814611270816 49.36312499999998 Q 38.87193468138066 48.97218749999999 38.43442997111729 48.567656249999985 Q 37.99247365813355 48.16312499999998 37.53176051447119 47.744999999999976 Q 37.06574183614311 47.32499999999998 36.59880133008711 46.903593749999985 Q 36.132602370120544 46.48218749999998 35.66832620598795 46.05937499999999 Q 35.20764570786867 45.63656249999998 34.75177138583594 45.21234374999999 Q 34.30234829633821 44.788124999999994 33.86061640213063 44.3625 Q 33.42815525427592 43.936875 33.00623371834723 43.509843749999995 Q 32.59632825449947 43.082812499999996 32.19973534035069 42.65437499999999 Q 31.817791368247093 42.22593749999999 31.451818412244315 41.79609375 Q 31.102976939506068 41.366249999999994 30.772611911107024 40.93499999999999 Q 30.46167364371455 40.50374999999998 30.18066731478375 40.085859374999984 Q 29.919689423947332 39.667968749999986 29.6877233247172 39.26343749999999 Q 29.475918271688876 38.85890624999999 29.291720228690583 38.46773437499999 Q 29.127418178353388 38.07656249999999 28.988928608456124 37.69874999999999 Q 28.770151967231833 36.94312499999999 28.641653376513773 36.24093749999999 Q 28.582726986441173 35.538749999999986 28.594582883226 34.889999999999986 L 28.594582883226 34.889999999999986 L 28.74875858003844 33.79968749999999 L 29.068147602061956 32.70937499999999 L 29.546011895961872 31.619062499999988 L 30.172270103654455 30.528749999999988 L 30.93371024566095 29.43843749999999 L 31.814268450231808 28.34812499999999 L 32.795367847977175 27.25781249999999 L 33.856310482446496 26.16749999999999 L 34.97471396863858 25.07718749999999 L 36.126983687389924 23.98687499999999 L 37.28881055389952 22.89656249999999 L 38.43568385911858 21.80624999999999 L 39.54340836474579 20.715937499999992 L 40.58861474283193 19.625624999999992 L 41.54925259140431 18.535312499999993 L 42.405055625109796 17.444999999999993 L 43.137969226890625 16.354687499999994 L 43.73253134076498 15.264374999999994 L 44.176198670132734 14.174062499999994 L 44.45961129989978 13.083749999999995 L 44.5767901597681 11.993437499999995 L 44.525263162868576 10.903124999999996 L 44.30611735862789 9.812812499999996 L 43.9239759996165 8.722499999999997 L 43.38690100619126 7.632187499999997 L 42.70622288660661 6.541874999999997 L 41.89630170071825 5.451562499999998 L 40.974224110155376 4.361249999999998 L 39.959442906202305 3.2709374999999987 L 38.87336662016027 2.180624999999999 L 37.73890787405526 1.0903124999999996 L 36.58 0 L 37.35375 0 L 38.1275 0 L 38.90125 0 L 39.675 0 L 40.44875 0 L 41.2225 0 L 41.996249999999996 0 L 42.769999999999996 0 L 43.543749999999996 0 L 44.317499999999995 0 L 45.091249999999995 0 L 45.864999999999995 0 L 46.638749999999995 0 L 47.412499999999994 0 L 48.18625 0 L 48.96 0 L 48.96 0 Z" fill="black" stroke="black" />
				</svg>