<svg
					xmlns="http://www.w3.org/2000/svg" xmlns:xlink="http://www.w3.org/1999/xlink"
					style="
						overflow: visible;
						height: 100;
					"
					viewBox="-7.988614512069328 0 60.057293281767926 77.115"
				>
					<path d="M 44.07 0 L 45.34972832132918 1.204921875 L 46.5964972863973 2.40984375 L 47.77819640596223 3.6147656249999995 L 48.86439106228052 4.8196875 L 49.827106351577854 6.024609374999999 L 50.64154757667589 7.229531249999999 L 51.28673883351413 8.434453125000001 L 51.74606324479431 9.639375 L 52.00769092704939 10.844296874999998 L 52.064883668861 12.049218749999998 L 51.916168473248845 13.254140625 L 51.56537549465425 14.459062499999998 L 51.021539393452116 15.663984374999998 L 50.29866664860239 16.868906250000002 L 49.41537482129508 18.073828125 L 48.39441306034049 19.27875 L 47.262076198671025 20.483671875 L 46.04752753087762 21.688593749999995 L 44.782047713620756 22.893515624999996 L 43.498229133458565 24.098437499999996 L 42.22913649111921 25.303359375 L 41.00745522133912 26.50828125 L 39.864649680682916 27.713203124999996 L 38.83015278418716 28.918124999999996 L 37.93060796170669 30.123046875 L 37.18918295734997 31.327968749999997 L 36.62497314507424 32.532890625 L 36.25250972802538 33.737812500000004 L 36.081385487930675 34.942734375 L 36.11600772335511 36.14765625 L 36.35548473988755 37.352578125 L 36.79364881569777 38.5575 L 37.419215050987326 39.762421874999994 L 38.21607201017247 40.96734375 L 39.16369667132024 42.172265624999994 L 40.23768299583009 43.37718749999999 L 41.41037050506839 44.58210937499999 L 42.65155667498713 45.78703124999999 L 43.92927480102968 46.991953124999995 L 45.210617299441324 48.19687499999999 L 46.462583240889096 49.40179687499999 L 47.652928288193664 50.60671875 L 48.75099514805786 51.811640625 L 49.72850314853784 53.0165625 L 50.560276606718055 54.221484374999996 L 51.22489322750687 55.42640624999999 L 51.70523583406565 56.63132812499999 L 51.98893322007421 57.83624999999999 L 52.0686787696986 59.041171875 L 51.94241863921551 60.24609375 L 51.6134046536825 61.451015625 L 51.09011055630217 62.65593749999999 L 50.38601376747494 63.86085937499999 L 49.51924827432795 65.06578125 L 48.5121375905377 66.27070312500001 L 47.390619815049206 67.47562500000001 L 46.183579597283256 68.680546875 L 44.92210421404358 69.88546875 L 43.6386829178362 71.090390625 L 42.3663701773555 72.2953125 L 41.13793436084815 73.500234375 L 39.98501378798347 74.70515625 L 38.93730188608382 75.910078125 L 38.021782436986406 77.115 L 37.14865743698641 77.115 L 36.27553243698641 77.115 L 35.40240743698641 77.115 L 34.529282436986406 77.115 L 33.656157436986405 77.115 L 32.7830324369864 77.115 L 31.9099074369864 77.115 L 31.036782436986407 77.115 L 30.163657436986412 77.115 L 29.29053243698641 77.115 L 28.41740743698641 77.115 L 27.544282436986407 77.115 L 26.671157436986405 77.115 L 25.798032436986407 77.115 L 24.92490743698641 77.115 L 24.051782436986407 77.115 L 24.787229022637785 76.13296874999999 L 25.613631033935434 75.1509375 L 26.516840346103635 74.16890624999999 L 27.481393882005076 73.186875 L 28.490778342310588 72.20484375 L 29.52771291562829 71.2228125 L 30.574445128553034 70.24078125 L 31.613054770639096 69.25874999999999 L 32.625760691056 68.27671875 L 33.59522521452307 67.2946875 L 34.504850964876965 66.31265625 L 35.339065014608735 65.330625 L 36.08358549568816 64.34859374999999 L 36.72566610725875 63.36656250000001 L 37.25431433419547 62.38453125000001 L 37.66047964059096 61.4025 L 37.93720841627015 60.42046875 L 38.07976302362591 59.4384375 L 38.08570290667621 58.45640625000001 L 37.95492637374389 57.47437500000001 L 37.689672338433176 56.49234375 L 37.29448198909736 55.51031250000001 L 36.776121043021895 54.528281250000006 L 36.14346391634282 53.54625000000001 L 35.40734179272879 52.56421875000001 L 34.58035719191315 51.5821875 L 33.67666821269044 50.60015625000001 L 32.71174614416892 49.618125000000006 L 31.702110595010822 48.63609375000001 L 30.665046675286302 47.65406250000001 L 29.618309072830186 46.67203125000002 L 28.579818090357744 45.69000000000001 L 28.075755590357744 45.69000000000001 L 27.571693090357744 45.69000000000001 L 27.067630590357744 45.69000000000001 L 26.563568090357744 45.69000000000001 L 26.059505590357745 45.69000000000001 L 25.555443090357745 45.69000000000001 L 25.051380590357745 45.69000000000001 L 24.547318090357745 45.69000000000001 L 24.043255590357745 45.69000000000001 L 23.539193090357745 45.69000000000001 L 23.035130590357745 45.69000000000001 L 22.531068090357746 45.69000000000001 L 22.027005590357746 45.69000000000001 L 21.522943090357746 45.69000000000001 L 21.018880590357746 45.69000000000001 L 20.514818090357746 45.69000000000001 L 20.010755590357746 45.69000000000001 L 19.506693090357746 45.69000000000001 L 19.002630590357747 45.69000000000001 L 18.498568090357747 45.69000000000001 L 17.994505590357747 45.69000000000001 L 17.490443090357747 45.69000000000001 L 16.986380590357747 45.69000000000001 L 16.482318090357747 45.69000000000001 L 15.978255590357747 45.69000000000001 L 15.474193090357748 45.69000000000001 L 14.970130590357748 45.69000000000001 L 14.466068090357746 45.69000000000001 L 13.962005590357744 45.69000000000001 L 13.457943090357745 45.69000000000001 L 12.953880590357745 45.69000000000001 L 12.449818090357745 45.69000000000001 L 13.488309072830187 46.67203125000002 L 14.535046675286305 47.65406250000001 L 15.572110595010825 48.63609375000001 L 16.58174614416892 49.618125000000006 L 17.546668212690438 50.60015625000001 L 18.450357191913156 51.5821875 L 19.277341792728794 52.56421875000001 L 20.013463916342822 53.54625000000001 L 20.646121043021896 54.528281250000006 L 21.164481989097368 55.51031250000001 L 21.559672338433177 56.49234375 L 21.82492637374389 57.47437500000001 L 21.955702906676212 58.45640625000001 L 21.94976302362591 59.4384375 L 21.807208416270154 60.42046875 L 21.53047964059096 61.4025 L 21.124314334195475 62.38453125000001 L 20.59566610725875 63.36656250000001 L 19.953585495688163 64.34859374999999 L 19.209065014608736 65.330625 L 18.374850964876963 66.31265625 L 17.46522521452307 67.2946875 L 16.495760691056002 68.27671875 L 15.483054770639095 69.25874999999999 L 14.444445128553035 70.24078125 L 13.397712915628288 71.2228125 L 12.360778342310589 72.20484375 L 11.351393882005077 73.186875 L 10.386840346103634 74.16890624999999 L 9.483631033935435 75.1509375 L 8.657229022637786 76.13296874999999 L 7.921782436986409 77.115 L 7.048657436986409 77.115 L 6.175532436986409 77.115 L 5.302407436986409 77.115 L 4.429282436986409 77.115 L 3.5561574369864095 77.115 L 2.6830324369864096 77.115 L 1.8099074369864088 77.115 L 0.936782436986408 77.115 L 0.06365743698640802 77.115 L -0.8094675630135919 77.115 L -1.6825925630135918 77.115 L -2.5557175630135927 77.115 L -3.4288425630135926 77.115 L -4.3019675630135925 77.115 L -5.175092563013593 77.115 L -6.048217563013593 77.115 L -5.132698113916178 75.910078125 L -4.084986212016532 74.70515625 L -2.932065639151851 73.500234375 L -1.7036298226444984 72.2953125 L -0.43131708216380155 71.090390625 L 0.852104214043576 69.88546875 L 2.113579597283255 68.680546875 L 3.320619815049206 67.47562500000001 L 4.442137590537699 66.27070312500001 L 5.449248274327946 65.06578125 L 6.316013767474945 63.86085937499999 L 7.020110556302172 62.65593749999999 L 7.543404653682502 61.451015625 L 7.872418639215512 60.24609375 L 7.9986787696986 59.041171875 L 7.918933220074207 57.83624999999999 L 7.635235834065644 56.63132812499999 L 7.154893227506869 55.42640624999999 L 6.490276606718055 54.221484374999996 L 5.658503148537839 53.0165625 L 4.680995148057858 51.811640625 L 3.5829282881936653 50.60671875 L 2.392583240889094 49.40179687499999 L 1.140617299441323 48.19687499999999 L -0.14072519897032046 46.991953124999995 L -1.4184433250128716 45.78703124999999 L -2.6596294949316057 44.58210937499999 L -3.8323170041699086 43.37718749999999 L -4.9063033286797655 42.172265624999994 L -5.85392798982753 40.96734375 L -6.650784949012676 39.762421874999994 L -7.276351184302228 38.5575 L -7.714515260112447 37.352578125 L -7.953992276644891 36.14765625 L -7.988614512069328 34.942734375 L -7.817490271974618 33.737812500000004 L -7.445026854925758 32.532890625 L -6.880817042650026 31.327968749999997 L -6.139392038293308 30.123046875 L -5.2398472158128335 28.918124999999996 L -4.205350319317082 27.713203124999996 L -3.0625447786608766 26.50828125 L -1.840863508880785 25.303359375 L -0.571770866541436 24.098437499999996 L 0.7120477136207567 22.893515624999996 L 1.9775275308776203 21.688593749999995 L 3.1920761986710224 20.483671875 L 4.324413060340487 19.27875 L 5.3453748212950805 18.073828125 L 6.2286666486023945 16.868906250000002 L 6.951539393452114 15.663984374999998 L 7.495375494654247 14.459062499999998 L 7.846168473248848 13.254140625 L 7.994883668860999 12.049218749999998 L 7.937690927049386 10.844296874999998 L 7.676063244794304 9.639375 L 7.216738833514128 8.434453125000001 L 6.571547576675887 7.229531249999999 L 5.757106351577853 6.024609374999999 L 4.794391062280519 4.8196875 L 3.7081964059622297 3.6147656249999995 L 2.5264972863973014 2.40984375 L 1.2797283213291772 1.204921875 L 0 0 L 0.8731250000000002 0 L 1.7462500000000003 0 L 2.6193750000000007 0 L 3.4925000000000006 0 L 4.365625000000001 0 L 5.238750000000001 0 L 6.111875000000001 0 L 6.985000000000001 0 L 7.858125000000002 0 L 8.731250000000003 0 L 9.604375000000003 0 L 10.477500000000003 0 L 11.350625000000003 0 L 12.223750000000003 0 L 13.096875000000002 0 L 13.970000000000002 0 L 14.921740537702235 0.8943749999999999 L 15.859962820766638 1.7887499999999998 L 16.771340604038233 2.6831249999999995 L 17.642928934079116 3.5774999999999997 L 18.462348015642455 4.471875 L 19.21795905079872 5.366249999999999 L 19.899029553144562 6.260625 L 20.495885789018025 7.154999999999999 L 21.00005018048784 8.049374999999998 L 21.404361718483543 8.94375 L 21.70307767575214 9.838125 L 21.891955174939177 10.732499999999998 L 21.96831145322409 11.626875 L 21.931061967528002 12.52125 L 21.78073579905826 13.415624999999999 L 21.51946813838792 14.309999999999999 L 21.15096995781003 15.204374999999999 L 20.680475301731953 16.098749999999995 L 20.11466694378226 16.993125 L 19.46158146657563 17.8875 L 18.730495112356046 18.781875 L 17.931792025863672 19.67625 L 17.076816760866592 20.570625 L 16.1777131453131 21.464999999999996 L 15.24725179381859 22.359375 L 14.298648717451096 23.25375 L 13.345377607230985 24.148125 L 12.400978457617205 25.0425 L 11.478865248238124 25.936874999999997 L 10.59213541550155 26.831249999999997 L 9.75338382029555 27.725625 L 8.974523854130442 28.619999999999997 L 9.478586354130442 28.619999999999997 L 9.982648854130442 28.619999999999997 L 10.486711354130442 28.619999999999997 L 10.990773854130445 28.619999999999997 L 11.494836354130445 28.619999999999997 L 11.998898854130445 28.619999999999997 L 12.502961354130445 28.619999999999997 L 13.007023854130445 28.619999999999997 L 13.511086354130445 28.619999999999997 L 14.015148854130445 28.619999999999997 L 14.519211354130444 28.619999999999997 L 15.023273854130444 28.619999999999997 L 15.527336354130444 28.619999999999997 L 16.031398854130444 28.619999999999997 L 16.535461354130444 28.619999999999997 L 17.039523854130444 28.619999999999997 L 17.543586354130444 28.619999999999997 L 18.047648854130443 28.619999999999997 L 18.551711354130443 28.619999999999997 L 19.055773854130443 28.619999999999997 L 19.559836354130443 28.619999999999997 L 20.063898854130443 28.619999999999997 L 20.567961354130443 28.619999999999997 L 21.072023854130443 28.619999999999997 L 21.576086354130442 28.619999999999997 L 22.080148854130442 28.619999999999997 L 22.584211354130442 28.619999999999997 L 23.088273854130442 28.619999999999997 L 23.592336354130442 28.619999999999997 L 24.09639885413044 28.619999999999997 L 24.60046135413044 28.619999999999997 L 25.10452385413044 28.619999999999997 L 25.88338382029555 27.725625 L 26.72213541550155 26.831249999999997 L 27.608865248238125 25.936874999999997 L 28.530978457617202 25.0425 L 29.475377607230985 24.148125 L 30.428648717451097 23.25375 L 31.377251793818587 22.359375 L 32.3077131453131 21.464999999999996 L 33.20681676086659 20.570625 L 34.061792025863674 19.67625 L 34.86049511235605 18.781875 L 35.59158146657563 17.8875 L 36.24466694378226 16.993125 L 36.810475301731955 16.098749999999995 L 37.28096995781003 15.204374999999999 L 37.649468138387924 14.309999999999999 L 37.91073579905826 13.415624999999999 L 38.061061967528005 12.52125 L 38.09831145322409 11.626875 L 38.02195517493918 10.732499999999998 L 37.83307767575214 9.838125 L 37.53436171848354 8.94375 L 37.130050180487835 8.049374999999998 L 36.62588578901802 7.154999999999999 L 36.02902955314456 6.260625 L 35.34795905079872 5.366249999999999 L 34.59234801564246 4.471875 L 33.77292893407911 3.5774999999999997 L 32.90134060403823 2.6831249999999995 L 31.98996282076664 1.7887499999999998 L 31.051740537702234 0.8943749999999999 L 30.1 0 L 30.973125000000003 0 L 31.84625 0 L 32.719375 0 L 33.5925 0 L 34.465625 0 L 35.338750000000005 0 L 36.211875000000006 0 L 37.085 0 L 37.958124999999995 0 L 38.83125 0 L 39.704375 0 L 40.5775 0 L 41.450625 0 L 42.323750000000004 0 L 43.196875000000006 0 L 44.07 0 L 44.07 0 Z" fill="black" stroke="black" />
				</svg>