<svg
					xmlns="http://www.w3.org/2000/svg" xmlns:xlink="http://www.w3.org/1999/xlink"
					style="
						overflow: visible;
						height: 100;
					"
					viewBox="-7.988614512069328 0 55.45724722463226 77.115"
				>
					<path d="M 20.0535486693112 34.55999999999999 L 20.259583804799746 35.224921874999986 L 20.528449434050057 35.88984374999999 L 20.859986325833333 36.55476562499999 L 21.253542979702885 37.21968749999999 L 21.707980743389285 37.88460937499998 L 22.221682756667775 38.54953124999999 L 22.79256665144578 39.21445312499999 L 23.41810090831406 39.87937499999999 L 24.09532474108437 40.544296874999986 L 24.820871353124875 41.20921874999999 L 25.59099438281977 41.874140624999995 L 26.401597330429837 42.539062499999986 L 27.248265735212268 43.20398437499999 L 28.126301850055384 43.86890624999999 L 29.03076154126656 44.53382812499999 L 29.956493123673486 45.19874999999999 L 30.898177825997422 45.86367187499999 L 31.85037156865169 46.52859374999999 L 32.80754772580983 47.19351562499999 L 33.76414053585663 47.858437499999994 L 34.71458881924234 48.523359375 L 35.653379660345664 49.188281249999996 L 36.57509171023419 49.85320312499999 L 37.4744377701881 50.51812499999999 L 38.346306321503064 51.18304687499999 L 39.18580167536456 51.847968749999986 L 39.9882824274251 52.51289062499998 L 40.749397915031935 53.17781249999999 L 41.46512239074154 53.842734375 L 42.1317866436955 54.50765625 L 42.74610682047847 55.172578124999994 L 43.30521021907683 55.83749999999999 L 43.806657853331934 56.50242187499999 L 44.2484636106491 57.167343749999986 L 44.62910985248257 57.832265624999984 L 44.94755933505832 58.497187499999995 L 45.2032633566995 59.162109375 L 45.39616606775959 59.82703125 L 45.52670490930925 60.491953124999995 L 45.59580717713132 61.15687499999999 L 45.60488273801287 61.82179687499999 L 45.55581295554644 62.48671874999999 L 45.45093591242575 63.151640624999985 L 45.2930280453116 63.81656249999999 L 45.085282336522226 64.48148437500001 L 44.83128323384743 65.14640625 L 44.53497849548617 65.81132812499999 L 44.200648181259396 66.47625 L 43.83287103366546 67.141171875 L 43.43648851284776 67.80609374999999 L 43.01656676797196 68.47101562499998 L 42.578356843719604 69.1359375 L 42.12725343446743 69.800859375 L 41.66875251012931 70.46578124999999 L 41.20840814650079 71.130703125 L 40.751788899194466 71.795625 L 40.304434063839636 72.46054687499999 L 39.87181016611263 73.12546874999998 L 39.459268023359485 73.79039062499999 L 39.07200071508251 74.45531249999999 L 38.715002792423576 75.120234375 L 38.393031047044616 75.78515625 L 38.11056714755758 76.450078125 L 37.87178243698641 77.115 L 36.891157436986404 77.115 L 35.91053243698641 77.115 L 34.92990743698641 77.115 L 33.94928243698641 77.115 L 32.968657436986405 77.115 L 31.98803243698641 77.115 L 31.007407436986412 77.115 L 30.02678243698641 77.115 L 29.046157436986405 77.115 L 28.06553243698641 77.115 L 27.084907436986413 77.115 L 26.10428243698641 77.115 L 25.12365743698641 77.115 L 24.14303243698641 77.115 L 23.16240743698641 77.115 L 22.18178243698641 77.115 L 22.55199148929747 76.1934375 L 23.003037855765534 75.271875 L 23.523337123800484 74.3503125 L 24.100260597007708 73.42875000000001 L 24.72032572682087 72.5071875 L 25.369399419609437 71.585625 L 26.032911153536684 70.6640625 L 26.696072691519507 69.74249999999999 L 27.344101077177008 68.82093749999999 L 27.962441551150025 67.89937499999999 L 28.536987026374174 66.9778125 L 29.054290812777445 66.05624999999999 L 29.501769383667636 65.1346875 L 29.86789212623856 64.21312499999999 L 30.142355214894263 63.29156249999999 L 30.31623698550701 62.37 L 30.382132467677287 61.448437500000004 L 30.334265046346307 60.526875000000004 L 30.1685735689845 59.6053125 L 29.882773584842425 58.68375 L 29.476391792820316 57.762187499999996 L 28.95077317850728 56.840624999999996 L 28.309060732768756 55.9190625 L 27.55614805771121 54.9975 L 26.698605574692106 54.075937499999995 L 25.74458144710497 53.154375 L 24.703678711952556 52.232812499999994 L 23.586810472975397 51.311249999999994 L 22.406035338918873 50.3896875 L 21.17437558841098 49.468125 L 19.90562080339349 48.54656249999999 L 18.614119932172446 47.625 L 18.587969393591962 48.084374999999994 L 18.5579870090245 48.543749999999996 L 18.52235846134206 49.003125 L 18.47929060872913 49.46249999999999 L 18.42701820966353 49.921874999999986 L 18.36381054326014 50.38124999999999 L 18.287977900148867 50.84062499999999 L 18.197877919543437 51.29999999999998 L 18.9025513252888 52.106718749999985 L 19.55021163482898 52.913437499999986 L 20.13337283999072 53.72015624999999 L 20.645294448136358 54.52687499999999 L 21.080059392423607 55.33359374999999 L 21.432642424464643 56.14031249999999 L 21.69896819886508 56.947031249999995 L 21.87595837827038 57.75374999999998 L 21.96156721445405 58.56046874999998 L 21.95480519418217 59.36718749999998 L 21.855750476542582 60.17390624999998 L 21.665547989539867 60.98062499999998 L 21.386396196398188 61.787343749999984 L 21.021521684534207 62.594062499999986 L 20.575141870914493 63.40078124999999 L 20.052416254869037 64.20749999999998 L 19.45938678180724 65.01421875 L 18.802908007144854 65.82093749999999 L 18.090567867644864 66.62765625 L 17.330599975940128 67.43437499999999 L 16.531788451985058 68.24109375 L 15.703366391445897 69.04781249999999 L 14.854909144586895 69.85453125000001 L 13.996223639192712 70.66125 L 13.137235026792514 71.46796874999998 L 12.287871962390241 72.27468749999998 L 11.457951843699652 73.08140624999999 L 10.6570673363514 73.88812499999999 L 9.894475496675053 74.69484374999999 L 9.178990773634954 75.50156249999999 L 8.518883126661407 76.30828125 L 7.921782436986409 77.115 L 7.048657436986409 77.115 L 6.175532436986409 77.115 L 5.302407436986409 77.115 L 4.429282436986409 77.115 L 3.5561574369864095 77.115 L 2.6830324369864096 77.115 L 1.8099074369864088 77.115 L 0.936782436986408 77.115 L 0.06365743698640802 77.115 L -0.8094675630135919 77.115 L -1.6825925630135918 77.115 L -2.5557175630135927 77.115 L -3.4288425630135926 77.115 L -4.3019675630135925 77.115 L -5.175092563013593 77.115 L -6.048217563013593 77.115 L -5.132698113916178 75.910078125 L -4.084986212016532 74.70515625 L -2.932065639151851 73.500234375 L -1.7036298226444984 72.2953125 L -0.43131708216380155 71.090390625 L 0.852104214043576 69.88546875 L 2.113579597283255 68.680546875 L 3.320619815049206 67.47562500000001 L 4.442137590537699 66.27070312500001 L 5.449248274327946 65.06578125 L 6.316013767474945 63.86085937499999 L 7.020110556302172 62.65593749999999 L 7.543404653682502 61.451015625 L 7.872418639215512 60.24609375 L 7.9986787696986 59.041171875 L 7.918933220074207 57.83624999999999 L 7.635235834065644 56.63132812499999 L 7.154893227506869 55.42640624999999 L 6.490276606718055 54.221484374999996 L 5.658503148537839 53.0165625 L 4.680995148057858 51.811640625 L 3.5829282881936653 50.60671875 L 2.392583240889094 49.40179687499999 L 1.140617299441323 48.19687499999999 L -0.14072519897032046 46.991953124999995 L -1.4184433250128716 45.78703124999999 L -2.6596294949316057 44.58210937499999 L -3.8323170041699086 43.37718749999999 L -4.9063033286797655 42.172265624999994 L -5.85392798982753 40.96734375 L -6.650784949012676 39.762421874999994 L -7.276351184302228 38.5575 L -7.714515260112447 37.352578125 L -7.953992276644891 36.14765625 L -7.988614512069328 34.942734375 L -7.817490271974618 33.737812500000004 L -7.445026854925758 32.532890625 L -6.880817042650026 31.327968749999997 L -6.139392038293308 30.123046875 L -5.2398472158128335 28.918124999999996 L -4.205350319317082 27.713203124999996 L -3.0625447786608766 26.50828125 L -1.840863508880785 25.303359375 L -0.571770866541436 24.098437499999996 L 0.7120477136207567 22.893515624999996 L 1.9775275308776203 21.688593749999995 L 3.1920761986710224 20.483671875 L 4.324413060340487 19.27875 L 5.3453748212950805 18.073828125 L 6.2286666486023945 16.868906250000002 L 6.951539393452114 15.663984374999998 L 7.495375494654247 14.459062499999998 L 7.846168473248848 13.254140625 L 7.994883668860999 12.049218749999998 L 7.937690927049386 10.844296874999998 L 7.676063244794304 9.639375 L 7.216738833514128 8.434453125000001 L 6.571547576675887 7.229531249999999 L 5.757106351577853 6.024609374999999 L 4.794391062280519 4.8196875 L 3.7081964059622297 3.6147656249999995 L 2.5264972863973014 2.40984375 L 1.2797283213291772 1.204921875 L 0 0 L 0.8731250000000002 0 L 1.7462500000000003 0 L 2.6193750000000007 0 L 3.4925000000000006 0 L 4.365625000000001 0 L 5.238750000000001 0 L 6.111875000000001 0 L 6.985000000000001 0 L 7.858125000000002 0 L 8.731250000000003 0 L 9.604375000000003 0 L 10.477500000000003 0 L 11.350625000000003 0 L 12.223750000000003 0 L 13.096875000000002 0 L 13.970000000000002 0 L 15.082383913790968 1.0462499999999997 L 16.173155640865332 2.0924999999999994 L 17.221122891458325 3.138749999999999 L 18.205925011651907 4.184999999999999 L 19.108428564656254 5.231249999999998 L 19.91109906884312 6.277499999999998 L 20.598341670139803 7.323749999999998 L 21.1568041299579 8.369999999999997 L 21.575636241991695 9.416249999999998 L 21.8467006377518 10.462499999999997 L 21.96473088515414 11.508749999999996 L 21.927433808512305 12.554999999999996 L 21.735534041987552 13.601249999999997 L 21.392759950880375 14.647499999999996 L 20.905771194294772 15.693749999999994 L 20.28402933653937 16.739999999999995 L 19.539614021119206 17.786249999999995 L 18.686988278820785 18.832499999999996 L 17.742717529651955 19.878749999999993 L 16.72514773806713 20.924999999999994 L 15.654048974507148 21.971249999999994 L 14.550231308394077 23.01749999999999 L 13.435140495285289 24.063749999999995 L 12.33044131346471 25.109999999999992 L 11.257596645204536 26.15624999999999 L 10.237450480606459 27.202499999999993 L 9.289822945720655 28.248749999999994 L 8.433125223024547 29.29499999999999 L 7.684001845860482 30.341249999999988 L 7.057007316590751 31.38749999999999 L 6.5643233313625835 32.43374999999999 L 6.215522105441787 33.47999999999999 Q 6.621468785214027 32.86124999999999 7.098392569948867 32.2378125 Q 7.6258950864411075 31.614374999999995 8.22219890458547 30.98625 Q 8.865383965657221 30.358125 9.573615021870136 29.7253125 Q 9.943569341481007 29.40890625 10.32883189843376 29.091328125 Q 10.723735809201049 28.773749999999996 11.133191202103827 28.455 Q 11.549778626546447 28.138125 11.969660812413942 27.82546875 Q 12.397026381903652 27.512812500000003 12.826306627332219 27.204375 Q 13.703314403726065 26.587500000000002 14.580107182454196 25.987499999999997 Q 15.473162599031568 25.387499999999996 16.3564192878275 24.804374999999993 Q 17.24764664112618 24.221249999999998 18.1207437753851 23.654999999999994 L 18.1207437753851 23.654999999999994 L 19.245888872103247 22.915781249999995 L 20.36435198142272 22.176562499999996 L 21.46855252517502 21.437343749999997 L 22.551048367701775 20.698124999999994 L 23.6046080544668 19.95890624999999 L 24.62228100564878 19.219687499999992 L 25.59746498336605 18.480468749999993 L 26.52397017764909 17.741249999999994 L 27.396079289097173 17.002031249999995 L 28.20860302501444 16.262812499999995 L 28.956930470340964 15.523593749999998 L 29.63707384444293 14.784374999999997 L 30.245707209321097 14.045156249999994 L 30.780198753508287 13.305937499999995 L 31.23863633828575 12.566718749999996 L 31.619846058248775 11.827499999999997 L 31.923403636059604 11.088281249999998 L 32.149638540782234 10.349062499999997 L 32.29963078982351 9.609843749999996 L 32.375200465523264 8.870624999999997 L 32.37889004815282 8.131406249999998 L 32.313939736810084 7.392187499999999 L 32.1842559977643 6.652968749999998 L 31.99437364554209 5.9137499999999985 L 31.74941182482261 5.1745312499999985 L 31.45502432041264 4.435312499999998 L 31.117344677627862 3.6960937499999993 L 30.742926665780583 2.9568749999999993 L 30.338680662677348 2.217656249999999 L 29.911806577623214 1.4784374999999996 L 29.469723964029313 0.7392187499999998 L 29.020000000000003 0 L 29.969375000000003 0 L 30.918750000000003 0 L 31.868125000000003 0 L 32.8175 0 L 33.766875 0 L 34.71625 0 L 35.665625000000006 0 L 36.615 0 L 37.564375 0 L 38.51375 0 L 39.463125000000005 0 L 40.4125 0 L 41.361875 0 L 42.31125 0 L 43.260625000000005 0 L 44.21 0 L 44.8517728137869 1.0799999999999996 L 45.46978133381768 2.1599999999999993 L 46.04075319180224 3.239999999999999 L 46.5423896874306 4.3199999999999985 L 46.95382737577179 5.399999999999999 L 47.256069944609486 6.479999999999998 L 47.43238144177031 7.559999999999997 L 47.468632712562936 8.639999999999997 L 47.35359387600646 9.719999999999997 L 47.07916678553349 10.799999999999997 L 46.64055266218664 11.879999999999995 L 46.03635143026886 12.959999999999996 L 45.26859069918052 14.039999999999994 L 44.34268379151359 15.119999999999994 L 43.26731768622947 16.199999999999996 L 42.05427319651837 17.279999999999994 L 40.71818110469316 18.359999999999992 L 39.27621930217246 19.439999999999994 L 37.74775720381383 20.519999999999996 L 36.1539547972889 21.599999999999994 L 34.51732462725571 22.679999999999993 L 32.86126578134058 23.75999999999999 L 31.209579524509277 24.839999999999993 L 29.585976608289904 25.91999999999999 L 28.01358645364119 26.99999999999999 L 26.514478367475874 28.079999999999988 L 25.10920470374932 29.159999999999986 L 23.81637542576708 30.239999999999988 L 22.65227287635369 31.319999999999993 L 21.630514730214504 32.39999999999999 L 20.761772105441786 33.47999999999999 L 20.0535486693112 34.55999999999999 L 20.0535486693112 34.55999999999999 Z" fill="black" stroke="black" />
				</svg>