<svg
					xmlns="http://www.w3.org/2000/svg" xmlns:xlink="http://www.w3.org/1999/xlink"
					style="
						overflow: visible;
						height: 100;
					"
					viewBox="-6.048217563013593 0 40.82752022520024 77.115"
				>
					<path d="M 32.0957215714973 65.23500000000001 L 30.81582863921632 66.72 L 29.378231312727443 68.20500000000001 L 27.83910527136597 69.69000000000001 L 26.25859353944269 71.17500000000001 L 24.698456332145966 72.66 L 23.21965770795119 74.145 L 21.87998333171985 75.63 L 20.731782436986407 77.115 L 19.894907436986408 77.115 L 19.05803243698641 77.115 L 18.22115743698641 77.115 L 17.384282436986407 77.115 L 16.547407436986404 77.115 L 15.710532436986405 77.115 L 14.873657436986406 77.115 L 14.036782436986407 77.115 L 13.199907436986408 77.115 L 12.363032436986408 77.115 L 11.52615743698641 77.115 L 10.689282436986407 77.115 L 9.852407436986407 77.115 L 9.015532436986408 77.115 L 8.178657436986406 77.115 L 7.341782436986407 77.115 L 6.504907436986408 77.115 L 5.668032436986407 77.115 L 4.831157436986406 77.115 L 3.994282436986407 77.115 L 3.157407436986408 77.115 L 2.320532436986407 77.115 L 1.483657436986407 77.115 L 0.646782436986407 77.115 L -0.190092563013593 77.115 L -1.026967563013593 77.115 L -1.863842563013593 77.115 L -2.700717563013593 77.115 L -3.537592563013593 77.115 L -4.374467563013593 77.115 L -5.211342563013593 77.115 L -6.048217563013593 77.115 L -4.900016668280151 75.63 L -3.5603422920488126 74.145 L -2.081543667854037 72.66 L -0.5214064605573112 71.17500000000001 L 1.059105271365969 69.69000000000001 L 2.5982313127274406 68.20500000000001 L 4.0358286392163185 66.72 L 5.315721571497299 65.23500000000001 L 6.47296105186218 64.775625 L 7.608929404978571 64.31625000000001 L 8.722371306550802 63.85687500000001 L 9.812115915257158 63.3975 L 10.877081263861268 62.93812499999999 L 11.916278317010956 62.47874999999999 L 12.928814680506385 62.019375 L 13.913897948126097 61.55999999999999 L 14.305390930826555 60.119062499999984 L 14.406344471656347 58.67812499999999 L 14.21304362025209 57.23718749999999 L 13.732601579996896 55.796249999999986 L 12.982697951996 54.35531249999998 L 11.990928150263104 52.914374999999986 L 10.793787928736698 51.47343749999999 L 9.435330388124587 50.032499999999985 L 7.965544882863103 48.59156249999998 L 6.43851748216776 47.150624999999984 L 4.91044067765883 45.70968749999999 L 3.437545577562266 44.26874999999999 L 2.074032679873085 42.82781249999999 L 0.8700773691604322 41.38687499999999 L -0.13001646803272315 39.94593749999999 L -0.8894467648015141 38.504999999999995 L -1.3802675389271943 37.06406249999999 L -1.584417266284821 35.62312499999999 L -1.4943835198946305 34.18218749999999 L -1.1134794168213649 32.741249999999994 L -0.4557217000588416 31.30031249999999 L 0.45468505818256144 29.85937499999999 L 1.5842391511815235 28.41843749999999 L 2.8913745540739284 26.977499999999992 L 4.327990495950141 25.536562499999995 L 5.841221501548444 24.09562499999999 L 7.375382767463928 22.654687499999994 L 8.874019285725003 21.213749999999994 L 10.28198330983028 19.772812499999997 L 11.547463715375486 18.331874999999997 L 12.623892577612278 16.890937499999996 L 13.471658806527794 15.449999999999996 L 12.881463918031216 15.003749999999997 L 12.265529399157906 14.557499999999997 L 11.623199380305255 14.111249999999998 L 10.953911410974 13.665 L 10.257198450396217 13.21875 L 9.532690520488654 12.7725 L 8.780116015281276 12.326250000000002 L 7.999302662186641 11.880000000000003 L 7.8637895617805 10.395000000000003 L 7.420990330103012 8.910000000000002 L 6.688207828804165 7.425000000000002 L 5.694076331235047 5.940000000000001 L 4.477442607068604 4.455000000000001 L 3.0858479425175767 2.9700000000000006 L 1.5736704128608383 1.4850000000000003 L 0 0 L 0.836875 0 L 1.67375 0 L 2.510625 0 L 3.3475 0 L 4.184375 0 L 5.02125 0 L 5.858125 0 L 6.695 0 L 7.531875 0 L 8.36875 0 L 9.205625000000001 0 L 10.0425 0 L 10.879375 0 L 11.71625 0 L 12.553125000000001 0 L 13.39 0 L 14.226875 0 L 15.06375 0 L 15.900625000000002 0 L 16.7375 0 L 17.574375000000003 0 L 18.411250000000003 0 L 19.248125 0 L 20.085 0 L 20.921875 0 L 21.75875 0 L 22.595625 0 L 23.4325 0 L 24.269375000000004 0 L 25.106250000000003 0 L 25.943125000000002 0 L 26.78 0 L 28.35367041286084 1.4850000000000003 L 29.86584794251758 2.9700000000000006 L 31.257442607068604 4.455000000000001 L 32.47407633123505 5.940000000000001 L 33.46820782880417 7.425000000000002 L 34.20099033010301 8.910000000000002 L 34.6437895617805 10.395000000000003 L 34.779302662186645 11.880000000000003 L 33.957616015281275 12.326250000000002 L 33.10769052048866 12.7725 L 32.22969845039622 13.21875 L 31.323911410974002 13.665 L 30.390699380305257 14.111249999999998 L 29.43052939915791 14.557499999999997 L 28.443963918031216 15.003749999999997 L 27.431658806527796 15.449999999999996 L 26.58389257761228 16.890937499999996 L 25.507463715375486 18.331874999999997 L 24.24198330983028 19.772812499999997 L 22.834019285725006 21.213749999999994 L 21.33538276746393 22.654687499999994 L 19.801221501548444 24.09562499999999 L 18.287990495950144 25.536562499999995 L 16.85137455407393 26.977499999999992 L 15.544239151181525 28.41843749999999 L 14.414685058182563 29.85937499999999 L 13.50427829994116 31.30031249999999 L 12.846520583178638 32.741249999999994 L 12.465616480105371 34.18218749999999 L 12.37558273371518 35.62312499999999 L 12.579732461072808 37.06406249999999 L 13.070553235198489 38.504999999999995 L 13.82998353196728 39.94593749999999 L 14.830077369160435 41.38687499999999 L 16.034032679873086 42.82781249999999 L 17.39754557756227 44.26874999999999 L 18.87044067765883 45.70968749999999 L 20.39851748216776 47.150624999999984 L 21.925544882863104 48.59156249999998 L 23.395330388124588 50.032499999999985 L 24.7537879287367 51.47343749999999 L 25.950928150263106 52.914374999999986 L 26.942697951996003 54.35531249999998 L 27.692601579996897 55.796249999999986 L 28.173043620252095 57.23718749999999 L 28.366344471656348 58.67812499999999 L 28.265390930826555 60.119062499999984 L 27.8738979481261 61.55999999999999 L 28.491314680506385 62.019375 L 29.081278317010963 62.47874999999999 L 29.64458126386127 62.93812499999999 L 30.18211591525716 63.3975 L 30.694871306550805 63.85687500000001 L 31.183929404978574 64.31625000000001 L 31.65046105186218 64.775625 L 32.0957215714973 65.23500000000001 L 32.0957215714973 65.23500000000001 Z" fill="black" stroke="black" />
				</svg>