<svg
					xmlns="http://www.w3.org/2000/svg" xmlns:xlink="http://www.w3.org/1999/xlink"
					style="
						overflow: visible;
						height: 100;
					"
					viewBox="-7.988614512069328 0 46.51334539722347 77.115"
				>
					<path d="M 38.41734471238689 60.16499999999998 L 38.1504520499356 61.224374999999974 L 37.73177208024843 62.28374999999998 L 37.1696442436599 63.343124999999986 L 36.47526523428724 64.40249999999997 L 35.66246597965851 65.46187499999998 L 34.7474361505931 66.52124999999998 L 33.748401688660394 67.580625 L 32.68526177435768 68.63999999999999 L 31.57919246702493 69.69937499999997 L 30.452224911360144 70.75874999999999 L 29.32680651199177 71.818125 L 28.22535381681415 72.8775 L 27.169806014940093 73.93687499999999 L 26.18118794288261 74.99624999999999 L 25.279191303188874 76.05562499999999 L 24.481782436986407 77.115 L 23.527719936986408 77.115 L 22.57365743698641 77.115 L 21.61959493698641 77.115 L 20.665532436986407 77.115 L 19.711469936986404 77.115 L 18.757407436986405 77.115 L 17.803344936986406 77.115 L 16.849282436986407 77.115 L 15.895219936986408 77.115 L 14.941157436986408 77.115 L 13.98709493698641 77.115 L 13.033032436986407 77.115 L 12.078969936986404 77.115 L 11.124907436986405 77.115 L 10.170844936986406 77.115 L 9.216782436986406 77.115 L 8.262719936986407 77.115 L 7.308657436986407 77.115 L 6.354594936986406 77.115 L 5.400532436986407 77.115 L 4.446469936986408 77.115 L 3.492407436986407 77.115 L 2.538344936986406 77.115 L 1.584282436986407 77.115 L 0.630219936986407 77.115 L -0.32384256301359304 77.115 L -1.277905063013593 77.115 L -2.231967563013593 77.115 L -3.186030063013593 77.115 L -4.140092563013593 77.115 L -5.094155063013593 77.115 L -6.048217563013593 77.115 L -5.132698113916178 75.910078125 L -4.084986212016532 74.70515625 L -2.932065639151851 73.500234375 L -1.7036298226444984 72.2953125 L -0.43131708216380155 71.090390625 L 0.852104214043576 69.88546875 L 2.113579597283255 68.680546875 L 3.320619815049206 67.47562500000001 L 4.442137590537699 66.27070312500001 L 5.449248274327946 65.06578125 L 6.316013767474945 63.86085937499999 L 7.020110556302172 62.65593749999999 L 7.543404653682502 61.451015625 L 7.872418639215512 60.24609375 L 7.9986787696986 59.041171875 L 7.918933220074207 57.83624999999999 L 7.635235834065644 56.63132812499999 L 7.154893227506869 55.42640624999999 L 6.490276606718055 54.221484374999996 L 5.658503148537839 53.0165625 L 4.680995148057858 51.811640625 L 3.5829282881936653 50.60671875 L 2.392583240889094 49.40179687499999 L 1.140617299441323 48.19687499999999 L -0.14072519897032046 46.991953124999995 L -1.4184433250128716 45.78703124999999 L -2.6596294949316057 44.58210937499999 L -3.8323170041699086 43.37718749999999 L -4.9063033286797655 42.172265624999994 L -5.85392798982753 40.96734375 L -6.650784949012676 39.762421874999994 L -7.276351184302228 38.5575 L -7.714515260112447 37.352578125 L -7.953992276644891 36.14765625 L -7.988614512069328 34.942734375 L -7.817490271974618 33.737812500000004 L -7.445026854925758 32.532890625 L -6.880817042650026 31.327968749999997 L -6.139392038293308 30.123046875 L -5.2398472158128335 28.918124999999996 L -4.205350319317082 27.713203124999996 L -3.0625447786608766 26.50828125 L -1.840863508880785 25.303359375 L -0.571770866541436 24.098437499999996 L 0.7120477136207567 22.893515624999996 L 1.9775275308776203 21.688593749999995 L 3.1920761986710224 20.483671875 L 4.324413060340487 19.27875 L 5.3453748212950805 18.073828125 L 6.2286666486023945 16.868906250000002 L 6.951539393452114 15.663984374999998 L 7.495375494654247 14.459062499999998 L 7.846168473248848 13.254140625 L 7.994883668860999 12.049218749999998 L 7.937690927049386 10.844296874999998 L 7.676063244794304 9.639375 L 7.216738833514128 8.434453125000001 L 6.571547576675887 7.229531249999999 L 5.757106351577853 6.024609374999999 L 4.794391062280519 4.8196875 L 3.7081964059622297 3.6147656249999995 L 2.5264972863973014 2.40984375 L 1.2797283213291772 1.204921875 L 0 0 L 0.9540625 0 L 1.908125 0 L 2.8621875 0 L 3.81625 0 L 4.7703125 0 L 5.724375 0 L 6.6784375 0 L 7.6325 0 L 8.5865625 0 L 9.540625 0 L 10.494687500000001 0 L 11.44875 0 L 12.4028125 0 L 13.356875 0 L 14.310937500000001 0 L 15.265 0 L 16.2190625 0 L 17.173125 0 L 18.127187499999998 0 L 19.08125 0 L 20.035312500000003 0 L 20.989375000000003 0 L 21.9434375 0 L 22.8975 0 L 23.8515625 0 L 24.805625 0 L 25.7596875 0 L 26.71375 0 L 27.667812500000004 0 L 28.621875000000003 0 L 29.575937500000002 0 L 30.53 0 L 31.642383913790965 1.0462499999999997 L 32.73315564086533 2.0924999999999994 L 33.781122891458324 3.138749999999999 L 34.7659250116519 4.184999999999999 L 35.66842856465625 5.231249999999998 L 36.47109906884312 6.277499999999998 L 37.1583416701398 7.323749999999998 L 37.7168041299579 8.369999999999997 L 38.1356362419917 9.416249999999998 L 38.4067006377518 10.462499999999997 L 38.52473088515414 11.508749999999996 L 38.48743380851231 12.554999999999996 L 38.29553404198755 13.601249999999997 L 37.95275995088037 14.647499999999996 L 37.46577119429477 15.693749999999994 L 36.844029336539364 16.739999999999995 L 36.32434183653937 16.739999999999995 L 35.804654336539365 16.739999999999995 L 35.28496683653937 16.739999999999995 L 34.765279336539365 16.739999999999995 L 34.24559183653937 16.739999999999995 L 33.725904336539365 16.739999999999995 L 33.20621683653937 16.739999999999995 L 32.686529336539365 16.739999999999995 L 32.16684183653937 16.739999999999995 L 31.647154336539366 16.739999999999995 L 31.12746683653937 16.739999999999995 L 30.607779336539366 16.739999999999995 L 30.08809183653937 16.739999999999995 L 29.568404336539366 16.739999999999995 L 29.04871683653937 16.739999999999995 L 28.529029336539367 16.739999999999995 L 28.00934183653937 16.739999999999995 L 27.489654336539367 16.739999999999995 L 26.96996683653937 16.739999999999995 L 26.450279336539367 16.739999999999995 L 25.93059183653937 16.739999999999995 L 25.410904336539367 16.739999999999995 L 24.89121683653937 16.739999999999995 L 24.371529336539368 16.739999999999995 L 23.85184183653937 16.739999999999995 L 23.332154336539368 16.739999999999995 L 22.81246683653937 16.739999999999995 L 22.29277933653937 16.739999999999995 L 21.773091836539365 16.739999999999995 L 21.25340433653937 16.739999999999995 L 20.733716836539365 16.739999999999995 L 20.21402933653937 16.739999999999995 L 19.687219226070688 17.496562499999996 L 19.10156964925138 18.253124999999994 L 18.46303498714468 19.00968749999999 L 17.778107310864034 19.766249999999992 L 17.053750375779128 20.522812499999993 L 16.297328820042218 21.27937499999999 L 15.51653328728318 22.03593749999999 L 14.719302234761333 22.79249999999999 L 13.91374122196149 23.54906249999999 L 13.108040500238308 24.30562499999999 L 12.310391741386578 25.062187499999986 L 11.528904751769723 25.818749999999987 L 10.771525018785526 26.57531249999999 L 10.045952927985809 27.331874999999986 L 9.359565472180726 28.088437499999984 L 8.719341248522328 28.844999999999985 L 9.68246624852233 28.844999999999985 L 10.64559124852233 28.844999999999985 L 11.60871624852233 28.844999999999985 L 12.57184124852233 28.844999999999985 L 13.534966248522329 28.844999999999985 L 14.49809124852233 28.844999999999985 L 15.461216248522332 28.844999999999985 L 16.42434124852233 28.844999999999985 L 17.38746624852233 28.844999999999985 L 18.350591248522328 28.844999999999985 L 19.313716248522333 28.844999999999985 L 20.27684124852233 28.844999999999985 L 21.23996624852233 28.844999999999985 L 22.203091248522327 28.844999999999985 L 23.166216248522332 28.844999999999985 L 24.12934124852233 28.844999999999985 L 23.332036500379452 29.89124999999998 L 22.65087588353611 30.937499999999986 L 22.099093471456253 31.983749999999986 L 21.68740968572181 33.02999999999999 L 21.423823012049084 34.07624999999998 L 21.31345460001313 35.12249999999998 L 21.3584487657075 36.16874999999999 L 21.557931330444333 37.21499999999998 L 21.90802660492037 38.261249999999976 L 22.4019326888683 39.30749999999998 L 23.030053623218215 40.353749999999984 L 23.780185827222976 41.39999999999998 L 24.637755198314117 42.44624999999998 L 25.586100268143653 43.49249999999998 L 26.606795913454363 44.53874999999998 L 27.68001133249356 45.58499999999998 L 26.716886332493562 45.58499999999998 L 25.75376133249356 45.58499999999998 L 24.79063633249356 45.58499999999998 L 23.82751133249356 45.58499999999998 L 22.864386332493563 45.58499999999998 L 21.90126133249356 45.58499999999998 L 20.93813633249356 45.58499999999998 L 19.975011332493562 45.58499999999998 L 19.011886332493564 45.58499999999998 L 18.048761332493562 45.58499999999998 L 17.08563633249356 45.58499999999998 L 16.122511332493563 45.58499999999998 L 15.15938633249356 45.58499999999998 L 14.19626133249356 45.58499999999998 L 13.23313633249356 45.58499999999998 L 12.270011332493558 45.58499999999998 L 13.23129869232741 46.49624999999998 L 14.202445450174507 47.40749999999998 L 15.169132922483577 48.31874999999998 L 16.117108173848987 49.229999999999976 L 17.032394163695677 50.14124999999997 L 17.90149582514359 51.052499999999974 L 18.711599037604213 51.963749999999976 L 19.450759559438097 52.87499999999998 L 20.108079135031225 53.78624999999998 L 20.67386617975035 54.697499999999984 L 21.139778673622395 55.608749999999986 L 21.498947156899447 56.51999999999998 L 21.746076014050615 57.43124999999997 L 21.877521552839532 58.34249999999997 L 21.891345727281966 59.253749999999975 L 21.787344712386894 60.16499999999998 L 22.307032212386893 60.16499999999998 L 22.826719712386893 60.16499999999998 L 23.346407212386893 60.16499999999998 L 23.866094712386897 60.16499999999998 L 24.385782212386896 60.16499999999998 L 24.905469712386896 60.16499999999998 L 25.425157212386896 60.16499999999998 L 25.944844712386896 60.16499999999998 L 26.464532212386896 60.16499999999998 L 26.984219712386896 60.16499999999998 L 27.503907212386896 60.16499999999998 L 28.023594712386895 60.16499999999998 L 28.543282212386895 60.16499999999998 L 29.062969712386895 60.16499999999998 L 29.582657212386895 60.16499999999998 L 30.102344712386895 60.16499999999998 L 30.622032212386895 60.16499999999998 L 31.141719712386895 60.16499999999998 L 31.661407212386894 60.16499999999998 L 32.181094712386894 60.16499999999998 L 32.7007822123869 60.16499999999998 L 33.220469712386894 60.16499999999998 L 33.7401572123869 60.16499999999998 L 34.259844712386894 60.16499999999998 L 34.7795322123869 60.16499999999998 L 35.29921971238689 60.16499999999998 L 35.8189072123869 60.16499999999998 L 36.33859471238689 60.16499999999998 L 36.8582822123869 60.16499999999998 L 37.37796971238689 60.16499999999998 L 37.897657212386896 60.16499999999998 L 38.41734471238689 60.16499999999998 L 38.41734471238689 60.16499999999998 Z" fill="black" stroke="black" />
				</svg>