<svg
					xmlns="http://www.w3.org/2000/svg" xmlns:xlink="http://www.w3.org/1999/xlink"
					style="
						overflow: visible;
						height: 100;
					"
					viewBox="-7.8964704307148645 7.460698725481052e-13 60.605311959546704 79.275"
				>
					<path d="M 24.66471108016738 49.14000000000073 L 23.614262565881262 48.13406250000073 L 22.544517542324005 47.128125000000736 L 21.474691372127076 46.122187500000734 L 20.424000875523618 45.11625000000073 L 19.411319146999784 44.11031250000073 L 18.454836546141607 43.104375000000736 L 17.571733952150623 42.09843750000074 L 16.777874151214824 41.09250000000074 L 16.087516900208616 40.08656250000074 L 15.513062784908275 39.080625000000744 L 15.064830473685767 38.07468750000075 L 14.750871367775602 37.06875000000075 L 14.576824977471055 36.062812500000746 L 14.545817622063874 35.056875000000744 L 14.658406273136325 34.05093750000075 L 14.912568549923925 33.04500000000075 L 15.605381049923924 33.04500000000075 L 16.298193549923926 33.04500000000075 L 16.991006049923925 33.04500000000075 L 17.683818549923924 33.04500000000075 L 18.376631049923926 33.04500000000075 L 19.069443549923925 33.04500000000075 L 19.762256049923923 33.04500000000075 L 20.455068549923926 33.04500000000075 L 21.147881049923924 33.04500000000075 L 21.840693549923923 33.04500000000075 L 22.533506049923925 33.04500000000075 L 23.226318549923924 33.04500000000075 L 23.919131049923923 33.04500000000075 L 24.611943549923925 33.04500000000075 L 25.30475604992392 33.04500000000075 L 25.997568549923923 33.04500000000075 L 26.690381049923925 33.04500000000075 L 27.383193549923927 33.04500000000075 L 28.07600604992393 33.04500000000075 L 28.768818549923925 33.04500000000075 L 29.46163104992392 33.04500000000075 L 30.154443549923922 33.04500000000075 L 30.847256049923924 33.04500000000075 L 31.540068549923927 33.04500000000075 L 32.23288104992393 33.04500000000075 L 32.92569354992392 33.04500000000075 L 33.61850604992392 33.04500000000075 L 34.311318549923925 33.04500000000075 L 35.00413104992393 33.04500000000075 L 35.69694354992393 33.04500000000075 L 36.38975604992393 33.04500000000075 L 37.08256854992392 33.04500000000075 L 36.78079927737262 34.34437500000075 L 36.7164347127781 35.64375000000075 L 36.89140196723201 36.94312500000075 L 37.30046242319913 38.242500000000746 L 37.931368581658745 39.54187500000074 L 38.76523075908074 40.84125000000074 L 39.77708265512386 42.140625000000746 L 40.93662885764272 43.44000000000075 L 42.20915190428503 44.73937500000075 L 43.55655174274739 46.038750000000746 L 44.938486467667445 47.338125000000744 L 46.313580179851655 48.63750000000074 L 47.64066180385697 49.93687500000074 L 48.87999777303489 51.236250000000744 L 49.99448167475754 52.53562500000075 L 50.950745237181835 53.83500000000075 L 51.72015739398616 55.134375000000745 L 52.27968151452207 56.43375000000075 L 52.61256513343052 57.733125000000754 L 52.70884152883184 59.03250000000075 L 52.5656281315576 60.33187500000075 L 52.18721283088501 61.631250000000755 L 51.584925592731835 62.930625000000745 L 50.77679923413497 64.23000000000074 L 49.78702951061455 65.52937500000075 L 48.645250681710294 66.82875000000074 L 47.38564824466328 68.12812500000074 L 46.04593540149339 69.42750000000075 L 44.66622390462118 70.72687500000075 L 43.28782308854799 72.02625000000074 L 41.952003045258465 73.32562500000074 L 40.698758974565735 74.62500000000074 Q 40.333318802830014 74.75343750000074 39.967129045519876 74.87894531250075 Q 39.60212754051018 75.00445312500075 39.23632911449512 75.12703125000075 Q 38.87172340687403 75.24960937500074 38.506264756943004 75.36925781250075 Q 38.1419964523893 75.48890625000075 37.77681136703347 75.60562500000074 Q 37.412808015931084 75.72234375000075 37.04781706953217 75.83613281250075 Q 36.683993591228685 75.94992187500075 36.31910553863584 76.06078125000076 Q 35.955365596258154 76.17164062500075 35.59047871616553 76.27957031250075 Q 35.226716038743604 76.38750000000076 34.861719423013454 76.49250000000075 Q 34.497819072370575 76.59750000000075 34.132593859123624 76.69957031250075 Q 33.768433439643886 76.80164062500076 33.40285398856015 76.90078125000076 Q 33.0383047985415 76.99992187500075 32.672239807382866 77.09613281250076 Q 32.307167931227475 77.19234375000076 31.940481493107598 77.28562500000075 Q 31.574748834093455 77.37890625000075 31.207301435484304 77.46925781250076 Q 30.84076668930225 77.55960937500076 30.472416149180482 77.64703125000077 Q 30.104935718814033 77.73445312500075 29.73553806971673 77.81894531250076 Q 29.366966922587288 77.90343750000076 28.99637723466841 77.98500000000075 Q 28.62649837061864 78.06562500000076 28.25848286596251 78.14121093750076 Q 27.891148467608332 78.21679687500077 27.52550478141683 78.28734375000076 Q 27.160461822449104 78.35789062500075 26.796945026225167 78.42339843750077 Q 26.43395197423983 78.48890625000075 26.072329445776028 78.54937500000077 Q 25.711157606165038 78.60984375000075 25.3512102786417 78.66527343750076 Q 24.991644978733778 78.72070312500074 24.63316843755755 78.77109375000074 Q 24.27501006392749 78.82148437500075 23.91781550393437 78.86683593750075 Q 23.560880405275636 78.91218750000075 23.2047954603198 78.95250000000074 Q 22.848916727612718 78.99281250000074 22.493786183832658 79.02808593750075 Q 22.138814318760247 79.06335937500074 21.784500721975462 79.09359375000074 Q 21.430304203657514 79.12382812500074 21.076688370418918 79.14902343750074 Q 20.723154129568755 79.17421875000073 20.370135570379198 79.19437500000073 Q 20.017169378950914 79.21453125000073 19.6646666411016 79.22964843750074 Q 19.31219342440035 79.24476562500074 18.960144360746686 79.25484375000073 Q 18.60810843783272 79.26492187500074 18.256470406669457 79.26996093750074 Q 17.90483566370775 79.27500000000074 17.55358566370775 79.27500000000074 L 17.55358566370775 79.27500000000074 Q 17.090460663707752 79.27500000000074 16.641933729081046 79.25812500000073 Q 16.193443644197636 79.24125000000073 15.759698871873223 79.20750000000073 Q 15.326101041297125 79.17375000000074 14.90754163574567 79.12312500000073 Q 14.489311101089028 79.07250000000073 14.086555116395068 79.00500000000073 Q 13.68437931619542 78.93750000000074 13.29825270334856 78.85312500000074 Q 12.913023308955907 78.76875000000074 12.544549844430113 78.66750000000073 Q 12.177351252856292 78.56625000000074 11.827738785987208 78.44812500000074 Q 11.479832652362196 78.33000000000075 11.150454984480529 78.19500000000073 Q 10.823260060248858 78.06000000000074 10.515633663692634 77.90812500000074 Q 10.210700112868441 77.75625000000073 9.926454819882792 77.58750000000074 Q 9.645432122211336 77.41875000000074 9.38627487080609 77.23312500000074 Q 9.130872396687174 77.04750000000074 8.898543122723556 76.84500000000074 Q 8.670482490869002 76.64250000000075 8.466701314403757 76.42312500000074 Q 8.267659731434332 76.20375000000074 8.094064713326354 75.96750000000074 Q 7.925608657955952 75.73125000000074 7.783683613451113 75.47812500000074 Q 7.647192480239731 75.22500000000075 7.538184643432828 74.95500000000075 Q 7.434764315837935 74.68500000000074 7.362744885105522 74.39730468750074 Q 7.296315197106713 74.10960937500076 7.261862992927844 73.80421875000074 Q 7.232767534608219 73.49882812500074 7.235898837457663 73.17574218750075 Q 7.2438679764421945 72.85265625000075 7.2839103164138175 72.51187500000074 Q 7.327933672864163 72.17109375000075 7.403396259851758 71.81261718750075 Q 7.4815938015173025 71.45414062500075 7.590039231888469 71.07796875000075 Q 7.699536199007999 70.70179687500075 7.837459387698172 70.30792968750075 Q 7.974271599920987 69.91406250000074 8.136993258822306 69.50250000000075 Q 8.295930726875774 69.09093750000075 8.477514069916719 68.66167968750075 Q 8.652112151129886 68.23242187500074 8.845312757770852 67.78546875000075 Q 9.027801249260111 67.33851562500074 9.224061039702502 66.87386718750074 Q 9.405382462708559 66.40921875000075 9.594879382875481 65.92687500000075 Q 9.764768118636884 65.44453125000075 9.936533231127775 64.94449218750074 Q 10.083666944710151 64.44445312500075 10.225779986797981 63.926718750000745 Q 10.338013729723292 63.40898437500074 10.437886637291424 62.873554687500736 Q 10.502577961012404 62.338125000000744 10.547333181504902 61.78500000000074 Q 10.55269360043625 61.23093750000075 10.53322032562681 60.65876953125075 Q 10.468476191081498 60.086601562500746 10.371542206905797 59.49632812500075 Q 10.225234273887416 58.906054687500756 10.040086460374873 58.29767578125075 Q 9.8024998384723 57.68929687500075 9.520545028534093 57.06281250000075 Q 9.184477086891233 56.436328125000756 8.800076249275174 55.79173828125075 Q 8.361633909731628 55.147148437500746 7.872904897248986 54.48445312500075 Q 7.332288643928821 53.82175781250075 6.741868994758988 53.14095703125074 Q 6.104090427200766 52.46015625000075 5.419801606680089 51.76125000000074 Q 4.695272008895823 51.06234375000074 3.930618120504301 50.34533203125075 Q 3.135538491645297 49.628320312500755 2.309967153865298 48.89320312500075 Q 1.8899917513049276 48.52564453125074 1.4647209470778484 48.15355957031325 Q 1.0367559159655946 47.78147460937575 0.6052990046716329 47.40486328125074 Q 0.1730867134684268 47.02825195312574 -0.26063023239620875 46.64711425781324 Q -0.6930349845190439 46.26597656250074 -1.124787630835803 45.88031250000074 Q -1.55304959916394 45.49464843750074 -1.9783512775344003 45.10445800781325 Q -2.3978941795253332 44.71426757812575 -2.8120393286249175 44.31955078125075 Q -3.218092767777103 43.92483398437574 -3.6162079145392307 43.52559082031324 Q -4.003861777755937 43.12634765625074 -4.380963938753041 42.722578125000744 Q -4.745230071485316 42.318808593750745 -5.096292293142095 41.910512695313244 Q -5.432173087972877 41.50221679687574 -5.752196667755624 41.08939453125075 Q -6.054760019697481 40.67657226562575 -6.33885276128953 40.259223632813246 Q -6.603312649333034 39.84187500000075 -6.846772305789072 39.42000000000075 L -6.846772305789072 39.42000000000075 Q -7.22823472662623 38.664375000000746 -7.519760570863811 37.921347656250745 Q -7.737422106831707 37.178320312500745 -7.864895193380602 36.44789062500075 Q -7.9173701503772556 35.717460937500746 -7.882636859890327 34.99962890625075 Q -7.77475152386339 34.28179687500075 -7.5854062892262215 33.57656250000075 Q -7.327329384949153 32.871328125000744 -6.995776513674349 32.17869140625075 Q -6.602020250687355 31.48605468750075 -6.144442219580366 30.806015625000747 Q -5.632801382094087 30.125976562500746 -5.068096947345117 29.458535156250747 Q -4.458585572519389 28.791093750000748 -3.8073321144840566 28.136250000000746 Q -3.1211675599776845 27.481406250000745 -2.4046518159970702 26.839160156250742 Q -1.663325357911933 26.196914062500746 -0.9026759357671312 25.567265625000744 Q -0.12713824489799785 24.93761718750075 0.6574172433002705 24.32056640625075 Q 1.4474376961385595 23.703515625000747 2.2371778393608976 23.09906250000075 Q 3.0237147292322257 22.494609375000746 3.8018874801815232 21.902753906250748 Q 4.569134254298323 21.310898437500747 5.321280942770137 20.731640625000747 Q 6.055852046170224 20.152382812500747 6.770000917285621 19.585722656250745 Q 7.4610676106185165 19.01906250000075 8.127809843226677 18.46500000000075 Q 8.765770838463514 17.911875000000748 9.37398679821559 17.374570312500747 Q 9.952056298962312 16.837265625000747 10.499930303996095 16.315781250000747 Q 11.015997520730478 15.794296875000748 11.502661458529655 15.288632812500747 Q 11.956877219184214 14.782968750000746 12.38352931552858 14.293125000000744 Q 12.777963607634968 13.803281250000744 13.147520675628616 13.329257812500744 Q 13.485809611593442 12.855234375000746 13.802557732023583 12.397031250000744 Q 14.089556214319288 11.938828125000743 14.35881415366498 11.496445312500743 Q 14.600266930580123 11.054062500000743 14.828073105507343 10.627500000000742 Q 15.030313497031504 10.200937500000741 15.223144048733085 9.790195312500742 Q 15.392826522761759 9.379453125000742 15.55734917980623 8.984531250000742 Q 15.701219256964645 8.589609375000741 15.844085203567875 8.21050781250074 Q 15.968787907520031 7.83140625000074 16.096461859179087 7.4681250000007395 Q 16.208388116878446 7.104843750000738 16.327015231073425 6.7573828125007385 Q 16.432184246558307 6.409921875000738 16.54749133486767 6.078281250000737 Q 16.651465975108444 5.746640625000738 16.768693692100733 5.430820312500737 Q 16.876525286669235 5.115000000000737 17.000387499346353 4.815000000000737 Q 17.115136873848193 4.514062500000737 17.250380916516875 4.231933593750738 Q 17.379571637670345 3.9498046875007384 17.531592514708855 3.6864843750007386 Q 17.67895954730679 3.4231640625007396 17.851098845154727 3.1786523437507404 Q 18.01974167323364 2.9341406250007402 18.214740152449703 2.708437500000741 Q 18.407178946661883 2.4827343750007413 18.62723684418363 2.2758398437507417 Q 18.84547574089175 2.068945312500742 19.092318022043084 1.8808593750007425 Q 19.337911797253668 1.6927734375007426 19.61285503792412 1.523496093750743 Q 19.886976157207155 1.3542187500007434 20.190994402565515 1.2037500000007437 Q 20.494498066193167 1.053281250000744 20.828285608740245 0.9216210937507442 Q 21.16177097342554 0.7899609375007446 21.525800508766483 0.6771093750007448 Q 21.889666745735532 0.5642578125007449 22.28424179493486 0.4702148437507452 Q 22.481498783002056 0.4231933593757452 22.68645235362144 0.3808740234382453 Q 22.89139299486971 0.3385546875007454 23.1040388710986 0.3009375000007455 Q 23.31667667427649 0.26332031250074556 23.537025797589994 0.2304052734382456 Q 23.757370188101333 0.1974902343757457 23.98542998256305 0.16927734375074574 Q 24.21348722219 0.14106445312574578 24.44926244409296 0.11755371093824585 Q 24.68503643386436 0.09404296875074589 24.928529904135132 0.07523437500074592 Q 25.17202286971247 0.05642578125074596 25.4232360885898 0.04231933593824599 Q 25.674449147777104 0.028212890625746015 25.933382791471548 0.018808593750746033 Q 26.192316403622144 0.009404296875746052 26.458970702797217 0.004702148438246061 Q 26.725625000000797 7.460698725481052e-13 27.0000000000008 7.460698725481052e-13 L 27.0000000000008 7.460698725481052e-13 Q 27.3018750000008 7.460698725481052e-13 27.607382812037315 0.00527343750074602 Q 27.912890621292917 0.01054687500074597 28.222031220337726 0.02109375000074587 Q 28.53117177488797 0.03164062500074577 28.843944974620385 0.04746093750074562 Q 29.156717949100326 0.06328125000074547 29.47312310157531 0.08437500000074527 Q 29.78952754215172 0.10546875000074507 30.109563070648342 0.13183593750074482 Q 30.429596861164818 0.15820312500074457 30.7532596263039 0.18984375000074427 Q 31.07691878776824 0.22148437500074397 31.404203287105815 0.25839843750074365 Q 31.73148111080249 0.29531250000074327 32.062378512302075 0.3375000000007429 Q 32.393264527050626 0.3796875000007425 32.7277615371325 0.42714843750074205 Q 33.0622403115586 0.4746093750007416 33.400317878839665 0.5273437500007411 Q 33.738367660000506 0.5800781250007405 34.07999951639334 0.63808593750074 Q 34.42159070672302 0.6960937500007395 34.76674174827826 0.7593750000007389 Q 35.11183522361158 0.8226562500007383 35.46045973438262 0.8912109375007375 Q 35.80900500679669 0.9597656250007369 36.16104473009973 1.0335937500007364 Q 36.512977960500436 1.1074218750007356 36.86836002325267 1.1865234375007347 Q 37.22360189004472 1.265625000000734 37.58223658740736 1.3500000000007333 Q 37.94069001923871 1.4343750000007338 38.297725635584776 1.5219140625007341 Q 38.65454161237055 1.609453125000735 39.009883069934126 1.7001562500007352 Q 39.36496155621985 1.7908593750007356 39.718501223174776 1.884726562500736 Q 40.0717292912616 1.9785937500007365 40.42334611509 2.075625000000737 Q 40.77459707948957 2.1726562500007374 41.124155720407835 2.2728515625007373 Q 41.473288274862625 2.3730468750007376 41.820638245098124 2.476406250000738 Q 42.513840604038975 2.6831250000007385 43.199295850073476 2.902500000000739 Q 43.882168083970825 3.121875000000739 44.556325477225364 3.3539062500007395 Q 45.22717199451897 3.5859375000007394 45.88815334322014 3.8306250000007394 Q 46.54497259835927 4.07531250000074 47.19058022653502 4.332656250000739 Q 47.831044874470805 4.590000000000739 48.45874423062445 4.860000000000738 L 48.45874423062445 4.860000000000738 L 49.00385637746181 5.879062500000739 L 49.44485112109033 6.898125000000739 L 49.76854160086937 7.91718750000074 L 49.963903299469145 8.93625000000074 L 50.02227726473601 9.95531250000074 L 49.9375297256063 10.974375000000741 L 49.70616515976808 11.993437500000741 L 49.327390728823524 13.012500000000742 L 48.803130893178036 14.031562500000742 L 48.13799193725056 15.050625000000743 L 47.339177058934375 16.069687500000743 L 46.41635358851755 17.088750000000744 L 45.3814747847005 18.107812500000744 L 44.24855949265656 19.126875000000744 L 43.03343372583739 20.145937500000745 L 41.75343893510826 21.165000000000745 Q 41.66891342422697 20.910000000000746 41.56098428443255 20.67070312500075 Q 41.449993059104955 20.431406250000748 41.315917983597004 20.20781250000075 Q 41.17876823427682 19.98421875000075 41.0190138752437 19.77632812500075 Q 40.856287270671274 19.568437500000748 40.67155378949272 19.376250000000745 Q 40.484038567208 19.184062500000746 40.275195414751686 19.007578125000748 Q 40.06382471320873 18.831093750000747 39.831852833868474 18.670312500000747 Q 39.597649568041504 18.509531250000748 39.34359017100991 18.36445312500075 Q 39.087618479425245 18.21937500000075 38.81252828453632 18.09000000000075 Q 38.53563352395413 17.962500000000748 38.239094837448405 17.850937500000747 Q 37.941334814630494 17.739375000000745 37.624589788606016 17.643750000000743 Q 37.306921791574695 17.548125000000745 36.97086003577241 17.468437500000746 Q 36.63414262966104 17.38875000000074 36.279542224475236 17.325000000000742 Q 35.92451467681047 17.261250000000743 35.5520242208579 17.213437500000744 Q 35.17929026517095 17.16562500000074 34.78941500755856 17.133750000000738 Q 34.399430516419194 17.10187500000074 33.99252218287425 17.08593750000074 Q 33.585586390711626 17.07000000000074 33.16183639071163 17.07000000000074 L 33.16183639071163 17.07000000000074 Q 32.874336390711626 17.07000000000074 32.585353493348315 17.08224609375074 Q 32.29635437728102 17.09449218750074 32.00580757963148 17.11898437500074 Q 31.71519617938849 17.143476562500737 31.422908348162007 17.18021484375074 Q 31.130476189676152 17.21695312500074 30.836176544280665 17.26593750000074 Q 30.541622905798075 17.314921875000742 30.24495095688604 17.37615234375074 Q 29.947887420390426 17.437382812500736 29.648398461227167 17.510859375000738 Q 29.04776247100784 17.65781250000074 28.435204226985768 17.85375000000074 Q 27.818880277801338 18.04968750000074 27.187089339977305 18.29460937500074 Q 26.549787716244705 18.539531250000742 25.8930555637631 18.83343750000074 Q 25.22908188748117 19.127343750000744 24.541653392512337 19.470234375000743 Q 23.845549585633034 19.813125000000746 23.12237270179631 20.205000000000744 Q 22.3915911073895 20.595000000000745 21.644185687877346 21.017343750000745 Q 20.888339556579133 21.439687500000744 20.115996694623803 21.894375000000743 Q 19.337171981973352 22.34906250000074 18.54350190268977 22.836093750000742 Q 17.746573181560425 23.32312500000074 16.93831101644485 23.84250000000074 Q 16.13148305750966 24.361875000000737 15.319001841185813 24.913593750000736 Q 14.514276954077495 25.465312500000735 13.711990979848071 26.049375000000737 Q 12.925494383462588 26.63343750000074 12.152077402821373 27.249843750000736 Q 11.404159842044166 27.866250000000736 10.68249118722698 28.515000000000732 Q 9.997518850742594 29.163750000000732 9.360954793240442 29.829140625000736 Q 8.771064618088502 30.494531250000733 8.241714083999339 31.176562500000735 Q 7.768533789667414 31.85859375000074 7.367684873781047 32.55726562500074 Q 7.031480010402403 33.25593750000074 6.778421000778678 33.971250000000744 Q 6.596865240163031 34.68656250000075 6.507593903581039 35.41851562500075 Q 6.494454560864604 36.15046875000075 6.580334898818943 36.89906250000075 Q 6.652605793659628 37.27335937500075 6.7504066944049725 37.651816406250745 Q 6.867616235201169 38.030273437500746 7.010585284876405 38.41289062500075 Q 7.172650895643819 38.795507812500745 7.360460257915466 39.18228515625075 Q 7.566814070394529 39.56906250000075 7.798633908166079 39.96000000000075 L 7.798633908166079 39.96000000000075 Q 8.240276414132097 40.635000000000744 8.727761294553225 41.289960937500744 Q 9.258032739116288 41.944921875000745 9.821349537884657 42.57984375000075 Q 10.417297077657857 43.214765625000744 11.034214633967743 43.82964843750075 Q 11.673985429226493 44.44453125000075 12.323783786683997 45.039375000000746 Q 12.987382282695703 45.63421875000074 13.651482687731592 46.20902343750075 Q 14.321298067454169 46.78382812500075 14.983673763249318 47.33859375000075 Q 15.64479716024412 47.89335937500074 16.292188950403023 48.42808593750074 Q 16.932547788071446 48.962812500000744 17.554514144628456 49.477500000000745 Q 18.164855157855865 49.992187500000746 18.753689198459174 50.48683593750074 Q 19.32744293017989 50.98148437500075 19.877988550623606 51.45609375000075 Q 20.411047073772394 51.93070312500075 20.920444561630752 52.38527343750074 Q 21.410881509912972 52.839843750000746 21.878269704087973 53.274375000000745 Q 22.326027992131994 53.708906250000744 22.752226033791427 54.12339843750074 Q 23.158794408213154 54.53789062500074 23.545981796739056 54.932343750000754 Q 23.91407698385589 55.32679687500076 24.265486351962657 55.70121093750076 Q 24.598753354555786 56.075625000000755 24.918386358011137 56.43000000000075 Q 25.221750609278764 56.78437500000075 25.512498898792657 57.116601562500755 Q 25.78799608348007 57.448828125000745 26.05460984847725 57.75890625000075 Q 26.30771040499692 58.06898437500075 26.555611706899576 58.356914062500756 Q 26.791755186138918 58.64484375000075 27.02624763845472 58.910625000000756 Q 27.250694613825097 59.17640625000076 27.476837147924076 59.42003906250076 Q 27.694558453672116 59.66367187500076 27.917073638912548 59.885156250000755 Q 28.132672079784655 60.10664062500075 28.35588391766609 60.30597656250075 Q 28.57354323492051 60.505312500000755 28.80133918692795 60.68250000000076 Q 29.02479504999202 60.85968750000075 29.26060718807083 61.014726562500755 Q 29.49313521351143 61.169765625000764 29.739935713858678 61.302656250000766 Q 29.984351913479177 61.43554687500077 30.244658576557264 61.54628906250076 Q 30.503328139266735 61.65703125000076 30.779216154856016 61.74562500000076 Q 31.054067022411445 61.83421875000075 31.34718376584265 61.90066406250075 Q 31.63972203452272 61.96710937500075 31.9513022497948 62.01140625000076 Q 32.26262699473789 62.05570312500076 32.593506274180314 62.07785156250076 Q 32.92432193716551 62.100000000000755 33.27494693716551 62.100000000000755 L 33.27494693716551 62.100000000000755 Q 33.582446937165514 62.100000000000755 33.93049196097128 62.08312500000075 Q 34.27850006718489 62.06625000000075 34.66690537751485 62.03250000000075 Q 35.055162571385864 61.998750000000754 35.48352000203119 61.94812500000074 Q 35.91154253157582 61.89750000000075 36.37921661720921 61.830000000000744 Q 36.84879137034212 61.76250000000074 37.26635456330214 61.69218750000074 Q 37.68326263712418 61.62187500000074 38.048049541949375 61.54875000000074 Q 38.41212271846908 61.475625000000726 38.723959800121584 61.39968750000073 Q 39.035021720618985 61.32375000000073 39.293727284063095 61.24500000000072 L 39.293727284063095 61.24500000000072 L 39.50233543620772 60.48843750000073 L 39.631412811185896 59.73187500000073 L 39.67964706129399 58.97531250000072 L 39.646547782172796 58.218750000000725 L 39.53245149881713 57.46218750000073 L 39.33851824407922 56.70562500000072 L 39.066719764452614 55.94906250000072 L 38.71981947305014 55.19250000000073 L 38.30134435359673 54.43593750000073 L 37.8155491010932 53.67937500000073 L 37.267372863737705 52.922812500000724 L 36.66238902591613 52.16625000000073 L 36.00674854282432 51.409687500000736 L 35.30711740284737 50.65312500000073 L 34.57060885352445 49.89656250000073 L 33.80471108016738 49.14000000000073 L 33.23346108016737 49.14000000000073 L 32.662211080167374 49.14000000000073 L 32.090961080167375 49.14000000000073 L 31.51971108016738 49.14000000000073 L 30.94846108016738 49.14000000000073 L 30.37721108016738 49.14000000000073 L 29.805961080167382 49.14000000000073 L 29.23471108016738 49.14000000000073 L 28.663461080167377 49.14000000000073 L 28.092211080167377 49.14000000000073 L 27.52096108016738 49.14000000000073 L 26.94971108016738 49.14000000000073 L 26.37846108016738 49.14000000000073 L 25.80721108016738 49.14000000000073 L 25.23596108016738 49.14000000000073 L 24.66471108016738 49.14000000000073 L 24.66471108016738 49.14000000000073 Z" fill="black" stroke="black" />
				</svg>