<svg
					xmlns="http://www.w3.org/2000/svg" xmlns:xlink="http://www.w3.org/1999/xlink"
					style="
						overflow: visible;
						height: 100;
					"
					viewBox="-6.26274467570713 0 62.637678322115384 77.43"
				>
					<path d="M 46.00725532429287 77.43 L 45.057880324292874 77.43 L 44.10850532429287 77.43 L 43.15913032429287 77.43 L 42.209755324292864 77.43 L 41.26038032429286 77.43 L 40.311005324292864 77.43 L 39.36163032429287 77.43 L 38.412255324292865 77.43 L 37.46288032429286 77.43 L 36.513505324292865 77.43 L 35.56413032429287 77.43 L 34.614755324292865 77.43 L 33.66538032429286 77.43 L 32.716005324292865 77.43 L 31.766630324292873 77.43 L 30.81725532429287 77.43 L 31.304249251268775 76.52531250000001 L 31.872891847531317 75.62062500000002 L 32.51263025964821 74.7159375 L 33.211878416017335 73.81125 L 33.95818540442241 72.9065625 L 34.738416418106794 72.001875 L 35.53894364071969 71.0971875 L 36.345844296051034 70.1925 L 37.14510298434588 69.2878125 L 37.92281536469435 68.383125 L 38.66539022343031 67.4784375 L 39.359746991928226 66.57375 L 39.993505843320044 65.6690625 L 40.555167605502774 64.764375 L 41.03428087580498 63.85968749999999 L 41.421593908675405 62.955 L 40.8997189086754 62.955 L 40.3778439086754 62.955 L 39.85596890867541 62.955 L 39.334093908675406 62.955 L 38.812218908675405 62.955 L 38.2903439086754 62.955 L 37.7684689086754 62.955 L 37.24659390867541 62.955 L 36.724718908675406 62.955 L 36.202843908675405 62.955 L 35.6809689086754 62.955 L 35.1590939086754 62.955 L 34.6372189086754 62.955 L 34.115343908675406 62.955 L 33.593468908675405 62.955 L 33.0715939086754 62.955 L 32.5497189086754 62.955 L 32.02784390867541 62.955 L 31.505968908675406 62.955 L 30.984093908675405 62.955 L 30.462218908675403 62.955 L 29.940343908675402 62.955 L 29.4184689086754 62.955 L 28.896593908675406 62.955 L 28.374718908675405 62.955 L 27.852843908675403 62.955 L 27.330968908675402 62.955 L 26.8090939086754 62.955 L 26.2872189086754 62.955 L 25.765343908675405 62.955 L 25.243468908675403 62.955 L 24.721593908675402 62.955 L 24.014280875804975 63.85968749999999 L 23.21516760550277 64.764375 L 22.333505843320047 65.6690625 L 21.379746991928226 66.57375 L 20.365390223430307 67.4784375 L 19.302815364694354 68.383125 L 18.20510298434588 69.2878125 L 17.085844296051032 70.1925 L 15.95894364071968 71.0971875 L 14.838416418106789 72.001875 L 13.738185404422405 72.9065625 L 12.67187841601733 73.81125 L 11.652630259648213 74.7159375 L 10.692891847531317 75.62062500000002 L 9.804249251268775 76.52531250000001 L 8.997255324292869 77.43 L 8.04350532429287 77.43 L 7.089755324292869 77.43 L 6.13600532429287 77.43 L 5.18225532429287 77.43 L 4.228505324292871 77.43 L 3.2747553242928698 77.43 L 2.3210053242928703 77.43 L 1.36725532429287 77.43 L 0.4135053242928697 77.43 L -0.5402446757071298 77.43 L -1.49399467570713 77.43 L -2.44774467570713 77.43 L -3.40149467570713 77.43 L -4.35524467570713 77.43 L -5.30899467570713 77.43 L -6.26274467570713 77.43 L -5.11975409898937 76.22015625 L -3.837019556867461 75.01031250000001 L -2.441039904433834 73.80046875000002 L -0.9612544450348643 72.590625 L 0.5707214713697907 71.38078125 L 2.1219173516469363 70.17093750000001 L 3.6588636496883664 68.96109375 L 5.1484608146915365 67.75125 L 6.5588387323848085 66.54140625000001 L 7.860184243510271 65.33156250000002 L 9.025515252761755 64.12171875000001 L 10.031381328173314 62.91187500000001 L 10.858472599653886 61.70203125 L 11.492121146408248 60.4921875 L 11.922681854547326 59.28234375 L 12.145782855788937 58.072500000000005 L 12.162439044521996 56.86265625000001 L 11.979025725724497 55.65281250000001 L 11.60711307797619 54.44296875000001 L 11.063165729790757 53.233125 L 10.36811524987141 52.02328125 L 9.546816651727513 50.8134375 L 8.627403024696793 49.60359375 L 7.640555048600895 48.393750000000004 L 6.618704359337324 47.18390625000001 L 5.5951914502945055 45.9740625 L 4.6033999749693955 44.76421875 L 3.6758899289179228 43.55437500000001 L 2.8435522182673454 42.34453125 L 2.1348065667099263 41.134687500000005 L 1.5748635875987471 39.92484375 L 1.1850701816976903 38.715 L 0.9823552575581749 37.505156250000006 L 0.9787901665838445 36.2953125 L 1.1812752662379156 35.085468750000004 L 1.5913607498874178 33.875625 L 2.2052063954990313 32.66578125000001 L 3.013681278325512 31.455937500000005 L 4.002600858508464 30.24609375 L 5.153095287536291 29.036250000000003 L 6.442099370353425 27.826406250000005 L 7.8429514610861 26.6165625 L 9.326085741851005 25.40671875 L 10.859799909389482 24.196875000000002 L 12.411078336279582 22.98703125 L 13.946449333061869 21.777187500000004 L 15.432854252173007 20.567343750000003 L 16.83850586710433 19.3575 L 18.13371373867534 18.14765625 L 19.29165513750269 16.9378125 L 20.289071505397665 15.727968750000002 L 21.106872371832207 14.518125000000001 L 21.730631044574704 13.30828125 L 22.15095920371764 12.098437500000001 L 22.363750672634275 10.888593750000002 L 22.370288036267578 9.67875 L 22.17720933837089 8.46890625 L 21.79633572241788 7.259062500000001 L 21.2443644915449 6.0492187500000005 L 20.54243555732996 4.839375 L 19.715582534714883 3.6295312500000003 L 18.792082735579946 2.4196875 L 17.80272293861141 1.20984375 L 16.78 0 L 17.358125 0 L 17.93625 0 L 18.514375 0 L 19.0925 0 L 19.670625 0 L 20.24875 0 L 20.826875 0 L 21.405 0 L 21.983125 0 L 22.56125 0 L 23.139375 0 L 23.7175 0 L 24.295625 0 L 24.87375 0 L 25.451875 0 L 26.03 0 L 26.608125 0 L 27.18625 0 L 27.764375 0 L 28.3425 0 L 28.920625 0 L 29.49875 0 L 30.076875 0 L 30.655 0 L 31.233125 0 L 31.81125 0 L 32.389375 0 L 32.9675 0 L 33.545625 0 L 34.12375 0 L 34.701875 0 L 35.28 0 L 36.83037918861141 1.20984375 L 38.347395235579945 2.4196875 L 39.79855128471489 3.6295312500000003 L 41.15306055732996 4.839375 L 42.3826457415449 6.0492187500000005 L 43.46227322241788 7.259062500000001 L 44.37080308837089 8.46890625 L 45.09153803626758 9.67875 L 45.61265692263427 10.888593750000002 L 45.92752170371764 12.098437500000001 L 46.034849794574704 13.30828125 L 45.93874737183221 14.518125000000001 L 45.64860275539766 15.727968750000002 L 45.1788426375027 16.9378125 L 44.54855748867535 18.14765625 L 43.781005867104334 19.3575 L 42.903010502173004 20.567343750000003 L 41.94426183306187 21.777187500000004 L 40.93654708627959 22.98703125 L 39.91292490938949 24.196875000000002 L 38.906866991851004 25.40671875 L 37.9513889610861 26.6165625 L 37.07819312035343 27.826406250000005 L 36.316845287536296 29.036250000000003 L 35.694007108508465 30.24609375 L 35.23274377832551 31.455937500000005 L 34.95192514549904 32.66578125000001 L 34.86573574988742 33.875625 L 34.98330651623792 35.085468750000004 L 35.30847766658385 36.2953125 L 35.83969900755818 37.505156250000006 L 36.570070181697695 38.715 L 37.48751983759875 39.92484375 L 38.57511906670993 41.134687500000005 L 39.81152096826735 42.34453125 L 41.17151492891793 43.55437500000001 L 42.626681224969396 44.76421875 L 44.14612895029451 45.9740625 L 45.69729810933733 47.18390625000001 L 47.2468050486009 48.393750000000004 L 48.7613092746968 49.60359375 L 50.20837915172752 50.8134375 L 51.55733399987142 52.02328125 L 52.78004072979076 53.233125 L 53.851644327976196 54.44296875000001 L 54.751213225724506 55.65281250000001 L 55.46228279452201 56.86265625000001 L 55.973282855788945 58.072500000000005 L 56.27783810454733 59.28234375 L 56.37493364640825 60.4921875 L 56.2689413496539 61.70203125 L 55.969506328173324 62.91187500000001 L 55.491296502761756 64.12171875000001 L 54.85362174351028 65.33156250000002 L 54.07993248238482 66.54140625000001 L 53.197210814691545 67.75125 L 52.23526989968837 68.96109375 L 51.22597985164695 70.17093750000001 L 50.202440221369805 71.38078125 L 49.19812055496514 72.590625 L 48.245991345566175 73.80046875000002 L 47.37766794313254 75.01031250000001 L 46.62258965101063 76.22015625 L 46.00725532429287 77.43 L 46.00725532429287 77.43 Z M 30.38030387827876 45.89999999999999 L 29.417875986407957 45.10968749999999 L 28.47899706487257 44.319374999999994 L 27.5725365061494 43.529062499999995 L 26.707004065725982 42.738749999999996 L 25.89045545810925 41.9484375 L 25.130402989792156 41.158125 L 24.433732220582115 40.3678125 L 23.80662557781894 39.5775 L 23.254493770876913 38.787187499999995 L 22.78191576681251 37.996874999999996 L 22.392587993045154 37.206562500000004 L 22.08928333059704 36.41625 L 21.873820352805566 35.6259375 L 21.74704315076224 34.83562500000001 L 21.708811969287126 34.0453125 L 21.75800475731964 33.255 Q 21.836520583178633 32.74125000000001 21.980612567744007 32.11687500000001 Q 22.175069392911134 31.492500000000007 22.466687793787045 30.757500000000007 Q 22.636345549525913 30.390000000000008 22.835895257997777 29.99484375000001 Q 23.05223800174141 29.599687500000012 23.301629070154146 29.17687500000001 Q 23.568321313010966 28.754062500000003 23.87047273508989 28.303593750000005 Q 24.189673491123184 27.853125000000002 24.545706810754407 27.375 Q 24.919367045723593 26.895 25.311056786527917 26.411015624999997 Q 25.715095347858636 25.92703125 26.133579853331973 25.439062500000002 Q 26.560449007302633 24.95109375 26.99777212626777 24.459140624999996 Q 27.43920152753226 23.9671875 27.88673887095399 23.47125 Q 28.33385337625681 22.9753125 28.782441243356086 22.475390625000003 Q 29.225899541890968 21.975468750000005 29.665984125514115 21.471562500000005 Q 30.096136851303175 20.967656250000008 30.51794208600811 20.45976562500001 Q 30.925007486975648 19.95187500000001 31.318719302172443 19.440000000000012 Q 31.695854051454884 18.92625000000001 32.036065878222026 18.436171875000007 Q 32.35471564045456 17.946093750000006 32.63713224644356 17.479687500000008 Q 32.89712724802644 17.013281250000006 33.12277604153515 16.570546875000005 Q 33.32604778267446 16.127812500000005 33.49778360173179 15.708750000000006 Q 33.64789639863392 15.289687500000007 33.76995096029265 14.894296875000006 Q 33.87166440145189 14.498906250000008 33.94923479880765 14.127187500000009 Q 34.04801712984821 13.38375000000001 34.075364127522455 12.735000000000014 L 34.075364127522455 12.735000000000014 Q 33.88551712984821 13.38375000000001 33.591337684897 14.113125000000007 Q 33.417111305429756 14.477812500000006 33.211621829818384 14.862656250000004 Q 32.98682604861045 15.247500000000004 32.72759392790549 15.652500000000003 Q 32.44807839289514 16.057500000000005 32.13134119728671 16.48265625 Q 31.793789997311762 16.907812500000002 31.416789713779224 17.353125000000002 Q 31.019024671424546 17.798437500000002 30.580326965057502 18.26390625 Q 30.121634186387695 18.729375000000005 29.621465290211802 19.215000000000003 Q 29.101683244031427 19.700625000000002 28.567123573816065 20.184609375000008 Q 28.018069040066717 20.668593750000007 27.458299960765178 21.150937500000005 Q 26.888079773961174 21.633281250000003 26.3113207824873 22.113984375000005 Q 25.728258506895678 22.594687500000006 25.14287357187066 23.073750000000004 Q 24.555366226311154 23.552812500000005 23.96972197780216 24.030234375000006 Q 23.38609980000561 24.507656250000004 22.808427907713707 24.9834375 Q 22.23681941957712 25.459218750000005 21.67508532779226 25.933359375000006 Q 21.12328977700414 26.407500000000006 20.585069764765016 26.880000000000003 Q 20.060438805158295 27.3525 19.570646036940445 27.806484375000004 Q 19.09656594635895 28.260468750000005 18.657763740004356 28.695937500000003 Q 18.23601018479504 29.13140625 17.84906931866113 29.548359375 Q 17.479829519085314 29.9653125 17.144185087067196 30.36375 Q 16.826319046518634 30.7621875 16.54022945037175 31.142109375 Q 16.27152779091979 31.52203125 16.032324878492126 31.883437500000003 Q 15.604192929750031 32.60625 15.278004757319637 33.255 L 15.278004757319637 33.255 L 14.950061969287127 34.0453125 L 14.70954315076224 34.83562500000001 L 14.55757035280556 35.6259375 L 14.494283330597037 36.41625 L 14.518837993045151 37.206562500000004 L 14.62941576681251 37.996874999999996 L 14.823243770876914 38.787187499999995 L 15.09662557781894 39.5775 L 15.444982220582112 40.3678125 L 15.862902989792154 41.158125 L 16.34420545810925 41.9484375 L 16.882004065725983 42.738749999999996 L 17.468786506149403 43.529062499999995 L 18.09649706487257 44.319374999999994 L 18.756625986407954 45.10968749999999 L 19.44030387827876 45.89999999999999 L 20.124053878278758 45.89999999999999 L 20.80780387827876 45.89999999999999 L 21.49155387827876 45.89999999999999 L 22.17530387827876 45.89999999999999 L 22.85905387827876 45.89999999999999 L 23.54280387827876 45.89999999999999 L 24.22655387827876 45.89999999999999 L 24.91030387827876 45.89999999999999 L 25.59405387827876 45.89999999999999 L 26.27780387827876 45.89999999999999 L 26.96155387827876 45.89999999999999 L 27.64530387827876 45.89999999999999 L 28.32905387827876 45.89999999999999 L 29.01280387827876 45.89999999999999 L 29.69655387827876 45.89999999999999 L 30.38030387827876 45.89999999999999 L 30.38030387827876 45.89999999999999 Z" fill="black" stroke="black" />
				</svg>