<svg
					xmlns="http://www.w3.org/2000/svg" xmlns:xlink="http://www.w3.org/1999/xlink"
					style="
						overflow: visible;
						height: 100;
					"
					viewBox="-7.988614512069328 0 49.55645724673865 77.115"
				>
					<path d="M 27.65178243698641 77.115 L 27.12521993698641 77.115 L 26.598657436986407 77.115 L 26.07209493698641 77.115 L 25.54553243698641 77.115 L 25.01896993698641 77.115 L 24.49240743698641 77.115 L 23.96584493698641 77.115 L 23.43928243698641 77.115 L 22.91271993698641 77.115 L 22.38615743698641 77.115 L 21.859594936986408 77.115 L 21.333032436986407 77.115 L 20.806469936986407 77.115 L 20.279907436986406 77.115 L 19.75334493698641 77.115 L 19.226782436986408 77.115 L 18.700219936986407 77.115 L 18.17365743698641 77.115 L 17.64709493698641 77.115 L 17.12053243698641 77.115 L 16.593969936986408 77.115 L 16.067407436986407 77.115 L 15.540844936986407 77.115 L 15.014282436986406 77.115 L 14.487719936986405 77.115 L 13.961157436986404 77.115 L 13.434594936986407 77.115 L 12.908032436986407 77.115 L 12.381469936986406 77.115 L 11.854907436986409 77.115 L 11.328344936986408 77.115 L 10.801782436986407 77.115 L 10.275219936986407 77.115 L 9.74865743698641 77.115 L 9.222094936986409 77.115 L 8.695532436986408 77.115 L 8.168969936986407 77.115 L 7.6424074369864075 77.115 L 7.115844936986407 77.115 L 6.589282436986408 77.115 L 6.062719936986409 77.115 L 5.536157436986408 77.115 L 5.0095949369864075 77.115 L 4.483032436986407 77.115 L 3.956469936986406 77.115 L 3.429907436986407 77.115 L 2.903344936986408 77.115 L 2.3767824369864075 77.115 L 1.8502199369864076 77.115 L 1.3236574369864078 77.115 L 0.7970949369864071 77.115 L 0.2705324369864073 77.115 L -0.25603006301359255 77.115 L -0.7825925630135933 77.115 L -1.309155063013593 77.115 L -1.835717563013593 77.115 L -2.3622800630135927 77.115 L -2.888842563013593 77.115 L -3.4154050630135933 77.115 L -3.941967563013593 77.115 L -4.468530063013593 77.115 L -4.995092563013593 77.115 L -5.521655063013593 77.115 L -6.048217563013593 77.115 L -5.132698113916178 75.910078125 L -4.084986212016532 74.70515625 L -2.932065639151851 73.500234375 L -1.7036298226444984 72.2953125 L -0.43131708216380155 71.090390625 L 0.852104214043576 69.88546875 L 2.113579597283255 68.680546875 L 3.320619815049206 67.47562500000001 L 4.442137590537699 66.27070312500001 L 5.449248274327946 65.06578125 L 6.316013767474945 63.86085937499999 L 7.020110556302172 62.65593749999999 L 7.543404653682502 61.451015625 L 7.872418639215512 60.24609375 L 7.9986787696986 59.041171875 L 7.918933220074207 57.83624999999999 L 7.635235834065644 56.63132812499999 L 7.154893227506869 55.42640624999999 L 6.490276606718055 54.221484374999996 L 5.658503148537839 53.0165625 L 4.680995148057858 51.811640625 L 3.5829282881936653 50.60671875 L 2.392583240889094 49.40179687499999 L 1.140617299441323 48.19687499999999 L -0.14072519897032046 46.991953124999995 L -1.4184433250128716 45.78703124999999 L -2.6596294949316057 44.58210937499999 L -3.8323170041699086 43.37718749999999 L -4.9063033286797655 42.172265624999994 L -5.85392798982753 40.96734375 L -6.650784949012676 39.762421874999994 L -7.276351184302228 38.5575 L -7.714515260112447 37.352578125 L -7.953992276644891 36.14765625 L -7.988614512069328 34.942734375 L -7.817490271974618 33.737812500000004 L -7.445026854925758 32.532890625 L -6.880817042650026 31.327968749999997 L -6.139392038293308 30.123046875 L -5.2398472158128335 28.918124999999996 L -4.205350319317082 27.713203124999996 L -3.0625447786608766 26.50828125 L -1.840863508880785 25.303359375 L -0.571770866541436 24.098437499999996 L 0.7120477136207567 22.893515624999996 L 1.9775275308776203 21.688593749999995 L 3.1920761986710224 20.483671875 L 4.324413060340487 19.27875 L 5.3453748212950805 18.073828125 L 6.2286666486023945 16.868906250000002 L 6.951539393452114 15.663984374999998 L 7.495375494654247 14.459062499999998 L 7.846168473248848 13.254140625 L 7.994883668860999 12.049218749999998 L 7.937690927049386 10.844296874999998 L 7.676063244794304 9.639375 L 7.216738833514128 8.434453125000001 L 6.571547576675887 7.229531249999999 L 5.757106351577853 6.024609374999999 L 4.794391062280519 4.8196875 L 3.7081964059622297 3.6147656249999995 L 2.5264972863973014 2.40984375 L 1.2797283213291772 1.204921875 L 0 0 L 0.8687500000000001 0 L 1.7375000000000003 0 L 2.60625 0 L 3.4750000000000005 0 L 4.34375 0 L 5.2125 0 L 6.081250000000001 0 L 6.950000000000001 0 L 7.8187500000000005 0 L 8.6875 0 L 9.55625 0 L 10.425 0 L 11.293750000000001 0 L 12.162500000000001 0 L 13.031250000000002 0 L 13.900000000000002 0 L 14.901862598557447 0.9417187500000002 L 15.887950631509751 1.8834375000000003 L 16.84273790755019 2.8251562500000005 L 17.75119107325631 3.7668750000000006 L 18.599006316825708 4.70859375 L 19.372834585004995 5.650312500000001 L 20.060491767117632 6.592031250000002 L 20.65115053679301 7.533750000000001 L 21.135510830802996 8.475468750000001 L 21.505946280775923 9.4171875 L 21.75662429218587 10.358906250000002 L 21.883597879944823 11.300625000000002 L 21.884867814624403 12.242343750000003 L 21.760414100800144 13.184062500000003 L 21.512196291884212 14.125781250000001 L 21.144122636489485 15.067500000000003 L 20.66198854212285 16.009218750000002 L 20.073385325111527 16.950937500000002 L 19.387580683516624 17.89265625 L 18.615372775016375 18.834375 L 17.76892019733764 19.776093750000005 L 16.861550548234298 20.717812500000004 L 15.907550579281377 21.65953125 L 14.92194124756343 22.601250000000004 L 13.920241207122048 23.542968750000007 L 12.918222464046057 24.484687500000007 L 11.9316620424733 25.426406250000003 L 10.976093571582005 26.368125000000006 L 10.066562704893908 27.309843750000006 L 9.21739022287046 28.251562500000002 L 8.44194654880826 29.193281250000005 L 7.752441228334841 30.135000000000005 L 7.159730687200154 31.076718750000005 L 6.673147294263415 32.018437500000005 L 6.300352421119197 32.960156250000004 L 6.047215811974082 33.901875000000004 L 5.917723163123923 34.84359375000001 L 5.913913367214887 35.7853125 L 6.035846410392377 36.72703125 L 6.281602427804858 37.66875 L 6.647311932333921 38.61046875000001 L 7.127216740592023 39.55218750000001 L 7.7137606368935066 40.49390625000001 L 8.397708347673088 41.43562500000001 L 9.168290953071187 42.37734375000001 L 10.013375446145995 43.3190625 L 10.91965576996207 44.26078125000001 L 11.87286232463089 45.20250000000001 L 12.857986645565074 46.14421875000001 L 13.859517715333514 47.085937500000014 L 14.861686188330937 48.02765625000001 L 15.848712682886186 48.969375000000014 L 16.80505623139071 49.911093750000006 L 17.715658976540887 50.852812500000006 L 18.566183260893194 51.79453125000001 L 19.34323737670086 52.73625000000001 L 20.034586421546933 53.677968750000005 L 20.629344939801406 54.61968750000001 L 21.118148316716756 55.561406250000005 L 21.493300226521104 56.503125000000004 L 21.748893812903393 57.44484375000001 L 21.880904693875067 58.38656250000001 L 21.887254326624486 59.32828125 L 21.76784273466933 60.27000000000001 L 22.38659273466933 60.27000000000001 L 23.005342734669327 60.27000000000001 L 23.62409273466933 60.27000000000001 L 24.242842734669328 60.27000000000001 L 24.861592734669326 60.27000000000001 L 25.48034273466933 60.27000000000001 L 26.09909273466933 60.27000000000001 L 26.71784273466933 60.27000000000001 L 27.336592734669328 60.27000000000001 L 27.95534273466933 60.27000000000001 L 28.574092734669332 60.27000000000001 L 29.19284273466933 60.27000000000001 L 29.81159273466933 60.27000000000001 L 30.43034273466933 60.27000000000001 L 31.049092734669333 60.27000000000001 L 31.667842734669332 60.27000000000001 L 32.28659273466933 60.27000000000001 L 32.90534273466933 60.27000000000001 L 33.52409273466933 60.27000000000001 L 34.14284273466933 60.27000000000001 L 34.76159273466933 60.27000000000001 L 35.38034273466933 60.27000000000001 L 35.999092734669325 60.27000000000001 L 36.61784273466933 60.27000000000001 L 37.23659273466933 60.27000000000001 L 37.85534273466933 60.27000000000001 L 38.47409273466933 60.27000000000001 L 39.092842734669325 60.27000000000001 L 39.71159273466933 60.27000000000001 L 40.33034273466933 60.27000000000001 L 40.94909273466933 60.27000000000001 L 41.56784273466933 60.27000000000001 L 41.28783861742368 61.32281250000001 L 40.85856043707966 62.375625000000014 L 40.28845329920822 63.428437500000015 L 39.58873280988143 64.48125 L 38.773164433250706 65.5340625 L 37.85779268626645 66.58687499999999 L 36.86062549803829 67.63968750000001 L 35.80127994337241 68.6925 L 34.70059631990073 69.74531250000001 L 33.58022816098707 70.798125 L 32.462216250005866 71.85093750000001 L 31.368555016327495 72.90375 L 30.320759843216614 73.95656249999999 L 29.339443799910867 75.00937499999999 L 28.443912124746724 76.0621875 L 27.65178243698641 77.115 L 27.65178243698641 77.115 Z" fill="black" stroke="black" />
				</svg>