<svg
					xmlns="http://www.w3.org/2000/svg" xmlns:xlink="http://www.w3.org/1999/xlink"
					style="
						overflow: visible;
						height: 100;
					"
					viewBox="-7.988614512069328 0 56.8027125680027 77.115"
				>
					<path d="M 35.82182570335325 36.94499999999999 L 35.82182570335325 36.94499999999999 Q 35.92847091393236 37.36312499999999 36.05434028920919 37.77694335937498 Q 36.20328738010038 38.19076171874998 36.36964321790097 38.600273437499986 Q 36.5576300046568 39.00978515624999 36.76102191556023 39.41499023437499 Q 36.98440243951246 39.82019531249999 37.22103689922682 40.22109374999999 Q 37.4758579656867 40.621992187499984 37.74167399115115 41.018583984374985 Q 38.02375030952621 41.415175781249985 38.31449315381231 41.80746093749998 Q 38.61947996493711 42.199746093749994 38.930771799979155 42.58772460937499 Q 39.254234033475534 42.975703124999995 39.58164074757231 43.359374999999986 Q 39.91911791041305 43.74304687499999 40.258211304444444 44.122412109374984 Q 40.605277457783004 44.501777343749986 40.951692277113395 44.87683593749999 Q 41.6612697703809 45.626953124999986 42.35533271860944 46.35984374999999 Q 43.05715826314081 47.09273437499999 43.72791836849418 47.80839843749999 Q 44.39204454379236 48.52406249999999 45.01192042678062 49.22249999999998 Q 45.61264947215775 49.92093749999998 46.15860794494318 50.60214843749998 Q 46.67506441558285 51.28335937499998 47.12901285227782 51.94734374999999 Q 47.54538324687947 52.611328125 47.8942547080827 53.2580859375 Q 48.199742130527255 53.90484374999999 48.43532524164538 54.534375 Q 48.62387412333648 55.16390625 48.7424439709874 55.7762109375 Q 48.81229189490362 56.388515625 48.81409805593337 56.98359375 Q 48.76720979948124 57.57867187499999 48.655874087116686 58.1565234375 Q 48.49730818026819 58.734375 48.279178798814385 59.295 Q 48.01643016337672 59.855625 47.70258200137887 60.39849609375 Q 47.3476660416649 60.9413671875 46.94820655496073 61.46648437500001 Q 46.511809989477534 61.99160156250001 46.03769016827159 62.49896484375001 Q 45.53109613310308 63.006328124999996 44.993596171171156 63.4959375 Q 44.42820367419306 63.985546875 43.83849932136751 64.45740234375 Q 43.22542598349489 64.9292578125 42.59423853763957 65.383359375 Q 41.94400720733586 65.8374609375 41.281335421274704 66.27380859375 Q 40.60364111462191 66.71015625 39.9185697903014 67.12875 Q 39.22212042168237 67.54734375 38.522698048053044 67.94818359375 Q 37.81512046203751 68.34902343750001 37.10829679174653 68.73210937500001 Q 36.39609853841742 69.11519531249999 35.68771233575144 69.48052734375 Q 34.976289288228465 69.845859375 34.271096454535616 70.1934375 Q 33.56477658719442 70.541015625 32.86650932327525 70.87083984375 Q 32.16862360019894 71.2006640625 31.48007205449307 71.51273437500001 Q 30.79304428449062 71.8248046875 30.11615313648283 72.11912109375001 Q 29.441601718106924 72.41343750000001 28.77757525439864 72.69000000000001 Q 28.11642086777672 72.96656250000001 27.467508074413356 73.22583984375001 Q 26.821771370762757 73.48511718750001 26.188055971703196 73.72710937500001 Q 25.557625750426226 73.96910156250001 24.938775039138 74.19380859374999 Q 24.323161837636125 74.418515625 23.718518793275152 74.62593749999999 Q 23.116944285629554 74.833359375 22.525612336780288 75.02349609375 Q 21.937090885608896 75.2136328125 21.358010443481525 75.386484375 Q 20.78142216392108 75.5593359375 20.21343854071902 75.71490234375 Q 19.647593679551363 75.87046875 19.089516392058563 76.00874999999999 Q 18.53321116334366 76.14703125 17.983864905983726 76.26802734374999 Q 17.435929167561696 76.38902343750001 16.89419693445279 76.492734375 Q 16.353534249040116 76.5964453125 15.818393202888315 76.68287109375 Q 15.284013915283822 76.769296875 14.754564654265526 76.8384375 Q 14.225612644146112 76.90757812499999 13.701102517579347 76.95943359374999 Q 13.176876266472268 77.0112890625 12.656717346489362 77.04585937499999 Q 12.396685655825873 77.06314453125 12.137620340023371 77.0761083984375 Q 11.878573013506823 77.08907226562499 11.620468136633239 77.09771484375 Q 11.362371275116912 77.10635742187499 11.105200852627064 77.11067871093749 Q 10.848032436986408 77.115 10.591782436986406 77.115 L 10.591782436986406 77.115 L 10.071782436986407 77.115 L 9.551782436986407 77.115 L 9.031782436986408 77.115 L 8.511782436986408 77.115 L 7.991782436986406 77.115 L 7.471782436986406 77.115 L 6.951782436986407 77.115 L 6.431782436986407 77.115 L 5.911782436986408 77.115 L 5.391782436986408 77.115 L 4.8717824369864084 77.115 L 4.351782436986407 77.115 L 3.8317824369864057 77.115 L 3.311782436986406 77.115 L 2.7917824369864066 77.115 L 2.271782436986407 77.115 L 1.7517824369864075 77.115 L 1.231782436986407 77.115 L 0.7117824369864065 77.115 L 0.19178243698640696 77.115 L -0.3282175630135926 77.115 L -0.8482175630135931 77.115 L -1.3682175630135935 77.115 L -1.8882175630135931 77.115 L -2.408217563013593 77.115 L -2.928217563013593 77.115 L -3.448217563013593 77.115 L -3.968217563013593 77.115 L -4.488217563013594 77.115 L -5.008217563013593 77.115 L -5.528217563013593 77.115 L -6.048217563013593 77.115 L -5.132698113916178 75.910078125 L -4.084986212016532 74.70515625 L -2.932065639151851 73.500234375 L -1.7036298226444984 72.2953125 L -0.43131708216380155 71.090390625 L 0.852104214043576 69.88546875 L 2.113579597283255 68.680546875 L 3.320619815049206 67.47562500000001 L 4.442137590537699 66.27070312500001 L 5.449248274327946 65.06578125 L 6.316013767474945 63.86085937499999 L 7.020110556302172 62.65593749999999 L 7.543404653682502 61.451015625 L 7.872418639215512 60.24609375 L 7.9986787696986 59.041171875 L 7.918933220074207 57.83624999999999 L 7.635235834065644 56.63132812499999 L 7.154893227506869 55.42640624999999 L 6.490276606718055 54.221484374999996 L 5.658503148537839 53.0165625 L 4.680995148057858 51.811640625 L 3.5829282881936653 50.60671875 L 2.392583240889094 49.40179687499999 L 1.140617299441323 48.19687499999999 L -0.14072519897032046 46.991953124999995 L -1.4184433250128716 45.78703124999999 L -2.6596294949316057 44.58210937499999 L -3.8323170041699086 43.37718749999999 L -4.9063033286797655 42.172265624999994 L -5.85392798982753 40.96734375 L -6.650784949012676 39.762421874999994 L -7.276351184302228 38.5575 L -7.714515260112447 37.352578125 L -7.953992276644891 36.14765625 L -7.988614512069328 34.942734375 L -7.817490271974618 33.737812500000004 L -7.445026854925758 32.532890625 L -6.880817042650026 31.327968749999997 L -6.139392038293308 30.123046875 L -5.2398472158128335 28.918124999999996 L -4.205350319317082 27.713203124999996 L -3.0625447786608766 26.50828125 L -1.840863508880785 25.303359375 L -0.571770866541436 24.098437499999996 L 0.7120477136207567 22.893515624999996 L 1.9775275308776203 21.688593749999995 L 3.1920761986710224 20.483671875 L 4.324413060340487 19.27875 L 5.3453748212950805 18.073828125 L 6.2286666486023945 16.868906250000002 L 6.951539393452114 15.663984374999998 L 7.495375494654247 14.459062499999998 L 7.846168473248848 13.254140625 L 7.994883668860999 12.049218749999998 L 7.937690927049386 10.844296874999998 L 7.676063244794304 9.639375 L 7.216738833514128 8.434453125000001 L 6.571547576675887 7.229531249999999 L 5.757106351577853 6.024609374999999 L 4.794391062280519 4.8196875 L 3.7081964059622297 3.6147656249999995 L 2.5264972863973014 2.40984375 L 1.2797283213291772 1.204921875 L 0 0 L 0.5559375 0 L 1.111875 0 L 1.6678125 0 L 2.22375 0 L 2.7796874999999996 0 L 3.335625 0 L 3.8915625 0 L 4.4475 0 L 5.0034374999999995 0 L 5.559374999999999 0 L 6.1153125 0 L 6.67125 0 L 7.227187499999999 0 L 7.783125 0 L 8.3390625 0 L 8.895 0 L 9.450937499999998 0 L 10.006874999999999 0 L 10.5628125 0 L 11.118749999999999 0 L 11.6746875 0 L 12.230625 0 L 12.786562499999999 0 L 13.3425 0 L 13.8984375 0 L 14.454374999999999 0 L 15.0103125 0 L 15.56625 0 L 16.122187500000003 0 L 16.678125 0 L 17.2340625 0 L 17.79 0 Q 18.1790625 0 18.572416013093388 0.009287109375000005 Q 18.96576951099713 0.01857421875000001 19.363413900477223 0.03714843750000002 Q 19.76105804692397 0.05572265625000003 20.162992295093517 0.08358398437500004 Q 20.564925312927983 0.11144531250000006 20.97114588073314 0.14859375000000008 Q 21.37736256024925 0.1857421875000001 21.78786083613008 0.2321777343750001 Q 22.198349620023826 0.2786132812500002 22.613108459486863 0.3343359375000002 Q 23.027847619768323 0.3900585937500002 23.446836979181317 0.4550683593750003 Q 23.865789890837362 0.5200781250000003 24.288961562268213 0.5943750000000003 Q 24.712071082490723 0.6686718750000004 25.139352541408766 0.7522558593750004 Q 25.56653450905301 0.8358398437500005 25.997821893721884 0.9287109375000004 Q 26.428957771672316 1.0215820312500004 26.864108022419376 1.1237402343750005 Q 27.299036716038383 1.2258984375000006 27.737858914599414 1.3373437500000007 Q 28.17636781272194 1.4487890625000008 28.618613776820204 1.5695214843750007 Q 29.060429078106395 1.6902539062500008 29.505783284584286 1.8202734375000011 Q 29.95055969168624 1.9502929687500012 30.398628623071183 2.0895996093750013 Q 30.845938510185732 2.2289062500000014 31.296239544679736 2.3775000000000013 Q 31.74556173075192 2.526093750000001 32.197511724345254 2.6839746093750017 Q 32.648220014471065 2.8418554687500017 33.1011237561506 3.0090234375000016 Q 33.55247544750315 3.1761914062500023 34.0055142041838 3.3526464843750023 Q 34.45663878981608 3.5291015625000024 34.90885919634716 3.7148437500000018 Q 35.35874754010578 3.9005859375000016 35.80905113098955 4.095615234375002 Q 36.256545428911714 4.290644531250002 36.70367915150932 4.494960937500002 Q 37.14746403865491 4.699277343750003 37.590012131697534 4.912880859375003 Q 38.02860733732423 5.126484375000003 38.46498500228463 5.349375000000003 Q 38.89673999926693 5.572265625000003 39.32518933407947 5.804443359375003 Q 39.74828046886503 6.036621093750003 40.16686917180457 6.278085937500003 Q 40.57929979704226 6.519550781250003 40.985923181157574 6.7703027343750035 Q 41.385527342146595 7.021054687500004 41.777914225042146 7.281093750000005 Q 42.16236447074902 7.541132812500005 42.53808751795703 7.810458984375005 Q 42.90490741462889 8.079785156250004 43.26139851426183 8.358398437500005 Q 43.607980431468135 8.637011718750005 43.94255165999534 8.924912109375004 Q 44.266180371877475 9.212812500000005 44.576051072262466 9.510000000000005 Q 44.873803580268586 9.806718750000005 45.15487101418156 10.111684570312505 Q 45.42303924521308 10.416650390625005 45.67289091261002 10.729863281250005 Q 45.90892905629755 11.043076171875004 46.125034416734444 11.364536132812505 Q 46.32646792519503 11.685996093750004 46.506394705017925 12.015703125000005 Q 46.67087103251292 12.345410156250004 46.812339047160755 12.683364257812503 Q 46.93768360193222 13.021318359375002 47.03862359375996 13.367519531250002 Q 47.12290044190257 13.713720703125002 47.18151736226377 14.068168945312504 Q 47.2230940111636 14.422617187500002 47.23793395072576 14.785312500000003 Q 47.23554930567789 15.148007812500005 47.20556903208166 15.518950195312506 Q 47.15840336749399 15.889892578125005 47.08304116855165 16.269082031250004 Q 46.9907866893876 16.648271484375 46.87003294859904 17.035708007812502 Q 46.73296324470988 17.423144531250003 46.56742890114431 17.818828125000003 Q 46.38646532488047 18.214511718750003 46.17744610035272 18.618442382812503 Q 45.954218836064804 19.022373046875003 45.703752859718335 19.434550781250003 Q 45.44065421396689 19.846728515625003 45.15157045029914 20.267153320312502 Q 44.85179768698291 20.687578125 44.52775239207192 21.11625 Q 44.195337281985566 21.544921875 43.8408355896702 21.9818408203125 Q 43.480657755194066 22.418759765624998 43.10105744676059 22.863925781249996 Q 42.718838576308244 23.309091796875 42.32033313098047 23.7625048828125 Q 41.92260923164173 24.21591796875 41.512187407983276 24.677578124999997 Q 41.106256475296405 25.139238281249995 40.69163595185508 25.609145507812492 Q 40.28547877841905 26.079052734374994 39.87501180023119 26.557207031249995 Q 39.47718413334892 27.035361328125 39.07973368118777 27.521762695312496 Q 38.69922858405038 28.008164062499997 38.324014313548176 28.502812499999997 Q 37.97009439025976 28.997460937499998 37.626508481079824 29.500356445312498 Q 37.30850859292392 30.003251953125 37.00590270034215 30.514394531249998 Q 36.733004921844156 31.025537109374998 36.48045062296866 31.544926757812497 Q 36.26143444588845 32.06431640625 36.067460899850694 32.591953124999996 Q 35.910433066119424 33.11958984375 35.78274703141419 33.655473632812495 Q 35.69485682665206 34.191357421875 35.64005165807559 34.73548828124999 Q 35.62719897911459 35.27961914062499 35.65046070892826 35.83199707031249 Q 35.71700567394512 36.38437499999999 35.82182570335325 36.94499999999999 L 35.82182570335325 36.94499999999999 Z M 21.630193675140685 37.69499999999999 L 21.630193675140685 37.69499999999999 Q 21.444757429254775 37.043437499999996 21.310128937822633 36.412236328125 Q 21.231555854563098 35.78103515625 21.19794166963682 35.1701953125 Q 21.217350804594023 34.55935546875 21.274477458960686 33.968876953125 Q 21.380336962423293 33.378398437499996 21.515794515618197 32.80828124999999 Q 21.694843282715972 32.23816406249999 21.89495401528653 31.688408203124993 Q 22.133029099716946 31.13865234374999 22.3836088912421 30.609257812499987 Q 22.666355354861835 30.079863281249985 22.95335107701863 29.570830078124985 Q 23.266802961999936 29.061796874999985 23.576800025532016 28.573124999999987 Q 23.90783091554982 28.08445312499999 24.22843363044505 27.616142578124986 Q 24.565082740351592 27.147832031249987 24.885176412891855 26.699882812499983 Q 25.216861423599354 26.251933593749982 25.526769303499012 25.824345703124987 Q 25.84440047413509 25.396757812499985 26.135951054995083 24.989531249999985 Q 26.43196280209033 24.582304687499985 26.69848389104085 24.195439453124987 Q 26.966800356989083 23.808574218749982 27.203056097059402 23.442070312499986 Q 27.439006566074912 23.075566406249987 27.641092533544455 22.729423828124986 Q 27.84129119573308 22.383281249999985 28.006501086772154 22.057499999999987 Q 28.168703863276487 21.731718749999988 28.29537936844715 21.426298828124988 Q 28.41832851051124 21.120878906249988 28.5057019440277 20.835820312499987 Q 28.58896707662182 20.550761718749985 28.637004325395246 20.286064453124986 Q 28.68082664738604 20.021367187499987 28.69007613629739 19.777031249999986 Q 28.69522069985089 19.53269531249999 28.666672401350333 19.308720703124987 Q 28.634291825477305 19.084746093749985 28.569248910377787 18.881132812499985 Q 28.500760562410697 18.677519531249985 28.40072510800367 18.494267578124983 Q 28.297702716880266 18.311015624999982 28.16427595428213 18.148124999999986 Q 28.028355790611986 17.985234374999987 27.86315266965154 17.842705078124986 Q 27.69595381975934 17.700175781249982 27.500531173453624 17.578007812499983 Q 27.303589022432895 17.455839843749985 27.079386297113746 17.354033203124985 Q 26.85409809149626 17.252226562499985 26.602389444838316 17.170781249999983 Q 26.34997070083778 17.089335937499982 26.07182723116883 17.028251953124986 Q 25.793277763168685 16.967167968749987 25.489538694379227 16.926445312499986 Q 25.185617136445966 16.885722656249982 24.856868921164377 16.865361328124983 Q 24.528074780808197 16.844999999999985 24.1746372808082 16.844999999999985 L 24.1746372808082 16.844999999999985 L 23.670887280808195 16.844999999999985 L 23.1671372808082 16.844999999999985 L 22.663387280808195 16.844999999999985 L 22.159637280808198 16.844999999999985 L 21.6558872808082 16.844999999999985 L 21.152137280808198 16.844999999999985 L 20.6483872808082 16.844999999999985 L 20.144637280808197 16.844999999999985 L 19.148518482016122 18.194999999999986 L 17.98280632921869 19.544999999999987 L 16.685168029738342 20.894999999999985 L 15.297533669607683 22.244999999999987 L 13.864741342866775 23.594999999999988 L 12.43308831551891 24.944999999999986 L 11.048835039825383 26.29499999999999 L 9.756710358148514 27.64499999999999 L 8.598466197114735 28.994999999999987 L 7.611528453708102 30.34499999999999 L 6.827787666691566 31.694999999999993 L 6.272568549924169 33.04499999999999 L 5.963811684646711 34.39499999999999 L 5.91149381239759 35.74499999999999 L 6.1173054604102655 37.095 L 6.574596316258584 38.44499999999999 L 7.268590116838008 39.79499999999999 L 8.17686210805794 41.144999999999996 L 9.270063647274192 42.495 L 10.512870534662605 43.845 L 11.865124430467812 45.19499999999999 L 13.283130475951644 46.544999999999995 L 14.721069188515816 47.894999999999996 L 16.13247700897624 49.245 L 17.471747660635717 50.595 L 18.695605807318117 51.94499999999999 L 19.764505392620315 53.295 L 20.643907476384726 54.644999999999996 L 21.30539627815523 55.995 L 21.727597365334574 57.345000000000006 L 21.896868316983443 58.69500000000001 L 21.807739546108067 60.045 L 22.582739546108066 60.045 L 23.357739546108064 60.045 L 24.132739546108063 60.045 L 24.90773954610806 60.045 Q 25.303364546108064 60.045 25.68922741910433 60.02349609375 Q 26.07502525619567 60.0019921875 26.450800712186563 59.958984375 Q 26.826315698476794 59.9159765625 27.19128684666944 59.851464843749994 Q 27.555670811619926 59.786953125 27.90872663820457 59.700937499999995 Q 28.260736140468595 59.61492187499999 28.60036854495418 59.50740234374999 Q 28.93836212775272 59.39988281249999 29.262663780112327 59.270859375 Q 29.58460072923486 59.141835937500005 29.891265469717656 58.991308593750006 Q 30.194707992874942 58.84078125 30.48103595430033 58.668749999999996 Q 30.763157154521156 58.49671874999999 31.02606723268173 58.30318359374999 Q 31.28366768321144 58.109648437499985 31.519720397132104 57.89460937499999 Q 31.749256519667206 57.6795703125 31.95469066398199 57.44302734374999 Q 32.15231843596182 57.20648437499999 32.32310519718031 56.94843749999998 Q 32.48474292730575 56.69039062499998 32.61666126867307 56.41083984374998 Q 32.73807523260006 56.13128906249999 32.82681229278659 55.83023437499998 Q 32.90372885285199 55.529179687499976 32.94500878661929 55.20662109374998 Q 32.97325616171999 54.884062499999985 32.96300020346491 54.53999999999998 Q 32.93930723326295 54.195937499999985 32.87523129467456 53.82908203124999 Q 32.796236268577864 53.462226562499986 32.674332246008746 53.072578124999986 Q 32.53704508741292 52.682929687499986 32.35483363571997 52.27048828124999 Q 32.15729699170187 51.858046874999985 31.913517636260575 51.42281249999998 Q 31.655131875893666 50.987578124999985 31.350081773724675 50.52955078124998 Q 31.031948093602228 50.071523437499984 30.66783140991617 49.590703124999976 Q 30.293097757791948 49.109882812499976 29.87436746744051 48.606269531249986 Q 29.448556652128556 48.10265624999998 28.982225040386755 47.57624999999999 Q 28.513518825657627 47.049843749999994 28.009407402605426 46.50064453124999 Q 27.50885500414216 45.95144531249999 26.979749461761006 45.37945312499999 Q 26.461364250420257 44.80746093749999 25.923036136652225 44.21267578125 Q 25.403741222959663 43.617890624999994 24.87479598602764 43.00031249999999 Q 24.374178582018928 42.382734375 23.87569047510854 41.74236328125 Q 23.41552745913173 41.1019921875 22.970426478244804 40.438828125 Q 22.573950410845807 39.7756640625 22.206135930568042 39.08970703125 Q 21.89702278948599 38.403749999999995 21.630193675140685 37.69499999999999 L 21.630193675140685 37.69499999999999 Z" fill="black" stroke="black" />
				</svg>