<svg
					xmlns="http://www.w3.org/2000/svg" xmlns:xlink="http://www.w3.org/1999/xlink"
					style="
						overflow: visible;
						height: 100;
					"
					viewBox="-7.826863027600292 0 41.3147152789189 101.30999999999999"
				>
					<path d="M 13.668144161017825 101.30999999999999 L 13.668144161017825 101.30999999999999 Q 13.371894161017824 101.30999999999999 13.081781039863262 101.30484374999997 Q 12.791664863030576 101.29968749999998 12.507673348460145 101.28937499999998 Q 12.223669629579515 101.2790625 11.94576619508097 101.26359375 Q 11.667835370152623 101.24812499999999 11.395968401692993 101.22749999999998 Q 10.852089002146315 101.18624999999997 10.3321577452052 101.12437499999999 Q 9.811794317135032 101.0625 9.314808899335947 100.97999999999999 Q 8.822093992861921 100.90124999999998 8.35232427524528 100.81499999999997 Q 7.881742078884999 100.72874999999999 7.433838195516108 100.63499999999999 Q 6.984993880924469 100.54124999999999 6.5585476859375165 100.43999999999997 Q 6.131029914097042 100.33874999999998 5.7256196305182545 100.22999999999999 L 5.7256196305182545 100.22999999999999 L 4.92153539494059 99.2175 L 4.027892318315608 98.205 L 3.0609523253944286 97.1925 L 2.0383111496583974 96.18 L 0.9785781378167153 95.16750000000002 L -0.09896239075790973 94.155 L -1.174702067299096 93.1425 L -2.229065293752908 92.13 L -3.2428654665441305 91.1175 L -4.197654121678765 90.10500000000002 L -5.076056647671361 89.09250000000002 L -5.862088457215729 88.08000000000001 L -6.541445864116409 87.0675 L -7.10176637229513 86.055 L -7.532853640305462 85.04250000000002 L -7.826863027600292 84.03000000000002 Q -7.52155062013771 84.10875000000001 -7.207363659662856 84.1921875 Q -6.892212669139891 84.275625 -6.567975544488005 84.36375 Q -6.242669072421906 84.451875 -5.908055477095606 84.5446875 Q -5.572263490345126 84.6375 -5.226934657208947 84.73500000000001 Q -4.881555134411995 84.82875000000001 -4.5317402668613616 84.89906250000001 Q -4.181258930438189 84.96937500000001 -3.827235494966022 85.01625000000001 Q -3.4729174418788764 85.06312500000001 -3.115648138578665 85.08656250000001 Q -2.758305428129808 85.11000000000001 -2.3983054281298077 85.11000000000001 L -2.3983054281298077 85.11000000000001 Q -1.9295554281298086 85.11000000000001 -1.5180175573042218 85.05679687500002 Q -1.1061008842449525 85.00359375000002 -0.74987732194122 84.89718750000002 Q -0.3921273136315513 84.79078125000001 -0.08699972352582108 84.63117187500002 Q 0.22160104598013675 84.47156250000002 0.4822577978321716 84.25875 Q 0.7491722803191632 84.04593750000001 0.9744893778376413 83.779921875 Q 1.2097158345418153 83.51390625 1.4113958008993084 83.19468750000001 Q 1.627497923216894 82.87546875000001 1.819780891262214 82.503046875 Q 2.0317855214620444 82.130625 2.2312338733040162 81.705 Q 2.456307050576344 81.279375 2.6987283311866843 80.79890625 Q 2.9731621644058928 80.3184375 3.2785865570773716 79.783125 Q 3.6221684849000573 79.2478125 4.010275306683787 78.65765624999999 Q 4.44164114002004 78.0675 4.929736208257002 77.42249999999999 Q 5.464085179130416 76.77749999999999 6.064453026468325 76.07765624999999 Q 6.710661736576321 75.3778125 7.42736452516236 74.623125 Q 7.801371038842078 74.24578125000001 8.192768989515407 73.8547265625 Q 8.593083361186181 73.463671875 9.009967967532223 73.05890625 Q 9.434101070766504 72.65414062500001 9.873393676303477 72.2356640625 Q 10.317795146740238 71.8171875 10.775303392920772 71.385 L 10.775303392920772 71.385 L 11.963745823271648 70.269609375 L 13.142391884672598 69.15421875 L 14.285221159413029 68.038828125 L 15.367003940225848 66.9234375 L 16.363858214732037 65.808046875 L 17.253776897455573 64.69265625 L 18.01711366995424 63.577265625 L 18.637016703401102 62.461875 L 19.09980068852598 61.346484374999996 L 19.395248959786034 60.23109375 L 19.516839043911443 59.11570312500001 L 19.461886653496503 58.00031250000001 L 19.23160494675691 56.884921875 L 18.831077745203388 55.76953125 L 18.26914730049245 54.654140625 L 17.558219088173153 53.53875000000001 L 16.71398793780679 52.42335937500001 L 15.755091545556967 51.30796875000001 L 14.702699018490373 50.192578125000004 L 13.580043534103256 49.0771875 L 12.411909432330644 47.961796875000005 L 11.224085063268062 46.84640625 L 10.042793469830597 45.731015625 L 8.894113473902012 44.615625 L 7.803403946384 43.500234375000005 L 6.794743971266543 42.38484375 L 5.890401262955214 41.269453125000005 L 5.110340572357343 40.15406250000001 L 4.47178293441607 39.038671875000006 L 3.9888254873781177 37.92328125 L 3.672130256867555 36.807890625000006 L 3.528688775333946 35.6925 L 3.561667733261201 34.577109375 L 3.7703390696231693 33.46171875 L 4.15009604494633 32.346328125 L 4.692554942142051 31.2309375 L 5.385740149906727 30.115546875 L 6.214348542690175 29.000156250000003 L 7.160087320639408 27.884765625 L 8.202077851183333 26.769375000000004 L 9.31731659683674 25.653984375000004 L 10.481182953535978 24.53859375 L 11.667982788196996 23.423203125 L 12.851515676071386 22.3078125 L 14.005653315266628 21.192421875 L 15.104916349043782 20.077031250000005 L 16.125036861656625 18.961640625 L 17.043494129774707 17.84625 L 17.840011801956823 16.730859375 L 18.49700553017621 15.61546875 L 18.99997117124573 14.500078125000002 L 19.33780498800179 13.384687500000002 L 19.503048781315204 12.269296875 L 19.492054541264327 11.15390625 L 19.305064982543506 10.038515625000002 L 18.946208186164313 8.923125 L 18.423406465742232 7.807734375 L 17.74820147028514 6.692343750000001 L 16.935499384607482 5.576953125 L 16.003241852461475 4.4615625 L 14.972009887261319 3.3461718750000005 L 13.86456951467814 2.23078125 L 12.705369177741508 1.115390625 L 11.52 0 L 12.393125 0 L 13.26625 0 L 14.139375000000001 0 L 15.012500000000001 0 L 15.885625000000001 0 L 16.758750000000003 0 L 17.631875 0 L 18.505000000000003 0 L 19.378125000000004 0 L 20.251250000000002 0 L 21.124375 0 L 21.997500000000002 0 L 22.870625000000004 0 L 23.743750000000002 0 L 24.616875 0 L 25.490000000000002 0 L 26.645197303176083 1.086796875 L 27.776180394821807 2.17359375 L 28.85924262002803 3.2603906250000003 L 29.871681798180596 4.3471875 L 30.792276085743342 5.4339843750000005 L 31.6017288095407 6.520781250000001 L 32.28307294634298 7.607578125000001 L 32.822026770415434 8.694375 L 33.2072932142655 9.781171875000002 L 33.43079666765649 10.867968750000001 L 33.48785225131861 11.954765625 L 33.37726401719346 13.041562500000001 L 33.101350016826466 14.128359375000002 L 32.66589371244585 15.215156250000001 L 32.08002274920583 16.301953125 L 31.356017629661586 17.38875 L 30.50905430087039 18.475546875000003 L 29.556886049777617 19.562343750000004 L 28.5194713747117 20.649140625 L 27.418555633212584 21.735937500000002 L 26.277215235317303 22.822734375000003 L 25.11937393651489 23.90953125 L 23.96930136940464 24.996328125000005 L 22.851104325388093 26.083125000000003 L 21.788221449692333 27.169921875 L 20.802931941475222 28.256718750000005 L 19.91588855720098 29.343515625000006 L 19.145684706051203 30.430312500000003 L 18.508464711529722 31.517109375 L 18.01758540860862 32.60390625 L 17.683336169712963 33.690703125000006 L 17.512723228108896 34.7775 L 17.509322819515177 35.864296875 L 17.67320622025208 36.951093750000005 L 18.00093825321104 38.037890625 L 18.48564929296138 39.12468750000001 L 19.1171792606877 40.211484375 L 19.88229059066486 41.29828125 L 20.764945704258114 42.38507812500001 L 21.74664317528672 43.471875000000004 L 22.806805540353785 44.558671875 L 23.923210625209343 45.645468750000006 L 25.072457346069758 46.73226562500001 L 26.230456222183147 47.8190625 L 27.372934317955714 48.90585937500001 L 28.475944030494176 49.99265625000001 L 29.516365057815474 51.07945312500001 L 30.472389025915522 52.166250000000005 L 31.323976616378296 53.253046875 L 32.05327761262573 54.33984375 L 32.64500506017491 55.426640625 L 33.08675569809034 56.51343750000001 L 33.36926994503406 57.600234375000014 L 33.486625990318814 58.68703125000001 L 33.43636392160141 59.77382812500001 L 33.21953728736275 60.860625000000006 L 32.84069101336782 61.947421875 L 32.3077661360013 63.03421875 L 31.631933349373092 64.121015625 L 30.827358855230322 65.2078125 L 29.91090742372053 66.29460937500002 L 28.901788889180153 67.38140625000001 L 27.821155490787156 68.468203125 L 26.69165849826277 69.555 Q 25.926007547750693 70.27687500000002 25.16603937388612 70.9810546875 Q 24.408844441652043 71.68523437500001 23.670266883468777 72.37171875 Q 22.946618247522313 73.058203125 22.25199896008536 73.7269921875 Q 21.582456268628327 74.39578125 20.949712812587826 75.046875 Q 20.350063830738176 75.69796875 19.792369802263345 76.33136718749999 Q 19.273660126452796 76.964765625 18.79959369287952 77.58046875 Q 18.36837472473285 78.196171875 17.982255846623687 78.79417968749999 Q 17.640996711302268 79.39218749999999 17.343359761420285 79.9725 Q 17.09097094319848 80.5528125 16.879123013685657 81.11542968750001 Q 16.711544252666755 81.67804687499999 16.580165192907778 82.22296874999999 Q 16.490976695775778 82.76789062499999 16.43272395993018 83.29511718750001 Q 16.413747397071013 83.82234375 16.419836352059605 84.331875 Q 16.461699762841295 84.84140624999999 16.522437618099893 85.33324218749999 Q 16.61508570187328 85.825078125 16.720344229978046 86.29921875 Q 16.85348219075508 86.773359375 16.99310061638529 87.22980468749999 Q 17.156565519820713 87.68625 17.320680193382643 88.125 Q 17.504738567985157 88.56375 17.68821543735149 88.98714843750001 Q 17.888140306399713 89.41054687500001 18.082902430700535 89.81859375 Q 18.290847089947135 90.226640625 18.489506876731237 90.61933593750001 Q 18.69836579389508 91.01203125 18.894312710207448 91.389375 Q 19.097790536752832 91.76671875 19.285239192470076 92.1287109375 Q 19.477882680699604 92.49070312500001 19.651887198673485 92.83734375 Q 19.829086035414516 93.18398437500001 19.985526685031097 93.51527343750001 Q 20.143489179547007 93.8465625 20.279037045269465 94.16250000000001 Q 20.41474630230832 94.47843750000001 20.526811358610416 94.77902343750002 Q 20.63796709634457 95.07960937500002 20.72463452909938 95.36484375 Q 20.80958512593785 95.65007812500002 20.86954413241408 95.91996093750001 Q 20.927212856448712 96.18984375000001 20.95968151642738 96.44437500000002 Q 20.989490247010657 96.69890625000002 20.99413942147135 96.9380859375 Q 20.99593254523289 97.17726562500002 20.97281115302173 97.40109375000002 Q 20.946781729191386 97.62492187500001 20.896245194648472 97.83339843750001 Q 20.84286495217633 98.04187500000002 20.76550811971854 98.23500000000001 Q 20.683988703196796 98.4271875 20.58394966082843 98.60736328125 Q 20.481375578634562 98.7875390625 20.36077145721293 98.95570312500001 Q 20.237805344955667 99.1238671875 20.097337147731313 99.28001953125 Q 19.95471289851936 99.43617187500001 19.79513603912347 99.5803125 Q 19.633630896948443 99.724453125 19.455729118163802 99.85658203125001 Q 19.276138854415912 99.9887109375 19.08070117231007 100.108828125 Q 18.883818242917357 100.2289453125 18.671618784910443 100.33705078125001 Q 18.4582133159281 100.44515625 18.22999388092448 100.54125 Q 18.00079729696282 100.63734375000001 17.75725244029379 100.72142578125 Q 17.512943530858177 100.8055078125 17.25470796439039 100.87757812500001 Q 16.99590117598791 100.9496484375 16.7235392723897 101.00970703124999 Q 16.450775017230693 101.06976562499999 16.16477221523983 101.11781249999999 Q 15.878508998789998 101.165859375 15.579264921742421 101.20189453124999 Q 15.279873109691895 101.23792968749997 14.967696231085391 101.26195312499999 Q 14.655453300106032 101.2859765625 14.330557016282514 101.29798828124999 Q 14.005644161017823 101.30999999999999 13.668144161017825 101.30999999999999 L 13.668144161017825 101.30999999999999 Z" fill="black" stroke="black" />
				</svg>