<svg
					xmlns="http://www.w3.org/2000/svg" xmlns:xlink="http://www.w3.org/1999/xlink"
					style="
						overflow: visible;
						height: 100;
					"
					viewBox="-7.894946475546974 0 55.297303831429566 79.27499999999999"
				>
					<path d="M 30.861836390712146 17.069999999999993 L 30.861836390712146 17.069999999999993 Q 30.555586390712147 17.069999999999993 30.241183090737902 17.093613281249993 Q 29.926719566654114 17.117226562499994 29.603862497683316 17.164453124999994 Q 29.280766492794484 17.21167968749999 28.948802367342772 17.28251953124999 Q 28.616308094361923 17.35335937499999 28.27424890463225 17.447812499999994 Q 27.93126618469762 17.542265624999995 27.577818387600985 17.660332031249993 Q 27.22296667966919 17.778398437499995 26.856572761151018 17.920078124999993 Q 26.488228234438676 18.061757812499994 26.107122298734712 18.227050781249993 Q 25.723479709396692 18.392343749999995 25.32575898160404 18.581249999999994 Q 24.924910295608058 18.770156249999992 24.50862451786795 18.98267578124999 Q 24.088656231784192 19.19519531249999 23.651916827757248 19.431328124999993 Q 23.211027728557184 19.667460937499996 22.752138255319128 19.927207031249992 Q 22.288778874812607 20.186953124999995 21.80638761939923 20.470312499999995 Q 21.319421821494906 20.753671874999995 20.812696373939406 21.060644531249995 Q 20.30158430776003 21.367617187499995 19.770406500850108 21.698203124999992 Q 19.235406511633816 22.028789062499996 18.6805842186914 22.382988281249993 Q 18.122969198944634 22.737187499999994 17.546459104873076 23.114999999999995 Q 16.968115184483846 23.492812499999996 16.380766047854085 23.889199218749994 Q 15.794391431448629 24.2855859375 15.201557310742153 24.700546874999997 Q 14.612425836631521 25.115507812499995 14.020178683183417 25.549042968749994 Q 13.434929309436669 25.982578124999993 12.85074665885885 26.434687499999995 Q 12.277425425565001 26.886796875 11.71020540498742 27.35748046875 Q 11.158253879161194 27.8281640625 10.61826919099972 28.317421875 Q 10.098445925398458 28.8066796875 9.597223229750732 29.31451171875 Q 9.121444901583477 29.82234375 8.671556633673564 30.348749999999995 Q 8.252646626242864 30.875156249999993 7.8674039931042605 31.420136718749994 Q 7.518738482011486 31.965117187499995 7.211777418266037 32.528671875 Q 6.946822746431401 33.0922265625 6.731579176949613 33.674355468749994 Q 6.563319628075218 34.25648437499999 6.452396629185518 34.857187499999995 Q 6.392658738937356 35.457890625 6.397096156185948 36.077167968750004 Q 6.4557844198334156 36.6964453125 6.584251097462979 37.334296875 Q 6.768520169608105 37.972148437499996 7.026459902647825 38.62857421875 Q 7.33985976693978 39.285000000000004 7.728633908165619 39.96 L 7.728633908165619 39.96 Q 8.174818238251419 40.6415625 8.66661122641947 41.30267578125 Q 9.20192276753209 41.9637890625 9.769670415414012 42.604453125 Q 10.370483800146866 43.2451171875 10.991319744239718 43.865332031250006 Q 11.635171056402214 44.485546875 12.287819239668758 45.0853125 Q 12.954195324701498 45.685078125 13.619624501500917 46.26439453124999 Q 14.290508924918457 46.84371093749999 14.952355388598976 47.40257812499999 Q 15.612552394211892 47.9614453125 16.257336938214042 48.49986328125 Q 16.89460300676786 49.03828125 17.511774232641987 49.55624999999999 Q 18.116791198540923 50.074218749999986 18.69862986977205 50.57173828124999 Q 19.26485472264318 51.069257812499984 19.806273663685133 51.54632812499999 Q 20.329698888204014 52.02339843749999 20.8279706783341 52.480019531249994 Q 21.306825987677207 52.936640624999995 21.7612670793668 53.372812499999995 Q 22.19568931810037 53.808984374999994 22.607324809417243 54.22470703124999 Q 22.999018182441745 54.640429687499996 23.370246774110573 55.035703125 Q 23.72215082908274 55.43097656250001 24.056424868334418 55.80580078125 Q 24.37240313826765 56.180625 24.673934355941803 56.535 Q 24.957867473065267 56.889374999999994 25.230649544172508 57.2216015625 Q 25.488130110013216 57.553828124999995 25.7382246222406 57.86390624999999 Q 25.97477811779879 58.17398437499999 26.207653397017534 58.4619140625 Q 26.428759958439123 58.74984375 26.649752597316173 59.015625 Q 26.8607008517454 59.28140625 27.074891439709102 59.5250390625 Q 27.28066973547176 59.768671875 27.49279315560772 59.99015625 Q 27.69801323818878 60.211640624999994 27.912398372782512 60.4109765625 Q 28.121246223876824 60.6103125 28.341779772422875 60.787499999999994 Q 28.557988334281628 60.9646875 28.788097595716025 61.119726562500006 Q 29.014936352463767 61.27476562500001 29.257586170203542 61.40765625000001 Q 29.4978629714658 61.54054687500001 29.755562513671734 61.65128906250001 Q 30.01163353883653 61.76203125000001 30.286449130638914 61.850625 Q 30.560233454633003 61.939218749999995 30.85380425196177 62.005664062499996 Q 31.146800049827778 62.072109375 31.460353917208895 62.116406250000004 Q 31.77365391165774 62.160703125 32.108021421451014 62.182851562500005 Q 32.44232572201831 62.205 32.79795072201831 62.205 L 32.79795072201831 62.205 Q 33.221700722018305 62.205 33.65235487008576 62.18320312499999 Q 34.082947800982915 62.16140625 34.52019968029522 62.11781249999999 Q 34.95720570319459 62.07421875 35.40037734055218 62.008828125 Q 35.84299219053426 61.9434375 36.29102556753411 61.856249999999996 Q 36.73806046581559 61.76906249999999 37.18950525229115 61.660078124999984 Q 37.639373519354905 61.551093749999986 38.09237227957428 61.42031249999999 Q 38.543074105174036 61.28953124999999 38.995346712099284 61.136953124999984 Q 39.44445403391588 60.984374999999986 39.893283536713184 60.80999999999999 Q 40.338384707153466 60.63374999999999 40.782012456583544 60.44742187499998 Q 41.22080682898093 60.261093749999986 41.6570322010397 60.064687499999984 Q 42.08783707203345 59.86828124999998 42.51491645913923 59.66179687499998 Q 42.93596332532756 59.455312499999984 43.352073769548454 59.23874999999999 Q 43.7615211603592 59.022187499999994 44.16477524777172 58.79554687499999 Q 44.56072528418954 58.56890624999999 44.94918998652801 58.33218749999998 Q 45.32970903850017 58.09546874999998 45.701428858228184 57.84867187499998 Q 46.064572636813914 57.601874999999986 46.417597365334565 57.344999999999985 L 46.417597365334565 57.344999999999985 L 46.575007433200334 58.445624999999986 L 46.56076426050591 59.546249999999986 L 46.375174031906646 60.64687499999999 L 46.02222636975691 61.74749999999999 L 45.50950856943031 62.84812499999999 L 44.848042495672146 63.94874999999999 L 44.05204764621378 65.049375 L 43.138635476056564 66.14999999999999 L 42.12744155351853 67.25062499999999 L 41.040203455563834 68.35125 L 39.90029347637447 69.451875 L 38.73221619450116 70.5525 L 37.561081699362816 71.65312499999999 L 36.41206580111414 72.75375 L 35.309868827718475 73.854375 L 34.27818464343349 74.955 Q 33.604436194629514 75.238125 32.950777862166206 75.50203125 Q 32.30305145011521 75.76593749999999 31.674249468918276 76.010625 Q 31.050997260913952 76.25531249999999 30.44535081172955 76.48078124999998 Q 29.8447508485587 76.70624999999998 29.260350385498164 76.9125 Q 28.680415032303024 77.11874999999999 28.115242063269093 77.30578125 Q 27.5539117618589 77.49281249999999 27.00592420262146 77.66062499999998 Q 26.461147030558376 77.82843749999998 25.92835089654074 77.97703124999998 Q 25.39814887837341 78.12562499999999 24.87865742701821 78.25499999999998 Q 24.360966717487393 78.38249999999998 23.84664008668883 78.49406249999998 Q 23.33384097311569 78.60562499999997 22.823560334417035 78.70124999999999 Q 22.314419680638782 78.79687499999997 21.80705398644986 78.87656249999998 Q 21.300489893786345 78.95624999999998 20.795068715572093 79.01999999999998 Q 20.29016556177418 79.08375 19.785891951030248 79.1315625 Q 19.281911842657113 79.179375 18.77817193180371 79.21124999999998 Q 18.274563119788084 79.24312499999999 17.770932956280138 79.25906249999998 Q 17.51913019913823 79.26703124999999 17.26729440346108 79.27101562499999 Q 17.01546066370807 79.27499999999999 16.76358566370807 79.27499999999999 L 16.76358566370807 79.27499999999999 Q 16.50264816370807 79.27499999999999 16.24679658206579 79.2701513671875 Q 15.990948044829318 79.265302734375 15.740197599995351 79.25560546874999 Q 15.489459322036586 79.245908203125 15.243843452255952 79.2313623046875 Q 14.99825491741074 79.21681640624999 14.757825183012589 79.19742187499999 Q 14.277111136753366 79.15863281249999 13.817340240232102 79.10044921874999 Q 13.358003120140253 79.042265625 12.920183895730524 78.9646875 Q 12.483128977246324 78.887109375 12.068347742639256 78.79013671874999 Q 11.654746396180988 78.69316406249999 11.264345617189214 78.57679687499999 Q 10.875617390713106 78.46042968749998 10.511174162246832 78.32466796874999 Q 10.148962486195202 78.18890624999999 9.812259936037757 78.03375 Q 9.478400195601026 77.87859375 9.171390464936577 77.70404296874999 Q 8.867869041578087 77.5294921875 8.592626386404895 77.33554687499999 Q 8.321529191836571 77.14160156249999 8.080191714264346 76.92826171875 Q 7.843640745293657 76.71492187499999 7.638339324797203 76.4821875 Q 7.4384158795715845 76.24945312499999 7.271189055977923 75.99732421875 Q 7.109842496623605 75.74519531249999 6.982536385533928 75.473671875 Q 6.861477736159025 75.20214843749999 6.7756305611409555 74.91123046874999 Q 6.6962108208869875 74.62031249999998 6.6529223516127605 74.30999999999999 Q 6.615996205006121 73.9996875 6.6110454454890295 73.67396484374999 Q 6.611947736052066 73.34824218749999 6.644721734076684 73.00710937499998 Q 6.682535945119959 72.66597656249999 6.751695267543399 72.30943359374999 Q 6.824737251137599 71.952890625 6.928113666206762 71.58093749999999 Q 7.033832340906549 71.20898437499997 7.168333161206319 70.82162109374997 Q 7.303220240908226 70.43425781249998 7.464744778496011 70.03148437499999 Q 7.624259378026985 69.62871093749999 7.807633850385587 69.21052734374999 Q 7.986148663819539 68.79234374999999 8.185086688216636 68.35874999999999 Q 8.37586316494774 67.92515624999999 8.582959614678499 67.47615234374999 Q 8.7781600847284 67.02714843749999 8.98492646508864 66.56273437499999 Q 9.175671395015115 66.09832031249998 9.372620929579693 65.61849609374997 Q 9.549099319485338 65.13867187499997 9.725889509970875 64.64343749999999 Q 9.877529760342966 64.148203125 10.023169184705406 63.637558593749986 Q 10.138876459380148 63.12691406249999 10.24200089606991 62.600859374999985 Q 10.310464983645506 62.07480468749999 10.359685502674342 61.53333984374999 Q 10.36976035210148 60.99187499999999 10.354082729708361 60.43499999999999 Q 10.2952351582834 59.87812499999998 10.203147640809911 59.310468749999984 Q 10.065320186120633 58.74281249999999 9.890414921603286 58.164374999999986 Q 9.668178745363328 57.585937499999986 9.40607097576742 56.99671874999999 Q 9.096200696283464 56.407499999999985 8.744925926391776 55.80749999999999 Q 8.346780636183286 55.20749999999999 7.907158197858503 54.59671874999998 Q 7.423018985471 53.98593749999998 6.898960666978845 53.36437499999998 Q 6.334302648506599 52.742812499999985 5.7330436623540475 52.11046874999998 Q 5.096719550746714 51.47812499999999 4.428948628769136 50.834999999999994 Q 3.7332609125419762 50.19187499999999 3.013126975906574 49.53796875 Q 2.27376706899683 48.8840625 1.5187419395922601 48.21937499999999 Q 0.7545774018035942 47.55468749999999 -0.01484241824318036 46.87921874999999 Q -0.7821471490248563 46.20374999999999 -1.5429113754625141 45.51749999999999 Q -2.289449262457491 44.83125 -3.0166022085958084 44.13421874999999 Q -3.7169537001888795 43.437187499999986 -4.384456340674527 42.72937499999999 Q -5.012586741107715 42.02156249999999 -5.594298579438202 41.30296874999999 Q -6.124603538634425 40.58437499999999 -6.595399153372868 39.85499999999999 L -6.595399153372868 39.85499999999999 Q -7.003867513635327 39.12562499999999 -7.33041192868849 38.406855468749995 Q -7.589578245499598 37.68808593749999 -7.765192937963343 36.97992187499999 Q -7.87122764767857 36.27175781249999 -7.894946475546974 35.57419921874999 Q -7.84954442893687 34.87664062499999 -7.725612742736806 34.18968749999999 Q -7.535403945059002 33.50273437499999 -7.272617894623884 32.82638671874999 Q -6.948442570241897 32.150039062499985 -6.55937903333932 31.484296874999988 Q -6.11547683461465 30.81855468749999 -5.615662049550751 30.163417968749986 Q -5.068821816320602 29.50828124999999 -4.47588245560384 28.86374999999999 Q -3.844593794013503 28.21921874999999 -3.177428447092625 27.585292968749986 Q -2.481070102933094 26.95136718749999 -1.7590724897460608 26.328046874999988 Q -1.0171655664391561 25.704726562499985 -0.2595237717393617 25.092011718749983 Q 0.5089292532610724 24.479296874999985 1.283840232384468 23.87718749999999 Q 2.0609166244045776 23.275078124999986 2.836038350143457 22.68357421874999 Q 3.6053486744457315 22.09207031249999 4.365334088333636 21.511171874999988 Q 5.112366164551718 20.930273437499988 5.843866280249854 20.35998046874999 Q 6.556222277443903 19.78968749999999 7.248069563151282 19.22999999999999 Q 7.916397535680934 18.669374999999988 8.556185202801998 18.123749999999987 Q 9.167904830068641 17.57812499999999 9.749552988597177 17.047499999999985 Q 10.300643097338721 16.516874999999988 10.821448772770903 16.001249999999988 Q 11.310284631167505 15.485624999999988 11.769773210797336 14.984999999999987 Q 12.196832779920669 14.484374999999986 12.596450431900552 13.998749999999989 Q 12.963994539692976 13.513124999999988 13.306784167167105 13.042499999999986 Q 13.618528047624082 12.571874999999986 13.908804532544575 12.116249999999987 Q 14.169595083684817 11.660624999999989 14.412632468821283 11.21999999999999 Q 14.62814247596166 10.779374999999991 14.82988269941895 10.353749999999991 Q 15.006330306885342 9.928124999999993 15.17312027768607 9.517499999999993 Q 15.317019287781205 9.106874999999993 15.455380566503546 8.711249999999993 Q 15.573324773314877 8.315624999999994 15.689757952981688 7.934999999999995 Q 15.788240719174777 7.554374999999996 15.889064811433222 7.188749999999997 Q 15.974333478657478 6.823124999999997 16.065559196598613 6.472499999999998 Q 16.143502672660457 6.121874999999998 16.230737443607616 5.78625 Q 16.306804404458575 5.450625000000001 16.39518621009508 5.130000000000003 Q 16.474330753918167 4.809375000000003 16.571788267605697 4.508789062500003 Q 16.661978647301623 4.2082031250000025 16.77327093494163 3.9276562500000023 Q 16.878966105023697 3.6471093750000017 17.008089700657546 3.3866015625000014 Q 17.133002074300734 3.1260937500000012 17.28324440324419 2.8856250000000014 Q 17.430400292131754 2.645156250000001 17.604406409658882 2.424726562500001 Q 17.776217267677588 2.2042968750000007 17.976064487387024 2.003906250000001 Q 18.17440394477106 1.803515625000001 18.401679866323725 1.6231640625000008 Q 18.627962461611887 1.4428125000000007 18.883842792627792 1.2825000000000006 Q 19.13910116256556 1.1221875000000006 19.424424530707814 0.9819140625000006 Q 19.709382576272485 0.8416406250000004 20.024720225281296 0.7214062500000004 Q 20.33986042107702 0.6011718750000004 20.685579270075493 0.5009765625000002 Q 21.03120281994113 0.4007812500000002 21.40752083845604 0.32062500000000016 Q 21.783799805091842 0.24046875000000012 22.190833022824958 0.1803515625000001 Q 22.597853881674713 0.12023437500000006 23.03565462233644 0.08015625000000004 Q 23.473452921541178 0.04007812500000002 23.942039037067616 0.02003906250000001 Q 24.410624999999996 0 24.909999999999997 0 L 24.909999999999997 0 Q 25.378749999999997 0 25.87471872320545 0.020390624999999774 Q 26.370687285643868 0.04078124999999955 26.893873285158573 0.0815624999999991 Q 27.417056712452972 0.12234374999999864 27.96744921735365 0.18351562499999796 Q 28.517828701471856 0.24468749999999728 29.095390259883292 0.3262499999999964 Q 29.672910675241198 0.40781249999999547 30.27755018176349 0.5097656249999943 Q 30.579833537701038 0.5607421874999938 30.88887574782502 0.6168164062499931 Q 31.19788122152621 0.6728906249999925 31.51362547185483 0.7340624999999918 Q 31.829317716979666 0.7952343749999912 32.15172270459793 0.8615039062499905 Q 32.474056105415855 0.9277734374999898 32.803069193416206 0.9991406249999889 Q 33.13198606673361 1.070507812499988 33.467541405729335 1.1469726562499873 Q 33.802970071465595 1.2234374999999864 34.14498659331799 1.3049999999999855 Q 34.4864813497569 1.3856249999999855 34.83341210557632 1.4721679687499853 Q 35.180135116731066 1.5587109374999852 35.532213085142146 1.6511718749999855 Q 35.88402553456063 1.7436328124999856 36.24109559530076 1.8420117187499854 Q 36.597830982476374 1.9403906249999854 36.959708307309874 2.0446874999999856 Q 37.32116907406448 2.1489843749999857 37.68763567435186 2.259199218749986 Q 38.053589713927686 2.369414062499986 38.42439088678524 2.485546874999986 Q 38.79456796523886 2.6016796874999857 39.16940867065395 2.723730468749986 Q 39.54349679521792 2.8457812499999866 39.922038001811764 2.9737499999999866 Q 40.29967977640753 3.1017187499999865 40.6815348192966 3.235605468749987 Q 41.06232383331984 3.3694921874999872 41.44705483368746 3.509296874999987 Q 41.83053213650446 3.649101562499988 42.21764653900758 3.794824218749988 Q 42.603297259244385 3.940546874999988 42.99224455018342 4.092187499999989 Q 43.379494725785776 4.24382812499999 43.76966340197544 4.401386718749989 Q 44.15787709407621 4.558945312499989 44.548591959471096 4.7224218749999896 Q 44.9370687302111 4.88589843749999 45.32758860443567 5.05529296874999 Q 45.715561445908435 5.224687499999991 46.10507737577178 5.3999999999999915 L 46.10507737577178 5.3999999999999915 L 46.610774989804824 6.426562499999992 L 47.00337145963569 7.453124999999992 L 47.27055440078737 8.479687499999992 L 47.40235735588259 9.506249999999993 L 47.39134622255715 10.532812499999993 L 47.23275831231884 11.559374999999992 L 46.92459143918188 12.585937499999995 L 46.46764137162608 13.612499999999994 L 45.86548694732206 14.639062499999993 L 45.124423129059366 15.665624999999995 L 44.25334325410219 16.692187499999996 L 43.263572679561534 17.718749999999993 L 42.16865693553591 18.745312499999994 L 40.98410834872941 19.771874999999994 L 39.72711587608789 20.7984375 L 38.41622357617012 21.824999999999996 Q 38.330529309818616 21.568124999999995 38.230048587267426 21.322265624999993 Q 38.127038842785 21.076406249999994 38.00915598097675 20.841562499999995 Q 37.888490244546595 20.606718749999995 37.753013074663734 20.382890624999995 Q 37.61460556790452 20.15906249999999 37.46157468947931 19.946249999999992 Q 37.30555768470281 19.733437499999994 37.13521061571791 19.531640624999994 Q 36.96189912616802 19.329843749999995 36.774636100973225 19.139062499999998 Q 36.58449442538213 18.948281249999997 36.380846242408104 18.768515625 Q 36.174456706494595 18.58875 35.955054900866365 18.42 Q 35.73308901936926 18.25125 35.48608556454495 18.103593749999998 Q 35.23701949380195 17.955937499999997 34.96400120696321 17.829375 Q 34.68940635231118 17.7028125 34.39185311367515 17.59734375 Q 34.09317022879395 17.491874999999997 33.7724001771805 17.407499999999995 Q 33.450889438981605 17.323124999999994 33.10801566282467 17.259843749999995 Q 32.76471768517625 17.196562499999995 32.400615122058404 17.154374999999995 Q 32.03632166791073 17.11218749999999 31.651603065207375 17.09109374999999 Q 31.266836390712147 17.069999999999993 30.861836390712146 17.069999999999993 L 30.861836390712146 17.069999999999993 Z" fill="black" stroke="black" />
				</svg>