<svg
					xmlns="http://www.w3.org/2000/svg" xmlns:xlink="http://www.w3.org/1999/xlink"
					style="
						overflow: visible;
						height: 100;
					"
					viewBox="-7.988614512069328 0 55.37938015929827 77.115"
				>
					<path d="M 0 0 L 0.5603125 0 L 1.120625 0 L 1.6809375 0 L 2.24125 0 L 2.8015625 0 L 3.361875 0 L 3.9221874999999997 0 L 4.4825 0 L 5.0428125 0 L 5.603125 0 L 6.163437500000001 0 L 6.72375 0 L 7.284062499999999 0 L 7.844374999999999 0 L 8.4046875 0 L 8.965 0 L 9.5253125 0 L 10.085625 0 L 10.6459375 0 L 11.20625 0 L 11.766562500000001 0 L 12.326875000000001 0 L 12.8871875 0 L 13.4475 0 L 14.0078125 0 L 14.568124999999998 0 L 15.128437499999999 0 L 15.688749999999999 0 L 16.2490625 0 L 16.809375 0 L 17.369687499999998 0 L 17.93 0 Q 18.27875 0 18.626412109014744 0.004848632812500003 Q 18.974074215867944 0.009697265625000007 19.32064841444354 0.019394531250000013 Q 19.667222578434473 0.02909179687500002 20.012708721747845 0.04363769531250003 Q 20.358194689977196 0.05818359375000004 20.70259227439384 0.07757812500000005 Q 21.04698930546539 0.09697265625000007 21.39029710542762 0.12121582031250008 Q 21.733603554484827 0.1454589843750001 22.075819129788865 0.17455078125000012 Q 22.41803190398825 0.20364257812500014 22.759150977586017 0.23758300781250016 Q 23.100264862193384 0.2715234375000002 23.440280568783677 0.3103125000000002 Q 23.78028742423525 0.34910156250000024 24.119189430103273 0.3927392578125003 Q 24.45807726060145 0.4363769531250003 24.795850755438366 0.48486328125000033 Q 25.133602649963784 0.5333496093750003 25.470227211763103 0.5866845703125004 Q 25.806820158795016 0.6400195312500004 26.142268493392827 0.6982031250000005 Q 26.47767207115108 0.7563867187500005 26.811908628566 0.8194189453125005 Q 27.146083573233277 0.8824511718750006 27.479063043681624 0.9503320312500007 Q 27.8119596988464 1.0182128906250008 28.143625392170826 1.0909423828125007 Q 28.475182043661412 1.1636718750000008 28.805464156928508 1.2412500000000009 Q 29.465596622837378 1.396406250000001 30.12029713584923 1.5709570312500012 Q 30.774096670959707 1.7455078125000012 31.421864247919494 1.9394531250000013 Q 32.06826387949568 2.1333984375000012 32.707814481670745 2.3467382812500017 Q 33.345372688068736 2.5600781250000018 33.975004499688666 2.792812500000002 Q 34.601833779071995 3.025546875000002 35.21935469570664 3.277675781250002 Q 35.833049451738205 3.529804687500002 36.43570551013033 3.8013281250000026 Q 37.03327233318285 4.072851562500003 37.617680581282244 4.363769531250003 Q 38.195474768449415 4.654687500000003 38.75756487319849 4.965000000000003 Q 39.312625468787594 5.276250000000003 39.85335272809725 5.604316406250002 Q 40.38367870699406 5.932382812500002 40.89655664250515 6.277265625000001 Q 41.39687431882155 6.6221484375 41.876253371631975 6.983847656249999 Q 42.34070693586307 7.345546874999999 42.78037704108401 7.724062499999999 Q 43.20258319119266 8.102578124999997 43.595846491198806 8.497910156249997 Q 43.968982715174384 8.893242187499997 44.30876261969715 9.305390624999998 Q 44.62569366537185 9.717539062499997 44.90468448687122 10.146503906249995 Q 45.158130844843086 10.575468749999995 45.368991300379534 11.021249999999995 Q 45.55174237777415 11.467031249999994 45.68733483537099 11.929628906249993 Q 45.7925078462039 12.392226562499992 45.846183245076375 12.871640624999994 Q 45.86752663596144 13.351054687499994 45.83345248585426 13.847285156249992 Q 45.76568992636035 14.343515624999991 45.63921568083978 14.856562499999992 Q 45.47842328316309 15.369609374999992 45.256473715154065 15.89947265624999 Q 45.000479261610046 16.429335937499992 44.68196232981474 16.97601562499999 Q 44.33075099116564 17.52269531249999 43.9169622211719 18.086191406249988 Q 43.473068726057164 18.64968749999999 42.96806956315128 19.22999999999999 L 42.96806956315128 19.22999999999999 Q 42.386819064428416 19.863749999999992 41.7831699403296 20.473124999999996 Q 41.158391674759045 21.082499999999996 40.522446433620644 21.667499999999997 Q 39.87434348671244 22.252499999999998 39.22444609062477 22.813125 Q 38.570095163554704 23.373749999999998 37.9213744741042 23.909999999999997 Q 37.274550262977606 24.44625 36.63885918742747 24.958124999999995 Q 36.01006249805657 25.469999999999995 35.39609349898354 25.957499999999996 Q 34.792734096750834 26.444999999999993 34.206263450059296 26.90812499999999 Q 33.63295138098619 27.371249999999993 33.07716868699904 27.809999999999988 Q 32.53732294572066 28.248749999999987 32.02262912520918 28.664765624999987 Q 31.523415805668964 29.080781249999987 31.04810389848324 29.474062499999988 Q 30.58838781824527 29.867343749999993 30.150603636433072 30.23789062499999 Q 29.727992435027076 30.60843749999999 29.324812914303898 30.956249999999994 Q 28.9359759981448 31.304062499999997 28.563709841873422 31.629140624999994 Q 28.204665841446374 31.954218749999992 27.859119717915814 32.256562499999994 Q 27.525487408564924 32.55890624999999 27.20219446817071 32.838515625 Q 26.889405275878733 33.118125 26.583815515034892 33.375 Q 26.28853816552858 33.631875 26.00474598053018 33.868359375 Q 25.728753676960036 34.10484375 25.46165663854488 34.32093749999999 Q 25.201138864320605 34.53703124999999 24.947086720320556 34.73273437499999 Q 24.69846332123742 34.928437499999994 24.45406728359159 35.10374999999999 Q 24.214039949696478 35.27906249999998 23.976214731600017 35.43398437499999 Q 23.741802585828736 35.58890624999999 23.50779436619656 35.72343749999999 Q 23.276356796634346 35.85796874999998 23.04376014473838 35.97210937499999 Q 22.813009823627958 36.086249999999986 22.57977637449187 36.179999999999986 L 22.57977637449187 36.179999999999986 L 22.664473595982898 36.719999999999985 Q 22.944985672460238 36.81562499999998 23.23047722843714 36.92789062499999 Q 23.51772138130521 37.040156249999995 23.81097249194532 37.169062499999995 Q 24.106517118703223 37.297968749999995 24.409232876245355 37.44351562499999 Q 24.714843963839865 37.5890625 25.028917258528445 37.75124999999999 Q 25.346540313557092 37.913437499999986 25.674030415067435 38.09226562499999 Q 26.005766322713075 38.27109374999999 26.348870702677537 38.46656249999999 Q 26.696944310755644 38.662031249999984 27.05796247976451 38.874140624999995 Q 27.42468268029331 39.08624999999999 27.80597081768394 39.31499999999999 Q 28.193680930361385 39.54374999999999 28.593666879200285 39.80062499999998 Q 29.001427187108206 40.05749999999999 29.424501639869337 40.34249999999999 Q 29.856653967312702 40.62749999999999 30.30715283876271 40.94062499999999 Q 30.767887779956215 41.25374999999998 31.249846550379303 41.59499999999999 Q 31.742936487299556 41.936249999999994 32.2597926052754 42.30562499999999 Q 32.788272521758 42.675 33.34251562078831 43.07249999999999 Q 33.90831325021192 43.47 34.50108721210691 43.895624999999995 Q 35.10460895029793 44.32124999999999 35.735275530540974 44.77499999999999 Q 36.37302444048559 45.22687499999999 37.03765272284919 45.71835937499999 Q 37.70867931677157 46.20984374999999 38.404195015604856 46.74093749999999 Q 39.10175726769618 47.27203124999999 39.81871910373459 47.84273437499999 Q 40.53125009038448 48.413437499999986 41.25491393028395 49.023749999999986 Q 41.96530877400295 49.634062499999985 42.675037390803936 50.28398437499999 Q 43.360211588680386 50.933906249999986 44.02924158964102 51.62343749999999 Q 44.66012069857949 52.31296874999999 45.255858326404976 53.04210937499998 Q 45.79797519381754 53.771249999999974 46.28300020346491 54.53999999999998 L 46.28300020346491 54.53999999999998 Q 46.64124402449805 55.19531249999998 46.91791170722158 55.833281249999985 Q 47.14151331832149 56.47124999999998 47.285367988468735 57.09187499999998 Q 47.37606525047924 57.71249999999998 47.390765647228946 58.315781249999986 Q 47.35389191066466 58.91906249999998 47.24627690735356 59.50499999999998 Q 47.09001476816659 60.09093749999998 46.86936013098144 60.659531249999986 Q 46.60399927524878 61.22812499999998 46.28129774024432 61.77937499999998 Q 45.91853182599547 62.33062499999998 45.50582634798864 62.864531249999985 Q 45.05811453161655 63.39843749999998 44.56790554417131 63.91499999999999 Q 44.04791556042635 64.4315625 43.492654926344784 64.93078125 Q 42.9127969505719 65.42999999999999 42.30447426528734 65.911875 Q 41.676528339922555 66.39375 41.0263495183043 66.85828125 Q 40.36118419542267 67.3228125 39.67933785092603 67.76999999999998 Q 38.986713868123545 68.2171875 38.282217819210885 68.64703125 Q 37.57066799190646 69.076875 36.85128618099631 69.489375 Q 36.12806111632416 69.90187499999999 35.40028014156816 70.29703124999999 Q 34.671348686965345 70.69218749999999 33.94040285081798 71.07 Q 33.20987120525069 71.4478125 32.491418461481395 71.80201171875 Q 31.775610862224504 72.15621093749999 31.072850856622512 72.48679687499998 Q 30.373786812913405 72.81738281249999 29.688052609075164 73.12435546875 Q 29.006598885179045 73.431328125 28.338204522316882 73.7146875 Q 27.674296972779253 73.998046875 27.022753113087195 74.25779296875 Q 26.375607941263084 74.51753906249999 25.739823429941247 74.753671875 Q 25.108131909140113 74.9898046875 24.4865966551274 75.20232421875 Q 23.868699730755964 75.41484374999999 23.25964643035376 75.60374999999999 Q 22.65368752619862 75.79265625 22.055231399712905 75.95794921875 Q 21.45928720062684 76.12324218750001 20.869544125294517 76.264921875 Q 20.281734142187485 76.40660156250001 19.698918390428425 76.52466796875001 Q 19.408031182904566 76.58370117187499 19.118188808825927 76.6368310546875 Q 18.82863259159208 76.6899609375 18.539998069300005 76.7371875 Q 18.251592603088326 76.78441406249999 17.9639971131088 76.8257373046875 Q 17.67657896563267 76.867060546875 17.38987132331632 76.90248046874999 Q 17.103295214054697 76.93790039062499 16.817343092782274 76.9674169921875 Q 16.53148303543054 76.99693359375 16.24617399446532 77.02054687500001 Q 15.960924248940893 77.04416015625 15.676166577006686 77.0618701171875 Q 15.391442421458962 77.079580078125 15.1071658055941 77.09138671875 Q 14.822904137275437 77.103193359375 14.53906016484845 77.1090966796875 Q 14.255219936986407 77.115 13.971782436986405 77.115 L 13.971782436986405 77.115 L 13.346157436986402 77.115 L 12.720532436986403 77.115 L 12.094907436986404 77.115 L 11.469282436986404 77.115 L 10.843657436986405 77.115 L 10.218032436986405 77.115 L 9.592407436986406 77.115 L 8.966782436986406 77.115 L 8.341157436986407 77.115 L 7.715532436986407 77.115 L 7.0899074369864055 77.115 L 6.464282436986406 77.115 L 5.838657436986407 77.115 L 5.213032436986407 77.115 L 4.587407436986408 77.115 L 3.9617824369864065 77.115 L 3.3361574369864053 77.115 L 2.710532436986406 77.115 L 2.0849074369864065 77.115 L 1.459282436986407 77.115 L 0.8336574369864067 77.115 L 0.2080324369864064 77.115 L -0.41759256301359304 77.115 L -1.0432175630135934 77.115 L -1.6688425630135937 77.115 L -2.294467563013593 77.115 L -2.9200925630135934 77.115 L -3.5457175630135933 77.115 L -4.171342563013593 77.115 L -4.7969675630135935 77.115 L -5.422592563013593 77.115 L -6.048217563013593 77.115 L -5.132698113916178 75.910078125 L -4.084986212016532 74.70515625 L -2.932065639151851 73.500234375 L -1.7036298226444984 72.2953125 L -0.43131708216380155 71.090390625 L 0.852104214043576 69.88546875 L 2.113579597283255 68.680546875 L 3.320619815049206 67.47562500000001 L 4.442137590537699 66.27070312500001 L 5.449248274327946 65.06578125 L 6.316013767474945 63.86085937499999 L 7.020110556302172 62.65593749999999 L 7.543404653682502 61.451015625 L 7.872418639215512 60.24609375 L 7.9986787696986 59.041171875 L 7.918933220074207 57.83624999999999 L 7.635235834065644 56.63132812499999 L 7.154893227506869 55.42640624999999 L 6.490276606718055 54.221484374999996 L 5.658503148537839 53.0165625 L 4.680995148057858 51.811640625 L 3.5829282881936653 50.60671875 L 2.392583240889094 49.40179687499999 L 1.140617299441323 48.19687499999999 L -0.14072519897032046 46.991953124999995 L -1.4184433250128716 45.78703124999999 L -2.6596294949316057 44.58210937499999 L -3.8323170041699086 43.37718749999999 L -4.9063033286797655 42.172265624999994 L -5.85392798982753 40.96734375 L -6.650784949012676 39.762421874999994 L -7.276351184302228 38.5575 L -7.714515260112447 37.352578125 L -7.953992276644891 36.14765625 L -7.988614512069328 34.942734375 L -7.817490271974618 33.737812500000004 L -7.445026854925758 32.532890625 L -6.880817042650026 31.327968749999997 L -6.139392038293308 30.123046875 L -5.2398472158128335 28.918124999999996 L -4.205350319317082 27.713203124999996 L -3.0625447786608766 26.50828125 L -1.840863508880785 25.303359375 L -0.571770866541436 24.098437499999996 L 0.7120477136207567 22.893515624999996 L 1.9775275308776203 21.688593749999995 L 3.1920761986710224 20.483671875 L 4.324413060340487 19.27875 L 5.3453748212950805 18.073828125 L 6.2286666486023945 16.868906250000002 L 6.951539393452114 15.663984374999998 L 7.495375494654247 14.459062499999998 L 7.846168473248848 13.254140625 L 7.994883668860999 12.049218749999998 L 7.937690927049386 10.844296874999998 L 7.676063244794304 9.639375 L 7.216738833514128 8.434453125000001 L 6.571547576675887 7.229531249999999 L 5.757106351577853 6.024609374999999 L 4.794391062280519 4.8196875 L 3.7081964059622297 3.6147656249999995 L 2.5264972863973014 2.40984375 L 1.2797283213291772 1.204921875 L 0 0 L 0 0 Z M 8.13664206744057 29.594999999999985 L 8.659142067440571 29.594999999999985 L 9.18164206744057 29.594999999999985 L 9.70414206744057 29.594999999999985 L 10.22664206744057 29.594999999999985 L 10.749142067440571 29.594999999999985 L 11.271642067440572 29.594999999999985 L 11.794142067440573 29.594999999999985 L 12.31664206744057 29.594999999999985 Q 12.747892067440572 29.594999999999985 13.172292716457438 29.561249999999983 Q 13.596809566506959 29.527499999999982 14.014939830874775 29.459999999999987 Q 14.433528759520298 29.392499999999988 14.846638085674636 29.291249999999984 Q 15.260755965626554 29.189999999999984 15.67070724932786 29.054999999999986 Q 16.082391657085275 28.919999999999987 16.49156854562569 28.751249999999985 Q 16.903329253738484 28.58249999999999 17.314502949014464 28.37999999999999 Q 17.729170526879507 28.177499999999984 18.14532024500121 27.941249999999986 Q 18.5658457261772 27.704999999999988 18.989926686341764 27.434999999999988 Q 19.850617045723602 26.89499999999999 20.695729831374756 26.30062499999999 Q 21.55877535203142 25.706249999999994 22.40529235229334 25.05749999999999 Q 23.263659139997984 24.40874999999999 24.09925060297467 23.705624999999994 Q 24.936187998256287 23.002499999999998 25.73753366960767 22.244999999999997 L 25.73753366960767 22.244999999999997 Q 26.16064708096906 21.839999999999996 26.526932615961528 21.460312499999997 Q 26.887548918852687 21.080624999999998 27.190844335035077 20.726249999999993 Q 27.776882807166377 20.01749999999999 28.136598395410626 19.40999999999999 Q 28.468733676688547 18.802499999999988 28.585440851921 18.29624999999999 Q 28.678616940368713 17.78999999999999 28.57123672336634 17.38499999999999 Q 28.511183816470357 17.18249999999999 28.403873348921234 17.005312499999988 Q 28.293138103215046 16.82812499999999 28.136963567191 16.67624999999999 Q 27.978182944501267 16.52437499999999 27.775617080329493 16.397812499999986 Q 27.571191309196177 16.271249999999988 27.324421803019327 16.169999999999987 Q 27.07643692708372 16.068749999999987 26.78730045190743 15.992812499999987 Q 26.497469816160763 15.916874999999987 26.167403245242237 15.866249999999985 Q 25.837024925628665 15.815624999999986 25.46703096332891 15.790312499999985 Q 25.09695858955716 15.764999999999986 24.68758358955716 15.764999999999986 L 24.68758358955716 15.764999999999986 L 23.71508358955716 15.764999999999986 L 22.742583589557164 15.764999999999986 L 21.770083589557164 15.764999999999986 L 20.797583589557163 15.764999999999986 L 20.285799814997905 16.629374999999985 L 19.689290099066838 17.493749999999984 L 19.01596885322124 18.358124999999987 L 18.27476961406618 19.222499999999986 L 17.475526514380757 20.086874999999985 L 16.62884380515429 20.951249999999987 L 15.745955159796642 21.815624999999986 L 14.838574627255719 22.679999999999986 L 13.918741211576311 23.544374999999985 L 12.998659139997994 24.408749999999984 L 12.090535938893693 25.273124999999983 L 11.206420465935766 26.137499999999985 L 10.35804304745732 27.001874999999988 L 9.55665984204484 27.866249999999987 L 8.812903495325369 28.730624999999982 L 8.13664206744057 29.594999999999985 L 8.13664206744057 29.594999999999985 Z M 16.090984759128073 44.81999999999999 L 15.514734759128077 44.81999999999999 L 14.938484759128075 44.81999999999999 L 14.362234759128073 44.81999999999999 L 13.785984759128075 44.81999999999999 L 13.209734759128075 44.81999999999999 L 12.633484759128075 44.81999999999999 L 12.057234759128075 44.81999999999999 L 11.480984759128075 44.81999999999999 L 12.529314009206068 45.832499999999996 L 13.60258609498967 46.845 L 14.681270322006966 47.857499999999995 L 15.745737509224954 48.87 L 16.776617187883367 49.88249999999999 L 17.755150092454084 50.894999999999996 L 18.663529529328812 51.907500000000006 L 19.485225411234087 52.92 L 20.205285060809846 53.9325 L 20.81060530952717 54.94500000000001 L 21.29017094046953 55.95750000000001 L 21.63525513595367 56.970000000000006 L 21.83957828237709 57.9825 L 21.899422242466688 58.995000000000005 L 21.81369801547793 60.007500000000014 L 21.583965554109053 61.02000000000001 L 22.196465554109054 61.02000000000001 L 22.80896555410905 61.02000000000001 L 23.42146555410905 61.02000000000001 L 24.033965554109052 61.02000000000001 L 24.646465554109053 61.02000000000001 L 25.258965554109054 61.02000000000001 L 25.87146555410905 61.02000000000001 L 26.48396555410905 61.02000000000001 Q 26.93396555410905 61.02000000000001 27.36090929712887 60.983671875000006 Q 27.78767250906649 60.947343750000016 28.190656357298124 60.874687500000014 Q 28.59291517645786 60.802031250000006 28.969939938044952 60.69304687500001 Q 29.345323257708394 60.5840625 29.693271326551987 60.438750000000006 Q 30.038278950762848 60.29343750000001 30.35288642585639 60.11179687500001 Q 30.662862372210853 59.93015625000001 30.938696359305276 59.712187500000006 Q 31.2078128973757 59.49421875 31.43826804241114 59.23992187499999 Q 31.659536173654608 58.985625 31.83686831698344 58.69499999999999 Q 32.00232727998365 58.40625 32.13122792458126 58.0978125 Q 32.246678598332515 57.78937500000001 32.32226026487726 57.46125000000001 Q 32.38281461167394 57.13312500000001 32.40015452912519 56.7853125 Q 32.4009747786124 56.4375 32.35529117395858 56.07000000000001 Q 32.29175900682472 55.70250000000001 32.178599911593565 55.315312500000005 Q 32.046519589376786 54.92812500000001 31.86198572210179 54.52125000000001 Q 31.657820599223793 54.114375 31.398820647422404 53.68781250000001 Q 31.11996031720374 53.26125000000001 30.78449446426456 52.81500000000001 L 30.78449446426456 52.81500000000001 Q 30.473797791181354 52.423125000000006 30.13574291220555 52.042265625000006 Q 29.785111038855383 51.661406250000006 29.410234760490937 51.29156250000001 Q 28.63052807103896 50.551875 27.77047239189587 49.85625 Q 27.33088142245272 49.508437500000014 26.874729991286955 49.171640625000016 Q 26.41422908304977 48.834843750000005 25.939132100009083 48.509062500000006 Q 25.461263570243577 48.18328125000001 24.97046330959641 47.868515625 Q 24.478266547423843 47.55375 23.974511203874798 47.25 Q 23.470535258479597 46.94625 22.969011796603155 46.680468749999996 Q 22.46808190575223 46.4146875 21.969990639528962 46.186875 Q 21.472819068599478 45.959062499999995 20.978330481360878 45.76921874999999 Q 20.484762652007042 45.579375 19.99340691529641 45.427499999999995 Q 19.502786843741756 45.27562499999999 19.013780931700254 45.16171874999999 Q 18.525252289670203 45.04781249999999 18.037761690424357 44.971875 Q 17.550503196186646 44.895937499999995 17.063838474451043 44.85796874999999 Q 16.577234759128075 44.81999999999999 16.090984759128073 44.81999999999999 L 16.090984759128073 44.81999999999999 L 16.090984759128073 44.81999999999999 Z" fill="black" stroke="black" />
				</svg>