<svg
					xmlns="http://www.w3.org/2000/svg" xmlns:xlink="http://www.w3.org/1999/xlink"
					style="
						overflow: visible;
						height: 100;
					"
					viewBox="-7.352235164896245 0 70.60666731869696 86.19000000000001"
				>
					<path d="M 51.40744971455648 38.235000000000014 L 51.40744971455648 38.235000000000014 Q 51.688762165879965 38.87062500000001 52.00624639319693 39.50343750000001 Q 52.37211431275992 40.136250000000004 52.76824411480147 40.76625 Q 53.20667096692671 41.39625000000001 53.66834317125932 42.02343750000001 Q 54.16517540621643 42.650625000000005 54.6773622002992 43.275000000000006 Q 55.21675401600872 43.899375 55.762983599295055 44.5209375 Q 56.32789158090227 45.1425 56.890750822122065 45.761250000000004 Q 57.463442913153344 46.38 58.02508666309633 46.99593750000001 Q 58.587650359230054 47.611875000000005 59.13030272058766 48.22500000000001 Q 59.6670861591045 48.84 60.16307374193859 49.43976562500001 Q 60.64352209021068 50.03953125000001 61.076959555774835 50.6240625 Q 61.48854405513776 51.208593750000006 61.84862888372855 51.77789062500001 Q 62.1819242950484 52.34718750000001 62.46088900389897 52.901250000000005 Q 62.70946432361831 53.455312500000005 62.90241377779861 53.994140625000014 Q 63.062624664034956 54.532968750000016 63.167289684504354 55.05656250000001 Q 63.23799924179795 55.58015625 63.25443215380072 56.088515625 Q 63.236684830650034 56.596875000000004 63.166920227200414 57.09 Q 63.064489948899634 57.581250000000004 62.91304601011293 58.04835937500001 Q 62.730782535971855 58.51546875000001 62.505420890155236 58.95843750000001 Q 62.25216103647582 59.40140625000001 61.961895742881175 59.82023437500002 Q 61.64687427350821 60.23906250000002 61.30088470715347 60.633750000000006 Q 60.93333103851458 61.0284375 60.54061092386458 61.39898437500001 Q 60.12943661226353 61.769531250000014 59.69853027265752 62.115937500000015 Q 59.25210084565679 62.46234375000001 58.79091849887732 62.78460937500001 Q 58.316900225412695 63.10687500000001 57.832601956259246 63.405000000000015 Q 57.337816355644385 63.701250000000016 56.84602913506012 63.96046875000001 Q 56.346776321544894 64.2196875 55.85520556666358 64.44187500000001 Q 55.35844212128859 64.6640625 54.87310842560816 64.84921875 Q 54.384352058294496 65.03437500000001 53.909940870878245 65.1825 Q 53.433440014608735 65.330625 52.97347077271619 65.44171874999999 Q 52.51237182185446 65.5528125 52.069354782501605 65.626875 Q 51.62585053663808 65.7009375 51.201417596999704 65.73796875 Q 50.77686512450283 65.77499999999999 50.371865124502825 65.77499999999999 L 50.371865124502825 65.77499999999999 Q 50.04811512450282 65.77499999999999 49.750284532554645 65.7496875 Q 49.452398203446194 65.724375 49.18020736242864 65.67375 Q 48.90779066520349 65.623125 48.660612928782925 65.54718749999999 Q 48.41291622869987 65.47125 48.189752292568606 65.37 Q 47.965639349120195 65.26875000000001 47.76507851376496 65.1421875 Q 47.56298302822459 65.015625 47.383153046160416 64.86375000000001 Q 47.20102473082306 64.711875 47.03953264403147 64.53468750000002 Q 46.87477558566925 64.35750000000002 46.72864284349608 64.15500000000002 Q 46.576799881658246 63.95250000000001 46.449210431028995 63.72820312500001 Q 46.31589568135748 63.50390625 46.204351089656434 63.2578125 Q 46.08560431348026 63.01171875 45.98576536909172 62.74382812500001 Q 45.87702888171673 62.47593750000001 45.78394721619372 62.18625 Q 45.680055987995004 61.8965625 45.58817634975653 61.585078125 Q 45.48337157822399 61.27359375 45.386561451191035 60.940312500000005 Q 45.274534513595896 60.60703125000001 45.16614824181818 60.251953125000014 Q 45.04012228200043 59.89687500000001 44.91310703138782 59.52000000000001 L 44.91310703138782 59.52000000000001 L 44.40310703138782 59.52000000000001 Q 44.168052057173085 59.8575 43.90816241066316 60.18046875 Q 43.6336540456071 60.50343750000001 43.33715570394863 60.81187500000001 Q 43.027564108947175 61.120312500000004 42.69872795002907 61.41421875 Q 42.358289237881905 61.708125 42.00121533704626 61.9875 Q 41.633966624420495 62.266874999999985 41.25252911133603 62.53171874999999 Q 40.862260600998056 62.79656249999999 40.46006847039464 63.046874999999986 Q 40.05029067635729 63.297187499999986 39.6306625985185 63.532968749999995 Q 39.20458671330872 63.76875 38.770537830723974 63.989999999999995 Q 38.33101712623856 64.21312499999999 37.895925196593524 64.40835937499999 Q 37.45680766316024 64.60359374999999 37.024611167829896 64.77093749999999 Q 36.58958938669113 64.93828124999999 36.163500344595086 65.07773437499999 Q 35.73553063116362 65.2171875 35.31807631121268 65.32874999999999 Q 34.89946245324961 65.4403125 34.49256564774198 65.523984375 Q 34.085036399075335 65.60765624999999 33.69008646223637 65.66343749999999 Q 33.29486184135106 65.71921874999998 32.91277233257746 65.747109375 Q 32.53061512450283 65.77499999999999 32.16186512450283 65.77499999999999 L 32.16186512450283 65.77499999999999 Q 31.743115124502832 65.77499999999999 31.357017422823002 65.75203124999999 Q 30.97087384636715 65.7290625 30.6171983430985 65.68312499999999 Q 30.263337166968856 65.63718749999998 29.941569116410285 65.56828124999998 Q 29.619375228942168 65.49937499999999 29.328696013537854 65.4075 Q 29.03723996114479 65.31562500000001 28.776497988539724 65.20078125 Q 28.51450326630492 65.0859375 28.28217609958733 64.948125 Q 28.047978302021725 64.8103125 27.842127630642654 64.64953125 Q 27.633627310933875 64.48874999999998 27.45184894990711 64.30499999999999 Q 27.266460656500417 64.12125 27.10583243516525 63.914531249999996 Q 26.94043311048999 63.707812499999996 26.79746428137687 63.47812499999999 Q 26.648345015989015 63.24843749999999 26.51893166942483 62.99578124999999 Q 26.3817576896041 62.743125 26.261149575868757 62.467499999999994 Q 26.130934271008893 62.191874999999996 26.0137193658282 61.893281249999994 Q 25.884819080890622 61.5946875 25.76493311654602 61.27312500000001 Q 25.631070268058807 60.95156250000001 25.501839201095898 60.60703125000001 Q 25.356161920219705 60.2625 25.21038580024634 59.89500000000001 Q 25.045655494172497 59.526562500000004 24.87512522421763 59.143652343750006 Q 24.683757400445565 58.7607421875 24.483376224734908 58.363359375 Q 24.26060004915045 57.9659765625 24.0257251556422 57.55412109375 Q 23.76712198047074 57.14226562500001 23.493565525005394 56.7159375 Q 23.195259189252962 56.289609375 22.879491017360664 55.84880859374999 Q 22.53835819419509 55.408007812499996 22.177726658687973 54.952734375000006 Q 21.791622966698863 54.49746093750001 21.38458859194742 54.027714843750005 Q 20.952584359660747 53.55796875000001 20.498959174166128 53.07375000000001 Q 20.021576756881387 52.589531250000014 19.522760058022683 52.09083984375001 Q 19.002202526114306 51.59214843750001 18.461401742806636 51.078984375 Q 17.901760692768264 50.565820312499994 17.324183991074502 50.03818359374999 Q 16.731612306902743 49.510546874999996 16.124617789137197 48.96843750000001 Q 15.507451564831204 48.42632812500001 14.880636522941776 47.86974609375001 Q 14.249449237878773 47.31316406250001 13.614662141466134 46.74210937500001 Q 12.98223377303892 46.17105468750001 12.353491724597797 45.585527343750016 Q 11.73467601440861 45.000000000000014 11.127971520095674 44.40000000000001 L 11.127971520095674 44.40000000000001 Q 10.688312766032285 43.953750000000014 10.2737041273286 43.51324218750001 Q 9.871870651145649 43.07273437500001 9.497293927151944 42.63796875000001 Q 9.137850575708072 42.203203125000016 8.807439992037903 41.77417968750001 Q 8.494153482456785 41.34515625000001 8.211248023985192 40.921875000000014 Q 7.94708841891378 40.49859375000001 7.714240936671791 40.081054687500014 Q 7.501397598648729 39.66351562500001 7.320397380676101 39.25171875000001 Q 7.160307521467929 38.83992187500001 7.03221441904298 38.433867187500006 Q 6.925602311669583 38.02781250000001 6.85079049153332 37.627500000000005 Q 6.79771541586599 37.2271875 6.775924835727237 36.832617187500006 Q 6.775835875795929 36.438046875000005 6.806229647274663 36.04921875000001 Q 6.858025542453024 35.660390625000005 6.939251445435286 35.277304687500006 Q 7.041343811287599 34.89421875000001 7.171598349385105 34.516875000000006 Q 7.321976720261172 34.139531250000005 7.499070252026653 33.76792968750001 Q 7.6953675500239465 33.39632812500001 7.916789188603189 33.030468750000004 Q 8.156346386374057 32.664609375 8.419327525801172 32.3044921875 Q 8.69925643858262 31.944375 9.000831933015991 31.590000000000003 Q 9.318075243583266 31.235625000000006 9.652734576577064 30.890566406250002 Q 10.00142792499247 30.545507812500002 10.365151727951407 30.209765625000006 Q 10.741294580841267 29.874023437500007 11.130183352257932 29.547597656250005 Q 11.529921235233637 29.221171875000003 11.940246669683479 28.904062500000006 Q 12.359917728589904 28.586953125000008 12.788163490398839 28.279160156250008 Q 13.224334757814272 27.971367187500004 13.667227392866488 27.672890625000008 Q 14.116721523199333 27.37441406250001 14.571252331369427 27.085253906250006 Q 15.031165675169106 26.796093750000004 15.494604449681258 26.516250000000003 Q 15.9623174025237 26.23640625 16.4322189871234 25.96587890625 Q 16.90539957669563 25.6953515625 17.379604202909817 25.434140625 Q 17.856205875720036 25.1729296875 18.332834226581454 24.921035156250003 Q 18.811088768849356 24.669140625000004 19.288532677860537 24.426562500000006 Q 19.76693915900922 24.18398437500001 20.243848798978085 23.950722656250008 Q 20.721159365687612 23.717460937500004 21.196427716022583 23.493515625000004 Q 21.671630994409636 23.269570312500008 22.144376301601678 23.054941406250006 Q 22.616679088582142 22.840312500000003 23.086225956432987 22.635000000000005 Q 23.556647418559482 22.428750000000008 24.019617094846467 22.235390625000008 Q 24.48165121289409 22.042031250000008 24.936211876293566 21.861562500000005 Q 25.389731400135314 21.681093750000002 25.835856548860768 21.513515625000004 Q 26.280904412172212 21.3459375 26.718716417230404 21.191250000000004 Q 27.1554705807643 21.036562500000002 27.585207075959215 20.894765624999998 Q 28.013947969063544 20.75296875 28.43593096494106 20.6240625 Q 28.857011737721766 20.49515625 29.27161961058988 20.379140624999998 Q 29.68543930294055 20.263125000000002 30.09308171668008 20.160000000000004 Q 30.50006136681837 20.056875 30.901157113362274 19.966640625000004 Q 31.301718765653693 19.876406250000002 31.69667645774588 19.7990625 Q 32.091224985354486 19.72171875 32.48042650032716 19.657265625 Q 32.869334130396275 19.5928125 33.25312068400093 19.541249999999998 Q 33.63671409941016 19.4896875 34.015374822002016 19.451015625 Q 34.393924712100144 19.412343749999998 34.767687603588215 19.386562500000004 Q 35.1414005445902 19.360781250000002 35.51042569751523 19.347890624999998 Q 35.87943825952039 19.335 36.243813259520394 19.335 L 36.243813259520394 19.335 Q 36.68506325952039 19.335 37.10937744839239 19.351171875000002 Q 37.53367183438913 19.36734375 37.94095146959489 19.3996875 Q 38.3481527097295 19.43203125 38.738183774053006 19.480546875 Q 39.12804152743288 19.529062500000002 39.50050214653626 19.59375 Q 39.87266237799839 19.658437499999998 40.22713451670745 19.739296875 Q 40.58115296670129 19.82015625 40.917138599499935 19.917187499999997 Q 41.252498827462475 20.014218749999998 41.56944082839979 20.127421875 Q 41.88557708981255 20.240624999999998 42.182885117407395 20.369999999999997 Q 42.48104581572203 20.4975 42.75793342453302 20.627578125 Q 43.033903374693715 20.757656250000004 43.28860468707248 20.8903125 Q 43.542433222705306 21.02296875 43.77500828724439 21.158203125 Q 44.00676395222732 21.293437500000003 44.21729272099139 21.431250000000002 Q 44.42706442194148 21.5690625 44.61564789918328 21.709453125 Q 44.80354604433978 21.849843749999998 44.97030741722682 21.9928125 Q 45.13646503347995 22.13578125 45.28155077619576 22.281328124999998 Q 45.426124595316516 22.426874999999995 45.549705537201476 22.574999999999996 L 45.549705537201476 22.574999999999996 L 44.024948622228735 23.965312499999996 L 42.51492767439659 25.355624999999993 L 41.06984251089763 26.745937499999997 L 39.7376678855166 28.136249999999997 L 38.5625096050576 29.526562499999994 L 37.58309321754893 30.916874999999997 L 36.83143705822608 32.3071875 L 36.33175512216435 33.69749999999999 L 36.099627357285215 35.08781249999999 L 36.14146580814167 36.47812499999999 L 36.454294903384564 37.8684375 L 37.025853415490865 39.25874999999999 L 37.835014599042985 40.64906249999999 L 38.852510111270284 42.03937499999999 L 40.04193290928324 43.42968749999999 L 41.360984759128065 44.81999999999999 Q 41.63701109110627 45.09 42.14784433214451 45.5925 Q 42.66595670636205 46.095000000000006 43.42659776117853 46.83 Q 44.182259921824404 47.5575 44.959382252345684 48.3 Q 45.34383318445289 48.671249999999986 45.73063896210159 49.046249999999986 Q 46.112375448579364 49.421249999999986 46.49433065861386 49.79999999999998 L 46.49433065861386 49.79999999999998 Q 47.10255465826895 50.41874999999999 47.63599910143137 50.947499999999984 Q 48.150047107537326 51.47624999999999 48.59745433766984 51.91499999999999 Q 49.0285422464332 52.353749999999984 49.40367523545737 52.702499999999986 Q 49.767097858462144 53.05124999999999 50.08537622526466 53.30999999999999 Q 50.69072214822485 53.81999999999999 51.16269274032478 54.074999999999996 Q 51.62726831204505 54.33 51.987268312045046 54.33 L 51.987268312045046 54.33 Q 52.31226831204504 54.33 52.526368911404624 54.19125 Q 52.738254747922255 54.052499999999995 52.83050350494133 53.775000000000006 Q 52.914264741013106 53.49750000000001 52.86206821730493 53.081250000000004 Q 52.79229700861722 52.665000000000006 52.56530640643505 52.110000000000014 Q 52.31462378824941 51.55875000000002 51.92591245453296 50.911875000000016 Q 51.50842300795456 50.26500000000001 50.945125240625 49.52250000000001 Q 50.653777722064156 49.15125000000002 50.326057155520154 48.75609375000002 Q 49.9935427406634 48.36093750000001 49.62578878944886 47.94187500000001 Q 49.25531692925084 47.52281250000001 48.8517678126326 47.07984375000001 Q 48.44838254004828 46.636875 48.015258474807716 46.17 Q 47.58927959528071 45.705 47.151428668739364 45.230624999999996 Q 46.721568611924994 44.756249999999994 46.2843845898566 44.2725 Q 45.85954698883913 43.78875 45.43232434945512 43.295624999999994 Q 45.02199212735445 42.802499999999995 44.61452136964765 42.3 Q 44.228580682164 41.7975 43.85095167048874 41.285624999999996 Q 43.499478375799164 40.77375 43.161846447230864 40.2525 Q 42.85485629370989 39.73125 42.567173132276196 39.200625 Q 42.31433846345655 38.67 42.08605146855705 38.13 L 42.08605146855705 38.13 Q 41.83167297482239 37.374375 41.64109939076373 36.638085937499994 Q 41.52641976783637 35.901796875 41.47021430632604 35.18484375 Q 41.48704228698748 34.467890625 41.554213550850186 33.7702734375 Q 41.68903520371093 33.072656249999994 41.86406119050143 32.394375000000004 Q 42.09948582581762 31.716093750000006 42.363732183158035 31.057148437500004 Q 42.67988811884117 30.398203125000006 43.012937733542614 29.758593750000006 Q 43.38874784237403 29.118984375000007 43.76958390035639 28.498710937500004 Q 44.18387336309755 27.8784375 44.591879488441414 27.277500000000003 Q 45.02428864704673 26.676562500000006 45.44004862302625 26.094960937500005 Q 45.871741310001504 25.513359375000004 46.27763650730263 24.951093750000005 Q 46.6918082405446 24.388828125000003 47.072422958237524 23.845898437500004 Q 47.45462383680416 23.302968750000005 47.79697736092839 22.77937500000001 Q 48.13527156299961 22.25578125000001 48.42890116221885 21.75152343750001 Q 48.71388901171545 21.24726562500001 48.95081076390659 20.762343750000007 Q 49.17554088752283 20.27742187500001 49.35011568372524 19.811835937500014 Q 49.50991435993386 19.346250000000012 49.618645196192645 18.900000000000013 Q 49.71073620437942 18.454687500000013 49.7455456314713 18.037207031250013 Q 49.76370692609161 17.619726562500013 49.72696650044701 17.230078125000013 Q 49.674089520709565 16.840429687500013 49.56941697225891 16.478613281250013 Q 49.44966320031492 16.116796875000013 49.28168928653612 15.782812500000013 Q 49.10005862421567 15.448828125000013 48.87403153559278 15.142675781250013 Q 48.63599254924354 14.836523437500013 48.35744551239783 14.558203125000013 Q 48.068629532920674 14.279882812500013 47.743111013157694 14.029394531250013 Q 47.409067647527095 13.778906250000013 47.04192993445495 13.556250000000013 Q 46.66793854580701 13.333593750000013 46.26417819576971 13.138769531250013 Q 45.85510811337897 12.943945312500013 45.41925048287831 12.776953125000013 Q 44.979461870048624 12.609960937500013 44.51548156870853 12.470800781250013 Q 44.04875877643813 12.331640625000013 43.560028080707966 12.220312500000013 Q 43.31500296071822 12.164648437500013 43.06481528307984 12.115942382812513 Q 42.81429055217618 12.067236328125013 42.55879566108074 12.025488281250013 Q 42.30305302332002 11.983740234375013 42.04250529435159 11.948950195312513 Q 41.78178547065043 11.914160156250013 41.51639819258483 11.886328125000013 Q 41.250900757058204 11.858496093750013 40.98084601152405 11.837622070312513 Q 40.71072929804055 11.816748046875013 40.43613789520181 11.802832031250013 Q 40.161518950373704 11.788916015625013 39.8824803996782 11.781958007812513 Q 39.60343496345468 11.775000000000013 39.31999746345468 11.775000000000013 L 39.31999746345468 11.775000000000013 Q 38.87437246345468 11.775000000000013 38.43760808689366 11.792285156250014 Q 38.000801217724 11.809570312500014 37.57268500282677 11.844140625000012 Q 37.14439882355594 11.878710937500012 36.72446339082042 11.930566406250012 Q 36.30414560159683 11.982421875000012 35.891668882116704 12.051562500000012 Q 35.478512727079696 12.120703125000013 35.072518720922304 12.207128906250013 Q 34.66546412404898 12.293554687500013 34.26472471592201 12.397265625000012 Q 33.862460757479795 12.50097656250001 33.465499303992495 12.621972656250009 Q 33.06646883086407 12.74296875000001 32.671566416714874 12.881250000000009 Q 32.27397375991053 13.019531250000007 31.87917919555126 13.175097656250006 Q 31.4810021381627 13.330664062500007 31.084146933280906 13.503515625000007 Q 30.683154225384975 13.676367187500007 30.28187391310054 13.866503906250006 Q 29.875649757789922 14.056640625000005 29.467413053496692 14.264062500000003 Q 29.053390078827608 14.471484375000001 28.635537422183308 14.696191406250001 Q 28.211039693213788 14.9208984375 27.780832726225995 15.162890625000001 Q 27.34313032261251 15.404882812499999 26.897813782820116 15.664160156249997 Q 26.444190351324252 15.923437499999997 25.981067686229473 16.199999999999996 Q 25.50831613033612 16.477499999999996 25.027708404334142 16.767773437499997 Q 24.537671184397407 17.058046875 24.038692676845738 17.361093750000002 Q 23.530105550812657 17.664140625 23.01167449053703 17.979960937500003 Q 22.48363508802441 18.295781250000005 21.945078757842026 18.624375 Q 21.3971288543529 18.952968750000004 20.838268502453182 19.2943359375 Q 20.270479921480373 19.635703125000003 19.691718277171645 19.989843750000002 Q 19.104780360527375 20.343984375 18.50718939105178 20.710898437500006 Q 17.90249541791862 21.077812500000004 17.287901383623492 21.457500000000003 Q 16.667630730426485 21.837187500000006 16.038692997803775 22.229648437500007 Q 15.405885235004815 22.622109375000008 14.766164715374314 23.027343750000007 Q 14.124781261187547 23.43257812500001 13.478793788315858 23.85058593750001 Q 12.833762217577304 24.26859375000001 12.187011698545183 24.69937500000001 Q 11.544247378978516 25.130156250000006 10.903233194272312 25.57371093750001 Q 10.269632640235438 26.017265625000007 9.641825582709169 26.47359375000001 Q 9.025225831917782 26.929921875000012 8.419006916253846 27.399023437500013 Q 7.8281054057429165 27.86812500000001 7.25266220953788 28.35000000000001 Q 6.696754025457963 28.832812500000006 6.1648281617790905 29.324707031250007 Q 5.656808874044139 29.816601562500004 5.177776378847904 30.317578125000004 Q 4.726710665385343 30.818554687500004 4.309613523970948 31.328613281250007 Q 3.924329949301641 31.838671875000006 3.5778394439757477 32.3578125 Q 3.2666685675781313 32.876953125 2.9988102559705574 33.405175781249994 Q 2.7693017007758023 33.9333984375 2.587162378494482 34.470703125 Q 2.445787309826102 35.0080078125 2.3552113128565875 35.55439453125 Q 2.307058471590877 36.10078125 2.312342372656297 36.65625 Q 2.3608174776849307 37.21171875 2.464413866517444 37.776269531249994 Q 2.6109537682961586 38.3408203125 2.8131962887945123 38.914453124999994 Q 3.057010622453948 39.488085937499996 3.3558736683406236 40.07080078125 Q 3.6937278153077875 40.653515625 4.084635149202818 41.2453125 Q 4.5106889568576 41.837109375 4.986385899412947 42.43798828125 Q 5.4921027124438115 43.038867187499996 6.0426063320900845 43.648828124999994 Q 6.616746343421809 44.2587890625 7.229387153717187 44.877832031249994 Q 7.858097783892647 45.496875 8.517664729179868 46.125 L 8.517664729179868 46.125 Q 8.939703137820782 46.522968750000004 9.362948280648887 46.9160009765625 Q 9.786802173043043 47.309033203125004 10.209531755125944 47.69712890625 Q 10.630626028179288 48.085224609375004 11.0484697256078 48.4683837890625 Q 11.46259121644537 48.85154296875001 11.87155546527287 49.229765625000006 Q 12.671596010079544 49.986210937500005 13.441353375879064 50.722910156250016 Q 14.175504673026136 51.459609375000014 14.869740517221153 52.1765625 Q 15.51840258727998 52.893515625 16.121236641095933 53.59072265625001 Q 16.671614782880383 54.28792968750001 17.17372470685866 54.96539062500001 Q 17.619399018928558 55.642851562500006 18.017447635644842 56.300566406250006 Q 18.35768157604226 56.958281250000006 18.65353326675629 57.59625000000001 Q 18.89241317907864 58.23421875000002 19.09222646634744 58.85244140625002 Q 19.237714624787547 59.47066406250002 19.35098667603228 60.06914062500002 Q 19.413957659591727 60.667617187500014 19.452582752154708 61.246347656250016 Q 19.44589860213825 61.82507812500002 19.423288064865908 62.38406250000001 Q 19.360953126283174 62.943046875000014 19.29125014080286 63.482285156250015 Q 19.1876727953719 64.02152343750002 19.08508257403067 64.54101562500003 Q 18.954458954785252 65.06050781250002 18.832703760053082 65.56025390625003 Q 18.68852840593575 66.06000000000002 18.560427910057683 66.54000000000002 Q 18.416636211256073 67.01906250000002 18.305300543804485 67.46818359375001 Q 18.18203497145778 67.91730468750004 18.097535548709104 68.33648437500003 Q 18.00533745796861 68.75566406250002 17.95677007059254 69.14490234375002 Q 17.90380763538896 69.53414062500002 17.898027088551807 69.89343750000002 Q 17.890310723025763 70.25273437500002 17.932181094663765 70.58208984375001 Q 17.973838103400304 70.9114453125 18.066524721900397 71.21085937500001 Q 18.160103038515803 71.51027343750002 18.305379876314987 71.77974609375 Q 18.452157539251274 72.04921875000001 18.650710264652208 72.28875000000001 Q 18.850993575103484 72.52828124999999 19.102704359354934 72.73787109375 Q 19.35610313937547 72.94746093750001 19.660308247588837 73.127109375 Q 19.81295470466241 73.21693359375 19.978161996023182 73.2992724609375 Q 20.143698517090552 73.381611328125 20.321696223893106 73.45646484375 Q 20.499981658780065 73.53131835937499 20.690628176180496 73.5986865234375 Q 20.881519125297974 73.66605468750001 21.084673390191327 73.7259375 Q 21.288028767014087 73.7858203125 21.503554508361518 73.83821777343749 Q 21.71923958066299 73.890615234375 21.947009056447214 73.93552734375 Q 22.17489898000669 73.980439453125 22.414796215096523 74.0178662109375 Q 22.654779074484214 74.05529296875 22.90670261405765 74.085234375 Q 23.158681985082602 74.11517578124999 23.422547177787408 74.1376318359375 Q 23.686444225391487 74.160087890625 23.96218504924361 74.17505859375 Q 24.23794017317076 74.190029296875 24.525510615425638 74.1975146484375 Q 24.813084654007906 74.205 25.112459654007907 74.205 L 25.112459654007907 74.205 Q 25.36433465400791 74.205 25.624469787269838 74.1997265625 Q 25.884606706507746 74.194453125 26.15301089298386 74.18390624999999 Q 26.42142219357224 74.17335937499999 26.698114939928175 74.15753906249999 Q 26.974823581160113 74.14171875 27.259834711975365 74.120625 Q 27.544873821313505 74.09953125 27.83824305939643 74.0731640625 Q 28.131655451806836 74.046796875 28.43343184563505 74.01515625 Q 28.735269388997892 73.983515625 29.045510584657844 73.94660156249999 Q 29.35583340837937 73.90968749999999 29.674604762813615 73.86749999999999 Q 29.99348030623652 73.8253125 30.320853838133694 73.7778515625 Q 30.648355734916755 73.730390625 30.984408909216228 73.67765625 Q 31.32061570354756 73.624921875 31.665430045302365 73.56691406249999 Q 32.010423735648104 73.50890624999998 32.364083268913866 73.44562499999998 Q 32.717947675004424 73.38234374999999 33.080537182525035 73.31378906249998 Q 33.44335613147027 73.245234375 33.81495923123272 73.17140624999999 Q 34.18681455905561 73.09757812499998 34.567511594313 73.01847656249998 Q 34.94848095982525 72.93937499999998 35.338346699960304 72.85499999999999 Q 35.728501208795514 72.770625 36.12098449226128 72.68220703125 Q 36.51376024690152 72.59378906250001 36.90889292134664 72.501328125 Q 37.30431704463559 72.4088671875 37.702119899964 72.31236328125 Q 38.100207753407155 72.21585937500001 38.50068874932206 72.1153125 Q 38.90144212925124 72.014765625 39.30459454414034 71.91017578125 Q 39.70799980146518 71.8055859375 40.113800307774284 71.69695312500001 Q 40.51982639704973 71.5883203125 40.92823306962654 71.47564453125001 Q 41.33682953455859 71.36296875000002 41.74777979991522 71.24625000000002 Q 42.15887470395272 71.12953125000001 42.57228323999628 71.00876953125002 Q 42.98578105231508 70.88800781250004 43.40153764982715 70.76320312500002 Q 43.8173170988012 70.63839843750002 44.23528449780611 70.50955078125001 Q 44.65319640597314 70.38070312500003 45.07320812211753 70.24781250000001 Q 45.49307323867974 70.11492187500002 45.91493139684074 69.97798828125002 Q 46.336538245881435 69.84105468750002 46.76001144041995 69.70007812500002 Q 47.18311420525443 69.55910156250002 47.60793540861593 69.41408203125002 Q 48.032251875013294 69.26906250000002 48.45811641873706 69.12000000000002 L 48.45811641873706 69.12000000000002 L 47.66154956843958 69.8765625 L 46.856223223320605 70.63312500000002 L 46.05032524883568 71.38968750000002 L 45.25204932227603 72.14625000000001 L 44.46951162650675 72.90281250000001 L 43.71066833160185 73.65937500000001 L 42.983234703351684 74.41593750000001 L 42.29460666107772 75.17250000000001 L 41.65178558228764 75.92906250000001 L 41.06130711869211 76.68562500000002 L 40.52917474732085 77.44218750000002 L 40.060798732332906 78.19875000000002 L 39.66094111810515 78.9553125 L 39.33366731286187 79.711875 L 39.08230475510139 80.46843750000002 L 38.90940908306401 81.22500000000001 Q 38.65115826869543 81.373125 38.39358517912233 81.51708984375 Q 38.13893607863014 81.6610546875 37.88464109930249 81.800859375 Q 37.63311487201395 81.9406640625 37.381622471832 82.07630859375 Q 37.132743263323455 82.21195312500001 36.88358229184136 82.3434375 Q 36.63687968257038 82.47492187499999 36.38958565584248 82.60224609375001 Q 36.144596827209874 82.7295703125 35.8987139391569 82.852734375 Q 35.65498557090882 82.97589843749998 35.410068444691625 83.09490234375 Q 35.16715835861989 83.21390625 34.92277355339917 83.32874999999999 Q 34.68025211906365 83.44359374999999 34.435979408149805 83.55427734375 Q 34.19343072686006 83.6649609375 33.94886416364528 83.77148437499999 Q 33.70588704722686 83.87800781249999 33.46063583546912 83.98037109375 Q 33.216844596429866 84.08273437499999 32.97053378145226 84.18093749999998 Q 32.725558851081125 84.27914062499998 32.47782984828393 84.37318359374999 Q 32.231318238983214 84.46722656249999 31.981829215763717 84.55710937499998 Q 31.73344484355758 84.64699218749999 31.481870970315434 84.73271484374999 Q 31.23129485301385 84.81843749999999 30.97732843840738 84.89999999999999 Q 30.72392979022365 84.98062499999999 30.46829433500602 85.0562109375 Q 30.2134234732935 85.13179687499999 29.956106357672372 85.20234375 Q 29.69945049506779 85.27289062499999 29.44015468492523 85.33839843749999 Q 29.181424994579228 85.40390624999999 28.91987716723295 85.464375 Q 28.658808383437922 85.52484375 28.394758501956094 85.58027343750001 Q 28.131108474974038 85.635703125 27.86432932686602 85.68609375000001 Q 27.597878549468973 85.736484375 27.328165266360205 85.7818359375 Q 27.05871638801225 85.82718750000001 26.785885961344583 85.8675 Q 26.513263304401036 85.9078125 26.237154110666218 85.94308593750002 Q 25.961203201449077 85.97835937500003 25.6816745489703 86.00859375000002 Q 25.402261675104185 86.03882812500001 25.11919338292935 86.06402343750001 Q 24.836205186890556 86.08921875000001 24.549497204954246 86.10937500000001 Q 24.262840322397505 86.12953125000001 23.972412400744084 86.14464843750001 Q 23.68201315082531 86.159765625 23.387804564360714 86.16984375000001 Q 23.09360869796545 86.179921875 22.79557803191637 86.18496093750001 Q 22.49755054242881 86.19000000000001 22.195675542428816 86.19000000000001 L 22.195675542428816 86.19000000000001 Q 21.907863042428815 86.19000000000001 21.6202286450568 86.18525390625001 Q 21.332597065556605 86.18050781250003 21.045154864026017 86.17101562500001 Q 20.757723945534526 86.16152343750001 20.47050499028928 86.14728515625 Q 20.183311464997967 86.13304687500002 19.8963638668085 86.11406250000002 Q 19.60946158397626 86.09507812500001 19.32285067228639 86.07134765625001 Q 19.03631077785199 86.04761718750001 18.75011931171237 86.019140625 Q 18.464030479051928 85.9906640625 18.178358906996067 85.95744140625001 Q 17.89282761475502 85.92421875000001 17.607794378973693 85.88625000000002 Q 17.322945230891804 85.84828125000001 17.038687110036488 85.80556640625001 Q 16.754663190647033 85.76285156250002 16.4713356745392 85.71539062500001 Q 16.188298933556165 85.6679296875 15.906076621994169 85.61572265625001 Q 15.624208279101712 85.56351562500001 15.343285295838994 85.50656250000002 Q 15.062786256464783 85.44960937500001 14.783376668281544 85.38791015625002 Q 14.504467939769691 85.32621093750001 14.226806169376601 85.25976562500001 Q 13.94972926577891 85.1933203125 13.674070486077769 85.12212890625001 Q 13.399087808557235 85.0509375 13.125708304545173 84.97500000000001 Q 12.581276030077612 84.823125 12.044473007772485 84.65226562500001 Q 11.511646670323671 84.48140625 10.988271473622 84.29156250000001 Q 10.469870828540886 84.10171875 9.962973527664229 83.892890625 Q 9.462166246105056 83.68406250000001 8.975141661994229 83.45625000000001 Q 8.495433501425182 83.2284375 8.032004911377959 82.98164062500001 Q 7.577217710572057 82.73484375000001 7.141406611711874 82.4690625 Q 6.715640992308275 82.20328125 6.31171972174585 81.918515625 Q 5.919299272346009 81.63374999999999 5.551723246688017 81.33 Q 5.197741999022712 81.02625 4.8728156747717986 80.70603515625 Q 4.562070269182218 80.3858203125 4.283003004197045 80.04914062499999 Q 4.019224135959676 79.7124609375 3.7896511198724916 79.35931640624999 Q 3.5763110060837633 79.00617187499999 3.3995266559336796 78.6365625 Q 3.239688907758521 78.266953125 3.118484992487354 77.88087890624999 Q 3.0146349968915986 77.4948046875 2.9511202995794994 77.092265625 Q 2.9049785473807797 76.6897265625 2.9003833119856033 76.27072265625 Q 2.912705656115218 75.85171875 2.9671757449644245 75.41624999999999 Q 3.0375463494530424 74.98078124999998 3.1499339293426263 74.52884765625 Q 3.276558635131846 74.0769140625 3.4442182591155244 73.608515625 Q 3.623728179526112 73.14011718749998 3.8423292540867098 72.65525390624998 Q 4.069606521151611 72.170390625 4.332975226468159 71.6690625 Q 4.601014804821219 71.16773437500001 4.901020415006458 70.64994140625001 Q 5.200843611383037 70.1321484375 5.527345650905559 69.597890625 Q 5.847982167639493 69.0636328125 6.188855714717061 68.51291015625 Q 6.517411586792829 67.9621875 6.8586680421607324 67.39500000000001 Q 7.179871299089447 66.82781250000002 7.503663934537467 66.24755859375001 Q 7.800757899123602 65.6673046875 8.091901306241946 65.07398437500001 Q 8.348999593119686 64.48066406250001 8.591360015983026 63.87427734375001 Q 8.79251275750514 63.26789062500001 8.970193456401388 62.6484375 Q 9.09998595942836 62.02898437499999 9.197972217335181 61.396464843749996 Q 9.242201106860492 60.763945312500006 9.24707428645673 60.118359375000004 Q 9.193482229700772 59.4727734375 9.094180106218193 58.81412109375 Q 8.9332228812505 58.155468750000004 8.721816009710034 57.48375 Q 8.447428265580012 56.81203124999999 8.119874822274335 56.127246093749996 Q 7.730193855890275 55.44246093749999 7.2870287622165435 54.74460937499999 Q 6.785029595130279 54.0467578125 6.231938420177588 53.335839843749994 Q 5.625929064150629 52.624921875 4.974153914228177 51.90093749999999 Q 4.278077689686199 51.176953125 3.544601764557675 50.43990234375 Q 2.778094611955301 49.702851562499994 1.9855550565437252 48.95273437499999 Q 1.5815593141256168 48.577675781249994 1.173641041063937 48.199350585937495 Q 0.7628143966373392 47.82102539062499 0.34999637986991106 47.43943359374999 Q -0.06369248432670965 47.05784179687499 -0.4772982347402841 46.67298339843749 Q -0.8896385567475554 46.288124999999994 -1.2996961217212404 45.89999999999999 L -1.2996961217212404 45.89999999999999 Q -1.9341270437381068 45.29249999999999 -2.5419505110903153 44.69027343749999 Q -3.133337953435183 44.08804687499999 -3.6908522480975026 43.49109375 Q -4.224779069825041 42.894140625 -4.718534124817611 42.302460937499994 Q -5.1824564047979615 41.71078125 -5.600988139811201 41.124375 Q -5.984456728505626 40.53796875 -6.31847067954729 39.956835937499996 Q -6.613279353108454 39.375703125 -6.85576196545955 38.79984375 Q -7.056024261544682 38.223984375 -7.202284925753783 37.6533984375 Q -7.3044436581325956 37.0828125 -7.352092315033357 36.517500000000005 Q -7.354867350155302 35.9521875 -7.3037338986407345 35.3921484375 Q -7.208015019536417 34.832109375 -7.060017824712421 34.27734375000001 Q -6.868710406851214 33.72257812500001 -6.627681933108323 33.173085937500005 Q -6.34551372538137 32.623593750000005 -6.016991726091884 32.079375000000006 Q -5.6502892895828705 31.535156250000007 -5.241282098106279 30.996210937500003 Q -4.797725434753323 30.457265625000005 -4.316459752087645 29.923593750000006 Q -3.8048233890881793 29.389921875000006 -3.260482588073824 28.861523437500004 Q -2.690370909757629 28.33312500000001 -2.0928313130009784 27.81000000000001 Q -1.4750402894239638 27.28687500000001 -0.8395579849766541 26.772187500000015 Q -0.18844357063389872 26.257500000000014 0.47463974503989537 25.751250000000013 Q 1.1482086379443524 25.245000000000008 1.8283407248262509 24.74718750000001 Q 2.5140174904791883 24.249375000000008 3.201265781340549 23.760000000000012 Q 3.8894130960512316 23.27062500000001 4.5746301530480835 22.78968750000001 Q 5.2564671139962 22.30875000000001 5.931416889946066 21.836250000000014 Q 6.599127453979315 21.36375000000001 7.256574034447933 20.899687500000013 Q 7.903378898517353 20.435625000000012 8.537140283864565 19.98000000000001 Q 9.157335126290816 19.52437500000001 9.76230527453853 19.07718750000001 Q 10.35126883796347 18.630000000000013 10.923411644043954 18.19125000000001 Q 11.477587503669792 17.752500000000012 12.01390665764471 17.322187500000013 Q 12.53076270345915 16.891875000000013 13.029251472389312 16.470000000000013 Q 13.507221165398123 16.048125000000013 13.966796105269502 15.634687500000013 Q 14.405205470395543 15.221250000000012 14.825627921019702 14.816250000000013 Q 15.224612038400782 14.411250000000013 15.606401010176382 14.014687500000012 Q 15.966813486309599 13.61812500000001 16.3111532365131 13.230000000000011 Q 16.63447179961813 12.841875000000012 16.942170452686856 12.464296875000013 Q 17.229681522053866 12.086718750000012 17.503639169159744 11.719687500000012 Q 17.75844224783901 11.35265625000001 18.001905829413435 10.99617187500001 Q 18.22739789648766 10.639687500000012 18.443853983764892 10.29375000000001 Q 18.643626437034392 9.947812500000008 18.836704407628247 9.61242187500001 Q 19.014450892416228 9.27703125000001 19.187837303343265 8.952187500000008 Q 19.347273009121352 8.627343750000009 19.504637515565353 8.313046875000008 Q 19.649430100450914 7.99875000000001 19.794362887338814 7.695000000000009 Q 19.928074842498994 7.391250000000008 20.06403522686324 7.0980468750000085 Q 20.190077215547312 6.804843750000009 20.320352836672647 6.522187500000008 Q 20.441947331118868 6.239531250000009 20.56962316699657 5.967421875000008 Q 20.68977755462694 5.695312500000008 20.81771388060826 5.433750000000007 Q 20.939202111732826 5.172187500000007 21.07002044326186 4.921171875000007 Q 21.195372238593727 4.670156250000007 21.33144826711322 4.429687500000007 Q 21.46294488736091 4.189218750000006 21.606407419663867 3.9592968750000055 Q 21.74608301419326 3.7293750000000054 21.898817953753337 3.510000000000005 Q 22.04846554413062 3.290625000000005 22.2139677798 3.0849609375000044 Q 22.377064937202036 2.879296875000004 22.55696150245484 2.6873437500000037 Q 22.735020417 2.4953906250000037 22.93065602454401 2.3171484375000038 Q 23.124917813295145 2.1389062500000033 23.337384648692534 1.9743750000000029 Q 23.54884966930536 1.8098437500000026 23.779017794272796 1.6590234375000026 Q 24.008476151543096 1.5082031250000023 24.257023626706637 1.371093750000002 Q 24.505085059864367 1.2339843750000017 24.77252706846394 1.1105859375000016 Q 25.03964957064245 0.9871875000000014 25.32636597715573 0.8775000000000013 Q 25.61288264205177 0.7678125000000011 25.91914355172408 0.6718359375000009 Q 26.2252872653626 0.5758593750000008 26.55127626202869 0.4935937500000007 Q 26.877201960001692 0.4113281250000006 27.223036791027564 0.3427734375000005 Q 27.568841084556063 0.2742187500000004 27.93459163448985 0.21937500000000032 Q 28.300329673661967 0.16453125000000024 28.686033123982373 0.12339843750000018 Q 29.07173261542599 0.08226562500000012 29.477405728642996 0.05484375000000008 Q 29.883078059830243 0.02742187500000004 30.308726554353775 0.01371093750000002 Q 30.734375 0 31.180000000000003 0 L 31.180000000000003 0 Q 31.440937500000004 0 31.70460937470406 0.0045410156250000125 Q 31.968281247632426 0.009082031250000025 32.2346874810594 0.01816406250000005 Q 32.50109368607549 0.027246093750000075 32.77023415925496 0.04086914062500011 Q 33.03937448860494 0.05449218750000015 33.3112487878068 0.0726562500000002 Q 33.583122632441395 0.09082031250000025 33.85772975088117 0.1135253906250003 Q 34.13233575956294 0.1362304687500004 34.409673692624985 0.16347656250000045 Q 34.96434227201207 0.2179687500000006 35.52992242509524 0.2906250000000008 Q 36.09547349291267 0.363281250000001 36.67189160724581 0.4541015625000012 Q 37.24823873855627 0.5449218750000016 37.83536664282275 0.6539062500000018 Q 38.42234745403929 0.762890625000002 39.01996072500755 0.8900390625000025 Q 39.61730178409489 1.0171875000000028 40.225040794329146 1.1625000000000032 Q 40.83231619633084 1.3078125000000036 41.44964103510505 1.4712890625000041 Q 42.06622506036051 1.6347656250000047 42.69236486264529 1.8164062500000049 Q 43.31737936050976 1.9980468750000053 43.95127684068371 2.197851562500006 Q 44.5835342735448 2.3976562500000065 45.223786591850406 2.615625000000007 Q 45.86173003749559 2.833593750000008 46.50652753140663 3.0697265625000085 Q 47.148169377956684 3.3058593750000096 47.795234167015956 3.56015625000001 Q 48.43809574103063 3.8144531250000107 49.08462275682326 4.0869140625000115 Q 49.7256776935067 4.359375000000012 50.36828128429845 4.650000000000013 Q 51.003906063549955 4.940625000000012 51.63386306745851 5.246367187500011 Q 52.255261508911495 5.552109375000011 52.86847007411226 5.872968750000011 Q 53.47135105020767 6.19382812500001 54.063208414809075 6.529804687500009 Q 54.64279060513905 6.865781250000009 55.2082143088247 7.216875000000009 Q 55.75925657497515 7.5679687500000075 56.29272705994867 7.9341796875000075 Q 56.809581692082325 8.300390625000007 57.305209718673694 8.681718750000007 Q 57.781901885964245 9.063046875000007 58.23352396533711 9.459492187500006 Q 58.66386037897432 9.855937500000005 59.065164974054944 10.267500000000004 Q 59.44287419990422 10.679062500000002 59.78756072237855 11.105742187500002 Q 60.106466718287166 11.532421875 60.388438314189365 11.974218749999999 Q 60.64266757742438 12.416015625 60.85625731385084 12.872929687499997 Q 61.04047847992959 13.329843749999998 61.18070680047816 13.801874999999997 Q 61.2903996233097 14.273906249999996 61.3532588276792 14.761054687499996 Q 61.38500720091785 15.248203124999996 61.367766246651215 15.750468749999994 Q 61.31956733316124 16.252734374999996 61.22108750747744 16.770117187499995 Q 61.09266619724258 17.287499999999994 60.913715254075 17.819999999999993 Q 60.705436825433495 18.35343749999999 60.4464694430528 18.899941406249994 Q 60.162777065457135 19.446445312499996 59.83106707482956 20.006015624999996 Q 59.47903480625623 20.565585937499996 59.08299998975751 21.138222656249997 Q 58.67216213899903 21.710859375 58.22272179378263 22.2965625 Q 57.765093031201765 22.882265625000002 57.27563799222036 23.481035156250005 Q 56.78563317530132 24.079804687500005 56.27188639667248 24.691640625000005 Q 55.76612422070483 25.303476562500006 55.24587720928901 25.928378906250003 Q 54.7428545734746 26.553281250000005 54.23556849535265 27.191250000000007 Q 53.755196698060935 27.82921875000001 53.281462012999334 28.480253906250006 Q 52.844461650005506 29.13128906250001 52.42531672410164 29.79539062500001 Q 52.05247546912383 30.45949218750001 51.70859272681366 31.13666015625001 Q 51.419898923416284 31.813828125000015 51.17065655917386 32.50406250000002 Q 50.98433151230843 33.19429687500001 50.84679927671619 33.897597656250014 Q 50.77826191237959 34.60089843750002 50.76614054185792 35.31726562500001 Q 50.82694914965267 36.03363281250001 50.94951397916475 36.763066406250005 Q 51.146340341286184 37.492500000000014 51.40744971455648 38.235000000000014 L 51.40744971455648 38.235000000000014 Z M 20.868689840071795 44.279999999999994 L 20.868689840071795 44.279999999999994 Q 21.53521318179762 44.941874999999996 22.192432072436667 45.55828125000001 Q 22.860843286905045 46.174687500000005 23.5079385785554 46.745625000000004 Q 24.157369937738817 47.31656250000001 24.777660042651654 47.84203125000002 Q 25.394197234755794 48.36750000000002 25.977376737987804 48.84750000000002 Q 26.553094333620518 49.327500000000015 27.094158438860468 49.76203125000002 Q 27.62597275697576 50.19656250000001 28.124046878817015 50.585625000000014 Q 28.612535608414646 50.97468750000002 29.069732228009514 51.31828125000002 Q 29.51802228039341 51.661875000000016 29.93840279414935 51.96000000000002 Q 30.750482202362225 52.552500000000016 31.468638757502973 52.99687500000002 Q 32.16698876141995 53.44125000000001 32.79515074246117 53.737500000000004 Q 33.41367919721329 54.03375 33.980484685201574 54.181875000000005 Q 34.54476831204505 54.33 35.067268312045044 54.33 L 35.067268312045044 54.33 Q 35.42726831204505 54.33 35.72780017843953 54.275156249999995 Q 36.02798321316119 54.22031249999999 36.267310086029575 54.110625 Q 36.505263712501936 54.0009375 36.67965237255124 53.836406249999996 Q 36.851037318440945 53.671875 36.9549708917813 53.4525 Q 37.05379072979075 53.233124999999994 37.08033073799314 52.95890625 Q 37.09936554271697 52.6846875 37.04070022457686 52.355625 Q 36.972144174389165 52.026562500000004 36.82036556989248 51.64265625 Q 36.656710678123446 51.25875 36.40486013271764 50.81999999999999 Q 36.13881054326013 50.38124999999999 35.77868608105946 49.874062499999994 Q 35.40544985563166 49.36687499999999 34.93577851414225 48.79124999999999 Q 34.45572188819124 48.215624999999996 33.881452788425776 47.5715625 Q 33.303666481059594 46.927499999999995 32.64038875102088 46.21499999999999 Q 32.3115958038842 45.85874999999999 31.964379114279325 45.485390624999994 Q 31.621458349790473 45.112031249999994 31.26282994974521 44.72156249999999 Q 30.911027465617508 44.331093749999994 30.546857498797714 43.92351562499999 Q 30.192463527022067 43.51593749999999 29.82968072815869 43.09125 Q 29.480031624721505 42.6665625 29.126603330067397 42.224765624999996 Q 28.790040867676353 41.782968749999995 28.454905350296542 41.3240625 Q 28.14068451378714 40.86515625 27.833626926005067 40.389140624999996 Q 27.551763787510946 39.913125 27.28322769421051 39.42 L 27.28322769421051 39.42 L 26.8280597652737 38.394375000000004 L 26.5100697759596 37.368750000000006 L 26.336035271375003 36.343125 L 26.310045940708218 35.3175 L 26.43342725685068 34.291875000000005 L 26.704715727911925 33.26625 L 27.119686222717764 32.240625 L 27.67143086008539 31.215000000000003 Q 27.370675261540164 31.110000000000003 27.10196126764827 31.0425 Q 26.83379163371925 30.974999999999998 26.596445697624862 30.944999999999993 Q 26.35975622829242 30.922500000000003 26.07893394569031 30.91125000000001 Q 25.798126611109026 30.900000000000013 25.473126611109024 30.900000000000013 L 25.473126611109024 30.900000000000013 Q 25.203126611109024 30.900000000000013 24.93299909591358 30.915585937500012 Q 24.662900282757974 30.93117187500001 24.392788922048 30.96234375000001 Q 23.852912372444237 31.024687500000013 23.314552730924763 31.14937500000001 Q 22.778067443780287 31.274062500000014 22.246895870275992 31.461093750000014 Q 21.720047478503197 31.648125000000014 21.204411270065272 31.89750000000001 Q 20.696701865291644 32.14687500000001 20.20840325031871 32.458593750000006 Q 19.732912908233985 32.7703125 19.287517538545632 33.14437500000001 Q 18.861169436667026 33.518437500000005 18.478185064368972 33.95484375000001 Q 18.121816887672317 34.39125000000001 17.824582883226004 34.89000000000001 Q 17.562649377778083 35.38875000000001 17.368756958511323 35.90953125000001 Q 17.21331159331643 36.4303125 17.13199036657792 36.973125 Q 17.091570376781714 37.51593750000001 17.13058597181847 38.08078125 Q 17.21196734591198 38.645625 17.376932007250915 39.2325 Q 17.5844184195746 39.819375 17.87805098304547 40.42828125 Q 18.212728026965642 41.0371875 18.634099596455147 41.668124999999996 Q 19.093096217692864 42.29906249999999 19.636910287455237 42.95203125 Q 20.21272175295769 43.605 20.868689840071795 44.279999999999994 L 20.868689840071795 44.279999999999994 Z" fill="black" stroke="black" />
				</svg>