<svg
					xmlns="http://www.w3.org/2000/svg" xmlns:xlink="http://www.w3.org/1999/xlink"
					style="
						overflow: visible;
						height: 100;
					"
					viewBox="-7.988614512069328 0 46.37334539722347 77.115"
				>
					<path d="M 14.786954454109287 48.16499999999998 L 15.73231229058392 49.06968749999997 L 16.64784437257 49.974374999999974 L 17.52024549538256 50.87906249999998 L 18.336837266057742 51.78374999999998 L 19.0857523553488 52.68843749999998 L 19.756106962730602 53.593124999999986 L 20.338158988020947 54.49781249999998 L 20.823449610948902 55.40249999999998 L 21.20492622112888 56.30718749999998 L 21.47704491192905 57.21187499999998 L 21.635851048715693 58.116562499999986 L 21.67903674059481 59.02124999999998 L 21.605974380428197 59.92593749999998 L 21.41772576569505 60.83062499999999 L 21.117026667647934 61.73531249999999 L 20.708247073015677 62.639999999999986 L 20.197327676051003 63.54468749999998 L 19.591693543868296 64.44937499999997 L 18.900146209752357 65.3540625 L 18.13273576261958 66.25874999999999 L 17.300614791524332 67.16343749999999 L 16.415876307799515 68.068125 L 15.491378000269195 68.97281249999999 L 14.540555377589648 69.8775 L 13.577226513275441 70.78218749999999 L 12.615391231003828 71.68687499999999 L 11.669027648588063 72.5915625 L 10.75188903739706 73.49624999999999 L 9.877303949413268 74.4009375 L 9.057982516634269 75.30562499999999 L 8.305831737821117 76.2103125 L 7.6317824369864065 77.115 L 6.776782436986406 77.115 L 5.921782436986406 77.115 L 5.066782436986405 77.115 L 4.2117824369864065 77.115 L 3.356782436986408 77.115 L 2.5017824369864075 77.115 L 1.646782436986407 77.115 L 0.7917824369864066 77.115 L -0.06321756301359382 77.115 L -0.9182175630135934 77.115 L -1.773217563013593 77.115 L -2.6282175630135933 77.115 L -3.4832175630135933 77.115 L -4.338217563013593 77.115 L -5.193217563013594 77.115 L -6.048217563013593 77.115 L -5.132698113916178 75.910078125 L -4.084986212016532 74.70515625 L -2.932065639151851 73.500234375 L -1.7036298226444984 72.2953125 L -0.43131708216380155 71.090390625 L 0.852104214043576 69.88546875 L 2.113579597283255 68.680546875 L 3.320619815049206 67.47562500000001 L 4.442137590537699 66.27070312500001 L 5.449248274327946 65.06578125 L 6.316013767474945 63.86085937499999 L 7.020110556302172 62.65593749999999 L 7.543404653682502 61.451015625 L 7.872418639215512 60.24609375 L 7.9986787696986 59.041171875 L 7.918933220074207 57.83624999999999 L 7.635235834065644 56.63132812499999 L 7.154893227506869 55.42640624999999 L 6.490276606718055 54.221484374999996 L 5.658503148537839 53.0165625 L 4.680995148057858 51.811640625 L 3.5829282881936653 50.60671875 L 2.392583240889094 49.40179687499999 L 1.140617299441323 48.19687499999999 L -0.14072519897032046 46.991953124999995 L -1.4184433250128716 45.78703124999999 L -2.6596294949316057 44.58210937499999 L -3.8323170041699086 43.37718749999999 L -4.9063033286797655 42.172265624999994 L -5.85392798982753 40.96734375 L -6.650784949012676 39.762421874999994 L -7.276351184302228 38.5575 L -7.714515260112447 37.352578125 L -7.953992276644891 36.14765625 L -7.988614512069328 34.942734375 L -7.817490271974618 33.737812500000004 L -7.445026854925758 32.532890625 L -6.880817042650026 31.327968749999997 L -6.139392038293308 30.123046875 L -5.2398472158128335 28.918124999999996 L -4.205350319317082 27.713203124999996 L -3.0625447786608766 26.50828125 L -1.840863508880785 25.303359375 L -0.571770866541436 24.098437499999996 L 0.7120477136207567 22.893515624999996 L 1.9775275308776203 21.688593749999995 L 3.1920761986710224 20.483671875 L 4.324413060340487 19.27875 L 5.3453748212950805 18.073828125 L 6.2286666486023945 16.868906250000002 L 6.951539393452114 15.663984374999998 L 7.495375494654247 14.459062499999998 L 7.846168473248848 13.254140625 L 7.994883668860999 12.049218749999998 L 7.937690927049386 10.844296874999998 L 7.676063244794304 9.639375 L 7.216738833514128 8.434453125000001 L 6.571547576675887 7.229531249999999 L 5.757106351577853 6.024609374999999 L 4.794391062280519 4.8196875 L 3.7081964059622297 3.6147656249999995 L 2.5264972863973014 2.40984375 L 1.2797283213291772 1.204921875 L 0 0 L 0.9496875 0 L 1.899375 0 L 2.8490625 0 L 3.79875 0 L 4.7484375 0 L 5.698125 0 L 6.647812500000001 0 L 7.5975 0 L 8.5471875 0 L 9.496875 0 L 10.446562499999999 0 L 11.39625 0 L 12.345937500000002 0 L 13.295625000000001 0 L 14.2453125 0 L 15.195 0 L 16.1446875 0 L 17.094375 0 L 18.0440625 0 L 18.99375 0 L 19.943437499999998 0 L 20.893124999999998 0 L 21.8428125 0 L 22.7925 0 L 23.7421875 0 L 24.691875000000003 0 L 25.641562500000003 0 L 26.591250000000002 0 L 27.540937500000002 0 L 28.490625 0 L 29.4403125 0 L 30.39 0 L 31.502383913790965 1.0462499999999997 L 32.59315564086533 2.0924999999999994 L 33.64112289145832 3.138749999999999 L 34.6259250116519 4.184999999999999 L 35.52842856465625 5.231249999999998 L 36.331099068843116 6.277499999999998 L 37.0183416701398 7.323749999999998 L 37.5768041299579 8.369999999999997 L 37.9956362419917 9.416249999999998 L 38.266700637751796 10.462499999999997 L 38.38473088515414 11.508749999999996 L 38.34743380851231 12.554999999999996 L 38.15553404198755 13.601249999999997 L 37.81275995088037 14.647499999999996 L 37.32577119429477 15.693749999999994 L 36.704029336539364 16.739999999999995 L 36.18184183653936 16.739999999999995 L 35.65965433653936 16.739999999999995 L 35.13746683653936 16.739999999999995 L 34.615279336539366 16.739999999999995 L 34.093091836539365 16.739999999999995 L 33.570904336539364 16.739999999999995 L 33.04871683653936 16.739999999999995 L 32.52652933653936 16.739999999999995 L 32.00434183653936 16.739999999999995 L 31.482154336539367 16.739999999999995 L 30.959966836539365 16.739999999999995 L 30.437779336539364 16.739999999999995 L 29.915591836539363 16.739999999999995 L 29.393404336539362 16.739999999999995 L 28.87121683653936 16.739999999999995 L 28.349029336539367 16.739999999999995 L 27.826841836539366 16.739999999999995 L 27.304654336539365 16.739999999999995 L 26.782466836539363 16.739999999999995 L 26.260279336539362 16.739999999999995 L 25.73809183653936 16.739999999999995 L 25.215904336539367 16.739999999999995 L 24.693716836539366 16.739999999999995 L 24.171529336539365 16.739999999999995 L 23.649341836539364 16.739999999999995 L 23.127154336539363 16.739999999999995 L 22.60496683653936 16.739999999999995 L 22.082779336539367 16.739999999999995 L 21.560591836539366 16.739999999999995 L 21.038404336539365 16.739999999999995 L 20.516216836539364 16.739999999999995 L 19.994029336539363 16.739999999999995 L 19.3471374710084 17.6578125 L 18.615482452470275 18.575624999999995 L 17.81000761635705 19.493437499999995 L 16.942760418218572 20.411249999999995 L 16.02671224040209 21.3290625 L 15.075564379594933 22.246875 L 14.10354311706705 23.1646875 L 13.125186936739702 24.0825 L 12.155129073651363 25.0003125 L 11.207878645234844 25.918125000000003 L 10.29760363901661 26.8359375 L 9.437919002582689 27.753750000000004 L 8.641683005341362 28.671562500000004 L 7.9208049178916315 29.589375 L 7.286066885529698 30.5071875 L 6.746962660124446 31.425000000000004 L 7.7100876601244455 31.425000000000004 L 8.673212660124445 31.425000000000004 L 9.636337660124447 31.425000000000004 L 10.599462660124445 31.425000000000004 L 11.562587660124446 31.425000000000004 L 12.525712660124448 31.425000000000004 L 13.488837660124446 31.425000000000004 L 14.451962660124448 31.425000000000004 L 15.415087660124449 31.425000000000004 L 16.378212660124447 31.425000000000004 L 17.34133766012445 31.425000000000004 L 18.30446266012445 31.425000000000004 L 19.26758766012445 31.425000000000004 L 20.23071266012445 31.425000000000004 L 21.19383766012445 31.425000000000004 L 22.15696266012445 31.425000000000004 L 21.669286562436405 32.47125 L 21.32578536910891 33.5175 L 21.133132865905612 34.56375 L 21.095072042831156 35.61 L 21.2123423726563 36.65625 L 21.482665443914385 37.7025 L 21.90078922750162 38.748749999999994 L 22.45859011683801 39.79499999999999 L 23.1452307590802 40.84124999999999 L 23.94737061092892 41.88749999999999 L 24.849425128202924 42.93374999999998 L 25.833868553459858 43.97999999999998 L 26.881574418890526 45.02624999999999 L 27.972187148953925 46.072499999999984 L 29.084517542992423 47.11874999999998 L 30.196954454109292 48.16499999999998 L 29.233829454109294 48.16499999999998 L 28.270704454109293 48.16499999999998 L 27.30757945410929 48.16499999999998 L 26.344454454109293 48.16499999999998 L 25.38132945410929 48.16499999999998 L 24.41820445410929 48.16499999999998 L 23.455079454109292 48.16499999999998 L 22.49195445410929 48.16499999999998 L 21.52882945410929 48.16499999999998 L 20.56570445410929 48.16499999999998 L 19.60257945410929 48.16499999999998 L 18.639454454109288 48.16499999999998 L 17.67632945410929 48.16499999999998 L 16.713204454109288 48.16499999999998 L 15.750079454109287 48.16499999999998 L 14.786954454109287 48.16499999999998 L 14.786954454109287 48.16499999999998 Z" fill="black" stroke="black" />
				</svg>