<svg
					xmlns="http://www.w3.org/2000/svg" xmlns:xlink="http://www.w3.org/1999/xlink"
					style="
						overflow: visible;
						height: 100;
					"
					viewBox="-7.988614512069328 0 74.52729328176794 77.115"
				>
					<path d="M 29.591782436986406 77.115 L 28.764282436986406 77.115 L 27.936782436986405 77.115 L 27.109282436986405 77.115 L 26.281782436986404 77.115 L 25.454282436986404 77.115 L 24.626782436986407 77.115 L 23.79928243698641 77.115 L 22.97178243698641 77.115 L 22.14428243698641 77.115 L 21.316782436986408 77.115 L 20.489282436986407 77.115 L 19.661782436986407 77.115 L 18.834282436986406 77.115 L 18.006782436986406 77.115 L 17.179282436986405 77.115 L 16.351782436986408 77.115 L 16.832078034417698 76.24757812499999 L 17.384572931229606 75.38015625 L 17.999688695953587 74.51273437500001 L 18.66701019063579 73.64531249999999 L 19.37542473233001 72.777890625 L 20.11327057481317 71.91046874999999 L 20.86849272659011 71.043046875 L 21.62880402323095 70.175625 L 22.381849301878848 69.30820312499999 L 23.115370484316305 68.44078125 L 23.817370362838588 67.573359375 L 24.476272900515 66.7059375 L 25.081077903992053 65.83851562499999 L 25.621508002183234 64.97109375 L 26.088145966994972 64.103671875 L 26.472560541282725 63.23625 L 26.767419092791524 62.36882812499999 L 26.96658558885946 61.50140625 L 27.06520258279844 60.633984375000004 L 27.05975611649429 59.7665625 L 26.948122672032284 58.899140624999994 L 26.729597545005788 58.031718749999996 L 26.404904260398965 57.164296875000005 L 25.976184905233588 56.296875 L 25.44697150714996 55.429453124999995 L 24.82213884134606 54.562031250000004 L 24.107839296443125 53.694609375000006 L 23.31142066956535 52.8271875 L 22.441327989011608 51.959765624999996 L 21.50699067631205 51.09234374999999 L 20.518696555349862 50.224921874999986 L 19.487454391970644 49.35749999999999 L 18.424846800751578 48.490078125 L 17.342875484311296 47.62265624999999 L 16.253800872989967 46.75523437499999 L 15.169978307548039 45.887812499999995 L 14.103692953722948 45.02039062499999 L 13.066995654426771 44.15296874999999 L 12.071541912839999 43.285546874999994 L 11.128436157822946 42.41812499999999 L 10.248083372486978 41.55070312499999 L 9.440050068385094 40.68328124999999 L 8.712936462910173 39.815859374999995 L 8.074261567798118 38.9484375 L 7.530362724121652 38.08101562499999 L 7.086310926134405 37.213593749999994 L 6.745843065362688 36.34617187499999 L 6.51131200026311 35.47874999999999 L 6.383655118588518 34.611328124999986 L 6.3623818125151 33.74390624999998 L 6.445580033881249 32.87648437499998 L 6.629941841950651 32.009062499999985 L 6.910807602344038 31.141640624999987 L 7.282228246577154 30.274218749999985 L 7.737044760326409 29.406796874999984 L 8.266983838342513 28.539374999999986 L 8.862768427922468 27.671953124999987 L 9.514241683917202 26.804531249999986 L 10.210502679054521 25.937109374999984 L 10.940052056288678 25.069687499999986 L 11.690945677047985 24.20226562499999 L 12.450954212414828 23.334843749999987 L 13.207726544866293 22.467421874999985 L 13.948954797288902 21.599999999999987 L 13.668954797288901 21.599999999999987 Q 13.142670907350396 22.139999999999993 12.508200004077418 22.774687499999995 Q 11.867730004591625 23.409374999999997 11.12534756531156 24.138749999999995 Q 10.755876731514475 24.5034375 10.363912565040131 24.891796874999997 Q 9.975731098947987 25.280156249999997 9.568170401874685 25.692187499999996 Q 9.167374133931006 26.104218749999994 8.751303515886729 26.53992187499999 Q 8.345670827892794 26.97562499999999 7.9299266863417675 27.434999999999988 Q 7.530246859435362 27.894374999999986 7.138971125919689 28.362890624999984 Q 6.766336186531796 28.831406249999986 6.406683072174337 29.30906249999999 Q 6.06952433321875 29.78671874999999 5.750041180761679 30.27351562499999 Q 5.456841238284957 30.76031249999999 5.186021279299876 31.256249999999994 Q 4.945104894382824 31.752187499999994 4.731163502107361 32.257265624999995 Q 4.550463439910331 32.76234374999999 4.401090994315786 33.2765625 Q 4.287892594514838 33.790781249999995 4.20998850256587 34.31414062499999 Q 4.170658225357789 34.8375 4.170052157793974 35.37 Q 4.21115622207127 35.904374999999995 4.289707994382298 36.434296874999994 Q 4.407759666786129 36.96421875 4.561117771501696 37.489687499999995 Q 4.752132735750871 38.01515624999999 4.975629421103751 38.536171874999994 Q 5.234272451678316 39.05718749999999 5.521986073716452 39.57375 Q 5.8417573135002545 40.090312499999996 6.186704843242138 40.602421875 Q 6.560138397295164 41.11453125 6.95447737896667 41.6221875 Q 7.373346706198198 42.12984375 7.808581328437301 42.633046875 Q 8.264106259647345 43.136250000000004 8.731292597608618 43.635000000000005 L 8.731292597608618 43.635000000000005 L 9.76033485862651 44.681250000000006 L 10.8391081165435 45.727500000000006 L 11.946653196396765 46.77375000000001 L 13.06145192378077 47.82000000000001 L 14.16184519526105 48.86625 L 15.226453786857395 49.91250000000001 L 16.23459372482976 50.95875000000001 L 17.166678148647538 52.005 L 18.004597858462155 53.051249999999996 L 18.73207315353583 54.0975 L 19.334970125858998 55.143750000000004 L 19.801575263778716 56.19 L 20.12282303044335 57.23625 L 20.292471995507338 58.282500000000006 L 20.307226098083976 59.32875 L 20.166798684963197 60.375 L 19.873918079914223 61.42125 L 19.434274575868756 62.467499999999994 L 18.856409879858305 63.51375 L 18.15155115864813 64.56 L 17.33339290934734 65.60624999999999 L 16.41783089296826 66.6525 L 15.422653300263507 67.69875 L 14.367195150090373 68.745 L 13.271962634897632 69.79124999999999 L 12.158234711817755 70.83749999999999 L 11.047649679936773 71.88374999999999 L 9.961784776012728 72.92999999999999 L 8.921736956556463 73.97625 L 7.947713011139071 75.02250000000001 L 7.058636970496581 76.06875 L 6.271782436986407 77.115 L 5.5017824369864075 77.115 L 4.731782436986408 77.115 L 3.9617824369864083 77.115 L 3.191782436986407 77.115 L 2.4217824369864074 77.115 L 1.651782436986407 77.115 L 0.8817824369864065 77.115 L 0.11178243698640689 77.115 L -0.6582175630135927 77.115 L -1.4282175630135931 77.115 L -2.198217563013593 77.115 L -2.968217563013593 77.115 L -3.738217563013593 77.115 L -4.508217563013593 77.115 L -5.278217563013593 77.115 L -6.048217563013593 77.115 L -5.132698113916178 75.910078125 L -4.084986212016532 74.70515625 L -2.932065639151851 73.500234375 L -1.7036298226444984 72.2953125 L -0.43131708216380155 71.090390625 L 0.852104214043576 69.88546875 L 2.113579597283255 68.680546875 L 3.320619815049206 67.47562500000001 L 4.442137590537699 66.27070312500001 L 5.449248274327946 65.06578125 L 6.316013767474945 63.86085937499999 L 7.020110556302172 62.65593749999999 L 7.543404653682502 61.451015625 L 7.872418639215512 60.24609375 L 7.9986787696986 59.041171875 L 7.918933220074207 57.83624999999999 L 7.635235834065644 56.63132812499999 L 7.154893227506869 55.42640624999999 L 6.490276606718055 54.221484374999996 L 5.658503148537839 53.0165625 L 4.680995148057858 51.811640625 L 3.5829282881936653 50.60671875 L 2.392583240889094 49.40179687499999 L 1.140617299441323 48.19687499999999 L -0.14072519897032046 46.991953124999995 L -1.4184433250128716 45.78703124999999 L -2.6596294949316057 44.58210937499999 L -3.8323170041699086 43.37718749999999 L -4.9063033286797655 42.172265624999994 L -5.85392798982753 40.96734375 L -6.650784949012676 39.762421874999994 L -7.276351184302228 38.5575 L -7.714515260112447 37.352578125 L -7.953992276644891 36.14765625 L -7.988614512069328 34.942734375 L -7.817490271974618 33.737812500000004 L -7.445026854925758 32.532890625 L -6.880817042650026 31.327968749999997 L -6.139392038293308 30.123046875 L -5.2398472158128335 28.918124999999996 L -4.205350319317082 27.713203124999996 L -3.0625447786608766 26.50828125 L -1.840863508880785 25.303359375 L -0.571770866541436 24.098437499999996 L 0.7120477136207567 22.893515624999996 L 1.9775275308776203 21.688593749999995 L 3.1920761986710224 20.483671875 L 4.324413060340487 19.27875 L 5.3453748212950805 18.073828125 L 6.2286666486023945 16.868906250000002 L 6.951539393452114 15.663984374999998 L 7.495375494654247 14.459062499999998 L 7.846168473248848 13.254140625 L 7.994883668860999 12.049218749999998 L 7.937690927049386 10.844296874999998 L 7.676063244794304 9.639375 L 7.216738833514128 8.434453125000001 L 6.571547576675887 7.229531249999999 L 5.757106351577853 6.024609374999999 L 4.794391062280519 4.8196875 L 3.7081964059622297 3.6147656249999995 L 2.5264972863973014 2.40984375 L 1.2797283213291772 1.204921875 L 0 0 L 0.5784375 0 L 1.156875 0 L 1.7353125 0 L 2.31375 0 L 2.8921875000000004 0 L 3.470625 0 L 4.0490625 0 L 4.6275 0 L 5.205937500000001 0 L 5.784375000000001 0 L 6.3628125 0 L 6.94125 0 L 7.5196875 0 L 8.098125 0 L 8.6765625 0 L 9.255 0 L 9.833437500000002 0 L 10.411875000000002 0 L 10.990312500000002 0 L 11.568750000000001 0 L 12.147187500000001 0 L 12.725625 0 L 13.3040625 0 L 13.8825 0 L 14.4609375 0 L 15.039375 0 L 15.6178125 0 L 16.19625 0 L 16.7746875 0 L 17.353125 0 L 17.9315625 0 L 18.51 0 L 19.58842726898809 0.8557031249999998 L 20.655011537517662 1.7114062499999996 L 21.69806380284963 2.5671093749999994 L 22.70620105521006 3.422812499999999 L 23.668494294127022 4.278515624999999 L 24.57461064116247 5.134218749999999 L 25.414947701108975 5.9899218749999985 L 26.18075842451663 6.845624999999998 L 26.86426484792904 7.701328124999998 L 27.45875923283357 8.557031249999998 L 27.9586912881889 9.412734374999998 L 28.35974034235184 10.268437499999997 L 28.658871525932508 11.124140624999997 L 28.85437523501706 11.979843749999997 L 28.945889361607072 12.835546874999997 L 28.934404002207216 13.691249999999997 L 28.82224858333418 14.546953124999996 L 28.613061571357314 15.402656249999996 L 28.311743160542065 16.258359374999998 L 27.924391554506336 17.114062499999996 L 27.458223669639068 17.969765624999994 L 26.921481291595892 18.825468749999995 L 26.323323905144083 19.681171874999997 L 25.67370959091923 20.536874999999995 L 24.98326553782509 21.392578124999993 L 24.26314985483871 22.248281249999994 L 23.524906479119064 23.103984374999996 L 22.780315067088132 23.959687499999994 L 22.041237820390986 24.815390624999992 L 21.31946523849814 25.671093749999994 L 20.626562803670577 26.526796874999995 L 19.973720591884067 27.382499999999993 L 19.371607765262308 28.23820312499999 L 18.830233838093008 29.093906249999993 L 18.358818520422112 29.949609374999994 L 17.965671831684983 30.805312499999992 L 17.658086043289188 31.66101562499999 L 17.442240855248542 32.516718749999995 L 17.323123039882187 33.37242187499999 L 17.304461597473196 34.22812499999999 L 17.38867926707522 35.08382812499999 L 17.576861022985096 35.93953124999999 L 17.868739966530345 36.79523437499999 L 18.262700796624365 37.65093749999999 L 18.755800813960818 38.50664062499999 L 19.343808185723937 39.362343749999994 L 20.021256973248583 40.21804687499999 L 20.78151820709043 41.07374999999999 L 21.6168860852981 41.92945312499999 L 22.518678174028018 42.785156249999986 L 23.477348307566263 43.64085937499999 L 24.482610719688232 44.49656249999999 L 25.523573792242665 45.35226562499999 L 26.58888168179105 46.20796874999999 L 27.666861982693426 47.06367187499999 L 28.74567750653747 47.91937499999999 L 29.813480204282364 48.77507812499999 L 30.85856522962632 49.630781249999984 L 31.869523140270363 50.48648437499998 L 32.83538825796447 51.34218749999999 L 33.745781258170396 52.19789062499999 L 34.591044135209586 53.05359374999999 L 35.36236578790796 53.90929687499998 L 36.05189659271372 54.764999999999986 L 36.33189659271372 54.764999999999986 L 35.97439703790796 53.90929687499998 L 35.53510663520959 53.05359374999999 L 35.0218750081704 52.19789062499999 L 34.44351325796447 51.34218749999999 L 33.80967939027036 50.48648437499998 L 33.130752729626316 49.630781249999984 L 32.417698954282365 48.77507812499999 L 31.681927506537473 47.91937499999999 L 30.935143232693434 47.06367187499999 L 30.18919418179106 46.20796874999999 L 29.455917542242673 45.35226562499999 L 28.74698571968824 44.49656249999999 L 28.07375455756627 43.64085937499999 L 27.447115674028026 42.785156249999986 L 26.877354835298107 41.92945312499999 L 26.37401820709043 41.07374999999999 L 25.945788223248584 40.21804687499999 L 25.600370685723938 39.362343749999994 L 25.34439456396082 38.50664062499999 L 25.183325796624366 37.65093749999999 L 25.121396216530346 36.79523437499999 L 25.161548522985097 35.93953124999999 L 25.30539801707522 35.08382812499999 L 25.553211597473197 34.22812499999999 L 25.90390428988219 33.37242187499999 L 26.355053355248543 32.516718749999995 L 26.90292979328919 31.66101562499999 L 27.542546831684984 30.805312499999992 L 28.267724770422113 29.949609374999994 L 29.07117133809301 29.093906249999993 L 29.94457651526231 28.23820312499999 L 30.87872059188407 27.382499999999993 L 31.863594053670578 26.526796874999995 L 32.88852773849814 25.671093749999994 L 33.94233157039099 24.815390624999992 L 35.01344006708813 23.959687499999994 L 36.09006272911907 23.103984374999996 L 37.16033735483871 22.248281249999994 L 38.21248428782509 21.392578124999993 L 39.234959590919225 20.536874999999995 L 40.21660515514408 19.681171874999997 L 41.14679379159589 18.825468749999995 L 42.01556741963906 17.969765624999994 L 42.81376655450633 17.114062499999996 L 43.53314941054206 16.258359374999998 L 44.16649907135731 15.402656249999996 L 44.70771733333417 14.546953124999996 L 45.15190400220721 13.691249999999997 L 45.49542061160707 12.835546874999997 L 45.73593773501705 11.979843749999997 L 45.8724652759325 11.124140624999997 L 45.905365342351836 10.268437499999997 L 45.836347538188896 9.412734374999998 L 45.668446732833566 8.557031249999998 L 45.40598359792903 7.701328124999998 L 45.05450842451663 6.845624999999998 L 44.62072895110897 5.9899218749999985 L 44.11242314116246 5.134218749999999 L 43.538338044127016 4.278515624999999 L 42.90807605521005 3.422812499999999 L 42.231970052849626 2.5671093749999994 L 41.52094903751766 1.7114062499999996 L 40.78639601898809 0.8557031249999998 L 40.04 0 L 40.618125 0 L 41.19625 0 L 41.774375 0 L 42.3525 0 L 42.930625 0 L 43.50875 0 L 44.086875 0 L 44.665 0 L 45.243125 0 L 45.82125 0 L 46.399375 0 L 46.9775 0 L 47.555625 0 L 48.13375 0 L 48.711875 0 L 49.29 0 L 49.868125 0 L 50.44625 0 L 51.024375 0 L 51.6025 0 L 52.180625 0 L 52.75875 0 L 53.336875 0 L 53.915 0 L 54.493125 0 L 55.07125 0 L 55.649375 0 L 56.2275 0 L 56.805625 0 L 57.38375 0 L 57.961875 0 L 58.54 0 L 59.81972832132918 1.204921875 L 61.0664972863973 2.40984375 L 62.248196405962226 3.6147656249999995 L 63.33439106228052 4.8196875 L 64.29710635157785 6.024609374999999 L 65.11154757667589 7.229531249999999 L 65.75673883351413 8.434453125000001 L 66.2160632447943 9.639375 L 66.47769092704938 10.844296874999998 L 66.534883668861 12.049218749999998 L 66.38616847324884 13.254140625 L 66.03537549465425 14.459062499999998 L 65.49153939345211 15.663984374999998 L 64.76866664860239 16.868906250000002 L 63.88537482129508 18.073828125 L 62.86441306034049 19.27875 L 61.732076198671024 20.483671875 L 60.51752753087762 21.688593749999995 L 59.252047713620755 22.893515624999996 L 57.968229133458564 24.098437499999996 L 56.69913649111921 25.303359375 L 55.47745522133912 26.50828125 L 54.334649680682915 27.713203124999996 L 53.30015278418716 28.918124999999996 L 52.40060796170669 30.123046875 L 51.65918295734997 31.327968749999997 L 51.09497314507424 32.532890625 L 50.72250972802538 33.737812500000004 L 50.55138548793067 34.942734375 L 50.58600772335511 36.14765625 L 50.82548473988755 37.352578125 L 51.26364881569777 38.5575 L 51.889215050987325 39.762421874999994 L 52.68607201017247 40.96734375 L 53.63369667132024 42.172265624999994 L 54.70768299583009 43.37718749999999 L 55.88037050506839 44.58210937499999 L 57.121556674987126 45.78703124999999 L 58.39927480102968 46.991953124999995 L 59.68061729944132 48.19687499999999 L 60.932583240889095 49.40179687499999 L 62.12292828819366 50.60671875 L 63.22099514805786 51.811640625 L 64.19850314853784 53.0165625 L 65.03027660671805 54.221484374999996 L 65.69489322750687 55.42640624999999 L 66.17523583406565 56.63132812499999 L 66.4589332200742 57.83624999999999 L 66.5386787696986 59.041171875 L 66.41241863921552 60.24609375 L 66.0834046536825 61.451015625 L 65.56011055630218 62.65593749999999 L 64.85601376747495 63.86085937499999 L 63.98924827432795 65.06578125 L 62.9821375905377 66.27070312500001 L 61.860619815049205 67.47562500000001 L 60.653579597283255 68.680546875 L 59.39210421404358 69.88546875 L 58.1086829178362 71.090390625 L 56.8363701773555 72.2953125 L 55.60793436084815 73.500234375 L 54.45501378798347 74.70515625 L 53.40730188608382 75.910078125 L 52.491782436986405 77.115 L 51.69553243698641 77.115 L 50.89928243698641 77.115 L 50.10303243698641 77.115 L 49.30678243698641 77.115 L 48.51053243698641 77.115 L 47.71428243698641 77.115 L 46.91803243698641 77.115 L 46.12178243698641 77.115 L 45.32553243698641 77.115 L 44.529282436986406 77.115 L 43.733032436986406 77.115 L 42.936782436986405 77.115 L 42.140532436986405 77.115 L 41.344282436986404 77.115 L 40.548032436986404 77.115 L 39.75178243698641 77.115 L 40.54692830564322 76.0584375 L 41.44615310584965 75.001875 L 42.43164052709755 73.9453125 L 43.4838651404899 72.88874999999999 L 44.58197925540221 71.83218749999997 L 45.70422597407075 70.77562499999999 L 46.828370260271 69.71906249999998 L 47.932139481337195 68.6625 L 48.993664695078905 67.60593749999998 L 49.99191393839198 66.549375 L 50.90710893283109 65.49281249999999 L 51.721116950970654 64.43625 L 52.41781007951915 63.379687499999996 L 52.98338476111882 62.323125 L 53.40663528376015 61.2665625 L 53.67917579917427 60.209999999999994 L 53.79560647136069 59.15343749999998 L 53.753620463355105 58.09687499999998 L 53.554049642511984 57.040312499999985 L 53.20084809874488 55.983749999999986 L 52.7010138022769 54.92718749999999 L 52.064449953093714 53.87062499999999 L 51.30376876917767 52.81406249999999 L 50.4340416010601 51.75749999999999 L 49.47250032366376 50.700937499999995 L 48.43819592174861 49.644375 L 47.351621033396135 48.5878125 L 46.23430393006507 47.531249999999986 L 45.108381977678256 46.47468749999999 L 43.996163029741396 45.41812499999999 L 42.91968344259719 44.361562499999984 L 41.900271469843496 43.304999999999986 Q 41.481695601894955 42.84749999999998 41.073417285355674 42.38203124999998 Q 40.68334297086976 41.91656249999998 40.30789340243835 41.44312499999998 Q 39.95433875297652 40.96968749999999 39.61980173835769 40.488281249999986 Q 39.31075915947774 40.006874999999994 39.02509662611672 39.517499999999984 Q 38.768342915701375 39.02812499999999 38.539193940112284 38.53078124999998 Q 38.34208175068591 38.033437499999984 38.17654458774105 37.52812499999999 Q 38.04577884892153 37.022812499999986 37.95018013694049 36.50953124999998 Q 37.89158412955869 35.99624999999999 37.87124055998396 35.47499999999999 Q 37.889413967167414 34.95562499999999 37.94610812528331 34.443046874999986 Q 38.03988614878833 33.93046874999999 38.16961257786468 33.42468749999999 Q 38.334524687597494 32.91890624999999 38.532258632935815 32.419921874999986 Q 38.76273628775721 31.92093749999999 39.0224677191534 31.42874999999999 Q 39.312055125085564 30.93656249999999 39.62699897141314 30.45117187499999 Q 39.96856346244871 29.96578124999999 40.331366688677704 29.487187499999987 Q 40.71730347289001 29.008593749999985 41.12024417703072 28.536796874999986 Q 41.54267100768149 28.06499999999999 41.97784554115422 27.599999999999987 Q 42.431811116823496 27.133124999999986 42.874715732396766 26.690859374999988 Q 43.32888891283466 26.24859374999999 43.766492004382776 25.830937499999987 Q 44.21148467704257 25.41328124999999 44.635524073817415 25.020234374999994 Q 45.06380770401993 24.627187499999994 45.467810041075516 24.258749999999992 Q 46.28024102538474 23.521874999999994 46.98275440178942 22.8834375 Q 47.68003366960767 22.244999999999997 48.260565894203545 21.705 L 48.260565894203545 21.705 L 47.97056589420354 21.705 L 46.90213521468229 22.57078125 L 45.81967249914026 23.436562499999997 L 44.735429633699674 24.30234375 L 43.66168220010229 25.168124999999996 L 42.610566075135694 26.033906249999994 L 41.59391588967559 26.899687499999995 L 40.623107497620005 27.765468749999997 L 39.7089065516152 28.631249999999998 L 38.86132520118566 29.49703125 L 38.0894888207628 30.3628125 L 37.40151454159907 31.22859375 L 36.80440320443203 32.094375 L 36.3039461711192 32.96015625 L 35.90464823567644 33.825937499999995 L 35.609667660852764 34.69171874999999 L 35.42077413841637 35.5575 L 35.338325232743536 36.42328125 L 35.36126162127028 37.2890625 L 35.48712119516139 38.15484375 L 35.7120718325023 39.020624999999995 L 36.03096240776923 39.88640624999999 L 36.437391358589046 40.75218749999999 L 36.92379189709519 41.617968749999996 L 37.4815327316291 42.48375 L 38.10103295807809 43.34953125 L 38.77188959152818 44.215312499999996 L 39.483016040654945 45.08109375 L 40.22278968161626 45.946875 L 40.97920656708726 46.81265624999999 L 41.74004121110163 47.678437499999994 L 42.49300932279921 48.54421875 L 43.22593132292711 49.41 L 43.92689446652196 50.275781249999994 L 44.584411413754246 51.1415625 L 45.18757313819445 52.007343750000004 L 45.72619413713506 52.873125 L 46.190948011070326 53.73890625 L 46.573491607632015 54.604687500000004 L 46.866576077497925 55.470468749999995 L 47.06414336400555 56.33624999999999 L 47.16140684209485 57.20203125 L 47.15491503319345 58.06781249999999 L 47.042597547933774 58.933593749999986 L 46.82379264515734 59.79937499999999 L 46.499256040367804 60.665156249999995 L 46.07115084638309 61.53093749999999 L 45.54301878008689 62.39671874999999 L 44.91973301854717 63.262499999999996 L 44.207433332035045 64.12828125 L 43.41344435739008 64.9940625 L 42.546178099597185 65.85984375 L 41.61502195937912 66.72562500000001 L 40.6302137772721 67.59140625 L 39.602705557475815 68.4571875 L 38.54401768545332 69.32296875 L 37.466085579793614 70.18875 L 36.38110081955815 71.05453125 L 35.30134886186877 71.9203125 L 34.239045509882494 72.78609374999999 L 33.20617430793207 73.65187499999999 L 32.21432702826929 74.51765624999999 L 31.27454937269647 75.38343749999999 L 30.397193942955038 76.24921875 L 29.591782436986406 77.115 L 29.591782436986406 77.115 Z" fill="black" stroke="black" />
				</svg>