<svg
					xmlns="http://www.w3.org/2000/svg" xmlns:xlink="http://www.w3.org/1999/xlink"
					style="
						overflow: visible;
						height: 100;
					"
					viewBox="-7.988614512069335 1.0658141036401503e-13 51.69579721380659 77.11499999999998"
				>
					<path d="M 1.1368683772161603e-13 1.0658141036401503e-13 L 0.5559375000001137 1.0658141036401503e-13 L 1.1118750000001136 1.0658141036401503e-13 L 1.6678125000001136 1.0658141036401503e-13 L 2.2237500000001136 1.0658141036401503e-13 L 2.7796875000001133 1.0658141036401503e-13 L 3.3356250000001135 1.0658141036401503e-13 L 3.8915625000001137 1.0658141036401503e-13 L 4.4475000000001135 1.0658141036401503e-13 L 5.003437500000113 1.0658141036401503e-13 L 5.559375000000113 1.0658141036401503e-13 L 6.115312500000114 1.0658141036401503e-13 L 6.671250000000113 1.0658141036401503e-13 L 7.227187500000113 1.0658141036401503e-13 L 7.783125000000114 1.0658141036401503e-13 L 8.339062500000114 1.0658141036401503e-13 L 8.895000000000113 1.0658141036401503e-13 L 9.450937500000112 1.0658141036401503e-13 L 10.006875000000113 1.0658141036401503e-13 L 10.562812500000113 1.0658141036401503e-13 L 11.118750000000112 1.0658141036401503e-13 L 11.674687500000113 1.0658141036401503e-13 L 12.230625000000114 1.0658141036401503e-13 L 12.786562500000112 1.0658141036401503e-13 L 13.342500000000113 1.0658141036401503e-13 L 13.898437500000114 1.0658141036401503e-13 L 14.454375000000113 1.0658141036401503e-13 L 15.010312500000113 1.0658141036401503e-13 L 15.566250000000114 1.0658141036401503e-13 L 16.122187500000116 1.0658141036401503e-13 L 16.678125000000115 1.0658141036401503e-13 L 17.234062500000114 1.0658141036401503e-13 L 17.790000000000113 1.0658141036401503e-13 Q 18.09593750000011 1.0658141036401503e-13 18.403701171112512 0.006225585937606581 Q 18.711464837649327 0.012451171875106581 19.02105463869387 0.02490234375010658 Q 19.330644366529157 0.03735351562510658 19.642059990942744 0.05603027343760658 Q 19.953475244737362 0.07470703125010658 20.266715626426386 0.09960937500010658 Q 20.579954836800436 0.12451171875010658 20.895017381538427 0.15563964843760658 Q 21.210077066743388 0.18676757812510658 21.526956609317878 0.22412109375010658 Q 21.843830222825346 0.2614746093751066 22.16251771040783 0.3050537109376066 Q 22.48119421506376 0.3486328125001066 22.801675117726468 0.3984375000001066 Q 23.122137287664742 0.4482421875001066 23.444389737645448 0.5042724609376066 Q 23.76661218994796 0.5603027343751066 24.090604852215154 0.6225585937501066 Q 24.41455181139385 0.6848144531251066 24.740241489336764 0.7532958984376066 Q 25.065864289141864 0.8217773437501066 25.39319327084755 0.8964843750001066 Q 26.047559430452615 1.0458984375001066 26.70844527333865 1.2202148437501066 Q 27.368631142337296 1.3945312500001066 28.034734585192968 1.5937500000001066 Q 28.6996476419997 1.7929687500001066 29.36958567876874 2.0170898437501066 Q 30.037625627414403 2.2412109375001066 30.7094308066959 2.4902343750001066 Q 31.3783613844203 2.7392578125001066 32.049349026466025 3.0131835937501066 Q 32.7161641082113 3.2871093750001066 33.38279699451837 3.5859375000001066 Q 34.043587100317296 3.8847656250001066 34.70134479205997 4.208496093750107 Q 35.35117203640415 4.532226562500107 35.9944340416174 4.880859375000107 Q 36.627225704151414 5.229492187500107 37.249179932161404 5.603027343750107 Q 37.857653066112135 5.976562500000107 38.450243241122415 6.375000000000107 Q 39.025874902250834 6.773437500000107 39.57774389217245 7.192968750000106 Q 40.109125664147776 7.612500000000107 40.61102088483911 8.053125000000108 Q 41.08865184200755 8.493750000000105 41.53060998884359 8.955468750000106 Q 41.94438378077595 9.417187500000106 42.315970800946154 9.900000000000105 Q 42.65545297785925 10.382812500000107 42.94609114284408 10.886718750000107 Q 43.20088591514998 11.390625000000107 43.400273197106564 11.915625000000105 Q 43.56048279812053 12.440625000000106 43.65910505127862 12.986718750000104 Q 43.715879438988885 13.532812500000103 43.70560955417274 14.100000000000104 Q 43.651777099311694 14.667187500000106 43.52654729862286 15.255468750000103 Q 43.3573083885947 15.843750000000101 43.113832267698555 16.4531250000001 Q 42.82748760541755 17.0625000000001 42.465997718110344 17.6929687500001 Q 42.064671925418544 18.3234375000001 41.589627186836495 18.9750000000001 Q 41.07993680872181 19.626562500000105 40.50064259749841 20.2992187500001 Q 39.894246712155876 20.9718750000001 39.22532040658801 21.6656250000001 Q 38.539283043818486 22.3593750000001 37.80089025474396 23.0742187500001 Q 37.05777825306403 23.7890625000001 36.27556188586887 24.525000000000098 L 36.27556188586887 24.525000000000098 Q 35.58222271369849 25.185000000000095 34.89379099236716 25.837734375000096 Q 34.223453993245144 26.4904687500001 33.56727008623607 27.1359375000001 Q 32.938249267686274 27.7814062500001 32.331210991639146 28.4196093750001 Q 31.75910192492695 29.0578125000001 31.215240298377317 29.6887500000001 Q 30.712629328625795 30.319687500000093 30.242882981551112 30.943359375000096 Q 29.81918161886197 31.5670312500001 29.431292521290448 32.183437500000096 Q 29.092689537413218 32.79984375000009 28.791210781734996 33.4089843750001 Q 28.54073114722779 34.018125000000104 28.327134577859475 34.620000000000104 Q 28.16482437066399 35.2200000000001 28.03314761856268 35.805000000000106 Q 27.95002589333599 36.3900000000001 27.892108180985616 36.96000000000011 Q 27.879306839495676 37.53000000000011 27.885474879740446 38.08500000000011 Q 27.932536785074426 38.6400000000001 27.99184470150356 39.180000000000106 Q 28.087298795802983 39.72000000000011 28.18807256544445 40.24500000000012 Q 28.319954245880638 40.77000000000011 28.450274922261798 41.280000000000115 Q 28.60657986248409 41.79000000000011 28.754696693080007 42.28500000000011 Q 28.923761640932828 42.780000000000115 29.078431103452477 43.26000000000011 Q 29.24618996943456 43.73812500000011 29.380255016305743 44.19117187500011 Q 29.525442660206558 44.64421875000011 29.631211525057328 45.072187500000105 Q 29.744015914427354 45.5001562500001 29.81288580853616 45.9030468750001 Q 29.88549608722234 46.3059375000001 29.91078697637693 46.6837500000001 Q 29.937268307787217 47.06156250000009 29.914065142030704 47.414296875000105 Q 29.890177086991592 47.7670312500001 29.8151283444143 48.094687500000106 Q 29.738109043245945 48.42234375000011 29.609201613666162 48.72492187500011 Q 29.477536027637605 49.02750000000011 29.293862436218788 49.30500000000011 Q 29.20149739061575 49.443750000000115 29.092781951992098 49.57382812500012 Q 28.983294352623563 49.70390625000012 28.85758282875306 49.82531250000011 Q 28.73113248300018 49.9467187500001 28.588605440503464 50.059453125000104 Q 28.445388863534376 50.172187500000106 28.286257203185414 50.276250000000104 Q 28.126497108338413 50.3803125000001 27.950992097120544 50.47570312500011 Q 27.7749277955424 50.5710937500001 27.583292006157407 50.657812500000105 Q 27.391170712045916 50.744531250000115 27.18364985947208 50.82257812500011 Q 26.97571888561078 50.90062500000011 26.752554540393987 50.9700000000001 Q 26.52905436009266 51.03937500000009 26.290477511056196 51.100078125000095 Q 26.0516356568103 51.1607812500001 25.797861091471532 51.2128125000001 Q 25.54388685731527 51.26484375000009 25.275108326190857 51.3082031250001 Q 25.006188239535863 51.3515625000001 24.722574370401087 51.386250000000096 Q 24.438868399829893 51.42093750000009 24.140559329585443 51.4469531250001 Q 23.84219779732589 51.47296875000009 23.529302492141102 51.4903125000001 Q 23.216383663516048 51.5076562500001 22.888977902105143 51.5163281250001 Q 22.561566228880015 51.5250000000001 22.219691228880013 51.5250000000001 L 22.219691228880013 51.5250000000001 L 21.247191228880013 51.5250000000001 L 20.274691228880016 51.5250000000001 L 19.302191228880016 51.5250000000001 L 18.329691228880016 51.5250000000001 L 19.01349008627566 52.324687500000095 L 19.639209290563226 53.12437500000009 L 20.199741845598226 53.92406250000009 L 20.68872115326411 54.723750000000095 L 21.100593326081473 55.52343750000011 L 21.430680268949214 56.323125000000104 L 21.67523281352755 57.1228125000001 L 21.83147330175591 57.9225000000001 L 21.89762713483687 58.722187500000096 L 21.87294292934888 59.521875000000094 L 21.757701051552118 60.32156250000009 L 21.553210432953843 61.1212500000001 L 21.261793703302356 61.92093750000011 L 20.886760809870953 62.720625000000105 L 20.43237142266722 63.5203125000001 L 19.90378655257404 64.3200000000001 L 19.30700993194939 65.1196875000001 L 18.648819823491362 65.91937500000009 L 17.936692031891766 66.71906250000009 L 17.17871499272137 67.5187500000001 L 16.38349790297796 68.3184375000001 L 15.560072936761559 69.1181250000001 L 14.717792656723391 69.91781250000011 L 13.866223786502111 70.7175000000001 L 13.015038550692962 71.51718750000009 L 12.17390481652411 72.3168750000001 L 11.352376285024347 73.1165625000001 L 10.559783978904733 73.9162500000001 L 9.805130259648116 74.71593750000011 L 9.096986577573503 75.51562500000011 L 8.443396116242713 76.3153125000001 L 7.851782436986334 77.1150000000001 L 6.983032436986334 77.1150000000001 L 6.114282436986334 77.1150000000001 L 5.245532436986333 77.1150000000001 L 4.376782436986333 77.1150000000001 L 3.5080324369863325 77.1150000000001 L 2.639282436986332 77.1150000000001 L 1.7705324369863327 77.1150000000001 L 0.9017824369863332 77.1150000000001 L 0.03303243698633285 77.1150000000001 L -0.8357175630136675 77.1150000000001 L -1.7044675630136679 77.1150000000001 L -2.5732175630136673 77.1150000000001 L -3.4419675630136677 77.1150000000001 L -4.310717563013668 77.1150000000001 L -5.1794675630136675 77.1150000000001 L -6.048217563013668 77.1150000000001 L -5.132698113916265 75.9100781250001 L -4.08498621201663 74.7051562500001 L -2.932065639151957 73.5002343750001 L -1.7036298226446094 72.29531250000011 L -0.43131708216391507 71.0903906250001 L 0.8521042140434629 69.8854687500001 L 2.1135795972831453 68.6805468750001 L 3.3206198150491026 67.47562500000011 L 4.442137590537604 66.27070312500011 L 5.4492482743278625 65.0657812500001 L 6.3160137674748755 63.860859375000096 L 7.020110556302117 62.6559375000001 L 7.5434046536824635 61.4510156250001 L 7.872418639215492 60.24609375000011 L 7.998678769698598 59.04117187500011 L 7.918933220074224 57.836250000000106 L 7.635235834065678 56.631328125000095 L 7.1548932275069195 55.4264062500001 L 6.490276606718122 54.2214843750001 L 5.658503148537919 53.016562500000106 L 4.68099514805795 51.81164062500011 L 3.582928288193767 50.6067187500001 L 2.392583240889203 49.401796875000095 L 1.1406172994414354 48.1968750000001 L -0.1407251989702068 46.9919531250001 L -1.4184433250127597 45.7870312500001 L -2.6596294949314983 44.5821093750001 L -3.832317004169809 43.377187500000105 L -4.906303328679676 42.17226562500011 L -5.8539279898274525 40.967343750000104 L -6.650784949012613 39.7624218750001 L -7.276351184302181 38.557500000000104 L -7.7145152601124165 37.35257812500011 L -7.95399227664488 36.147656250000104 L -7.988614512069335 34.9427343750001 L -7.817490271974642 33.7378125000001 L -7.4450268549258 32.53289062500011 L -6.880817042650085 31.327968750000103 L -6.139392038293382 30.123046875000107 L -5.23984721581292 28.918125000000103 L -4.205350319317179 27.713203125000103 L -3.0625447786609814 26.508281250000106 L -1.8408635088808956 25.303359375000106 L -0.5717708665415495 24.098437500000102 L 0.7120477136206435 22.893515625000102 L 1.9775275308775102 21.688593750000102 L 3.1920761986709185 20.483671875000105 L 4.324413060340391 19.278750000000105 L 5.345374821294996 18.073828125000105 L 6.2286666486023226 16.86890625000011 L 6.951539393452057 15.663984375000105 L 7.4953754946542075 14.459062500000105 L 7.8461684732488255 13.254140625000106 L 7.994883668860996 12.049218750000104 L 7.9376909270494 10.844296875000104 L 7.676063244794336 9.639375000000106 L 7.216738833514177 8.434453125000108 L 6.571547576675952 7.229531250000106 L 5.757106351577932 6.0246093750001055 L 4.79439106228061 4.819687500000106 L 3.7081964059623305 3.614765625000106 L 2.5264972863974093 2.4098437500001064 L 1.2797283213292896 1.2049218750001065 L 1.1368683772161603e-13 1.0658141036401503e-13 L 1.1368683772161603e-13 1.0658141036401503e-13 Z M 23.744637280808128 16.84500000000009 L 23.744637280808128 16.84500000000009 L 22.84463728080813 16.84500000000009 L 21.944637280808127 16.84500000000009 L 21.044637280808125 16.84500000000009 L 20.144637280808126 16.84500000000009 L 19.341202464561647 17.952187500000093 L 18.41940195562376 19.05937500000009 L 17.399288225203605 20.16656250000009 L 16.303052410115445 21.273750000000092 L 15.154541575865697 22.380937500000094 L 13.978739957344517 23.488125000000093 L 12.801225461999827 24.59531250000009 L 11.647613258501313 25.702500000000093 L 10.542998554839059 26.809687500000095 L 9.51141068743414 27.916875000000093 L 8.575290396783286 29.024062500000092 L 7.75500166076952 30.131250000000094 L 7.0683887050171625 31.238437500000096 L 6.530387826906766 32.3456250000001 L 6.1527024774716095 33.45281250000009 L 5.943548669311192 34.560000000000095 L 6.628548669311191 34.560000000000095 L 7.313548669311191 34.560000000000095 L 7.998548669311192 34.560000000000095 L 8.68354866931119 34.560000000000095 Q 9.024798669311192 34.560000000000095 9.358678035600482 34.527187500000096 Q 9.69270962183545 34.4943750000001 10.019979154525313 34.42875000000009 Q 10.347856639033846 34.363125000000096 10.670186286413548 34.26468750000009 Q 10.993879822125521 34.166250000000105 11.313838091486192 34.035000000000096 Q 11.636209139479279 33.903750000000095 11.957241454312644 33.739687500000095 Q 12.28201461435602 33.5756250000001 12.608403926839975 33.3787500000001 Q 12.940117471856707 33.181875000000105 13.276918223374485 32.9521875000001 Q 13.62084356187428 32.7225000000001 13.973778130796706 32.46000000000011 Q 14.335361277382228 32.195625000000106 14.697947690491787 31.8817968750001 Q 15.07307422197243 31.567968750000098 15.45656551080177 31.204687500000098 Q 15.856037829794209 30.841406250000098 16.271594655913514 30.428671875000095 Q 16.706356774084647 30.0159375000001 17.164744770070012 29.553750000000097 Q 17.644896821230027 29.091562500000094 18.15532981827311 28.579921875000093 Q 18.688846070940524 28.068281250000094 19.25752658800953 27.507187500000093 Q 19.84867856092475 26.94609375000009 20.47706065784402 26.33554687500009 Q 21.124594299708207 25.725000000000094 21.807451672771435 25.065000000000097 L 21.807451672771435 25.065000000000097 Q 22.290330750905806 24.6056250000001 22.731445522463293 24.1682812500001 Q 23.17475648142674 23.730937500000095 23.572693997403714 23.315625000000097 Q 23.969826196785966 22.900312500000094 24.31903462571698 22.507031250000097 Q 24.665159887102934 22.113750000000095 24.961761340741106 21.7425000000001 Q 25.253654960052828 21.3712500000001 25.49525144576822 21.0220312500001 Q 25.73108679084868 20.6728125000001 25.91654828182195 20.345625000000098 Q 26.095679887603062 20.0184375000001 26.22492764305288 19.713281250000104 Q 26.347674546336375 19.408125000000105 26.421469739131243 19.125000000000107 Q 26.490524495742275 18.840000000000103 26.498192868024567 18.590625000000102 Q 26.50041918978495 18.3412500000001 26.443893912814374 18.1275000000001 Q 26.38306185485269 17.9137500000001 26.26606303749378 17.7356250000001 Q 26.145900965009723 17.557500000000097 25.971942949719224 17.415000000000095 Q 25.795874251521397 17.272500000000093 25.5680402651714 17.16562500000009 Q 25.338982801712078 17.058750000000096 25.059757314378768 16.987500000000093 Q 24.77997692843365 16.91625000000009 24.451127283055705 16.88062500000009 Q 24.122137280808126 16.84500000000009 23.744637280808128 16.84500000000009 L 23.744637280808128 16.84500000000009 Z" fill="black" stroke="black" />
				</svg>