<svg
					xmlns="http://www.w3.org/2000/svg" xmlns:xlink="http://www.w3.org/1999/xlink"
					style="
						overflow: visible;
						height: 100;
					"
					viewBox="-6.048217563013593 0 60.258214125967484 77.115"
				>
					<path d="M 27.29597081768394 39.31499999999999 L 28.56222110091858 40.49624999999999 L 29.981572573141356 41.67749999999999 L 31.53242706775457 42.858749999999986 L 33.18993105910372 44.03999999999999 L 34.926590911833486 45.22124999999999 L 36.71295348619419 46.40249999999999 L 38.51833525090547 47.58374999999998 L 40.31158185437857 48.764999999999986 L 42.061839351101476 49.94624999999999 L 43.7393179914678 51.12749999999999 L 45.316029667421894 52.30874999999999 L 46.76648075844351 53.489999999999995 L 48.06830322646067 54.67125 L 49.202808336927674 55.8525 L 50.15544929869568 57.03374999999999 L 50.91618137001985 58.21499999999999 L 51.4797105162739 59.396249999999995 L 51.84562446384726 60.577499999999986 L 52.018402905983756 61.75874999999999 L 52.007306607916135 62.93999999999999 L 51.82614815650043 64.12124999999999 L 51.492950029445744 65.3025 L 51.029498448640524 66.48375 L 50.460804061941815 67.66499999999999 L 49.81448280425709 68.84625 L 49.12007226471078 70.0275 L 48.408300483235145 71.20875 L 47.71032527753581 72.39 L 47.056962930902785 73.57124999999999 L 46.47792533471044 74.7525 L 46.001084470153906 75.93374999999999 L 45.65178243698641 77.115 L 45.14990743698641 77.115 L 44.64803243698641 77.115 L 44.146157436986414 77.115 L 43.64428243698641 77.115 L 43.1424074369864 77.115 L 42.640532436986405 77.115 L 42.138657436986406 77.115 L 41.63678243698641 77.115 L 41.13490743698641 77.115 L 40.63303243698641 77.115 L 40.13115743698641 77.115 L 39.62928243698641 77.115 L 39.1274074369864 77.115 L 38.625532436986404 77.115 L 38.123657436986406 77.115 L 37.62178243698641 77.115 L 37.11990743698641 77.115 L 36.61803243698641 77.115 L 36.11615743698641 77.115 L 35.61428243698641 77.115 L 35.1124074369864 77.115 L 34.610532436986404 77.115 L 34.108657436986405 77.115 L 33.60678243698641 77.115 L 33.10490743698641 77.115 L 32.60303243698641 77.115 L 32.10115743698641 77.115 L 31.599282436986407 77.115 L 31.0974074369864 77.115 L 30.595532436986403 77.115 L 30.093657436986405 77.115 L 29.591782436986406 77.115 L 29.83443883956697 76.3621875 L 30.132392155388576 75.609375 L 30.479497143563357 74.8565625 L 30.869113768828797 74.10374999999999 L 31.294174044687292 73.35093749999999 L 31.74725318459577 72.59812499999998 L 32.22064434494878 71.84531249999999 L 32.70643620744099 71.0925 L 33.19659261981191 70.3396875 L 33.683033493254804 69.58687499999999 L 34.15771614212077 68.8340625 L 34.61271624709718 68.08125 L 35.04030762682942 67.32843749999998 L 35.433040014950464 66.57562499999999 L 35.78381405956132 65.8228125 L 36.08595279016618 65.07 L 36.333268832627354 64.31718749999999 L 36.520126695508125 63.564375 L 36.64149950078666 62.8115625 L 36.69301958785071 62.05874999999999 L 36.671022481358676 61.305937499999985 L 36.57258378035641 60.55312499999999 L 36.39554859729887 59.80031249999999 L 36.13855325062289 59.04749999999999 L 35.801038992499244 58.294687499999995 L 35.38325763357062 57.541875 L 34.88626900805343 56.7890625 L 34.31193030472114 56.036249999999995 L 33.66287737117101 55.283437499999984 L 32.942498179578116 54.530624999999986 L 32.15489872104863 53.77781249999999 L 31.304861671903062 53.02499999999999 L 31.531773721048626 53.77781249999999 L 31.696248179578117 54.530624999999986 L 31.79350237117101 55.283437499999984 L 31.819430304721138 56.036249999999995 L 31.77064400805343 56.7890625 L 31.644507633570623 57.541875 L 31.439163992499246 58.294687499999995 L 31.153553250622892 59.04749999999999 L 30.787423597298865 59.80031249999999 L 30.341333780356415 60.55312499999999 L 29.81664748135868 61.305937499999985 L 29.215519587850714 62.05874999999999 L 28.54087450078666 62.8115625 L 27.796376695508123 63.564375 L 26.986393832627357 64.31718749999999 L 26.115952790166187 65.07 L 25.190689059561322 65.8228125 L 24.216790014950465 66.57562499999999 L 23.20093262682942 67.32843749999998 L 22.15021624709718 68.08125 L 21.072091142120772 68.8340625 L 19.974283493254802 69.58687499999999 L 18.864717619811913 70.3396875 L 17.751436207440985 71.0925 L 16.642519344948784 71.84531249999999 L 15.546003184595772 72.59812499999998 L 14.469799044687296 73.35093749999999 L 13.421613768828797 74.10374999999999 L 12.408872143563356 74.8565625 L 11.438642155388575 75.609375 L 10.517563839566966 76.3621875 L 9.651782436986405 77.115 L 8.670532436986406 77.115 L 7.689282436986406 77.115 L 6.708032436986405 77.115 L 5.726782436986405 77.115 L 4.745532436986406 77.115 L 3.7642824369864067 77.115 L 2.7830324369864075 77.115 L 1.8017824369864064 77.115 L 0.8205324369864062 77.115 L -0.16071756301359397 77.115 L -1.1419675630135933 77.115 L -2.1232175630135934 77.115 L -3.1044675630135936 77.115 L -4.085717563013594 77.115 L -5.066967563013593 77.115 L -6.048217563013593 77.115 L -4.577174827925323 75.88312499999999 L -2.9685673608236978 74.65125 L -1.2513360124136044 73.419375 L 0.5426544870013312 72.1875 L 2.379473245303628 70.955625 L 4.224036542186466 69.72375 L 6.041052193991435 68.491875 L 7.795969529851467 67.25999999999999 L 9.45590940818865 66.02812499999999 L 10.990549239879623 64.79624999999999 L 12.37293919550812 63.564374999999984 L 13.58022762647376 62.33249999999999 L 14.594276173459246 61.100624999999994 L 15.40214800509509 59.86874999999999 L 15.996456044674167 58.63687499999999 L 16.375561811535572 57.404999999999994 L 16.54361952481159 56.173125 L 16.510464282376727 54.94125 L 16.29134732493806 53.709374999999994 L 15.906525511286727 52.4775 L 15.380716054996327 51.245625000000004 L 14.742431199674515 50.01375 L 14.023210741623803 48.78187499999999 L 13.256773058456618 47.55 L 12.47810749582262 46.318124999999995 L 11.722532542897545 45.08624999999999 L 11.024745148162403 43.854375 L 10.417886765483093 42.622499999999995 L 9.932651270162904 41.390624999999986 L 9.596458757606985 40.15874999999999 L 9.432717463844972 38.926874999999995 L 9.460193675140683 37.69499999999999 L 8.665954714598358 36.517031249999995 L 8.06625105670332 35.3390625 L 7.6634910433267125 34.16109374999999 L 7.455234665809735 32.983124999999994 L 7.434253632996335 31.805156249999996 L 7.588709317007187 30.627187499999994 L 7.9024441960932865 29.449218749999993 L 8.355379619840924 28.271249999999995 L 8.924010104560685 27.093281249999997 L 9.581981990316859 25.915312499999995 L 10.300742214242403 24.737343749999994 L 11.050241228664708 23.559374999999996 L 11.799672759632639 22.381406249999998 L 12.51823219449996 21.203437499999996 L 13.175874928610828 20.025468749999995 L 13.74405600213985 18.847499999999997 L 14.1964328187375 17.66953125 L 14.509513646482175 16.491562499999997 L 14.663235936369157 15.313593749999997 L 14.641460221315775 14.135624999999997 L 14.432367436897362 12.957656249999998 L 14.028749882588517 11.779687499999998 L 13.428188660637796 10.601718749999998 L 12.633113224392941 9.423749999999998 L 11.650741570118422 8.245781249999999 L 10.49290254466065 7.067812499999999 L 9.175744643383476 5.889843749999999 L 7.719338467174371 4.711874999999999 L 6.147182625218352 3.5339062499999994 L 4.485625247204821 2.3559374999999996 L 2.76321534615598 1.1779687499999998 L 1.0099999999999998 0 L 1.9731249999999998 0 L 2.93625 0 L 3.899375 0 L 4.8625 0 L 5.8256250000000005 0 L 6.78875 0 L 7.751875 0 L 8.715 0 L 9.678125 0 L 10.64125 0 L 11.604375 0 L 12.567499999999999 0 L 13.530624999999999 0 L 14.493749999999999 0 L 15.456874999999998 0 L 16.419999999999998 0 L 17.50450218831533 0.7457812499999998 L 18.581158043257133 1.4915624999999997 L 19.64219875064952 2.2373437499999995 L 20.680009768847654 2.9831249999999994 L 21.6872060579092 3.728906249999999 L 22.65670504136432 4.474687499999999 L 23.581796579745845 5.220468749999998 L 24.45620926456415 5.966249999999999 L 25.274172377764042 6.712031249999999 L 26.030472904524462 7.457812499999998 L 26.72050703613343 8.203593749999998 L 27.340325654106593 8.949374999999998 L 27.886673346181265 9.695156249999998 L 28.357020568720795 10.440937499999997 L 28.749588637775197 11.186718749999997 L 29.063367301894587 11.932499999999997 L 29.29812472308184 12.678281249999996 L 29.454409767275877 13.424062499999998 L 29.533546581736385 14.169843749999998 L 29.537621512903648 14.915624999999997 L 29.469462493980696 15.661406249999995 L 29.33261110588171 16.407187499999996 L 29.131287587575386 17.15296875 L 28.870349141509475 17.898749999999996 L 28.55524194604531 18.644531249999993 L 28.191947349003694 19.390312499999997 L 27.786922773912217 20.136093749999997 L 27.34703792278087 20.881874999999994 L 26.879506905701664 21.627656249999994 L 26.391816967809422 22.373437499999994 L 25.89165451775806 23.119218749999995 L 25.386829188526665 23.864999999999995 L 26.46102951775806 23.119218749999995 L 27.530566967809424 22.373437499999994 L 28.587631905701667 21.627656249999994 L 29.624537922780874 20.881874999999994 L 30.63379777391222 20.136093749999997 L 31.608197349003696 19.390312499999997 L 32.540866946045305 18.644531249999993 L 33.42534914150948 17.898749999999996 L 34.255662587575394 17.15296875 L 35.02636110588172 16.407187499999996 L 35.732587493980695 15.661406249999995 L 36.37012151290365 14.915624999999997 L 36.935421581736385 14.169843749999998 L 37.425659767275874 13.424062499999998 L 37.83874972308185 12.678281249999996 L 38.17336730189459 11.932499999999997 L 38.4289636377752 11.186718749999997 L 38.6057705687208 10.440937499999997 L 38.70479834618126 9.695156249999998 L 38.72782565410659 8.949374999999998 L 38.67738203613344 8.203593749999998 L 38.55672290452446 7.457812499999998 L 38.36979737776404 6.712031249999999 L 38.12120926456415 5.966249999999999 L 37.81617157974584 5.220468749999998 L 37.46045504136433 4.474687499999999 L 37.0603310579092 3.728906249999999 L 36.62250976884766 2.9831249999999994 L 36.15407375064952 2.2373437499999995 L 35.66240804325713 1.4915624999999997 L 35.155127188315326 0.7457812499999998 L 34.64 0 L 35.63 0 L 36.620000000000005 0 L 37.61 0 L 38.6 0 L 39.59 0 L 40.58 0 L 41.57 0 L 42.56 0 L 43.55 0 L 44.54 0 L 45.53 0 L 46.519999999999996 0 L 47.51 0 L 48.5 0 L 49.489999999999995 0 L 50.48 0 L 51.27589674926478 1.2285937499999997 L 52.03686212831269 2.4571874999999994 L 52.72890003973226 3.685781249999999 L 53.319859890185185 4.914374999999999 L 53.780297409075644 6.142968749999998 L 54.084263006561784 7.371562499999998 L 54.20999656295389 8.600156249999998 L 54.140510046804096 9.828749999999998 L 53.864042362332434 11.057343749999998 L 53.374374247839825 12.285937499999996 L 52.67099479383487 13.514531249999997 L 51.75911512242155 14.743124999999996 L 50.64952886168767 15.971718749999996 L 49.358323150834124 17.200312499999995 L 47.90644791376142 18.428906249999997 L 46.31915493363278 19.657499999999995 L 44.62532174695755 20.886093749999993 L 42.85667845964745 22.114687499999995 L 41.046958186721966 23.343281249999993 L 39.23099386228401 24.57187499999999 L 37.4437856023002 25.800468749999993 L 35.71956359115682 27.029062499999995 L 34.090871582811346 28.257656249999997 L 32.58769555541228 29.48624999999999 L 31.236660849294783 30.71484374999999 L 30.060319284646177 31.94343749999999 L 29.07654534596701 33.17203124999999 L 28.298057600235826 34.40062499999999 L 27.73207816260595 35.62921874999999 L 27.38013932729747 36.857812499999994 L 27.238042541061343 38.08640624999999 L 27.29597081768394 39.31499999999999 L 27.29597081768394 39.31499999999999 Z" fill="black" stroke="black" />
				</svg>