<svg
					xmlns="http://www.w3.org/2000/svg" xmlns:xlink="http://www.w3.org/1999/xlink"
					style="
						overflow: visible;
						height: 100;
					"
					viewBox="-2.243740271974618 0 81.049712449024 77.115"
				>
					<path d="M 59.260000000000005 0 L 60.096875000000004 0 L 60.93375 0 L 61.77062500000001 0 L 62.60750000000001 0 L 63.44437500000001 0 L 64.28125000000001 0 L 65.11812500000002 0 L 65.95500000000001 0 L 66.791875 0 L 67.62875000000001 0 L 68.46562500000002 0 L 69.30250000000001 0 L 70.139375 0 L 70.97625000000001 0 L 71.81312500000001 0 L 72.65 0 L 73.73175957132918 1.204921875 L 74.7805597863973 2.40984375 L 75.76429015596223 3.6147656249999995 L 76.65251606228053 4.8196875 L 77.41726260157785 6.024609374999999 L 78.03373507667588 7.229531249999999 L 78.48095758351413 8.434453125000001 L 78.7423132447943 9.639375 L 78.80597217704938 10.844296874999998 L 78.66519616886099 12.049218749999998 L 78.31851222324885 13.254140625 L 77.76975049465423 14.459062499999998 L 77.0279456434521 15.663984374999998 L 76.10710414860239 16.868906250000002 L 75.02584357129507 18.073828125 L 73.80691306034049 19.27875 L 72.47660744867103 20.483671875 L 71.06409003087764 21.688593749999995 L 69.60064146362078 22.893515624999996 L 68.11885413345857 24.098437499999996 L 66.65179274111922 25.303359375 L 65.23214272133913 26.50828125 L 63.891368430682924 27.713203124999996 L 62.65890278418718 28.918124999999996 L 61.5613892117067 30.123046875 L 60.62199545734998 31.327968749999997 L 59.859816895074246 32.532890625 L 59.28938472802538 33.737812500000004 L 58.920291737930675 34.942734375 L 58.75694522335511 36.14765625 L 58.79845348988755 37.352578125 L 59.03864881569777 38.5575 L 59.46624630098732 39.762421874999994 L 60.06513451017246 40.96734375 L 60.814790421320225 42.172265624999994 L 61.690807995830085 43.37718749999999 L 62.665526755068385 44.58210937499999 L 63.70874417498712 45.78703124999999 L 64.78849355102967 46.991953124999995 L 65.87186729944132 48.19687499999999 L 66.9258644908891 49.40179687499999 L 67.91824078819367 50.60671875 L 68.81833889805786 51.811640625 L 69.59787814853783 53.0165625 L 70.23168285671805 54.221484374999996 L 70.69833072750687 55.42640624999999 L 70.98070458406563 56.63132812499999 L 71.0664332200742 57.83624999999999 L 70.9482100196986 59.041171875 L 70.62398113921552 60.24609375 L 70.0969984036825 61.451015625 L 69.37573555630217 62.65593749999999 L 68.47367001747494 63.86085937499999 L 67.40893577432794 65.06578125 L 66.2038563405377 66.27070312500001 L 64.88436981504921 67.47562500000001 L 63.47936084728325 68.680546875 L 62.019916714043575 69.88546875 L 60.538526667836194 71.090390625 L 59.0682451773555 72.2953125 L 57.641840610848156 73.500234375 L 56.290951287983475 74.70515625 L 55.04527063608383 75.910078125 L 53.93178243698641 77.115 L 53.41865743698641 77.115 L 52.905532436986405 77.115 L 52.3924074369864 77.115 L 51.87928243698641 77.115 L 51.36615743698641 77.115 L 50.85303243698641 77.115 L 50.33990743698641 77.115 L 49.826782436986406 77.115 L 49.313657436986404 77.115 L 48.80053243698641 77.115 L 48.28740743698641 77.115 L 47.77428243698641 77.115 L 47.26115743698641 77.115 L 46.748032436986406 77.115 L 46.234907436986404 77.115 L 45.72178243698641 77.115 L 45.208657436986414 77.115 L 44.69553243698641 77.115 L 44.18240743698641 77.115 L 43.66928243698641 77.115 L 43.156157436986405 77.115 L 42.64303243698641 77.115 L 42.129907436986414 77.115 L 41.61678243698641 77.115 L 41.10365743698641 77.115 L 40.59053243698641 77.115 L 40.077407436986405 77.115 L 39.56428243698641 77.115 L 39.051157436986415 77.115 L 38.53803243698641 77.115 L 38.02490743698641 77.115 L 37.51178243698641 77.115 L 38.14814904434515 76.06546875000001 L 38.88732673400367 75.01593749999999 L 39.71187048105738 73.96640624999999 L 40.60266630564444 72.916875 L 41.5393049621194 71.86734375 L 42.50048095140932 70.8178125 L 43.464409055633915 69.76828125 L 44.40925025150122 68.71875 L 45.313538675629545 67.66921875 L 46.156601294381176 66.6196875 L 46.91896207342362 65.57015625 L 47.58272274527398 64.520625 L 48.13191273060446 63.471093749999994 L 48.55280137214824 62.42156249999999 L 48.834166376855705 61.37203125 L 48.96751321810403 60.32249999999999 L 48.94724120852227 59.27296874999999 L 48.77075299661373 58.223437499999996 L 48.43850534645445 57.17390624999999 L 47.95400020769583 56.124374999999986 L 47.323716250457935 55.07484374999999 L 46.556982203645134 54.025312499999984 L 45.66579447299213 52.97578124999998 L 44.66458260451132 51.92624999999999 L 43.56992717866419 50.876718749999995 L 42.4002356505864 49.827187499999994 L 41.17538247387429 48.777656249999986 L 39.91632054371731 47.72812499999999 L 38.64467155588428 46.67859374999999 L 37.382303290277974 45.62906249999999 L 36.150902083405086 44.579531249999995 L 34.97154884816763 43.529999999999994 Q 34.44822998020889 43.04249999999999 33.62710282449427 42.23249999999999 Q 33.23726105811149 41.82749999999999 32.79117379165054 41.34187499999999 Q 32.368449595977864 40.856249999999996 31.908154702759102 40.29 Q 31.48387879355053 39.723749999999995 31.070055478171206 39.116249999999994 Q 30.702191071270995 38.50874999999999 30.36132600849579 37.85999999999999 Q 30.07694419128359 37.21124999999999 29.83728255911906 36.52124999999999 Q 29.66445178938365 35.83124999999999 29.554195817381732 35.09999999999999 Q 29.51687265906803 34.37249999999999 29.559440551826917 33.65156249999999 Q 29.67400140043184 32.93062499999999 29.862675436817838 32.216249999999995 Q 30.117663516952767 31.501875 30.43875451447261 30.794062500000003 Q 30.81834649399654 30.08625 31.254233440357787 29.385000000000005 Q 31.744695303383114 28.68 32.23887314477043 28.0303125 Q 32.76671678112957 27.380624999999995 33.27820734639783 26.786249999999995 Q 33.81062818713751 26.191875 34.31164330899731 25.6528125 Q 34.82402642447055 25.11375 35.29458799266001 24.630000000000003 L 35.29458799266001 24.630000000000003 Q 34.75152642447055 25.11375 34.146643308997305 25.6528125 Q 33.55312818713751 26.191875 32.90820734639783 26.786249999999995 Q 32.28421678112957 27.380624999999995 31.62387314477043 28.0303125 Q 30.99719530338312 28.68 30.35423344035779 29.385000000000005 Q 29.765846493996538 30.08625 29.224379514472613 30.794062500000003 Q 28.74141351695277 31.501875 28.31517543681784 32.216249999999995 Q 27.95525140043184 32.93062499999999 27.660065551826918 33.65156249999999 Q 27.436872659068033 34.37249999999999 27.28419581738173 35.09999999999999 Q 27.20695178938364 35.83124999999999 27.20103255911905 36.52124999999999 Q 27.261944191283586 37.21124999999999 27.37632600849579 37.85999999999999 Q 27.547191071270994 38.50874999999999 27.753805478171202 39.116249999999994 Q 28.00637879355053 39.723749999999995 28.2781547027591 40.29 Q 28.583449595977864 40.856249999999996 28.87242379165054 41.34187499999999 Q 29.18476105811149 41.82749999999999 29.462102824494274 42.23249999999999 Q 30.058229980208893 43.04249999999999 30.441548848167628 43.529999999999994 L 30.441548848167628 43.529999999999994 L 31.312464583405088 44.579531249999995 L 32.23542829027798 45.62906249999999 L 33.18935905588428 46.67859374999999 L 34.15257054371731 47.72812499999999 L 35.10319497387429 48.777656249999986 L 36.0196106505864 49.827187499999994 L 36.88086467866419 50.876718749999995 L 37.667082604511315 51.92624999999999 L 38.35985697299213 52.97578124999998 L 38.942607203645125 54.025312499999984 L 39.400903750457935 55.07484374999999 L 39.722750207695825 56.124374999999986 L 39.89881784645444 57.17390624999999 L 39.92262799661373 58.223437499999996 L 39.79067870852227 59.27296874999999 L 39.50251321810403 60.32249999999999 L 39.060728876855705 61.37203125 L 38.47092637214824 62.42156249999999 L 37.74160023060447 63.471093749999994 L 36.88397274527399 64.520625 L 35.91177457342362 65.57015625 L 34.84097629438117 66.6196875 L 33.68947617562954 67.66921875 L 32.476750251501215 68.71875 L 31.223471555633914 69.76828125 L 29.951105951409314 70.8178125 L 28.68149246211939 71.86734375 L 27.436416305644435 72.916875 L 26.237182981057373 73.96640624999999 L 25.104201734003667 75.01593749999999 L 24.056586544345148 76.06546875000001 L 23.111782436986402 77.115 L 22.598657436986404 77.115 L 22.085532436986405 77.115 L 21.572407436986403 77.115 L 21.059282436986404 77.115 L 20.546157436986405 77.115 L 20.033032436986403 77.115 L 19.519907436986404 77.115 L 19.006782436986406 77.115 L 18.493657436986403 77.115 L 17.980532436986405 77.115 L 17.467407436986406 77.115 L 16.954282436986404 77.115 L 16.441157436986405 77.115 L 15.928032436986406 77.115 L 15.414907436986404 77.115 L 14.901782436986405 77.115 L 14.388657436986406 77.115 L 13.875532436986404 77.115 L 13.362407436986405 77.115 L 12.849282436986407 77.115 L 12.336157436986404 77.115 L 11.823032436986406 77.115 L 11.309907436986407 77.115 L 10.796782436986405 77.115 L 10.283657436986406 77.115 L 9.770532436986407 77.115 L 9.257407436986405 77.115 L 8.744282436986406 77.115 L 8.231157436986408 77.115 L 7.718032436986406 77.115 L 7.2049074369864075 77.115 L 6.691782436986407 77.115 L 7.408239386083824 75.910078125 L 8.25688878798347 74.70515625 L 9.21074686084815 73.500234375 L 10.240120177355504 72.2953125 L 11.3133704178362 71.090390625 L 12.397729214043578 69.88546875 L 13.460142097283256 68.680546875 L 14.468119815049207 67.47562500000001 L 15.3905750905377 66.27070312500001 L 16.198623274327947 65.06578125 L 16.866326267474946 63.86085937499999 L 17.37136055630217 62.65593749999999 L 17.6955921536825 61.451015625 L 17.82554363921551 60.24609375 L 17.7527412696986 59.041171875 L 17.47393322007421 57.83624999999999 L 16.991173334065643 56.63132812499999 L 16.311768227506867 55.42640624999999 L 15.448089106718054 54.221484374999996 L 14.417253148537839 53.0165625 L 13.240682648057856 51.811640625 L 11.943553288193664 50.60671875 L 10.554145740889092 49.40179687499999 L 9.103117299441323 48.19687499999999 L 7.622712301029679 46.991953124999995 L 6.1459316749871284 45.78703124999999 L 4.705683005068394 44.58210937499999 L 3.333932995830091 43.37718749999999 L 2.060884171320234 42.172265624999994 L 0.9141970101724697 40.96734375 L -0.08172244901267689 39.762421874999994 L -0.9063511843022276 38.5575 L -1.5435777601124459 37.352578125 L -1.9821172766448907 36.14765625 L -2.215802012069328 34.942734375 L -2.243740271974618 33.737812500000004 L -2.070339354925758 32.532890625 L -1.705192042650026 31.327968749999997 L -1.162829538293308 30.123046875 L -0.46234721581283367 28.918124999999996 L 0.37308718068291746 27.713203124999996 L 1.316830221339123 26.50828125 L 2.3394489911192142 25.303359375 L 3.4094791334585643 24.098437499999996 L 4.494235213620756 22.893515624999996 L 5.56065253087762 21.688593749999995 L 6.576138698671022 20.483671875 L 7.509413060340487 19.27875 L 8.33131232129508 18.073828125 L 9.015541648602394 16.868906250000002 L 9.539351893452114 15.663984374999998 L 9.884125494654246 14.459062499999998 L 10.035855973248847 13.254140625 L 9.985508668861 12.049218749999998 L 9.729253427049386 10.844296874999998 L 9.268563244794304 9.639375 L 8.61017633351413 8.434453125000001 L 7.765922576675887 7.229531249999999 L 6.752418851577853 6.024609374999999 L 5.590641062280518 4.8196875 L 4.30538390596223 3.6147656249999995 L 2.9246222863973013 2.40984375 L 1.4787908213291772 1.204921875 L 0 0 L 0.836875 0 L 1.67375 0 L 2.510625 0 L 3.3475 0 L 4.184375 0 L 5.02125 0 L 5.858125 0 L 6.695 0 L 7.531875 0 L 8.36875 0 L 9.205625000000001 0 L 10.0425 0 L 10.879375 0 L 11.71625 0 L 12.553125000000001 0 L 13.39 0 L 14.849054890041824 1.2084375 L 16.274862338067752 2.416875 L 17.635036181987797 3.6253125 L 18.898890507979317 4.83375 L 20.038234573644434 6.042187500000001 L 21.02810309338094 7.250625 L 21.847402967815572 8.4590625 L 22.479459703677687 9.6675 L 22.912449369025197 10.875937500000001 L 23.13970489395856 12.084375000000001 L 23.1598887820572 13.292812500000002 L 22.977027758423084 14.50125 L 22.60040845676854 15.7096875 L 22.04433684779001 16.918125 L 21.327767640871297 18.126562500000002 L 20.473813259520387 19.335 L 19.509145110604013 20.5434375 L 18.463302657589452 21.751875000000002 L 17.367928196353958 22.9603125 L 16.255947156808073 24.168750000000003 L 15.16071516474115 25.377187500000005 L 14.115153959378754 26.585625000000004 L 13.150898550835905 27.794062500000003 L 12.29747771047918 29.0025 L 11.581549023716573 30.2109375 L 11.026208321286244 31.419375 L 10.650391378329257 32.6278125 L 10.46838338032076 33.83625 L 10.489448863217506 35.04468750000001 L 10.717591714277198 36.253125000000004 L 11.151451450764114 37.4615625 L 11.784338463456553 38.67 Q 12.00425516425891 39.01875 12.292127036481347 39.44625 Q 12.602190872886748 39.873749999999994 12.994938171610531 40.379999999999995 Q 13.416208435384014 40.88624999999999 13.934730013345153 41.47124999999999 Q 14.486542447805185 42.056249999999984 15.147840165160531 42.719999999999985 Q 15.840316645059215 43.379999999999995 16.58878074460262 44.064375 Q 17.3636526843746 44.74875 18.187106111991433 45.457499999999996 Q 19.026290910432913 46.16625 19.90305330856844 46.899375 Q 20.342758484199894 47.26593749999999 20.789211693483235 47.63859374999999 Q 21.234310804417056 48.01124999999999 21.68411207834892 48.389999999999986 Q 22.128534110955776 48.766874999999985 22.565532172376646 49.141406249999996 Q 22.997229222799024 49.51593749999999 23.419715070467443 49.888125 Q 23.835104514716956 50.2603125 24.239638273889287 50.630156250000006 Q 24.63540680910887 51 25.018829748158225 51.36750000000001 Q 25.75400769089459 52.102500000000006 26.43214515951284 52.828125000000014 Q 27.05870270104907 53.55375000000001 27.62039631763921 54.27000000000001 Q 28.122667472624215 54.98625000000001 28.522535925333294 55.6453125 Q 28.86640727287468 56.30437500000001 29.122627104392954 56.90625 Q 29.329171602947913 57.50812499999999 29.464679632618036 58.05281249999999 Q 29.558282962888217 58.59749999999998 29.59769258330264 59.08499999999998 L 29.59769258330264 59.08499999999998 Q 29.632654675828242 58.679999999999986 29.645737875197288 58.25976562499998 Q 29.633804462318025 57.83953124999997 29.596613098950865 57.404062499999974 Q 29.532997305733318 56.968593749999975 29.441055893826945 56.51789062499998 Q 29.321683515200583 56.067187499999974 29.17137129097795 55.60124999999998 Q 28.993139160198936 55.13531249999999 28.781959800492448 54.65414062499998 Q 28.543010312894015 54.17296874999998 28.269873526332105 53.67656249999999 Q 27.96987646077953 53.18015624999999 27.635381168942402 52.66851562499999 Q 27.275811313706246 52.156874999999985 26.88251744749656 51.62999999999998 Q 26.465663852282788 51.10312499999998 26.030043579952988 50.575546874999986 Q 25.576848614268037 50.04796874999998 25.10977718276731 49.51968749999998 Q 24.630246387872962 48.99140624999998 24.142075091704196 48.46242187499999 Q 23.646841715233457 47.93343749999998 23.148448272096584 47.40374999999998 Q 22.648566820277605 46.87406249999998 22.151142806684636 46.343671874999984 Q 21.657871671229575 45.81328124999999 21.172701107248546 45.28218749999999 Q 20.697278488216206 44.751093749999995 20.235511910437946 44.21929687499999 Q 19.788929465286145 43.687499999999986 19.361357993684322 43.154999999999994 Q 18.952486444762265 42.620625 18.573757948892688 42.095625 Q 18.219375532821516 41.57062499999999 17.897698362833992 41.05499999999999 Q 17.603376274974867 40.53937499999999 17.34336031944875 40.033125 Q 17.11288504952617 39.526875000000004 16.917411788762905 39.03 Q 16.752881458423456 38.533125 16.623218321740918 38.045625 Q 16.52517306254427 37.558125000000004 16.461117156935487 37.08 Q 16.428694882251396 36.60187499999999 16.42873771602502 36.13312499999999 Q 16.45984714314035 35.66437499999999 16.52135258028261 35.205 Q 16.612697202642387 34.7475 16.727948838414697 34.309921875 Q 16.870166877664907 33.87234375 17.03095400992628 33.454687500000006 Q 17.21576160572736 33.03703125 17.41387421069583 32.639296875 Q 17.633034335881757 32.2415625 17.86044623694562 31.86375 Q 18.369245272069712 31.108125 18.88321656366298 30.4321875 Q 19.448694671834684 29.756249999999998 19.987954703749313 29.159999999999997 L 19.987954703749313 29.159999999999997 L 20.881385445720653 28.248749999999994 L 21.84382117963858 27.3375 L 22.86315886960537 26.42625 L 23.926456511672864 25.514999999999997 L 25.020123952024743 24.603749999999994 L 26.13012326154435 23.692499999999995 L 27.242175712425766 22.781249999999996 L 28.341972305144356 21.869999999999997 L 29.415384741756668 20.95875 L 30.44867373491831 20.0475 L 31.42869158129124 19.136249999999997 L 32.34307601257812 18.224999999999998 L 33.180432466025 17.31375 L 33.93050208697804 16.402499999999996 L 34.58431298644803 15.491249999999997 L 35.13431252352628 14.579999999999998 L 35.57447866226684 13.66875 L 35.90040876117827 12.757499999999999 L 36.10938448620384 11.846249999999998 L 36.200411890106935 10.934999999999999 L 36.1742360673271 10.02375 L 36.03333016823414 9.112499999999999 L 35.78185893475522 8.201249999999998 L 35.425617295009296 7.289999999999999 L 34.971944922315494 6.378749999999999 L 34.429618018326074 5.467499999999999 L 33.808719915843895 4.5562499999999995 L 33.1204924091694 3.6449999999999996 L 32.377170003977035 2.7337499999999997 L 31.591799530557246 1.8224999999999998 L 30.778047780064302 0.9112499999999999 L 29.950000000000003 0 L 30.755625000000002 0 L 31.56125 0 L 32.366875 0 L 33.1725 0 L 33.978125 0 L 34.78375 0 L 35.589375000000004 0 L 36.395 0 L 37.200625 0 L 38.00625000000001 0 L 38.81187500000001 0 L 39.61750000000001 0 L 40.423125000000006 0 L 41.228750000000005 0 L 42.034375000000004 0 L 42.84 0 L 43.9467977800643 0.9112499999999999 L 45.039299530557244 1.8224999999999998 L 46.103420003977035 2.7337499999999997 L 47.125492409169404 3.6449999999999996 L 48.09246991584389 4.5562499999999995 L 48.992118018326074 5.467499999999999 L 49.813194922315496 6.378749999999999 L 50.54561729500929 7.289999999999999 L 51.18060893475521 8.201249999999998 L 51.71083016823413 9.112499999999999 L 52.1304860673271 10.02375 L 52.435411890106934 10.934999999999999 L 52.62313448620384 11.846249999999998 L 52.69290876117827 12.757499999999999 L 52.64572866226684 13.66875 L 52.484312523526285 14.579999999999998 L 52.21306298644804 15.491249999999997 L 51.83800208697804 16.402499999999996 L 51.366682466025004 17.31375 L 50.80807601257813 18.224999999999998 L 50.172441581291245 19.136249999999997 L 49.47117373491832 20.0475 L 48.71663474175668 20.95875 L 47.921972305144365 21.869999999999997 L 47.10092571242576 22.781249999999996 L 46.26762326154435 23.692499999999995 L 45.436373952024745 24.603749999999994 L 44.62145651167287 25.514999999999997 L 43.836908869605374 26.42625 L 43.096321179638586 27.3375 L 42.41263544572066 28.248749999999994 L 41.79795470374932 29.159999999999997 Q 41.46043415067525 29.72625 41.10690287070896 30.384375000000002 Q 40.80196126764828 31.0425 40.5147732121135 31.7925 Q 40.397635541708986 32.167500000000004 40.29263861540265 32.56546875 Q 40.20863480483035 32.9634375 40.142477666763334 33.384375000000006 Q 40.10065989218704 33.8053125 40.08272331778957 34.24921875 Q 40.09250647480922 34.693124999999995 40.13237917152128 35.16 Q 40.20315768819698 35.625 40.30628229653498 36.099375 Q 40.44123813879071 36.573750000000004 40.61064310415149 37.0575 Q 40.81245290547439 37.54125 41.0502454002033 38.034375000000004 Q 41.32040761021126 38.5275 41.62741178876291 39.03 Q 41.96606319443693 39.5325 42.34164229368043 40.044375 Q 42.7473891862896 40.55625 43.189286510693755 41.0775 Q 43.659058676639845 41.598749999999995 44.163266026894824 42.129374999999996 Q 44.69220234610496 42.66 45.25286493506478 43.199999999999996 Q 45.832989722211884 43.739999999999995 46.428626719537625 44.278359374999994 Q 47.03952383119244 44.81671874999999 47.66025785303548 45.3534375 Q 48.2905694953336 45.890156250000004 48.92490738960946 46.425234375 Q 49.56303137547977 46.96031250000001 50.19935765491149 47.493750000000006 Q 50.833689812256935 48.02718750000001 51.46050606050024 48.55898437500001 Q 52.07967615694997 49.09078125000002 52.685831584950805 49.62093750000002 Q 53.2789281129101 50.151093750000015 53.853836811383694 50.67960937500002 Q 54.41061638679208 51.20812500000001 54.94445726717152 51.735000000000014 Q 55.454284876358166 52.261875 55.92164865637293 52.771874999999994 Q 56.36372416966604 53.28187499999999 56.76300350494133 53.77499999999999 Q 57.13548733134185 54.26812499999999 57.46595958673784 54.744374999999984 Q 57.76902040566749 55.220624999999984 58.03178724625101 55.679999999999986 Q 58.26728205015557 56.13937499999999 58.46494822371884 56.581874999999975 Q 58.636099226088504 57.02437499999998 58.77245588851489 57.449999999999974 Q 58.8835380616452 57.87562499999997 58.96326251923021 58.28437499999997 Q 59.019312111116605 58.693124999999974 59.04769258330264 59.08499999999998 L 59.04769258330264 59.08499999999998 Q 59.085092012870184 58.40999999999998 59.06264359142119 57.65343749999998 Q 59.021250008924355 57.27515624999998 58.9588928364558 56.87648437499999 Q 58.874757762941314 56.477812499999985 58.76585426695817 56.05874999999999 Q 58.63375756291837 55.6396875 58.47342210680371 55.200234375 Q 58.28891082500583 54.76078125 58.073210701211764 54.30093749999999 Q 57.83293498879647 53.841093749999985 57.55924745207154 53.36085937499999 Q 57.26132874445244 52.88062499999998 56.92872467852805 52.37999999999998 Q 56.573505229549 51.88124999999999 56.199591330884935 51.38484374999998 Q 55.80682750987507 50.888437499999974 55.399630602864576 50.394374999999975 Q 54.977775750092526 49.90031249999998 54.545906676857605 49.40859374999998 Q 54.10372718565475 48.916874999999976 53.65602649698834 48.42749999999998 Q 53.20243744740745 47.938124999999985 52.747813087059114 47.451093749999984 Q 52.29171794578042 46.96406249999998 51.838988392411636 46.47937499999999 Q 51.38912550383252 45.99468749999998 50.94687095246165 45.512343749999985 Q 50.511669264214966 45.02999999999999 50.08809313233195 44.54999999999998 Q 49.676125865223995 44.07187499999998 49.30162074486788 43.623046874999986 Q 48.94000471608228 43.17421874999999 48.61556508331749 42.75468749999999 Q 48.30489357586974 42.33515624999998 48.02990773911566 41.944921874999984 Q 47.768713752963116 41.554687499999986 47.54081635343413 41.19374999999999 Q 47.12513682585211 40.47187499999999 46.82384217921043 39.867187499999986 Q 46.565349126226636 39.26249999999999 46.393115817202855 38.77499999999999 L 46.393115817202855 38.77499999999999 L 46.09583834007887 37.56328124999999 L 45.99786198323809 36.351562499999986 L 46.10636986400177 35.13984375 L 46.42316707056885 33.928124999999994 L 46.944633647207354 32.71640624999999 L 47.661818878581286 31.504687499999996 L 48.56067441751037 30.292968749999993 L 49.622420184184136 29.081249999999994 L 50.82403350672447 27.869531249999994 L 52.138848763082116 26.65781249999999 L 53.53725190616657 25.446093749999996 L 54.98745178280744 24.234374999999993 L 56.45630815699519 23.022656249999994 L 57.91019487094585 21.810937499999994 L 59.315875662344666 20.59921875 L 60.641369826484365 19.387499999999996 L 61.85678517651081 18.175781249999993 L 62.93509660673264 16.964062499999997 L 63.85284998075889 15.752343749999998 L 64.59077301119616 14.540624999999997 L 65.13427722010849 13.328906249999996 L 65.47383790632188 12.117187499999996 L 65.60524222305426 10.905468749999997 L 65.52969890451227 9.693749999999998 L 65.25380678354747 8.482031249999999 L 64.78938292035194 7.270312499999998 L 64.15315481870395 6.058593749999998 L 63.36632474621102 4.846874999999999 L 62.45401750613997 3.635156249999999 L 61.44462604401026 2.4234374999999995 L 60.36907193309332 1.2117187499999997 L 59.260000000000005 0 L 59.260000000000005 0 Z" fill="black" stroke="black" />
				</svg>