<svg
					xmlns="http://www.w3.org/2000/svg" xmlns:xlink="http://www.w3.org/1999/xlink"
					style="
						overflow: visible;
						height: 100;
					"
					viewBox="-0.4762402719746177 0 56.01605351676892 77.115"
				>
					<path d="M 34.42 0 L 35.391875 0 L 36.36375 0 L 37.33562500000001 0 L 38.307500000000005 0 L 39.279375 0 L 40.25125 0 L 41.223124999999996 0 L 42.195 0 L 43.166875000000005 0 L 44.13875 0 L 45.110625 0 L 46.082499999999996 0 L 47.05437499999999 0 L 48.02625 0 L 48.998125 0 L 49.97 0 L 50.98644707132918 1.204921875 L 51.9699347863973 2.40984375 L 52.88835265596222 3.6147656249999995 L 53.711266062280515 4.8196875 L 54.41070010157785 6.024609374999999 L 54.96186007667588 7.229531249999999 L 55.34377008351412 8.434453125000001 L 55.5398132447943 9.639375 L 55.538159677049386 10.844296874999998 L 55.332071168861 12.049218749999998 L 54.920074723248845 13.254140625 L 54.30600049465425 14.459062499999998 L 53.49888314345212 15.663984374999998 L 52.512729148602396 16.868906250000002 L 51.36615607129508 18.073828125 L 50.08191306034049 19.27875 L 48.686294948671026 20.483671875 L 47.20846503087762 21.688593749999995 L 45.67970396362075 22.893515624999996 L 44.132604133458564 24.098437499999996 L 42.60023024111921 25.303359375 L 41.11526772133912 26.50828125 L 39.70918093068292 27.713203124999996 L 38.411402784187175 28.918124999999996 L 37.2485767117067 30.123046875 L 36.243870457349985 31.327968749999997 L 35.416379395074244 32.532890625 L 34.78063472802538 33.737812500000004 L 34.34622923793068 34.942734375 L 34.11757022335511 36.14765625 L 34.09376598988755 37.352578125 L 34.26864881569777 38.5575 L 34.63093380098733 39.762421874999994 L 35.16450951017247 40.96734375 L 35.84885292132023 42.172265624999994 L 36.65955799583009 43.37718749999999 L 37.568964255068394 44.58210937499999 L 38.54686917498712 45.78703124999999 L 39.561306051029675 46.991953124999995 L 40.57936729944132 48.19687499999999 L 41.568051990889096 49.40179687499999 L 42.495115788193665 50.60671875 L 43.32990139805786 51.811640625 L 44.04412814853784 53.0165625 L 44.612620356718054 54.221484374999996 L 45.01395572750686 55.42640624999999 L 45.23101708406564 56.63132812499999 L 45.251433220074205 57.83624999999999 L 45.0678975196986 59.041171875 L 44.67835613921551 60.24609375 L 44.086060903682494 61.451015625 L 43.299485556302166 62.65593749999999 L 42.33210751747494 63.86085937499999 L 41.20206077432793 65.06578125 L 39.93166884053769 66.27070312500001 L 38.5468698150492 67.47562500000001 L 37.07654834728325 68.680546875 L 35.551791714043574 69.88546875 L 34.005089167836196 71.090390625 L 32.4694951773555 72.2953125 L 30.97777811084815 73.500234375 L 29.56157628798347 74.70515625 L 28.25058313608382 75.910078125 L 27.071782436986403 77.115 L 26.561157436986406 77.115 L 26.0505324369864 77.115 L 25.539907436986404 77.115 L 25.029282436986403 77.115 L 24.518657436986402 77.115 L 24.008032436986404 77.115 L 23.497407436986403 77.115 L 22.986782436986402 77.115 L 22.476157436986405 77.115 L 21.965532436986404 77.115 L 21.454907436986403 77.115 L 20.944282436986406 77.115 L 20.433657436986405 77.115 L 19.923032436986404 77.115 L 19.412407436986406 77.115 L 18.901782436986405 77.115 L 18.391157436986404 77.115 L 17.880532436986407 77.115 L 17.369907436986406 77.115 L 16.859282436986405 77.115 L 16.348657436986407 77.115 L 15.838032436986406 77.115 L 15.327407436986405 77.115 L 14.816782436986408 77.115 L 14.306157436986407 77.115 L 13.795532436986406 77.115 L 13.284907436986408 77.115 L 12.774282436986407 77.115 L 12.263657436986406 77.115 L 11.753032436986409 77.115 L 11.242407436986408 77.115 L 10.731782436986407 77.115 L 11.385114386083824 75.910078125 L 12.17063878798347 74.70515625 L 13.061371860848151 73.500234375 L 14.027620177355503 72.2953125 L 15.037745417836199 71.090390625 L 16.058979214043575 69.88546875 L 17.058267097283256 68.680546875 L 18.003119815049207 67.47562500000001 L 18.8624500905377 66.27070312500001 L 19.607373274327948 65.06578125 L 20.211951267474948 63.86085937499999 L 20.653860556302174 62.65593749999999 L 20.9149671536825 61.451015625 L 20.98179363921551 60.24609375 L 20.8458662696986 59.041171875 L 20.50393322007421 57.83624999999999 L 19.958048334065644 56.63132812499999 L 19.21551822750687 55.42640624999999 L 18.288714106718057 54.221484374999996 L 17.194753148537842 53.0165625 L 15.955057648057856 51.811640625 L 14.594803288193665 50.60671875 L 13.142270740889094 49.40179687499999 L 11.628117299441325 48.19687499999999 L 10.08458730102968 46.991953124999995 L 8.54468167498713 45.78703124999999 L 7.041308005068396 44.58210937499999 L 5.606432995830092 43.37718749999999 L 4.270259171320234 42.172265624999994 L 3.06044701017247 40.96734375 L 2.001402550987324 39.762421874999994 L 1.1136488156977729 38.5575 L 0.4132972398875543 37.352578125 L -0.08836727664489086 36.14765625 L -0.3851770120693283 34.942734375 L -0.4762402719746177 33.737812500000004 L -0.3659643549257572 32.532890625 L -0.06394204265002568 31.327968749999997 L 0.41529546170669196 30.123046875 L 1.052652784187167 28.918124999999996 L 1.8249621806829186 27.713203124999996 L 2.705580221339124 26.50828125 L 3.6650739911192147 25.303359375 L 4.6719791334585645 24.098437499999996 L 5.693610213620757 22.893515624999996 L 6.696902530877621 21.688593749999995 L 7.649263698671023 20.483671875 L 8.519413060340487 19.27875 L 9.27818732129508 18.073828125 L 9.899291648602395 16.868906250000002 L 10.359976893452114 15.663984374999998 L 10.641625494654246 14.459062499999998 L 10.730230973248847 13.254140625 L 10.616758668861 12.049218749999998 L 10.297378427049386 10.844296874999998 L 9.773563244794303 9.639375 L 9.052051333514129 8.434453125000001 L 8.144672576675887 7.229531249999999 L 7.068043851577853 6.024609374999999 L 5.843141062280519 4.8196875 L 4.49475890596223 3.6147656249999995 L 3.0508722863973015 2.40984375 L 1.5419158213291773 1.204921875 L 0 0 L 0.97625 0 L 1.9525 0 L 2.92875 0 L 3.905 0 L 4.88125 0 L 5.8575 0 L 6.83375 0 L 7.81 0 L 8.786249999999999 0 L 9.7625 0 L 10.73875 0 L 11.715 0 L 12.69125 0 L 13.6675 0 L 14.64375 0 L 15.62 0 L 17.13617746174491 1.2220312499999997 L 18.617977863211344 2.4440624999999994 L 20.031934790558655 3.666093749999999 L 21.34637899984774 4.888124999999999 L 22.532277333572857 6.110156249999998 L 23.564001807408612 7.332187499999998 L 24.42000849410654 8.554218749999997 L 25.083408220944136 9.776249999999997 L 25.54241396298223 10.998281249999998 L 25.790653080707962 12.220312499999997 L 25.827336130905316 13.442343749999996 L 25.65727777896253 14.664374999999996 L 25.29076925865052 15.886406249999997 L 24.74330575790577 17.108437499999994 L 24.03517595215332 18.330468749999994 L 23.19092455840958 19.552499999999995 L 22.23870214707725 20.774531249999995 L 21.20951943488218 21.996562499999996 L 20.13642581269123 23.218593749999993 L 19.053633868964265 24.440624999999994 L 17.995613100165727 25.66265624999999 L 16.996176815697325 26.88468749999999 L 16.08758642518997 28.106718749999995 L 15.299696835535332 29.328749999999992 L 14.659165596042754 30.55078124999999 L 14.188746741422829 31.772812499999993 L 13.906688038658197 32.994843749999994 L 13.826247604658853 34.21687499999999 L 13.95534269947371 35.43890624999999 L 14.296339998506946 36.66093749999999 L 14.845992899416576 37.88296874999999 L 15.595527524432107 39.10499999999999 Q 15.980425051825058 39.64499999999999 16.461005070656974 40.265624999999986 Q 16.984958435384016 40.88624999999999 17.621426331838464 41.58749999999999 Q 17.95760199106163 41.93812499999999 18.32431405050059 42.30890624999999 Q 18.702731716362877 42.67968749999999 19.112675522592813 43.07062499999999 Q 19.53380023558938 43.4615625 19.986806438090625 43.872656250000006 Q 20.44990607613513 44.28375 20.944468200534242 44.715 Q 21.448628064089014 45.14625 21.959143418382645 45.577734375 Q 22.475077397937255 46.009218749999995 22.994398885516414 46.44093749999999 Q 23.516130157075274 46.87265624999999 24.03821763916771 47.304609374999984 Q 24.559665942188474 47.736562499999984 25.07841583838303 48.16874999999999 Q 25.593477803007783 48.600937499999986 26.10280392401519 49.03335937499998 Q 26.60543409818998 49.46578124999998 27.099348642197917 49.89843749999998 Q 27.58364014368729 50.33109374999998 28.056333777940267 50.763984374999986 Q 28.516597493659383 51.19687499999998 28.962517447496566 51.62999999999998 Q 29.393026818548787 52.06124999999999 29.78486698977816 52.47234374999999 Q 30.160987165337033 52.88343749999999 30.49951970408742 53.27437499999999 Q 30.822162604591476 53.665312499999985 31.10894082025007 54.03609374999999 Q 31.380146928350506 54.40687499999999 31.617698182719927 54.75749999999999 Q 32.04776003795854 55.458749999999995 32.35897581747712 56.079375 Q 32.619281805763336 56.699999999999996 32.783704658129224 57.239999999999995 L 32.783704658129224 57.239999999999995 Q 32.674281805763336 56.699999999999996 32.510078944231516 56.08218749999999 Q 32.29541892245855 55.46437499999999 32.003993243511744 54.76875 Q 31.653991771707677 54.073125 31.207905049770943 53.2996875 Q 30.961103344414674 52.91296875 30.68760642204264 52.50679687499999 Q 30.398682241605904 52.10062499999998 30.082029820745955 51.67499999999998 Q 29.75364389113024 51.251249999999985 29.412779892057383 50.82726562499998 Q 29.059801716507785 50.40328124999999 28.696861995799352 49.97906249999999 Q 28.32441488384615 49.55484374999999 27.94467120353201 49.13039062499999 Q 27.558155850417254 48.7059375 27.167123773572765 48.281249999999986 Q 26.772150095949943 47.856562499999995 26.37551918059862 47.431640624999986 Q 25.977835126623148 47.00671874999999 25.58139653708261 46.58156249999999 Q 25.18681476821178 46.15640624999999 24.79638721983059 45.73101562499998 Q 24.41071059552585 45.305624999999985 24.032065576826483 44.87999999999998 Q 23.661012395480824 44.454374999999985 23.31732863752424 44.048203124999986 Q 22.982997212102504 43.64203124999999 22.67658086638772 43.25531249999999 Q 22.380653177812388 42.86859374999999 22.112444991675012 42.501328124999986 Q 21.85532368844919 42.134062499999985 21.625112660461674 41.78624999999999 Q 21.198986934774165 41.09062499999999 20.872018664849886 40.47281249999999 Q 20.58710084662713 39.85499999999999 20.385970817683937 39.31499999999999 L 20.385970817683937 39.31499999999999 L 20.04210504106134 38.08640624999999 L 19.89826432729747 36.857812499999994 L 19.96426566260595 35.62921874999999 L 20.244307600235825 34.40062499999999 L 20.73685784596701 33.17203124999999 L 21.434694284646177 31.94343749999999 L 22.325098349294777 30.71484374999999 L 23.390195555412273 29.48624999999999 L 24.607434082811345 28.257656249999997 L 25.95018859115681 27.029062499999995 L 27.38847310230019 25.800468749999993 L 28.889743862284003 24.57187499999999 L 30.419770686721957 23.343281249999993 L 31.94355345964744 22.114687499999995 L 33.42625924695755 20.886093749999993 L 34.83415493363278 19.657499999999995 L 36.135510413761416 18.428906249999997 L 37.301448150834126 17.200312499999995 L 38.30671636168768 15.971718749999996 L 39.13036512242155 14.743124999999996 L 39.75630729383488 13.514531249999997 L 40.17374924783983 12.285937499999996 L 40.377479862332436 11.057343749999998 L 40.3680100468041 9.828749999999998 L 40.1515590629539 8.600156249999998 L 39.7398880065618 7.371562499999998 L 39.14998490907565 6.142968749999998 L 38.403609890185194 4.914374999999999 L 37.52671253973227 3.685781249999999 L 36.5487371283127 2.4571874999999994 L 35.50183424926478 1.2285937499999997 L 34.42 0 L 34.42 0 Z" fill="black" stroke="black" />
				</svg>