<svg
					xmlns="http://www.w3.org/2000/svg" xmlns:xlink="http://www.w3.org/1999/xlink"
					style="
						overflow: visible;
						height: 100;
					"
					viewBox="-6.048217563013593 0 53.94606029768292 77.115"
				>
					<path d="M 47.897842734669325 60.27000000000001 L 47.61783861742368 61.32281250000001 L 47.18856043707966 62.375625000000014 L 46.61845329920822 63.428437500000015 L 45.918732809881426 64.48125 L 45.103164433250704 65.5340625 L 44.18779268626645 66.58687499999999 L 43.19062549803829 67.63968750000001 L 42.131279943372405 68.6925 L 41.03059631990073 69.74531250000001 L 39.91022816098707 70.798125 L 38.792216250005865 71.85093750000001 L 37.69855501632749 72.90375 L 36.65075984321661 73.95656249999999 L 35.669443799910866 75.00937499999999 L 34.77391212474672 76.0621875 L 33.98178243698641 77.115 L 33.35631368698641 77.115 L 32.73084493698641 77.115 L 32.105376186986405 77.115 L 31.47990743698641 77.115 L 30.854438686986413 77.115 L 30.22896993698641 77.115 L 29.603501186986406 77.115 L 28.97803243698641 77.115 L 28.352563686986414 77.115 L 27.72709493698641 77.115 L 27.101626186986408 77.115 L 26.476157436986412 77.115 L 25.85068868698641 77.115 L 25.22521993698641 77.115 L 24.59975118698641 77.115 L 23.974282436986407 77.115 L 23.348813686986407 77.115 L 22.723344936986408 77.115 L 22.097876186986408 77.115 L 21.47240743698641 77.115 L 20.84693868698641 77.115 L 20.22146993698641 77.115 L 19.596001186986406 77.115 L 18.970532436986407 77.115 L 18.345063686986407 77.115 L 17.719594936986404 77.115 L 17.094126186986404 77.115 L 16.468657436986405 77.115 L 15.843188686986405 77.115 L 15.217719936986406 77.115 L 14.592251186986406 77.115 L 13.966782436986406 77.115 L 13.341313686986407 77.115 L 12.715844936986407 77.115 L 12.090376186986408 77.115 L 11.464907436986408 77.115 L 10.839438686986409 77.115 L 10.213969936986409 77.115 L 9.58850118698641 77.115 L 8.963032436986406 77.115 L 8.337563686986407 77.115 L 7.712094936986408 77.115 L 7.0866261869864084 77.115 L 6.461157436986407 77.115 L 5.835688686986406 77.115 L 5.210219936986406 77.115 L 4.584751186986407 77.115 L 3.959282436986407 77.115 L 3.3338136869864075 77.115 L 2.708344936986408 77.115 L 2.0828761869864083 77.115 L 1.457407436986407 77.115 L 0.8319386869864074 77.115 L 0.20646993698640692 77.115 L -0.41899881301359354 77.115 L -1.0444675630135931 77.115 L -1.6699363130135927 77.115 L -2.295405063013593 77.115 L -2.920873813013593 77.115 L -3.546342563013593 77.115 L -4.171811313013594 77.115 L -4.797280063013593 77.115 L -5.422748813013593 77.115 L -6.048217563013593 77.115 L -5.453678074709982 76.31156250000001 L -4.796613283161888 75.50812499999999 L -4.08455630176177 74.70468749999999 L -3.325670718106784 73.90125 L -2.5286570001372235 73.0978125 L -1.702652747051915 72.294375 L -0.8571279286029808 71.4909375 L -0.0017763138303721622 70.6875 L 0.8535956660168627 69.8840625 L 1.6991813462082053 69.080625 L 2.5252862599363364 68.2771875 L 3.3224392833954055 67.47375 L 4.081501220277706 66.67031250000001 L 4.793769580789225 65.86687500000001 L 5.451078353914593 65.06343749999999 L 6.045891629062444 64.26 L 6.880749192634189 63.519140625000006 L 7.651910383886109 62.77828125 L 8.355246112867375 62.03742187500001 L 8.987288574555382 61.29656250000001 L 9.5452650592732 60.555703125 L 10.027124986064049 59.81484375000001 L 10.431559895452672 59.07398437500001 L 10.758016206668067 58.333125 L 11.006700614947206 57.592265624999996 L 11.178578076297114 56.85140625 L 11.275362399363425 56.110546875000004 L 11.299499536132863 55.3696875 L 11.25414373438208 54.628828125 L 11.143126784381675 53.887968750000006 L 10.970920659694068 53.147109375 L 10.742593916310106 52.40625 L 10.463762275224227 51.665390625 L 10.140533870258306 50.924531249999994 L 9.779449694957325 50.183671875 L 9.387419829187625 49.4428125 L 8.971656067216292 48.701953124999996 L 8.539601604134209 47.961093749999996 L 8.098858466166678 47.220234375000004 L 7.6571133924116355 46.479375 L 7.222062890644079 45.73851562499999 L 6.80133819787771 44.99765625 L 6.402430877303762 44.256796875 L 6.032619777022074 43.51593749999999 L 5.698900062702606 42.77507812499999 L 5.4079150160947735 42.034218749999994 L 5.165891264335947 41.293359374999994 L 4.97857807156048 40.552499999999995 L 4.851191284704281 39.811640624999995 L 4.788362480022149 39.070781249999996 L 4.794093806129505 38.329921875 L 4.8717189638398635 37.5890625 L 5.023870703237066 36.84820312499999 L 5.252455154879317 36.10734374999999 L 5.558633245400843 35.366484375 L 5.942809378705352 34.62562499999999 L 6.404627493107442 33.884765624999986 L 6.942974532864061 33.14390624999999 L 7.555991300249269 32.403046874999994 L 8.241090582366706 31.66218749999999 L 8.994982375966874 30.921328124999988 L 9.813705964332303 30.18046874999999 L 10.692668533487176 29.439609374999993 L 11.626689951231036 28.69874999999999 L 12.610053272409731 27.957890624999987 L 13.636560478007198 27.21703124999999 L 14.699592904612848 26.47617187499999 L 15.792175775089133 25.73531249999999 L 16.90704620127795 24.994453124999986 L 18.036723995732913 24.253593749999986 L 19.17358460207696 23.512734374999987 L 20.309933432928656 22.771874999999987 L 21.43808089061705 22.031015624999988 L 22.55041733924781 21.29015624999999 L 23.63948729715777 20.549296874999985 L 24.698062126396003 19.808437499999986 L 25.719210510523293 19.067578124999986 L 26.69636603358527 18.326718749999984 L 27.623391201377576 17.585859374999984 L 28.4946372808082 16.844999999999985 L 27.8149497808082 16.844999999999985 L 27.1352622808082 16.844999999999985 L 26.4555747808082 16.844999999999985 L 25.7758872808082 16.844999999999985 L 25.0961997808082 16.844999999999985 L 24.4165122808082 16.844999999999985 L 23.7368247808082 16.844999999999985 L 23.0571372808082 16.844999999999985 L 22.3774497808082 16.844999999999985 L 21.6977622808082 16.844999999999985 L 21.0180747808082 16.844999999999985 L 20.3383872808082 16.844999999999985 L 19.6586997808082 16.844999999999985 L 18.9790122808082 16.844999999999985 L 18.2993247808082 16.844999999999985 L 17.6196372808082 16.844999999999985 L 16.9399497808082 16.844999999999985 L 16.2602622808082 16.844999999999985 L 15.580574780808197 16.844999999999985 L 14.900887280808197 16.844999999999985 L 14.221199780808197 16.844999999999985 L 13.541512280808197 16.844999999999985 L 12.861824780808197 16.844999999999985 L 12.182137280808197 16.844999999999985 L 11.502449780808197 16.844999999999985 L 10.822762280808197 16.844999999999985 L 10.143074780808197 16.844999999999985 L 9.463387280808197 16.844999999999985 L 8.783699780808197 16.844999999999985 L 8.104012280808197 16.844999999999985 L 7.424324780808197 16.844999999999985 L 6.744637280808197 16.844999999999985 L 7.382847728638756 15.792187499999986 L 7.8856532610587475 14.739374999999987 L 8.243162283299625 13.686562499999987 L 8.448341590382345 12.633749999999988 L 8.497154729981528 11.58093749999999 L 8.388641410761528 10.52812499999999 L 8.124936393999828 9.47531249999999 L 7.711227496846501 8.422499999999992 L 7.155653533413408 7.369687499999993 L 6.469144201478107 6.316874999999994 L 5.6652050646799745 5.264062499999995 L 4.759651860211692 4.211249999999996 L 3.7702993589188516 3.158437499999997 L 2.7166108988019984 2.105624999999998 L 1.619315486579903 1.052812499999999 L 0.5 0 L 1.10875 0 L 1.7174999999999998 0 L 2.32625 0 L 2.9349999999999996 0 L 3.5437499999999997 0 L 4.1525 0 L 4.7612499999999995 0 L 5.369999999999999 0 L 5.978749999999999 0 L 6.587499999999999 0 L 7.196249999999999 0 L 7.804999999999999 0 L 8.413749999999999 0 L 9.022499999999999 0 L 9.631249999999998 0 L 10.239999999999998 0 L 10.848749999999999 0 L 11.457499999999998 0 L 12.066249999999997 0 L 12.674999999999997 0 L 13.283749999999998 0 L 13.892499999999998 0 L 14.501249999999999 0 L 15.109999999999998 0 L 15.718749999999996 0 L 16.327499999999997 0 L 16.936249999999998 0 L 17.544999999999998 0 L 18.153749999999995 0 L 18.762499999999996 0 L 19.371249999999996 0 L 19.979999999999997 0 L 20.588749999999997 0 L 21.197499999999998 0 L 21.80625 0 L 22.414999999999996 0 L 23.023749999999993 0 L 23.632499999999993 0 L 24.241249999999994 0 L 24.849999999999994 0 L 25.458749999999995 0 L 26.067499999999995 0 L 26.676249999999996 0 L 27.284999999999997 0 L 27.893749999999997 0 L 28.502499999999998 0 L 29.11125 0 L 29.719999999999995 0 L 30.328749999999992 0 L 30.937499999999993 0 L 31.546249999999993 0 L 32.154999999999994 0 L 32.763749999999995 0 L 33.372499999999995 0 L 33.981249999999996 0 L 34.589999999999996 0 L 35.19874999999999 0 L 35.80749999999999 0 L 36.41624999999999 0 L 37.02499999999999 0 L 37.63374999999999 0 L 38.24249999999999 0 L 38.85124999999999 0 L 39.459999999999994 0 L 40.315361818395196 0.8034374999999994 L 41.16091708855887 1.6068749999999987 L 41.98697169232841 2.410312499999998 L 42.7840550826914 3.2137499999999974 L 43.5430288616693 4.017187499999997 L 44.25519155018043 4.820624999999996 L 44.91237834871727 5.6240624999999955 L 45.5070547451022 6.427499999999995 L 46.03240289612795 7.230937499999994 L 46.48239979273497 8.034374999999994 L 46.85188631257793 8.837812499999993 L 47.13662636830782 9.641249999999992 L 47.333355473446616 10.444687499999992 L 47.43981816905682 11.248124999999991 L 47.4547938821167 12.05156249999999 L 47.378110919140205 12.85499999999999 L 46.879257671650805 13.59585937499999 L 46.30467853976431 14.33671874999999 L 45.65658597698466 15.077578124999992 L 44.93790917832028 15.818437499999991 L 44.15226552120841 16.55929687499999 L 43.30392529679595 17.300156249999993 L 42.39777007543997 18.041015624999993 L 41.43924511235604 18.781874999999992 L 40.43430625744999 19.52273437499999 L 39.38936188695173 20.26359374999999 L 38.311210423006415 21.004453124999994 L 37.20697405039448 21.745312499999994 L 36.08402927662972 22.486171874999993 L 34.94993501246064 23.227031249999996 L 33.812358873976095 23.967890624999995 L 32.67900242485528 24.708749999999995 L 31.55752608763532 25.449609374999998 L 30.455474456096987 26.190468749999994 L 29.380202736957937 26.931328124999993 L 28.338805038052683 27.672187499999996 L 27.338045202175316 28.413046875 L 26.38429086094149 29.15390625 L 25.483451351631494 29.894765624999994 L 24.64092010231309 30.635624999999997 L 23.861522046977747 31.376484375 L 23.14946658338242 32.117343749999996 L 22.50830653224863 32.858203124999996 L 21.940903497958622 33.5990625 L 21.449399968475017 34.339921875 L 21.035198426504184 35.08078125 L 20.698947675565485 35.821640625 L 20.440536514284467 36.5625 L 20.259094820584387 37.303359375 L 20.153002035205482 38.04421875 L 20.11990296183929 38.785078125 L 20.1567307298298 39.5259375 L 20.259736695559667 40.266796875000004 L 20.424526990988795 41.007656250000004 L 20.64610536300426 41.748515624999996 L 20.918921885906304 42.489375 L 21.236927072093252 43.23023437500001 L 21.593630853376787 43.97109375 L 21.982165857871372 44.711953125 L 22.395354365520575 45.45281250000001 L 22.825778289457066 46.19367187500001 L 23.26585150089178 46.934531250000006 L 23.707893792378815 47.675390625000006 L 24.14420575832871 48.416250000000005 L 24.56714386269988 49.157109375000005 L 24.969194961972928 49.89796875000001 L 25.343049556823473 50.638828125 L 25.68167305830417 51.3796875 L 25.97837437370445 52.12054687500001 L 26.226871143389566 52.86140625 L 26.421350992572446 53.602265625 L 26.55652820082559 54.34312500000001 L 26.627695236816535 55.083984375000014 L 26.630768655813217 55.824843750000014 L 26.562328912467635 56.565703125000006 L 26.419653700711006 57.30656250000001 L 26.200744495702935 58.04742187500001 L 25.904346039055866 58.788281250000004 L 25.529958577357704 59.52914062500001 L 25.07784273466933 60.27000000000001 L 25.790967734669326 60.27000000000001 L 26.504092734669328 60.27000000000001 L 27.21721773466933 60.27000000000001 L 27.930342734669328 60.27000000000001 L 28.643467734669326 60.27000000000001 L 29.356592734669327 60.27000000000001 L 30.06971773466933 60.27000000000001 L 30.782842734669327 60.27000000000001 L 31.495967734669325 60.27000000000001 L 32.209092734669326 60.27000000000001 L 32.922217734669324 60.27000000000001 L 33.63534273466932 60.27000000000001 L 34.34846773466933 60.27000000000001 L 35.061592734669325 60.27000000000001 L 35.77471773466932 60.27000000000001 L 36.48784273466933 60.27000000000001 L 37.20096773466933 60.27000000000001 L 37.914092734669325 60.27000000000001 L 38.62721773466933 60.27000000000001 L 39.34034273466933 60.27000000000001 L 40.053467734669326 60.27000000000001 L 40.76659273466933 60.27000000000001 L 41.47971773466933 60.27000000000001 L 42.19284273466933 60.27000000000001 L 42.905967734669325 60.27000000000001 L 43.61909273466932 60.27000000000001 L 44.33221773466933 60.27000000000001 L 45.045342734669326 60.27000000000001 L 45.758467734669324 60.27000000000001 L 46.47159273466933 60.27000000000001 L 47.18471773466933 60.27000000000001 L 47.897842734669325 60.27000000000001 L 47.897842734669325 60.27000000000001 Z" fill="black" stroke="black" />
				</svg>