<svg
					xmlns="http://www.w3.org/2000/svg" xmlns:xlink="http://www.w3.org/1999/xlink"
					style="
						overflow: visible;
						height: 100;
					"
					viewBox="0 0 46.949853768174655 77.115"
				>
					<path d="M 32.51183639071214 17.069999999999993 L 31.81725001848814 18.008203124999994 L 31.03831514893358 18.946406249999992 L 30.187205015739753 19.88460937499999 L 29.277220811282728 20.822812499999994 L 28.32258381491357 21.761015624999995 L 27.33821314208258 22.699218749999993 L 26.339492587645488 23.637421874999994 L 25.342030207136382 24.575624999999995 L 24.361414393283315 25.513828124999993 L 23.41297025981526 26.452031249999997 L 22.511520139806667 27.390234375 L 21.67115194150352 28.328437499999996 L 20.904998981778014 29.266640624999994 L 20.225034737985624 30.204843749999995 L 19.641885725853047 31.143046874999996 L 19.16466542775088 32.08125 L 18.800831866728387 33.01945312499999 L 18.556071052150628 33.95765624999999 L 18.434208118455384 34.89585937499999 L 18.43714754575795 35.83406249999999 L 18.56484339653919 36.77226562499999 L 18.815300033559435 37.71046874999999 L 19.184603307778566 38.64867187499999 L 19.666981728875964 39.58687499999999 L 20.2548966623943 40.52507812499999 L 20.939160143901578 41.463281249999994 L 21.709078468965785 42.401484374999995 L 22.552619314910768 43.3396875 L 23.456599782565885 44.277890625 L 24.406892419283647 45.21609375 L 25.38864600348699 46.15429687499999 L 26.38651764031411 47.092499999999994 L 27.384912541158446 48.03070312499999 L 28.368227739816803 48.96890624999999 L 29.32109593643739 49.907109375 L 30.228625658462203 50.84531249999999 L 31.076633985316242 51.783515624999986 L 31.851868199810422 52.721718749999994 L 32.54221290227863 53.659921874999995 L 33.13687935065891 54.59812499999999 L 33.626574067502226 55.53632812499998 L 34.00364407890983 56.474531249999984 L 34.26219651559797 57.41273437499999 L 34.398190706958275 58.350937499999986 L 34.40950132886315 59.28914062499999 L 34.295951618339174 60.227343749999996 L 34.05931613602783 61.16554687499999 L 33.70329303326167 62.10374999999999 L 33.233446257167564 63.041953125 L 32.657118597018446 63.98015624999999 L 31.983316930749755 64.918359375 L 31.22257146501377 65.8565625 L 30.38677116857532 66.794765625 L 29.488977970904315 67.73296875 L 28.54322262967881 68.671171875 L 27.564285457391527 69.609375 L 26.567465333875834 70.547578125 L 25.56834061463488 71.48578125 L 24.582525671510812 72.423984375 L 23.625426870488866 73.3621875 L 22.71200180022743 74.30039062499999 L 21.85652551410307 75.23859374999999 L 21.072367438951535 76.17679687500001 L 20.371782436986404 77.115 L 19.5036574369864 77.115 L 18.635532436986402 77.115 L 17.767407436986403 77.115 L 16.899282436986404 77.115 L 16.031157436986405 77.115 L 15.163032436986406 77.115 L 14.294907436986406 77.115 L 13.426782436986404 77.115 L 12.558657436986401 77.115 L 11.690532436986402 77.115 L 10.822407436986403 77.115 L 9.954282436986404 77.115 L 9.086157436986404 77.115 L 8.218032436986405 77.115 L 7.349907436986407 77.115 L 6.481782436986406 77.115 L 7.182367438951537 76.17679687500001 L 7.966525514103068 75.23859374999999 L 8.82200180022743 74.30039062499999 L 9.735426870488869 73.3621875 L 10.692525671510813 72.423984375 L 11.678340614634882 71.48578125 L 12.677465333875837 70.547578125 L 13.67428545739153 69.609375 L 14.65322262967881 68.671171875 L 15.598977970904317 67.73296875 L 16.49677116857532 66.794765625 L 17.33257146501377 65.8565625 L 18.093316930749758 64.918359375 L 18.76711859701845 63.98015624999999 L 19.343446257167564 63.041953125 L 19.813293033261672 62.10374999999999 L 20.16931613602783 61.16554687499999 L 20.405951618339174 60.227343749999996 L 20.51950132886315 59.28914062499999 L 20.508190706958274 58.350937499999986 L 20.372196515597974 57.41273437499999 L 20.11364407890983 56.474531249999984 L 19.736574067502225 55.53632812499998 L 19.24687935065891 54.59812499999999 L 18.652212902278627 53.659921874999995 L 17.96186819981042 52.721718749999994 L 17.18663398531624 51.783515624999986 L 16.338625658462202 50.84531249999999 L 15.431095936437393 49.907109375 L 14.478227739816804 48.96890624999999 L 13.494912541158447 48.03070312499999 L 12.496517640314112 47.092499999999994 L 11.49864600348699 46.15429687499999 L 10.516892419283648 45.21609375 L 9.566599782565886 44.277890625 L 8.66261931491077 43.3396875 L 7.819078468965787 42.401484374999995 L 7.049160143901578 41.463281249999994 L 6.364896662394303 40.52507812499999 L 5.776981728875965 39.58687499999999 L 5.294603307778566 38.64867187499999 L 4.925300033559435 37.71046874999999 L 4.674843396539192 36.77226562499999 L 4.54714754575795 35.83406249999999 L 4.544208118455385 34.89585937499999 L 4.666071052150629 33.95765624999999 L 4.910831866728387 33.01945312499999 L 5.27466542775088 32.08125 L 5.751885725853048 31.143046874999996 L 6.335034737985627 30.204843749999995 L 7.014998981778016 29.266640624999994 L 7.781151941503522 28.328437499999996 L 8.62152013980667 27.390234375 L 9.522970259815262 26.452031249999997 L 10.471414393283316 25.513828124999993 L 11.452030207136385 24.575624999999995 L 12.449492587645489 23.637421874999994 L 13.448213142082581 22.699218749999993 L 14.432583814913574 21.761015624999995 L 15.38722081128273 20.822812499999994 L 16.297205015739753 19.88460937499999 L 17.148315148933584 18.946406249999992 L 17.927250018488138 18.008203124999994 L 18.621836390712144 17.069999999999993 L 17.83871139071214 17.069999999999993 L 17.055586390712143 17.069999999999993 L 16.27246139071214 17.069999999999993 L 15.489336390712143 17.069999999999993 L 14.706211390712141 17.069999999999993 L 13.923086390712143 17.069999999999993 L 13.139961390712141 17.069999999999993 L 12.356836390712143 17.069999999999993 L 11.573711390712143 17.069999999999993 L 10.790586390712143 17.069999999999993 L 10.007461390712143 17.069999999999993 L 9.224336390712143 17.069999999999993 L 8.441211390712143 17.069999999999993 L 7.6580863907121435 17.069999999999993 L 6.874961390712143 17.069999999999993 L 6.091836390712143 17.069999999999993 L 6.765459736418795 16.003124999999994 L 7.302414273362832 14.936249999999994 L 7.691853002259224 13.869374999999994 L 7.92590888535475 12.802499999999995 L 7.999853768174654 11.735624999999995 L 7.912193892801096 10.668749999999996 L 7.664700073223125 9.601874999999996 L 7.262371923186979 8.534999999999997 L 6.713336859178654 7.468124999999997 L 6.0286859187758335 6.401249999999997 L 5.222249710996758 5.334374999999998 L 4.310319024664974 4.267499999999998 L 3.311315738770336 3.2006249999999987 L 2.2454206827542196 2.133749999999999 L 1.1341659642999378 1.0668749999999996 L 0 0 L 0.60859375 0 L 1.2171875 0 L 1.8257812500000001 0 L 2.434375 0 L 3.04296875 0 L 3.6515625000000003 0 L 4.2601562500000005 0 L 4.86875 0 L 5.47734375 0 L 6.0859375 0 L 6.694531250000001 0 L 7.3031250000000005 0 L 7.91171875 0 L 8.520312500000001 0 L 9.12890625 0 L 9.7375 0 L 10.346093750000001 0 L 10.9546875 0 L 11.56328125 0 L 12.171875 0 L 12.78046875 0 L 13.389062500000001 0 L 13.997656250000002 0 L 14.606250000000001 0 L 15.21484375 0 L 15.8234375 0 L 16.43203125 0 L 17.040625000000002 0 L 17.649218750000003 0 L 18.2578125 0 L 18.86640625 0 L 19.475 0 L 20.083593750000002 0 L 20.692187500000003 0 L 21.30078125 0 L 21.909375 0 L 22.51796875 0 L 23.1265625 0 L 23.73515625 0 L 24.34375 0 L 24.95234375 0 L 25.5609375 0 L 26.169531250000002 0 L 26.778125000000003 0 L 27.386718750000004 0 L 27.995312500000004 0 L 28.60390625 0 L 29.212500000000002 0 L 29.821093750000003 0 L 30.4296875 0 L 31.03828125 0 L 31.646875 0 L 32.255468750000006 0 L 32.8640625 0 L 33.47265625 0 L 34.081250000000004 0 L 34.68984375000001 0 L 35.298437500000006 0 L 35.90703125 0 L 36.515625 0 L 37.12421875 0 L 37.7328125 0 L 38.341406250000006 0 L 38.95 0 L 40.08416596429994 1.0668749999999996 L 41.195420682754225 2.133749999999999 L 42.261315738770335 3.2006249999999987 L 43.26031902466498 4.267499999999998 L 44.17224971099676 5.334374999999998 L 44.97868591877584 6.401249999999997 L 45.663336859178656 7.468124999999997 L 46.21237192318698 8.534999999999997 L 46.614700073223126 9.601874999999996 L 46.8621938928011 10.668749999999996 L 46.949853768174655 11.735624999999995 L 46.875908885354754 12.802499999999995 L 46.641853002259225 13.869374999999994 L 46.25241427336283 14.936249999999994 L 45.7154597364188 16.003124999999994 L 45.04183639071215 17.069999999999993 L 44.25871139071215 17.069999999999993 L 43.47558639071215 17.069999999999993 L 42.692461390712154 17.069999999999993 L 41.90933639071215 17.069999999999993 L 41.12621139071214 17.069999999999993 L 40.343086390712145 17.069999999999993 L 39.55996139071215 17.069999999999993 L 38.77683639071215 17.069999999999993 L 37.99371139071215 17.069999999999993 L 37.210586390712145 17.069999999999993 L 36.427461390712146 17.069999999999993 L 35.64433639071215 17.069999999999993 L 34.86121139071214 17.069999999999993 L 34.078086390712144 17.069999999999993 L 33.294961390712146 17.069999999999993 L 32.51183639071214 17.069999999999993 L 32.51183639071214 17.069999999999993 Z" fill="black" stroke="black" />
				</svg>