<svg
					xmlns="http://www.w3.org/2000/svg" xmlns:xlink="http://www.w3.org/1999/xlink"
					style="
						overflow: visible;
						height: 100;
					"
					viewBox="0 0 44.2703179477642 12.95999999999998"
				>
					<path d="M 36.28 0 L 37.14232136328006 0.8099999999999987 L 37.99459438286763 1.6199999999999974 L 38.826887805073184 2.429999999999996 L 39.62950319180223 3.239999999999995 L 40.3930879332249 4.049999999999994 L 41.10874423062382 4.859999999999992 L 41.76813277947962 5.669999999999991 L 42.36356994460948 6.47999999999999 L 42.88811729500929 7.2899999999999885 L 43.33566245507957 8.099999999999987 L 43.70099033010301 8.909999999999986 L 43.979843876006456 9.719999999999985 L 44.168973705278006 10.529999999999983 L 44.266175950997564 11.339999999999982 L 44.2703179477642 12.14999999999998 L 44.18135143026887 12.95999999999998 L 43.61447643026887 12.95999999999998 L 43.04760143026887 12.95999999999998 L 42.48072643026887 12.95999999999998 L 41.91385143026887 12.95999999999998 L 41.346976430268874 12.95999999999998 L 40.78010143026887 12.95999999999998 L 40.21322643026887 12.95999999999998 L 39.646351430268865 12.95999999999998 L 39.07947643026887 12.95999999999998 L 38.512601430268866 12.95999999999998 L 37.94572643026886 12.95999999999998 L 37.37885143026887 12.95999999999998 L 36.811976430268864 12.95999999999998 L 36.24510143026887 12.95999999999998 L 35.678226430268865 12.95999999999998 L 35.11135143026887 12.95999999999998 L 34.544476430268865 12.95999999999998 L 33.97760143026887 12.95999999999998 L 33.410726430268866 12.95999999999998 L 32.84385143026887 12.95999999999998 L 32.27697643026887 12.95999999999998 L 31.710101430268868 12.95999999999998 L 31.143226430268864 12.95999999999998 L 30.576351430268865 12.95999999999998 L 30.009476430268865 12.95999999999998 L 29.442601430268862 12.95999999999998 L 28.875726430268863 12.95999999999998 L 28.308851430268863 12.95999999999998 L 27.741976430268863 12.95999999999998 L 27.175101430268864 12.95999999999998 L 26.608226430268864 12.95999999999998 L 26.041351430268865 12.95999999999998 L 25.474476430268865 12.95999999999998 L 24.907601430268866 12.95999999999998 L 24.340726430268866 12.95999999999998 L 23.773851430268866 12.95999999999998 L 23.206976430268863 12.95999999999998 L 22.640101430268864 12.95999999999998 L 22.073226430268864 12.95999999999998 L 21.506351430268865 12.95999999999998 L 20.939476430268865 12.95999999999998 L 20.372601430268865 12.95999999999998 L 19.805726430268866 12.95999999999998 L 19.238851430268866 12.95999999999998 L 18.671976430268863 12.95999999999998 L 18.105101430268864 12.95999999999998 L 17.538226430268864 12.95999999999998 L 16.971351430268864 12.95999999999998 L 16.404476430268865 12.95999999999998 L 15.837601430268865 12.95999999999998 L 15.270726430268866 12.95999999999998 L 14.703851430268866 12.95999999999998 L 14.136976430268867 12.95999999999998 L 13.570101430268865 12.95999999999998 L 13.003226430268864 12.95999999999998 L 12.436351430268864 12.95999999999998 L 11.869476430268865 12.95999999999998 L 11.302601430268865 12.95999999999998 L 10.735726430268866 12.95999999999998 L 10.168851430268866 12.95999999999998 L 9.601976430268865 12.95999999999998 L 9.035101430268865 12.95999999999998 L 8.468226430268865 12.95999999999998 L 7.901351430268865 12.95999999999998 L 7.9903179477641935 12.14999999999998 L 7.986175950997563 11.339999999999982 L 7.888973705278008 10.529999999999983 L 7.699843876006458 9.719999999999985 L 7.420990330103006 8.909999999999986 L 7.055662455079573 8.099999999999987 L 6.608117295009285 7.2899999999999885 L 6.083569944609483 6.47999999999999 L 5.488132779479619 5.669999999999991 L 4.82874423062382 4.859999999999992 L 4.113087933224899 4.049999999999994 L 3.3495031918022313 3.239999999999995 L 2.5468878050731827 2.429999999999996 L 1.7145943828676333 1.6199999999999974 L 0.8623213632800584 0.8099999999999987 L 0 0 L 0.566875 0 L 1.13375 0 L 1.700625 0 L 2.2675 0 L 2.834375 0 L 3.40125 0 L 3.968125 0 L 4.535 0 L 5.101875 0 L 5.66875 0 L 6.235625000000001 0 L 6.8025 0 L 7.369375 0 L 7.93625 0 L 8.503125 0 L 9.07 0 L 9.636875 0 L 10.20375 0 L 10.770624999999999 0 L 11.3375 0 L 11.904375000000002 0 L 12.471250000000001 0 L 13.038125 0 L 13.605 0 L 14.171875 0 L 14.73875 0 L 15.305625 0 L 15.8725 0 L 16.439375000000002 0 L 17.00625 0 L 17.573125 0 L 18.14 0 L 18.706875 0 L 19.27375 0 L 19.840625 0 L 20.4075 0 L 20.974375 0 L 21.541249999999998 0 L 22.108125 0 L 22.675 0 L 23.241875 0 L 23.808750000000003 0 L 24.375625000000003 0 L 24.942500000000003 0 L 25.509375000000002 0 L 26.07625 0 L 26.643125 0 L 27.21 0 L 27.776875 0 L 28.34375 0 L 28.910625 0 L 29.4775 0 L 30.044375 0 L 30.61125 0 L 31.178125 0 L 31.745 0 L 32.311875 0 L 32.878750000000004 0 L 33.44562500000001 0 L 34.0125 0 L 34.579375 0 L 35.14625 0 L 35.713125000000005 0 L 36.28 0 L 36.28 0 Z" fill="black" stroke="black" />
				</svg>