<svg
					xmlns="http://www.w3.org/2000/svg" xmlns:xlink="http://www.w3.org/1999/xlink"
					style="
						overflow: visible;
						height: 100;
					"
					viewBox="0 0 52.01953962651803 77.115"
				>
					<path d="M 15.12 0 L 16.346115537702232 0.8943749999999999 L 17.558712820766637 1.7887499999999998 L 18.74446560403823 2.6831249999999995 L 19.89042893407911 3.5774999999999997 L 20.984223015642453 4.471875 L 22.014209050798716 5.366249999999999 L 22.969654553144558 6.260625 L 23.840885789018017 7.154999999999999 L 24.619425180487834 8.049374999999998 L 25.298111718483536 8.94375 L 25.871202675752137 9.838125 L 26.334455174939173 10.732499999999998 L 26.68518645322409 11.626875 L 26.922311967528 12.52125 L 27.046360799058256 13.415624999999999 L 27.05946813838792 14.309999999999999 L 26.965344957810025 15.204374999999999 L 26.769225301731947 16.098749999999995 L 26.477791943782254 16.993125 L 26.099081466575626 17.8875 L 25.642370112356044 18.781875 L 25.11804202586367 19.67625 L 24.537441760866585 20.570625 L 23.912713145313095 21.464999999999996 L 23.256626793818583 22.359375 L 22.582398717451092 23.25375 L 21.90350260723098 24.148125 L 21.2334784576172 25.0425 L 20.585740248238125 25.936874999999997 L 19.97338541550155 26.831249999999997 L 19.409008820295547 27.725625 L 18.90452385413044 28.619999999999997 L 19.960258820295547 27.725625 L 21.07588541550155 26.831249999999997 L 22.23949024823812 25.936874999999997 L 23.4384784576172 25.0425 L 24.659752607230985 24.148125 L 25.889898717451096 23.25375 L 27.115376793818584 22.359375 L 28.322713145313095 21.464999999999996 L 29.498691760866585 20.570625 L 30.630542025863665 19.67625 L 31.70612011235604 18.781875 L 32.71408146657562 17.8875 L 33.644041943782256 16.993125 L 34.48672530173195 16.098749999999995 L 35.23409495781003 15.204374999999999 L 35.87946813838792 14.309999999999999 L 36.41761079905825 13.415624999999999 L 36.844811967528 12.52125 L 37.15893645322409 11.626875 L 37.35945517493918 10.732499999999998 L 37.44745267575214 9.838125 L 37.42561171848354 8.94375 L 37.29817518048783 8.049374999999998 L 37.07088578901802 7.154999999999999 L 36.75090455314456 6.260625 L 36.34670905079871 5.366249999999999 L 35.86797301564245 4.471875 L 35.325428934079106 3.5774999999999997 L 34.73071560403823 2.6831249999999995 L 34.09621282076663 1.7887499999999998 L 33.43486553770224 0.8943749999999999 L 32.76 0 L 33.700625 0 L 34.64125 0 L 35.581875 0 L 36.522499999999994 0 L 37.46312499999999 0 L 38.403749999999995 0 L 39.344375 0 L 40.285 0 L 41.225624999999994 0 L 42.16625 0 L 43.106875 0 L 44.0475 0 L 44.988125 0 L 45.92875 0 L 46.869375000000005 0 L 47.81 0 L 48.32737547185484 0.7340624999999998 L 48.83726812919015 1.4681249999999997 L 49.332266782020255 2.2021874999999995 L 49.80510280384639 2.9362499999999994 L 50.248719706010505 3.670312499999999 L 50.656340681493006 4.404374999999999 L 51.02153347163409 5.138437499999998 L 51.3382719348826 5.872499999999999 L 51.60099372824436 6.606562499999999 L 51.80465354931079 7.340624999999998 L 51.944771429241705 8.074687499999998 L 52.01747561444824 8.808749999999998 L 52.01953962651803 9.542812499999998 L 51.94841314564974 10.276874999999997 L 51.80224642198468 11.010937499999997 L 51.57990798117351 11.744999999999997 L 51.280995454702534 12.479062499999996 L 50.9058394313131 13.213124999999998 L 50.4555002926489 13.947187499999998 L 49.93175806341989 14.681249999999997 L 49.3370953732357 15.415312499999995 L 48.674673693195714 16.149374999999996 L 47.94830307469628 16.8834375 L 47.16240568011082 17.617499999999996 L 46.32197345442304 18.351562499999993 L 45.432520342974364 19.085624999999997 L 44.50002951269157 19.819687499999997 L 43.53089608198591 20.553749999999994 L 42.531865907505896 21.287812499999994 L 41.509971013668995 22.021874999999994 L 40.472462283032385 22.755937499999995 L 39.42674005178188 23.489999999999995 L 38.380283274670035 24.224062499999995 L 37.340577937427476 24.958124999999992 L 36.31504540187469 25.692187499999996 L 35.310971369605376 26.426249999999996 L 34.33543614419214 27.160312499999993 L 33.395246859435346 27.894374999999997 L 32.49687232235791 28.628437499999997 L 31.646381094620114 29.362499999999994 L 30.849383405031467 30.09656249999999 L 30.11097744916534 30.83062499999999 L 29.435700590089553 31.564687499999994 L 28.82748592731337 32.29874999999999 L 28.28962464966701 33.03281249999999 L 27.82473453246747 33.766875 L 27.434734880511336 34.50093749999999 L 27.120828156737247 35.23499999999999 L 26.883488472405993 35.96906249999999 L 26.722457048968778 36.703124999999986 L 26.63674469506206 37.43718749999999 L 26.624641274919487 38.17124999999999 L 26.683732077570504 38.905312499999994 L 26.810920930141812 39.639374999999994 L 27.002459834024094 40.373437499999994 L 27.2539848402305 41.10749999999999 L 27.560557820552532 41.84156249999999 L 27.916713734685313 42.57562499999999 L 28.316512940887314 43.309687499999995 L 28.753598049463747 44.04374999999999 L 29.221254774879398 44.77781249999999 L 29.712476204032306 45.51187499999999 L 30.220029865520765 46.24593749999999 L 30.736526957925147 46.97999999999999 L 31.73941341617229 47.92171874999999 L 32.72892565755718 48.86343749999999 L 33.68948357579446 49.80515624999999 L 34.605962957323754 50.746874999999996 L 35.463933615659876 51.688593749999995 L 36.24988659812141 52.63031249999999 L 36.95144688751312 53.572031249999995 L 37.557568249723765 54.51374999999999 L 38.05870715931718 55.45546874999999 L 38.44697306461687 56.397187499999994 L 38.71625262632439 57.338906249999994 L 38.86230597350497 58.280624999999986 L 38.882833461366715 59.22234374999999 L 38.777511879716485 60.164062499999986 L 38.547999541981454 61.105781249999986 L 38.19791017466865 62.04749999999999 L 37.732756018379 62.98921875 L 37.159861036264225 63.9309375 L 36.488245596479814 64.87265624999999 L 35.728484444336715 65.814375 L 34.892540200413826 66.75609374999999 L 33.99357500624331 67.6978125 L 33.04574328325241 68.63953125 L 32.063968868021604 69.58125 L 31.063710032917594 70.52296874999999 L 30.06071609190736 71.4646875 L 29.070779423852862 72.40640624999999 L 28.10948681773857 73.34812499999998 L 27.19197405496077 74.28984374999999 L 26.332687592838916 75.2315625 L 25.545157101698898 76.17328124999999 L 24.841782436986406 77.115 L 23.968657436986405 77.115 L 23.095532436986407 77.115 L 22.22240743698641 77.115 L 21.349282436986407 77.115 L 20.476157436986405 77.115 L 19.603032436986407 77.115 L 18.72990743698641 77.115 L 17.856782436986407 77.115 L 16.983657436986405 77.115 L 16.110532436986407 77.115 L 15.237407436986409 77.115 L 14.364282436986407 77.115 L 13.491157436986406 77.115 L 12.618032436986407 77.115 L 11.74490743698641 77.115 L 10.871782436986408 77.115 L 11.559178989297468 76.1934375 L 12.32741285576553 75.271875 L 13.164899623800482 74.3503125 L 14.059010597007706 73.42875000000001 L 14.996263226820867 72.5071875 L 15.962524419609437 71.585625 L 16.943223653536684 70.6640625 L 17.923572691519507 69.74249999999999 L 18.888788577177007 68.82093749999999 L 19.824316551150023 67.89937499999999 L 20.716049526374174 66.9778125 L 21.550540812777445 66.05624999999999 L 22.315206883667635 65.1346875 L 22.99851712623856 64.21312499999999 L 23.590167714894264 63.29156249999999 L 24.08123698550701 62.37 L 24.464319967677287 61.448437500000004 L 24.733640046346306 60.526875000000004 L 24.8851360689845 59.6053125 L 24.916523584842427 58.68375 L 24.827329292820316 57.762187499999996 L 24.618898178507283 56.840624999999996 L 24.294373232768756 55.9190625 L 23.85864805771121 54.9975 L 23.318293074692107 54.075937499999995 L 22.68145644710497 53.154375 L 21.957741211952555 52.232812499999994 L 21.158060472975396 51.311249999999994 L 20.29447283891887 50.3896875 L 19.38000058841098 49.468125 L 18.42843330339349 48.54656249999999 L 17.454119932172446 47.625 L 16.39643790685196 46.880859375 L 15.34130532017897 46.13671875 L 14.29650029076188 45.392578125 L 13.269699352391392 44.6484375 L 12.26840194545063 43.904296875 L 11.29985665026684 43.16015625 L 10.370989887994543 42.416015625 L 9.488337790348911 41.671875 L 8.657981908337963 40.927734375 L 7.885489392381195 40.18359375 L 7.175858232219997 39.439453125 L 6.533468095255872 38.6953125 L 5.962037246884728 37.951171875 L 5.464585976571101 37.20703125 L 5.043406889414019 36.462890625 L 4.700042355425154 35.71875 L 4.435269338334658 34.974609375 L 4.249091753152886 34.23046875 L 4.140740427661224 33.486328125 L 4.108680668210827 32.7421875 L 4.150627355409878 31.998046875 L 4.263567421213873 31.25390625 L 4.443789486327787 30.509765625 L 4.686920366398194 29.765625 L 4.987968087909851 29.021484375 L 5.341370990670158 28.27734375 L 5.741052433895274 27.533203125 L 6.180480567793142 26.7890625 L 6.652732582713025 26.044921875 L 7.150562803888404 25.30078125 L 7.666473961973837 24.556640625 L 8.192790938338334 23.8125 L 8.721736259735323 23.068359375 L 9.245506599762047 22.32421875 L 9.756349534617964 21.580078125 L 10.246639798170593 20.8359375 L 10.70895428626201 20.091796875 L 11.136145072492123 19.34765625 L 11.521409717274572 18.603515625 L 11.858358178585114 17.859375 L 12.141075666249222 17.115234375 L 12.364180821516095 16.37109375 L 12.522878649648014 15.626953125 L 12.613007684865003 14.8828125 L 12.631080923716775 14.138671875 L 12.574320124249606 13.39453125 L 12.44068313359168 12.650390625 L 12.22888397515495 11.90625 L 11.938405497869972 11.162109375 L 11.56950446303229 10.41796875 L 11.123209018724621 9.673828125 L 10.60130858665719 8.9296875 L 10.00633626090213 8.185546875 L 9.341543891653076 7.44140625 L 8.610870099093216 6.697265625 L 7.818901531996592 5.953125 L 6.970827752134177 5.208984375 L 6.072390188254625 4.46484375 L 5.129825661743042 3.720703125 L 4.149805039455564 2.9765625 L 3.1393676171581015 2.232421875 L 2.105851878992561 1.48828125 L 1.0568233140403291 0.744140625 L 0 0 L 0.945 0 L 1.89 0 L 2.835 0 L 3.78 0 L 4.725 0 L 5.67 0 L 6.615 0 L 7.56 0 L 8.504999999999999 0 L 9.45 0 L 10.395 0 L 11.34 0 L 12.285 0 L 13.23 0 L 14.175 0 L 15.12 0 L 15.12 0 Z" fill="black" stroke="black" />
				</svg>