<svg
					xmlns="http://www.w3.org/2000/svg" xmlns:xlink="http://www.w3.org/1999/xlink"
					style="
						overflow: visible;
						height: 100;
					"
					viewBox="-5.894012776137974 6.608047442568932e-13 49.688447396586064 79.275"
				>
					<path d="M 42.81189659271409 54.76500000000065 L 42.81189659271409 54.76500000000065 Q 43.02121028964275 55.155937500000654 43.20199444682228 55.54441406250065 Q 43.3634382579202 55.932890625000645 43.49587919696051 56.31890625000065 Q 43.6083795498589 56.70492187500066 43.691647860606075 57.08847656250065 Q 43.754608296930336 57.47203125000065 43.788344173776075 57.85312500000065 Q 43.80163192907871 58.23421875000066 43.78592929163561 58.612851562500666 Q 43.74985705640991 58.99148437500067 43.685243126420005 59.367656250000664 Q 43.60054651406061 59.743828125000654 43.48795738448526 60.117539062500654 Q 43.355768652182526 60.49125000000066 43.19652139978558 60.862500000000665 Q 43.01833997929795 61.23375000000067 42.814101878551625 61.60253906250067 Q 42.5917622762026 61.971328125000674 42.34451767066701 62.33765625000066 Q 42.08015529044877 62.70398437500066 41.792170668618084 63.067851562500664 Q 41.48818609969531 63.43171875000066 41.16197390643153 63.793125000000664 Q 40.82099619741208 64.15453125000067 40.459277890297834 64.51347656250067 Q 40.084127308179326 64.87242187500067 39.68979614122875 65.22890625000068 Q 39.283446883760405 65.58539062500067 38.85953086974487 65.93941406250067 Q 38.42507416687414 66.29343750000066 37.97469963485378 66.64500000000066 Q 37.51681404491088 66.99562500000067 37.04954132818149 67.33804687500066 Q 36.5750709297299 67.68046875000067 36.093275878673694 68.01468750000066 Q 35.605942568233964 68.34890625000067 35.11315487648046 68.67492187500066 Q 34.6163632052518 69.00093750000066 34.115787114571155 69.31875000000066 Q 33.612607443510946 69.63656250000065 33.10710941233763 69.94617187500066 Q 32.60026922736721 70.25578125000067 32.09237320716826 70.55718750000065 Q 31.584255606583515 70.85859375000065 31.076144934276307 71.15179687500066 Q 30.568793292605804 71.44500000000065 30.062318213628668 71.73000000000064 Q 29.557446044253687 72.01500000000064 29.05413591045773 72.29179687500064 Q 28.55314098826066 72.56859375000064 28.054220222669255 72.83718750000065 Q 27.55820208311028 73.10578125000065 27.06460906530081 73.36617187500065 Q 26.574389063343986 73.62656250000066 26.086797160701074 73.87875000000065 Q 25.602940348090996 74.13093750000064 25.12178039589163 74.37492187500064 Q 24.644618555073624 74.61890625000065 24.170102169216907 74.85468750000064 Q 23.699757423846943 75.09046875000064 23.231900611441716 75.31804687500065 Q 22.768309114574468 75.54562500000064 22.30695572742681 75.76500000000064 Q 21.849891007187964 75.98437500000065 21.39788588772878 76.19003906250066 Q 20.949909610903177 76.39570312500065 20.506165081810565 76.58765625000066 Q 20.06613141229397 76.77960937500066 19.62945997207938 76.95785156250065 Q 19.196141722948234 77.13609375000065 18.76529906832666 77.30062500000065 Q 18.33742849501908 77.46515625000066 17.911151204267398 77.61597656250066 Q 17.487455529706008 77.76679687500065 17.06449363754168 77.90390625000066 Q 16.64372559011583 78.04101562500065 16.22287038382538 78.16441406250064 Q 15.803834112555613 78.28781250000065 15.383941544491464 78.39750000000065 Q 14.965514327483252 78.50718750000064 14.545524475473677 78.60316406250065 Q 14.126674662704865 78.69914062500067 13.705627682015916 78.78140625000066 Q 13.285429316083263 78.86367187500065 12.862478318610023 78.93222656250066 Q 12.440122861372357 79.00078125000066 12.014544133560582 79.05562500000065 Q 11.58934969628875 79.11046875000065 11.160550630258049 79.15160156250064 Q 10.731969063076335 79.19273437500064 10.299494128413464 79.22015625000066 Q 9.867116274163873 79.24757812500064 9.430651303301133 79.26128906250065 Q 8.99421066370778 79.27500000000066 8.553585663707782 79.27500000000066 L 8.553585663707782 79.27500000000066 Q 8.112335663707782 79.27500000000066 7.688454557659677 79.26750000000067 Q 7.264580734718916 79.26000000000066 6.858104924897398 79.24500000000066 Q 6.451658207646489 79.23000000000064 6.062667621873256 79.20750000000065 Q 5.673742343604944 79.18500000000066 5.302360070924744 79.15500000000065 Q 4.931093520329111 79.12500000000065 4.577485231337601 79.08750000000066 Q 4.224056981402731 79.05000000000067 3.888430116395102 79.00500000000066 Q 3.5530611121297015 78.96000000000066 3.2356638144168883 78.90750000000067 Q 2.9186151943159118 78.85500000000066 2.6197349604462925 78.79500000000067 Q 2.3222613915396444 78.73312500000065 2.035153962624719 78.66210937500065 Q 1.7486734573875866 78.59109375000065 1.4728751397680888 78.51093750000065 Q 1.1978664072838727 78.43078125000065 0.9338900413215194 78.34148437500065 Q 0.6708804611773553 78.25218750000064 0.4192848004546539 78.15375000000066 Q 0.16884557934267708 78.05531250000065 -0.06977007559499526 77.94773437500065 Q -0.30702966431089695 77.84015625000065 -0.5320318091567602 77.72343750000064 Q -0.7554712075166696 77.60671875000065 -0.9661995606838802 77.48085937500065 Q -1.1751548364880122 77.35500000000064 -1.3709309556035558 77.22000000000065 Q -1.5647239466348104 77.08500000000063 -1.7516891763044473 76.93992187500064 Q -1.9364376995903587 76.79484375000064 -2.113820838202642 76.63968750000063 Q -2.2887627170450235 76.48453125000064 -2.455804811149254 76.31929687500065 Q -2.6201969998513994 76.15406250000065 -2.776168591868601 75.97875000000064 Q -2.929305273095212 75.80343750000064 -3.073525720022868 75.61804687500063 Q -3.2147584894676875 75.43265625000063 -3.3466173908463475 75.23718750000063 Q -3.475377546668642 75.04171875000063 -3.594358271556909 74.83617187500063 Q -3.71018117257406 74.63062500000063 -3.815886415463463 74.41500000000065 L -3.815886415463463 74.41500000000065 L -2.686532778557472 73.25437500000064 L -1.4929715182730738 72.09375000000064 L -0.2637285221375171 70.93312500000064 L 0.9718175356091628 69.77250000000063 L 2.1841373387510394 68.61187500000064 L 3.344256674147816 67.45125000000064 L 4.424448909928222 66.29062500000065 L 5.398897656727929 65.13000000000065 L 6.244313774494207 63.96937500000064 L 6.94049197851182 62.80875000000064 L 7.47079374187181 61.64812500000065 L 7.8225449531058615 60.487500000000644 L 7.987338825044253 59.32687500000064 L 7.961236815433211 58.166250000000645 L 7.744862757347064 57.00562500000065 L 7.34338794969619 55.845000000000645 Q 7.684047272640329 56.040000000000646 8.017907972336275 56.22937500000066 Q 8.346989537196535 56.41875000000066 8.669750071852047 56.602500000000646 Q 8.98793332893054 56.78625000000064 9.300284683551732 56.96437500000065 Q 9.608273940550852 57.14250000000065 9.910927227788829 57.31500000000065 Q 10.209443426904766 57.48750000000065 10.503122113253571 57.65437500000066 Q 10.792895383150345 57.82125000000066 11.078328282377177 57.98250000000066 Q 11.360091252914955 58.143750000000665 11.638006269716435 58.299375000000666 Q 11.912488128538643 58.45500000000066 12.183606727500743 58.60500000000066 Q 12.451527990351845 58.75500000000066 12.716560358847005 58.89937500000066 Q 12.978628319678819 59.04375000000066 13.238269188240235 59.18250000000066 Q 13.495174010645126 59.32125000000066 13.750099090489396 59.45437500000067 Q 14.00251049864714 59.58750000000066 14.253373493246116 59.715000000000664 Q 14.50193801826115 59.84250000000067 14.749368164066482 59.96437500000067 Q 14.994706900179908 60.08625000000067 15.239306990658408 60.20250000000067 Q 15.48201381522512 60.31875000000067 15.724358662153307 60.429375000000675 Q 15.964998873365957 60.540000000000674 16.20563415974877 60.64500000000067 Q 16.444743486760515 60.75000000000067 16.681042842208054 60.84843750000068 Q 16.916010107582505 60.946875000000674 17.148531900607136 61.03875000000066 Q 17.379901471794586 61.130625000000656 17.609163045698132 61.21593750000066 Q 17.837438261373656 61.301250000000664 18.063916135890203 61.38000000000066 Q 18.289559613975086 61.458750000000656 18.513689908882853 61.530937500000654 Q 18.737124053003942 61.60312500000065 18.959303080232594 61.66875000000066 Q 19.401948963973872 61.800000000000644 19.840930734242384 61.90500000000064 Q 20.278468315675642 62.010000000000645 20.713803969806268 62.08875000000064 Q 21.148335920097352 62.16750000000063 21.581745953357952 62.22000000000064 Q 22.01480166313866 62.27250000000064 22.447447015563974 62.29875000000064 Q 22.880004231892382 62.325000000000635 23.312504231892383 62.325000000000635 L 23.312504231892383 62.325000000000635 Q 23.698754231892384 62.325000000000635 24.071072227548015 62.29968750000064 Q 24.44330827509886 62.27437500000064 24.80128399067415 62.22375000000064 Q 25.158930317552944 62.173125000000645 25.5016549199297 62.09718750000064 Q 25.84363258075851 62.021250000000634 26.169685037404243 61.92000000000064 Q 26.49439575620474 61.81875000000065 26.801823313302165 61.69218750000064 Q 27.10712831921607 61.565625000000644 27.393423371923454 61.413750000000654 Q 27.95669665120015 61.11000000000065 28.430668872285477 60.70500000000066 Q 28.881987328606762 60.30000000000065 29.227812156121892 59.84062500000066 Q 29.54386709393294 59.38125000000065 29.739900733497073 58.867500000000646 Q 29.898411514506797 58.353750000000645 29.921084873841657 57.78562500000065 Q 29.898385635853582 57.21750000000064 29.723578797176092 56.595000000000645 L 29.723578797176092 56.595000000000645 Q 29.44021021907711 55.83750000000065 28.98631241987792 55.15125000000066 Q 28.473692355343076 54.465000000000664 27.82074336316564 53.85000000000066 Q 27.4783422573637 53.54250000000065 27.105680550913604 53.25281250000066 Q 26.72431652664359 52.96312500000066 26.3154634529823 52.69125000000066 Q 25.899504755499997 52.41937500000065 25.4584816048176 52.165312500000645 Q 25.011742529342673 51.91125000000064 24.54202982074653 51.675000000000644 Q 24.06654081234774 51.438750000000645 23.52049364607199 51.17976562500064 Q 22.969536083434615 50.920781250000644 22.34686634882427 50.63906250000065 Q 21.719098436391533 50.35734375000065 21.018735226831318 50.05289062500064 Q 20.313354247304982 49.74843750000065 19.534875448580056 49.421250000000654 Q 19.1438750201388 49.25765625000066 18.734583978728967 49.08837890625066 Q 18.324237681845375 48.919101562500664 17.895636957468053 48.74414062500066 Q 17.46610304850765 48.56917968750066 17.018392076773196 48.388535156250654 Q 16.569902273331966 48.20789062500066 16.10335800706171 48.02156250000066 Q 15.636224189922872 47.83523437500067 15.151207778698769 47.643222656250664 Q 14.665828593077862 47.45121093750067 14.162791908846799 47.25351562500067 Q 13.659659164370089 47.05582031250067 13.139151065436314 46.85244140625067 Q 12.61885582150435 46.649062500000674 12.08152803432883 46.44000000000067 L 12.08152803432883 46.44000000000067 Q 11.664350355088319 46.27125000000067 11.25042376781777 46.10144531250067 Q 10.837054469828784 45.93164062500067 10.427134054658374 45.76078125000067 Q 10.017964055151683 45.58992187500066 9.612447498976739 45.41800781250066 Q 9.207878723515753 45.24609375000066 8.807174357084712 45.073125000000665 Q 8.009306734210174 44.72718750000067 7.228208019031185 44.37703125000066 Q 6.453352894072355 44.02687500000066 5.697086845573942 43.67250000000066 Q 4.948751422117139 43.318125000000656 4.220893836378142 42.95953125000066 Q 3.502675152892195 42.600937500000654 2.8068727459113507 42.23812500000066 Q 2.1224192753899462 41.87531250000066 1.4623489174873106 41.50828125000066 Q 0.8153179312315295 41.14125000000065 0.1946417458810128 40.77000000000065 Q -0.41134731220259546 40.398750000000646 -0.9948446022203639 40.006406250000644 Q -1.56055079386452 39.61406250000064 -2.0986081177234706 39.20062500000065 Q -2.6155062291227775 38.78718750000065 -3.099123902112397 38.35265625000064 Q -3.5580278887492685 37.91812500000064 -3.9776447452187815 37.462500000000645 Q -4.368917039980964 37.00687500000065 -4.714662948156995 36.530156250000644 Q -5.028502188008812 36.05343750000065 -5.290532825917984 35.555625000000646 Q -5.517345445216488 35.05781250000065 -5.686262876780007 34.53890625000065 Q -5.817120050359704 34.02000000000065 -5.884477894558389 33.48000000000065 Q -5.911653888411297 32.94000000000065 -5.861373792670912 32.364609375000654 Q -5.767692938357753 31.789218750000654 -5.588715463707732 31.178437500000655 Q -5.364677513599149 30.567656250000656 -5.049502795908603 29.92148437500066 Q -4.68982307216014 29.27531250000066 -4.236075432735532 28.593750000000654 Q -3.7412829445539386 27.912187500000652 -3.153349260513892 27.195234375000652 Q -2.531395497458254 26.478281250000656 -1.8219893805961127 25.725937500000658 Q -1.4582183858232383 25.349765625000657 -1.0745260262715512 24.96474609375066 Q -0.6869141070724609 24.57972656250066 -0.28114769539131335 24.185859375000657 Q 0.12645157935796233 23.791992187500654 0.5500608966624735 23.389277343750656 Q 0.9731393667980355 22.986562500000655 1.4097055372007763 22.575000000000657 L 1.4097055372007763 22.575000000000657 Q 1.900066664270568 22.109062500000658 2.3842590498900487 21.652617187500656 Q 2.8609916063223335 21.19617187500066 3.3286859465166225 20.749218750000658 Q 3.7859762830259207 20.302265625000658 4.23196085718477 19.86480468750066 Q 4.665069051373731 19.42734375000066 5.0851908659770215 18.999375000000658 Q 5.49042948387765 18.571406250000656 5.881560911466213 18.15292968750066 Q 6.256251257139118 17.734453125000655 6.61623661311076 17.325468750000656 Q 6.958646939531833 16.916484375000657 7.286233369207181 16.516992187500655 Q 7.595503339386749 16.117500000000653 7.890260146012691 15.727500000000655 Q 8.166315543824403 15.337500000000656 8.428545757017561 14.956992187500655 Q 8.67200708173231 14.576484375000653 8.902654672991007 14.205468750000653 Q 9.114742836355138 13.834453125000653 9.315298558277862 13.47292968750065 Q 9.49774046119638 13.111406250000652 9.670148841107977 12.759375000000652 Q 9.825085158130788 12.407343750000653 9.971654732564385 12.064804687500652 Q 10.10155179241746 11.722265625000649 10.22487024046695 11.389218750000648 Q 10.33243747238128 11.056171875000647 10.435292904151147 10.732617187500647 Q 10.52340693208119 10.409062500000646 10.608716221103364 10.095000000000645 Q 10.67999079915726 9.781875000000646 10.748419220837349 9.478359375000647 Q 10.80436022855621 9.174843750000647 10.85935565191187 8.880937500000648 Q 10.902974279028923 8.58703125000065 10.947497213076531 8.30273437500065 Q 10.981740478597075 8.018437500000651 11.018666847219627 7.743750000000652 Q 11.046380680396865 7.469062500000653 11.078469081444082 7.203984375000653 Q 11.102368745168173 6.938906250000654 11.132234753333988 6.683437500000655 Q 11.154882087320043 6.427968750000655 11.184979037882641 6.182109375000655 Q 11.208765926783624 5.936250000000657 11.241371560884918 5.7000000000006565 Q 11.268508988729664 5.4637500000006565 11.305717310668712 5.237109375000657 Q 11.338229343583262 5.0104687500006575 11.381947032400042 4.793437500000658 Q 11.421669072264503 4.576406250000658 11.473615799661768 4.368984375000658 Q 11.522196468254993 4.161562500000658 11.583908498876617 3.9637500000006582 Q 11.642814541537817 3.7659375000006583 11.715651026352965 3.5777343750006585 Q 11.786174662967468 3.3895312500006582 11.871326078934215 3.210937500000658 Q 11.954594275239007 3.032343750000658 12.053092511862387 2.863359375000658 Q 12.150077693168761 2.6943750000006577 12.262807336743075 2.5350000000006574 Q 12.375289350355743 2.3765625000006576 12.502229590483783 2.2280273437506577 Q 12.628251361972275 2.079492187500658 12.769095587763871 1.9408593750006582 Q 12.909240355274687 1.8022265625006584 13.064505557199675 1.6734960937506584 Q 13.219249236510146 1.5447656250006587 13.389353152241574 1.4259375000006589 Q 13.559077563860143 1.307109375000659 13.744351612692718 1.198183593750659 Q 13.929357229492606 1.0892578125006593 14.130058871181895 0.9902343750006595 Q 14.33057692188254 0.8912109375006596 14.546901294916493 0.8020898437506597 Q 14.76310509304107 0.7129687500006598 14.995195818990403 0.63375000000066 Q 15.227211216469044 0.5545312500006601 15.475170284002676 0.48521484375066015 Q 15.72308517351474 0.41589843750066025 15.986981838123194 0.3564843750006603 Q 16.250854648832316 0.2970703125006604 16.53073330257344 0.24755859375066047 Q 16.8106004504365 0.19804687500066054 17.10648743046607 0.1584375000006606 Q 17.402369697176514 0.11882812500066064 17.714279012859464 0.08912109375066068 Q 18.026186837141438 0.059414062500660725 18.354124803597617 0.03960937500066075 Q 18.68206247545029 0.019804687500660778 19.0260312469319 0.009902343750660791 Q 19.3700000000007 6.608047442568932e-13 19.7300000000007 6.608047442568932e-13 L 19.7300000000007 6.608047442568932e-13 Q 20.0450000000007 6.608047442568932e-13 20.363054686607473 0.006562500000660748 Q 20.681109367854873 0.013125000000660692 21.00221869283407 0.026250000000660578 Q 21.323327932063467 0.039375000000660465 21.64749153633866 0.059062500000660295 Q 21.971654706509213 0.07875000000066013 22.298871341369892 0.1050000000006599 Q 22.626086604276793 0.13125000000065967 22.956353231128897 0.1640625000006594 Q 23.2866165086441 0.1968750000006591 23.619927077568228 0.23625000000065877 Q 23.953230701906904 0.2756250000006584 24.28957460964099 0.321562500000658 Q 24.625905653497973 0.36750000000065763 24.965265882046744 0.4200000000006572 Q 25.30460417015688 0.47250000000065673 25.646955108111733 0.5315625000006562 Q 25.989270912820114 0.5906250000006557 26.33457586271099 0.6562500000006551 Q 26.679827287555053 0.7218750000006546 27.028035664210744 0.794062500000654 Q 27.376165721375003 0.8662500000006533 27.72720994839852 0.9450000000006527 Q 28.0781433382623 1.023750000000652 28.43193545238992 1.1090625000006513 Q 28.785575056303763 1.1943750000006506 29.142003032663574 1.2862500000006496 Q 29.49822613361275 1.3781250000006489 29.85714994877971 1.4765625000006481 Q 30.21580419876947 1.5750000000006472 30.577051653072434 1.6800000000006463 Q 30.936978984770743 1.7840625000006463 31.295181454906018 1.8900585937506464 Q 31.65298549935554 1.9960546875006462 32.008991861954655 2.103984375000646 Q 32.36453954255332 2.2119140625006466 32.718210844708906 2.3217773437506466 Q 33.07135919085664 2.4316406250006466 33.42254643400641 2.543437500000647 Q 34.12312204185421 2.7670312500006475 34.81529730720608 2.998359375000648 Q 35.50451059652619 3.229687500000649 36.18449478831064 3.46875000000065 Q 36.86085262466855 3.707812500000651 37.52704825217927 3.9546093750006523 Q 38.188885391328675 4.2014062500006535 38.83952128068043 4.455937500000656 Q 39.484999798621814 4.710468750000658 40.11813206364206 4.972734375000659 Q 40.74524372358427 5.235000000000661 41.358759917717244 5.505000000000663 L 41.358759917717244 5.505000000000663 L 41.83932335529079 6.510937500000662 L 42.21022627198309 7.5168750000006614 L 42.460034994839404 8.522812500000661 L 42.57949101301923 9.52875000000066 L 42.56167728438274 10.534687500000658 L 42.40214248329759 11.540625000000658 L 42.09898095785711 12.546562500000658 L 41.65286696027317 13.552500000000656 L 41.067042535578175 14.558437500000654 L 40.34725928618618 15.564375000000654 L 39.50167505837079 16.570312500000654 L 38.54070740643565 17.576250000000652 L 37.47684646673647 18.58218750000065 L 36.324430602816925 19.58812500000065 L 35.09938885164682 20.59406250000065 L 33.818954797288214 21.600000000000648 Q 33.69538724677634 21.31687500000065 33.55562414506399 21.04804687500065 Q 33.412480442246775 20.779218750000652 33.25316224401133 20.524687500000653 Q 33.090214166950666 20.270156250000653 32.911330135564455 20.029921875000653 Q 32.728722277443275 19.789687500000657 32.53059426198909 19.563750000000656 Q 32.32877693523886 19.337812500000656 32.11199461775463 19.126171875000654 Q 31.891660703444785 18.914531250000657 31.657021269474267 18.717187500000655 Q 31.419047839915955 18.519843750000657 31.167500714582918 18.336796875000655 Q 30.912895931358115 18.153750000000656 30.64549292858453 17.985000000000653 Q 30.376598448174875 17.81625000000065 30.09620219956797 17.66859375000065 Q 29.813612600972974 17.52093750000065 29.520686239620815 17.39437500000065 Q 29.226090639944047 17.26781250000065 28.922217145447377 17.16234375000065 Q 28.617151703061175 17.056875000000648 28.303731388380527 16.972500000000647 Q 27.98953161747941 16.888125000000645 27.667740923936222 16.824843750000646 Q 27.345504713412485 16.761562500000647 27.016264925204624 16.719375000000646 Q 26.686824930997727 16.67718750000064 26.350779585128176 16.656093750000643 Q 26.014683862733342 16.635000000000645 25.67218386273334 16.635000000000645 L 25.67218386273334 16.635000000000645 Q 25.339683862733338 16.635000000000645 25.01486183609424 16.657031250000646 Q 24.68998486073324 16.679062500000644 24.37256655623412 16.723125000000643 Q 24.054929938737573 16.767187500000645 23.74431785869252 16.83328125000065 Q 23.433220216100526 16.89937500000065 23.128507314378385 16.98750000000065 Q 22.516543266573475 17.16375000000065 21.924878735742567 17.428125000000655 Q 21.325961648022588 17.692500000000656 20.73821349202551 18.045000000000663 Q 20.14169706393177 18.393750000000658 19.572008982468056 18.790312500000656 Q 18.989034998722914 19.186875000000654 18.4284211991254 19.631250000000655 Q 17.853757250243376 20.075625000000652 17.29833107556 20.56781250000065 Q 16.72951785815645 21.06000000000065 16.17895479728822 21.600000000000648 L 16.17895479728822 21.600000000000648 Q 15.700081093030104 22.061250000000648 15.303649701380982 22.49437500000065 Q 14.903434400103166 22.927500000000652 14.589703054525007 23.332500000000657 Q 14.27525832821665 23.737500000000658 14.050023912078565 24.114375000000656 Q 13.826275753327304 24.49125000000066 13.693329524508565 24.840000000000664 Q 13.55691017250424 25.192500000000663 13.48727247114011 25.560937500000662 Q 13.42271874533856 25.929375000000665 13.427657266288223 26.31375000000066 Q 13.432889930191589 26.505937500000663 13.45609235272172 26.70210937500066 Q 13.481519845315999 26.898281250000657 13.525359443179195 27.098437500000657 Q 13.571787115642538 27.298593750000656 13.637103874577644 27.502734375000657 Q 13.705393329851379 27.706875000000657 13.793083029014936 27.91500000000066 Q 13.881259450060671 28.12500000000066 13.986233264885911 28.34929687500066 Q 14.095470052913726 28.573593750000658 14.22293558560106 28.812187500000654 Q 14.355616646288546 29.05078125000065 14.508171093520495 29.30367187500065 Q 14.667027702857979 29.55656250000065 14.84762542780749 29.82375000000065 Q 15.035748201565124 30.090937500000653 15.247708343793532 30.372421875000654 Q 15.468550760622598 30.653906250000652 15.715555214984903 30.94968750000065 Q 15.972926562123789 31.245468750000647 16.259006114287075 31.555546875000648 Q 16.406516183090986 31.710585937500646 16.561714629290023 31.86919921875065 Q 16.720114038531772 32.02781250000065 16.88655791663477 32.19000000000065 L 16.88655791663477 32.19000000000065 Q 17.054526970276466 32.344687500000646 17.22053164666755 32.50130859375065 Q 17.3897775157473 32.657929687500655 17.557272923188386 32.816484375000655 Q 17.90241097570734 33.13359375000066 18.241833527578258 33.458437500000656 Q 18.595790328002877 33.783281250000655 18.945737587932747 34.11585937500065 Q 19.31120318028701 34.44843750000065 19.674328391820644 34.788750000000654 Q 20.053876967966946 35.12906250000066 20.432686749086542 35.47710937500065 Q 20.82871900180624 35.825156250000646 21.22551281604323 36.18093750000065 Q 21.64019354351401 36.53671875000065 22.056998744996022 36.90023437500065 Q 22.492190408601964 37.26375000000065 22.930693683986025 37.635000000000645 Q 23.38788685046118 38.00625000000065 23.85134101527397 38.39437500000065 Q 24.334466354578325 38.782500000000645 24.826389849648756 39.187500000000654 Q 25.3386379848099 39.59250000000065 25.86182905026213 40.01437500000065 Q 26.405573831286517 40.43625000000065 26.96188151608931 40.875000000000654 Q 27.538445259735273 41.31375000000065 28.128526426784354 41.76937500000065 Q 28.737934678208667 42.225000000000655 29.36100505893515 42.69750000000066 Q 30.0017400599749 43.170000000000655 30.655329959358088 43.65937500000065 Q 31.3240946053529 44.14875000000066 32.00382250370128 44.655000000000655 Q 32.6965791999858 45.16125000000065 33.40961481706377 45.698906250000654 Q 34.13041153543842 46.23656250000066 34.86749442086283 46.80562500000065 Q 35.60653018841666 47.374687500000654 36.35528792117704 47.97515625000065 Q 37.098240848740204 48.57562500000065 37.8415383120738 49.20750000000065 Q 38.56927156392132 49.83937500000065 39.28506016850903 50.502656250000655 Q 39.97362264513395 51.16593750000065 40.635141808613625 51.860625000000645 Q 41.25616718454122 52.55531250000065 41.83260218704373 53.28140625000066 Q 42.35420654582758 54.007500000000654 42.81189659271409 54.76500000000065 L 42.81189659271409 54.76500000000065 Z" fill="black" stroke="black" />
				</svg>