<svg
					xmlns="http://www.w3.org/2000/svg" xmlns:xlink="http://www.w3.org/1999/xlink"
					style="
						overflow: visible;
						height: 100;
					"
					viewBox="-7.988614512069329 2.1316282072803006e-14 52.641415884217565 77.11499999999998"
				>
					<path d="M 2.2737367544323207e-14 2.1316282072803006e-14 L 0.5265625000000228 2.1316282072803006e-14 L 1.0531250000000227 2.1316282072803006e-14 L 1.5796875000000228 2.1316282072803006e-14 L 2.106250000000023 2.1316282072803006e-14 L 2.6328125000000226 2.1316282072803006e-14 L 3.159375000000023 2.1316282072803006e-14 L 3.685937500000023 2.1316282072803006e-14 L 4.2125000000000234 2.1316282072803006e-14 L 4.739062500000023 2.1316282072803006e-14 L 5.265625000000023 2.1316282072803006e-14 L 5.792187500000024 2.1316282072803006e-14 L 6.318750000000024 2.1316282072803006e-14 L 6.8453125000000234 2.1316282072803006e-14 L 7.371875000000024 2.1316282072803006e-14 L 7.898437500000024 2.1316282072803006e-14 L 8.425000000000024 2.1316282072803006e-14 L 8.951562500000025 2.1316282072803006e-14 L 9.478125000000023 2.1316282072803006e-14 L 10.004687500000022 2.1316282072803006e-14 L 10.531250000000023 2.1316282072803006e-14 L 11.057812500000024 2.1316282072803006e-14 L 11.584375000000025 2.1316282072803006e-14 L 12.110937500000025 2.1316282072803006e-14 L 12.637500000000024 2.1316282072803006e-14 L 13.164062500000023 2.1316282072803006e-14 L 13.690625000000024 2.1316282072803006e-14 L 14.217187500000025 2.1316282072803006e-14 L 14.743750000000025 2.1316282072803006e-14 L 15.270312500000026 2.1316282072803006e-14 L 15.796875000000025 2.1316282072803006e-14 L 16.323437500000022 2.1316282072803006e-14 L 16.850000000000023 2.1316282072803006e-14 Q 17.177343750000023 2.1316282072803006e-14 17.505506347112245 0.0055627441406463154 Q 17.83366894096029 0.011125488281271315 18.16265035580717 0.022250976562521313 Q 18.491631718427332 0.03337646484377131 18.82143173230988 0.05006469726564631 Q 19.15123148179631 0.0667529296875213 19.481849334172157 0.0890039062500213 Q 19.8124663509394 0.1112548828125213 20.143900191096336 0.1390686035156463 Q 20.475331991263054 0.1668823242187713 20.807578134304006 0.2002587890625213 Q 21.139820047483624 0.23363525390627127 21.472872034893104 0.2725744628906463 Q 21.80591618676087 0.31151367187502127 22.13976365207905 0.35601562500002126 Q 22.473597752395627 0.40051757812502126 22.808225092912085 0.45058227539064627 Q 23.14283103013569 0.5006469726562712 23.47821588605698 0.5562744140625212 Q 23.813568130296243 0.6119018554687712 24.1496796735664 0.6730920410156462 Q 24.48574349044073 0.7342822265625212 24.822540526327785 0.8010351562500212 Q 25.159270005336886 0.8677880859375211 25.496698891066597 0.9401037597656462 Q 25.834034793351037 1.0124194335937713 26.17202717949602 1.0902978515625212 Q 26.509894611419753 1.1681762695312712 26.848365013460878 1.251617431640646 Q 27.18667093428739 1.3350585937500212 27.525514143775787 1.424062500000021 Q 28.202549542206732 1.602070312500021 28.881231353089028 1.8023291015625211 Q 29.558555758607223 2.002587890625021 30.23662410511606 2.225097656250021 Q 30.912634042222376 2.447607421875021 31.58816151398955 2.692368164062521 Q 32.26069591201224 2.9371289062500208 32.93113530901682 3.204140625000021 Q 33.59737382596546 3.4711523437500205 34.259456641984066 3.760415039062521 Q 34.91582043581877 4.049677734375021 35.56546094504172 4.361191406250021 Q 36.20752185402111 4.672705078125021 36.83973353965008 5.00646972656252 Q 37.462139032383085 5.340234375000021 38.070971528040836 5.6962500000000205 Q 38.66739421320528 6.05226562500002 39.24590033782613 6.430532226562521 Q 39.809022177124305 6.8087988281250205 40.349265906156575 7.209316406250021 Q 40.87080840939423 7.609833984375021 41.36392557617409 8.03260253906252 Q 41.834737993312814 8.45537109375002 42.271061952373906 8.90039062500002 Q 42.681279595531976 9.34541015625002 43.050543767158054 9.812680664062519 Q 43.38982784550117 10.27995117187502 43.68145573411315 10.76947265625002 Q 43.93932419585663 11.25899414062502 44.1428148587382 11.77076660156252 Q 44.3090704354871 12.282539062500021 44.414483210271506 12.81656250000002 Q 44.47973990495673 13.350585937500018 44.47827626709284 13.906860351562518 Q 44.43457873749099 14.463134765625018 44.31925132357782 15.04166015625002 Q 44.1607729197409 15.620185546875021 43.92714202974855 16.22096191406252 Q 43.65093674249206 16.82173828125002 43.29788323151144 17.44476562500002 Q 42.90465482254071 18.06779296875002 42.43514567615693 18.71307128906252 Q 41.92998439405061 19.35834960937502 41.35177422818849 20.025878906250018 Q 40.74479870637646 20.693408203125017 40.07099807240584 21.383188476562516 Q 39.377828554921386 22.07296875000002 38.62725975968765 22.785000000000018 L 38.62725975968765 22.785000000000018 Q 38.16061898910639 23.223750000000017 37.69147816001847 23.655117187500018 Q 37.222665998053614 24.08648437500002 36.754373689097186 24.510468750000015 Q 36.289305269625174 24.93445312500001 35.82739864837288 25.35105468750001 Q 35.37132307403161 25.767656250000012 34.920660027078 26.176875000000013 Q 34.47813155207087 26.586093750000014 34.04287117293376 26.987929687500014 Q 33.61773766259559 27.389765625000013 33.20133694603297 27.78421875000001 Q 32.79674366031328 28.17867187500001 32.40196839705671 28.565742187500007 Q 32.02037504460388 28.952812500000007 31.649322847503193 29.33250000000001 Q 31.292531825988636 29.712187500000013 30.946665219470002 30.08449218750001 Q 30.61585898588055 30.45679687500001 30.29604654510468 30.82171875000001 Q 29.9918321366123 31.18664062500001 29.69839576059367 31.544179687500005 Q 29.420854602246873 31.901718750000008 29.15362113671003 32.25187500000001 Q 28.902362417103824 32.60203125000001 28.660717998939447 32.94480468750001 Q 28.434934060502226 33.28757812500001 28.217879728110173 33.62296875000001 Q 28.01640209688442 33.95835937500001 27.82260939216686 34.286367187500005 Q 27.643964256125212 34.61437500000001 27.47182972813088 34.93500000000001 Q 27.314291857340606 35.25562500000001 27.164556916147028 35.56974609375001 Q 27.028846866873103 35.883867187500016 26.89974384265272 36.191484375000016 Q 26.784011146985463 36.499101562500016 26.673631192433074 36.80021484375001 Q 26.57590205124601 37.10132812500001 26.48223373015041 37.39593750000001 Q 26.400448412811194 37.69054687500001 26.32141333654681 37.978652343750014 Q 26.253460501165733 38.26675781250002 26.186945793985224 38.54835937500001 Q 26.130693551850324 38.82996093750001 26.0745810145661 39.105058593750016 Q 26.027904646413198 39.38015625000001 25.98009656626072 39.648750000000014 Q 25.940902871424008 39.91734375000001 25.899344493532617 40.179433593750005 Q 25.86559281587937 40.44152343750001 25.828291549028545 40.69710937500001 Q 25.79801157619977 40.95269531250001 25.763053052815874 41.20177734375001 Q 25.734359528164145 41.450859375000014 25.699920676382497 41.693437500000016 Q 25.671025196751266 41.93601562500001 25.63538451152317 42.17208984375001 Q 25.604604609387508 42.408164062500006 25.56614983082583 42.63773437500001 Q 25.53191555711657 42.86730468750001 25.48914897837237 43.09037109375001 Q 25.450007213374832 43.31343750000001 25.401548848167646 43.530000000000015 L 25.401548848167646 43.530000000000015 L 26.895902083405115 44.57953125000002 L 28.442303290277998 45.62906250000002 L 30.0196715558843 46.67859375000001 L 31.60632054371733 47.72812500000001 L 33.1803824738743 48.77765625000001 L 34.72023565058642 49.82718750000001 L 36.2049271786642 50.876718750000016 L 37.614582604511334 51.92625000000001 L 38.93079447299214 52.975781250000004 L 40.13698220364513 54.02531250000001 L 41.218716250457945 55.074843750000014 L 42.16400020769583 56.12437500000001 L 42.96350534645445 57.173906250000016 L 43.610752996613726 58.22343750000002 L 44.10224120852227 59.27296875000001 L 44.43751321810402 60.32250000000002 L 44.61916637685569 61.37203125000002 L 44.65280137214823 62.421562500000014 L 44.54691273060446 63.47109375000002 L 44.312722745273966 64.52062500000002 L 43.9639620734236 65.57015625000003 L 43.51660129438117 66.61968750000003 L 42.988538675629535 67.66921875000003 L 42.39925025150119 68.71875000000003 L 41.76940905563391 69.76828125000002 L 41.12048095140931 70.81781250000002 L 40.474304962119376 71.86734375000003 L 39.85266630564442 72.91687500000002 L 39.276870481057365 73.96640625 L 38.76732673400365 75.01593750000002 L 38.34314904434514 76.06546875000002 L 38.0217824369864 77.11500000000001 L 37.03615743698639 77.11500000000001 L 36.050532436986394 77.11500000000001 L 35.064907436986395 77.11500000000001 L 34.0792824369864 77.11500000000001 L 33.0936574369864 77.11500000000001 L 32.1080324369864 77.11500000000001 L 31.1224074369864 77.11500000000001 L 30.1367824369864 77.11500000000001 L 29.151157436986402 77.11500000000001 L 28.165532436986403 77.11500000000001 L 27.179907436986404 77.11500000000001 L 26.194282436986406 77.11500000000001 L 25.208657436986407 77.11500000000001 L 24.223032436986404 77.11500000000001 L 23.237407436986402 77.11500000000001 L 22.251782436986403 77.11500000000001 L 22.564697588034072 76.23750000000001 L 22.95138909360036 75.36000000000001 L 23.401924889239613 74.48250000000002 L 23.90549994253954 73.60500000000002 L 24.450583994558496 72.7275 L 25.0250792175688 71.85000000000001 L 25.616485633390397 70.97250000000003 L 26.212072030484947 70.09500000000001 L 26.79905004279408 69.21750000000002 L 27.364749010073936 68.34000000000003 L 27.896789228791903 67.46250000000002 L 28.383251224658334 66.58500000000002 L 28.812838732263874 65.70750000000002 L 29.17503315333761 64.83000000000001 L 29.460237381658242 63.952500000000015 L 29.659907028043733 63.07500000000002 L 29.76666725112879 62.19750000000002 L 29.7744135964574 61.320000000000014 L 29.678395465077823 60.44250000000001 L 29.475281070341467 59.56500000000001 L 29.163202994725758 58.687500000000014 L 28.741783723764843 57.81000000000001 L 28.21214080795265 56.93250000000002 L 27.57687158203754 56.05500000000002 L 26.840017650647745 55.177500000000016 L 26.0070096258494 54.300000000000026 L 25.084592872262213 53.42250000000003 L 24.08073527504895 52.54500000000002 L 23.004518291902976 51.66750000000002 L 21.86601277872274 50.79000000000002 L 20.67614128685741 49.91250000000002 L 19.446528714787174 49.03500000000002 L 18.564028714787174 49.03500000000002 L 17.681528714787174 49.03500000000002 L 16.799028714787177 49.03500000000002 L 15.916528714787177 49.03500000000002 L 16.80645378685741 49.91250000000002 L 17.656637778722743 50.79000000000002 L 18.455455791902978 51.66750000000002 L 19.191985275048957 52.54500000000002 L 19.856155372262215 53.42250000000003 L 20.4388846258494 54.300000000000026 L 20.932205150647746 55.177500000000016 L 21.32937158203754 56.05500000000002 L 21.62495330795265 56.93250000000002 L 21.814908723764844 57.81000000000001 L 21.89664049472576 58.687500000000014 L 21.869031070341464 59.56500000000001 L 21.732457965077824 60.44250000000001 L 21.4887885964574 61.320000000000014 L 21.14135475112879 62.19750000000002 L 20.694907028043733 63.07500000000002 L 20.155549881658242 63.952500000000015 L 19.53065815333761 64.83000000000001 L 18.828776232263873 65.70750000000002 L 18.059501224658334 66.58500000000002 L 17.233351728791902 67.46250000000002 L 16.361624010073935 68.34000000000003 L 15.456237542794076 69.21750000000002 L 14.529572030484944 70.09500000000001 L 13.594298133390396 70.97250000000003 L 12.663204217568797 71.85000000000001 L 11.749021494558495 72.7275 L 10.864249942539539 73.60500000000002 L 10.02098738923961 74.48250000000002 L 9.230764093600357 75.36000000000001 L 8.50438508803407 76.23750000000001 L 7.8517824369864 77.11500000000001 L 6.9830324369864 77.11500000000001 L 6.114282436986399 77.11500000000001 L 5.245532436986399 77.11500000000001 L 4.376782436986399 77.11500000000001 L 3.508032436986398 77.11500000000001 L 2.639282436986398 77.11500000000001 L 1.7705324369863984 77.11500000000001 L 0.9017824369863989 77.11500000000001 L 0.03303243698639857 77.11500000000001 L -0.8357175630136018 77.11500000000001 L -1.7044675630136021 77.11500000000001 L -2.5732175630136016 77.11500000000001 L -3.441967563013602 77.11500000000001 L -4.310717563013602 77.11500000000001 L -5.179467563013602 77.11500000000001 L -6.048217563013602 77.11500000000001 L -5.1326981139162 75.91007812500001 L -4.0849862120165445 74.70515625000002 L -2.9320656391518773 73.50023437500002 L -1.7036298226445261 72.29531250000002 L -0.43131708216382997 71.09039062500001 L 0.8521042140435618 69.88546875000002 L 2.1135795972832274 68.68054687500002 L 3.3206198150491932 67.47562500000002 L 4.442137590537675 66.27070312500003 L 5.449248274327925 65.06578125000001 L 6.316013767474928 63.86085937500001 L 7.020110556302165 62.655937500000014 L 7.543404653682492 61.45101562500002 L 7.8724186392155096 60.24609375000002 L 7.9986787696986 59.041171875000025 L 7.918933220074211 57.83625000000002 L 7.63523583406565 56.63132812500001 L 7.154893227506878 55.426406250000014 L 6.490276606718072 54.22148437500002 L 5.6585031485378545 53.01656250000002 L 4.680995148057875 51.811640625000024 L 3.5829282881936906 50.60671875000001 L 2.3925832408891146 49.40179687500001 L 1.1406172994413442 48.19687500000001 L -0.14072519897029204 46.991953125000016 L -1.4184433250128505 45.78703125000001 L -2.6596294949315853 44.582109375000016 L -3.8323170041698837 43.37718750000002 L -4.906303328679749 42.17226562500002 L -5.853927989827516 40.96734375000002 L -6.65078494901266 39.762421875000015 L -7.276351184302219 38.55750000000002 L -7.714515260112441 37.35257812500002 L -7.95399227664489 36.14765625000002 L -7.988614512069329 34.942734375000015 L -7.817490271974623 33.73781250000002 L -7.445026854925766 32.53289062500002 L -6.880817042650038 31.327968750000018 L -6.139392038293322 30.12304687500002 L -5.239847215812853 28.918125000000018 L -4.205350319317104 27.713203125000017 L -3.062544778660896 26.50828125000002 L -1.8408635088808092 25.30335937500002 L -0.5717708665414609 24.098437500000017 L 0.7120477136207354 22.893515625000017 L 1.9775275308775961 21.688593750000017 L 3.192076198671003 20.48367187500002 L 4.324413060340469 19.27875000000002 L 5.345374821295062 18.07382812500002 L 6.228666648602381 16.868906250000023 L 6.951539393452103 15.66398437500002 L 7.495375494654239 14.45906250000002 L 7.846168473248844 13.254140625000021 L 7.994883668860998 12.04921875000002 L 7.937690927049389 10.844296875000019 L 7.67606324479431 9.63937500000002 L 7.216738833514138 8.434453125000022 L 6.571547576675901 7.22953125000002 L 5.757106351577869 6.02460937500002 L 4.794391062280536 4.819687500000021 L 3.70819640596225 3.614765625000021 L 2.5264972863973227 2.409843750000021 L 1.2797283213291997 1.2049218750000212 L 2.2737367544323207e-14 2.1316282072803006e-14 L 2.2737367544323207e-14 2.1316282072803006e-14 Z M 23.53758358955715 15.765000000000008 L 23.53758358955715 15.765000000000008 L 22.85258358955715 15.765000000000008 L 22.16758358955715 15.765000000000008 L 21.48258358955715 15.765000000000008 L 20.79758358955715 15.765000000000008 L 20.13086244673788 16.86562500000001 L 19.330196816150146 17.96625000000001 L 18.412798560305703 19.06687500000001 L 17.39838893617486 20.16750000000001 L 16.308774648471942 21.268125000000012 L 15.167379072191851 22.368750000000013 L 13.99873872167957 23.469375000000014 L 12.8279757906078 24.570000000000014 L 11.680258101640133 25.670625000000015 L 10.580258075210441 26.771250000000016 L 9.551622347935234 27.871875000000017 L 8.616463442241052 28.972500000000018 L 7.794884414755458 30.07312500000002 L 7.104546702067452 31.17375000000002 L 6.560290453851932 32.27437500000002 L 6.173815515034886 33.37500000000002 L 6.821315515034887 33.37500000000002 L 7.468815515034886 33.37500000000002 L 8.116315515034884 33.37500000000002 L 8.763815515034885 33.37500000000002 Q 9.160065515034887 33.37500000000002 9.547968025552894 33.34218750000002 Q 9.93601824465043 33.309375000000024 10.316311093713392 33.24375000000002 Q 10.697192604264943 33.17812500000002 11.071490310214433 33.07968750000002 Q 11.447103849920126 32.98125000000002 11.817875902495489 32.85000000000002 Q 12.190963796472605 32.71875000000002 12.561495896951552 32.55468750000002 Q 12.935594473383533 32.39062500000002 13.309926367249755 32.19375000000002 Q 13.689291624380926 31.996875000000017 14.072123180652923 31.767187500000013 Q 14.461620626943358 31.537500000000016 14.858176206679985 31.275000000000013 Q 15.264216299326538 31.01062500000001 15.678198984915074 30.694921875000013 Q 16.103718952019253 30.379218750000017 16.543965667929662 30.012187500000017 Q 16.998729419951026 29.645156250000014 17.475082603610087 29.226796875000016 Q 17.96849551511154 28.808437500000018 18.489804119566216 28.33875000000002 Q 19.0297657894218 27.86906250000002 19.60256437995264 27.34804687500002 Q 20.19402764254239 26.82703125000002 20.820927443450177 26.254687500000024 Q 21.46418912922797 25.682343750000026 22.14203589145811 25.058671875000023 Q 22.83084300095369 24.435000000000024 23.54876578134053 23.760000000000026 L 23.54876578134053 23.760000000000026 Q 24.052675901920107 23.287500000000023 24.501777457928775 22.841250000000024 Q 24.948162465801875 22.39500000000002 25.337013394007176 21.97500000000002 Q 25.7205967850078 21.555000000000017 26.045204824678446 21.161250000000017 Q 26.362876325874034 20.76750000000002 26.621213357376128 20.40000000000002 Q 26.871691775673465 20.032500000000017 27.06335261637947 19.691250000000018 Q 27.24684176044496 19.35000000000002 27.372706744117803 19.035000000000018 Q 27.490562877998784 18.72000000000002 27.552479428701698 18.43125000000002 Q 27.6069030037458 18.142500000000023 27.607396153355847 17.880000000000024 Q 27.601309504556617 17.615625000000023 27.530652640117584 17.38429687500002 Q 27.454412587575376 17.15296875000002 27.316465476421538 16.95468750000002 Q 27.17420556055596 16.75640625000002 26.972919262013242 16.591171875000015 Q 26.76852170164841 16.425937500000014 26.50747961082908 16.29375000000001 Q 26.244388904454336 16.16156250000001 25.926649224553387 16.06242187500001 Q 25.607733331988296 15.963281250000009 25.235714397132753 15.89718750000001 Q 24.86316542819843 15.831093750000008 24.438566293203973 15.79804687500001 Q 24.01383358955715 15.765000000000008 23.53758358955715 15.765000000000008 L 23.53758358955715 15.765000000000008 Z" fill="black" stroke="black" />
				</svg>