<svg
					xmlns="http://www.w3.org/2000/svg" xmlns:xlink="http://www.w3.org/1999/xlink"
					style="
						overflow: visible;
						height: 100;
					"
					viewBox="-7.997522282529787 0 59.98544368248671 78.195"
				>
					<path d="M 43.99 0 L 45.52835796818101 1.4512500000000004 L 47.00929585007275 2.9025000000000007 L 48.37753679677132 4.353750000000002 L 49.582010436588874 5.8050000000000015 L 50.57775910572937 7.256250000000001 L 51.327615918664804 8.707500000000003 L 51.80359204328072 10.158750000000003 L 51.987921399956925 11.610000000000003 L 51.87372379059588 13.061250000000005 L 51.465261705930686 14.512500000000003 L 50.7777812256336 15.963750000000003 L 49.83694294971929 17.415000000000006 L 48.677864202051666 18.866250000000008 L 47.34380825625345 20.317500000000006 L 45.88456950940704 21.768750000000004 L 44.354614877856754 23.220000000000006 L 42.81105078857171 24.671250000000008 L 41.311491649272995 26.12250000000001 L 39.91190935789032 27.57375000000001 L 38.664544119631046 29.025000000000006 L 37.61595455160281 30.476250000000004 L 36.80527985594426 31.927500000000006 L 36.26277892684001 33.37875000000001 L 36.008700920081786 34.83000000000001 L 36.05252944180941 36.281250000000014 L 36.39262856751664 37.732500000000016 L 37.01630390386398 39.18375000000002 L 37.90027641413159 40.63500000000001 L 39.011551321507596 42.08625000000001 L 40.30864965790236 43.53750000000001 L 41.74315649002858 44.98875000000001 L 43.26152803432813 46.44000000000001 Q 43.74655513077728 46.89562500000001 44.220867956492164 47.34540527343752 Q 44.694331371449614 47.79518554687502 45.15367765857276 48.239121093750015 Q 45.60887266063819 48.683056640625026 46.046889479162346 49.12114746093752 Q 46.47772505119483 49.559238281250025 46.88869057703084 49.99148437500001 Q 47.289744762985535 50.42373046875001 47.66862406823935 50.8501318359375 Q 48.035181377914725 51.27653320312501 48.377654922028825 51.69708984375001 Q 48.705726969134844 52.117646484375015 49.00820308929625 52.532358398437516 Q 49.29453387105096 52.94707031250002 49.55414676894422 53.35593750000001 Q 49.796204164150396 53.7648046875 50.010799023199326 54.16782714843751 Q 50.20675419507611 54.570849609375 50.37486114290564 54.96802734375001 Q 50.52355758841175 55.365205078125 50.64435624926957 55.75653808593751 Q 50.745270244437684 56.14787109375 50.818546612118354 56.533359375 Q 50.87174076955553 56.91884765625001 50.897838079564394 57.298491210937506 Q 50.90390966640142 57.678134765625 50.88367486327677 58.05193359375001 Q 50.84370043201791 58.425732421875004 50.77842772031064 58.79368652343751 Q 50.6939054875292 59.16164062500001 50.58527832900102 59.52375000000001 Q 50.458069603541325 59.885859375 50.308102384319874 60.2421240234375 Q 50.1403732030061 60.598388671875 49.95135364783758 60.94880859375 Q 49.74551762749953 61.299228515625 49.51995088839345 61.643803710937505 Q 49.278614152547526 61.98837890625001 49.01916934993244 62.327109375000006 Q 48.45668033829431 63.004570312500014 47.83174424823791 63.658652343750006 Q 47.157811965355805 64.312734375 46.4346880821984 64.9434375 Q 45.67238102154437 65.574140625 44.87352512564706 66.18146484374999 Q 44.04504039882436 66.7887890625 43.19155948172789 67.372734375 Q 42.31735578611912 67.95667968749999 41.428290276791266 68.51724609374999 Q 40.5264877766099 69.0778125 39.61834683092454 69.615 Q 38.705365967356435 70.15125 37.803153271538434 70.653984375 Q 36.90078798315256 71.15671875 36.01406629091443 71.62593749999999 Q 35.57205163782311 71.86054687500001 35.134521510008234 72.08677734375 Q 34.69834304182983 72.31300781249999 34.266880940473115 72.53085937499999 Q 33.83706249127805 72.7487109375 33.41208845986278 72.95818359375 Q 32.98897627006139 73.16765625 32.570743920986196 73.36874999999999 Q 32.154525212852775 73.56984374999999 31.743140217784998 73.76255859374999 Q 31.333861671763877 73.95527343749998 30.929299993159866 74.13960937499999 Q 30.526885841979244 74.3239453125 30.129011453372396 74.49990234375 Q 29.733280965367943 74.67585937499999 29.341862859886557 74.8434375 Q 28.952547032769438 75.011015625 28.567275366465715 75.17021484374999 Q 28.18403269771145 75.32941406249999 27.804533956409134 75.480234375 Q 27.426965196327753 75.6310546875 27.05281631175552 75.77349609375 Q 26.680478140121192 75.9159375 26.31121951314678 76.05 Q 25.943637110128687 76.18406249999998 25.5787845261128 76.30974609375 Q 25.215463033364607 76.4354296875 24.854518477259404 76.55273437499999 Q 24.49495336566995 76.67003906249998 24.13741476279825 76.77896484374997 Q 23.78110113990322 76.88789062499998 23.426471062713986 76.98843749999997 Q 23.072911965473835 77.08898437499998 22.720705357337437 77.18115234374997 Q 22.369419085265243 77.27332031249998 22.01917005991988 77.35710937499998 Q 21.66969660976545 77.44089843749998 21.320964389716696 77.51630859374998 Q 20.972871056439267 77.59171874999998 20.625245115801743 77.65875 Q 20.278131325737455 77.72578125 19.931235803023743 77.78443359375 Q 19.584737244300435 77.84308593749999 19.238234688817236 77.89335937499999 Q 18.892026801484413 77.9436328125 18.54562131357465 77.98552734375 Q 18.19942219787514 78.02742187499999 17.85286201850381 78.0609375 Q 17.50643481445933 78.094453125 17.15951441381157 78.11958984374999 Q 16.812669199047104 78.14472656249998 16.465230907095 78.16148437499999 Q 16.117826152780886 78.17824218749999 15.76976136736218 78.18662109374999 Q 15.421704984480957 78.195 15.072954984480958 78.195 L 15.072954984480958 78.195 Q 14.740142484480959 78.195 14.416868783772374 78.18703124999999 Q 14.093602683376298 78.17906249999999 13.779905762762773 78.163125 Q 13.466239181036881 78.1471875 13.162202352517607 78.12328124999999 Q 12.858233551096152 78.099375 12.563984890020041 78.0675 Q 12.269856574393135 78.03562499999998 11.985568020932924 77.99578125 Q 11.701466303452612 77.9559375 11.427352413693079 77.908125 Q 11.15350541569454 77.86031249999999 10.889821735937925 77.80453125 Q 10.62649779983052 77.74875 10.373538831397205 77.68499999999999 Q 10.121044307455726 77.62124999999997 9.879141023417167 77.54953124999999 Q 9.637817590419955 77.47781249999998 9.407334460476012 77.398125 Q 9.177555934433958 77.31843749999999 8.958887409686543 77.23078124999998 Q 8.741055990841183 77.143125 8.534622396687702 77.04749999999999 Q 8.329164301904465 76.951875 8.135407084864319 76.84828124999999 Q 7.942767510702522 76.7446875 7.762143783904599 76.63312499999999 Q 7.582781145227374 76.5215625 7.415757477754152 76.40203125 Q 7.250136867982999 76.2825 7.097182265532744 76.155 Q 6.945768087808664 76.02749999999999 6.807346116466106 75.89203124999999 Q 6.670593840321733 75.7565625 6.547153851895001 75.613125 Q 6.425500857850967 75.46968749999999 6.31746828452601 75.31828125 Q 6.211323769587008 75.166875 6.119089467855458 75.0075 Q 6.028823398483086 74.84812499999998 5.952732037699006 74.68078125 Q 5.878663153752591 74.5134375 5.819000663529593 74.33812499999999 Q 5.761383557144798 74.1628125 5.718363670353279 73.97953125 Q 5.67737498798628 73.79624999999999 5.651124942539563 73.60499999999999 Q 5.604423169094728 73.2225 5.6170564411125845 72.80812499999999 Q 5.636506444170477 72.39375 5.714780737720757 71.94749999999999 Q 5.797795577886397 71.50125 5.937649635050393 71.023125 Q 6.0789648578696855 70.545 6.2733527154756885 70.035 Q 6.463547689920523 69.5259375 6.697772325598256 68.99003906249999 Q 6.922844179512042 68.45414062500001 7.184422486957446 67.89140624999999 Q 7.4296135087629995 67.328671875 7.701895175663635 66.7391015625 Q 7.9493592813546625 66.14953125 8.212687607308295 65.533125 Q 8.441761862916069 64.91671875 8.673889908051077 64.2734765625 Q 8.861642460369932 63.630234374999986 9.03845195271715 62.96015625 Q 9.106519613446165 62.6251171875 9.169116934058831 62.283369140625 Q 9.21676345404203 61.941621093749994 9.257108058238536 61.593164062499994 Q 9.281284147058082 61.24470703125 9.296351848807824 60.88954101562499 Q 9.294106948452537 60.534375 9.28100293733857 60.17249999999999 Q 9.249543379997426 59.81062499999999 9.205563094628378 59.44204101562499 Q 9.14231474626639 59.073457031249994 9.0650089060367 58.698164062499984 Q 8.967683588160925 58.32287109374998 8.854926568152107 57.94086914062498 Q 8.721591346594732 57.558867187499985 8.571651870315021 57.17015624999999 Q 8.400800086100952 56.781445312500004 8.212412992670885 56.386025390625 Q 8.003035690612956 55.99060546875 7.77547331199744 55.588476562500006 Q 7.527129503156994 55.18634765625001 7.260270969286102 54.777509765625 Q 6.973154950525929 54.368671875000004 6.667551532897203 53.953125 Q 6.342555288193756 53.537578124999996 5.999489704127167 53.115322265625 Q 5.638258236877985 52.693066406250004 5.259795676297201 52.2641015625 Q 4.864772979250295 51.83513671874999 4.453801493823351 51.399462890624996 Q 4.028264763905766 50.9637890625 3.5885225853623406 50.52140625 Q 3.1366022455435516 50.0790234375 2.6726895871277776 49.629931640624996 Q 2.199372697675089 49.18083984374999 1.7167456511431989 48.7250390625 Q 1.2278603891918614 48.269238281250004 0.732804670278066 47.806728515625004 Q 0.23498373990326032 47.344218749999996 -0.26543373238045453 46.875 L -0.26543373238045453 46.875 L -1.8121170575371344 45.41015625 L -3.289893071731148 43.9453125 L -4.642568069969931 42.48046875 L -5.8187054210781515 41.015625 L -6.773581489874223 39.55078125 L -7.470886291895683 38.0859375 L -7.8841042118135976 36.62109375 L -7.997522282529787 35.15625 L -7.806827684276279 33.69140625 L -7.319271743299413 32.2265625 L -6.553394193937457 30.76171875 L -5.538318189263613 29.296875 L -4.312642868121519 27.83203125 L -2.922975589645021 26.3671875 L -1.4221596483080252 24.90234375 L 0.13273513783478325 23.4375 L 1.6825825561045225 21.97265625 L 3.168448324330401 20.5078125 L 4.533831117659223 19.04296875 L 5.726811080068634 17.578125 L 6.702024121584389 16.11328125 L 7.422386926850525 14.6484375 L 7.86050708011666 13.18359375 L 7.999724685425991 11.71875 L 7.834745873499693 10.25390625 L 7.371844105673154 8.7890625 L 6.628621620128573 7.32421875 L 5.63334009163627 5.859375 L 4.423845957044219 4.39453125 L 3.0461312719391214 2.9296875 L 1.5525848231432784 1.46484375 L 0 0 L 0.8724999999999999 0 L 1.7449999999999999 0 L 2.6174999999999997 0 L 3.4899999999999998 0 L 4.3625 0 L 5.234999999999999 0 L 6.1075 0 L 6.9799999999999995 0 L 7.852499999999999 0 L 8.725 0 L 9.5975 0 L 10.469999999999999 0 L 11.3425 0 L 12.215 0 L 13.087499999999999 0 L 13.959999999999999 0 L 15.459576553960957 1.4142187499999994 L 16.905992234560657 2.828437499999999 L 18.24797075275537 4.242656249999998 L 19.437938178510763 5.656874999999998 L 20.43370946468301 7.0710937499999975 L 21.199983931822867 8.485312499999996 L 21.7095966980842 9.899531249999995 L 21.9444816903086 11.313749999999995 L 21.896312096975088 12.727968749999993 L 21.56679555858011 14.142187499999995 L 20.96761363077469 15.556406249999995 L 20.12000766632623 16.97062499999999 L 19.054025796633745 18.38484374999999 L 17.80745770774589 19.79906249999999 L 16.424494973700362 21.213281249999994 L 14.9541644391579 22.62749999999999 L 13.448590188840647 24.041718749999987 L 11.961145717983428 25.455937499999987 L 10.54456181044537 26.87015624999999 L 9.249057201318944 28.28437499999999 L 8.120558293149438 29.698593749999986 L 7.199071037875117 31.11281249999999 L 6.5172627022335625 32.527031249999986 L 6.0993037938870485 33.94124999999998 L 5.960011202668996 35.355468749999986 L 6.104322933099644 36.76968749999998 L 6.527123049213136 38.183906249999986 L 7.213423037505129 39.59812499999998 L 8.13889315857749 41.012343749999985 L 9.270724950750818 42.42656249999999 L 10.56879430938301 43.840781249999985 L 11.987083910045982 45.25499999999998 Q 12.521386158630081 45.767812499999984 13.051705080403387 46.262929687499984 Q 13.586016027105389 46.758046874999984 14.11120065223591 47.23546874999998 Q 14.6359031848348 47.71289062499998 15.147422600021397 48.172617187499974 Q 15.654753926881513 48.632343749999976 16.14589455877962 49.07437499999998 Q 16.629891502110134 49.51640624999999 17.095671535289522 49.940742187499986 Q 17.55206049342396 50.36507812499998 17.989097779460206 50.771718749999984 Q 18.415145115251033 51.178359374999985 18.821493413286056 51.56730468749998 Q 19.215830348593745 51.95624999999998 19.59079688257258 52.327499999999986 Q 20.302402514198906 53.06999999999999 20.94269814686915 53.74171874999999 Q 21.533470346519394 54.413437499999986 22.066339658730207 55.014374999999994 Q 22.554629194672128 55.6153125 23.001809898720886 56.14546875 Q 23.41170748323961 56.675625 23.798282449792982 57.135000000000005 Q 24.154435825224862 57.594375 24.50371794637404 57.996328125000005 Q 24.830195596727695 58.39828125 25.162507686120634 58.74281249999999 Q 25.477944652649285 59.08734374999999 25.810417763895284 59.37445312499999 Q 26.131191643595514 59.66156249999999 26.478411349774387 59.89124999999999 Q 26.818193309893886 60.1209375 27.191918718786177 60.29320312499999 Q 27.561495906996218 60.46546874999999 27.970585392572854 60.580312499999984 Q 28.37784574336737 60.69515624999998 28.82829203192663 60.75257812499999 Q 29.27828353671319 60.80999999999999 29.77328353671319 60.80999999999999 L 29.77328353671319 60.80999999999999 Q 30.03890853671319 60.80999999999999 30.299249980128423 60.795410156249986 Q 30.559562106360115 60.78082031249999 30.814473348852083 60.75164062499999 Q 31.323943391223757 60.693281249999984 31.810220577134757 60.57656249999999 Q 32.29460820068301 60.45984374999999 32.75200775304445 60.28476562499999 Q 33.20512163315874 60.109687499999986 33.62549371930218 59.876249999999985 Q 34.03818121423771 59.642812499999984 34.41038055578813 59.35101562499999 Q 34.77049327161814 59.059218749999985 35.08039892948625 58.70906249999998 Q 35.3728759143332 58.358906249999976 35.60358527135625 57.95039062499998 Q 35.81075763357062 57.541874999999976 35.943070664004594 57.074999999999974 Q 36.047163720528346 56.60999999999997 36.06488331074574 56.07492187499997 Q 36.04476398476481 55.539843749999974 35.920682079218736 54.93468749999998 Q 35.7516693730349 54.32953124999999 35.46225522137309 53.654296874999986 Q 35.12328151086408 52.97906249999999 34.65101799669128 52.233749999999986 Q 34.39585785173216 51.86109374999998 34.10595366172613 51.47091796874999 Q 33.80419378048721 51.08074218749998 33.467451223314406 50.67304687499998 Q 33.11993746873767 50.26535156249999 32.73788293539156 49.84013671874999 Q 32.34672004412927 49.41492187499999 31.92224718138066 48.97218749999999 Q 31.490975497964364 48.52945312499999 31.02851393619191 48.06919921875 Q 30.562266307001565 47.6089453125 30.067923791342864 47.13117187499999 Q 29.573549764975056 46.65339843749999 29.05521379761602 46.158105468749994 Q 28.54135652977636 45.662812499999994 28.008740068556246 45.14999999999999 L 28.008740068556246 45.14999999999999 L 26.600839818564104 43.73906249999999 L 25.316060732364264 42.328124999999986 L 24.19973850338534 40.9171875 L 23.291264528081516 39.506249999999994 L 22.622695911113546 38.09531249999999 L 22.21762427393638 36.684374999999996 L 22.090343282875182 35.27343749999999 L 22.24534427192816 33.8625 L 22.67715775813415 32.451562499999994 L 23.37054644191437 31.04062499999999 L 24.301042882031336 29.629687499999996 L 25.435812872356795 28.218749999999993 L 26.73481405467836 26.807812499999994 L 28.152208883850935 25.396874999999998 L 29.637982086328368 23.9859375 L 31.13970553720148 22.574999999999996 L 32.6043882789472 21.164062499999993 L 33.98034640071794 19.753124999999997 L 35.219026796186526 18.342187499999998 L 36.276720445438 16.93125 L 37.116104764738786 15.520312499999996 L 37.70756059965418 14.109374999999996 L 38.03021738909216 12.698437499999999 L 38.07268961981878 11.287499999999998 L 37.83347858435029 9.876562499999999 L 37.32102526548695 8.465625 L 36.553412481364596 7.054687499999998 L 35.557726801360516 5.643749999999999 L 34.3691027487751 4.2328125 L 33.0294830172813 2.8218749999999995 L 31.58613844908871 1.4109374999999997 L 30.090000000000003 0 L 30.958750000000002 0 L 31.827500000000004 0 L 32.696250000000006 0 L 33.565000000000005 0 L 34.43375 0 L 35.30250000000001 0 L 36.17125000000001 0 L 37.040000000000006 0 L 37.908750000000005 0 L 38.7775 0 L 39.64625 0 L 40.515 0 L 41.38375 0 L 42.2525 0 L 43.12125 0 L 43.99 0 L 43.99 0 Z" fill="black" stroke="black" />
				</svg>