<svg
					xmlns="http://www.w3.org/2000/svg" xmlns:xlink="http://www.w3.org/1999/xlink"
					style="
						overflow: visible;
						height: 100;
					"
					viewBox="-7.906137123090783 2.1316282072803006e-13 63.999320600420276 96.66000000000001"
				>
					<path d="M 43.24175579844211 39.630000000000216 L 43.24175579844211 39.630000000000216 Q 43.468508096968044 40.00828125000021 43.70736946307498 40.383706054687714 Q 43.961913284975154 40.75913085937522 44.22684079186415 41.131699218750214 Q 44.79842807379079 41.87683593750021 45.40065206349833 42.61054687500021 Q 46.04618441989216 43.34425781250022 46.707348930248536 44.06654296875021 Q 47.39790597816232 44.78882812500021 48.08915258991164 45.49968750000021 Q 48.79583000806747 46.21054687500022 49.48893128838078 46.909980468750206 Q 50.1840152606723 47.60941406250021 50.85244717176631 48.297421875000204 Q 51.510395500212404 48.9854296875002 52.130206547263015 49.6620117187502 Q 52.728418102374604 50.33859375000021 53.27888390481222 51.00375000000021 Q 53.79825126950707 51.66890625000021 54.262315406461596 52.32263671875021 Q 54.68756679091342 52.97636718750021 55.0520788279373 53.61867187500022 Q 55.37192433380901 54.26097656250022 55.62769372530046 54.89185546875021 Q 55.834797741892764 55.52273437500021 55.97648782326585 56.142187500000205 Q 56.06729381325317 56.76164062500021 56.0931834773295 57.369667968750214 Q 56.06761983492066 57.97769531250022 55.97926194997794 58.574296875000215 Q 55.84035824598702 59.17089843750021 55.642163701122755 59.75607421875021 Q 55.395605770594074 60.341250000000215 55.094380542356134 60.91500000000021 Q 54.748030843670286 61.48875000000021 54.35200492416312 62.04562500000021 Q 53.91570406253605 62.60250000000021 53.43725513456283 63.14250000000021 Q 52.92379496474969 63.68250000000021 52.375746454218614 64.20562500000021 Q 51.7981122865777 64.72875000000022 51.19322157149714 65.23500000000021 Q 50.56412029454868 65.7412500000002 49.91465922595705 66.23062500000022 Q 49.24614113921612 66.72000000000023 48.56356919032364 67.19250000000022 Q 47.866741561941595 67.66500000000022 47.16146744642992 68.12062500000022 Q 46.44629390965914 68.57625000000021 45.72751825902016 69.01500000000021 Q 45.002695443890126 69.45375000000023 44.278324995827596 69.87562500000023 Q 43.55122612496648 70.29750000000023 42.82784870078309 70.70250000000021 Q 42.10452309969338 71.10750000000023 41.38743226994165 71.49562500000022 Q 40.67264967993653 71.88375000000023 39.96590826273898 72.25500000000022 Q 39.26323732945189 72.62625000000023 38.569769571170795 72.98062500000022 Q 37.88168075560056 73.33500000000022 37.20338406116591 73.67250000000023 Q 36.53136834461006 74.01000000000023 35.869236627445595 74.33062500000023 Q 35.213932639176086 74.65125000000023 34.56818464343328 74.95500000000024 L 34.56818464343328 74.95500000000024 L 34.368779659348434 75.63328125000024 L 34.209446925289825 76.31156250000024 L 34.094689110919745 76.98984375000023 L 34.02864455866335 77.66812500000023 L 34.015053459511726 78.34640625000024 L 34.05722728306323 79.02468750000024 L 34.15802171166278 79.70296875000022 L 34.319813299858154 80.38125000000024 L 34.54448004994436 81.05953125000023 L 34.833386062359104 81.73781250000022 L 35.18737038638743 82.41609375000023 L 35.606740162302955 83.09437500000023 L 36.09126811099721 83.77265625000022 L 36.64019439161554 84.45093750000024 L 37.252232812016246 85.12921875000023 L 37.92558134129276 85.80750000000023 L 38.65793683843599 86.48578125000023 L 39.44651387675406 87.16406250000023 L 40.288067510190714 87.84234375000024 L 41.1789197954646 88.52062500000024 L 42.11498985325446 89.19890625000023 L 43.09182722272895 89.87718750000025 L 44.104648236802255 90.55546875000023 L 45.14837512080723 91.23375000000023 L 46.21767749501802 91.91203125000024 L 47.30701594180695 92.59031250000022 L 48.41068728134519 93.26859375000022 L 49.52287118579213 93.94687500000023 L 50.63767775097868 94.62515625000023 L 51.74919563676354 95.30343750000023 L 52.85154038259345 95.98171875000023 L 53.938902503366826 96.66000000000022 L 53.39890250336683 96.66000000000022 L 52.85890250336683 96.66000000000022 L 52.31890250336683 96.66000000000022 L 51.77890250336683 96.66000000000022 L 51.23890250336683 96.66000000000022 L 50.69890250336683 96.66000000000022 L 50.158902503366825 96.66000000000022 L 49.618902503366826 96.66000000000022 L 49.07890250336683 96.66000000000022 L 48.53890250336682 96.66000000000022 L 47.99890250336682 96.66000000000022 L 47.45890250336682 96.66000000000022 L 46.91890250336682 96.66000000000022 L 46.378902503366824 96.66000000000022 L 45.838902503366825 96.66000000000022 L 45.298902503366826 96.66000000000022 L 44.758902503366826 96.66000000000022 L 44.21890250336683 96.66000000000022 L 43.67890250336683 96.66000000000022 L 43.13890250336683 96.66000000000022 L 42.59890250336683 96.66000000000022 L 42.05890250336683 96.66000000000022 L 41.518902503366824 96.66000000000022 L 40.978902503366825 96.66000000000022 L 40.438902503366826 96.66000000000022 L 39.89890250336682 96.66000000000022 L 39.35890250336682 96.66000000000022 L 38.81890250336682 96.66000000000022 L 38.27890250336682 96.66000000000022 L 37.73890250336682 96.66000000000022 L 37.198902503366824 96.66000000000022 L 36.658902503366825 96.66000000000022 L 35.003574068552005 95.58000000000024 L 33.31898437776935 94.50000000000023 L 31.628826658466387 93.42000000000024 L 29.95690939735536 92.34000000000023 L 28.32666350014447 91.26000000000022 L 26.76065726726868 90.18000000000022 L 25.280129225716188 89.10000000000022 L 23.9045484874218 88.02000000000022 L 22.65121173489334 86.94000000000023 L 21.534885176546304 85.86000000000023 L 20.56749888334056 84.78000000000023 L 19.757899834009553 83.70000000000022 L 19.11166878089352 82.6200000000002 L 18.631004727289216 81.54000000000022 L 18.314679407657394 80.4600000000002 L 18.15806271295645 79.38000000000022 L 17.65806271295645 79.38000000000022 Q 17.38806271295645 79.38000000000022 17.123150845374838 79.37515136718773 Q 16.858242041252627 79.37030273437523 16.598433619918524 79.36060546875022 Q 16.338637442005563 79.35090820312521 16.083966116300374 79.33636230468771 Q 15.829322299000822 79.3218164062502 15.57983995912565 79.30242187500022 Q 15.330406424431182 79.28302734375022 15.086183051764301 79.25878417968772 Q 14.84203573671424 79.23454101562521 14.603159196285713 79.2054492187502 Q 14.125733413197787 79.14726562500022 13.669842203228722 79.06968750000021 Q 13.214720618483991 78.99210937500023 12.78189495002871 78.89513671875022 Q 12.350257869270388 78.79816406250022 11.941850993217002 78.68179687500022 Q 11.535129870909511 78.56542968750021 11.152732933155551 78.42966796875021 Q 10.772586581338013 78.29390625000022 10.418000575171021 78.13875000000021 Q 10.066283809099819 77.98359375000021 9.74148316453575 77.80904296875022 Q 9.4202064695371 77.63449218750021 9.127292803260733 77.44054687500022 Q 8.838571523067431 77.24660156250022 8.57971603170469 77.03326171875021 Q 8.325707577622268 76.81992187500022 8.103080611510833 76.58718750000023 Q 7.885908296883638 76.35445312500022 7.701594825824016 76.10232421875023 Q 7.523257167093138 75.85019531250022 7.379157170551582 75.57867187500021 Q 7.241421892113326 75.30714843750022 7.139135201837788 75.01623046875022 Q 7.043417764561569 74.7253125000002 6.984113584536938 74.41500000000022 Q 6.931965852852825 74.10468750000021 6.912494909471698 73.77873046875021 Q 6.8990793790316065 73.45277343750021 6.918296339922385 73.11117187500021 Q 6.942786171135295 72.7695703125002 6.9994375605478325 72.41232421875021 Q 7.0602297147390916 72.05507812500022 7.152221967727999 71.68218750000021 Q 7.246833094831515 71.3092968750002 7.371131849933148 70.92076171875021 Q 7.4961028563272265 70.53222656250021 7.648644106235734 70.12804687500022 Q 7.799459444103997 69.72386718750022 7.975079114227247 69.30404296875022 Q 8.1461077490832 68.88421875000023 8.338497139129206 68.44875000000022 Q 8.522962947295479 68.0132812500002 8.72465817221026 67.5621679687502 Q 8.914648109231532 67.1110546875002 9.117062119066368 66.64429687500021 Q 9.303580783307638 66.17753906250022 9.497086620122161 65.6951367187502 Q 9.670165701703937 65.21273437500021 9.84423924914213 64.71468750000021 Q 9.99310968440998 64.21664062500021 10.136539161993184 63.702949218750206 Q 10.249872489081103 63.18925781250021 10.351040222533008 62.65992187500022 Q 10.417263544217834 62.13058593750023 10.46450300385499 61.58560546875023 Q 10.472189020237787 61.040625000000226 10.454216687834817 60.480000000000224 Q 10.392546408444979 59.91937500000022 10.29762796989018 59.346972656250216 Q 10.156214723832344 58.77457031250022 9.977321125422817 58.19039062500021 Q 9.75013641787492 57.60621093750021 9.482309230476947 57.01025390625021 Q 9.16559859318498 56.41429687500022 8.806399527076714 55.80656250000021 Q 8.399117071351561 55.198828125000205 7.949046432119886 54.57931640625021 Q 7.453246912492423 53.95980468750021 6.916106245403595 53.3285156250002 Q 6.337268884984417 52.697226562500205 5.720440948118657 52.05416015625021 Q 5.067697651558126 51.41109375000021 4.382315807404034 50.75625000000021 Q 3.668555966906523 50.10140625000021 2.929535403829583 49.43478515625021 Q 2.171360599329866 48.76816406250022 1.397265791971866 48.08976562500021 Q 0.6147705858641481 47.41136718750021 -0.1725026568341239 46.72119140625021 Q -0.9561426909263743 46.03101562500022 -1.731886160944238 45.32906250000022 Q -2.4910309034225495 44.62710937500022 -3.2284511630071306 43.913378906250216 Q -3.9358192725674974 43.19964843750022 -4.606969784570399 42.474140625000224 Q -5.234659765513485 41.748632812500226 -5.811562186089186 41.01134765625022 Q -6.332248777604294 40.27406250000023 -6.7881734838095085 39.525000000000226 L -6.7881734838095085 39.525000000000226 Q -7.17644232053847 38.775937500000225 -7.478258368421404 38.03888671875023 Q -7.70780933686855 37.30183593750023 -7.850261490018678 36.57679687500022 Q -7.919016946163295 35.85175781250022 -7.903168211004082 35.13873046875022 Q -7.815093781214157 34.425703125000226 -7.6476299268674115 33.72468750000022 Q -7.411945064117978 33.02367187500022 -7.104314682350235 32.33466796875022 Q -6.734570016213592 31.645664062500224 -6.302024599017069 30.968671875000222 Q -5.815108678987475 30.291679687500217 -5.275701961807439 29.62669921875022 Q -4.690833516241348 28.96171875000022 -4.064431844712589 28.308750000000217 Q -3.402185353008256 27.655781250000214 -2.709531926732237 27.014824218750217 Q -1.990934943476934 26.37386718750022 -1.2528012333512408 25.74492187500022 Q -0.49853222153252075 25.11597656250022 0.2650197054842278 24.499042968750217 Q 1.0353136920990718 23.882109375000216 1.8055432579850463 23.277187500000217 Q 2.573798401794227 22.672265625000215 3.3337664854505533 22.079355468750215 Q 4.0839205586974305 21.486445312500216 4.8188378256859945 20.905546875000212 Q 5.537118509478201 20.324648437500215 6.234568297605518 19.755761718750215 Q 6.909659998723307 19.186875000000214 7.5597063379632985 18.630000000000216 Q 8.182182803033141 18.073125000000218 8.774754556150555 17.532070312500217 Q 9.337357487915838 16.991015625000216 9.869384126971145 16.46578125000022 Q 10.369597391662836 15.940546875000216 10.839843654836624 15.431132812500216 Q 11.277480807575476 14.921718750000215 11.686846469009417 14.428125000000216 Q 12.063709571790435 13.934531250000218 12.414881193687087 13.456757812500218 Q 12.734405842004755 12.978984375000218 13.031504153711285 12.517031250000219 Q 13.29840773811254 12.055078125000218 13.546645677229543 11.60894531250022 Q 13.766592278936827 11.162812500000221 13.971955174939207 10.73250000000022 Q 14.151247014069169 10.302187500000219 14.320203069837326 9.88769531250022 Q 14.465505238234016 9.473203125000222 14.604751488107675 9.074531250000224 Q 14.722853901470634 8.675859375000222 14.839100266352599 8.293007812500223 Q 14.93671841248744 7.910156250000224 15.036510363346952 7.543125000000224 Q 15.120124519099095 7.176093750000223 15.209703198530068 6.824882812500224 Q 15.285434323656489 6.473671875000225 15.37063173609965 6.138281250000224 Q 15.444151194558067 5.8028906250002255 15.530317218594146 5.483320312500226 Q 15.606786780233005 5.163750000000226 15.698744230624019 4.860000000000227 Q 15.783407415844088 4.556250000000226 15.889719099544742 4.271484375000226 Q 15.989812501783922 3.9867187500002244 16.113951772038295 3.7209375000002236 Q 16.233309179733176 3.455156250000223 16.37870689434588 3.208359375000222 Q 16.520511239853708 2.9615625000002215 16.689982503977255 2.733750000000221 Q 16.856822730812077 2.50593750000022 17.052628170916453 2.2971093750002196 Q 17.24656367663735 2.088281250000219 17.470476030944756 1.8984375000002185 Q 17.693104801327767 1.708593750000218 17.946477356189355 1.5377343750002175 Q 18.199004633587553 1.366875000000217 18.48283872982733 1.2150000000002166 Q 18.766143724622466 1.0631250000002161 19.08115318084654 0.9302343750002158 Q 19.39585192235531 0.7973437500002154 19.74252276128057 0.6834375000002151 Q 20.089025684797736 0.5695312500002148 20.467669999058046 0.4746093750002145 Q 20.846233277050068 0.37968750000021423 21.257036433764082 0.303750000000214 Q 21.667806384778697 0.2278125000002138 22.110867048729244 0.17085937500021364 Q 22.332393221125244 0.14238281250021356 22.561996673799296 0.1186523437502135 Q 22.791598859473176 0.09492187500021343 23.029279866046387 0.07593750000021338 Q 23.266960353643395 0.05695312500021332 23.512720456810317 0.04271484375021328 Q 23.75848039576797 0.028476562500213243 24.01232029087585 0.018984375000213216 Q 24.266160153547183 0.00949218750021319 24.52808007778735 0.004746093750213176 Q 24.79000000000023 2.1316282072803006e-13 25.06000000000023 2.1316282072803006e-13 L 25.06000000000023 2.1316282072803006e-13 Q 25.33437500000023 2.1316282072803006e-13 25.610681640274677 0.0048046875002131645 Q 25.886988278445823 0.009609375000213166 26.165226540065014 0.01921875000021317 Q 26.443464768031415 0.028828125000213173 26.72363451007446 0.04324218750021318 Q 27.003804081751042 0.05765625000021318 27.285904814153607 0.07687500000021319 Q 27.568005008120576 0.0960937500002132 27.852035538346513 0.1201171875002132 Q 28.136064754066016 0.1441406250002132 28.422022707658805 0.17296875000021322 Q 28.70797793561719 0.20179687500021323 28.995859150760907 0.23542968750021326 Q 29.28373531671429 0.26906250000021326 29.573533113057 0.30750000000021327 Q 30.153101791798928 0.3843750000002133 30.740313584092537 0.48046875000021333 Q 31.327441302990795 0.5765625000002134 31.922109957612648 0.6918750000002134 Q 32.51660440671871 0.8071875000002134 33.118464161057666 0.9417187500002135 Q 33.720001570835116 1.0762500000002135 34.32862664538726 1.2300000000002136 Q 34.936702839439334 1.3837500000002136 35.5514542231399 1.5567187500002135 Q 36.16532878872494 1.7296875000002139 36.78529457297858 1.9218750000002138 Q 37.40392900039085 2.114062500000214 38.02785931606586 2.325468750000214 Q 38.649850343330264 2.5368750000002143 39.27608839173656 2.767500000000214 Q 39.89959826914601 2.998125000000214 40.52600946883362 3.247968750000214 Q 41.14869542949194 3.4978125000002147 41.772597323256505 3.7668750000002147 Q 42.39154320550783 4.035937500000214 43.00963947659569 4.324218750000215 Q 43.62129317828336 4.612500000000215 44.22961589236615 4.920000000000215 Q 44.82897030960817 5.226562500000215 45.420521480448464 5.5487695312502145 Q 46.002120017651954 5.870976562500214 46.57304564725108 6.208828125000213 Q 47.13201754330811 6.546679687500214 47.677114049822286 6.900175781250214 Q 48.208073476606025 7.253671875000213 48.7216418073704 7.622812500000213 Q 49.218736586470826 7.991953125000213 49.694646049325044 8.376738281250214 Q 50.15163446291856 8.761523437500214 50.58341679056912 9.161953125000213 Q 50.99377608168318 9.562382812500214 51.37475307845047 9.978457031250215 Q 51.73182267325568 10.394531250000215 52.05527006051284 10.826250000000215 Q 52.352431654620624 11.257968750000215 52.61178064313973 11.705332031250215 Q 52.84267602830288 12.152695312500216 53.031752660121846 12.615703125000218 Q 53.19053849045895 13.078710937500219 53.30383888063024 13.557363281250218 Q 53.38547546813543 14.036015625000218 53.41847272877065 14.53031250000022 Q 53.41904141961086 15.024609375000221 53.368517283665454 15.534550781250221 Q 53.28555803422615 16.04449218750022 53.14994906893412 16.570078125000222 Q 52.982806587901116 17.095664062500223 52.762551495919254 17.636894531250224 Q 52.512714867230024 18.17812500000023 52.21058586658356 18.735000000000227 Q 51.882628092810926 19.291875000000225 51.5096265469634 19.860761718750226 Q 51.114831989903976 20.429648437500227 50.67930255359997 21.010546875000223 Q 50.22776801072174 21.591445312500227 49.74118010071826 22.184355468750226 Q 49.245465090739465 22.777265625000226 48.721722871671105 23.382187500000228 Q 48.19673408876045 23.987109375000227 47.65200196290799 24.60404296875023 Q 47.11476271066579 25.22097656250023 46.56716931324759 25.849921875000227 Q 46.03646366953694 26.47886718750022 45.5056761992315 27.119824218750225 Q 45.001562105152274 27.760781250000225 44.508227967271274 28.41375000000022 Q 44.05141919727652 29.06671875000022 43.61647839988844 29.73169921875022 Q 43.227602409183035 30.396679687500225 42.871481835348476 31.073671875000223 Q 42.570228649890396 31.750664062500217 42.31193802820151 32.439667968750214 Q 42.116124380699 33.12867187500022 41.97228316463911 33.82968750000022 Q 41.89686559807295 34.530703125000215 41.88069958361579 35.243730468750215 Q 41.93677972043129 35.956757812500214 42.05713548964509 36.68179687500022 Q 42.25100944982483 37.40683593750022 42.51144291257074 38.14388671875022 Q 42.84375419498086 38.880937500000215 43.24175579844211 39.630000000000216 L 43.24175579844211 39.630000000000216 Z M 7.891755798442104 39.630000000000216 L 7.891755798442104 39.630000000000216 Q 8.295091890123516 40.28531250000022 8.743256593405695 40.92287109375022 Q 9.233930993976895 41.56042968750022 9.758069494659196 42.18023437500022 Q 10.315650550890307 42.80003906250022 10.895747024031618 43.40208984375022 Q 11.500374716712026 44.00414062500022 12.117362508206032 44.58843750000022 Q 12.750445824758202 45.17273437500022 13.386806888754979 45.73927734375022 Q 14.031543704976635 46.30582031250022 14.671735500542777 46.854609375000216 Q 15.313464157811225 47.403398437500215 15.944187086555052 47.934433593750214 Q 16.57058585236151 48.46546875000021 17.180909943200927 48.97875000000022 Q 17.782065025791454 49.492031250000224 18.363437852136236 49.98755859375023 Q 18.931802935059224 50.48308593750023 19.477962049367424 50.960859375000226 Q 20.008232809176018 51.43863281250022 20.51504570188366 51.898652343750214 Q 21.003971879008475 52.35867187500022 21.469225013502612 52.80093750000022 Q 21.915380713577758 53.243203125000214 22.33853692815641 53.66771484375022 Q 22.742067292134067 54.092226562500215 23.124008120099592 54.49898437500021 Q 23.486367618405353 54.9057421875002 23.829134129990564 55.2947460937502 Q 24.15282875364133 55.683750000000195 24.459371582037612 56.0550000000002 Q 24.747714309403463 56.4262500000002 25.022885265728682 56.7742968750002 Q 25.281521359751377 57.1223437500002 25.53093953447134 57.4471875000002 Q 25.765634794370747 57.772031250000204 25.99506182616902 58.0736718750002 Q 26.211629595973235 58.3753125000002 26.42676633962509 58.6537500000002 Q 26.63088440359475 58.932187500000204 26.837213789740932 59.18742187500021 Q 27.034285636066517 59.44265625000021 27.236956844700245 59.67468750000021 Q 27.43201193012049 59.90671875000021 27.63576014002533 60.11554687500022 Q 27.833387182889776 60.32437500000022 28.042482820379618 60.510000000000204 Q 28.246790005492322 60.6956250000002 28.465011468969152 60.858046875000205 Q 28.679607641678352 61.020468750000205 28.9102318100923 61.1596875000002 Q 29.138223163857113 61.2989062500002 29.384028511842676 61.41492187500021 Q 29.628025846383018 61.530937500000206 29.891303610794527 61.62375000000021 Q 30.153435889739526 61.71656250000021 30.436005404489507 61.786171875000214 Q 30.71793602321512 61.855781250000206 31.021161021897825 61.90218750000021 Q 31.324103875249786 61.948593750000214 31.648907229119303 61.971796875000216 Q 31.97364032603499 61.99500000000021 32.32051532603499 61.99500000000021 L 32.32051532603499 61.99500000000021 Q 32.68051532603499 61.99500000000021 33.0368759791193 61.971796875000216 Q 33.393166375249784 61.948593750000214 33.74553602189783 61.90218750000021 Q 34.09762352321512 61.855781250000206 34.44522415448951 61.786171875000214 Q 34.79218588973953 61.71656250000021 35.13380361079453 61.62375000000021 Q 35.474275846383016 61.530937500000206 35.80824726184267 61.41492187500021 Q 36.14041066385711 61.2989062500002 36.4646068100923 61.1596875000002 Q 36.78617014167835 61.020468750000205 37.097980218969155 60.858046875000205 Q 37.40616500549232 60.6956250000002 37.70248282037962 60.510000000000204 Q 37.99401218288978 60.32437500000022 38.27122889002533 60.11554687500022 Q 38.54232443012049 59.90671875000021 38.79633184470024 59.67468750000021 Q 39.04272313606652 59.44265625000021 39.26893253974094 59.18742187500021 Q 39.485884403594746 58.932187500000204 39.67926633962509 58.6537500000002 Q 39.861629595973234 58.3753125000002 40.01678057616902 58.0736718750002 Q 40.159072294370745 57.772031250000204 40.27031453447134 57.4471875000002 Q 40.36683385975138 57.1223437500002 40.42835401572869 56.7742968750002 Q 40.473339309403464 56.4262500000002 40.47937158203761 56.0550000000002 Q 40.46720375364132 55.683750000000195 40.419485692490554 55.2947460937502 Q 40.35269574340535 54.9057421875002 40.247914370099586 54.49898437500021 Q 40.123551667134066 54.092226562500215 39.95920099065641 53.66771484375022 Q 39.77522446357776 53.243203125000214 39.54985001350262 52.80093750000022 Q 39.30537812900848 52.35867187500022 39.018834764383676 51.898652343750214 Q 38.714404684176024 51.43863281250022 38.36811829936743 50.960859375000226 Q 38.00594356005923 50.48308593750023 37.603164414636254 49.98755859375023 Q 37.18737752579146 49.492031250000224 36.73340994320093 48.97875000000022 Q 36.270273352361514 48.46546875000021 35.772663649055055 47.934433593750214 Q 35.27072978281122 47.403398437500215 34.73939175054277 46.854609375000216 Q 34.20959057997663 46.30582031250022 33.65684595125497 45.73927734375022 Q 33.112477074758196 45.17273437500022 32.55298750820603 44.58843750000022 Q 32.009593466712026 44.00414062500022 31.460161086531624 43.40208984375022 Q 30.935259925890314 42.80003906250022 30.414475744659203 42.18023437500022 Q 29.927134118976895 41.56042968750022 29.45485815590569 40.92287109375022 Q 29.02509189012352 40.28531250000022 28.621755798442106 39.630000000000216 L 28.621755798442106 39.630000000000216 Q 28.270218668155806 38.975625000000214 27.970708655942083 38.33853515625022 Q 27.72434864170212 37.70144531250021 27.528081548417312 37.08164062500022 Q 27.384958345316992 36.46183593750022 27.288096191089195 35.859316406250215 Q 27.242714906593292 35.25679687500022 27.23827961505068 34.67156250000022 Q 27.282335694645617 34.086328125000215 27.360950116390327 33.51837890625022 Q 27.48406854398975 32.95042968750022 27.634672833053187 32.399765625000214 Q 27.825107214218445 31.849101562500213 28.035621218746968 31.315722656250216 Q 28.28088761885018 30.782343750000216 28.53879887853151 30.266250000000213 Q 28.826227898921022 29.750156250000206 29.119092912671658 29.251347656250203 Q 29.436291079060823 28.752539062500205 29.752144436788967 28.27101562500021 Q 30.087362336512623 27.789492187500212 30.415033961370185 27.32525390625021 Q 30.75744362145733 26.861015625000206 31.086788721993052 26.414062500000206 Q 31.426676491299244 25.96710937500021 31.74872594061079 25.53744140625021 Q 32.077609722804524 25.107773437500207 32.384650587608355 24.695390625000204 Q 32.69533181136708 24.28300781250021 32.98092880676545 23.887910156250207 Q 33.26749018448361 23.49281250000021 33.52645910487285 23.115000000000208 Q 33.784219198944406 22.73718750000021 34.00163890619116 22.382988281250213 Q 34.216265886633586 22.028789062500213 34.38962525084988 21.698203125000212 Q 34.5591624327598 21.367617187500212 34.68718856143917 21.06064453125021 Q 34.81082807149468 20.753671875000215 34.89326261939901 20.470312500000215 Q 34.97112262481239 20.186953125000215 35.008505442818915 19.92720703125022 Q 35.04141835355698 19.667460937500216 35.03488557775704 19.43132812500022 Q 35.024203106783986 19.19519531250022 34.97530420536775 18.982675781250222 Q 34.922722795607854 18.77015625000022 34.83325898160385 18.581250000000225 Q 34.740667209396506 18.392343750000222 34.612551986234536 18.227050781250224 Q 34.4819001094385 18.061757812500225 34.31704151115084 17.920078125000224 Q 34.15023230466902 17.778398437500226 33.95043557510081 17.660332031250224 Q 33.74923493469745 17.542265625000226 33.51612390463208 17.447812500000225 Q 33.28208934436176 17.353359375000224 33.0170445548426 17.282519531250223 Q 32.75146961779432 17.211679687500226 32.455581247683156 17.16445312500023 Q 32.15945394165395 17.11722656250023 31.83348777823774 17.093613281250228 Q 31.50746139071198 17.070000000000228 31.15183639071198 17.070000000000228 L 31.15183639071198 17.070000000000228 Q 30.79621139071198 17.070000000000228 30.437159653237735 17.093613281250228 Q 30.078047691653953 17.11722656250023 29.715268747683155 17.16445312500023 Q 29.35225086779432 17.211679687500226 28.9850914298426 17.282519531250223 Q 28.61740184436176 17.353359375000224 28.24487390463208 17.447812500000225 Q 27.87142243469745 17.542265625000226 27.492232450100815 17.660332031250224 Q 27.111638554669018 17.778398437500226 26.72422901115084 17.920078125000224 Q 26.334868859438497 18.061757812500225 25.93747386123453 18.227050781250224 Q 25.53754220939651 18.392343750000222 25.12825898160385 18.581250000000225 Q 24.715847795607857 18.77015625000022 24.29272608036775 18.982675781250222 Q 23.865921856783988 19.19519531250022 23.427073077757044 19.43132812500022 Q 22.984074603556984 19.667460937500216 22.52780231781892 19.92720703125022 Q 22.067060124812397 20.186953125000215 21.592012619399018 20.470312500000215 Q 21.112390571494682 20.753671875000215 20.617735436439176 21.06064453125021 Q 20.118693682759805 21.367617187500212 19.604312750849882 21.698203125000212 Q 19.086109636633587 22.028789062500213 18.552810781191166 22.382988281250213 Q 18.016719198944408 22.73718750000021 17.46645910487285 23.115000000000208 Q 16.91561518448362 23.49281250000021 16.355420994265458 23.887910156250207 Q 15.796191186367093 24.28300781250021 15.230119337608357 24.695390625000204 Q 14.667687847804524 25.107773437500207 14.101655628110782 25.53744140625021 Q 13.542457741299241 25.96710937500021 12.983663721993047 26.414062500000206 Q 12.435412371457325 26.861015625000206 11.892338648870172 27.32525390625021 Q 11.364002961512615 27.789492187500212 10.846363186788958 28.27101562500021 Q 10.348087954060812 28.752539062500205 9.866710100171645 29.251347656250203 Q 9.409665398921014 29.750156250000206 8.9762988785315 30.266250000000213 Q 8.572450118850176 30.782343750000216 8.199488406246962 31.315722656250216 Q 7.861279089218442 31.849101562500213 7.561391583053188 32.399765625000214 Q 7.301334168989753 32.95042968750022 7.087004803890332 33.51837890625022 Q 6.917179444645619 34.086328125000215 6.80015461505068 34.67156250000022 Q 6.731621156593291 35.25679687500022 6.722275878589188 35.859316406250215 Q 6.764411470316987 36.46183593750022 6.871050298417304 37.08164062500022 Q 7.03083301670212 37.70144531250021 7.258950843442087 38.33853515625022 Q 7.540218668155805 38.975625000000214 7.891755798442104 39.630000000000216 L 7.891755798442104 39.630000000000216 Z" fill="black" stroke="black" />
				</svg>