<svg
					xmlns="http://www.w3.org/2000/svg" xmlns:xlink="http://www.w3.org/1999/xlink"
					style="
						overflow: visible;
						height: 100;
					"
					viewBox="-4.063920662463122 0 34.0578003361334 160.575"
				>
					<path d="M 23.079918635904907 81.00000000000001 L 23.079918635904907 81.00000000000001 Q 23.710299965187463 81.9 24.32442465081067 82.79970703125002 Q 24.922972241384475 83.69941406250001 25.498965697629053 84.59882812500001 Q 26.053256919227735 85.49824218750001 26.579096944377884 86.39736328125 Q 27.07756785618985 87.296484375 27.542211819972305 88.1953125 Q 27.974394006069787 89.09414062500002 28.368004571011696 89.99267578125001 Q 28.724738674276 90.89121093750002 29.038883990595544 91.78945312500002 Q 29.31250562366494 92.68769531250001 29.54032996067655 93.58564453125 Q 29.724824260192374 94.48359374999998 29.86118566357226 95.38125 Q 29.952307415834085 96.27890624999999 29.99387967367027 97.17626953124999 Q 29.989236661689077 98.07363281249998 29.93457360838221 98.97070312499999 Q 29.833671597050014 99.86777343749999 29.68323256718989 100.76455078125 Q 29.487481138843886 101.66132812499998 29.243617186855055 102.55781249999998 Q 28.956296447388603 103.45429687499998 28.623197756383888 104.35048828124998 Q 28.24938673557908 105.24667968749996 27.832992433873372 106.14257812499997 Q 27.37946078632579 107.03847656249997 26.88733315619387 107.93408203124997 Q 26.362398515124678 108.82968749999996 25.80356430008166 109.72499999999997 Q 25.217862289887716 110.61874999999998 24.605697394860826 111.50722656249997 Q 23.97157540295428 112.39570312499995 23.317162694728854 113.27890624999996 Q 22.646825041725226 114.16210937499997 21.962505445356616 115.04003906249997 Q 21.268433159928573 115.91796874999997 20.56668906592481 116.79062499999998 Q 19.86137423498497 117.66328124999998 19.154570627189596 118.53066406249997 Q 18.45026401556612 119.39804687499998 17.750405229478744 120.26015624999997 Q 17.058881766960802 121.12226562499997 16.377388110310708 121.97910156249996 Q 15.709734128847334 122.83593749999997 15.057241863847949 123.68749999999997 Q 14.423667219960743 124.53906249999996 13.809854652209298 125.38535156249995 Q 13.21953210977037 126.23164062499997 12.652973771841502 127.07265624999998 Q 12.113907267099188 127.91367187499998 11.601957443363238 128.74941406249997 Q 11.120880124372079 129.58515624999995 10.669586253249136 130.41562499999998 Q 10.25188849442824 131.24609375 9.865934318736453 132.0712890625 Q 9.515621270583829 132.896484375 9.198298997076412 133.71640624999998 Q 8.917976651175854 134.53632812499995 8.671186835625951 135.35097656249997 Q 8.462075073682133 136.16562499999998 8.286352474451112 136.97499999999997 Q 8.148353771734724 137.7859375 8.041702183550571 138.5876953125 Q 7.971909444543732 139.389453125 7.931346483873906 140.18203124999997 Q 7.9260907292111575 140.97460937499997 7.947436923580344 141.75800781249995 Q 8.002038337617655 142.54140624999997 8.080189039669447 143.31562499999995 Q 8.189117510607826 144.08984374999997 8.31820469401227 144.85488281249997 Q 8.475243222415461 145.619921875 8.648798137665944 146.37578125 Q 8.847205297771303 147.13164062499996 9.058318412006045 147.87832031249997 Q 9.290986501696032 148.62499999999997 9.532461612787996 149.36249999999998 Q 9.792067607123261 150.09999999999997 10.05656750736721 150.82832031249998 Q 10.335714420970756 151.55664062499997 10.61589597457997 152.27578124999997 Q 10.907242725668963 152.99492187499996 11.195879703840331 153.7048828125 Q 11.492258045181112 154.41484374999996 11.782350521675475 155.11562499999997 Q 12.076868051177565 155.81640624999997 12.361737591289662 156.50800781249998 Q 12.647866269442568 157.19960937499997 12.921236539053627 157.88203124999998 Q 13.192886516043666 158.56445312499997 13.448949290251726 159.23769531249997 Q 13.70052817834426 159.9109375 13.933995037827064 160.575 L 13.933995037827064 160.575 L 13.223370037827065 160.575 L 12.512745037827065 160.575 L 11.802120037827065 160.575 L 11.091495037827064 160.575 L 10.380870037827064 160.575 L 9.670245037827064 160.575 L 8.959620037827063 160.575 L 8.248995037827063 160.575 L 7.538370037827063 160.575 L 6.8277450378270625 160.575 L 6.117120037827063 160.575 L 5.406495037827064 160.575 L 4.6958700378270635 160.575 L 3.985245037827063 160.575 L 3.274620037827063 160.575 L 2.563995037827063 160.575 Q 2.287205667118792 159.8875 1.993380539405661 159.19130859375 Q 1.6948627730137367 158.49511718749997 1.3821389402154536 157.79023437499998 Q 1.0677894706237712 157.08535156249997 0.7423743193477076 156.37177734374998 Q 0.41861869842205834 155.65820312499997 0.08721907374572235 154.93593749999997 Q -0.23905409004816813 154.21367187499996 -0.569305850645363 153.48271484375 Q -0.8908260303195914 152.75175781249996 -1.2124614973660255 152.01210937499997 Q -1.521672712885369 151.27246093749997 -1.82699201045377 150.52412109374998 Q -2.1161642510644665 149.77578124999997 -2.3973553730200825 149.01874999999995 Q -2.6587102027849934 148.26171874999997 -2.907982002013614 147.49599609374997 Q -3.1338311366018132 146.73027343749996 -3.3435585342926535 145.955859375 Q -3.5264537107315688 145.1814453125 -3.689333193923185 144.39833984374997 Q -3.822225169809488 143.61523437499997 -3.9314381530998865 142.82343749999998 Q -4.007842178882978 142.03164062499997 -4.057223312731895 141.23115234374998 Q -4.071387933344699 140.4306640625 -4.055594961005289 139.62148437499997 Q -4.002670536445967 138.8123046875 -3.917351850339519 137.99443359375 Q -3.793554755657034 137.1765625 -3.635510399628375 136.34999999999997 Q -3.4376534914288905 135.5234375 -3.204566114419574 134.69296874999998 Q -2.9327261936178264 133.86249999999998 -2.626079952249273 133.028125 Q -2.2818246913576736 132.19374999999997 -1.9039109904196687 131.35546874999997 Q -1.4902426304285683 130.51718749999998 -1.0447895885611347 129.67499999999998 Q -0.5661359101267145 128.8328125 -0.058285377997943755 127.98671874999997 Q 0.47953724127767305 127.14062499999997 1.0432810412503866 126.29062499999998 Q 1.6331331544586112 125.44062499999998 2.2449837654456184 124.58671874999999 Q 2.878497085697516 123.73281249999998 3.5294945529914954 122.875 Q 4.197194407492502 122.0171875 4.877341825430559 121.15546875000001 Q 5.568796734602509 120.29375000000002 6.267223180831996 119.42812500000001 Q 6.971219822885765 118.5625 7.67636761207811 117.69296875 Q 8.381108789707774 116.82343750000001 9.080942337287619 115.95 Q 9.774264930048409 115.0765625 10.456497893266555 114.19921875 Q 11.126107172084751 113.32187500000002 11.778443946573937 112.44062500000001 Q 12.412160061703748 111.559375 13.022547172708068 110.67421875000001 Q 13.608559119547634 109.78906250000001 14.165441574587394 108.9 Q 14.693188509233792 108.0109375 15.184439373088694 107.12333984375 Q 15.64146561587632 106.23574218750001 16.057996920535363 105.349609375 Q 16.43656313130472 104.46347656249999 16.771407087368395 103.57880859375001 Q 17.06533579369229 102.69414062500002 17.31314229839758 101.81093750000001 Q 17.517923585402038 100.927734375 17.675048521607884 100.04599609375 Q 17.78791081477305 99.16425781250001 17.852468984801263 98.283984375 Q 17.872414135894054 97.4037109375 17.84429640802744 96.52490234375 Q 17.772099025995946 95.64609375 17.652953996008375 94.76875 Q 17.491125679735397 93.89140624999999 17.284306850720828 93.01552734375 Q 17.037026665058654 92.13964843749999 16.747506812609906 91.26523437499999 Q 16.42051999021171 90.39082031250001 16.054774994403658 89.51787109374999 Q 15.655262431906891 88.64492187499998 15.221127411659388 87.77343749999999 Q 14.757549049602158 86.90195312499998 14.264050119472003 86.03193359374998 Q 13.745965742387455 85.16191406249996 13.203131118983055 84.29335937499997 Q 12.641002478607101 83.42480468749997 12.059656987722121 82.55771484374996 Q 11.464635433161332 81.69062499999995 10.856182705309847 80.82499999999996 L 10.856182705309847 80.82499999999996 Q 10.38003348405067 80.15546874999997 9.898587837583557 79.48613281249996 Q 9.415190916204594 78.81679687499997 8.929253551275114 78.14765624999995 Q 8.444124976214011 77.47851562499996 7.959212859433412 76.80957031249996 Q 7.477856320364406 76.14062499999996 6.999442514169699 75.47187499999995 Q 6.527286404896592 74.80312499999997 6.060737561425922 74.13457031249996 Q 5.60307306676942 73.46601562499997 5.153588302080186 72.79765624999996 Q 4.715509215209761 72.12929687499997 4.288061057950291 71.46113281249997 Q 3.874406010171242 70.79296874999997 3.4736840924918146 70.12499999999997 Q 3.0889818473651385 69.45703124999996 2.719339972017435 68.78925781249997 Q 2.3677583982461528 68.12148437499997 2.0331655748950723 67.45390624999997 Q 1.7184648681188568 66.78632812499997 1.4224608643801826 66.11894531249999 Q 1.1479515374203917 65.45156249999998 0.8936074366149409 64.78437499999997 Q 0.6621135414118502 64.11718749999997 0.4519977401327022 63.45019531249997 Q 0.2658257232859196 62.78320312499997 0.1019757383065567 62.116406249999976 Q -0.03711073350824634 61.44960937499998 -0.15321034695299218 60.78300781249999 Q -0.2440093245947299 60.11640624999998 -0.3114427117593692 59.449999999999974 Q -0.35332646907441934 58.783593749999966 -0.37175571344689295 58.117382812499976 Q -0.3646766991937085 57.45117187499997 -0.3343444750328306 56.78515624999997 Q -0.27883466477766916 56.11914062499998 -0.20056029550976895 55.45332031249998 Q -0.09772397206295125 54.78749999999998 0.027107039557824564 54.12187499999998 Q 0.1756069741787929 53.45624999999998 0.34505980447865703 52.79082031249999 Q 0.5370218096492749 52.12539062499999 0.7486353494866185 51.46015624999998 Q 0.981345272618487 50.794921874999986 1.2321610592083116 50.12988281249999 Q 1.5024238944053527 49.464843749999986 1.7890205931799192 48.79999999999999 Q 2.093197594218566 48.135156249999994 2.4117306229288262 47.470507812499996 Q 2.7457813337650396 46.80585937499999 3.092027164449542 46.14140624999999 Q 3.4515558765443908 45.476953124999994 3.8209604999101763 44.8126953125 Q 4.201266597535341 44.14843749999999 4.588997589259716 43.48437499999999 Q 4.985129202109019 42.82031249999999 5.386130792059396 42.1564453125 Q 5.7929411393937045 41.492578124999994 6.201991653178076 40.82890624999999 Q 6.614197435730855 40.16523437499999 7.025968453654716 39.50175781249999 Q 7.4382096289046915 38.838281249999994 7.8473261905605955 38.17499999999999 Q 8.254783396420413 37.51093749999999 8.653018999605482 36.85109863281249 Q 9.046433177995919 36.19125976562499 9.428152495645215 35.53564453124999 Q 9.802586692235854 34.880029296874994 10.163032986937413 34.228637695312486 Q 10.51388967399906 33.57724609374999 10.848665403229065 32.930078124999994 Q 11.171726051962358 32.28291015624999 11.476828917225053 31.63996582031249 Q 11.768286792544433 30.997021484374994 12.04013901467229 30.35830078124999 Q 12.296625188695536 29.71958007812499 12.532096053706544 29.085083007812493 Q 12.75069872731462 28.450585937499994 12.947120535864965 27.820312499999993 Q 13.125397842243778 27.19003906249999 13.280575475502763 26.563989257812494 Q 13.416562015006669 25.93793945312499 13.528776400267237 25.316113281249994 Q 13.620983821898825 24.694287109374997 13.688989642160589 24.076684570312494 Q 13.736401643268128 23.45908203124999 13.759419686304097 22.845703124999993 Q 13.7614818487513 22.232324218749994 13.739186432866571 21.623168945312493 Q 13.695791351072959 21.01401367187499 13.62829329709751 20.40908203124999 Q 13.539761481259934 19.80415039062499 13.427587123627035 19.20344238281249 Q 13.294644180507763 18.60273437499999 13.138710924999426 18.006249999999994 Q 12.962461529395853 17.40976562499999 12.764050471821584 16.817504882812493 Q 12.545949644789907 16.225244140624994 12.306675764110675 15.637207031249993 Q 12.048497969837094 15.049169921874995 11.770278401713938 14.465356445312494 Q 11.474084964295479 13.881542968749994 11.159105847431315 13.301953124999994 Q 10.827211172459709 12.722363281249995 10.477893541138164 12.146997070312494 Q 10.112830605606371 11.571630859374995 9.731795778247552 11.000488281249993 Q 9.336281326657069 10.429345703124994 8.92631621273998 9.862426757812495 Q 8.50321606810672 9.295507812499995 8.067238785171579 8.732812499999996 Q 7.6195336516209675 8.170117187499995 7.16055981095938 7.611645507812495 Q 6.691311910451354 7.053173828124995 6.2124218951845345 6.498925781249996 Q 5.724742745266894 5.944677734374997 5.229050268430404 5.3946533203124964 Q 4.726069871393143 4.844628906249997 4.216692064976281 4.298828124999997 Q 3.701529741933806 3.7530273437499986 3.181558991099932 3.2114501953124988 Q 2.6572960578760516 2.669873046874999 2.129773758303497 2.132519531249999 Q 1.5994282039976806 1.5951660156249992 1.0673205848630163 1.0620361328124994 Q 0.5338238790437198 0.5289062499999997 0 0 L 0 0 L 0.7156250000000001 0 L 1.4312500000000001 0 L 2.146875 0 L 2.8625000000000003 0 L 3.578125 0 L 4.29375 0 L 5.009375 0 L 5.7250000000000005 0 L 6.440625000000001 0 L 7.15625 0 L 7.871875 0 L 8.5875 0 L 9.303125000000001 0 L 10.01875 0 L 10.734375 0 L 11.450000000000001 0 Q 12.165138838434986 0.6749999999999989 12.879743392068171 1.3594726562499981 Q 13.59141954744965 2.043945312499997 14.299463331557158 2.7378906249999964 Q 15.001481666584404 3.4318359374999954 15.696534789273013 4.135253906249995 Q 16.382332917261728 4.838671874999994 17.057636381563377 5.551562499999994 Q 17.720365554659608 6.264453124999994 18.36891988197518 6.986816406249993 Q 19.001540082343844 7.709179687499992 19.616208042556703 8.441015624999991 Q 20.211596887204163 9.172851562499991 20.785219747473757 9.914160156249991 Q 21.336294425719018 10.65546874999999 21.861820717407273 11.406249999999991 Q 22.361671751822662 12.157031249999992 22.832297109014476 12.917285156249992 Q 23.274332272690053 13.67753906249999 23.683648424208656 14.447265624999993 Q 24.061744668331954 15.216992187499992 24.403895178035242 15.996191406249993 Q 24.712555935071293 16.775390624999993 24.98239579475936 17.56406249999999 Q 25.216910537203923 18.352734374999994 25.410166237050817 19.150878906249993 Q 25.566768705169274 19.949023437499996 25.680194954649245 20.756640624999996 Q 25.756216036119675 21.564257812499996 25.787744902206192 22.381347656249993 Q 25.781755771167223 23.198437499999997 25.73063365994011 24.025 Q 25.64211843382907 24.853125 25.511138586241774 25.68603515625 Q 25.344803752062887 26.5189453125 25.137669612692427 27.356640624999997 Q 24.89759784972628 28.194335937499993 24.619110511769524 29.036816406249994 Q 24.310780833398713 29.879296874999994 23.967120318540633 30.726562499999996 Q 23.597358702953667 31.573828124999995 23.196019631018455 32.42587890624999 Q 22.77292014179453 33.27792968749999 22.32261766631986 34.13476562499999 Q 21.855433921205172 34.991601562499994 21.365980108033956 35.85322265624999 Q 20.864987597106012 36.71484374999999 20.34713908895479 37.58124999999999 Q 19.82346952576017 38.447656249999994 19.288748034828167 39.31884765624999 Q 18.754197632912682 40.19003906249999 18.214685521859316 41.06601562499999 Q 17.681499809404766 41.94199218749999 17.149613742529453 42.822753906249986 Q 16.63025224285836 43.70351562499998 16.118498596543056 44.58906249999998 Q 15.625383393884142 45.474609374999986 15.146099789487016 46.36494140624998 Q 14.691352648321438 47.25527343749998 14.256440591994448 48.15039062499998 Q 13.851613884526504 49.04550781249998 13.4722680466444 49.94541015624998 Q 13.128075246220925 50.84531249999998 12.814515368048257 51.74999999999997 Q 12.540027960912171 52.65624999999997 12.303076736536685 53.56347656249998 Q 12.109252048952255 54.47070312499997 11.95599682256434 55.37890624999997 Q 11.848354268467336 56.28710937499997 11.783395914513997 57.19628906249998 Q 11.765585291751309 58.105468749999986 11.791603327196928 59.015624999999986 Q 11.865313354680286 59.925781249999986 11.982994606089022 60.836914062499986 Q 12.147902286910814 61.748046874999986 12.355911296383328 62.660156249999986 Q 12.609673671083042 63.57226562499999 12.90466596721122 64.4853515625 Q 13.242954934858641 65.3984375 13.61963339106008 66.3125 Q 14.036213360420238 67.2265625 14.487426939857311 68.1416015625 Q 14.97427414788273 69.056640625 15.491157411280646 69.97265625 Q 16.038618831399233 70.88867187500001 16.610769681470302 71.80566406250001 Q 17.207758559645 72.72265625000001 17.82345083348319 73.64062500000001 Q 18.457675055602436 74.55859375000001 19.104101773843066 75.47753906250001 Q 19.762320502756545 76.39648437500001 20.42586286009687 77.31640625 Q 21.094166202510085 78.23632812500001 21.760682755615512 79.15722656250001 Q 22.42478864452191 80.07812500000001 23.079918635904907 81.00000000000001 L 23.079918635904907 81.00000000000001 Z" fill="black" stroke="black" />
				</svg>