<svg
					xmlns="http://www.w3.org/2000/svg" xmlns:xlink="http://www.w3.org/1999/xlink"
					style="
						overflow: visible;
						height: 100;
					"
					viewBox="-6.533738288485572 0 57.91123007897892 128.52499999999998"
				>
					<path d="M 36.16626171151443 57.074999999999996 L 35.558761711514435 57.074999999999996 L 34.951261711514434 57.074999999999996 L 34.34376171151443 57.074999999999996 L 33.73626171151443 57.074999999999996 L 33.12876171151443 57.074999999999996 L 32.52126171151443 57.074999999999996 L 31.913761711514425 57.074999999999996 L 31.30626171151443 57.074999999999996 L 30.698761711514436 57.074999999999996 L 30.091261711514434 57.074999999999996 L 29.483761711514433 57.074999999999996 L 28.87626171151443 57.074999999999996 L 28.26876171151443 57.074999999999996 L 27.661261711514427 57.074999999999996 L 27.053761711514426 57.074999999999996 L 26.44626171151443 57.074999999999996 L 26.215005554640065 58.91874999999999 L 26.179200783675505 60.76249999999999 L 26.336693192292262 62.60624999999999 L 26.681130771388617 64.44999999999999 L 27.202101654617266 66.29374999999997 L 27.88536023115902 68.13749999999997 L 28.713136515289023 69.98124999999999 L 29.664522054208035 71.82499999999997 L 30.20014705420804 71.82499999999997 L 30.735772054208034 71.82499999999997 L 31.271397054208038 71.82499999999997 L 31.80702205420804 71.82499999999997 L 32.34264705420804 71.82499999999997 L 32.87827205420804 71.82499999999997 L 33.41389705420804 71.82499999999997 L 33.94952205420804 71.82499999999997 L 34.485147054208035 71.82499999999997 L 35.02077205420804 71.82499999999997 L 35.55639705420804 71.82499999999997 L 36.09202205420804 71.82499999999997 L 36.62764705420803 71.82499999999997 L 37.163272054208036 71.82499999999997 L 37.69889705420804 71.82499999999997 L 38.234522054208036 71.82499999999997 L 39.12451939316854 73.22031249999998 L 40.06076409232995 74.61562499999998 L 41.03160251911544 76.01093749999998 L 42.02495044562247 77.40624999999997 L 43.028443463521874 78.80156249999997 L 44.029590886421005 80.19687499999998 L 45.01593122403622 81.59218749999997 L 45.97518729295541 82.98749999999998 L 46.89541903329433 84.3828125 L 47.76517212910647 85.77812499999999 L 48.573620582636956 87.17343749999998 L 49.31070146776918 88.56875 L 49.967240185359955 89.9640625 L 50.53506466138407 91.35937499999999 L 51.00710706644005 92.75468749999999 L 51.377491790493345 94.14999999999999 L 50.73811679049334 94.14999999999999 L 50.09874179049334 94.14999999999999 L 49.45936679049334 94.14999999999999 L 48.81999179049334 94.14999999999999 L 48.18061679049334 94.14999999999999 L 47.54124179049334 94.14999999999999 L 46.90186679049334 94.14999999999999 L 46.26249179049334 94.14999999999999 L 45.62311679049335 94.14999999999999 L 44.98374179049335 94.14999999999999 L 44.344366790493346 94.14999999999999 L 43.704991790493345 94.14999999999999 L 43.065616790493344 94.14999999999999 L 42.42624179049334 94.14999999999999 L 41.78686679049334 94.14999999999999 L 41.14749179049334 94.14999999999999 L 41.34692123419255 96.29843749999999 L 41.284117706285635 98.44687499999999 L 40.9561617325151 100.59531249999999 L 40.36794744756308 102.74374999999999 L 39.532038372906335 104.89218749999999 L 38.4682971903851 107.04062499999999 L 37.20330042145348 109.18906249999999 L 35.76955526055635 111.33749999999999 L 34.20454164127258 113.48593749999999 L 32.549607763968424 115.63437499999999 L 30.848751631955185 117.78281249999999 L 29.147324502287468 119.93124999999999 L 27.490694458386958 122.07968749999999 L 25.92290948682055 124.22812499999999 L 24.485399455173923 126.37656249999999 L 23.215755241609706 128.52499999999998 L 22.626380241609706 128.52499999999998 L 22.03700524160971 128.52499999999998 L 21.44763024160971 128.52499999999998 L 20.858255241609708 128.52499999999998 L 20.268880241609708 128.52499999999998 L 19.679505241609707 128.52499999999998 L 19.090130241609707 128.52499999999998 L 18.500755241609706 128.52499999999998 L 17.911380241609706 128.52499999999998 L 17.322005241609705 128.52499999999998 L 16.732630241609705 128.52499999999998 L 16.143255241609705 128.52499999999998 L 15.553880241609704 128.52499999999998 L 14.964505241609704 128.52499999999998 L 14.375130241609707 128.52499999999998 L 13.785755241609706 128.52499999999998 L 15.055399455173923 126.37656249999999 L 16.49290948682055 124.22812499999999 L 18.06069445838696 122.07968749999999 L 19.717324502287468 119.93124999999999 L 21.418751631955185 117.78281249999999 L 23.11960776396843 115.63437499999999 L 24.774541641272574 113.48593749999999 L 26.339555260556352 111.33749999999999 L 27.773300421453477 109.18906249999999 L 29.0382971903851 107.04062499999999 L 30.102038372906335 104.89218749999999 L 30.937947447563086 102.74374999999999 L 31.526161732515103 100.59531249999999 L 31.85411770628564 98.44687499999999 L 31.91692123419255 96.29843749999999 L 31.71749179049334 94.14999999999999 L 30.979991790493337 94.14999999999999 L 30.24249179049334 94.14999999999999 L 29.504991790493335 94.14999999999999 L 28.767491790493338 94.14999999999999 L 28.029991790493334 94.14999999999999 L 27.292491790493337 94.14999999999999 L 26.55499179049334 94.14999999999999 L 25.817491790493335 94.14999999999999 L 26.021296234192548 96.29843749999999 L 25.962867706285635 98.44687499999999 L 25.6392867325151 100.59531249999999 L 25.055447447563086 102.74374999999999 L 24.22391337290634 104.89218749999999 L 23.1645471903851 107.04062499999999 L 21.903925421453472 109.18906249999999 L 20.47455526055635 111.33749999999999 L 18.913916641272575 113.48593749999999 L 17.263357763968425 115.63437499999999 L 15.566876631955182 117.78281249999999 L 13.869824502287468 119.93124999999999 L 12.21756945838696 122.07968749999999 L 10.65415948682055 124.22812499999999 L 9.221024455173922 126.37656249999999 L 7.9557552416097055 128.52499999999998 L 7.370755241609705 128.52499999999998 L 6.785755241609706 128.52499999999998 L 6.2007552416097065 128.52499999999998 L 5.615755241609706 128.52499999999998 L 5.030755241609705 128.52499999999998 L 4.445755241609706 128.52499999999998 L 3.8607552416097066 128.52499999999998 L 3.2757552416097058 128.52499999999998 L 2.690755241609705 128.52499999999998 L 2.105755241609706 128.52499999999998 L 1.5207552416097068 128.52499999999998 L 0.9357552416097068 128.52499999999998 L 0.35075524160970684 128.52499999999998 L -0.23424475839029224 128.52499999999998 L -0.8192447583902922 128.52499999999998 L -1.4042447583902922 128.52499999999998 L -0.13897554482607521 126.37656249999999 L 1.2941594868205524 124.22812499999999 L 2.8575694583869615 122.07968749999999 L 4.509824502287472 119.93124999999999 L 6.206876631955185 117.78281249999999 L 7.9033577639684305 115.63437499999999 L 9.55391664127258 113.48593749999999 L 11.114555260556354 111.33749999999999 L 12.54392542145348 109.18906249999999 L 13.804547190385104 107.04062499999999 L 14.863913372906337 104.89218749999999 L 15.695447447563089 102.74374999999999 L 16.279286732515104 100.59531249999999 L 16.60286770628564 98.44687499999999 L 16.661296234192555 96.29843749999999 L 16.45749179049334 94.14999999999999 L 15.46749179049334 94.14999999999999 L 14.477491790493339 94.14999999999999 L 13.48749179049334 94.14999999999999 L 12.49749179049334 94.14999999999999 L 11.50749179049334 94.14999999999999 L 10.51749179049334 94.14999999999999 L 9.52749179049334 94.14999999999999 L 8.53749179049334 94.14999999999999 L 8.167107066440046 92.75468749999999 L 7.695064661384064 91.35937499999999 L 7.127240185359954 89.9640625 L 6.470701467769177 88.56875 L 5.733620582636953 87.17343749999998 L 4.925172129106467 85.77812499999999 L 4.055419033294329 84.3828125 L 3.1351872929554077 82.98749999999998 L 2.175931224036221 81.59218749999997 L 1.1895908864209985 80.19687499999998 L 0.1884434635218715 78.80156249999997 L -0.8150495543775302 77.40624999999997 L -1.8083974808845626 76.01093749999998 L -2.779235907670053 74.61562499999998 L -3.715480606831459 73.22031249999998 L -4.605477945791966 71.82499999999997 L -4.002977945791966 71.82499999999997 L -3.400477945791966 71.82499999999997 L -2.7979779457919665 71.82499999999997 L -2.1954779457919664 71.82499999999997 L -1.5929779457919668 71.82499999999997 L -0.9904779457919668 71.82499999999997 L -0.38797794579196676 71.82499999999997 L 0.21452205420803327 71.82499999999997 L 0.8170220542080333 71.82499999999997 L 1.4195220542080325 71.82499999999997 L 2.0220220542080325 71.82499999999997 L 2.6245220542080325 71.82499999999997 L 3.2270220542080326 71.82499999999997 L 3.8295220542080326 71.82499999999997 L 4.432022054208032 71.82499999999997 L 5.034522054208033 71.82499999999997 L 4.083136515289022 69.98124999999999 L 3.255360231159015 68.13749999999997 L 2.5721016546172626 66.29374999999997 L 2.0511307713886158 64.44999999999999 L 1.7066931922922617 62.60624999999999 L 1.5492007836755057 60.76249999999999 L 1.5850055546400625 58.91874999999999 L 1.8162617115144268 57.074999999999996 L 1.2943867115144272 57.074999999999996 L 0.7725117115144275 57.074999999999996 L 0.2506367115144279 57.074999999999996 L -0.27123828848557174 57.074999999999996 L -0.7931132884855714 57.074999999999996 L -1.314988288485572 57.074999999999996 L -1.8368632884855725 57.074999999999996 L -2.358738288485572 57.074999999999996 L -2.8806132884855717 57.074999999999996 L -3.4024882884855723 57.074999999999996 L -3.924363288485573 57.074999999999996 L -4.4462382884855725 57.074999999999996 L -4.968113288485572 57.074999999999996 L -5.489988288485572 57.074999999999996 L -6.011863288485572 57.074999999999996 L -6.533738288485572 57.074999999999996 L -6.325739624671816 55.6453125 L -6.00411037405967 54.215624999999996 L -5.573053390236763 52.78593749999999 L -5.038201461226823 51.35624999999999 L -4.406543703673964 49.926562499999996 L -3.6863342333572255 48.49687499999999 L -2.886984305473084 47.06718749999999 L -2.0189393341304243 45.63749999999999 L -1.0935423980917722 44.20781249999999 L -0.12288601638392249 42.77812499999999 L 0.880345869316657 41.34843749999998 L 1.903043640646542 39.91874999999999 L 2.9318433109997253 38.48906249999998 L 3.953301157899899 37.05937499999998 L 4.954069397312255 35.62968749999998 L 5.921070604290564 34.19999999999998 L 6.5510706042905635 34.19999999999998 L 7.181070604290563 34.19999999999998 L 7.811070604290563 34.19999999999998 L 8.441070604290562 34.19999999999998 L 9.071070604290563 34.19999999999998 L 9.701070604290564 34.19999999999998 L 10.331070604290563 34.19999999999998 L 10.961070604290562 34.19999999999998 L 11.591070604290563 34.19999999999998 L 12.221070604290563 34.19999999999998 L 12.851070604290564 34.19999999999998 L 13.481070604290563 34.19999999999998 L 14.111070604290562 34.19999999999998 L 14.741070604290563 34.19999999999998 L 15.371070604290564 34.19999999999998 L 16.00107060429056 34.19999999999998 L 17.514035787188092 32.06249999999998 L 18.883878221977483 29.924999999999983 L 20.075234102413148 27.787499999999987 L 21.057946042271162 25.649999999999984 L 21.807942760768753 23.512499999999985 L 22.307941237405423 21.37499999999999 L 22.54795085449789 19.23749999999999 L 22.525564821663743 17.09999999999999 L 22.246030381454975 14.962499999999991 L 21.722095748256155 12.824999999999992 L 20.973638245211273 10.687499999999995 L 20.027084486356962 8.549999999999995 L 18.914639517142792 6.412499999999996 L 17.673347399168126 4.274999999999998 L 16.344010641706266 2.137499999999999 L 14.969999999999999 0 L 15.559375 0 L 16.14875 0 L 16.738125 0 L 17.3275 0 L 17.916875 0 L 18.50625 0 L 19.095625 0 L 19.685 0 L 20.274375 0 L 20.863749999999996 0 L 21.453124999999996 0 L 22.042499999999997 0 L 22.631874999999997 0 L 23.221249999999998 0 L 23.810624999999998 0 L 24.4 0 L 25.769635641706262 2.137499999999999 L 27.094597399168126 4.274999999999998 L 28.331514517142793 6.412499999999996 L 29.439584486356956 8.549999999999995 L 30.381763245211268 10.687499999999995 L 31.125845748256154 12.824999999999992 L 31.645405381454975 14.962499999999991 L 31.92056482166374 17.09999999999999 L 31.938575854497888 19.23749999999999 L 31.69419123740542 21.37499999999999 L 31.189817760768754 23.512499999999985 L 30.43544604227116 25.649999999999984 L 29.448359102413146 27.787499999999987 L 28.252628221977485 29.924999999999983 L 26.87841078718809 32.06249999999998 L 25.36107060429056 34.19999999999998 L 26.089820604290566 34.19999999999998 L 26.818570604290564 34.19999999999998 L 27.54732060429056 34.19999999999998 L 28.276070604290567 34.19999999999998 L 29.004820604290565 34.19999999999998 L 29.733570604290563 34.19999999999998 L 30.462320604290568 34.19999999999998 L 31.191070604290566 34.19999999999998 L 32.70403578718809 32.06249999999998 L 34.07387822197748 29.924999999999983 L 35.265234102413146 27.787499999999987 L 36.24794604227117 25.649999999999984 L 36.99794276076876 23.512499999999985 L 37.49794123740543 21.37499999999999 L 37.737950854497896 19.23749999999999 L 37.71556482166374 17.09999999999999 L 37.43603038145497 14.962499999999991 L 36.91209574825616 12.824999999999992 L 36.163638245211274 10.687499999999995 L 35.21708448635696 8.549999999999995 L 34.10463951714279 6.412499999999996 L 32.86334739916813 4.274999999999998 L 31.534010641706264 2.137499999999999 L 30.16 0 L 30.75 0 L 31.340000000000003 0 L 31.930000000000003 0 L 32.52 0 L 33.11 0 L 33.7 0 L 34.290000000000006 0 L 34.88 0 L 35.47 0 L 36.06 0 L 36.650000000000006 0 L 37.24 0 L 37.83 0 L 38.42 0 L 39.010000000000005 0 L 39.6 0 L 40.96901064170626 2.137499999999999 L 42.293347399168134 4.274999999999998 L 43.5296395171428 6.412499999999996 L 44.63708448635696 8.549999999999995 L 45.57863824521127 10.687499999999995 L 46.32209574825616 12.824999999999992 L 46.84103038145497 14.962499999999991 L 47.11556482166374 17.09999999999999 L 47.13295085449789 19.23749999999999 L 46.887941237405414 21.37499999999999 L 46.382942760768756 23.512499999999985 L 45.62794604227116 25.649999999999984 L 44.640234102413146 27.787499999999987 L 43.443878221977485 29.924999999999983 L 42.0690357871881 32.06249999999998 L 40.551070604290565 34.19999999999998 L 41.05544560429056 34.19999999999998 L 41.559820604290564 34.19999999999998 L 42.06419560429057 34.19999999999998 L 42.568570604290564 34.19999999999998 L 43.07294560429056 34.19999999999998 L 43.57732060429056 34.19999999999998 L 44.081695604290566 34.19999999999998 L 44.58607060429056 34.19999999999998 L 45.09044560429056 34.19999999999998 L 45.59482060429056 34.19999999999998 L 46.099195604290564 34.19999999999998 L 46.60357060429056 34.19999999999998 L 47.10794560429056 34.19999999999998 L 47.61232060429057 34.19999999999998 L 48.11669560429056 34.19999999999998 L 48.621070604290566 34.19999999999998 L 47.654069397312256 35.62968749999998 L 46.6533011578999 37.05937499999998 L 45.63184331099973 38.48906249999998 L 44.60304364064654 39.91874999999999 L 43.58034586931666 41.34843749999998 L 42.57711398361608 42.77812499999999 L 41.606457601908225 44.20781249999999 L 40.68106066586957 45.63749999999999 L 39.81301569452692 47.06718749999999 L 39.013665766642774 48.49687499999999 L 38.293456296326035 49.926562499999996 L 37.661798538773176 51.35624999999999 L 37.12694660976324 52.78593749999999 L 36.69588962594033 54.215624999999996 L 36.374260375328184 55.6453125 L 36.16626171151443 57.074999999999996 L 36.16626171151443 57.074999999999996 Z M 11.176261711514426 57.074999999999996 L 10.945005554640064 58.91874999999999 L 10.909200783675505 60.76249999999999 L 11.06669319229226 62.60624999999999 L 11.411130771388615 64.44999999999999 L 11.932101654617263 66.29374999999997 L 12.615360231159015 68.13749999999997 L 13.443136515289021 69.98124999999999 L 14.394522054208034 71.82499999999997 L 15.124522054208034 71.82499999999997 L 15.854522054208035 71.82499999999997 L 16.584522054208037 71.82499999999997 L 17.314522054208034 71.82499999999997 L 18.044522054208038 71.82499999999997 L 18.774522054208035 71.82499999999997 L 19.50452205420803 71.82499999999997 L 20.234522054208036 71.82499999999997 L 19.283136515289023 69.98124999999999 L 18.455360231159013 68.13749999999997 L 17.77210165461726 66.29374999999997 L 17.251130771388617 64.44999999999999 L 16.906693192292263 62.60624999999999 L 16.749200783675505 60.76249999999999 L 16.78500555464006 58.91874999999999 L 17.016261711514424 57.074999999999996 L 16.286261711514427 57.074999999999996 L 15.556261711514429 57.074999999999996 L 14.826261711514428 57.074999999999996 L 14.096261711514428 57.074999999999996 L 13.366261711514428 57.074999999999996 L 12.636261711514427 57.074999999999996 L 11.906261711514427 57.074999999999996 L 11.176261711514426 57.074999999999996 L 11.176261711514426 57.074999999999996 Z" fill="black" stroke="black" />
				</svg>