<svg
					xmlns="http://www.w3.org/2000/svg" xmlns:xlink="http://www.w3.org/1999/xlink"
					style="
						overflow: visible;
						height: 100;
					"
					viewBox="-8.987191326077994 0 58.76865710775304 128.52499999999998"
				>
					<path d="M 34.8445539162724 61.57499999999999 L 34.8445539162724 61.57499999999999 Q 34.9645297781739 62.27187499999999 35.10654176090722 62.96157226562498 Q 35.27451617370667 63.65126953124998 35.462484362326094 64.33378906249997 Q 35.67478736852015 65.01630859374998 35.90483007492713 65.69165039062499 Q 36.15735997101402 66.36699218749997 36.42520948038017 67.03515624999997 Q 36.713518922335034 67.70332031249998 37.01460662871692 68.36430664062497 Q 37.33398716462324 69.02529296874998 37.66352647772634 69.67910156249998 Q 38.009090253523006 70.33291015624998 38.36215611677342 70.97954101562499 Q 38.72891367828498 71.62617187499998 39.10051771601885 72.26562499999999 Q 39.48345100858968 72.90507812499997 39.86861149679687 73.53735351562497 Q 40.262741339224625 74.16962890624998 40.656547366440066 74.79472656249997 Q 41.46300075730351 76.04492187499999 42.25363602718562 77.26640624999999 Q 43.053004217908416 78.48789062499998 43.819059531743456 79.68066406249999 Q 44.577651674266406 80.8734375 45.2880979801282 82.03749999999998 Q 45.977004093677465 83.20156249999997 46.60592905524858 84.33691406249997 Q 47.20166426440571 85.47226562499998 47.728713677562546 86.57890624999999 Q 48.21348779336441 87.685546875 48.623961351280535 88.76347656249999 Q 48.98562786559316 89.84140624999998 49.27028777185105 90.89062499999999 Q 49.50203417000354 91.93984375 49.65668989704833 92.9603515625 Q 49.75653345989158 93.980859375 49.781465781675045 94.97265624999999 Q 49.7516168837914 95.96445312499998 49.65090034019377 96.92753906249999 Q 49.49704982780172 97.890625 49.27782614866618 98.825 Q 49.008405808798805 99.759375 48.68281686092624 100.66416015625 Q 48.31102664062301 101.5689453125 47.89044331183082 102.444140625 Q 47.42830576941222 103.31933593750001 46.92504792368054 104.16494140625002 Q 46.38525658724096 105.010546875 45.81201444256755 105.8265625 Q 45.20739319596719 106.64257812499999 44.57673947091344 107.42900390624999 Q 43.919795637681744 108.21542968749998 43.24379179234452 108.97226562499998 Q 42.546363577002836 109.72910156249998 41.83625820830904 110.45634765624999 Q 41.10925250394965 111.18359374999999 40.37526601408907 111.88125 Q 39.62847922439266 112.57890625 38.87966616343468 113.24697265625002 Q 38.1216784885422 113.91503906250001 37.36585732821485 114.553515625 Q 36.6039897619696 115.1919921875 35.84772911209537 115.80087890625 Q 35.08805201175703 116.409765625 34.33670226135257 116.9890625 Q 33.584084598093725 117.568359375 32.84184447305966 118.11806640625001 Q 32.10003358147381 118.6677734375 31.370041998804705 119.187890625 Q 30.641764663801947 119.7080078125 29.926209387918185 120.19853515625002 Q 29.21328630787029 120.6890625 28.51352216119847 121.15000000000002 Q 27.81698910124881 121.61093750000003 27.135277638402524 122.04306640625003 Q 26.457139276483105 122.47519531250003 25.7935746869161 122.87851562500002 Q 25.133705922354505 123.2818359375 24.48791391121775 123.65634765625 Q 23.845764098590642 124.030859375 23.217005517434544 124.3765625 Q 22.59169904008325 124.72226562499999 21.978965246065325 125.03916015624998 Q 21.369393261935006 125.35605468749999 20.77149221766672 125.64414062499999 Q 20.176394856286215 125.93222656249999 19.5920275379964 126.19150390624998 Q 19.010066326995283 126.45078124999999 18.43789344106588 126.68125 Q 17.867714121261617 126.91171875 17.30641344891919 127.11337890625 Q 16.746699610381906 127.3150390625 16.195014520009387 127.487890625 Q 15.644532670795133 127.66074218749999 15.101312470436852 127.80478515624999 Q 14.5589492484443 127.94882812499999 14.023182111048715 128.06406249999998 Q 13.487974380914377 128.17929687499998 12.958813574464264 128.26572265624998 Q 12.429972127906302 128.35214843749998 11.906756233550531 128.409765625 Q 11.645202026866606 128.43857421875 11.384997443073168 128.4601806640625 Q 11.124813097226426 128.481787109375 10.865951458399893 128.49619140624998 Q 10.607098836850277 128.51059570312498 10.349550910377321 128.5177978515625 Q 10.092005241609709 128.52499999999998 9.835755241609707 128.52499999999998 L 9.835755241609707 128.52499999999998 L 9.315755241609708 128.52499999999998 L 8.795755241609708 128.52499999999998 L 8.275755241609708 128.52499999999998 L 7.755755241609708 128.52499999999998 L 7.235755241609707 128.52499999999998 L 6.715755241609707 128.52499999999998 L 6.1957552416097075 128.52499999999998 L 5.675755241609708 128.52499999999998 L 5.155755241609708 128.52499999999998 L 4.635755241609709 128.52499999999998 L 4.115755241609709 128.52499999999998 L 3.595755241609708 128.52499999999998 L 3.0757552416097065 128.52499999999998 L 2.555755241609707 128.52499999999998 L 2.0357552416097073 128.52499999999998 L 1.5157552416097078 128.52499999999998 L 0.9957552416097082 128.52499999999998 L 0.4757552416097077 128.52499999999998 L -0.04424475839029274 128.52499999999998 L -0.5642447583902923 128.52499999999998 L -1.0842447583902919 128.52499999999998 L -1.6042447583902923 128.52499999999998 L -2.124244758390293 128.52499999999998 L -2.6442447583902924 128.52499999999998 L -3.1642447583902924 128.52499999999998 L -3.6842447583902924 128.52499999999998 L -4.204244758390292 128.52499999999998 L -4.7242447583902925 128.52499999999998 L -5.244244758390293 128.52499999999998 L -5.7642447583902925 128.52499999999998 L -6.284244758390292 128.52499999999998 L -6.8042447583902925 128.52499999999998 L -5.7742853781557 126.516796875 L -4.5956094885185985 124.50859375 L -3.2985738440458325 122.50039062500001 L -1.9165835504750606 120.4921875 L -0.48523171743427673 118.48398437499998 L 0.958617240799023 116.47578124999998 L 2.377777046943662 114.46757812499999 L 3.735697291930357 112.459375 L 4.997404789354912 110.451171875 L 6.130404308618939 108.44296874999999 L 7.105515488409313 106.43476562499998 L 7.897624375839944 104.42656249999999 L 8.486330235392815 102.418359375 L 8.856470969117451 100.41015625 L 8.998513615910925 98.401953125 L 8.908799872583483 96.39375 L 8.58964031332385 94.38554687499999 L 8.049254880945227 92.37734375 L 7.301561182557812 90.369140625 L 6.365816042105069 88.3609375 L 5.26611954156509 86.35273437500001 L 4.030794324217873 84.34453124999999 L 2.691656146000231 82.33632812499998 L 1.2831944618714886 80.32812499999999 L -0.1583158488416105 78.31992187499999 L -1.5957487406394806 76.31171874999998 L -2.9920831817980567 74.30351562499999 L -4.311356629691147 72.2953125 L -5.519591244764737 70.287109375 L -6.585668988555971 68.27890624999999 L -7.482133067639261 66.27070312499998 L -8.185895082340005 64.26249999999999 L -8.678829667626502 62.254296875 L -8.948241311225503 60.24609375 L -8.987191326077994 58.23789062499999 L -8.794676555971446 56.2296875 L -8.375655211791479 54.221484374999996 L -7.740919172981279 52.213281249999994 L -6.906816043079972 50.205078125 L -5.894828117789437 48.196875 L -4.731019109231718 46.188671875 L -3.445362875993486 44.18046875 L -2.070971447490883 42.172265624999994 L -0.6432422248591155 40.16406249999999 L 0.8010536778233512 38.15585937499999 L 2.2247184722373228 36.14765625 L 3.5910857235049 34.139453124999996 L 4.864964692883048 32.131249999999994 L 6.013546673956966 30.123046875 L 7.0072499796776935 28.11484375 L 7.820481817633628 26.106640624999997 L 8.432297431486028 24.0984375 L 8.826939532404953 22.090234375 L 8.994244127468624 20.082031249999996 L 8.929902292930558 18.073828125 L 8.635571150393591 16.065624999999997 L 8.118831187703394 14.057421875 L 7.3929910237603735 12.04921875 L 6.476744645525085 10.041015624999998 L 5.393689945065583 8.032812499999999 L 4.171720956707508 6.024609375 L 2.842309447196964 4.016406249999999 L 1.4396943614953244 2.0082031249999996 L 0 0 L 0.5559375 0 L 1.111875 0 L 1.6678125 0 L 2.22375 0 L 2.7796874999999996 0 L 3.335625 0 L 3.8915625 0 L 4.4475 0 L 5.0034374999999995 0 L 5.559374999999999 0 L 6.1153125 0 L 6.67125 0 L 7.227187499999999 0 L 7.783125 0 L 8.3390625 0 L 8.895 0 L 9.450937499999998 0 L 10.006874999999999 0 L 10.5628125 0 L 11.118749999999999 0 L 11.6746875 0 L 12.230625 0 L 12.786562499999999 0 L 13.3425 0 L 13.8984375 0 L 14.454374999999999 0 L 15.0103125 0 L 15.56625 0 L 16.122187500000003 0 L 16.678125 0 L 17.2340625 0 L 17.79 0 Q 18.1790625 0 18.573654294026937 0.015478515625000008 Q 18.968246070965524 0.030957031250000017 19.368367005224375 0.06191406250000003 Q 19.768487666070715 0.09287109375000005 20.17413659565208 0.1393066406250001 Q 20.57978414110648 0.1857421875000001 20.99095708457478 0.24765625000000013 Q 21.402125653717906 0.30957031250000017 21.818812923068215 0.3869628906250002 Q 22.235489513933054 0.4643554687500002 22.657671821610222 0.5572265625000004 Q 23.079831990208113 0.6500976562500004 23.50747553712586 0.7584472656250005 Q 23.93507808031703 0.8667968750000005 24.36812863255174 0.9906250000000005 Q 24.801109264677066 1.1144531250000007 25.239485232131734 1.2537597656250008 Q 25.677749271903384 1.3930664062500009 26.12133381012462 1.5478515625000009 Q 26.564747903287607 1.7026367187500009 27.013380070143672 1.8729003906250008 Q 27.46176298523068 2.043164062500001 27.91522799767434 2.2289062500000014 Q 28.36834054712468 2.4146484375000012 28.826359200094608 2.6158691406250014 Q 29.283893357400945 2.8170898437500016 29.746110687344824 3.033789062500002 Q 30.20767799299077 3.2504882812500018 30.673651292751956 3.482666015625002 Q 31.13877066770895 3.7148437500000018 31.607956987764705 3.962500000000002 Q 32.07604210334591 4.2101562500000025 32.547785406685286 4.473291015625003 Q 33.018131793623695 4.736425781250003 33.49164996785692 5.015039062500003 Q 33.96342208547229 5.293652343750004 34.43779405587865 5.587744140625004 Q 34.9100125838556 5.8818359375000036 35.38416581464055 6.1914062500000036 Q 35.8556954748065 6.500976562500003 36.328394192285124 6.826025390625004 Q 36.79793245518193 7.151074218750003 37.26776697513549 7.491601562500003 Q 37.73383405520552 7.832128906250004 38.1992116462066 8.188134765625005 Q 38.66014223886476 8.544140625000004 39.11928000257021 8.915625000000006 Q 39.57321726480029 9.287109375000004 40.024137561386276 9.674072265625004 Q 40.46902988294191 10.061035156250004 40.909558872967644 10.463476562500006 Q 41.3431600255788 10.865917968750004 41.77092993622415 11.283837890625005 Q 42.19080322085242 11.701757812500006 42.603258971922415 12.135156250000009 Q 43.006786006155146 12.568554687500008 43.40119684637354 13.017431640625007 Q 43.78559164223875 13.466308593750007 44.15906844573206 13.930664062500009 Q 44.5213974189954 14.395019531250009 44.87091627179163 14.87485351562501 Q 45.20812479336216 15.354687500000008 45.53055745629527 15.850000000000009 Q 45.83935715280216 16.344531250000006 46.130204012048004 16.85280761718751 Q 46.406539268052214 17.36108398437501 46.663086261061274 17.88310546875001 Q 46.90409303989725 18.40512695312501 47.12349330866999 18.94089355468751 Q 47.32638774396941 19.476660156250006 47.50590498064517 20.026171875000006 Q 47.66804045845203 20.575683593750007 47.805109455399595 21.138940429687505 Q 47.92403955998625 21.702197265625003 48.016332402354955 22.27919921875 Q 48.089879208077896 22.856201171875004 48.13537646614049 23.446948242187506 Q 48.161703418809054 24.037695312500006 48.15876944456648 24.642187500000006 Q 48.13645781263763 25.246679687500006 48.08391896968562 25.86491699218751 Q 48.01204656186824 26.483154296875007 47.90927092399561 27.115136718750005 Q 47.78749147087355 27.747119140625003 47.63446821951767 28.3928466796875 Q 47.46308950967361 29.03857421875 47.26050595128735 29.698046875000003 Q 47.04056450611553 30.357519531250006 46.78987832774055 31.030737304687506 Q 46.52320810463541 31.703955078125006 46.22671220155813 32.39091796875 Q 45.91600454540025 33.077880859375 45.57688150268028 33.7785888671875 Q 45.22573333535578 34.479296875 44.848096441080905 35.19375 Q 44.46104350473376 35.908203125 44.04996103447273 36.6364013671875 Q 43.632492904280824 37.364599609375 43.19399236198067 38.10654296875 Q 42.75254593740927 38.848486328125 42.293594987196784 39.604174804687496 Q 41.83552327622194 40.35986328124999 41.363984271481186 41.129296874999994 Q 40.89749751908346 41.898730468749996 40.42205284818072 42.68190917968749 Q 39.95612944603393 43.465087890624986 39.48617538463509 44.262011718749996 Q 39.03044054845503 45.058935546875 38.57594794992999 45.8696044921875 Q 38.140518875806684 46.68027343749999 37.711859852741696 47.504687499999996 Q 37.30715697029223 48.3291015625 36.914897724808554 49.1672607421875 Q 36.55142275297691 50.005419921875 36.206083897259916 50.85732421875 Q 35.89416666988717 51.709228515625 35.60595372818349 52.574877929687496 Q 35.3554711734995 53.44052734374999 35.133979449832026 54.319921875 Q 34.95405165250936 55.19931640625 34.80795125018471 56.092456054687496 Q 34.70662115654606 56.985595703124986 34.64332959971004 57.89248046874999 Q 34.62723459369141 58.79936523437499 34.65258616863804 59.71999511718749 Q 34.726631383188256 60.640624999999986 34.8445539162724 61.57499999999999 L 34.8445539162724 61.57499999999999 Z M 20.67896788453327 62.82499999999999 L 20.67896788453327 62.82499999999999 Q 20.470352107911623 61.73906249999999 20.320275670284836 60.687060546874996 Q 20.233261566852235 59.63505859374999 20.198206839278924 58.61699218749999 Q 20.222803346574526 57.59892578124999 20.291212678440147 56.614794921874996 Q 20.414446465538706 55.63066406249999 20.572358673820467 54.68046874999999 Q 20.779310997742968 53.73027343749999 21.011338648056718 52.81401367187499 Q 21.286076194212814 51.89775390624998 21.576262151084862 51.015429687499974 Q 21.902635614063314 50.133105468749974 22.235170108130337 49.284716796874974 Q 22.597467785374928 48.436328124999974 22.95725940372352 47.621874999999974 Q 23.340714076868547 46.80742187499998 23.713817668235055 46.02690429687498 Q 24.10497345398929 45.246386718749974 24.478884987940837 44.499804687499974 Q 24.86583677733052 43.753222656249974 25.229669909795764 43.040576171874974 Q 25.602191744339475 42.327929687499974 25.946753530619468 41.649218749999974 Q 26.29633412891412 40.970507812499974 26.61411835203033 40.325732421874974 Q 26.933922374268967 39.680957031249974 27.21903869512933 39.070117187499974 Q 27.503811586053025 38.459277343749974 27.751867527971886 37.88237304687498 Q 27.997800251449718 37.305468749999974 28.205751222618673 36.762499999999974 Q 28.410319189936047 36.21953124999998 28.57629959223742 35.71049804687498 Q 28.738087836043896 35.20146484374998 28.86123402296866 34.726367187499974 Q 28.979758371355796 34.251269531249974 29.060031965679023 33.81010742187498 Q 29.1355637673718 33.368945312499974 29.17358174708456 32.96171874999998 Q 29.206981685769748 32.55449218749998 29.203857769878496 32.181201171874974 Q 29.196422541943218 31.807910156249974 29.15362279761251 31.468554687499974 Q 29.106946941305786 31.129199218749974 29.026161205488506 30.823779296874974 Q 28.9420151658653 30.518359374999974 28.825044823567396 30.246874999999974 Q 28.705269405063483 29.975390624999978 28.553931274842355 29.737841796874974 Q 28.400347949573007 29.500292968749974 28.21639346857283 29.296679687499974 Q 28.030729544768256 29.093066406249974 27.81577809011234 28.923388671874974 Q 27.599605470120796 28.753710937499974 27.355090469193108 28.617968749999974 Q 27.109776608755002 28.482226562499974 26.836903047174307 28.380419921874974 Q 26.56357273747102 28.278613281249978 26.26328474211413 28.210742187499974 Q 25.96279144647046 28.142871093749974 25.6357487765443 28.108935546874974 Q 25.30865444090922 28.074999999999974 24.95521694090922 28.074999999999974 L 24.95521694090922 28.074999999999974 L 24.45146694090922 28.074999999999974 L 23.94771694090922 28.074999999999974 L 23.44396694090922 28.074999999999974 L 22.940216940909224 28.074999999999974 L 22.436466940909224 28.074999999999974 L 21.932716940909224 28.074999999999974 L 21.428966940909223 28.074999999999974 L 20.925216940909223 28.074999999999974 L 19.804583292268134 30.324999999999974 L 18.493157120371027 32.574999999999974 L 17.033314033455635 34.824999999999974 L 15.472225378308643 37.074999999999974 L 13.860334010725122 39.32499999999998 L 12.249724354958774 41.57499999999998 L 10.692439419803556 43.82499999999999 L 9.238799152917077 46.07499999999998 L 7.935774471754077 48.324999999999974 L 6.825469510421614 50.57499999999998 L 5.943761125028011 52.82499999999999 L 5.319139618664689 55.07499999999999 L 4.971788145227549 57.32499999999998 L 4.912930538947288 59.57499999999999 L 5.144468642961549 61.82499999999999 L 5.658920855790907 64.07499999999999 L 6.439663881442759 66.32499999999999 L 7.46146987156518 68.57499999999999 L 8.691321603183466 70.82499999999999 L 10.08947935149543 73.07499999999999 L 11.610764984276289 75.32499999999999 L 13.2060217854456 77.57499999999999 L 14.823702837080294 79.825 L 16.411536635098273 82.07499999999999 L 17.918216118215184 84.32499999999999 L 19.29505653323288 86.57499999999999 L 20.497568566697858 88.825 L 21.48689591093282 91.075 L 22.231070812924628 93.32499999999999 L 22.706047036001394 95.57500000000002 L 22.89647685660637 97.825 L 22.796206989371573 100.075 L 23.57120698937157 100.075 L 24.346206989371574 100.075 L 25.121206989371572 100.075 L 25.89620698937157 100.075 Q 26.29183198937157 100.075 26.67812498711737 100.03916015625 Q 27.06434481947013 100.0033203125 27.440939863709882 99.931640625 Q 27.817241879536393 99.8599609375 28.183332468128118 99.75244140625 Q 28.548762475572417 99.644921875 28.903098717980143 99.50156249999999 Q 29.256257845527173 99.35820312499999 29.59714312869845 99.17900390624999 Q 29.93618473747181 98.99980468749999 30.261473315126366 98.78476562499999 Q 30.58410160163922 98.56972656250001 30.89119904405736 98.31884765625 Q 31.19467149198431 98.06796875 31.480540448587874 97.78125 Q 31.7616767988363 97.49453125 32.022851027391944 97.17197265624998 Q 32.27805192486287 96.84941406249997 32.51066200927362 96.49101562499999 Q 32.735940928375605 96.13261718749999 32.935755512604736 95.73837890624999 Q 33.12678792795704 95.34414062499998 33.289274596827845 94.91406249999997 Q 33.44146860571897 94.48398437499996 33.5618786928822 94.01806640624997 Q 33.670471355425065 93.55214843749998 33.743952891884916 93.05039062499998 Q 33.80413636570849 92.54863281249996 33.8258790255717 92.01103515624996 Q 33.832960056934986 91.47343749999997 33.798375228898024 90.89999999999996 Q 33.74859563742082 90.32656249999997 33.65483051900888 89.71513671874999 Q 33.544281427150096 89.10371093749998 33.386905026759834 88.45429687499998 Q 33.21222259833954 87.80488281249998 32.988445652684966 87.11748046874999 Q 32.7474278656646 86.43007812499997 32.45583234079315 85.70468749999996 Q 32.147804610380376 84.97929687499997 31.78872480794026 84.21591796874998 Q 31.414925980302506 83.45253906249997 30.990841586155696 82.65117187499996 Q 30.554813102515944 81.84980468749997 30.070733713370576 81.01044921874998 Q 29.578688733644626 80.17109374999997 29.042503170435097 79.29374999999999 Q 28.50364617886483 78.41640624999998 27.926403640431104 77.50107421874999 Q 27.353165004659928 76.58574218749999 26.74924939448113 75.63242187499998 Q 26.15739415672279 74.67910156249998 25.544548466233753 73.68779296874999 Q 24.95311512582962 72.69648437499998 24.352270484281092 71.6671875 Q 23.783294654771293 70.637890625 23.218159596997108 69.57060546875 Q 22.696140266523194 68.5033203125 22.1925110380254 67.39804687499999 Q 21.743584837201535 66.29277343749999 21.328348234389047 65.14951171874999 Q 20.97915063817174 64.00625 20.67896788453327 62.82499999999999 L 20.67896788453327 62.82499999999999 Z" fill="black" stroke="black" />
				</svg>