<svg
					xmlns="http://www.w3.org/2000/svg" xmlns:xlink="http://www.w3.org/1999/xlink"
					style="
						overflow: visible;
						height: 100;
					"
					viewBox="-6.8042447583902925 0 42.58346025335026 128.52499999999998"
				>
					<path d="M 32.760186767934464 108.72500000000002 L 31.32030721911836 111.20000000000002 L 29.70301022681837 113.67500000000001 L 27.971493430286717 116.15000000000002 L 26.193417731873026 118.625 L 24.43826337366421 121.1 L 22.774614921445085 123.575 L 21.26748124818483 126.05000000000001 L 19.975755241609708 128.52499999999998 L 19.13888024160971 128.52499999999998 L 18.30200524160971 128.52499999999998 L 17.46513024160971 128.52499999999998 L 16.628255241609708 128.52499999999998 L 15.791380241609705 128.52499999999998 L 14.954505241609706 128.52499999999998 L 14.117630241609707 128.52499999999998 L 13.280755241609707 128.52499999999998 L 12.443880241609708 128.52499999999998 L 11.60700524160971 128.52499999999998 L 10.77013024160971 128.52499999999998 L 9.933255241609707 128.52499999999998 L 9.096380241609708 128.52499999999998 L 8.259505241609709 128.52499999999998 L 7.422630241609707 128.52499999999998 L 6.585755241609708 128.52499999999998 L 5.748880241609709 128.52499999999998 L 4.912005241609708 128.52499999999998 L 4.075130241609707 128.52499999999998 L 3.238255241609708 128.52499999999998 L 2.4013802416097088 128.52499999999998 L 1.5645052416097078 128.52499999999998 L 0.7276302416097078 128.52499999999998 L -0.10924475839029224 128.52499999999998 L -0.9461197583902923 128.52499999999998 L -1.7829947583902923 128.52499999999998 L -2.6198697583902923 128.52499999999998 L -3.4567447583902924 128.52499999999998 L -4.293619758390292 128.52499999999998 L -5.1304947583902925 128.52499999999998 L -5.9673697583902925 128.52499999999998 L -6.8042447583902925 128.52499999999998 L -5.51251875181517 126.05000000000001 L -4.005385078554914 123.575 L -2.3417366263357913 121.1 L -0.5865822681269751 118.625 L 1.191493430286715 116.15000000000002 L 2.923010226818371 113.67500000000001 L 4.540307219118358 111.20000000000002 L 5.980186767934462 108.72500000000002 L 7.181924933344953 107.95937500000001 L 8.359733080600892 107.19375000000001 L 9.512198969869653 106.42812500000002 L 10.638005404664304 105.6625 L 11.735935171843925 104.896875 L 12.804875606637328 104.13125 L 13.843822765569682 103.365625 L 14.851885191641859 102.59999999999998 L 15.292314797179873 100.19843749999998 L 15.405887530613391 97.79687499999997 L 15.188424072783604 95.39531249999997 L 14.647926777496508 92.99374999999998 L 13.8042851959955 90.59218749999998 L 12.688544169045992 88.19062499999998 L 11.341761419828787 85.78906249999997 L 9.81349668664016 83.38749999999997 L 8.15998799322099 80.98593749999998 L 6.4420821674387305 78.58437499999997 L 4.722995762366184 76.18281249999997 L 3.0659887747575496 73.78124999999999 L 1.5320367648572208 71.37968749999999 L 0.177587040305486 68.97812499999999 L -0.9475185265368138 66.5765625 L -1.8018776104017027 64.17499999999998 L -2.354050981293093 61.773437499999986 L -2.5837194245704227 59.37187499999999 L -2.4824314598814583 56.970312499999984 L -2.0539143439240357 54.56874999999998 L -1.3139369125661968 52.16718749999998 L -0.28972930954461784 49.765624999999986 L 0.981019045079214 47.36406249999998 L 2.4515463733331697 44.96249999999999 L 4.067739307943909 42.56093749999999 L 5.770124189241999 40.15937499999999 L 7.496055613396919 37.757812499999986 L 9.182021696440628 35.35624999999999 L 10.765981223559066 32.95468749999999 L 12.18964667979742 30.553124999999994 L 13.400629149813811 28.151562499999994 L 14.354366157343769 25.749999999999993 L 13.790553157785117 25.006249999999994 L 13.197783074052643 24.262499999999996 L 12.57531805284341 23.518749999999997 L 11.92252533734575 22.775 L 11.238879506695742 22.03125 L 10.523964335549735 21.2875 L 9.777474267191435 20.543750000000003 L 8.999215494959971 19.800000000000004 L 8.846763257003062 17.325000000000003 L 8.34861412136589 14.850000000000003 L 7.524233807404686 12.375000000000004 L 6.405835872639428 9.900000000000002 L 5.03712293295218 7.425000000000002 L 3.471578935332274 4.950000000000001 L 1.7703792144684432 2.4750000000000005 L 0 0 L 0.836875 0 L 1.67375 0 L 2.510625 0 L 3.3475 0 L 4.184375 0 L 5.02125 0 L 5.858125 0 L 6.695 0 L 7.531875 0 L 8.36875 0 L 9.205625000000001 0 L 10.0425 0 L 10.879375 0 L 11.71625 0 L 12.553125000000001 0 L 13.39 0 L 14.226875 0 L 15.06375 0 L 15.900625000000002 0 L 16.7375 0 L 17.574375000000003 0 L 18.411250000000003 0 L 19.248125 0 L 20.085 0 L 20.921875 0 L 21.75875 0 L 22.595625 0 L 23.4325 0 L 24.269375000000004 0 L 25.106250000000003 0 L 25.943125000000002 0 L 26.78 0 L 28.550379214468443 2.4750000000000005 L 30.251578935332276 4.950000000000001 L 31.81712293295218 7.425000000000002 L 33.18583587263943 9.900000000000002 L 34.304233807404685 12.375000000000004 L 35.12861412136589 14.850000000000003 L 35.62676325700306 17.325000000000003 L 35.77921549495997 19.800000000000004 L 34.95497426719144 20.543750000000003 L 34.09896433554974 21.2875 L 33.21137950669575 22.03125 L 32.29252533734575 22.775 L 31.342818052843413 23.518749999999997 L 30.362783074052647 24.262499999999996 L 29.35305315778512 25.006249999999994 L 28.31436615734377 25.749999999999993 L 27.360629149813814 28.151562499999994 L 26.14964667979742 30.553124999999994 L 24.725981223559067 32.95468749999999 L 23.14202169644063 35.35624999999999 L 21.45605561339692 37.757812499999986 L 19.730124189242 40.15937499999999 L 18.02773930794391 42.56093749999999 L 16.41154637333317 44.96249999999999 L 14.941019045079216 47.36406249999998 L 13.670270690455384 49.765624999999986 L 12.646063087433806 52.16718749999998 L 11.906085656075966 54.56874999999998 L 11.477568540118543 56.970312499999984 L 11.376280575429579 59.37187499999999 L 11.605949018706909 61.773437499999986 L 12.158122389598299 64.17499999999998 L 13.012481473463188 66.5765625 L 14.137587040305487 68.97812499999999 L 15.492036764857222 71.37968749999999 L 17.02598877475755 73.78124999999999 L 18.682995762366186 76.18281249999997 L 20.40208216743873 78.58437499999997 L 22.11998799322099 80.98593749999998 L 23.77349668664016 83.38749999999997 L 25.30176141982879 85.78906249999997 L 26.648544169045994 88.19062499999998 L 27.7642851959955 90.59218749999998 L 28.60792677749651 92.99374999999998 L 29.148424072783605 95.39531249999997 L 29.365887530613392 97.79687499999997 L 29.252314797179874 100.19843749999998 L 28.811885191641863 102.59999999999998 L 29.406322765569683 103.365625 L 29.96987560663733 104.13125 L 30.50343517184393 104.896875 L 31.008005404664306 105.6625 L 31.484698969869655 106.42812500000002 L 31.934733080600893 107.19375000000001 L 32.359424933344954 107.95937500000001 L 32.760186767934464 108.72500000000002 L 32.760186767934464 108.72500000000002 Z" fill="black" stroke="black" />
				</svg>