<svg
					xmlns="http://www.w3.org/2000/svg" xmlns:xlink="http://www.w3.org/1999/xlink"
					style="
						overflow: visible;
						height: 100;
					"
					viewBox="-7.0455877601705215 0 64.39820842487981 129.05"
				>
					<path d="M 45.22441223982948 129.05 L 44.27503723982949 129.05 L 43.325662239829484 129.05 L 42.37628723982948 129.05 L 41.42691223982948 129.05 L 40.47753723982947 129.05 L 39.52816223982948 129.05 L 38.57878723982948 129.05 L 37.62941223982948 129.05 L 36.680037239829474 129.05 L 35.73066223982948 129.05 L 34.78128723982948 129.05 L 33.83191223982948 129.05 L 32.882537239829475 129.05 L 31.93316223982948 129.05 L 30.983787239829482 129.05 L 30.03441223982948 129.05 L 30.60196790767737 127.54218750000001 L 31.26137832847273 126.03437500000001 L 32.00077154210424 124.52656250000001 L 32.807113218019495 123.01875000000001 L 33.66639607997521 121.51093750000001 L 34.563843470370145 120.003125 L 35.48412409580965 118.4953125 L 36.411574833057415 116.98750000000001 L 37.33042835738912 115.47968750000001 L 38.22504228528115 113.97187500000001 L 39.080126501359096 112.4640625 L 39.88096536591925 110.95625 L 40.61363157373505 109.44843750000001 L 41.265188556190616 107.94062499999998 L 41.8238784852806 106.4328125 L 42.279293147259835 104.925 L 41.75741814725983 104.925 L 41.23554314725983 104.925 L 40.71366814725984 104.925 L 40.19179314725983 104.925 L 39.669918147259835 104.925 L 39.14804314725983 104.925 L 38.62616814725983 104.925 L 38.10429314725983 104.925 L 37.58241814725983 104.925 L 37.060543147259835 104.925 L 36.53866814725983 104.925 L 36.01679314725983 104.925 L 35.494918147259824 104.925 L 34.97304314725983 104.925 L 34.451168147259835 104.925 L 33.92929314725983 104.925 L 33.40741814725983 104.925 L 32.88554314725983 104.925 L 32.36366814725983 104.925 L 31.841793147259832 104.925 L 31.31991814725983 104.925 L 30.79804314725983 104.925 L 30.276168147259828 104.925 L 29.75429314725983 104.925 L 29.232418147259832 104.925 L 28.71054314725983 104.925 L 28.18866814725983 104.925 L 27.666793147259828 104.925 L 27.144918147259826 104.925 L 26.62304314725983 104.925 L 26.10116814725983 104.925 L 25.57929314725983 104.925 L 24.8038784852806 106.4328125 L 23.92518855619062 107.94062499999998 L 22.953631573735052 109.44843750000001 L 21.900965365919255 110.95625 L 20.780126501359096 112.4640625 L 19.605042285281147 113.97187500000001 L 18.39042835738912 115.47968750000001 L 17.151574833057413 116.98750000000001 L 15.904124095809639 118.4953125 L 14.663843470370137 120.003125 L 13.446396079975205 121.51093750000001 L 12.267113218019496 123.01875000000001 L 11.14077154210424 124.52656250000001 L 10.081378328472733 126.03437500000001 L 9.10196790767737 127.54218750000001 L 8.214412239829478 129.05 L 7.260662239829477 129.05 L 6.306912239829478 129.05 L 5.353162239829478 129.05 L 4.399412239829479 129.05 L 3.4456622398294794 129.05 L 2.491912239829478 129.05 L 1.5381622398294788 129.05 L 0.5844122398294784 129.05 L -0.3693377601705219 129.05 L -1.3230877601705213 129.05 L -2.2768377601705216 129.05 L -3.2305877601705215 129.05 L -4.184337760170521 129.05 L -5.138087760170522 129.05 L -6.091837760170521 129.05 L -7.0455877601705215 129.05 L -5.792496798863041 127.03359375000002 L -4.382193876475894 125.01718750000002 L -2.8444902049880634 123.00078125000002 L -1.2125050006642226 120.98437500000001 L 0.4781944677910145 118.96796875 L 2.190516395602803 116.9515625 L 3.8868075433994123 114.93515625 L 5.529830916527978 112.91875000000002 L 7.083732636432909 110.90234375000001 L 8.514972898949054 108.88593750000001 L 9.793196846856974 106.86953125000002 L 10.892022744194978 104.853125 L 11.78972698711062 102.83671874999999 L 12.469808164709278 100.8203125 L 12.921415523865743 98.80390625000001 L 13.139630712762555 96.78750000000001 L 13.125595487587246 94.77109375 L 12.88648206644006 92.75468750000002 L 12.435306900223214 90.73828125000003 L 11.7905926960146 88.72187500000001 L 10.975887468605336 86.70546875 L 10.019153108193452 84.6890625 L 8.952039340283893 82.67265625 L 7.809061929676006 80.65625 L 6.626706466754489 78.63984375000001 L 5.442481006581319 76.62343750000001 L 4.2939421593405696 74.60703125 L 3.217719920032663 72.590625 L 2.248566558050763 70.57421875000001 L 1.418454262548667 68.55781250000001 L 0.7557449735485902 66.54140625 L 0.2844539544099014 64.525 L 0.023626227252947274 62.50859375000001 L -0.013157937593174296 60.49218750000001 L 0.18186436201765588 58.47578125 L 0.6104370936233448 56.45937500000001 L 1.2682400074364093 54.442968750000006 L 2.1450008131162006 52.4265625 L 3.2247619033220216 50.41015625 L 4.486294698478328 48.393750000000004 L 5.903650854147603 46.37734375000001 L 7.446836018721863 44.360937500000006 L 9.08258864708238 42.34453125 L 10.775243648063167 40.328125 L 12.48765844081453 38.311718750000004 L 14.182177374694604 36.2953125 L 15.821609471194634 34.278906250000006 L 17.370194100492373 32.2625 L 18.79452951850976 30.246093750000004 L 20.064440154690526 28.229687500000004 L 21.153760131072374 26.21328125 L 22.041012668311232 24.196875000000002 L 22.70996773764654 22.180468750000003 L 23.150063479182343 20.1640625 L 23.35668044421356 18.14765625 L 23.331261540801023 16.13125 L 23.081274568167252 14.114843750000002 L 22.620018312720113 12.098437500000001 L 21.96627724048801 10.08203125 L 21.143833751996205 8.065625 L 20.180850664054244 6.0492187500000005 L 19.10913995252744 4.0328125 L 17.963336743437836 2.01640625 L 16.78 0 L 17.358125 0 L 17.93625 0 L 18.514375 0 L 19.0925 0 L 19.670625 0 L 20.24875 0 L 20.826875 0 L 21.405 0 L 21.983125 0 L 22.56125 0 L 23.139375 0 L 23.7175 0 L 24.295625 0 L 24.87375 0 L 25.451875 0 L 26.03 0 L 26.608125 0 L 27.18625 0 L 27.764375 0 L 28.3425 0 L 28.920625 0 L 29.49875 0 L 30.076875 0 L 30.655 0 L 31.233125 0 L 31.81125 0 L 32.389375 0 L 32.9675 0 L 33.545625 0 L 34.12375 0 L 34.701875 0 L 35.28 0 L 36.990992993437835 2.01640625 L 38.66445245252744 4.0328125 L 40.26381941405425 6.0492187500000005 L 41.754458751996204 8.065625 L 43.10455849048801 10.08203125 L 44.28595581272011 12.098437500000001 L 45.27486831816726 14.114843750000002 L 46.05251154080103 16.13125 L 46.60558669421356 18.14765625 L 46.92662597918235 20.1640625 L 47.01418648764654 22.180468750000003 L 46.872887668311236 24.196875000000002 L 46.51329138107237 26.21328125 L 45.951627654690526 28.229687500000004 L 45.209373268509765 30.246093750000004 L 44.31269410049238 32.2625 L 43.29176572119463 34.278906250000006 L 42.179989874694606 36.2953125 L 41.01312719081454 38.311718750000004 L 39.82836864806317 40.328125 L 38.66336989708238 42.34453125 L 37.55527351872187 44.360937500000006 L 36.539744604147614 46.37734375000001 L 35.65004469847833 48.393750000000004 L 34.91616815332202 50.41015625 L 34.364063313116205 52.4265625 L 34.01495875743642 54.442968750000006 L 33.88481209362335 56.45937500000001 L 33.98389561201766 58.47578125 L 34.31652956240683 60.49218750000001 L 34.88096997725296 62.50859375000001 L 35.6694539544099 64.525 L 36.66840122354859 66.54140625 L 37.85876676254867 68.55781250000001 L 39.21653530805077 70.57421875000001 L 40.71334492003267 72.590625 L 42.31722340934057 74.60703125 L 43.99341850658133 76.62343750000001 L 45.7053002167545 78.63984375000001 L 47.415311929676015 80.65625 L 49.0859455902839 82.67265625 L 50.68071560819346 84.6890625 L 52.165106218605345 86.70546875 L 53.50746769601461 88.72187500000001 L 54.67983815022322 90.73828125000003 L 55.65866956644007 92.75468750000002 L 56.425439237587256 94.77109375 L 56.96713071276256 96.78750000000001 L 57.27657177386575 98.80390625000001 L 57.352620664709285 100.8203125 L 57.20019573711063 102.83671874999999 L 56.83014774419499 104.853125 L 56.25897809685698 106.86953125000002 L 55.50841039894907 108.88593750000001 L 54.60482638643292 110.90234375000001 L 53.57858091652799 112.91875000000002 L 52.46321379339942 114.93515625 L 51.29457889560281 116.9515625 L 50.109913217791025 118.96796875 L 48.94686999933579 120.98437500000001 L 47.84254104501194 123.00078125000002 L 46.83249362352411 125.01718750000002 L 45.949846951136955 127.03359375000002 L 45.22441223982948 129.05 L 45.22441223982948 129.05 Z M 30.217841863063605 76.49999999999999 L 29.152532359708953 75.18281249999998 L 28.11371544798164 73.86562499999998 L 27.111369194418078 72.54843749999999 L 26.15506707394173 71.23124999999999 L 25.253871765372907 69.91406249999999 L 24.416234613516178 68.596875 L 23.649901873154878 67.2796875 L 22.961828775046307 65.96249999999999 L 22.358102367236526 64.64531249999999 L 21.843873987664075 63.32812499999999 L 21.423302117175794 62.0109375 L 21.09950624692167 60.69375 L 20.87453227190626 59.3765625 L 20.749329794607522 58.059375 L 20.723741590448018 56.74218750000001 L 20.796505351984592 55.425000000000004 Q 20.89608565607596 54.56875000000001 21.07170476371201 53.528125 Q 21.303984317025026 52.48750000000001 21.64783626801043 51.26250000000002 Q 21.84659186821665 50.65000000000001 22.0795423214975 49.99140625000002 Q 22.331384939459088 49.33281250000002 22.620973328923412 48.62812500000001 Q 22.930025539637338 47.923437500000006 23.27953573322613 47.17265625 Q 23.64822642751358 46.421875 24.05892016209871 45.625 Q 24.489444176439044 44.825 24.940251384843908 44.018359374999996 Q 25.404951016340966 43.21171875 25.88590233499847 42.3984375 Q 26.376286383215465 41.58515625 26.87843114205124 40.765234375 Q 27.38519546847379 39.9453125 27.898831229823237 39.118750000000006 Q 28.41199129828891 38.292187500000004 28.926808898775597 37.458984375 Q 29.435855734627335 36.62578125 29.941107141203382 35.78593750000001 Q 30.435185207716074 34.94609375000002 30.91987234675912 34.099609375000014 Q 31.387977172847602 33.25312500000002 31.841059214944 32.40000000000002 Q 32.27533580788675 31.543750000000017 32.66752723799978 30.726953125000016 Q 33.03546134551138 29.91015625000001 33.362086277249 29.13281250000001 Q 33.663486904029746 28.355468750000014 33.92570117172704 27.61757812500001 Q 34.16274125550876 26.87968750000001 34.36375655194826 26.18125000000001 Q 34.54044594846316 25.48281250000001 34.68502295532923 24.82382812500001 Q 34.80671620163338 24.164843750000014 34.90070164865861 23.545312500000012 Q 35.02526927107924 22.306250000000016 35.06728464346276 21.225000000000023 L 35.06728464346276 21.225000000000023 Q 34.86276927107924 22.306250000000016 34.543379895509126 23.521875000000012 Q 34.353156468608475 24.12968750000001 34.128387058545684 24.77109375000001 Q 33.881898054686765 25.41250000000001 33.59729316889368 26.087500000000006 Q 33.28986944200703 26.762500000000003 32.94119634694754 27.471093750000005 Q 32.56910749697573 28.179687500000004 32.15326342800162 28.921875000000004 Q 31.714059005352617 29.664062500000004 31.22943033568969 30.439843750000005 Q 30.722307209686157 31.215625000000003 30.169148451488276 32.025000000000006 Q 29.594081149535356 32.83437500000001 29.002369489293073 33.64101562500001 Q 28.394351107575055 34.44765625000001 27.774259330860822 35.25156250000001 Q 27.142410058206323 36.05546875000001 26.503185099048213 36.85664062500001 Q 25.856868945257638 37.657812500000006 25.207920268354492 38.45625000000001 Q 24.556583879600048 39.25468750000001 23.90732394377743 40.050390625000006 Q 23.26033883750631 40.84609375 22.620028271177922 41.6390625 Q 21.98653903452426 42.43203125000001 21.364138962516293 43.222265625000006 Q 20.75291974912966 44.01250000000001 20.156953485360642 44.800000000000004 Q 19.576274905803082 45.5875 19.034437729058 46.344140625 Q 18.51027731465382 47.10078125000001 18.0254529575049 47.82656250000001 Q 17.55980833289442 48.552343750000006 17.13297642099377 49.247265625 Q 16.72605820897098 49.9421875 16.356583222950597 50.60625 Q 16.007108927333466 51.2703125 15.69303156916822 51.903515625 Q 15.398515639784767 52.536718750000006 15.13683423830364 53.13906250000001 Q 14.670029545968784 54.34375 14.316505351984592 55.425000000000004 L 14.316505351984592 55.425000000000004 L 13.964991590448019 56.74218750000001 L 13.711829794607521 58.059375 L 13.558282271906256 59.3765625 L 13.504506246921666 60.69375 L 13.549552117175795 62.0109375 L 13.691373987664075 63.32812499999999 L 13.92685236723653 64.64531249999999 L 14.251828775046308 65.96249999999999 L 14.661151873154875 67.2796875 L 15.148734613516176 68.596875 L 15.707621765372908 69.91406249999999 L 16.33006707394173 71.23124999999999 L 17.00761919441808 72.54843749999999 L 17.73121544798164 73.86562499999998 L 18.49128235970895 75.18281249999998 L 19.277841863063603 76.49999999999999 L 19.961591863063603 76.49999999999999 L 20.645341863063607 76.49999999999999 L 21.329091863063606 76.49999999999999 L 22.012841863063606 76.49999999999999 L 22.696591863063606 76.49999999999999 L 23.380341863063606 76.49999999999999 L 24.064091863063606 76.49999999999999 L 24.747841863063606 76.49999999999999 L 25.431591863063606 76.49999999999999 L 26.115341863063605 76.49999999999999 L 26.799091863063605 76.49999999999999 L 27.482841863063605 76.49999999999999 L 28.166591863063605 76.49999999999999 L 28.850341863063605 76.49999999999999 L 29.534091863063605 76.49999999999999 L 30.217841863063605 76.49999999999999 L 30.217841863063605 76.49999999999999 Z" fill="black" stroke="black" />
				</svg>