<svg
					xmlns="http://www.w3.org/2000/svg" xmlns:xlink="http://www.w3.org/1999/xlink"
					style="
						overflow: visible;
						height: 100;
					"
					viewBox="-8.987191326077994 0 51.53851440258099 128.52499999999998"
				>
					<path d="M 26.89575524160971 128.52499999999998 L 26.369192741609712 128.52499999999998 L 25.842630241609708 128.52499999999998 L 25.31606774160971 128.52499999999998 L 24.78950524160971 128.52499999999998 L 24.26294274160971 128.52499999999998 L 23.736380241609712 128.52499999999998 L 23.20981774160971 128.52499999999998 L 22.68325524160971 128.52499999999998 L 22.15669274160971 128.52499999999998 L 21.63013024160971 128.52499999999998 L 21.10356774160971 128.52499999999998 L 20.577005241609708 128.52499999999998 L 20.050442741609707 128.52499999999998 L 19.523880241609707 128.52499999999998 L 18.99731774160971 128.52499999999998 L 18.47075524160971 128.52499999999998 L 17.944192741609708 128.52499999999998 L 17.41763024160971 128.52499999999998 L 16.89106774160971 128.52499999999998 L 16.36450524160971 128.52499999999998 L 15.837942741609709 128.52499999999998 L 15.311380241609708 128.52499999999998 L 14.784817741609707 128.52499999999998 L 14.258255241609707 128.52499999999998 L 13.731692741609706 128.52499999999998 L 13.205130241609705 128.52499999999998 L 12.678567741609708 128.52499999999998 L 12.152005241609707 128.52499999999998 L 11.625442741609707 128.52499999999998 L 11.09888024160971 128.52499999999998 L 10.572317741609709 128.52499999999998 L 10.045755241609708 128.52499999999998 L 9.519192741609707 128.52499999999998 L 8.99263024160971 128.52499999999998 L 8.46606774160971 128.52499999999998 L 7.93950524160971 128.52499999999998 L 7.412942741609709 128.52499999999998 L 6.886380241609708 128.52499999999998 L 6.3598177416097075 128.52499999999998 L 5.8332552416097085 128.52499999999998 L 5.30669274160971 128.52499999999998 L 4.780130241609709 128.52499999999998 L 4.253567741609708 128.52499999999998 L 3.7270052416097075 128.52499999999998 L 3.2004427416097068 128.52499999999998 L 2.673880241609708 128.52499999999998 L 2.147317741609709 128.52499999999998 L 1.6207552416097082 128.52499999999998 L 1.0941927416097084 128.52499999999998 L 0.5676302416097085 128.52499999999998 L 0.04106774160970783 128.52499999999998 L -0.485494758390292 128.52499999999998 L -1.0120572583902918 128.52499999999998 L -1.5386197583902925 128.52499999999998 L -2.0651822583902923 128.52499999999998 L -2.591744758390292 128.52499999999998 L -3.118307258390292 128.52499999999998 L -3.6448697583902923 128.52499999999998 L -4.1714322583902925 128.52499999999998 L -4.697994758390292 128.52499999999998 L -5.224557258390292 128.52499999999998 L -5.751119758390292 128.52499999999998 L -6.277682258390293 128.52499999999998 L -6.8042447583902925 128.52499999999998 L -5.7742853781557 126.516796875 L -4.5956094885185985 124.50859375 L -3.2985738440458325 122.50039062500001 L -1.9165835504750606 120.4921875 L -0.48523171743427673 118.48398437499998 L 0.958617240799023 116.47578124999998 L 2.377777046943662 114.46757812499999 L 3.735697291930357 112.459375 L 4.997404789354912 110.451171875 L 6.130404308618939 108.44296874999999 L 7.105515488409313 106.43476562499998 L 7.897624375839944 104.42656249999999 L 8.486330235392815 102.418359375 L 8.856470969117451 100.41015625 L 8.998513615910925 98.401953125 L 8.908799872583483 96.39375 L 8.58964031332385 94.38554687499999 L 8.049254880945227 92.37734375 L 7.301561182557812 90.369140625 L 6.365816042105069 88.3609375 L 5.26611954156509 86.35273437500001 L 4.030794324217873 84.34453124999999 L 2.691656146000231 82.33632812499998 L 1.2831944618714886 80.32812499999999 L -0.1583158488416105 78.31992187499999 L -1.5957487406394806 76.31171874999998 L -2.9920831817980567 74.30351562499999 L -4.311356629691147 72.2953125 L -5.519591244764737 70.287109375 L -6.585668988555971 68.27890624999999 L -7.482133067639261 66.27070312499998 L -8.185895082340005 64.26249999999999 L -8.678829667626502 62.254296875 L -8.948241311225503 60.24609375 L -8.987191326077994 58.23789062499999 L -8.794676555971446 56.2296875 L -8.375655211791479 54.221484374999996 L -7.740919172981279 52.213281249999994 L -6.906816043079972 50.205078125 L -5.894828117789437 48.196875 L -4.731019109231718 46.188671875 L -3.445362875993486 44.18046875 L -2.070971447490883 42.172265624999994 L -0.6432422248591155 40.16406249999999 L 0.8010536778233512 38.15585937499999 L 2.2247184722373228 36.14765625 L 3.5910857235049 34.139453124999996 L 4.864964692883048 32.131249999999994 L 6.013546673956966 30.123046875 L 7.0072499796776935 28.11484375 L 7.820481817633628 26.106640624999997 L 8.432297431486028 24.0984375 L 8.826939532404953 22.090234375 L 8.994244127468624 20.082031249999996 L 8.929902292930558 18.073828125 L 8.635571150393591 16.065624999999997 L 8.118831187703394 14.057421875 L 7.3929910237603735 12.04921875 L 6.476744645525085 10.041015624999998 L 5.393689945065583 8.032812499999999 L 4.171720956707508 6.024609375 L 2.842309447196964 4.016406249999999 L 1.4396943614953244 2.0082031249999996 L 0 0 L 0.8687500000000001 0 L 1.7375000000000003 0 L 2.60625 0 L 3.4750000000000005 0 L 4.34375 0 L 5.2125 0 L 6.081250000000001 0 L 6.950000000000001 0 L 7.8187500000000005 0 L 8.6875 0 L 9.55625 0 L 10.425 0 L 11.293750000000001 0 L 12.162500000000001 0 L 13.031250000000002 0 L 13.900000000000002 0 L 15.027095423377128 1.5695312500000003 L 16.13644446044847 3.1390625000000005 L 17.210580145993966 4.70859375 L 18.23258995741335 6.278125000000001 L 19.186382106428923 7.847656250000002 L 20.056938908130622 9.4171875 L 20.830553238007337 10.986718750000001 L 21.49504435389214 12.556250000000002 L 22.039949684653372 14.125781250000003 L 22.456689565872914 15.695312500000004 L 22.738702328709103 17.264843750000004 L 22.881547614937926 18.834375 L 22.882976291452454 20.403906250000006 L 22.742965863400165 21.973437500000003 L 22.463720828369738 23.54296875 L 22.049637966050668 25.112500000000004 L 21.507237109888205 26.68203125000001 L 20.845058490750468 28.251562500000006 L 20.073528268956203 29.821093750000003 L 19.20479437189342 31.390625000000007 L 18.25253522200484 32.96015625000001 L 17.231744366763586 34.52968750000001 L 16.15849440169155 36.099218750000006 L 15.049683903508859 37.66875 L 13.922771358012305 39.23828125000001 L 12.795500272051815 40.80781250000001 L 11.685619797782463 42.37734375000001 L 10.610605268029754 43.946875000000006 L 9.587383043005648 45.51640625000001 L 8.632064000729265 47.0859375 L 7.7596898674092945 48.655468750000004 L 6.983996381876696 50.22500000000001 L 6.3171970231001735 51.79453125000001 L 5.769790706046342 53.36406250000002 L 5.350396473759096 54.93359375000001 L 5.065617788470842 56.50312500000001 L 4.9199385585144135 58.07265625000001 L 4.915652538116747 59.642187500000006 L 5.052827211691424 61.21171875000001 L 5.329302731280464 62.781250000000014 L 5.740725923875662 64.35078125000001 L 6.2806188331660255 65.92031250000002 L 6.940480716505195 67.48984375 L 7.709921891132225 69.05937500000002 L 8.576827322205085 70.62890625000001 L 9.527547376914244 72.19843750000001 L 10.547112741207327 73.76796875000001 L 11.61947011520975 75.3375 L 12.727734976260708 76.90703125000002 L 13.854457429750203 78.47656250000001 L 14.981896961872303 80.04609375000001 L 16.09230176824696 81.61562500000002 L 17.16818826031455 83.18515625000002 L 18.1926163486085 84.75468750000002 L 19.14945616850484 86.32421875000003 L 20.023642048788467 87.89375000000001 L 20.8014097242403 89.46328125000001 L 21.470513057276584 91.03281250000002 L 22.02041685630635 92.60234375000002 L 22.442462754836242 94.171875 L 22.730005539516316 95.74140625000001 L 22.87851778060945 97.31093750000001 L 22.885661117452546 98.88046875 L 22.751323076502995 100.45000000000002 L 23.370073076502994 100.45000000000002 L 23.988823076502996 100.45000000000002 L 24.607573076502995 100.45000000000002 L 25.226323076502993 100.45000000000002 L 25.84507307650299 100.45000000000002 L 26.463823076502994 100.45000000000002 L 27.082573076502996 100.45000000000002 L 27.701323076502995 100.45000000000002 L 28.320073076502993 100.45000000000002 L 28.938823076502995 100.45000000000002 L 29.557573076502997 100.45000000000002 L 30.176323076502996 100.45000000000002 L 30.795073076502995 100.45000000000002 L 31.413823076502997 100.45000000000002 L 32.032573076503 100.45000000000002 L 32.651323076503 100.45000000000002 L 33.270073076502996 100.45000000000002 L 33.888823076503 100.45000000000002 L 34.507573076503 100.45000000000002 L 35.126323076503 100.45000000000002 L 35.745073076503 100.45000000000002 L 36.363823076502996 100.45000000000002 L 36.982573076502995 100.45000000000002 L 37.60132307650299 100.45000000000002 L 38.220073076503 100.45000000000002 L 38.838823076503 100.45000000000002 L 39.457573076502996 100.45000000000002 L 40.076323076502995 100.45000000000002 L 40.69507307650299 100.45000000000002 L 41.313823076503 100.45000000000002 L 41.932573076503 100.45000000000002 L 42.551323076502996 100.45000000000002 L 42.23631844460164 102.20468750000002 L 41.75338049171462 103.95937500000002 L 41.11200996160925 105.71406250000003 L 40.3248244111166 107.46875000000001 L 39.40730998740704 109.22343749999999 L 38.37751677204975 110.978125 L 37.25570368529308 112.7328125 L 36.06393993629396 114.48750000000001 L 34.825670859888326 116.2421875 L 33.565256681110455 117.99687500000002 L 32.3074932812566 119.7515625 L 31.07712439336843 121.50625 L 29.89835482361869 123.26093749999998 L 28.794374274899727 125.01562499999999 L 27.786901140340063 126.77031249999999 L 26.89575524160971 128.52499999999998 L 26.89575524160971 128.52499999999998 Z" fill="black" stroke="black" />
				</svg>