<svg
					xmlns="http://www.w3.org/2000/svg" xmlns:xlink="http://www.w3.org/1999/xlink"
					style="
						overflow: visible;
						height: 100;
					"
					viewBox="-8.987191326077994 0 48.3712635718764 128.52499999999998"
				>
					<path d="M 14.92532376087295 80.27499999999996 L 15.98885132690691 81.78281249999996 L 17.01882491914125 83.29062499999995 L 18.000276182305385 84.79843749999998 L 18.91894192431496 86.30624999999996 L 19.761471399767398 87.81406249999996 L 20.515620333071926 89.32187499999998 L 21.17042886152357 90.82968749999998 L 21.716380812317517 92.33749999999998 L 22.14554199876999 93.84531249999996 L 22.45167552592018 95.35312499999996 L 22.630332429805154 96.86093749999998 L 22.678916333169163 98.36874999999998 L 22.59672117798172 99.87656249999998 L 22.38494148640693 101.38437499999998 L 22.04665500110393 102.89218749999998 L 21.586777957142637 104.39999999999998 L 21.011993635557378 105.90781249999998 L 20.330655236851833 107.41562499999998 L 19.552664485971402 108.92343749999998 L 18.689327732947024 110.43124999999998 L 17.753191640464873 111.93906249999998 L 16.757860846274454 113.44687499999999 L 15.717800250302844 114.95468749999999 L 14.648124799788354 116.46249999999998 L 13.564379827434871 117.97031249999998 L 12.482315134879308 119.47812499999998 L 11.417656104661571 120.98593749999999 L 10.385875167071692 122.49374999999999 L 9.401966943089924 124.00156249999998 L 8.480230331213551 125.509375 L 7.634060705048757 127.01718749999999 L 6.875755241609707 128.52499999999998 L 6.020755241609707 128.52499999999998 L 5.165755241609706 128.52499999999998 L 4.310755241609706 128.52499999999998 L 3.4557552416097073 128.52499999999998 L 2.6007552416097086 128.52499999999998 L 1.7457552416097082 128.52499999999998 L 0.8907552416097078 128.52499999999998 L 0.03575524160970733 128.52499999999998 L -0.8192447583902931 128.52499999999998 L -1.6742447583902926 128.52499999999998 L -2.529244758390292 128.52499999999998 L -3.3842447583902926 128.52499999999998 L -4.239244758390292 128.52499999999998 L -5.094244758390293 128.52499999999998 L -5.949244758390293 128.52499999999998 L -6.8042447583902925 128.52499999999998 L -5.7742853781557 126.516796875 L -4.5956094885185985 124.50859375 L -3.2985738440458325 122.50039062500001 L -1.9165835504750606 120.4921875 L -0.48523171743427673 118.48398437499998 L 0.958617240799023 116.47578124999998 L 2.377777046943662 114.46757812499999 L 3.735697291930357 112.459375 L 4.997404789354912 110.451171875 L 6.130404308618939 108.44296874999999 L 7.105515488409313 106.43476562499998 L 7.897624375839944 104.42656249999999 L 8.486330235392815 102.418359375 L 8.856470969117451 100.41015625 L 8.998513615910925 98.401953125 L 8.908799872583483 96.39375 L 8.58964031332385 94.38554687499999 L 8.049254880945227 92.37734375 L 7.301561182557812 90.369140625 L 6.365816042105069 88.3609375 L 5.26611954156509 86.35273437500001 L 4.030794324217873 84.34453124999999 L 2.691656146000231 82.33632812499998 L 1.2831944618714886 80.32812499999999 L -0.1583158488416105 78.31992187499999 L -1.5957487406394806 76.31171874999998 L -2.9920831817980567 74.30351562499999 L -4.311356629691147 72.2953125 L -5.519591244764737 70.287109375 L -6.585668988555971 68.27890624999999 L -7.482133067639261 66.27070312499998 L -8.185895082340005 64.26249999999999 L -8.678829667626502 62.254296875 L -8.948241311225503 60.24609375 L -8.987191326077994 58.23789062499999 L -8.794676555971446 56.2296875 L -8.375655211791479 54.221484374999996 L -7.740919172981279 52.213281249999994 L -6.906816043079972 50.205078125 L -5.894828117789437 48.196875 L -4.731019109231718 46.188671875 L -3.445362875993486 44.18046875 L -2.070971447490883 42.172265624999994 L -0.6432422248591155 40.16406249999999 L 0.8010536778233512 38.15585937499999 L 2.2247184722373228 36.14765625 L 3.5910857235049 34.139453124999996 L 4.864964692883048 32.131249999999994 L 6.013546673956966 30.123046875 L 7.0072499796776935 28.11484375 L 7.820481817633628 26.106640624999997 L 8.432297431486028 24.0984375 L 8.826939532404953 22.090234375 L 8.994244127468624 20.082031249999996 L 8.929902292930558 18.073828125 L 8.635571150393591 16.065624999999997 L 8.118831187703394 14.057421875 L 7.3929910237603735 12.04921875 L 6.476744645525085 10.041015624999998 L 5.393689945065583 8.032812499999999 L 4.171720956707508 6.024609375 L 2.842309447196964 4.016406249999999 L 1.4396943614953244 2.0082031249999996 L 0 0 L 0.9496875 0 L 1.899375 0 L 2.8490625 0 L 3.79875 0 L 4.7484375 0 L 5.698125 0 L 6.647812500000001 0 L 7.5975 0 L 8.5471875 0 L 9.496875 0 L 10.446562499999999 0 L 11.39625 0 L 12.345937500000002 0 L 13.295625000000001 0 L 14.2453125 0 L 15.195 0 L 16.1446875 0 L 17.094375 0 L 18.0440625 0 L 18.99375 0 L 19.943437499999998 0 L 20.893124999999998 0 L 21.8428125 0 L 22.7925 0 L 23.7421875 0 L 24.691875000000003 0 L 25.641562500000003 0 L 26.591250000000002 0 L 27.540937500000002 0 L 28.490625 0 L 29.4403125 0 L 30.39 0 L 31.641431903014837 1.7437499999999995 L 32.8685500959735 3.487499999999999 L 34.04751325289062 5.231249999999998 L 35.155415638108394 6.974999999999998 L 36.17073213523828 8.718749999999996 L 37.07373645244851 10.462499999999997 L 37.846884378907276 12.206249999999997 L 38.47515464620264 13.949999999999996 L 38.94634077224066 15.693749999999994 L 39.25128821747077 17.437499999999993 L 39.38407224579841 19.181249999999995 L 39.34211303457634 20.924999999999994 L 39.126225797235996 22.668749999999992 L 38.74060494474042 24.412499999999994 L 38.19274259358161 26.156249999999993 L 37.493283003606784 27.89999999999999 L 36.97109550360678 27.89999999999999 L 36.44890800360678 27.89999999999999 L 35.92672050360678 27.89999999999999 L 35.40453300360679 27.89999999999999 L 34.882345503606786 27.89999999999999 L 34.360158003606784 27.89999999999999 L 33.83797050360678 27.89999999999999 L 33.31578300360678 27.89999999999999 L 32.79359550360678 27.89999999999999 L 32.27140800360679 27.89999999999999 L 31.749220503606786 27.89999999999999 L 31.227033003606785 27.89999999999999 L 30.704845503606784 27.89999999999999 L 30.182658003606782 27.89999999999999 L 29.66047050360678 27.89999999999999 L 29.138283003606787 27.89999999999999 L 28.616095503606786 27.89999999999999 L 28.093908003606785 27.89999999999999 L 27.571720503606784 27.89999999999999 L 27.049533003606783 27.89999999999999 L 26.52734550360678 27.89999999999999 L 26.005158003606788 27.89999999999999 L 25.482970503606786 27.89999999999999 L 24.960783003606785 27.89999999999999 L 24.438595503606784 27.89999999999999 L 23.916408003606783 27.89999999999999 L 23.394220503606782 27.89999999999999 L 22.872033003606788 27.89999999999999 L 22.349845503606787 27.89999999999999 L 21.827658003606786 27.89999999999999 L 21.305470503606784 27.89999999999999 L 20.783283003606783 27.89999999999999 L 20.055529654884445 29.429687499999993 L 19.23241775902906 30.959374999999994 L 18.326258568401684 32.48906249999999 L 17.350605470495896 34.01875 L 16.320051270452353 35.5484375 L 15.250009927044301 37.078125 L 14.156486006700431 38.607812499999994 L 13.055835303832165 40.1375 L 11.964520207857783 41.667187500000004 L 10.8988634758892 43.196875000000006 L 9.874804093893687 44.7265625 L 8.907658877905526 46.25625 L 8.011893381009031 47.7859375 L 7.200905532628085 49.315625 L 6.486825246220911 50.845312500000006 L 5.880332992640001 52.37500000000001 L 6.843457992640001 52.37500000000001 L 7.806582992640001 52.37500000000001 L 8.769707992640003 52.37500000000001 L 9.73283299264 52.37500000000001 L 10.695957992640002 52.37500000000001 L 11.659082992640004 52.37500000000001 L 12.622207992640002 52.37500000000001 L 13.585332992640003 52.37500000000001 L 14.548457992640005 52.37500000000001 L 15.511582992640003 52.37500000000001 L 16.474707992640006 52.37500000000001 L 17.437832992640004 52.37500000000001 L 18.400957992640002 52.37500000000001 L 19.364082992640007 52.37500000000001 L 20.327207992640005 52.37500000000001 L 21.290332992640003 52.37500000000001 L 20.741697382740956 54.118750000000006 L 20.355258540247526 55.8625 L 20.138524474143814 57.60624999999999 L 20.09570604818505 59.349999999999994 L 20.227635169238336 61.09375 L 20.531748624403683 62.83749999999999 L 21.002137880939323 64.58124999999998 L 21.62966388144276 66.32499999999999 L 22.402134603965223 68.06874999999998 L 23.30454193729504 69.81249999999997 L 24.319353269228287 71.55624999999998 L 25.42685212264234 73.29999999999997 L 26.60552122125184 75.04374999999997 L 27.832460542573166 76.78749999999997 L 29.083832235866478 78.53124999999997 L 30.335323760872953 80.27499999999996 L 29.372198760872955 80.27499999999996 L 28.409073760872953 80.27499999999996 L 27.44594876087295 80.27499999999996 L 26.482823760872954 80.27499999999996 L 25.519698760872952 80.27499999999996 L 24.55657376087295 80.27499999999996 L 23.593448760872953 80.27499999999996 L 22.63032376087295 80.27499999999996 L 21.66719876087295 80.27499999999996 L 20.70407376087295 80.27499999999996 L 19.74094876087295 80.27499999999996 L 18.77782376087295 80.27499999999996 L 17.81469876087295 80.27499999999996 L 16.85157376087295 80.27499999999996 L 15.888448760872947 80.27499999999996 L 14.92532376087295 80.27499999999996 L 14.92532376087295 80.27499999999996 Z" fill="black" stroke="black" />
				</svg>