<svg
					xmlns="http://www.w3.org/2000/svg" xmlns:xlink="http://www.w3.org/1999/xlink"
					style="
						overflow: visible;
						height: 100;
					"
					viewBox="-8.987191326077994 0 62.05570494198892 128.52499999999998"
				>
					<path d="M 44.07 0 L 45.50969436149533 2.0082031249999996 L 46.91230944719696 4.016406249999999 L 48.24172095670751 6.024609375 L 49.46368994506558 8.032812499999999 L 50.54674464552509 10.041015624999998 L 51.462991023760374 12.04921875 L 52.18883118770339 14.057421875 L 52.705571150393595 16.065624999999997 L 52.99990229293056 18.073828125 L 53.064244127468626 20.082031249999996 L 52.89693953240496 22.090234375 L 52.50229743148603 24.0984375 L 51.89048181763363 26.106640624999997 L 51.077249979677696 28.11484375 L 50.08354667395697 30.123046875 L 48.93496469288305 32.131249999999994 L 47.6610857235049 34.139453124999996 L 46.29471847223732 36.14765625 L 44.871053677823355 38.15585937499999 L 43.426757775140885 40.16406249999999 L 41.99902855250912 42.172265624999994 L 40.62463712400651 44.18046875 L 39.33898089076828 46.188671875 L 38.17517188221056 48.196875 L 37.16318395692003 50.205078125 L 36.32908082701872 52.213281249999994 L 35.694344788208525 54.221484374999996 L 35.27532344402856 56.2296875 L 35.082808673922 58.23789062499999 L 35.1217586887745 60.24609375 L 35.3911703323735 62.254296875 L 35.88410491766 64.26249999999999 L 36.58786693236074 66.27070312499998 L 37.48433101144403 68.27890624999999 L 38.55040875523527 70.287109375 L 39.75864337030885 72.2953125 L 41.07791681820194 74.30351562499999 L 42.47425125936052 76.31171874999998 L 43.91168415115839 78.31992187499999 L 45.35319446187149 80.32812499999999 L 46.761656146000234 82.33632812499998 L 48.10079432421787 84.34453124999999 L 49.33611954156509 86.35273437500001 L 50.43581604210507 88.3609375 L 51.37156118255781 90.369140625 L 52.11925488094523 92.37734375 L 52.65964031332385 94.38554687499999 L 52.97879987258348 96.39375 L 53.06851361591092 98.401953125 L 52.92647096911745 100.41015625 L 52.556330235392814 102.418359375 L 51.96762437583995 104.42656249999999 L 51.17551548840931 106.43476562499998 L 50.20040430861894 108.44296874999999 L 49.06740478935491 110.451171875 L 47.80569729193036 112.459375 L 46.44777704694366 114.46757812499999 L 45.02861724079902 116.47578124999998 L 43.584768282565726 118.48398437499998 L 42.15341644952494 120.4921875 L 40.77142615595417 122.50039062500001 L 39.4743905114814 124.50859375 L 38.2957146218443 126.516796875 L 37.26575524160971 128.52499999999998 L 36.392630241609716 128.52499999999998 L 35.519505241609714 128.52499999999998 L 34.64638024160971 128.52499999999998 L 33.77325524160971 128.52499999999998 L 32.90013024160971 128.52499999999998 L 32.02700524160971 128.52499999999998 L 31.153880241609702 128.52499999999998 L 30.280755241609707 128.52499999999998 L 29.407630241609713 128.52499999999998 L 28.53450524160971 128.52499999999998 L 27.66138024160971 128.52499999999998 L 26.788255241609708 128.52499999999998 L 25.915130241609706 128.52499999999998 L 25.042005241609708 128.52499999999998 L 24.16888024160971 128.52499999999998 L 23.295755241609708 128.52499999999998 L 24.123132650467507 126.88828124999999 L 25.052834913177364 125.25156249999998 L 26.068945389366586 123.61484375 L 27.15406811725571 121.97812499999999 L 28.289625635099412 120.34140624999999 L 29.456177030081825 118.7046875 L 30.633750769622164 117.06796875 L 31.80218661696898 115.43125 L 32.941480777438 113.79453124999999 L 34.032128366338455 112.15781249999999 L 35.05545733548658 110.52109375 L 35.99394814143483 108.884375 L 36.83153368264918 107.24765625 L 37.553874370666094 105.6109375 L 38.148603625969905 103.97421875 L 38.60553959566483 102.3375 L 38.916859468303926 100.70078125 L 39.07723340157914 99.0640625 L 39.083915770010734 97.42734375 L 38.93679217046187 95.790625 L 38.63838138073733 94.15390625 L 38.19379223773454 92.51718750000002 L 37.610636173399634 90.88046875000002 L 36.89889690588567 89.24375 L 36.07075951681989 87.60703125 L 35.1404018409023 85.9703125 L 34.12375173927674 84.33359375000002 L 33.03821441219004 82.69687500000002 L 31.902374419387176 81.06015625 L 30.73567750969709 79.42343750000002 L 29.55809770693396 77.78671875000002 L 28.389795351652463 76.15000000000002 L 27.885732851652463 76.15000000000002 L 27.381670351652463 76.15000000000002 L 26.877607851652463 76.15000000000002 L 26.373545351652464 76.15000000000002 L 25.869482851652464 76.15000000000002 L 25.365420351652464 76.15000000000002 L 24.861357851652464 76.15000000000002 L 24.357295351652464 76.15000000000002 L 23.853232851652464 76.15000000000002 L 23.349170351652464 76.15000000000002 L 22.845107851652465 76.15000000000002 L 22.341045351652465 76.15000000000002 L 21.836982851652465 76.15000000000002 L 21.332920351652465 76.15000000000002 L 20.828857851652465 76.15000000000002 L 20.324795351652465 76.15000000000002 L 19.820732851652465 76.15000000000002 L 19.316670351652466 76.15000000000002 L 18.812607851652466 76.15000000000002 L 18.308545351652466 76.15000000000002 L 17.804482851652466 76.15000000000002 L 17.300420351652466 76.15000000000002 L 16.796357851652466 76.15000000000002 L 16.292295351652466 76.15000000000002 L 15.788232851652465 76.15000000000002 L 15.284170351652465 76.15000000000002 L 14.780107851652465 76.15000000000002 L 14.276045351652463 76.15000000000002 L 13.771982851652462 76.15000000000002 L 13.267920351652462 76.15000000000002 L 12.763857851652462 76.15000000000002 L 12.259795351652462 76.15000000000002 L 13.42809770693396 77.78671875000002 L 14.605677509697092 79.42343750000002 L 15.772374419387177 81.06015625 L 16.908214412190038 82.69687500000002 L 17.993751739276743 84.33359375000002 L 19.010401840902297 85.9703125 L 19.940759516819895 87.60703125 L 20.768896905885672 89.24375 L 21.48063617339963 90.88046875000002 L 22.06379223773454 92.51718750000002 L 22.508381380737326 94.15390625 L 22.806792170461875 95.790625 L 22.953915770010738 97.42734375 L 22.947233401579147 99.0640625 L 22.786859468303923 100.70078125 L 22.475539595664827 102.3375 L 22.01860362596991 103.97421875 L 21.423874370666095 105.6109375 L 20.70153368264918 107.24765625 L 19.863948141434825 108.884375 L 18.925457335486584 110.52109375 L 17.902128366338452 112.15781249999999 L 16.811480777438003 113.79453124999999 L 15.672186616968983 115.43125 L 14.503750769622165 117.06796875 L 13.326177030081825 118.7046875 L 12.159625635099411 120.34140624999999 L 11.024068117255712 121.97812499999999 L 9.938945389366587 123.61484375 L 8.922834913177363 125.25156249999998 L 7.993132650467508 126.88828124999999 L 7.16575524160971 128.52499999999998 L 6.29263024160971 128.52499999999998 L 5.41950524160971 128.52499999999998 L 4.54638024160971 128.52499999999998 L 3.67325524160971 128.52499999999998 L 2.8001302416097102 128.52499999999998 L 1.9270052416097103 128.52499999999998 L 1.0538802416097095 128.52499999999998 L 0.18075524160970868 128.52499999999998 L -0.6923697583902912 128.52499999999998 L -1.5654947583902912 128.52499999999998 L -2.438619758390291 128.52499999999998 L -3.311744758390292 128.52499999999998 L -4.184869758390292 128.52499999999998 L -5.057994758390292 128.52499999999998 L -5.931119758390293 128.52499999999998 L -6.8042447583902925 128.52499999999998 L -5.7742853781557 126.516796875 L -4.5956094885185985 124.50859375 L -3.2985738440458325 122.50039062500001 L -1.9165835504750606 120.4921875 L -0.48523171743427673 118.48398437499998 L 0.958617240799023 116.47578124999998 L 2.377777046943662 114.46757812499999 L 3.735697291930357 112.459375 L 4.997404789354912 110.451171875 L 6.130404308618939 108.44296874999999 L 7.105515488409313 106.43476562499998 L 7.897624375839944 104.42656249999999 L 8.486330235392815 102.418359375 L 8.856470969117451 100.41015625 L 8.998513615910925 98.401953125 L 8.908799872583483 96.39375 L 8.58964031332385 94.38554687499999 L 8.049254880945227 92.37734375 L 7.301561182557812 90.369140625 L 6.365816042105069 88.3609375 L 5.26611954156509 86.35273437500001 L 4.030794324217873 84.34453124999999 L 2.691656146000231 82.33632812499998 L 1.2831944618714886 80.32812499999999 L -0.1583158488416105 78.31992187499999 L -1.5957487406394806 76.31171874999998 L -2.9920831817980567 74.30351562499999 L -4.311356629691147 72.2953125 L -5.519591244764737 70.287109375 L -6.585668988555971 68.27890624999999 L -7.482133067639261 66.27070312499998 L -8.185895082340005 64.26249999999999 L -8.678829667626502 62.254296875 L -8.948241311225503 60.24609375 L -8.987191326077994 58.23789062499999 L -8.794676555971446 56.2296875 L -8.375655211791479 54.221484374999996 L -7.740919172981279 52.213281249999994 L -6.906816043079972 50.205078125 L -5.894828117789437 48.196875 L -4.731019109231718 46.188671875 L -3.445362875993486 44.18046875 L -2.070971447490883 42.172265624999994 L -0.6432422248591155 40.16406249999999 L 0.8010536778233512 38.15585937499999 L 2.2247184722373228 36.14765625 L 3.5910857235049 34.139453124999996 L 4.864964692883048 32.131249999999994 L 6.013546673956966 30.123046875 L 7.0072499796776935 28.11484375 L 7.820481817633628 26.106640624999997 L 8.432297431486028 24.0984375 L 8.826939532404953 22.090234375 L 8.994244127468624 20.082031249999996 L 8.929902292930558 18.073828125 L 8.635571150393591 16.065624999999997 L 8.118831187703394 14.057421875 L 7.3929910237603735 12.04921875 L 6.476744645525085 10.041015624999998 L 5.393689945065583 8.032812499999999 L 4.171720956707508 6.024609375 L 2.842309447196964 4.016406249999999 L 1.4396943614953244 2.0082031249999996 L 0 0 L 0.8731250000000002 0 L 1.7462500000000003 0 L 2.6193750000000007 0 L 3.4925000000000006 0 L 4.365625000000001 0 L 5.238750000000001 0 L 6.111875000000001 0 L 6.985000000000001 0 L 7.858125000000002 0 L 8.731250000000003 0 L 9.604375000000003 0 L 10.477500000000003 0 L 11.350625000000003 0 L 12.223750000000003 0 L 13.096875000000002 0 L 13.970000000000002 0 L 15.040708104915014 1.4906249999999999 L 16.096208173362466 2.9812499999999997 L 17.121508179543014 4.471875 L 18.102045050839003 5.9624999999999995 L 19.02389151759776 7.453124999999999 L 19.87395393214856 8.94375 L 20.640158247287633 10.434375 L 21.311621512645274 11.924999999999999 L 21.878806453048817 13.415624999999999 L 22.333656933293984 14.906249999999998 L 22.66971238522116 16.396875 L 22.882199571806574 17.8875 L 22.968100384877104 19.378125 L 22.926194713469002 20.86875 L 22.75707777394054 22.359375 L 22.463151655686413 23.849999999999998 L 22.048591202536286 25.340624999999996 L 21.519284714448446 26.831249999999997 L 20.882750311755046 28.321875 L 20.14802914989758 29.812499999999996 L 19.32555700140055 31.303124999999994 L 18.42701602909663 32.79375 L 17.465168855974913 34.284375 L 16.453677288477238 35.775 L 15.406908268045912 37.265625 L 14.339729807132484 38.75625 L 13.267299808134858 40.246874999999996 L 12.204850764819355 41.7375 L 11.16747340426789 43.22812499999999 L 10.169902342439244 44.71875 L 9.226306797832494 46.209375 L 8.350089335896747 47.699999999999996 L 8.854151835896747 47.699999999999996 L 9.358214335896747 47.699999999999996 L 9.862276835896747 47.699999999999996 L 10.36633933589675 47.699999999999996 L 10.87040183589675 47.699999999999996 L 11.37446433589675 47.699999999999996 L 11.87852683589675 47.699999999999996 L 12.38258933589675 47.699999999999996 L 12.88665183589675 47.699999999999996 L 13.39071433589675 47.699999999999996 L 13.89477683589675 47.699999999999996 L 14.39883933589675 47.699999999999996 L 14.902901835896749 47.699999999999996 L 15.406964335896749 47.699999999999996 L 15.911026835896749 47.699999999999996 L 16.41508933589675 47.699999999999996 L 16.91915183589675 47.699999999999996 L 17.42321433589675 47.699999999999996 L 17.92727683589675 47.699999999999996 L 18.431339335896748 47.699999999999996 L 18.935401835896748 47.699999999999996 L 19.439464335896748 47.699999999999996 L 19.943526835896748 47.699999999999996 L 20.447589335896748 47.699999999999996 L 20.951651835896747 47.699999999999996 L 21.455714335896747 47.699999999999996 L 21.959776835896747 47.699999999999996 L 22.463839335896747 47.699999999999996 L 22.967901835896747 47.699999999999996 L 23.471964335896747 47.699999999999996 L 23.976026835896747 47.699999999999996 L 24.480089335896746 47.699999999999996 L 25.356306797832495 46.209375 L 26.299902342439243 44.71875 L 27.29747340426789 43.22812499999999 L 28.334850764819354 41.7375 L 29.397299808134857 40.246874999999996 L 30.46972980713248 38.75625 L 31.536908268045913 37.265625 L 32.58367728847723 35.775 L 33.59516885597491 34.284375 L 34.55701602909663 32.79375 L 35.45555700140055 31.303124999999994 L 36.278029149897584 29.812499999999996 L 37.01275031175504 28.321875 L 37.64928471444844 26.831249999999997 L 38.17859120253628 25.340624999999996 L 38.59315165568641 23.849999999999998 L 38.88707777394054 22.359375 L 39.056194713469004 20.86875 L 39.0981003848771 19.378125 L 39.012199571806576 17.8875 L 38.799712385221156 16.396875 L 38.46365693329398 14.906249999999998 L 38.00880645304882 13.415624999999999 L 37.44162151264528 11.924999999999999 L 36.77015824728763 10.434375 L 36.003953932148555 8.94375 L 35.15389151759776 7.453124999999999 L 34.232045050839005 5.9624999999999995 L 33.25150817954301 4.471875 L 32.226208173362465 2.9812499999999997 L 31.170708104915015 1.4906249999999999 L 30.1 0 L 30.973125000000003 0 L 31.84625 0 L 32.719375 0 L 33.5925 0 L 34.465625 0 L 35.338750000000005 0 L 36.211875000000006 0 L 37.085 0 L 37.958124999999995 0 L 38.83125 0 L 39.704375 0 L 40.5775 0 L 41.450625 0 L 42.323750000000004 0 L 43.196875000000006 0 L 44.07 0 L 44.07 0 Z" fill="black" stroke="black" />
				</svg>