<svg
					xmlns="http://www.w3.org/2000/svg" xmlns:xlink="http://www.w3.org/1999/xlink"
					style="
						overflow: visible;
						height: 100;
					"
					viewBox="-8.987191326077994 0 48.5112635718764 128.52499999999998"
				>
					<path d="M 39.403262801435254 100.27499999999996 L 39.10300855617755 102.04062499999995 L 38.631993590279485 103.80624999999996 L 37.99959977411739 105.57187499999998 L 37.21842338857315 107.33749999999998 L 36.30402422711583 109.10312499999996 L 35.274615669417244 110.86874999999998 L 34.15070189974295 112.63437499999998 L 32.954669496152384 114.39999999999998 L 31.710341525403045 116.16562499999998 L 30.44250302528016 117.93124999999998 L 29.176407325990738 119.69687499999999 L 27.93727304391592 121.46249999999998 L 26.749781766807605 123.22812499999998 L 25.637586435742932 124.99374999999999 L 24.622840216087482 126.759375 L 23.725755241609708 128.52499999999998 L 22.77169274160971 128.52499999999998 L 21.81763024160971 128.52499999999998 L 20.86356774160971 128.52499999999998 L 19.909505241609708 128.52499999999998 L 18.955442741609705 128.52499999999998 L 18.001380241609706 128.52499999999998 L 17.047317741609707 128.52499999999998 L 16.093255241609707 128.52499999999998 L 15.139192741609708 128.52499999999998 L 14.18513024160971 128.52499999999998 L 13.23106774160971 128.52499999999998 L 12.277005241609707 128.52499999999998 L 11.322942741609705 128.52499999999998 L 10.368880241609705 128.52499999999998 L 9.414817741609706 128.52499999999998 L 8.460755241609707 128.52499999999998 L 7.506692741609709 128.52499999999998 L 6.552630241609708 128.52499999999998 L 5.598567741609707 128.52499999999998 L 4.644505241609708 128.52499999999998 L 3.6904427416097088 128.52499999999998 L 2.736380241609708 128.52499999999998 L 1.782317741609707 128.52499999999998 L 0.8282552416097078 128.52499999999998 L -0.12580725839029228 128.52499999999998 L -1.0798697583902923 128.52499999999998 L -2.0339322583902923 128.52499999999998 L -2.9879947583902924 128.52499999999998 L -3.9420572583902924 128.52499999999998 L -4.8961197583902925 128.52499999999998 L -5.8501822583902925 128.52499999999998 L -6.8042447583902925 128.52499999999998 L -5.7742853781557 126.516796875 L -4.5956094885185985 124.50859375 L -3.2985738440458325 122.50039062500001 L -1.9165835504750606 120.4921875 L -0.48523171743427673 118.48398437499998 L 0.958617240799023 116.47578124999998 L 2.377777046943662 114.46757812499999 L 3.735697291930357 112.459375 L 4.997404789354912 110.451171875 L 6.130404308618939 108.44296874999999 L 7.105515488409313 106.43476562499998 L 7.897624375839944 104.42656249999999 L 8.486330235392815 102.418359375 L 8.856470969117451 100.41015625 L 8.998513615910925 98.401953125 L 8.908799872583483 96.39375 L 8.58964031332385 94.38554687499999 L 8.049254880945227 92.37734375 L 7.301561182557812 90.369140625 L 6.365816042105069 88.3609375 L 5.26611954156509 86.35273437500001 L 4.030794324217873 84.34453124999999 L 2.691656146000231 82.33632812499998 L 1.2831944618714886 80.32812499999999 L -0.1583158488416105 78.31992187499999 L -1.5957487406394806 76.31171874999998 L -2.9920831817980567 74.30351562499999 L -4.311356629691147 72.2953125 L -5.519591244764737 70.287109375 L -6.585668988555971 68.27890624999999 L -7.482133067639261 66.27070312499998 L -8.185895082340005 64.26249999999999 L -8.678829667626502 62.254296875 L -8.948241311225503 60.24609375 L -8.987191326077994 58.23789062499999 L -8.794676555971446 56.2296875 L -8.375655211791479 54.221484374999996 L -7.740919172981279 52.213281249999994 L -6.906816043079972 50.205078125 L -5.894828117789437 48.196875 L -4.731019109231718 46.188671875 L -3.445362875993486 44.18046875 L -2.070971447490883 42.172265624999994 L -0.6432422248591155 40.16406249999999 L 0.8010536778233512 38.15585937499999 L 2.2247184722373228 36.14765625 L 3.5910857235049 34.139453124999996 L 4.864964692883048 32.131249999999994 L 6.013546673956966 30.123046875 L 7.0072499796776935 28.11484375 L 7.820481817633628 26.106640624999997 L 8.432297431486028 24.0984375 L 8.826939532404953 22.090234375 L 8.994244127468624 20.082031249999996 L 8.929902292930558 18.073828125 L 8.635571150393591 16.065624999999997 L 8.118831187703394 14.057421875 L 7.3929910237603735 12.04921875 L 6.476744645525085 10.041015624999998 L 5.393689945065583 8.032812499999999 L 4.171720956707508 6.024609375 L 2.842309447196964 4.016406249999999 L 1.4396943614953244 2.0082031249999996 L 0 0 L 0.9540625 0 L 1.908125 0 L 2.8621875 0 L 3.81625 0 L 4.7703125 0 L 5.724375 0 L 6.6784375 0 L 7.6325 0 L 8.5865625 0 L 9.540625 0 L 10.494687500000001 0 L 11.44875 0 L 12.4028125 0 L 13.356875 0 L 14.310937500000001 0 L 15.265 0 L 16.2190625 0 L 17.173125 0 L 18.127187499999998 0 L 19.08125 0 L 20.035312500000003 0 L 20.989375000000003 0 L 21.9434375 0 L 22.8975 0 L 23.8515625 0 L 24.805625 0 L 25.7596875 0 L 26.71375 0 L 27.667812500000004 0 L 28.621875000000003 0 L 29.575937500000002 0 L 30.53 0 L 31.781431903014838 1.7437499999999995 L 33.0085500959735 3.487499999999999 L 34.18751325289062 5.231249999999998 L 35.295415638108395 6.974999999999998 L 36.31073213523828 8.718749999999996 L 37.21373645244851 10.462499999999997 L 37.98688437890728 12.206249999999997 L 38.61515464620264 13.949999999999996 L 39.08634077224066 15.693749999999994 L 39.39128821747077 17.437499999999993 L 39.52407224579841 19.181249999999995 L 39.482113034576344 20.924999999999994 L 39.266225797236 22.668749999999992 L 38.88060494474042 24.412499999999994 L 38.332742593581614 26.156249999999993 L 37.633283003606785 27.89999999999999 L 37.11359550360679 27.89999999999999 L 36.593908003606785 27.89999999999999 L 36.07422050360679 27.89999999999999 L 35.554533003606785 27.89999999999999 L 35.03484550360679 27.89999999999999 L 34.515158003606786 27.89999999999999 L 33.99547050360679 27.89999999999999 L 33.475783003606786 27.89999999999999 L 32.95609550360679 27.89999999999999 L 32.436408003606786 27.89999999999999 L 31.91672050360679 27.89999999999999 L 31.397033003606786 27.89999999999999 L 30.87734550360679 27.89999999999999 L 30.357658003606787 27.89999999999999 L 29.83797050360679 27.89999999999999 L 29.318283003606787 27.89999999999999 L 28.79859550360679 27.89999999999999 L 28.278908003606787 27.89999999999999 L 27.75922050360679 27.89999999999999 L 27.239533003606788 27.89999999999999 L 26.71984550360679 27.89999999999999 L 26.200158003606788 27.89999999999999 L 25.68047050360679 27.89999999999999 L 25.160783003606788 27.89999999999999 L 24.641095503606792 27.89999999999999 L 24.12140800360679 27.89999999999999 L 23.601720503606792 27.89999999999999 L 23.08203300360679 27.89999999999999 L 22.562345503606785 27.89999999999999 L 22.04265800360679 27.89999999999999 L 21.522970503606786 27.89999999999999 L 21.00328300360679 27.89999999999999 L 20.410621629329526 29.16093749999999 L 19.751765855407804 30.42187499999999 L 19.033414360537765 31.68281249999999 L 18.262870724722035 32.94374999999999 L 17.447969172751517 34.204687499999984 L 16.596994922547495 35.46562499999999 L 15.718599948193576 36.726562499999986 L 14.821715014106498 37.98749999999998 L 13.915458874706678 39.24843749999998 L 13.009045562768096 40.50937499999998 L 12.1116907090599 41.77031249999998 L 11.232517845740936 43.03124999999998 L 10.380465646133718 44.292187499999976 L 9.564197043984034 45.55312499999998 L 8.792011156203316 46.81406249999998 L 8.071758904587618 48.074999999999974 L 9.03488390458762 48.074999999999974 L 9.998008904587621 48.074999999999974 L 10.96113390458762 48.074999999999974 L 11.92425890458762 48.074999999999974 L 12.887383904587619 48.074999999999974 L 13.85050890458762 48.074999999999974 L 14.813633904587622 48.074999999999974 L 15.77675890458762 48.074999999999974 L 16.739883904587618 48.074999999999974 L 17.70300890458762 48.074999999999974 L 18.66613390458762 48.074999999999974 L 19.62925890458762 48.074999999999974 L 20.592383904587617 48.074999999999974 L 21.55550890458762 48.074999999999974 L 22.51863390458762 48.074999999999974 L 23.48175890458762 48.074999999999974 L 22.584791062926886 49.818749999999966 L 21.818485368978124 51.56249999999997 L 21.197730155388285 53.30624999999998 L 20.73458589643704 55.04999999999997 L 20.438050888555217 56.79374999999997 L 20.313886425014772 58.53749999999997 L 20.364504861420937 60.28124999999997 L 20.588922746749873 62.02499999999997 L 20.982779930535415 63.76874999999997 L 21.538424274976837 65.51249999999997 L 22.24506032612049 67.25624999999997 L 23.088959055625846 68.99999999999997 L 24.053724598103383 70.74374999999996 L 25.120612801661608 72.48749999999997 L 26.268895402636158 74.23124999999997 L 27.476262749055252 75.97499999999997 L 26.513137749055254 75.97499999999997 L 25.550012749055252 75.97499999999997 L 24.58688774905525 75.97499999999997 L 23.623762749055253 75.97499999999997 L 22.660637749055255 75.97499999999997 L 21.697512749055253 75.97499999999997 L 20.73438774905525 75.97499999999997 L 19.771262749055253 75.97499999999997 L 18.808137749055255 75.97499999999997 L 17.845012749055254 75.97499999999997 L 16.881887749055252 75.97499999999997 L 15.918762749055256 75.97499999999997 L 14.955637749055255 75.97499999999997 L 13.992512749055255 75.97499999999997 L 13.029387749055255 75.97499999999997 L 12.066262749055253 75.97499999999997 L 13.147711028868336 77.49374999999998 L 14.24025113144632 79.01249999999996 L 15.327774537794024 80.53124999999996 L 16.394246695580108 82.04999999999997 L 17.42394343415764 83.56874999999995 L 18.40168280328654 85.08749999999995 L 19.31304891730474 86.60624999999996 L 20.14460450436786 88.12499999999997 L 20.884089026910125 89.64374999999997 L 21.520599452219145 91.16249999999997 L 22.044751007825198 92.68124999999998 L 22.448815551511878 94.19999999999996 L 22.726835515806943 95.71874999999994 L 22.874711746944477 97.23749999999995 L 22.890263943192213 98.75624999999997 L 22.77326280143526 100.27499999999996 L 23.292950301435255 100.27499999999996 L 23.812637801435258 100.27499999999996 L 24.332325301435255 100.27499999999996 L 24.852012801435258 100.27499999999996 L 25.37170030143526 100.27499999999996 L 25.891387801435258 100.27499999999996 L 26.41107530143526 100.27499999999996 L 26.930762801435257 100.27499999999996 L 27.45045030143526 100.27499999999996 L 27.970137801435257 100.27499999999996 L 28.48982530143526 100.27499999999996 L 29.009512801435257 100.27499999999996 L 29.52920030143526 100.27499999999996 L 30.048887801435257 100.27499999999996 L 30.56857530143526 100.27499999999996 L 31.088262801435256 100.27499999999996 L 31.60795030143526 100.27499999999996 L 32.127637801435256 100.27499999999996 L 32.64732530143526 100.27499999999996 L 33.167012801435256 100.27499999999996 L 33.68670030143526 100.27499999999996 L 34.206387801435255 100.27499999999996 L 34.72607530143526 100.27499999999996 L 35.245762801435255 100.27499999999996 L 35.76545030143526 100.27499999999996 L 36.285137801435255 100.27499999999996 L 36.80482530143526 100.27499999999996 L 37.324512801435255 100.27499999999996 L 37.84420030143526 100.27499999999996 L 38.363887801435254 100.27499999999996 L 38.88357530143526 100.27499999999996 L 39.403262801435254 100.27499999999996 L 39.403262801435254 100.27499999999996 Z" fill="black" stroke="black" />
				</svg>