<svg
					xmlns="http://www.w3.org/2000/svg" xmlns:xlink="http://www.w3.org/1999/xlink"
					style="
						overflow: visible;
						height: 100;
					"
					viewBox="-8.805220906050328 0 43.29280468878376 168.84999999999997"
				>
					<path d="M 14.476662181145052 168.84999999999997 L 14.476662181145052 168.84999999999997 Q 14.180412181145051 168.84999999999997 13.88989429484617 168.84140624999998 Q 13.599372970909396 168.83281249999996 13.314570017017662 168.81562499999998 Q 13.029753333276954 168.79843749999998 12.750627594466092 168.77265625 Q 12.471471041421701 168.74687499999996 12.197964451904618 168.71249999999998 Q 11.650787627414605 168.64374999999995 11.12586496335585 168.54062499999998 Q 10.60045610677691 168.4375 10.096660011752942 168.29999999999998 Q 9.597355741969661 168.16874999999996 9.12027105965094 168.02499999999995 Q 8.642272338745624 167.88124999999997 8.186192969955622 167.72499999999997 Q 7.729055616040027 167.56874999999997 7.293522396679706 167.39999999999995 Q 6.856783653359172 167.23124999999996 6.441322084333036 167.04999999999998 L 6.441322084333036 167.04999999999998 L 5.536727319308164 165.36249999999998 L 4.531378858105059 163.675 L 3.443571366068732 161.9875 L 2.293100043365697 160.3 L 1.1009004050438047 158.6125 L -0.11133268960264844 156.925 L -1.321539825711483 155.2375 L -2.5076984554720214 153.55 L -3.648223649862147 151.8625 L -4.722360886888611 150.175 L -5.710563728630282 148.4875 L -6.594849514367695 146.8 L -7.3591265971309605 145.1125 L -7.989487168832022 143.425 L -8.474460345343646 141.7375 L -8.805220906050328 140.05 Q -8.497681947654923 140.18125 -8.181018492120712 140.3203125 Q -7.8632705027823775 140.45937500000002 -7.536159987549006 140.60625 Q -7.207846456474645 140.75312499999998 -6.869921786732556 140.90781249999998 Q -6.530671426638266 141.0625 -6.181551489360066 141.22500000000002 Q -5.832374526213495 141.38125000000002 -5.479614050219031 141.49843750000002 Q -5.126103796742963 141.61562500000002 -4.7700149318367755 141.69375000000002 Q -4.413594622113736 141.77187500000002 -4.055260405900998 141.81093750000002 Q -3.696843606646034 141.85000000000002 -3.336843606646034 141.85000000000002 L -3.336843606646034 141.85000000000002 Q -2.8680936066460347 141.85000000000002 -2.458980689467249 141.76132812500003 Q -2.049441619775571 141.67265625000002 -1.697830737183872 141.4953125 Q -1.3445026028354956 141.31796875000003 -1.0456481264665491 141.05195312500004 Q -0.7428863232723453 140.78593750000005 -0.4893349774388067 140.43125 Q -0.22874368464094097 140.0765625 -0.010222887432654204 139.633203125 Q 0.21944593885954156 139.18984375000002 0.41610152601172246 138.6578125 Q 0.6289820386190055 138.12578125000002 0.8197925651699904 137.505078125 Q 1.0327899616448004 136.88437499999998 1.2363881074670182 136.175 Q 1.4688141818983862 135.465625 1.723354528835019 134.66484375 Q 2.01390899745663 133.8640625 2.3419255017120424 132.971875 Q 2.7128692330125634 132.07968749999998 3.13650112626926 131.09609374999997 Q 3.608799407522545 130.11249999999998 4.147515734289128 129.0375 Q 4.7382677015217185 127.96249999999999 5.405888561026865 126.79609374999998 Q 6.125080391148361 125.62968749999999 6.926175715807655 124.371875 Q 7.344335387447337 123.74296875 7.7827098397673335 123.09121093750001 Q 8.231115265709454 122.43945312500001 8.698811619723749 121.76484375000001 Q 9.174662532737317 121.09023437500001 9.668217299903912 120.39277343750001 Q 10.167519540082768 119.69531250000001 10.68221631703587 118.97500000000001 L 10.68221631703587 118.97500000000001 L 12.019214051180603 117.116015625 L 13.345190870256673 115.25703125 L 14.630873804339657 113.39804687499999 L 15.847879432754079 111.5390625 L 16.969340491573544 109.68007812500002 L 17.970499009637518 107.82109375000002 L 18.82925287869852 105.96210937500001 L 19.526643791326244 104.103125 L 20.047275774591732 102.244140625 L 20.37965507975929 100.38515625000001 L 20.516443924400374 98.52617187500002 L 20.454622485183567 96.66718750000001 L 20.195555565101525 94.808203125 L 19.744962463353808 92.94921875 L 19.112790713054007 91.090234375 L 18.312996474194797 89.23125 L 17.36323643003264 87.37226562500001 L 16.28447798875159 85.51328125 L 15.100536395801669 83.654296875 L 13.837548975866163 81.7953125 L 12.523398111371973 79.936328125 L 11.18709569617657 78.07734375000001 L 9.858142653559423 76.218359375 L 8.565877658139764 74.359375 L 7.338829439682 72.50039062500001 L 6.204086967674861 70.64140625 L 5.186701420824615 68.78242187500001 L 4.30913314390201 66.9234375 L 3.590755801218079 65.064453125 L 3.0474286733003826 63.20546875000001 L 2.6911465389759996 61.34648437500001 L 2.529774872250689 59.487500000000004 L 2.566876199918852 57.628515625 L 2.801631453326065 55.76953125 L 3.2288580505646216 53.91054687500001 L 3.839124309909807 52.0515625 L 4.618957668645068 50.192578125000004 L 5.551142110526447 48.333593750000006 L 6.615098235719334 46.474609375 L 7.78733758258125 44.615625 L 9.041981171441332 42.756640625 L 10.351330822727975 40.89765625 L 11.68648063672162 39.038671875000006 L 13.01795513558031 37.1796875 L 14.316359979674957 35.320703125 L 15.553030892674254 33.46171875 L 16.7006664693637 31.602734375000004 L 17.733930895996544 29.743750000000002 L 18.630013277201428 27.884765625 L 19.369131221448235 26.02578125 L 19.934967567651448 24.166796875000003 L 20.315030611502014 22.3078125 L 20.500929878979605 20.448828125 L 20.488561358922368 18.58984375 L 20.278198105361447 16.730859375 L 19.874484209434854 14.871875000000001 L 19.286332273960014 13.012890625 L 18.526726654070778 11.15390625 L 17.612436807683416 9.294921875 L 16.56364708401916 7.4359375000000005 L 15.403511123168983 5.576953125 L 14.157640704012906 3.7179687500000003 L 12.853540324959196 1.8589843750000001 L 11.52 0 L 12.393125 0 L 13.26625 0 L 14.139375000000001 0 L 15.012500000000001 0 L 15.885625000000001 0 L 16.758750000000003 0 L 17.631875 0 L 18.505000000000003 0 L 19.378125000000004 0 L 20.251250000000002 0 L 21.124375 0 L 21.997500000000002 0 L 22.870625000000004 0 L 23.743750000000002 0 L 24.616875 0 L 25.490000000000002 0 L 26.789596966073095 1.8113281250000002 L 28.061952944174532 3.6226562500000004 L 29.280397947531533 5.4339843750000005 L 30.419392022953172 7.245312500000001 L 31.455060596461262 9.056640625 L 32.36569491073328 10.867968750000001 L 33.13220706463586 12.679296875000002 L 33.73853011671736 14.490625000000001 L 34.17195486604869 16.301953125 L 34.42339625111355 18.11328125 L 34.48758378273343 19.924609375000003 L 34.36317201934264 21.735937500000002 L 34.052768768929774 23.547265625 L 33.56288042650158 25.358593750000004 L 32.90377559285656 27.169921875000004 L 32.089269833369286 28.981250000000003 L 31.136436088479186 30.792578125000002 L 30.065246805999816 32.60390625 L 28.898155296550662 34.415234375000004 L 27.65962508736416 36.2265625 L 26.375617139731965 38.037890625 L 25.07304567857925 39.849218750000006 L 23.77921404058022 41.66054687500001 L 22.521242366061603 43.471875000000004 L 21.325499130903875 45.283203125 L 20.217048434159622 47.09453125 L 19.219124626851105 48.905859375000006 L 18.352645294307603 50.71718750000001 L 17.63577280047094 52.528515625 L 17.083533584684698 54.33984375000001 L 16.707503190927085 56.15117187500001 L 16.515563631622513 57.962500000000006 L 16.51173817195457 59.773828125 L 16.696106997783588 61.585156250000004 L 17.06480553486242 63.396484375000014 L 17.610105454581554 65.2078125 L 18.32057666827366 67.019140625 L 19.181326914497966 68.83046875000001 L 20.174313917290377 70.64179687500001 L 21.278723572197563 72.453125 L 22.47140623289801 74.264453125 L 23.72736195336051 76.07578125 L 25.020264514328478 77.88710937500001 L 26.32301324995604 79.69843750000001 L 27.60830110770018 81.50976562500003 L 28.84918703430595 83.32109375000002 L 30.019660690042407 85.132421875 L 31.095187654154962 86.94375000000001 L 32.053223693425586 88.75507812500001 L 32.87368731420394 90.56640625 L 33.539380692696774 92.37773437499999 L 34.03635016035164 94.1890625 L 34.35417868816332 96.00039062500002 L 34.486204239108666 97.81171875000001 L 34.429659411801595 99.62304687500001 L 34.18572944828309 101.43437500000002 L 33.7595273900388 103.245703125 L 33.15998690300146 105.05703125 L 32.399675018044725 106.868359375 L 31.494528712134112 108.67968750000001 L 30.463520851685598 110.49101562500002 L 29.32826250032767 112.30234375000002 L 28.11254992713555 114.11367187500002 L 26.841865810545613 115.92500000000001 Q 25.98050849121953 117.12812500000001 25.126686873746884 118.30175781250003 Q 24.275985153108547 119.475390625 23.447370556402372 120.61953125000001 Q 22.6355509972126 121.763671875 21.85753203322103 122.87832031250002 Q 21.107724239706865 123.99296875000002 20.400458164161304 125.078125 Q 19.730423372080445 126.16328124999998 19.108730480671262 127.2189453125 Q 18.530894986009393 128.274609375 18.00442571698946 129.30078125 Q 17.526159846574455 130.326953125 17.099774155576647 131.3236328125 Q 16.72385567521505 132.3203125 16.39815473159782 133.2875 Q 16.12335793609829 134.2546875 15.895312218521363 135.1923828125 Q 15.717069315500098 136.13007812499998 15.58069365452125 137.03828124999998 Q 15.49178237649775 137.94648437499998 15.438816408046453 138.8251953125 Q 15.430036134204888 139.70390625 15.450597146067057 140.553125 Q 15.511404420696458 141.40234375 15.59458802348738 142.2220703125 Q 15.713670633357442 143.041796875 15.848082571225302 143.83203125 Q 16.013858870849464 144.622265625 16.188068271558453 145.38300781249998 Q 16.389104959798303 146.14374999999998 16.59201521755547 146.875 Q 16.817362138983302 147.60625000000002 17.04291424202043 148.31191406250002 Q 17.286970344699675 149.017578125 17.526077734538102 149.69765625000002 Q 17.780015476190528 150.377734375 18.024367111322643 151.0322265625 Q 18.28019276813196 151.68671875 18.52235179898338 152.315625 Q 18.772983103846936 152.94453125 19.006440966528835 153.5478515625 Q 19.245743015787056 154.15117187500002 19.46493559850767 154.72890625000002 Q 19.68772178984133 155.306640625 19.888014395659983 155.85878906250002 Q 20.090019076990384 156.41093750000002 20.267666675928147 156.9375 Q 20.44549584009686 157.4640625 20.59758465343672 157.9650390625 Q 20.748650483387642 158.466015625 20.873026345236802 158.94140625000003 Q 20.995470766680082 159.41679687500002 21.09065902396584 159.86660156250002 Q 21.183270713504804 160.31640625 21.248391705980804 160.74062500000002 Q 21.31052027788699 161.16484375000002 21.345203724155265 161.56347656250003 Q 21.376674113387 161.962109375 21.380975047149445 162.33515625 Q 21.38200444534031 162.70820312500004 21.35632271897953 163.0556640625 Q 21.327441821198374 163.40312500000005 21.272446634683355 163.72500000000002 Q 21.212846666096397 164.04531250000002 21.133042001244483 164.34560546875002 Q 21.050385416588885 164.64589843750002 20.94807492061455 164.92617187500002 Q 20.843107184950128 165.2064453125 20.719079486510225 165.46669921875002 Q 20.59262622958428 165.72695312500002 20.447731169013906 165.96718750000002 Q 20.300666790317 166.207421875 20.135786078246774 166.42763671875002 Q 19.969005820592905 166.64785156250002 19.78502710009883 166.84804687500002 Q 19.599422476407025 167.04824218750002 19.397216640836746 167.22841796875002 Q 19.193654042919107 167.40859375 18.97405561604004 167.56875000000002 Q 18.75335789658317 167.72890625000002 18.517148253143013 167.86904296875002 Q 18.28007905034045 168.0091796875 18.02797224118919 168.12929687500002 Q 17.775222807361402 168.24941406250002 17.50785375175091 168.34951171874997 Q 17.24003205063453 168.44960937499997 16.95794686714481 168.5296875 Q 16.67556871738875 168.609765625 16.379216982272723 168.66982421874997 Q 16.082699045278382 168.72988281249997 15.772427791221062 168.76992187499997 Q 15.462082228244284 168.8099609375 15.138131526130328 168.82998046875 Q 14.81416218114505 168.84999999999997 14.476662181145052 168.84999999999997 L 14.476662181145052 168.84999999999997 Z" fill="black" stroke="black" />
				</svg>