<svg
					xmlns="http://www.w3.org/2000/svg" xmlns:xlink="http://www.w3.org/1999/xlink"
					style="
						overflow: visible;
						height: 100;
					"
					viewBox="0 0 45.26910769123472 21.599999999999966"
				>
					<path d="M 36.28 0 L 37.25011153369007 1.3499999999999979 L 38.208918680726086 2.6999999999999957 L 39.145248780707334 4.049999999999994 L 40.048191090777514 5.3999999999999915 L 40.90722392487801 6.749999999999989 L 41.7123372594518 8.099999999999987 L 42.45414937691457 9.449999999999985 L 43.12401618768567 10.799999999999983 L 43.714131956885446 12.14999999999998 L 44.21762026196452 13.499999999999979 L 44.628614121365885 14.849999999999977 L 44.942324360507264 16.199999999999974 L 45.15509541843776 17.549999999999972 L 45.26444794487226 18.89999999999997 L 45.26910769123472 20.249999999999968 L 45.169020359052475 21.599999999999966 L 44.60214535905248 21.599999999999966 L 44.035270359052475 21.599999999999966 L 43.46839535905247 21.599999999999966 L 42.901520359052476 21.599999999999966 L 42.33464535905248 21.599999999999966 L 41.76777035905248 21.599999999999966 L 41.200895359052474 21.599999999999966 L 40.63402035905247 21.599999999999966 L 40.067145359052475 21.599999999999966 L 39.50027035905247 21.599999999999966 L 38.93339535905247 21.599999999999966 L 38.36652035905247 21.599999999999966 L 37.79964535905248 21.599999999999966 L 37.23277035905247 21.599999999999966 L 36.66589535905247 21.599999999999966 L 36.099020359052474 21.599999999999966 L 35.53214535905248 21.599999999999966 L 34.965270359052475 21.599999999999966 L 34.39839535905247 21.599999999999966 L 33.831520359052476 21.599999999999966 L 33.26464535905248 21.599999999999966 L 32.69777035905248 21.599999999999966 L 32.130895359052474 21.599999999999966 L 31.564020359052474 21.599999999999966 L 30.997145359052475 21.599999999999966 L 30.43027035905247 21.599999999999966 L 29.863395359052472 21.599999999999966 L 29.296520359052472 21.599999999999966 L 28.729645359052473 21.599999999999966 L 28.162770359052473 21.599999999999966 L 27.595895359052474 21.599999999999966 L 27.029020359052474 21.599999999999966 L 26.462145359052474 21.599999999999966 L 25.895270359052475 21.599999999999966 L 25.328395359052475 21.599999999999966 L 24.761520359052476 21.599999999999966 L 24.194645359052473 21.599999999999966 L 23.627770359052473 21.599999999999966 L 23.060895359052473 21.599999999999966 L 22.494020359052474 21.599999999999966 L 21.927145359052474 21.599999999999966 L 21.360270359052475 21.599999999999966 L 20.793395359052475 21.599999999999966 L 20.226520359052472 21.599999999999966 L 19.659645359052472 21.599999999999966 L 19.092770359052473 21.599999999999966 L 18.525895359052473 21.599999999999966 L 17.959020359052474 21.599999999999966 L 17.392145359052474 21.599999999999966 L 16.825270359052475 21.599999999999966 L 16.25839535905247 21.599999999999966 L 15.691520359052474 21.599999999999966 L 15.124645359052474 21.599999999999966 L 14.557770359052473 21.599999999999966 L 13.990895359052473 21.599999999999966 L 13.424020359052474 21.599999999999966 L 12.857145359052474 21.599999999999966 L 12.290270359052474 21.599999999999966 L 11.723395359052473 21.599999999999966 L 11.156520359052474 21.599999999999966 L 10.589645359052474 21.599999999999966 L 10.022770359052473 21.599999999999966 L 9.455895359052473 21.599999999999966 L 8.889020359052473 21.599999999999966 L 8.989107691234718 20.249999999999968 L 8.984447944872258 18.89999999999997 L 8.875095418437759 17.549999999999972 L 8.662324360507265 16.199999999999974 L 8.348614121365882 14.849999999999977 L 7.937620261964519 13.499999999999979 L 7.434131956885445 12.14999999999998 L 6.844016187685668 10.799999999999983 L 6.174149376914571 9.449999999999985 L 5.432337259451797 8.099999999999987 L 4.627223924878011 6.749999999999989 L 3.7681910907775102 5.3999999999999915 L 2.8652487807073306 4.049999999999994 L 1.9289186807260874 2.6999999999999957 L 0.9701115336900656 1.3499999999999979 L 0 0 L 0.566875 0 L 1.13375 0 L 1.700625 0 L 2.2675 0 L 2.834375 0 L 3.40125 0 L 3.968125 0 L 4.535 0 L 5.101875 0 L 5.66875 0 L 6.235625000000001 0 L 6.8025 0 L 7.369375 0 L 7.93625 0 L 8.503125 0 L 9.07 0 L 9.636875 0 L 10.20375 0 L 10.770624999999999 0 L 11.3375 0 L 11.904375000000002 0 L 12.471250000000001 0 L 13.038125 0 L 13.605 0 L 14.171875 0 L 14.73875 0 L 15.305625 0 L 15.8725 0 L 16.439375000000002 0 L 17.00625 0 L 17.573125 0 L 18.14 0 L 18.706875 0 L 19.27375 0 L 19.840625 0 L 20.4075 0 L 20.974375 0 L 21.541249999999998 0 L 22.108125 0 L 22.675 0 L 23.241875 0 L 23.808750000000003 0 L 24.375625000000003 0 L 24.942500000000003 0 L 25.509375000000002 0 L 26.07625 0 L 26.643125 0 L 27.21 0 L 27.776875 0 L 28.34375 0 L 28.910625 0 L 29.4775 0 L 30.044375 0 L 30.61125 0 L 31.178125 0 L 31.745 0 L 32.311875 0 L 32.878750000000004 0 L 33.44562500000001 0 L 34.0125 0 L 34.579375 0 L 35.14625 0 L 35.713125000000005 0 L 36.28 0 L 36.28 0 Z" fill="black" stroke="black" />
				</svg>