<svg
					xmlns="http://www.w3.org/2000/svg" xmlns:xlink="http://www.w3.org/1999/xlink"
					style="
						overflow: visible;
						height: 100;
					"
					viewBox="-8.904861315996953 3.552713678800501e-13 65.97716831393014 161.10000000000002"
				>
					<path d="M 42.40072527324737 66.05000000000035 L 42.40072527324737 66.05000000000035 Q 42.655821609089045 66.68046875000036 42.924856808068725 67.30617675781286 Q 43.2115347698158 67.93188476562536 43.510210539284664 68.55283203125035 Q 44.154510879889635 69.79472656250036 44.83454216518562 71.01757812500036 Q 45.563295363003675 72.24042968750035 46.310899382467106 73.44423828125035 Q 47.09157000668261 74.64804687500035 47.8742810386506 75.83281250000036 Q 48.67435172782591 77.01757812500036 49.46041391036588 78.18330078125035 Q 50.24870662138133 79.34902343750035 51.008280411987094 80.49570312500035 Q 51.75606017211395 81.64238281250034 52.4622001391084 82.77001953125034 Q 53.144040677671434 83.89765625000035 53.77343189291375 85.00625000000035 Q 54.36783736569545 86.11484375000035 54.901291355706796 87.20439453125036 Q 55.3910809991526 88.29394531250034 55.813803525179466 89.36445312500035 Q 56.186276203660135 90.43496093750036 56.48792790190052 91.48642578125035 Q 56.73483105337937 92.53789062500034 56.90940817617408 93.57031250000034 Q 57.02674069615981 94.60273437500035 57.07230699793318 95.61611328125036 Q 57.05998832991074 96.62949218750036 56.978290787475174 97.62382812500036 Q 56.8397291986104 98.61816406250036 56.635730062200594 99.59345703125035 Q 56.377322116918336 100.56875000000035 56.05867811015065 101.52500000000035 Q 55.68926907412907 102.48125000000036 55.26559538343351 103.40937500000035 Q 54.79661238285306 104.33750000000035 54.28183390138319 105.23750000000035 Q 53.7276677728434 106.13750000000036 53.13621085474594 107.00937500000036 Q 52.511470072399916 107.88125000000036 51.85768676793428 108.72500000000036 Q 51.176666581367265 109.56875000000036 50.47436272295169 110.38437500000036 Q 49.750619719118134 111.20000000000036 49.012687214114095 111.98750000000035 Q 48.258717069684295 112.77500000000035 47.496865720983656 113.53437500000035 Q 46.72387752336653 114.29375000000036 45.94845804139768 115.02500000000038 Q 45.16623549937639 115.75625000000038 44.38614296405605 116.45937500000038 Q 43.60298095308729 117.16250000000038 42.82562666338098 117.83750000000038 Q 42.04833067465505 118.51250000000037 41.27966989743436 119.15937500000038 Q 40.51360588992859 119.80625000000039 39.75820929558135 120.42500000000038 Q 39.00739199563338 121.04375000000036 38.26854936131714 121.63437500000036 Q 37.535758037550636 122.22500000000038 36.81560394381165 122.78750000000038 Q 36.102515950186316 123.35000000000038 35.402168549626296 123.88437500000038 Q 34.7095023440731 124.41875000000039 34.02920772386244 124.92500000000038 L 34.02920772386244 124.92500000000038 L 33.75593180426699 126.05546875000039 L 33.52773716595105 127.18593750000039 L 33.34968931228472 128.3164062500004 L 33.226443878496276 129.4468750000004 L 33.16220857945069 130.5773437500004 L 33.160708818446125 131.7078125000004 L 33.22515723812063 132.8382812500004 L 33.35822746234042 133.9687500000004 L 33.56203224368741 135.09921875000038 L 33.83810619515399 136.22968750000038 L 34.18739324718586 137.3601562500004 L 34.61023893259083 138.49062500000036 L 35.106387562371864 139.62109375000037 L 35.67498431556748 140.75156250000038 L 36.314582226018274 141.88203125000038 L 37.023154008954364 143.0125000000004 L 37.79810863074049 144.1429687500004 L 38.63631248634832 145.2734375000004 L 39.53411501146455 146.4039062500004 L 40.487378519897675 147.5343750000004 L 41.49151202241127 148.6648437500004 L 42.54150875057007 149.7953125000004 L 43.63198707890254 150.9257812500004 L 44.75723451090814 152.05625000000038 L 45.91125436939527 153.18671875000038 L 47.08781480953282 154.3171875000004 L 48.280499754013334 155.44765625000036 L 49.482761334016146 156.57812500000037 L 50.68797340735102 157.70859375000038 L 51.889485716358976 158.83906250000038 L 53.08067824291763 159.9695312500004 L 54.255015316287675 161.1000000000004 L 53.715015316287676 161.1000000000004 L 53.17501531628768 161.1000000000004 L 52.63501531628768 161.1000000000004 L 52.09501531628768 161.1000000000004 L 51.55501531628768 161.1000000000004 L 51.01501531628768 161.1000000000004 L 50.475015316287674 161.1000000000004 L 49.935015316287675 161.1000000000004 L 49.395015316287676 161.1000000000004 L 48.85501531628767 161.1000000000004 L 48.31501531628767 161.1000000000004 L 47.77501531628767 161.1000000000004 L 47.23501531628767 161.1000000000004 L 46.69501531628767 161.1000000000004 L 46.155015316287674 161.1000000000004 L 45.615015316287675 161.1000000000004 L 45.075015316287676 161.1000000000004 L 44.53501531628768 161.1000000000004 L 43.99501531628768 161.1000000000004 L 43.45501531628768 161.1000000000004 L 42.91501531628768 161.1000000000004 L 42.37501531628768 161.1000000000004 L 41.835015316287674 161.1000000000004 L 41.295015316287675 161.1000000000004 L 40.755015316287675 161.1000000000004 L 40.21501531628767 161.1000000000004 L 39.67501531628767 161.1000000000004 L 39.13501531628767 161.1000000000004 L 38.59501531628767 161.1000000000004 L 38.05501531628767 161.1000000000004 L 37.51501531628767 161.1000000000004 L 36.975015316287674 161.1000000000004 L 35.18027082712101 159.30000000000038 L 33.35260742499052 157.5000000000004 L 31.518679990774686 155.7000000000004 L 29.70527307202478 153.90000000000038 L 27.93874643766253 152.10000000000036 L 26.244489425677266 150.30000000000035 L 24.64639537893071 148.50000000000037 L 23.16636704834952 146.7000000000004 L 21.823863201755007 144.90000000000038 L 20.63549582361459 143.10000000000036 L 19.61468624375813 141.30000000000038 L 18.771387313260746 139.50000000000037 L 18.11187737850521 137.70000000000036 L 17.63863031820037 135.90000000000035 L 17.350264333614568 134.10000000000036 L 17.241570552076006 132.30000000000035 L 16.741570552076006 132.30000000000035 Q 16.471570552076006 132.30000000000035 16.206917503781064 132.29191894531286 Q 15.942267901877957 132.28383789062536 15.68297903334584 132.26767578125038 Q 15.423703938662507 132.25151367187536 15.169817105447297 132.22727050781285 Q 14.915961219188425 132.20302734375036 14.667534797766356 132.17070312500036 Q 14.41916328217258 132.13837890625035 14.176276001594214 132.09797363281285 Q 13.93347428583477 132.05756835937535 13.696224994258927 132.00908203125036 Q 13.22209462109751 131.91210937500037 12.770681853632313 131.78281250000038 Q 12.32013491454449 131.65351562500038 11.893162092219796 131.49189453125035 Q 11.467526431054186 131.33027343750035 11.066515961119126 131.13632812500038 Q 10.6674019641482 130.94238281250034 10.294143885737494 130.71611328125036 Q 9.923417716505263 130.48984375000035 9.579938147067399 130.23125000000036 Q 9.239686472737297 129.97265625000037 8.928206646040218 129.68173828125035 Q 8.620691262604236 129.39082031250035 8.343575497418325 129.06757812500035 Q 8.07117616657586 128.74433593750035 7.830867059105276 128.38876953125035 Q 7.5960108685750525 128.03320312500037 7.394950062949688 127.64531250000036 Q 7.200025740244093 127.25742187500035 7.040558827489519 126.83720703125036 Q 6.887814703604779 126.41699218750036 6.77207916062053 125.96445312500036 Q 6.663503925502492 125.51191406250035 6.5932995630050115 125.02705078125035 Q 6.530485610131765 124.54218750000035 6.507127782604055 124.02500000000035 Q 6.491742834459427 123.50781250000037 6.51169837471816 122.96455078125035 Q 6.538466254535557 122.42128906250034 6.600524788662684 121.85195312500035 Q 6.668515301902207 121.28261718750036 6.771266669678812 120.68720703125037 Q 6.8786763978314776 120.09179687500037 7.019765338693999 119.47031250000036 Q 7.163800512935454 118.84882812500035 7.339813370237291 118.20126953125035 Q 7.516582510243129 117.55371093750036 7.7229472757652005 116.88007812500035 Q 7.927370390241996 116.20644531250036 8.158277480068154 115.50673828125036 Q 8.3840196552186 114.80703125000036 8.632371781520355 114.08125000000035 Q 8.871809878207413 113.35546875000034 9.129210170299043 112.60361328125035 Q 9.373442013510473 111.85175781250035 9.630230040199663 111.07382812500035 Q 9.869135803096091 110.29589843750034 10.11448123669993 109.49189453125035 Q 10.336846570666928 108.68789062500035 10.558909780284896 107.85781250000035 Q 10.752619488711229 107.02773437500035 10.938787221304832 106.17158203125035 Q 11.09109678459124 105.31542968750034 11.228299156599634 104.43320312500036 Q 11.326189065370064 103.55097656250038 11.401301230899364 102.64267578125038 Q 11.43191577276751 101.73437500000037 11.43224377381417 100.80000000000038 Q 11.3834115845006 99.86562500000036 11.295891036438952 98.91162109375037 Q 11.156063829936386 97.95761718750036 10.97278704735067 96.98398437500035 Q 10.735182766984284 96.01035156250035 10.450571517099064 95.01708984375036 Q 10.110966386083101 94.02382812500036 9.722277592961303 93.01093750000035 Q 9.279494986520508 91.99804687500034 8.787291493947372 90.96552734375035 Q 8.243643010928976 89.93300781250035 7.652201557329045 88.88085937500034 Q 7.013851323732469 87.82871093750033 6.331477511945989 86.75693359375035 Q 5.608698920502891 85.68515625000035 4.847917783329538 84.59375000000036 Q 4.0552114002698385 83.50234375000035 3.232802524620781 82.39130859375035 Q 2.3888451273710993 81.28027343750036 1.5256935472183493 80.14960937500035 Q 0.6530915184721666 79.01894531250035 -0.22616998112588949 77.86865234375036 Q -1.101344121042171 76.71835937500036 -1.9689188060622678 75.54843750000036 Q -2.817819922600368 74.37851562500036 -3.643565175570522 73.18896484375037 Q -4.435501759763434 71.99941406250036 -5.187977726391699 70.79023437500038 Q -5.891560595577671 69.58105468750037 -6.539291639037835 68.35224609375038 Q -7.12377987480483 67.12343750000038 -7.636695169285696 65.87500000000037 L -7.636695169285696 65.87500000000037 Q -8.07349761060578 64.62656250000038 -8.414344375411579 63.398144531250374 Q -8.673892925852119 62.16972656250037 -8.836759020021011 60.96132812500037 Q -8.916716330058708 59.75292968750036 -8.902797635817093 58.56455078125037 Q -8.807625035115928 57.37617187500037 -8.624443042725837 56.207812500000365 Q -8.364512415882725 55.039453125000364 -8.024946791081517 53.89111328125036 Q -7.615502596365291 52.74277343750037 -7.136711267644203 51.61445312500037 Q -6.596753123235909 50.48613281250036 -5.999046542970869 49.377832031250364 Q -5.3501955182715175 48.26953125000037 -4.6559233253016625 47.18125000000036 Q -3.921325709634288 46.09296875000035 -3.1538240035112666 45.02470703125036 Q -2.357135795786551 43.956445312500364 -1.539772481270146 42.90820312500037 Q -0.7042569523490858 41.85996093750036 0.14039814523225624 40.83173828125037 Q 0.9926380598614556 39.80351562500036 1.843501790233177 38.79531250000036 Q 2.6921442957685056 37.78710937500036 3.5301601476943727 36.79892578125036 Q 4.35713523790961 35.81074218750036 5.165665210146744 34.84257812500036 Q 5.955479026287977 33.87441406250036 6.7205543738687075 32.92626953125036 Q 7.460476873563721 31.97812500000036 8.17091963020871 31.05000000000036 Q 8.850424403412283 30.121875000000358 9.494880125669374 29.220117187500357 Q 10.105620923905317 28.318359375000362 10.680557142842538 27.44296875000036 Q 11.219703315620691 26.56757812500036 11.723730361691203 25.718554687500358 Q 12.19107215852241 24.869531250000357 12.625202277635594 24.046875000000362 Q 13.02276701826424 23.22421875000036 13.390022592897973 22.427929687500363 Q 13.721675322255349 21.631640625000365 14.026692172925195 20.861718750000367 Q 14.297739955376606 20.091796875000366 14.546382636883235 19.348242187500368 Q 14.76319756380393 18.604687500000367 14.962199571806611 17.887500000000365 Q 15.131871640827814 17.170312500000367 15.288509703566993 16.47949218750037 Q 15.418537143013268 15.788671875000372 15.540345424121135 15.12421875000037 Q 15.638366889154463 14.459765625000372 15.732894049646674 13.821679687500373 Q 15.806464464048371 13.183593750000373 15.881074158765323 12.571875000000372 Q 15.937483833986482 11.96015625000037 15.999197348346327 11.374804687500372 Q 16.04533236411355 10.789453125000374 16.100710703112107 10.230468750000375 Q 16.142951343877826 9.671484375000375 16.198013120918414 9.138867187500377 Q 16.242166377762132 8.606250000000378 16.30233725945202 8.100000000000378 Q 16.354223967824602 7.593750000000377 16.428956447925337 7.119140625000375 Q 16.49669336138191 6.644531250000374 16.58997308729308 6.201562500000373 Q 16.67787321782482 5.758593750000371 16.79355990457661 5.34726562500037 Q 16.905204051085423 4.935937500000369 17.04646469197441 4.556250000000368 Q 17.184765415913585 4.176562500000367 17.35414321571851 3.828515625000366 Q 17.52141733934202 3.480468750000365 17.72090662856285 3.164062500000364 Q 17.918951885868736 2.8476562500003633 18.150075111650526 2.5628906250003625 Q 18.380247400286 2.2781250000003617 18.644131071055746 2.025000000000361 Q 18.907419502700275 1.7718750000003602 19.20486666438986 1.5503906250003596 Q 19.501964272024722 1.328906250000359 19.833521700190637 1.1390625000003585 Q 20.164890223522452 0.9492187500003579 20.530909022377802 0.7910156250003575 Q 20.89683665543133 0.632812500000357 21.297525362984594 0.5062500000003567 Q 21.69817671412603 0.37968750000035634 22.1336463282579 0.28476562500035607 Q 22.351376455797148 0.23730468750035594 22.577816326383584 0.19775390625035583 Q 22.80425477159482 0.15820312500035572 23.039404693052187 0.12656250000035563 Q 23.274554030661317 0.09492187500035554 23.51841573852098 0.07119140625035547 Q 23.762277261645217 0.047460937500355405 24.01485153817283 0.03164062500035536 Q 24.26742577820933 0.015820312500355316 24.528712890245142 0.007910156250355294 Q 24.79000000000026 3.552713678800501e-13 25.060000000000258 3.552713678800501e-13 L 25.060000000000258 3.552713678800501e-13 Q 25.334375000000257 3.552713678800501e-13 25.611322265230886 0.008007812500355274 Q 25.888269528095304 0.016015625000355277 26.16778903726064 0.03203125000035528 Q 26.44730850856659 0.04804687500035529 26.729400103130644 0.0720703125003553 Q 27.011491506032424 0.0960937500003553 27.296154634672806 0.12812500000035532 Q 27.58081715757315 0.16015625000035533 27.8680504786867 0.20019531250035533 Q 28.15528232098052 0.24023437500035535 28.445083163303654 0.28828125000035537 Q 28.73488093928809 0.33632812500035536 29.027244620777893 0.3923828125003554 Q 29.319602621928578 0.4484375000003554 29.614521627189124 0.5125000000003554 Q 30.204329359523793 0.6406250000003555 30.804332274291603 0.8007812500003555 Q 31.404240606489644 0.9609375000003556 32.01422917106423 1.1531250000003557 Q 32.62402175443356 1.3453125000003556 33.24369698587738 1.5695312500003558 Q 33.8630095796895 1.793750000000356 34.49189247606066 2.050000000000356 Q 35.12015788186925 2.306250000000356 35.757529555719884 2.594531250000356 Q 36.393914809190555 2.882812500000356 37.0387493633509 3.203125000000356 Q 37.68208614106471 3.5234375000003566 38.33297747276159 3.8757812500003563 Q 38.981687104996546 4.2281250000003565 39.636771315703626 4.612500000000357 Q 40.288786334039266 4.996875000000357 40.945662019625324 5.413281250000357 Q 41.59834681130343 5.829687500000357 42.25399620741357 6.278125000000357 Q 42.90407009057131 6.726562500000357 43.55478484085765 7.207031250000357 Q 44.198251700568775 7.687500000000358 44.839567878911915 8.200000000000358 Q 45.47079472330918 8.710937500000357 46.09468822800452 9.247949218750357 Q 46.70738501985845 9.784960937500356 47.30952010315747 10.348046875000357 Q 47.89820723622162 10.911132812500357 48.47272986855007 11.500292968750356 Q 49.031348286181775 12.089453125000356 49.571847033291704 12.704687500000356 Q 50.093813034779686 13.319921875000356 50.59339086799068 13.961230468750356 Q 51.071682520783376 14.602539062500357 51.52306263939026 15.269921875000357 Q 51.950341841893575 15.937304687500355 52.34601127575677 16.630761718750357 Q 52.71478488241263 17.32421875000036 53.047178818076944 18.043750000000358 Q 53.35000123644821 18.763281250000357 53.61172978603219 19.50888671875036 Q 53.84144803184074 20.25449218750036 54.02556549263708 21.026171875000365 Q 54.17560580176632 21.797851562500362 54.27592030320902 22.595605468750364 Q 54.34061302665236 23.393359375000365 54.35203181986698 24.217187500000364 Q 54.32696847206222 25.041015625000366 54.24587100662364 25.89091796875037 Q 54.12828403850442 26.74082031250037 53.952911452550886 27.616796875000375 Q 53.742063661388755 28.49277343750037 53.472909495409155 29.394824218750376 Q 53.17047610063378 30.296875000000377 52.8106590999065 31.225000000000378 Q 52.42170660441229 32.15312500000038 51.98332986533383 33.10126953125038 Q 51.52043598864198 34.049414062500375 51.01296537279996 35.01757812500038 Q 50.48748901206196 35.98574218750038 49.92382761330804 36.97392578125038 Q 49.3498982270819 37.96210937500038 48.745688230629995 38.970312500000375 Q 48.140075849855506 39.97851562500038 47.51350220827149 41.006738281250385 Q 46.89535804949901 42.03496093750039 46.26681547740354 43.083203125000374 Q 45.65727162822906 44.13144531250037 45.04888572413544 45.19970703125037 Q 44.47050736829631 46.26796875000038 43.90550646318019 47.35625000000037 Q 43.38159659693609 48.44453125000037 42.8835381998745 49.55283203125036 Q 42.43730271033091 50.66113281250037 42.02916706476704 51.78945312500037 Q 41.68275723112669 52.91777343750036 41.3859302817267 54.06611328125037 Q 41.15938992828637 55.21445312500036 40.992568560219 56.382812500000355 Q 40.90272379783207 57.551171875000364 40.88078703156776 58.73955078125036 Q 40.940127185485196 59.92792968750037 41.07302742585073 61.13632812500036 Q 41.288635631052934 62.344726562500355 41.580373276642085 63.57314453125036 Q 41.95297346935347 64.80156250000036 42.40072527324737 66.05000000000035 L 42.40072527324737 66.05000000000035 Z M 7.050725273247368 66.05000000000035 L 7.050725273247368 66.05000000000035 Q 7.504478376388955 67.14218750000036 8.007486909768907 68.20478515625037 Q 8.558318852599006 69.26738281250037 9.145621150241595 70.30039062500036 Q 9.770546322876596 71.33339843750036 10.41962458172307 72.33681640625036 Q 11.096300462551028 73.34023437500036 11.785704696731784 74.31406250000036 Q 12.493216396602978 75.28789062500037 13.20323880453685 76.23212890625037 Q 13.922683933723714 77.17636718750036 14.635839156860625 78.09101562500035 Q 15.350723349412627 79.00566406250036 16.052049339561933 79.89072265625036 Q 16.7485106464067 80.77578125000036 17.425711186101044 81.63125000000036 Q 18.092596591515385 82.48671875000036 18.73605020084077 83.31259765625038 Q 19.364870098816628 84.13847656250039 19.967531524288354 84.93476562500037 Q 20.552318550948023 85.73105468750036 21.10953871930662 86.49775390625037 Q 21.646636332634536 87.26445312500036 22.15592501519044 88.00156250000036 Q 22.643729084024976 88.73867187500036 23.104481973863464 89.44619140625036 Q 23.543155781775823 90.15371093750035 23.956364603862042 90.83164062500035 Q 24.347544430081022 91.50957031250033 24.715505388426884 92.15791015625032 Q 25.062010472846495 92.80625000000032 25.388043029792314 93.42500000000032 Q 25.6936004730789 94.04375000000033 25.982806470819767 94.62382812500033 Q 26.2534107484703 95.20390625000033 26.51211166378026 95.74531250000034 Q 26.75424929991709 96.28671875000035 26.98892697631515 96.78945312500034 Q 27.209137982969892 97.29218750000032 27.426205882078225 97.75625000000034 Q 27.630877766544092 98.22031250000035 27.836504185333553 98.64570312500035 Q 28.031715871824833 99.07109375000034 28.231693637787775 99.45781250000036 Q 28.423103265135545 99.84453125000036 28.622759454403493 100.19257812500037 Q 28.815529330750998 100.54062500000036 29.019668172927073 100.85000000000035 Q 29.21842000617886 101.15937500000032 29.431292199465297 101.43007812500034 Q 29.640085940638144 101.70078125000033 29.865377973853832 101.93281250000034 Q 30.087708090589253 102.16484375000034 30.32854574769801 102.35820312500036 Q 30.567349389680896 102.55156250000034 30.826310312143843 102.70625000000035 Q 31.08398256345697 102.86093750000035 31.363113501925696 102.97695312500036 Q 31.64152568236701 103.09296875000035 31.942360837135055 103.17031250000035 Q 32.24287857840601 103.24765625000035 32.566456179634216 103.28632812500035 Q 32.88995474178937 103.32500000000036 33.236829741789364 103.32500000000036 L 33.236829741789364 103.32500000000036 Q 33.596829741789364 103.32500000000036 33.954424929634214 103.28632812500035 Q 34.31194107840601 103.24765625000035 34.66673583713506 103.17031250000035 Q 35.02121318236701 103.09296875000035 35.3723322519257 102.97695312500036 Q 35.72273256345697 102.86093750000035 36.06881031214384 102.70625000000035 Q 36.4135993896809 102.55156250000034 36.75276449769801 102.35820312500036 Q 37.08989559058925 102.16484375000034 37.41975297385383 101.93281250000034 Q 37.74664844063814 101.70078125000033 38.0642609494653 101.43007812500034 Q 38.37779500617886 101.15937500000032 38.67966817292707 100.85000000000035 Q 38.976154330751 100.54062500000036 39.258228204403494 100.19257812500037 Q 39.533415765135544 99.84453125000036 39.791068637787774 99.45781250000036 Q 40.04015337182483 99.07109375000034 40.268222935333554 98.64570312500035 Q 40.48587776654409 98.22031250000035 40.67870588207822 97.75625000000034 Q 40.85913798296989 97.29218750000032 41.01064572631515 96.78945312500034 Q 41.14768679991709 96.28671875000035 41.251486663780256 95.74531250000034 Q 41.3387232484703 95.20390625000033 41.388275220819764 94.62382812500033 Q 41.419225473078896 94.04375000000033 41.40804302979231 93.42500000000032 Q 41.376385472846486 92.80625000000032 41.305856950926874 92.15791015625032 Q 41.21387255508102 91.50957031250033 41.08027085386204 90.83164062500035 Q 40.92464015677582 90.15371093750035 40.72514603636347 89.44619140625036 Q 40.50357283402498 88.73867187500036 40.236550015190446 88.00156250000036 Q 39.94804258263454 87.26445312500036 39.61332778180663 86.49775390625037 Q 39.258490425948025 85.73105468750036 38.85768777428836 84.93476562500037 Q 38.43901072381664 84.13847656250039 37.97577676334078 83.31259765625038 Q 37.497909091515396 82.48671875000036 36.97821118610105 81.63125000000036 Q 36.4481981464067 80.77578125000036 35.88052590206194 79.89072265625036 Q 35.30798897441263 79.00566406250036 34.70349540686062 78.09101562500035 Q 34.10073080872371 77.17636718750036 33.47327786703684 76.23212890625037 Q 32.85524764660297 75.28789062500037 32.221329696731786 74.31406250000036 Q 31.60551921255103 73.34023437500036 30.984038644223077 72.33681640625036 Q 30.3901556978766 71.33339843750036 29.802027400241602 70.30039062500036 Q 29.251521977599005 69.26738281250037 28.719088472268904 68.20478515625037 Q 28.234478376388957 67.14218750000036 27.78072527324737 66.05000000000035 L 27.78072527324737 66.05000000000035 Q 27.385246001675284 64.95937500000036 27.049420284809845 63.89755859375036 Q 26.773388315664885 62.83574218750036 26.554833929469474 61.802734375000355 Q 26.396066419731618 60.76972656250036 26.290465636850346 59.765527343750364 Q 26.242780832417456 58.76132812500036 26.242283316932014 57.78593750000036 Q 26.296338593976316 56.81054687500036 26.39039505281412 55.86396484375037 Q 26.534518518238468 54.917382812500364 26.710686624684836 53.99960937500036 Q 26.93166358474575 53.08183593750036 27.17635316796534 52.192871093750355 Q 27.460139196206455 51.30390625000036 27.759273738347943 50.44375000000035 Q 28.09161576128615 49.58359375000035 28.431196323630616 48.752246093750344 Q 28.798151682693423 47.92089843750034 29.164717178887585 47.118359375000345 Q 29.553067784826702 46.31582031250035 29.934051878416454 45.54208984375035 Q 30.331616261639496 44.768359375000344 30.71560606224218 44.02343750000035 Q 31.111456365211648 43.27851562500035 31.488361605062135 42.56240234375035 Q 31.872955469405092 41.84628906250034 32.2340990985594 41.158984375000344 Q 32.599338131537976 40.47167968750035 32.937480454486135 39.813183593750345 Q 33.27670770754406 39.15468750000035 33.586016492981955 38.52500000000035 Q 33.89396534881246 37.89531250000035 34.158186542902556 37.30498046875035 Q 34.41926591933778 36.71464843750036 34.63557450095611 36.163671875000354 Q 34.84758312747977 35.61269531250035 35.01454709255657 35.101074218750355 Q 35.17657611168151 34.589453125000354 35.293904821823894 34.117187500000355 Q 35.40608717166394 33.644921875000364 35.47438795910878 33.21201171875036 Q 35.5376601008766 32.779101562500365 35.55821111872667 32.385546875000365 Q 35.574093729506984 31.99199218750037 35.54863812947622 31.637792968750368 Q 35.51903970755884 31.28359375000037 35.44960385430433 30.96875000000037 Q 35.37664904807107 30.653906250000375 35.26538563295135 30.378417968750373 Q 35.15126848249331 30.10292968750037 35.0003240437947 29.866796875000375 Q 34.847185170877644 29.630664062500376 34.658590607925916 29.433886718750376 Q 34.468416645284634 29.237109375000372 34.24399876771109 29.079687500000375 Q 34.01854191865698 28.922265625000378 33.75985383513543 28.804199218750377 Q 33.50056933564361 28.68613281250038 33.20883749739355 28.607421875000377 Q 32.9168368562357 28.528710937500378 32.59292277395495 28.489355468750375 Q 32.26894093955098 28.45000000000038 31.91331593955098 28.45000000000038 L 31.91331593955098 28.45000000000038 Q 31.55769093955098 28.45000000000038 31.196594648954953 28.489355468750375 Q 30.835430606235697 28.528710937500378 30.46852499739355 28.607421875000377 Q 30.10135058564361 28.68613281250038 29.727900710135426 28.804199218750377 Q 29.353854418656976 28.922265625000378 28.972748767711092 29.079687500000375 Q 28.590604145284633 29.237109375000372 28.200387482925915 29.433886718750376 Q 27.808591420877647 29.630664062500376 27.407511543794694 29.866796875000375 Q 27.00423723249331 30.10292968750037 26.590307507951348 30.378417968750373 Q 26.173524048071073 30.653906250000375 25.74460385430433 30.96875000000037 Q 25.312164707558843 31.28359375000037 24.866060004476218 31.637792968750368 Q 24.415812479506986 31.99199218750037 23.950398618726673 32.385546875000365 Q 23.480316350876606 32.779101562500365 22.993684834108784 33.21201171875036 Q 22.502024671663946 33.644921875000364 21.992654821823894 34.117187500000355 Q 21.47813861168152 34.589453125000354 20.945093967556573 35.101074218750355 Q 20.40711437747978 35.61269531250035 19.850262000956118 36.163671875000354 Q 19.289109669337787 36.71464843750036 18.70935841790256 37.30498046875035 Q 18.126465348812456 37.89531250000035 17.526016492981956 38.52500000000035 Q 16.924832707544073 39.15468750000035 16.31197264198614 39.813183593750345 Q 15.700197506537979 40.47167968750035 15.079567848559401 41.158984375000344 Q 14.46303359440509 41.84628906250034 13.841291292562131 42.56240234375035 Q 13.227237615211646 43.27851562500035 12.612481062242177 44.02343750000035 Q 12.00958501163949 44.768359375000344 11.411356565916442 45.54208984375035 Q 10.829708409826694 46.31582031250035 10.258935928887578 47.118359375000345 Q 9.709948557693414 47.92089843750034 9.178813511130603 48.752246093750344 Q 8.67505326128614 49.58359375000035 8.196773738347938 50.44375000000035 Q 7.751701696206448 51.30390625000036 7.340220355465332 52.192871093750355 Q 6.967835459745748 53.08183593750036 6.637405374684837 53.99960937500036 Q 6.351784143238472 54.917382812500364 6.116449740314124 55.86396484375037 Q 5.931182343976321 56.81054687500036 5.804158316932014 57.78593750000036 Q 5.731687082417453 58.76132812500036 5.7246453243503375 59.765527343750364 Q 5.77551954473161 60.76972656250036 5.897802679469466 61.802734375000355 Q 6.079872690664885 62.83574218750036 6.337662472309848 63.89755859375036 Q 6.65524600167528 64.95937500000036 7.050725273247368 66.05000000000035 L 7.050725273247368 66.05000000000035 Z" fill="black" stroke="black" />
				</svg>