<svg
					xmlns="http://www.w3.org/2000/svg" xmlns:xlink="http://www.w3.org/1999/xlink"
					style="
						overflow: visible;
						height: 100;
					"
					viewBox="-8.987191326077996 3.552713678800501e-14 54.55273787504065 128.525"
				>
					<path d="M 2.5579538487363607e-14 3.552713678800501e-14 L 0.5265625000000256 3.552713678800501e-14 L 1.0531250000000256 3.552713678800501e-14 L 1.5796875000000257 3.552713678800501e-14 L 2.106250000000026 3.552713678800501e-14 L 2.6328125000000258 3.552713678800501e-14 L 3.159375000000026 3.552713678800501e-14 L 3.6859375000000263 3.552713678800501e-14 L 4.212500000000026 3.552713678800501e-14 L 4.739062500000026 3.552713678800501e-14 L 5.265625000000026 3.552713678800501e-14 L 5.7921875000000265 3.552713678800501e-14 L 6.318750000000026 3.552713678800501e-14 L 6.845312500000026 3.552713678800501e-14 L 7.371875000000027 3.552713678800501e-14 L 7.898437500000027 3.552713678800501e-14 L 8.425000000000026 3.552713678800501e-14 L 8.951562500000026 3.552713678800501e-14 L 9.478125000000025 3.552713678800501e-14 L 10.004687500000024 3.552713678800501e-14 L 10.531250000000025 3.552713678800501e-14 L 11.057812500000026 3.552713678800501e-14 L 11.584375000000026 3.552713678800501e-14 L 12.110937500000027 3.552713678800501e-14 L 12.637500000000026 3.552713678800501e-14 L 13.164062500000025 3.552713678800501e-14 L 13.690625000000026 3.552713678800501e-14 L 14.217187500000026 3.552713678800501e-14 L 14.743750000000027 3.552713678800501e-14 L 15.270312500000028 3.552713678800501e-14 L 15.796875000000027 3.552713678800501e-14 L 16.323437500000026 3.552713678800501e-14 L 16.850000000000026 3.552713678800501e-14 Q 17.177343750000027 3.552713678800501e-14 17.506248046262993 0.009271240234410526 Q 17.835152338853764 0.018542480468785524 18.16561714832994 0.03708496093753552 Q 18.496081899051063 0.05562744140628552 18.82810697570408 0.08344116210941052 Q 19.160131754911472 0.11125488281253551 19.49371624313118 0.1483398437500355 Q 19.8272997912912 0.1854248046875355 20.162441609026345 0.2317810058594105 Q 20.4975811317725 0.27813720703128547 20.83427613351388 0.3337646484375355 Q 21.170966376661266 0.3893920898437855 21.50920729657896 0.4542907714844105 Q 21.84743940151223 0.5191894531250354 22.18721457733893 0.5933593750000354 Q 22.52697471753883 0.6675292968750355 22.868266596225315 0.7509704589844104 Q 23.20953439620734 0.8344116210937855 23.552317822985977 0.9271240234375354 Q 23.895064561622334 1.0198364257812853 24.23930485493017 1.1218200683594104 Q 24.583491456042694 1.2238037109375353 24.92914227180626 1.3350585937500354 Q 25.274717086082124 1.4463134765625352 25.62171807618039 1.5668395996094104 Q 25.968614459902728 1.6873657226562855 26.316888731229895 1.8171630859375354 Q 26.665022429058162 1.9469604492187853 27.014473811530205 2.08602905273441 Q 27.36374015263581 2.225097656250035 27.71425028674776 2.373437500000035 Q 28.414538156857574 2.6701171875000353 29.11923561402203 3.003881835937535 Q 29.822405990151875 3.3376464843750355 30.528970672943068 3.708496093750035 Q 31.233219645156424 4.079345703125035 31.93948321691012 4.487280273437535 Q 32.642379580701274 4.8952148437500345 33.34547644139391 5.340234375000035 Q 34.04384731202365 5.785253906250034 34.740100392153956 6.267358398437535 Q 35.42991957232737 6.749462890625035 36.11473243035944 7.268652343750035 Q 36.791018238117495 7.787841796875035 37.45878104265321 8.344116210937534 Q 38.11551188018097 8.900390625000034 38.75953046904594 9.493750000000034 Q 39.389588021105936 10.087109375000034 40.002046815601275 10.717553710937535 Q 40.5971982891086 11.347998046875034 41.169169261613646 12.015527343750033 Q 41.72010135509976 12.683056640625034 42.241612318117724 13.387670898437534 Q 42.73803043778941 14.092285156250032 43.19820641517064 14.833984375000034 Q 43.62901278716097 15.575683593750034 44.016303876724685 16.354467773437534 Q 44.36986736134507 17.133251953125033 44.672375005564795 17.949121093750033 Q 44.93690329455745 18.764990234375034 45.142813932877345 19.617944335937533 Q 45.306835099297984 20.470898437500033 45.40496548655545 21.360937500000034 Q 45.45792028370133 22.250976562500032 45.438372079776315 23.178100585937532 Q 45.371310747646106 24.105224609375032 45.22622316871254 25.069433593750034 Q 45.03259072611476 26.033642578125033 44.756969109638995 27.03493652343753 Q 44.43345129624107 28.036230468750034 44.02603660420037 29.074609375000033 Q 43.57342515192079 30.112988281250033 43.03755524309842 31.188452148437534 Q 42.46157668158818 32.263916015625036 41.80597549889955 33.37646484375003 Q 41.118013290767266 34.48901367187503 40.357430204503444 35.63864746093753 Q 39.57505712428656 36.78828125000003 38.7306672296486 37.97500000000003 L 38.7306672296486 37.97500000000003 Q 38.20569636274469 38.70625000000003 37.67905550814578 39.42519531250003 Q 37.15278440406031 40.14414062500003 36.62824071273433 40.850781250000026 Q 36.107323897078324 41.557421875000024 35.591106682544485 42.25175781250002 Q 35.081449395785555 42.94609375000002 34.579023780462755 43.628125000000026 Q 34.085749558579735 44.31015625000002 33.60179452267548 44.97988281250002 Q 33.12923221417004 45.649609375000026 32.667636876787085 46.30703125000002 Q 32.219324899102446 46.96445312500002 31.7832007748138 47.60957031250001 Q 31.361906300179363 48.25468750000002 30.95361320344109 48.88750000000002 Q 30.561363929237217 49.52031250000002 30.18254720002875 50.14082031250002 Q 29.82067339036562 50.76132812500002 29.472310175742763 51.369531250000016 Q 29.141494747438838 51.97773437500001 28.82394718379288 52.57363281250001 Q 28.52428174002773 53.16953125000001 28.237355028798785 53.75312500000001 Q 27.9683999067418 54.33671875000002 27.711403451931876 54.90800781250002 Q 27.472250036815005 55.47929687500002 27.244060006623947 56.03828125000001 Q 27.033393765244973 56.59726562500001 26.83251564431272 57.14394531250001 Q 26.648678538140864 57.69062500000001 26.473308444147243 58.225000000000016 Q 26.314359589508186 58.75937500000002 26.165014225977906 59.28291015625001 Q 26.03144686585724 59.80644531250002 25.906137604234306 60.31914062500002 Q 25.795869962233645 60.83183593750002 25.692449349299707 61.33369140625001 Q 25.603260901401764 61.83554687500002 25.51946607141921 62.326562500000016 Q 25.449039620662596 62.817578125000026 25.382532386427663 63.29775390625002 Q 25.328492673186446 63.77792968750002 25.276896049483376 64.24726562500001 Q 25.236844698956617 64.71660156250002 25.19777571169936 65.17509765625002 Q 25.16932241471485 65.63359375000003 25.140421137043308 66.08125000000003 Q 25.12121104285201 66.52890625 25.100165875536696 66.96572265625001 Q 25.087903245989292 67.40253906250001 25.072472523907116 67.82851562500001 Q 25.064940757599743 68.25449218750002 25.052970817230356 68.66962890625003 Q 25.048049000434663 69.08476562500002 25.03748888593031 69.48906250000002 Q 25.033165065095172 69.89335937500002 25.022078083276064 70.28681640625001 Q 25.016459482435945 70.68027343750002 25.003031840929058 71.06289062500002 Q 24.994352267381142 71.44550781250003 24.976899045981412 71.81728515625002 Q 24.963523740046686 72.18906250000002 24.940492454188604 72.55000000000003 L 24.940492454188604 72.55000000000003 L 26.563124218830755 74.29921875000002 L 28.244309951562748 76.04843750000002 L 29.960333625369838 77.79765625000002 L 31.686798111681995 79.54687500000003 L 33.39910215810859 81.29609375000001 L 35.072921356909724 83.04531250000002 L 36.684683700997226 84.79453125000003 L 38.212030430075245 86.54375000000002 L 39.634253157116156 88.29296875 L 40.93269872910078 90.04218750000001 L 42.09113390676519 91.79140625000002 L 43.09606273365781 93.540625 L 43.93699038976125 95.28984375000002 L 44.606628371190446 97.03906250000003 L 45.10103698458755 98.78828125000001 L 45.41970237036703 100.53750000000002 L 45.56554654896265 102.28671875000003 L 45.54487029366676 104.03593750000002 L 45.36722994693002 105.78515625000003 L 45.04525058843321 107.53437500000004 L 44.594379207601555 109.28359375000002 L 44.032582706178815 111.03281250000003 L 43.379996635083224 112.78203125000005 L 42.658531532938845 114.53125000000003 L 41.89144456258815 116.28046875000003 L 41.102884820335476 118.02968750000004 L 40.31742120738429 119.77890625000003 L 39.55956209384997 121.52812500000003 L 38.85327616618954 123.27734375000003 L 38.221523825754105 125.02656250000003 L 37.68580829988828 126.77578125000004 L 37.265755241609696 128.52500000000003 L 36.28013024160969 128.52500000000003 L 35.29450524160969 128.52500000000003 L 34.30888024160969 128.52500000000003 L 33.323255241609694 128.52500000000003 L 32.337630241609695 128.52500000000003 L 31.352005241609696 128.52500000000003 L 30.366380241609697 128.52500000000003 L 29.380755241609698 128.52500000000003 L 28.3951302416097 128.52500000000003 L 27.4095052416097 128.52500000000003 L 26.4238802416097 128.52500000000003 L 25.438255241609703 128.52500000000003 L 24.452630241609704 128.52500000000003 L 23.467005241609705 128.52500000000003 L 22.4813802416097 128.52500000000003 L 21.4957552416097 128.52500000000003 L 21.89024572403833 127.06250000000003 L 22.367734605300406 125.60000000000002 L 22.91704831289456 124.13750000000002 L 23.52603118535698 122.67500000000001 L 24.181711681378307 121.21250000000002 L 24.870479744764896 119.75000000000001 L 25.578272900064196 118.28750000000002 L 26.290768534295562 116.82500000000003 L 26.993579735643337 115.36250000000003 L 27.672452011333178 113.90000000000003 L 28.313458194890888 112.43750000000004 L 28.903188877740625 110.97500000000004 L 29.428935761296856 109.51250000000003 L 29.87886542250481 108.05000000000004 L 30.24218111686552 106.58750000000003 L 30.5092704065492 105.12500000000003 L 30.67183659501989 103.66250000000002 L 30.723012171014574 102.20000000000002 L 30.657452710712555 100.73750000000003 L 30.471409954134145 99.27500000000002 L 30.162783056566475 97.81250000000001 L 29.73114731423545 96.35000000000002 L 29.177759971446733 94.88750000000003 L 28.50554302979223 93.42500000000003 L 27.719043294478713 91.96250000000003 L 26.824370204080573 90.50000000000004 L 25.82911229379499 89.03750000000004 L 24.742233434430073 87.57500000000005 L 23.57395026589085 86.11250000000004 L 22.335592501063083 84.65000000000003 L 21.03944801021458 83.18750000000003 L 19.69859480413557 81.72500000000002 L 18.81609480413557 81.72500000000002 L 17.933594804135573 81.72500000000002 L 17.051094804135573 81.72500000000002 L 16.168594804135573 81.72500000000002 L 17.169760510214584 83.18750000000003 L 18.12621750106309 84.65000000000003 L 19.024887765890853 86.11250000000004 L 19.853483434430075 87.57500000000005 L 20.60067479379499 89.03750000000004 L 21.256245204080578 90.50000000000004 L 21.811230794478714 91.96250000000003 L 22.258043029792233 93.42500000000003 L 22.590572471446734 94.88750000000003 L 22.80427231423545 96.35000000000002 L 22.896220556566476 97.81250000000001 L 22.86515995413415 99.27500000000002 L 22.711515210712555 100.73750000000003 L 22.437387171014574 102.20000000000002 L 22.04652409501989 103.66250000000002 L 21.5442704065492 105.12500000000003 L 20.93749361686552 106.58750000000003 L 20.23449042250481 108.05000000000004 L 19.444873261296856 109.51250000000003 L 18.57943887774063 110.97500000000004 L 17.650020694890888 112.43750000000004 L 16.669327011333177 113.90000000000003 L 15.650767235643336 115.36250000000003 L 14.608268534295561 116.82500000000003 L 13.556085400064195 118.28750000000002 L 12.508604744764895 119.75000000000001 L 11.480149181378305 121.21250000000002 L 10.48478118535698 122.67500000000001 L 9.53611081289456 124.13750000000002 L 8.647109605300402 125.60000000000002 L 7.829933224038327 127.06250000000003 L 7.0957552416097 128.52500000000003 L 6.2270052416096995 128.52500000000003 L 5.358255241609699 128.52500000000003 L 4.489505241609699 128.52500000000003 L 3.6207552416096984 128.52500000000003 L 2.752005241609698 128.52500000000003 L 1.8832552416096977 128.52500000000003 L 1.0145052416096982 128.52500000000003 L 0.14575524160969877 128.52500000000003 L -0.7229947583903016 128.52500000000003 L -1.591744758390302 128.52500000000003 L -2.4604947583903023 128.52500000000003 L -3.3292447583903018 128.52500000000003 L -4.197994758390302 128.52500000000003 L -5.066744758390302 128.52500000000003 L -5.935494758390302 128.52500000000003 L -6.804244758390302 128.52500000000003 L -5.774285378155724 126.51679687500004 L -4.595609488518613 124.50859375000005 L -3.298573844045862 122.50039062500005 L -1.9165835504750919 120.49218750000003 L -0.4852317174343087 118.48398437500002 L 0.9586172407990071 116.47578125000003 L 2.377777046943631 114.46757812500003 L 3.735697291930342 112.45937500000004 L 4.997404789354885 110.45117187500004 L 6.130404308618916 108.44296875000003 L 7.105515488409294 106.43476562500001 L 7.897624375839936 104.42656250000002 L 8.486330235392803 102.41835937500002 L 8.856470969117447 100.41015625000003 L 8.998513615910925 98.40195312500003 L 8.908799872583488 96.39375000000003 L 8.589640313323857 94.38554687500002 L 8.049254880945238 92.37734375000002 L 7.301561182557831 90.36914062500003 L 6.365816042105086 88.36093750000003 L 5.266119541565109 86.35273437500004 L 4.030794324217902 84.34453125000003 L 2.6916561460002537 82.33632812500002 L 1.283194461871512 80.32812500000003 L -0.15831584884157854 78.31992187500003 L -1.5957487406394568 76.31171875000003 L -2.9920831817980336 74.30351562500002 L -4.311356629691119 72.29531250000002 L -5.519591244764717 70.28710937500003 L -6.585668988555955 68.27890625000003 L -7.482133067639243 66.27070312500003 L -8.185895082339997 64.26250000000003 L -8.678829667626497 62.25429687500004 L -8.948241311225502 60.246093750000036 L -8.987191326077996 58.237890625000034 L -8.794676555971451 56.22968750000004 L -8.375655211791488 54.22148437500003 L -7.740919172981292 52.21328125000003 L -6.906816043079988 50.205078125000036 L -5.8948281177894595 48.196875000000034 L -4.731019109231742 46.188671875000026 L -3.445362875993508 44.18046875000003 L -2.0709714474909102 42.17226562500003 L -0.6432422248591435 40.16406250000003 L 0.8010536778233273 38.15585937500003 L 2.2247184722372957 36.14765625000003 L 3.5910857235048783 34.13945312500003 L 4.864964692883028 32.13125000000004 L 6.013546673956944 30.123046875000036 L 7.007249979677679 28.114843750000034 L 7.820481817633616 26.106640625000033 L 8.432297431486019 24.098437500000035 L 8.82693953240495 22.090234375000037 L 8.994244127468622 20.082031250000032 L 8.929902292930564 18.073828125000034 L 8.635571150393599 16.065625000000033 L 8.118831187703405 14.057421875000035 L 7.392991023760388 12.049218750000035 L 6.476744645525103 10.041015625000034 L 5.393689945065604 8.032812500000034 L 4.1717209567075315 6.024609375000035 L 2.842309447196988 4.016406250000035 L 1.4396943614953497 2.008203125000035 L 2.5579538487363607e-14 3.552713678800501e-14 L 2.5579538487363607e-14 3.552713678800501e-14 Z M 24.399781538251794 26.275000000000013 L 24.399781538251794 26.275000000000013 L 23.714781538251795 26.275000000000013 L 23.029781538251793 26.275000000000013 L 22.344781538251794 26.275000000000013 L 21.659781538251796 26.275000000000013 L 20.90972025258011 28.109375000000014 L 20.008971418168912 29.943750000000016 L 18.97689838034391 31.778125000000017 L 17.835687553196717 33.61250000000002 L 16.609871479530934 35.44687500000002 L 15.325801456215832 37.28125000000002 L 14.011081061889517 39.11562500000002 L 12.693972764433774 40.950000000000024 L 11.402790364345151 42.784375000000026 L 10.165290334611747 44.61875000000003 L 9.008075141427138 46.45312500000003 L 7.9560213725211835 48.28750000000003 L 7.03174496659989 50.12187500000003 L 6.255115039825883 51.95625000000003 L 5.642826760583423 53.790625000000034 L 5.208042454414247 55.625000000000036 L 5.855542454414248 55.625000000000036 L 6.503042454414247 55.625000000000036 L 7.150542454414246 55.625000000000036 L 7.798042454414247 55.625000000000036 Q 8.19429245441425 55.625000000000036 8.583339028747005 55.57031250000003 Q 8.972551775231734 55.515625000000036 9.355224980427565 55.40625000000004 Q 9.738560429798062 55.29687500000003 10.116676598991235 55.13281250000003 Q 10.49627308116014 54.96875000000003 10.872610390307425 54.75000000000003 Q 11.25155302103168 54.531250000000036 11.629807884070495 54.257812500000036 Q 12.012075032556474 53.984375000000036 12.396792163155974 53.65625000000003 Q 12.787171827428542 53.32812500000003 13.18363857823454 52.94531250000002 Q 13.587604455311277 52.56250000000002 14.001698232514983 52.12500000000002 Q 14.426462086742356 51.684375000000024 14.86416526427946 51.15820312500002 Q 15.314847883521658 50.632031250000026 15.786102001420868 50.020312500000024 Q 16.273687784944904 49.40859375000002 16.789565585311347 48.71132812500002 Q 17.324635579500487 48.01406250000003 17.89509213451199 47.23125000000003 Q 18.486533388099524 46.44843750000003 19.11892008369672 45.58007812500003 Q 19.77230453536019 44.71171875000003 20.46955899888145 43.757812500000036 Q 21.18522058288147 42.80390625000004 21.943794284140374 41.76445312500004 Q 22.7146983760729 40.725000000000044 23.5223615040081 39.600000000000044 L 23.5223615040081 39.600000000000044 Q 24.08926038966012 38.81250000000004 24.597722296419867 38.06875000000004 Q 25.103128086527107 37.32500000000003 25.547030693258073 36.62500000000003 Q 25.985007320633777 35.925000000000026 26.35985933401325 35.26875000000003 Q 26.72690774160829 34.61250000000003 27.03042752704814 34.00000000000003 Q 27.325106372632646 33.38750000000003 27.556838099676902 32.81875000000003 Q 27.779376668000577 32.25000000000003 27.940310712132526 31.72500000000003 Q 28.092234800248633 31.20000000000003 28.18444951353941 30.718750000000036 Q 28.268234629214025 30.237500000000036 28.294570672525325 29.80000000000004 Q 28.313660692626193 29.359375000000036 28.26430843888228 28.973828125000036 Q 28.2086750985223 28.58828125000003 28.08782053597423 28.25781250000003 Q 27.962114068125455 27.927343750000027 27.774202138514895 27.651953125000027 Q 27.582790039354464 27.376562500000023 27.331852062182715 27.15625000000002 Q 27.078609392511126 26.935937500000016 26.768085846372557 26.770703125000015 Q 26.456239060986835 26.605468750000014 26.088850571774344 26.49531250000002 Q 25.720865794223233 26.385156250000016 25.29852379860447 26.330078125000014 Q 24.876031538251794 26.275000000000013 24.399781538251794 26.275000000000013 L 24.399781538251794 26.275000000000013 Z" fill="black" stroke="black" />
				</svg>