<svg
					xmlns="http://www.w3.org/2000/svg" xmlns:xlink="http://www.w3.org/1999/xlink"
					style="
						overflow: visible;
						height: 100;
					"
					viewBox="0 0 47.94983548919649 128.52499999999998"
				>
					<path d="M 33.27331593955116 28.44999999999999 L 32.491906270799156 30.013671874999986 L 31.61560454255028 31.577343749999986 L 30.65810564270722 33.14101562499999 L 29.63437341269307 34.70468749999999 L 28.56040679177777 36.26835937499999 L 27.452989784842902 37.83203124999999 L 26.329429161101174 39.39570312499999 L 25.207283983028432 40.95937499999999 L 24.10409119244373 42.52304687499999 L 23.037091542292167 44.086718749999996 L 22.0229601572825 45.65039062499999 L 21.077545934191463 47.2140625 L 20.215623854500265 48.777734374999994 L 19.450664080233828 50.34140624999999 L 18.794621441584678 51.90507812499999 L 18.25774860621974 53.468749999999986 L 17.848435850069436 55.03242187499999 L 17.573079933669455 56.59609374999999 L 17.43598413326231 58.159765624999984 L 17.439290988977692 59.72343749999999 L 17.58294882110659 61.287109374999986 L 17.864712537754365 62.85078124999998 L 18.280178721250884 64.414453125 L 18.82285444498546 65.97812499999999 L 19.48425874519359 67.54179687499999 L 20.254055161889276 69.10546875 L 21.120213277586508 70.669140625 L 22.069196729274616 72.2328125 L 23.086174755386622 73.79648437499999 L 24.1552539716941 75.36015624999999 L 25.259726753922862 76.92382812499999 L 26.382332345353372 78.48749999999998 L 27.50552660880325 80.05117187499998 L 28.6117562072939 81.61484374999999 L 29.683732928492066 83.17851562499999 L 30.70470386576998 84.74218749999999 L 31.65871323348077 86.30585937499998 L 32.53085172478672 87.86953124999998 L 33.30748951506345 89.43320312499999 L 33.976489269491275 90.99687499999999 L 34.527395825940005 92.56054687499997 L 34.951599588773554 94.12421874999998 L 35.24247108004772 95.687890625 L 35.39546454532806 97.25156249999998 L 35.40818899497104 98.81523437499999 L 35.28044557063157 100.37890625 L 35.014230653031305 101.94257812499998 L 34.61370466241938 103.50625 L 34.085127039313505 105.069921875 L 33.436758421645756 106.63359374999999 L 32.67873154709348 108.197265625 L 31.822892898140488 109.76093750000001 L 30.882617564647234 111.324609375 L 29.872600217267355 112.88828125 L 28.80862545838866 114.45195312500002 L 27.70732113956547 116.015625 L 26.585898500610316 117.57929687499998 L 25.461883191464242 119.14296875 L 24.352841380449664 120.706640625 L 23.276105229299976 122.27031249999999 L 22.24850202525586 123.83398437499999 L 21.28609120336595 125.39765625 L 20.403913368820476 126.961328125 L 19.615755241609705 128.52499999999998 L 18.747630241609702 128.52499999999998 L 17.879505241609703 128.52499999999998 L 17.011380241609704 128.52499999999998 L 16.143255241609705 128.52499999999998 L 15.275130241609705 128.52499999999998 L 14.407005241609706 128.52499999999998 L 13.538880241609707 128.52499999999998 L 12.670755241609704 128.52499999999998 L 11.802630241609702 128.52499999999998 L 10.934505241609703 128.52499999999998 L 10.066380241609703 128.52499999999998 L 9.198255241609704 128.52499999999998 L 8.330130241609705 128.52499999999998 L 7.462005241609707 128.52499999999998 L 6.593880241609708 128.52499999999998 L 5.725755241609707 128.52499999999998 L 6.513913368820479 126.961328125 L 7.396091203365952 125.39765625 L 8.35850202525586 123.83398437499999 L 9.386105229299977 122.27031249999999 L 10.462841380449664 120.706640625 L 11.571883191464243 119.14296875 L 12.695898500610316 117.57929687499998 L 13.817321139565472 116.015625 L 14.91862545838866 114.45195312500002 L 15.982600217267356 112.88828125 L 16.992617564647237 111.324609375 L 17.93289289814049 109.76093750000001 L 18.788731547093477 108.197265625 L 19.546758421645755 106.63359374999999 L 20.195127039313512 105.069921875 L 20.72370466241938 103.50625 L 21.124230653031308 101.94257812499998 L 21.39044557063157 100.37890625 L 21.518188994971045 98.81523437499999 L 21.50546454532806 97.25156249999998 L 21.35247108004772 95.687890625 L 21.061599588773557 94.12421874999998 L 20.637395825940004 92.56054687499997 L 20.086489269491274 90.99687499999999 L 19.417489515063455 89.43320312499999 L 18.640851724786724 87.86953124999998 L 17.76871323348077 86.30585937499998 L 16.814703865769978 84.74218749999999 L 15.793732928492068 83.17851562499999 L 14.721756207293904 81.61484374999999 L 13.615526608803254 80.05117187499998 L 12.492332345353375 78.48749999999998 L 11.369726753922864 76.92382812499999 L 10.265253971694104 75.36015624999999 L 9.196174755386622 73.79648437499999 L 8.179196729274617 72.2328125 L 7.230213277586511 70.669140625 L 6.364055161889276 69.10546875 L 5.59425874519359 67.54179687499999 L 4.932854444985461 65.97812499999999 L 4.390178721250887 64.414453125 L 3.974712537754364 62.85078124999998 L 3.69294882110659 61.287109374999986 L 3.5492909889776936 59.72343749999999 L 3.5459841332623085 58.159765624999984 L 3.6830799336694575 56.59609374999999 L 3.958435850069435 55.03242187499999 L 4.36774860621974 53.468749999999986 L 4.904621441584679 51.90507812499999 L 5.56066408023383 50.34140624999999 L 6.325623854500268 48.777734374999994 L 7.187545934191462 47.2140625 L 8.132960157282504 45.65039062499999 L 9.14709154229217 44.086718749999996 L 10.214091192443732 42.52304687499999 L 11.317283983028434 40.95937499999999 L 12.439429161101176 39.39570312499999 L 13.562989784842904 37.83203124999999 L 14.67040679177777 36.26835937499999 L 15.74437341269307 34.70468749999999 L 16.768105642707223 33.14101562499999 L 17.72560454255028 31.577343749999986 L 18.601906270799155 30.013671874999986 L 19.38331593955116 28.44999999999999 L 18.60019093955116 28.44999999999999 L 17.81706593955116 28.44999999999999 L 17.03394093955116 28.44999999999999 L 16.25081593955116 28.44999999999999 L 15.467690939551161 28.44999999999999 L 14.68456593955116 28.44999999999999 L 13.901440939551161 28.44999999999999 L 13.118315939551161 28.44999999999999 L 12.335190939551161 28.44999999999999 L 11.552065939551161 28.44999999999999 L 10.768940939551161 28.44999999999999 L 9.985815939551161 28.44999999999999 L 9.202690939551161 28.44999999999999 L 8.41956593955116 28.44999999999999 L 7.636440939551162 28.44999999999999 L 6.853315939551162 28.44999999999999 L 7.611142203471145 26.67187499999999 L 8.215216057533185 24.89374999999999 L 8.653334627541627 23.11562499999999 L 8.916647496024094 21.33749999999999 L 8.999835489196487 19.559374999999992 L 8.901218129401233 17.781249999999993 L 8.622787582376017 16.003124999999994 L 8.170168413585351 14.224999999999994 L 7.552503966575986 12.446874999999995 L 6.782271658622813 10.668749999999996 L 5.875030924871353 8.890624999999996 L 4.849108902748096 7.112499999999997 L 3.725230206116628 5.334374999999998 L 2.526098268098497 3.5562499999999986 L 1.27593670983743 1.7781249999999993 L 0 0 L 0.60859375 0 L 1.2171875 0 L 1.8257812500000001 0 L 2.434375 0 L 3.04296875 0 L 3.6515625000000003 0 L 4.2601562500000005 0 L 4.86875 0 L 5.47734375 0 L 6.0859375 0 L 6.694531250000001 0 L 7.3031250000000005 0 L 7.91171875 0 L 8.520312500000001 0 L 9.12890625 0 L 9.7375 0 L 10.346093750000001 0 L 10.9546875 0 L 11.56328125 0 L 12.171875 0 L 12.78046875 0 L 13.389062500000001 0 L 13.997656250000002 0 L 14.606250000000001 0 L 15.21484375 0 L 15.8234375 0 L 16.43203125 0 L 17.040625000000002 0 L 17.649218750000003 0 L 18.2578125 0 L 18.86640625 0 L 19.475 0 L 20.083593750000002 0 L 20.692187500000003 0 L 21.30078125 0 L 21.909375 0 L 22.51796875 0 L 23.1265625 0 L 23.73515625 0 L 24.34375 0 L 24.95234375 0 L 25.5609375 0 L 26.169531250000002 0 L 26.778125000000003 0 L 27.386718750000004 0 L 27.995312500000004 0 L 28.60390625 0 L 29.212500000000002 0 L 29.821093750000003 0 L 30.4296875 0 L 31.03828125 0 L 31.646875 0 L 32.255468750000006 0 L 32.8640625 0 L 33.47265625 0 L 34.081250000000004 0 L 34.68984375000001 0 L 35.298437500000006 0 L 35.90703125 0 L 36.515625 0 L 37.12421875 0 L 37.7328125 0 L 38.341406250000006 0 L 38.95 0 L 40.225936709837434 1.7781249999999993 L 41.4760982680985 3.5562499999999986 L 42.67523020611663 5.334374999999998 L 43.7991089027481 7.112499999999997 L 44.825030924871356 8.890624999999996 L 45.732271658622814 10.668749999999996 L 46.502503966575986 12.446874999999995 L 47.120168413585354 14.224999999999994 L 47.57278758237602 16.003124999999994 L 47.85121812940123 17.781249999999993 L 47.94983548919649 19.559374999999992 L 47.8666474960241 21.33749999999999 L 47.60333462754163 23.11562499999999 L 47.165216057533186 24.89374999999999 L 46.56114220347115 26.67187499999999 L 45.80331593955116 28.44999999999999 L 45.02019093955116 28.44999999999999 L 44.237065939551165 28.44999999999999 L 43.45394093955117 28.44999999999999 L 42.67081593955116 28.44999999999999 L 41.887690939551156 28.44999999999999 L 41.10456593955116 28.44999999999999 L 40.32144093955116 28.44999999999999 L 39.53831593955116 28.44999999999999 L 38.75519093955116 28.44999999999999 L 37.972065939551165 28.44999999999999 L 37.18894093955116 28.44999999999999 L 36.40581593955116 28.44999999999999 L 35.62269093955116 28.44999999999999 L 34.83956593955116 28.44999999999999 L 34.05644093955116 28.44999999999999 L 33.27331593955116 28.44999999999999 L 33.27331593955116 28.44999999999999 Z" fill="black" stroke="black" />
				</svg>