<svg
					xmlns="http://www.w3.org/2000/svg" xmlns:xlink="http://www.w3.org/1999/xlink"
					style="
						overflow: visible;
						height: 100;
					"
					viewBox="-6.854366209366711 1.1013412404281553e-12 51.64445884791025 132.12499999999997"
				>
					<path d="M 43.663383666803355 91.27500000000109 L 43.663383666803355 91.27500000000109 Q 43.898861575848095 91.9265625000011 44.10328379173757 92.57402343750108 Q 44.285948118285226 93.22148437500107 44.43702425283057 93.86484375000109 Q 44.565667227966266 94.5082031250011 44.66246419474433 95.14746093750108 Q 44.73641480279663 95.78671875000109 44.778527820498084 96.42187500000108 Q 44.797636701463546 97.0570312500011 44.78517142965256 97.6880859375011 Q 44.74979036033614 98.31914062500111 44.68333992347251 98.9460937500011 Q 44.594296468943185 99.5730468750011 44.47491397160842 100.1958984375011 Q 44.33348192120535 100.8187500000011 44.16264907475878 101.43750000000111 Q 43.9705152892102 102.05625000000111 43.75010777743308 102.67089843750112 Q 43.50933607635292 103.28554687500113 43.24158628575039 103.89609375000111 Q 42.95457899862986 104.5066406250011 42.642036728757844 105.1130859375011 Q 42.31149451840722 105.7195312500011 41.95698626973547 106.32187500000111 Q 41.585866815838585 106.9242187500011 41.19245422814756 107.52246093750111 Q 40.78393033107674 108.12070312500111 40.354868315132336 108.71484375000111 Q 39.91228594735546 109.30898437500112 39.450981017525486 109.89902343750111 Q 38.977817812733406 110.48906250000113 38.4877870892105 111.07500000000113 Q 37.989228300524736 111.65937500000112 37.48123692389167 112.23007812500111 Q 36.96514815532113 112.80078125000111 36.441947082257904 113.3578125000011 Q 35.912515467388204 113.91484375000111 35.37807560322801 114.4582031250011 Q 34.839131262158276 115.0015625000011 34.297057378892546 115.5312500000011 Q 33.752054467699814 116.0609375000011 33.20557133106733 116.5769531250011 Q 32.65757827141311 117.09296875000109 32.109525326814286 117.59531250000109 Q 31.561223104281453 118.0976562500011 31.014056605748344 118.58632812500107 Q 30.46774401668153 119.0750000000011 29.923545490332252 119.55000000000109 Q 29.381150237285397 120.02500000000109 28.841640203952448 120.48632812500108 Q 28.304734783668245 120.94765625000107 27.771290719252914 121.39531250000107 Q 27.241112109124067 121.84296875000108 26.714789690650914 122.27695312500109 Q 26.192261915011986 122.71093750000108 25.67381868078871 123.13125000000107 Q 25.15957742285237 123.55156250000107 24.649498062565584 123.95820312500106 Q 24.14391657758283 124.36484375000107 23.642439159119018 124.75781250000108 Q 23.14565483620281 125.15078125000107 22.65279736755943 125.53007812500107 Q 22.164738378896274 125.90937500000108 21.68032519335516 126.27500000000109 Q 21.200736758086457 126.64062500000108 20.728119670569875 126.98339843750108 Q 20.260035031016074 127.3261718750011 19.797990404536886 127.64609375000109 Q 19.34012049508072 127.96601562500109 18.887312390464302 128.2630859375011 Q 18.438276625816762 128.56015625000109 17.99330520186749 128.8343750000011 Q 17.551677369396465 129.1085937500011 17.113121276675827 129.35996093750109 Q 16.67746950216926 129.61132812500108 16.24392252973439 129.83984375000108 Q 15.812843632630308 130.06835937500108 15.382945978678555 130.27402343750109 Q 14.955094626625066 130.4796875000011 14.527559237552897 130.66250000000107 Q 14.101672368418658 130.84531250000109 13.675306831782887 131.0052734375011 Q 13.250223839292975 131.1652343750011 12.823948329767905 131.30234375000109 Q 12.39862751184367 131.43945312500108 11.971489280311275 131.55371093750108 Q 11.545021031543902 131.66796875000108 11.116205900255654 131.75937500000109 Q 10.687823095824841 131.85078125000106 10.256664380915305 131.91933593750107 Q 9.825750352210877 131.98789062500109 9.391735581965149 132.03359375000107 Q 8.957830027184356 132.0792968750011 8.520605763088772 132.10214843750109 Q 8.083408871671253 132.12500000000108 7.642783871671254 132.12500000000108 L 7.642783871671254 132.12500000000108 Q 7.201533871671254 132.12500000000108 6.7780660648671365 132.1125000000011 Q 6.35460645155878 132.1000000000011 5.948961790509573 132.0750000000011 Q 5.5433498586023 132.0500000000011 5.155618262107414 132.01250000000107 Q 4.767960136555562 131.97500000000107 4.398280079790336 131.9250000000011 Q 4.0287302103702505 131.8750000000011 3.6772880727548003 131.8125000000011 Q 3.3260484790780716 131.7500000000011 2.993077630944489 131.6750000000011 Q 2.6603968761459136 131.6000000000011 2.3461764787189985 131.51250000000113 Q 2.032348343605401 131.4250000000011 1.7372018305020793 131.3250000000011 Q 1.4436378154821004 131.2218750000011 1.1610911767028087 131.1035156250011 Q 0.8792498270610345 130.9851562500011 0.6087814072390998 130.85156250000108 Q 0.3392012706943568 130.7179687500011 0.08138801523670924 130.5691406250011 Q -0.175337606175475 130.42031250000107 -0.4198670994885143 130.25625000000107 Q -0.6630955982394884 130.0921875000011 -0.8936671162943695 129.91289062500107 Q -1.122713059849759 129.7335937500011 -1.3386139103013557 129.53906250000108 Q -1.5527566709562537 129.34453125000107 -1.753244037019365 129.13476562500108 Q -1.951736691049014 128.9250000000011 -2.136047325054 128.70000000000107 Q -2.318126939964162 128.47500000000107 -2.4922323545925034 128.23320312500107 Q -2.6638439745391533 127.99140625000106 -2.8268765679779726 127.73281250000107 Q -2.9871627441756514 127.47421875000107 -3.138268693792911 127.19882812500106 Q -3.286393499832824 126.92343750000107 -3.424752165852176 126.63125000000107 Q -3.5599215572321135 126.33906250000108 -3.684767216275727 126.03007812500107 Q -3.8062517381511487 125.72109375000107 -3.9168976897021412 125.39531250000107 Q -4.024057552502222 125.06953125000106 -4.119922586751523 124.72695312500106 Q -4.212235069145817 124.38437500000106 -4.292872217396396 124.02500000000106 L -4.292872217396396 124.02500000000106 L -3.022349375877156 122.09062500000107 L -1.679592958057208 120.15625000000107 L -0.2966945874047067 118.22187500000106 L 1.0932947275603082 116.28750000000107 L 2.4571545060949194 114.35312500000107 L 3.7622887584162927 112.41875000000107 L 4.9775050236692495 110.48437500000107 L 6.073759863818919 108.55000000000106 L 7.024852996305984 106.61562500000107 L 7.808053475825798 104.68125000000107 L 8.404642959605786 102.74687500000107 L 8.800363072244094 100.81250000000108 L 8.985756178174784 98.87812500000108 L 8.956391417362363 96.94375000000107 L 8.712970602015446 95.00937500000107 L 8.261311443408214 93.07500000000107 Q 8.611975056720368 93.40000000000109 8.95495115637831 93.7156250000011 Q 9.292550729346102 94.0312500000011 9.62300008083355 94.33750000000109 Q 9.948299995046858 94.64375000000106 10.266999956495699 94.94062500000109 Q 10.580792558119708 95.23750000000108 10.888543131262434 95.52500000000109 Q 11.191639480267861 95.8125000000011 11.489254564910269 96.0906250000011 Q 11.782476056044139 96.3687500000011 12.070775567674323 96.6375000000011 Q 12.354946409529324 96.90625000000111 12.63474924093099 97.1656250000011 Q 12.910689769605973 97.42500000000109 13.182807568438337 97.6750000000011 Q 13.451328364145825 97.9250000000011 13.716560091202881 98.1656250000011 Q 13.978456859638673 98.4062500000011 14.237584086770264 98.6375000000011 Q 14.493633261975766 98.8687500000011 14.74741616430057 99.09062500000111 Q 14.998371185978034 99.31250000000111 15.24754517990188 99.52500000000111 Q 15.494133395543795 99.7375000000011 15.73940637207479 99.94062500000112 Q 15.982326512702397 100.14375000000112 16.22437661449071 100.33750000000111 Q 16.46429679212826 100.53125000000111 16.703770682422473 100.71562500000113 Q 16.9413268575367 100.90000000000111 17.178838429717366 101.07500000000113 Q 17.41463329760558 101.25000000000112 17.64765268967156 101.41406250000114 Q 17.879173480405317 101.57812500000112 18.108328856933028 101.73125000000111 Q 18.336187983893907 101.88437500000109 18.562061356097896 102.0265625000011 Q 18.78682507529536 102.1687500000011 19.00995252787648 102.3000000000011 Q 19.23214128447197 102.43125000000109 19.453013452180713 102.5515625000011 Q 19.673102450254433 102.67187500000108 19.89216518401167 102.7812500000011 Q 20.328364459470606 103.00000000000108 20.761984576022684 103.17500000000108 Q 21.193979980135097 103.35000000000107 21.62504118478205 103.48125000000107 Q 22.05519822260952 103.61250000000105 22.485636072527694 103.70000000000105 Q 22.915675308530993 103.78750000000107 23.34679586125947 103.83125000000106 Q 23.777817260878933 103.87500000000105 24.21031726087893 103.87500000000105 L 24.21031726087893 103.87500000000105 Q 24.596567260878935 103.87500000000105 24.970366412241518 103.83281250000107 Q 25.34407337198622 103.79062500000106 25.704960114508417 103.70625000000106 Q 26.065476294747057 103.62187500000107 26.412428191170914 103.49531250000106 Q 26.758539778353324 103.36875000000106 27.08995816707977 103.20000000000107 Q 27.41986710073033 103.03125000000108 27.733555133714937 102.82031250000108 Q 28.04485529661808 102.60937500000108 28.337991918413884 102.3562500000011 Q 28.913783732600173 101.85000000000109 29.402002481321162 101.17500000000109 Q 29.86473574468261 100.5000000000011 30.22003867563713 99.7343750000011 Q 30.541850480674558 98.96875000000108 30.739888325184204 98.11250000000108 Q 30.89571295382015 97.25625000000107 30.909970483071866 96.30937500000108 Q 30.87318384033528 95.36250000000108 30.676526146823104 94.32500000000107 L 30.676526146823104 94.32500000000107 Q 30.357736496461747 93.06250000000108 29.86366397236266 91.9187500000011 Q 29.303528899760963 90.77500000000111 28.602086283561345 89.7500000000011 Q 28.23344753953416 89.23750000000109 27.834906244777805 88.7546875000011 Q 27.42657484247404 88.27187500000109 26.991458884605088 87.8187500000011 Q 26.5483490999375 87.36562500000107 26.0811824304198 86.94218750000107 Q 25.607585345510508 86.51875000000106 25.112283548339846 86.12500000000108 Q 24.610639663891206 85.73125000000107 24.03530144558099 85.29960937500107 Q 23.45443903136394 84.86796875000108 22.798584017427306 84.39843750000108 Q 22.136993553440476 83.92890625000108 21.399416973935235 83.42148437500107 Q 20.656195403218106 82.91406250000108 19.836422379652564 82.3687500000011 Q 19.42455471015615 82.0960937500011 18.993530999507588 81.81396484375111 Q 18.561320126451047 81.53183593750111 18.10999392090156 81.24023437500111 Q 17.65761788269611 80.9486328125011 17.186213547307347 80.6475585937511 Q 16.713933026248462 80.3464843750011 16.222762132944425 80.0359375000011 Q 15.73092799491323 79.72539062500111 15.220396836973615 79.40537109375111 Q 14.709457557837595 79.08535156250112 14.180074491202648 78.75585937500111 Q 13.65058335679135 78.42636718750111 13.102965847053353 78.08740234375111 Q 12.555587799192393 77.74843750000113 11.990469038619933 77.40000000000111 L 11.990469038619933 77.40000000000111 Q 11.55090977447436 77.11875000000111 11.114519707544991 76.83574218750111 Q 10.678756591057383 76.55273437500112 10.24638518649067 76.26796875000112 Q 9.814857999545644 75.9832031250011 9.38695265509883 75.6966796875011 Q 8.960113563955222 75.41015625000111 8.5371336517203 75.12187500000111 Q 7.695157575986446 74.5453125000011 6.870093396410083 73.9617187500011 Q 6.052053255831398 73.3781250000011 5.252972701270684 72.7875000000011 Q 4.462814099881782 72.19687500000109 3.6937399409254095 71.5992187500011 Q 2.9355095470037194 71.0015625000011 2.2005443391502695 70.3968750000011 Q 1.4783466848136895 69.79218750000109 0.7816269071732247 69.1804687500011 Q 0.09957642263547051 68.56875000000109 -0.5547780358838601 67.95000000000108 Q -1.1926094762279202 67.33125000000108 -1.807676739997909 66.67734375000107 Q -2.4027290180975847 66.02343750000108 -2.9692153824389047 65.33437500000107 Q -3.511897632763124 64.64531250000108 -4.019678452376446 63.92109375000107 Q -4.499656374842928 63.19687500000107 -4.93797533837113 62.43750000000108 Q -5.344406669978584 61.67812500000109 -5.7021598791766195 60.88359375000108 Q -6.024018086509914 60.089062500001084 -6.290130679157731 59.259375000001086 Q -6.516623000868549 58.42968750000108 -6.6805222988775075 57.564843750001074 Q -6.801603806654667 56.70000000000108 -6.853787631378187 55.800000000001084 Q -6.860766874462708 54.900000000001086 -6.783557235504777 53.941015625001086 Q -6.657521743152472 52.982031250001086 -6.438476771671198 51.96406250000109 Q -6.168738765299043 50.9460937500011 -5.7994211141471785 49.869140625001094 Q -5.380035331180157 48.7921875000011 -4.8577723618274735 47.656250000001094 Q -4.289333937623182 46.52031250000108 -3.6190608868281284 45.32539062500109 Q -2.9105152471405358 44.13046875000109 -2.106534928170627 42.8765625000011 Q -1.6943433403011432 42.2496093750011 -1.2604775217429949 41.607910156251094 Q -0.8222021985815184 40.966210937501096 -0.3642403760652275 40.30976562500109 Q 0.09578341740270763 39.653320312501094 0.5730812040577826 38.98212890625109 Q 1.04978178764779 38.31093750000109 1.5409187293508733 37.625000000001094 L 1.5409187293508733 37.625000000001094 Q 2.0925749973043892 36.8484375000011 2.636095142063805 36.0876953125011 Q 3.1712229789876254 35.3269531250011 3.6949865335812007 34.582031250001094 Q 4.207045584029161 33.83710937500109 4.705189362770367 33.10800781250109 Q 5.188847214045447 32.378906250001094 5.6566990992241495 31.665625000001096 Q 6.107807388112356 30.9523437500011 6.541848798836989 30.254882812501094 Q 6.957393992406509 29.557421875001097 7.3551997834996055 28.875781250001094 Q 7.733233666348312 28.19414062500109 8.093394376295578 27.528320312501087 Q 8.432949069310093 26.86250000000109 8.754980164264277 26.212500000001093 Q 9.055972174302454 25.56250000000109 9.340214562582256 24.928320312501093 Q 9.603341951323848 24.29414062500109 9.850857600864883 23.675781250001087 Q 10.07749389402453 23.057421875001086 10.289959901500096 22.454882812501083 Q 10.482047862595927 21.852343750001086 10.661651821246474 21.265625000001087 Q 10.821599709147137 20.678906250001088 10.970938722572432 20.108007812501086 Q 11.101521157094641 19.537109375001084 11.22350636427532 18.982031250001082 Q 11.327771453303939 18.42695312500108 11.425539478107542 17.887695312501076 Q 11.506723423591339 17.348437500001076 11.583555748741286 16.825000000001076 Q 11.644677149051915 16.303125000001078 11.701659123442017 15.797265625001078 Q 11.744592757125735 15.291406250001081 11.785525108400854 14.801562500001083 Q 11.813658563907538 14.311718750001084 11.841871864711097 13.837890625001084 Q 11.858520538421711 13.364062500001086 11.877250203122081 12.906250000001087 Q 11.885615765446474 12.448437500001088 11.897965216624591 12.006640625001088 Q 11.901102338314194 11.56484375000109 11.910014097500735 11.139062500001092 Q 11.910804848235049 10.713281250001092 11.919038917617971 10.303515625001092 Q 11.920174167631577 9.893750000001093 11.930293005995534 9.500000000001094 Q 11.934260112320871 9.106250000001095 11.948619474502301 8.728515625001096 Q 11.957695511531169 8.350781250001095 11.978440411450046 7.989062500001096 Q 11.994690206297566 7.6273437500010965 12.02375527461949 7.2816406250010965 Q 12.049033526786868 6.935937500001097 12.088147061236196 6.606250000001097 Q 12.124103859230043 6.276562500001097 12.174794904647086 5.962890625001097 Q 12.222883995838401 5.649218750001097 12.286491838800993 5.351562500001097 Q 12.347981059643882 5.053906250001097 12.425666575845185 4.772265625001096 Q 12.501649904814856 4.490625000001096 12.594408253835958 4.225000000001096 Q 12.68688801915021 3.960937500001096 12.794949695544254 3.7133789062510965 Q 12.90197809471881 3.465820312501097 13.024998161234356 3.234765625001097 Q 13.14723133718402 3.003710937501097 13.285791408099636 2.7891601562510977 Q 13.423764766073914 2.574609375001098 13.57833479627177 2.376562500001098 Q 13.73247788434266 2.1785156250010984 13.90343072052931 1.9969726562510988 Q 14.074081570679182 1.815429687501099 14.26170685507963 1.6503906250010991 Q 14.449125599617858 1.4853515625010993 14.653642863031056 1.3368164062510997 Q 14.858024479671203 1.1882812500010997 15.079595296364204 1.0562500000011 Q 15.301081368527676 0.9242187500011001 15.539820475753011 0.8086914062511003 Q 15.778509882704084 0.6931640625011004 16.034495192888592 0.5941406250011005 Q 16.290453667436353 0.4951171875011007 16.56373512164512 0.4125976562511008 Q 16.837003631741066 0.3300781250011009 17.12761085927433 0.264062500001101 Q 17.41821278432358 0.19804687500110107 17.726161545716895 0.14853515625110114 Q 18.03410862928412 0.09902343750110121 18.35940602904732 0.06601562500110125 Q 18.68470309738158 0.0330078125011013 19.027351559048387 0.01650390625110132 Q 19.37000000000079 1.1013412404281553e-12 19.73000000000079 1.1013412404281553e-12 L 19.73000000000079 1.1013412404281553e-12 Q 20.04500000000079 1.1013412404281553e-12 20.363929686495908 0.010937500001101247 Q 20.68285936696173 0.021875000001101153 21.00571868568833 0.043750000001100964 Q 21.328577907946404 0.06562500000110078 21.65536645494349 0.09843750000110049 Q 21.982154513572862 0.1312500000011002 22.31287088404113 0.17500000000109983 Q 22.64358571106139 0.21875000000109945 22.97822648658251 0.273437500001099 Q 23.312863494099613 0.3281250000010985 23.65142186851426 0.39375000000109794 Q 23.989972430270267 0.4593750000010974 24.33243647490861 0.5359375000010967 Q 24.67488604768522 0.6125000000010961 25.021236617302584 0.7000000000010953 Q 25.36756250392649 0.7875000000010945 25.7177707856882 0.8859375000010937 Q 26.06793954254763 0.9843750000010929 26.421964251799867 1.093750000001092 Q 26.775928745374433 1.203125000001091 27.13371297379959 1.32343750000109 Q 27.49140909279688 1.443750000001089 27.85287681694834 1.5750000000010878 Q 28.21421984929509 1.7062500000010865 28.579272110501158 1.8484375000010855 Q 28.944152797716733 1.990625000001084 29.312663567996523 2.143750000001083 Q 29.680943853439345 2.2968750000010814 30.052755606439675 2.46093750000108 Q 30.424264098615655 2.6250000000010787 30.799183109706487 2.800000000001077 Q 31.172616982867083 2.973437500001077 31.54453030864427 3.150097656251077 Q 31.915995405524985 3.3267578125010773 32.28585803219898 3.5066406250010775 Q 32.65520464162248 3.6865234375010774 33.022860247172524 3.8696289062510782 Q 33.38992752721372 4.052734375001078 33.75520848825721 4.239062500001078 Q 34.483746672085985 4.61171875000108 35.20451415810684 4.997265625001081 Q 35.92194942109196 5.382812500001082 36.63068163684947 5.781250000001084 Q 37.33533420275212 6.179687500001085 38.03023397120168 6.591015625001088 Q 38.720230440244755 7.00234375000109 39.39930519076548 7.426562500001093 Q 40.07257789844954 7.850781250001095 40.73364075909731 8.287890625001099 Q 41.3879304390323 8.725000000001103 42.0286049074319 9.175000000001106 L 42.0286049074319 9.175000000001106 L 42.602441899702136 10.851562500001105 L 43.05291080598097 12.528125000001102 L 43.367148744194324 14.2046875000011 L 43.53473988964664 15.8812500000011 L 43.54790256993058 17.5578125000011 L 43.40162904370979 19.234375000001094 L 43.09377545258925 20.910937500001094 L 42.62510033030732 22.587500000001093 L 41.99925097752545 24.264062500001092 L 41.22269794695945 25.94062500000109 L 40.30461881566714 27.617187500001087 L 39.25673333224011 29.293750000001086 L 38.09309290007853 30.970312500001086 L 36.82982817816904 32.64687500000108 L 35.48485933310267 34.323437500001084 L 34.077574146949246 36.00000000000108 Q 33.99027940262338 35.52812500000108 33.88456935069699 35.08007812500109 Q 33.77505612252762 34.63203125000109 33.647151274512744 34.20781250000109 Q 33.515162812819504 33.78359375000109 33.36505109001001 33.38320312500109 Q 33.21075006212369 32.982812500001096 33.03879354473772 32.6062500000011 Q 32.862686552143714 32.22968750000109 32.66954863247396 31.87695312500109 Q 32.472415166375384 31.52421875000109 32.25899267815855 31.195312500001094 Q 32.04181944490545 30.866406250001095 31.809180491405783 30.561328125001094 Q 31.57310167277788 30.25625000000109 31.3224295446576 29.97500000000109 Q 31.069923254196734 29.69375000000109 30.803579037013964 29.447656250001085 Q 30.534767301094593 29.20156250000108 30.25342826957342 28.99062500000108 Q 29.970211344937052 28.77968750000108 29.675658351128302 28.60390625000108 Q 29.379764415943825 28.428125000001078 29.073572811928095 28.287500000001078 Q 28.76650431966434 28.146875000001078 28.44999760192825 28.04140625000108 Q 28.132989677589045 27.935937500001078 27.807204290855204 27.865625000001074 Q 27.48119367237244 27.795312500001074 27.146853595769198 27.760156250001074 Q 26.812456845575007 27.725000000001074 26.469956845575005 27.725000000001074 L 26.469956845575005 27.725000000001074 Q 26.13745684557501 27.725000000001074 25.81086019060602 27.761718750001076 Q 25.484201718324897 27.798437500001075 25.163199875763382 27.871875000001076 Q 24.841952431079772 27.94531250000108 24.525873216029083 28.05546875000108 Q 24.20924774311309 28.165625000001082 23.897070728675686 28.31250000000108 Q 23.26986117489516 28.606250000001086 22.654551077710387 29.046875000001087 Q 22.031081854025413 29.4875000000011 21.409240178528698 30.075000000001104 Q 20.77753419692324 30.6562500000011 20.166166355276562 31.317187500001094 Q 19.53985187356328 31.978125000001093 18.928848849016074 32.71875000000109 Q 18.302039406523797 33.45937500000109 17.687028710005002 34.27968750000108 Q 17.056957590426006 35.10000000000108 16.437574146949245 36.00000000000108 L 16.437574146949245 36.00000000000108 Q 15.898841229658865 36.768750000001084 15.445512164053605 37.49062500000108 Q 14.98792620011606 38.212500000001086 14.620290936340632 38.88750000000109 Q 14.25185311924373 39.562500000001094 13.976433151088385 40.1906250000011 Q 13.702685222493217 40.8187500000011 13.523745715072135 41.40000000000111 Q 13.341211444067271 41.987500000001106 13.223884655032624 42.60156250000111 Q 13.11227733850588 43.21562500000111 13.068926924574251 43.856250000001104 Q 13.050360546465537 44.176562500001104 13.049529678061935 44.5035156250011 Q 13.051202013480498 44.830468750001096 13.071107498576595 45.164062500001094 Q 13.093924567597856 45.49765625000109 13.135511390149851 45.837890625001094 Q 13.1804424960828 46.178125000001096 13.244718407641802 46.5250000000011 Q 13.309698131318257 46.8750000000011 13.390391329246649 47.2488281250011 Q 13.475880372027943 47.6226562500011 13.578693158801192 48.02031250000109 Q 13.687373414574616 48.41796875000108 13.815227636460556 48.839453125001086 Q 13.950171790715228 49.26093750000108 14.106391106283429 49.706250000001084 Q 14.271076101760766 50.15156250000109 14.459394543017723 50.620703125001086 Q 14.657705543200425 51.08984375000109 14.882265241858017 51.58281250000108 Q 15.118487694889263 52.07578125000108 15.38382328482296 52.59257812500108 Q 15.521520159102359 52.85097656250108 15.667070559513778 53.115332031251086 Q 15.816222043348244 53.37968750000108 15.97362765621412 53.650000000001086 L 15.97362765621412 53.650000000001086 Q 16.133374091561024 53.907812500001086 16.291452594688494 54.16884765625109 Q 16.453177439590718 54.42988281250109 16.61347500733693 54.69414062500108 Q 16.945485785170757 55.222656250001094 17.273234593525544 55.76406250000109 Q 17.617334431503238 56.30546875000108 17.95909150517434 56.85976562500109 Q 18.318306702822884 57.414062500001094 18.677056940798224 57.98125000000109 Q 19.054283463962815 58.548437500001086 19.43284681147236 59.128515625001086 Q 19.83078543953202 59.708593750001086 20.231748793048638 60.30156250000108 Q 20.652834923953264 60.89453125000109 21.078479056870524 61.500390625001074 Q 21.524807959677208 62.106250000001076 21.97703039448428 62.725000000001074 Q 22.450278956768827 63.34375000000108 22.932973485933218 63.990625000001074 Q 23.437798086400612 64.63750000000107 23.954922955854855 65.31250000000108 Q 24.49491304541114 65.98750000000108 25.049616275294895 66.69062500000108 Q 25.627442435197334 67.39375000000108 26.22180420560047 68.12500000000108 Q 26.838954042202182 68.85625000000108 27.4737133238824 69.61562500000109 Q 28.13021557548475 70.3750000000011 28.804490066302044 71.16250000000109 Q 29.49863725497176 71.95000000000108 30.20964854802785 72.7656250000011 Q 30.937731431022016 73.58125000000109 31.68055031666394 74.42500000000109 Q 32.43787034998402 75.26875000000109 33.220758075446746 76.1648437500011 Q 34.01237703986822 77.06093750000109 34.825071848470685 78.00937500000109 Q 35.63996364946875 78.9578125000011 36.468546567574165 79.95859375000109 Q 37.29059907983273 80.95937500000107 38.11579310108302 82.01250000000108 Q 38.923477384411484 83.06562500000109 39.72047784582266 84.17109375000109 Q 40.48684891327569 85.27656250000108 41.22555015969033 86.43437500000107 Q 41.918695895108876 87.59218750000109 42.5644313666742 88.80234375000109 Q 43.14848236405603 90.0125000000011 43.663383666803355 91.27500000000109 L 43.663383666803355 91.27500000000109 Z" fill="black" stroke="black" />
				</svg>